# This file uses meters as units for non-parametric coordinates.

v -62.826748 106.144619 23.626863
v -62.929489 106.144619 5.383861
v -63.538132 105.107990 40.034023
v -65.575641 101.810577 46.142834
v -63.267753 106.144619 -2.603216
v -72.502964 85.221651 2.605219
v -80.535953 65.404335 7.967914
v -72.563495 87.463413 66.351406
v -77.432209 73.973961 83.446575
v -80.284580 65.404335 90.482296
v -80.410267 65.404335 46.470018
v -80.473110 65.404335 24.463879
v -80.347423 65.404335 68.476158
v -62.384460 105.968346 23.588182
v -62.487202 105.968346 5.345180
v -62.820309 105.833950 -2.641897
v -63.095844 104.931717 39.995342
v -65.295803 101.531315 46.094753
v -71.992290 85.077368 2.566538
v -80.025280 65.260052 7.929233
v -72.195789 87.319130 66.312725
v -77.102810 73.766564 83.359432
v -79.916874 65.260052 90.443615
v -79.903568 65.260052 68.437477
v -79.966411 65.260052 46.431337
v -80.029255 65.260052 24.425198
v -58.425556 109.092464 -8.006472
v -75.796177 70.678048 96.617908
v -78.954998 0.133759 90.484264
v -78.955257 0.134605 97.549831
v -78.753094 0.133331 68.480095
v -78.551319 0.133327 46.473959
v -78.348812 0.130917 24.467628
v -78.180576 0.130695 4.077083
v -63.004314 105.869804 -7.736048
v -72.161365 85.045883 -2.100502
v -80.110599 65.259860 3.265225
v -82.623867 56.209090 3.567796
v -85.660244 45.430959 3.868676
v -87.361332 29.767479 3.983089
v -79.875995 63.097025 97.176456
v -82.461750 54.652249 97.199932
v -85.582455 44.456782 97.209194
v -87.759182 30.104439 97.672405
v -79.888180 3.099411 97.599812
v -60.805160 102.430119 47.110001
v -67.649555 89.885595 66.471981
v -74.540165 70.860770 89.922047
v -61.866150 101.337143 46.664560
v -68.710544 88.792618 66.026543
v -74.908550 71.132988 87.263630
v -73.867634 67.000755 93.909237
v -74.122272 66.773024 90.711376
v -77.710674 63.892951 90.443615
v -77.697368 63.892951 68.437477
v -77.760212 63.892951 46.431337
v -77.823055 63.892951 24.425198
v -77.819080 63.892951 7.102083
v -79.198124 52.380452 90.443615
v -79.184818 52.380452 68.437477
v -79.247661 48.387718 46.431337
v -79.310505 48.387718 24.425198
v -79.306530 48.387718 7.102083
v -74.666927 47.666338 46.431337
v -74.729763 47.666338 24.425198
v -76.314655 47.666338 9.909516
v -79.198124 43.928596 88.165005
v -79.184818 43.928596 68.437477
v -74.604076 43.207215 68.437477
v -74.617382 43.207215 83.909382
v -79.247661 43.928596 46.431337
v -74.666927 43.207215 46.431337
v -74.666927 43.207215 24.425198
v -75.678722 43.207215 9.909516
v -75.933048 36.510487 83.909382
v -75.919742 36.510487 68.437477
v -75.982593 36.510487 46.431337
v -75.982593 36.510487 24.425198
v -77.571453 36.510487 9.909516
v -79.814716 33.413706 87.590313
v -79.814716 33.413704 68.441513
v -79.814716 33.413704 46.436457
v -79.814716 33.413704 24.425198
v -81.650554 33.413706 8.806178
v -79.294887 24.654579 68.441513
v -79.294887 24.654579 46.436457
v -79.294887 24.654579 24.425198
v -81.130726 24.654583 8.806178
v -76.696895 14.934589 90.441448
v -76.696895 14.934582 68.441513
v -76.696895 14.934582 46.436457
v -76.696895 14.934582 24.425198
v -78.532734 14.934589 8.806178
v -78.845112 43.207215 6.102113
v -82.770954 14.949089 4.030087
v -83.823681 16.601925 97.636105
v -70.238186 85.061626 1.191255
v -77.243221 63.892951 93.527348
v -78.730671 52.380452 93.527348
v -79.864666 43.928596 95.168301
v -80.770611 33.413706 94.557682
v -78.044788 14.934589 95.009365
v -60.486751 106.203342 23.588182
v -60.589493 106.203342 5.345180
v -60.922600 106.068947 -4.190525
v -61.198135 105.166714 39.995342
v -58.455993 108.240044 23.588182
v -58.558735 108.240044 5.345180
v -59.167377 107.203415 39.995342
vt 0.900196 0.726839
vt 0.900242 0.727364
vt 0.880418 0.726122
vt 0.880432 0.725601
vt 0.908848 0.727058
vt 0.909341 0.727139
vt 0.862644 0.723177
vt 0.862762 0.722673
vt 0.856300 0.718222
vt 0.856606 0.717920
vt 0.905221 0.702127
vt 0.905807 0.702101
vt 0.900927 0.678857
vt 0.901323 0.678526
vt 0.835716 0.699394
vt 0.835987 0.699054
vt 0.819029 0.681650
vt 0.819372 0.681413
vt 0.812970 0.671376
vt 0.813160 0.671651
vt 0.836349 0.672658
vt 0.836276 0.673154
vt 0.859946 0.675230
vt 0.860033 0.674729
vt 0.883668 0.676847
vt 0.883566 0.677350
vt 0.833986 0.705023
vt 0.834709 0.703446
vt 0.854236 0.721371
vt 0.853615 0.722983
vt 0.810404 0.679677
vt 0.813391 0.680230
vt 0.806743 0.673958
vt 0.809731 0.674475
vt 0.812296 0.669004
vt 0.836497 0.669907
vt 0.860282 0.671926
vt 0.884018 0.674040
vt 0.903563 0.676614
vt 0.813404 0.656004
vt 0.837458 0.657512
vt 0.861804 0.655140
vt 0.953795 0.514637
vt 0.904546 0.659239
vt 0.816688 0.646770
vt 0.888702 0.504597
vt 0.905581 0.504654
vt 0.838222 0.648493
vt 0.929602 0.509626
vt 0.953559 0.509606
vt 0.969482 0.509650
vt 0.929595 0.504741
vt 0.925823 0.509461
vt 0.953543 0.504761
vt 0.969227 0.504759
vt 0.888727 0.497149
vt 0.905609 0.497208
vt 0.929618 0.497276
vt 0.953615 0.497345
vt 0.969549 0.497206
vt 0.818100 0.635339
vt 0.839151 0.637077
vt 0.863204 0.638986
vt 0.887269 0.640891
vt 0.904704 0.642491
vt 0.839972 0.627604
vt 0.863941 0.629487
vt 0.887968 0.631364
vt 0.905270 0.632663
vt 0.817214 0.614760
vt 0.840907 0.616684
vt 0.864766 0.618577
vt 0.888573 0.620407
vt 0.905480 0.621671
vt 0.905343 0.653790
vt 0.909843 0.667793
vt 0.908606 0.677685
vt 0.912705 0.655569
vt 0.912926 0.638910
vt 0.912195 0.622906
vt 0.908137 0.702763
vt 0.912250 0.702200
vt 0.808578 0.668722
vt 0.810034 0.655756
vt 0.809266 0.646271
vt 0.804080 0.657207
vt 0.804082 0.666357
vt 0.802822 0.646003
vt 0.801941 0.630867
vt 0.810278 0.634690
vt 0.805320 0.616160
vt 0.812130 0.614304
vt 0.809468 0.601246
vt 0.810511 0.598025
vt 0.801985 0.674345
vt 0.818234 0.598561
vt 0.842146 0.600441
vt 0.865991 0.602383
vt 0.889840 0.604244
vt 0.911934 0.606040
vt 0.900249 0.729443
vt 0.880232 0.728194
vt 0.911628 0.728653
vt 0.862239 0.725223
vt 0.900240 0.732530
vt 0.880000 0.731312
vt 0.915741 0.733044
vt 0.862048 0.728351
vt 0.916011 0.727622
vt 0.884036 0.509638
vt 0.883423 0.492981
vt 0.974504 0.504404
vt 0.971154 0.491719
vt 0.974043 0.510308
vt 0.953801 0.491990
vt 0.929640 0.491891
vt 0.905627 0.491778
vt 0.927260 0.514348
vt 0.862249 0.650333
vt 0.905570 0.509714
vt 0.885676 0.657330
vt 0.973151 0.492752
vt 0.884726 0.491718
vt 0.972898 0.512679
vt 0.881838 0.504383
vn -0.370070 -0.929001 0.002084
vn -0.370070 -0.929001 0.002084
vn -0.370070 -0.929001 0.002084
vn -0.370070 -0.929001 0.002084
vn -0.478072 -0.877891 0.027478
vn -0.478073 -0.877891 0.027478
vn -0.478073 -0.877891 0.027478
vn -0.478073 -0.877891 0.027478
vn -0.374829 -0.924085 -0.074638
vn -0.374829 -0.924085 -0.074638
vn -0.374829 -0.924085 -0.074638
vn -0.374829 -0.924085 -0.074638
vn -0.493541 -0.678806 -0.543728
vn -0.493541 -0.678806 -0.543728
vn -0.493541 -0.678806 -0.543728
vn -0.493541 -0.678806 -0.543728
vn 0.160226 0.172155 0.971952
vn 0.160226 0.172155 0.971952
vn 0.160226 0.172155 0.971952
vn 0.160226 0.172155 0.971952
vn 0.132329 0.208580 0.969012
vn 0.132329 0.208580 0.969012
vn 0.132329 0.208580 0.969012
vn 0.132329 0.208580 0.969012
vn -0.489703 -0.623935 -0.609013
vn -0.489703 -0.623935 -0.609013
vn -0.489703 -0.623935 -0.609013
vn -0.489703 -0.623935 -0.609013
vn -0.436957 -0.640005 -0.632030
vn -0.436957 -0.640005 -0.632030
vn -0.436957 -0.640005 -0.632030
vn -0.436957 -0.640005 -0.632030
vn -0.393355 -0.504832 -0.768386
vn -0.393355 -0.504832 -0.768386
vn -0.393355 -0.504832 -0.768386
vn -0.393355 -0.504832 -0.768386
vn 0.334988 0.942222 -0.000377
vn 0.334988 0.942222 -0.000377
vn 0.334988 0.942222 -0.000377
vn 0.334988 0.942222 -0.000377
vn 0.309070 0.951039 -0.000883
vn 0.309070 0.951039 -0.000883
vn 0.309070 0.951039 -0.000883
vn 0.309070 0.951039 -0.000883
vn 0.289342 0.957226 -0.000516
vn 0.289342 0.957226 -0.000516
vn 0.289342 0.957226 -0.000516
vn 0.289342 0.957226 -0.000516
vn 0.309081 0.951035 -0.000883
vn 0.309081 0.951035 -0.000883
vn 0.309081 0.951035 -0.000883
vn 0.309081 0.951035 -0.000883
vn 0.740176 -0.652784 -0.161285
vn 0.740176 -0.652784 -0.161285
vn 0.740176 -0.652784 -0.161285
vn 0.740176 -0.652784 -0.161285
vn 0.801009 -0.556031 -0.221843
vn 0.801009 -0.556031 -0.221843
vn 0.801009 -0.556031 -0.221843
vn 0.801009 -0.556031 -0.221843
vn 0.176778 -0.842803 -0.508363
vn 0.176778 -0.842803 -0.508363
vn 0.176778 -0.842803 -0.508363
vn 0.176778 -0.842803 -0.508363
vn 0.209239 -0.786748 -0.580729
vn 0.209239 -0.786748 -0.580729
vn 0.209239 -0.786748 -0.580729
vn 0.209239 -0.786749 -0.580729
vn 0.991179 0.081088 -0.104831
vn 0.991179 0.081088 -0.104831
vn 0.991179 0.081088 -0.104831
vn 0.991179 0.081088 -0.104831
vn 0.286489 -0.633493 -0.718756
vn 0.286489 -0.633493 -0.718756
vn 0.286489 -0.633493 -0.718756
vn 0.286489 -0.633493 -0.718756
vn 0.526733 0.850031 0.000318
vn 0.526733 0.850031 0.000318
vn 0.526733 0.850031 0.000318
vn 0.526733 0.850031 0.000318
vn 0.526734 0.850029 -0.001504
vn 0.526734 0.850029 -0.001504
vn 0.526734 0.850029 -0.001504
vn 0.526734 0.850029 -0.001504
vn 0.526752 0.850019 0.000124
vn 0.526752 0.850019 0.000124
vn 0.526752 0.850019 0.000124
vn 0.526752 0.850019 0.000124
vn 0.526730 0.850031 -0.001504
vn 0.526730 0.850031 -0.001504
vn 0.526730 0.850031 -0.001504
vn 0.526730 0.850031 -0.001504
vn 0.991756 -0.128137 0.000600
vn 0.991756 -0.128137 0.000600
vn 0.991756 -0.128137 0.000600
vn 0.991756 -0.128137 0.000600
vn 0.995426 -0.095493 -0.002843
vn 0.995426 -0.095493 -0.002843
vn 0.995426 -0.095493 -0.002843
vn 0.995426 -0.095493 -0.002843
vn 0.995430 -0.095493 0.000228
vn 0.995430 -0.095493 0.000228
vn 0.995430 -0.095493 0.000228
vn 0.995430 -0.095493 0.000228
vn 0.993968 -0.109446 0.007090
vn 0.993968 -0.109446 0.007090
vn 0.993967 -0.109446 0.007090
vn 0.993968 -0.109446 0.007090
vn 0.155617 0.987817 0.000118
vn 0.155617 0.987817 0.000118
vn 0.155617 0.987817 0.000118
vn 0.155617 0.987817 0.000118
vn 0.155564 0.987826 -0.000444
vn 0.155564 0.987826 -0.000444
vn 0.155564 0.987826 -0.000444
vn 0.155564 0.987826 -0.000444
vn 0.190532 0.981635 -0.009461
vn 0.190532 0.981635 -0.009461
vn 0.190532 0.981635 -0.009461
vn 0.190532 0.981635 -0.009461
vn 0.155564 0.987826 -0.000444
vn 0.155564 0.987826 -0.000444
vn 0.155564 0.987826 -0.000444
vn 0.155564 0.987826 -0.000444
vn 1.000000 -0.000087 0.000638
vn 1.000000 -0.000087 0.000638
vn 1.000000 -0.000087 0.000638
vn 1.000000 -0.000087 0.000638
vn 0.999996 0.000000 -0.002856
vn 0.999996 0.000000 -0.002856
vn 0.999996 0.000000 -0.002856
vn 0.999996 0.000000 -0.002856
vn 0.000000 0.000000 1.000000
vn 0.000000 0.000000 1.000000
vn 0.000000 0.000000 1.000000
vn 0.000000 0.000000 1.000000
vn 0.999974 0.007046 -0.001428
vn 0.999974 0.007046 -0.001428
vn 0.999974 0.007046 -0.001428
vn 0.999974 0.007046 -0.001428
vn 0.993005 0.077804 -0.088819
vn 0.993004 0.077804 -0.088819
vn 0.993005 0.077804 -0.088819
vn 0.993004 0.077804 -0.088819
vn 0.981242 -0.192780 0.000844
vn 0.981242 -0.192780 0.000844
vn 0.981242 -0.192780 0.000844
vn 0.981242 -0.192780 0.000844
vn 0.981239 -0.192777 -0.002802
vn 0.981239 -0.192777 -0.002802
vn 0.981239 -0.192777 -0.002802
vn 0.981239 -0.192777 -0.002802
vn 0.981242 -0.192779 0.000000
vn 0.981242 -0.192779 0.000000
vn 0.981242 -0.192779 0.000000
vn 0.981242 -0.192779 0.000000
vn 0.968817 -0.232080 -0.086788
vn 0.968817 -0.232080 -0.086788
vn 0.968817 -0.232080 -0.086788
vn 0.968817 -0.232080 -0.086788
vn 0.623061 -0.782173 0.000240
vn 0.623061 -0.782173 0.000240
vn 0.623061 -0.782173 0.000240
vn 0.623061 -0.782173 0.000240
vn 0.625426 -0.780283 -0.000893
vn 0.625426 -0.780283 -0.000893
vn 0.625426 -0.780283 -0.000893
vn 0.625426 -0.780283 -0.000893
vn 0.628535 -0.777782 0.000000
vn 0.628535 -0.777781 0.000000
vn 0.628535 -0.777781 0.000000
vn 0.628535 -0.777781 0.000000
vn 0.620989 -0.780635 -0.070573
vn 0.620989 -0.780635 -0.070573
vn 0.620989 -0.780636 -0.070573
vn 0.620989 -0.780635 -0.070573
vn 0.998244 0.059243 0.000000
vn 0.998244 0.059243 0.000000
vn 0.998244 0.059243 0.000000
vn 0.998244 0.059243 0.000000
vn 0.998244 0.059243 0.000000
vn 0.998244 0.059243 0.000000
vn 0.998244 0.059243 0.000000
vn 0.998244 0.059243 0.000000
vn 0.998244 0.059243 0.000000
vn 0.998244 0.059243 0.000000
vn 0.998244 0.059243 0.000000
vn 0.991442 0.058839 -0.116533
vn 0.991442 0.058839 -0.116533
vn 0.991442 0.058839 -0.116533
vn 0.991442 0.058839 -0.116533
vn 0.986158 0.159276 -0.046085
vn 0.986158 0.159276 -0.046085
vn 0.986158 0.159276 -0.046085
vn 0.966087 0.258219 0.000000
vn 0.966087 0.258219 0.000000
vn 0.966087 0.258219 0.000000
vn 0.966087 0.258219 0.000000
vn 0.966087 0.258219 0.000000
vn 0.966087 0.258219 0.000000
vn 0.966087 0.258219 0.000000
vn 0.966087 0.258219 0.000000
vn 0.959918 0.256569 -0.112827
vn 0.959918 0.256569 -0.112827
vn 0.959918 0.256569 -0.112827
vn 0.959918 0.256569 -0.112827
vn 0.731610 0.152218 -0.664512
vn 0.731610 0.152218 -0.664512
vn 0.731610 0.152218 -0.664512
vn 0.731610 0.152218 -0.664512
vn 0.619335 -0.295716 -0.727307
vn 0.619335 -0.295716 -0.727307
vn 0.619335 -0.295716 -0.727307
vn 0.619335 -0.295716 -0.727307
vn 0.709033 -0.124070 -0.694175
vn 0.709033 -0.124070 -0.694175
vn 0.709033 -0.124070 -0.694175
vn 0.709033 -0.124070 -0.694175
vn 0.466719 -0.036597 -0.883648
vn 0.466719 -0.036597 -0.883648
vn 0.466719 -0.036597 -0.883648
vn 0.466719 -0.036597 -0.883648
vn 0.498237 -0.182056 -0.847712
vn 0.498237 -0.182056 -0.847712
vn 0.498237 -0.182056 -0.847712
vn 0.498237 -0.182056 -0.847712
vn 0.630723 0.037432 -0.775105
vn 0.630723 0.037432 -0.775105
vn 0.630723 0.037432 -0.775105
vn 0.714443 0.208012 -0.668059
vn 0.714443 0.208012 -0.668059
vn 0.714443 0.208012 -0.668059
vn 0.714443 0.208012 -0.668059
vn 0.498282 0.048285 0.865669
vn 0.498282 0.048285 0.865669
vn 0.498282 0.048285 0.865669
vn 0.498282 0.048285 0.865669
vn 0.741969 -0.424286 -0.519099
vn 0.741969 -0.424286 -0.519099
vn 0.741969 -0.424286 -0.519099
vn 0.741969 -0.424286 -0.519099
vn 0.980735 -0.126714 -0.148667
vn 0.980735 -0.126714 -0.148667
vn 0.980735 -0.126714 -0.148667
vn 0.980735 -0.126714 -0.148667
vn 0.997514 -0.067662 0.019688
vn 0.997514 -0.067662 0.019688
vn 0.997514 -0.067662 0.019688
vn 0.997514 -0.067662 0.019688
vn 0.731370 -0.148486 0.665620
vn 0.731370 -0.148486 0.665620
vn 0.731370 -0.148486 0.665620
vn 0.731370 -0.148486 0.665620
vn 0.508347 -0.039860 0.860229
vn 0.508347 -0.039860 0.860229
vn 0.508347 -0.039860 0.860229
vn 0.508347 -0.039860 0.860229
vn 0.385431 -0.053241 0.921199
vn 0.385431 -0.053241 0.921199
vn 0.385431 -0.053241 0.921199
vn 0.385431 -0.053241 0.921199
vn 0.398125 0.094774 0.912422
vn 0.398125 0.094774 0.912422
vn 0.398125 0.094774 0.912422
vn 0.398125 0.094774 0.912422
vn 0.441170 0.125772 0.888567
vn 0.441170 0.125772 0.888567
vn 0.441170 0.125772 0.888566
vn 0.441170 0.125772 0.888567
vn 0.630500 -0.429082 0.646806
vn 0.630500 -0.429082 0.646806
vn 0.630500 -0.429082 0.646806
vn 0.630500 -0.429082 0.646806
vn 0.695583 -0.101835 0.711191
vn 0.695583 -0.101835 0.711191
vn 0.695583 -0.101835 0.711191
vn 0.695584 -0.101835 0.711191
vn 0.966353 0.170042 0.192997
vn 0.966353 0.170042 0.192997
vn 0.966353 0.170042 0.192997
vn 0.966353 0.170042 0.192997
vn 0.990284 -0.078177 0.115003
vn 0.990284 -0.078177 0.115003
vn 0.990284 -0.078177 0.115003
vn 0.990284 -0.078177 0.115003
vn 0.966087 0.258218 -0.000000
vn 0.966087 0.258218 -0.000000
vn 0.966087 0.258218 -0.000000
vn 0.989537 -0.144206 0.004542
vn 0.989537 -0.144206 0.004542
vn 0.989537 -0.144206 0.004542
vn 0.989537 -0.144206 0.004542
vn 0.991378 -0.130954 0.004545
vn 0.991378 -0.130954 0.004545
vn 0.991378 -0.130954 0.004545
vn 0.991378 -0.130954 0.004545
vn 0.993050 -0.117603 0.004575
vn 0.993050 -0.117603 0.004575
vn 0.993050 -0.117603 0.004575
vn 0.993050 -0.117603 0.004575
vn 0.998264 -0.036505 -0.046229
vn 0.998264 -0.036505 -0.046229
vn 0.998264 -0.036505 -0.046229
vn 0.998264 -0.036505 -0.046229
vn 0.988779 -0.095842 0.114592
vn 0.988779 -0.095842 0.114592
vn 0.988779 -0.095842 0.114592
vn 0.988779 -0.095842 0.114592
vn 0.032450 0.052365 -0.998101
vn 0.032450 0.052365 -0.998101
vn 0.032450 0.052365 -0.998101
vn 0.653781 -0.755174 -0.047777
vn 0.653781 -0.755174 -0.047777
vn 0.653781 -0.755174 -0.047777
vn 0.653781 -0.755174 -0.047777
vn 0.729321 0.223875 -0.646507
vn 0.729321 0.223875 -0.646507
vn 0.729321 0.223875 -0.646507
vn 0.122893 -0.992420 -0.000692
vn 0.122893 -0.992420 -0.000692
vn 0.122893 -0.992420 -0.000692
vn 0.122893 -0.992420 -0.000692
vn 0.127058 -0.991841 0.010384
vn 0.127058 -0.991841 0.010384
vn 0.127058 -0.991841 0.010384
vn 0.127058 -0.991841 0.010384
vn 0.122691 -0.990791 -0.057280
vn 0.122691 -0.990791 -0.057280
vn 0.122691 -0.990791 -0.057280
vn 0.122691 -0.990791 -0.057280
vn 0.708134 -0.706067 -0.003988
vn 0.708134 -0.706067 -0.003988
vn 0.708134 -0.706067 -0.003988
vn 0.708134 -0.706067 -0.003988
vn 0.734472 -0.678074 -0.027688
vn 0.734472 -0.678074 -0.027688
vn 0.734472 -0.678074 -0.027688
vn 0.734472 -0.678074 -0.027688
vn 0.708071 -0.706004 -0.013906
vn 0.708071 -0.706004 -0.013906
vn 0.708071 -0.706004 -0.013906
vn 0.708071 -0.706004 -0.013906
vn 0.701243 -0.651562 -0.289351
vn 0.701243 -0.651562 -0.289351
vn 0.701243 -0.651562 -0.289351
vn 0.701243 -0.651562 -0.289351
vn 0.058248 -0.874261 -0.481949
vn 0.058248 -0.874261 -0.481949
vn 0.058248 -0.874261 -0.481949
vn 0.058248 -0.874261 -0.481949
vn 0.625930 -0.080377 0.775726
vn 0.625930 -0.080377 0.775726
vn 0.625930 -0.080377 0.775726
vn 0.625930 -0.080377 0.775726
vn 0.773606 -0.457184 -0.438767
vn 0.773606 -0.457184 -0.438767
vn 0.773606 -0.457184 -0.438767
vn 0.773606 -0.457184 -0.438767
vn 0.542656 -0.794002 -0.274017
vn 0.542656 -0.794002 -0.274017
vn 0.542656 -0.794002 -0.274017
f 2/1/1 15/2/2 14/3/3 1/4/4
f 5/5/5 16/6/6 15/2/7 2/1/8
f 1/4/9 14/3/10 17/7/11 3/8/12
f 3/8/13 17/7/14 18/9/15 4/10/16
f 6/11/17 19/12/18 16/6/19 5/5/20
f 7/13/21 20/14/22 19/12/23 6/11/24
f 4/10/25 18/9/26 21/15/27 8/16/28
f 8/16/29 21/15/30 22/17/31 9/18/32
f 9/18/33 22/17/34 23/19/35 10/20/36
f 10/20/37 23/19/38 24/21/39 13/22/40
f 11/23/41 25/24/42 26/25/43 12/26/44
f 12/26/45 26/25/46 20/14/47 7/13/48
f 13/22/49 24/21/50 25/24/51 11/23/52
f 47/27/53 50/28/54 49/29/55 46/30/56
f 48/31/57 51/32/58 50/28/59 47/27/60
f 18/9/61 49/29/62 50/28/63 21/15/64
f 21/15/65 50/28/66 51/32/67 22/17/68
f 48/31/69 52/33/70 53/34/71 51/32/72
f 22/17/73 51/32/74 53/34/75 23/19/76
f 23/19/77 54/35/78 55/36/79 24/21/80
f 25/24/81 56/37/82 57/38/83 26/25/84
f 26/25/85 57/38/86 58/39/87 20/14/88
f 24/21/89 55/36/90 56/37/91 25/24/92
f 54/35/93 59/40/94 60/41/95 55/36/96
f 56/37/97 61/42/98 62/121/99 57/38/100
f 57/38/101 62/121/102 63/44/103 58/39/104
f 55/36/105 60/41/106 61/42/107 56/37/108
f 67/110/109 70/46/110 69/47/111 68/120/112
f 61/118/113 64/49/114 65/50/115 62/43/116
f 62/43/117 65/50/118 66/51/119 63/124/120
f 68/120/121 69/47/122 72/52/123 71/53/124
f 59/40/125 67/45/126 68/48/127 60/41/128
f 60/41/129 68/48/130 71/119/131 61/42/132
f 61/118/133 71/53/134 72/52/135 64/49/136
f 64/49/137 72/52/138 73/54/139 65/50/140
f 65/50/141 73/54/142 74/55/143 66/51/144
f 70/46/145 75/56/146 76/57/147 69/47/148
f 69/47/149 76/57/150 77/58/151 72/52/152
f 72/52/153 77/58/154 78/59/155 73/54/156
f 73/54/157 78/59/158 79/60/159 74/55/160
f 75/56/161 80/123/162 81/117/163 76/57/164
f 76/57/165 81/117/166 82/116/167 77/58/168
f 77/58/169 82/116/170 83/115/171 78/59/172
f 78/59/173 83/115/174 84/113/175 79/60/176
f 80/61/177 85/66/178 81/62/179
f 81/62/180 85/66/181 86/67/182 82/63/183
f 82/63/184 86/67/185 87/68/186 83/64/187
f 83/64/188 87/68/189 88/69/190 84/65/191
f 80/61/192 89/70/193 85/66/194
f 85/66/195 90/71/196 91/72/197 86/67/198
f 86/67/199 91/72/200 92/73/201 87/68/202
f 87/68/203 92/73/204 93/74/205 88/69/206
f 74/55/207 94/112/208 63/114/209 66/51/210
f 79/60/211 84/122/212 94/112/213 74/55/214
f 63/44/215 38/76/216 37/77/217 58/39/218
f 94/75/219 39/78/220 38/76/221 63/44/222
f 84/65/223 40/79/224 39/78/225 94/75/226
f 88/69/227 40/79/228 84/65/229
f 93/74/230 95/80/231 40/79/232 88/69/233
f 20/14/234 58/39/235 97/81/236 19/12/237
f 58/39/238 37/77/239 36/82/240 97/81/241
f 54/35/242 98/83/243 99/84/244 59/40/245
f 59/40/246 99/84/247 100/85/248 67/45/249
f 42/86/250 99/84/251 98/83/252 41/87/253
f 43/88/254 100/85/255 99/84/256 42/86/257
f 44/89/258 101/90/259 100/85/260 43/88/261
f 96/91/262 102/92/263 101/90/264 44/89/265
f 45/93/266 30/94/267 102/92/268 96/91/269
f 28/95/270 41/87/271 98/83/272 52/33/273
f 67/125/274 80/111/275 75/56/276 70/46/277
f 102/92/278 89/70/279 80/61/280 101/90/281
f 67/45/282 100/85/283 101/90/284 80/61/285
f 89/70/286 90/71/287 85/66/288
f 89/70/289 29/96/290 31/97/291 90/71/292
f 90/71/293 31/97/294 32/98/295 91/72/296
f 91/72/297 32/98/298 33/99/299 92/73/300
f 92/73/301 33/99/302 34/100/303 93/74/304
f 102/92/305 30/94/306 29/96/307 89/70/308
f 53/34/309 54/35/310 23/19/311
f 53/34/312 52/33/313 98/83/314 54/35/315
f 95/80/316 93/74/317 34/100/318
f 15/2/319 104/101/320 103/102/321 14/3/322
f 16/6/323 105/103/324 104/101/325 15/2/326
f 14/3/327 103/102/328 106/104/329 17/7/330
f 104/101/331 108/105/332 107/106/333 103/102/334
f 105/103/335 27/107/336 108/105/337 104/101/338
f 103/102/339 107/106/340 109/108/341 106/104/342
f 49/29/343 106/104/344 109/108/345 46/30/346
f 17/7/347 106/104/348 49/29/349 18/9/350
f 19/12/351 97/81/352 105/103/353 16/6/354
f 35/109/355 105/103/356 97/81/357 36/82/358
f 27/107/359 105/103/360 35/109/361
