# This file uses meters as units for non-parametric coordinates.

v 0.396416 5.999271 13.685192
v -0.170761 5.981351 2.283398
v 3.381569 -5.265888 13.707027
v 2.818268 -5.297745 2.308834
v -0.528870 8.407684 7.957363
v 1.969528 0.503160 16.022442
v 3.743408 -7.705696 8.036297
v 1.211090 0.320809 -0.060764
v 1.606819 0.352639 7.996502
v -0.814674 5.678461 13.745953
v -1.739960 8.086874 8.018124
v -1.381851 5.660542 2.344158
v 0.758438 0.182350 16.083202
v 2.170479 -5.586700 13.767788
v 1.607178 -5.618555 2.369595
v 2.532318 -8.026506 8.097057
v 0.000000 -0.000001 -0.000004
v 0.391487 0.047058 8.053234
v -0.140511 1.731103 6.340511
v 0.308418 0.037072 6.344341
v 0.756195 -1.652626 6.348141
v -0.339470 1.694630 2.604763
v 0.098610 0.044952 2.626431
v 0.558929 -1.688502 2.649212
v -0.292313 1.709431 3.623135
v 0.147949 0.050883 3.641338
v 0.605751 -1.673820 3.660229
v -1.467133 1.398216 3.682064
v -1.026871 -0.260319 3.700268
v -1.514290 1.383415 2.663692
v -1.076210 -0.266251 2.685360
v -0.615891 -1.999693 2.708141
v -0.569069 -1.985012 3.719158
v -3.103256 0.958297 3.223965
v -2.662117 -0.700004 3.242367
v -2.652237 1.077107 2.317318
v -2.215027 -0.572791 2.338802
v -1.755623 -2.306479 2.361370
v -2.203384 -2.424446 3.261456
v -4.359612 0.610301 2.027782
v -3.917816 -1.047809 2.046825
v -3.531929 0.833391 1.475780
v -3.095383 -0.816683 1.496639
v -2.636673 -2.550554 1.518566
v -3.458374 -2.772046 2.066570
v -5.062492 0.400927 0.141811
v -4.620438 -1.257095 0.161770
v -4.080589 0.671025 0.092327
v -3.644325 -0.979123 0.112331
v -3.185905 -2.713075 0.133358
v -4.160706 -2.981235 0.182476
vt 0.187950 0.026972
vt 0.183244 0.022036
vt 0.191339 0.018583
vt 0.194660 0.026860
vt 0.183244 0.015331
vt 0.188016 0.010318
vt 0.194728 0.010191
vt 0.199434 0.015126
vt 0.199414 0.021972
vt 0.225875 0.025341
vt 0.232695 0.025318
vt 0.221309 0.020424
vt 0.237532 0.020675
vt 0.237844 0.013761
vt 0.233287 0.008831
vt 0.226468 0.008854
vt 0.200776 0.021976
vt 0.229569 0.017102
vt 0.227091 0.018098
vt 0.228639 0.014627
vt 0.227866 0.016361
vt 0.253519 0.008831
vt 0.241023 0.014761
vt 0.241023 0.016699
vt 0.253558 0.019599
vt 0.255101 0.012909
vt 0.255098 0.014762
vt 0.248364 0.014765
vt 0.248367 0.012902
vt 0.249474 0.012894
vt 0.249467 0.014748
vt 0.249460 0.016695
vt 0.248361 0.016702
vt 0.252198 0.008840
vt 0.242344 0.014761
vt 0.253780 0.012906
vt 0.253777 0.014760
vt 0.252237 0.019608
vt 0.242344 0.016699
vt 0.250389 0.009438
vt 0.244248 0.014761
vt 0.252447 0.012903
vt 0.252442 0.014756
vt 0.250972 0.019179
vt 0.244248 0.016699
vt 0.249048 0.010814
vt 0.246168 0.014763
vt 0.251099 0.012900
vt 0.251093 0.014753
vt 0.250019 0.018223
vt 0.246166 0.016700
vt 0.225155 0.015224
vt 0.225959 0.013461
vt 0.224382 0.016919
vt 0.224955 0.013013
vt 0.223371 0.016468
vt 0.224143 0.014784
vt 0.200420 0.014187
vt 0.200796 0.015130
vt 0.200390 0.022922
vt 0.221543 0.013609
vt 0.195636 0.027810
vt 0.194682 0.028221
vt 0.194702 0.008829
vt 0.195714 0.009251
vt 0.187030 0.009379
vt 0.187990 0.008957
vt 0.181882 0.015330
vt 0.182258 0.014392
vt 0.182258 0.022975
vt 0.181882 0.022036
vt 0.187973 0.028333
vt 0.186964 0.027911
vt 0.249071 0.018779
vt 0.251087 0.016700
vt 0.250010 0.011360
vt 0.246170 0.012900
vt 0.250430 0.020134
vt 0.252437 0.016704
vt 0.250949 0.010393
vt 0.244249 0.012898
vt 0.252245 0.020707
vt 0.253773 0.016707
vt 0.252206 0.009947
vt 0.242344 0.012898
vt 0.253566 0.020698
vt 0.255094 0.016709
vt 0.253527 0.009937
vt 0.241023 0.012898
vn 0.965526 0.255762 -0.048432
vn 0.965526 0.255762 -0.048432
vn 0.965526 0.255762 -0.048432
vn 0.965527 0.255759 -0.048431
vn 0.965527 0.255759 -0.048431
vn 0.965527 0.255759 -0.048431
vn 0.965527 0.255759 -0.048431
vn 0.965527 0.255759 -0.048431
vn 0.965527 0.255759 -0.048431
vn 0.965526 0.255760 -0.048431
vn 0.965526 0.255760 -0.048431
vn 0.965526 0.255760 -0.048431
vn 0.965527 0.255759 -0.048431
vn 0.965527 0.255759 -0.048431
vn 0.965527 0.255759 -0.048431
vn 0.965526 0.255761 -0.048431
vn 0.965526 0.255761 -0.048431
vn 0.965526 0.255761 -0.048431
vn 0.965526 0.255763 -0.048432
vn 0.965526 0.255763 -0.048432
vn 0.965526 0.255763 -0.048432
vn 0.965526 0.255762 -0.048432
vn 0.965526 0.255762 -0.048432
vn 0.965526 0.255762 -0.048432
vn -0.214628 0.887473 0.407831
vn -0.214628 0.887473 0.407831
vn -0.214628 0.887473 0.407831
vn -0.214628 0.887473 0.407831
vn -0.253781 0.883465 -0.393808
vn -0.253781 0.883465 -0.393808
vn -0.253781 0.883465 -0.393808
vn -0.253781 0.883465 -0.393808
vn -0.053682 0.377725 0.924361
vn -0.053682 0.377725 0.924361
vn -0.053682 0.377725 0.924361
vn -0.053682 0.377725 0.924361
vn 0.136741 -0.339968 0.930443
vn 0.136741 -0.339968 0.930443
vn 0.136741 -0.339968 0.930443
vn 0.136741 -0.339968 0.930443
vn 0.214632 -0.887491 -0.407791
vn 0.214632 -0.887491 -0.407791
vn 0.214632 -0.887491 -0.407791
vn 0.214632 -0.887491 -0.407791
vn 0.253647 -0.882566 0.395905
vn 0.253647 -0.882566 0.395905
vn 0.253647 -0.882566 0.395905
vn 0.253647 -0.882566 0.395905
vn 0.052951 -0.375158 -0.925447
vn 0.052951 -0.375158 -0.925447
vn 0.052951 -0.375158 -0.925447
vn 0.052951 -0.375158 -0.925447
vn -0.139104 0.349712 -0.926473
vn -0.139104 0.349712 -0.926473
vn -0.139104 0.349712 -0.926473
vn -0.139104 0.349712 -0.926473
vn -0.965526 -0.255763 0.048432
vn -0.965526 -0.255763 0.048432
vn -0.965526 -0.255763 0.048432
vn -0.965527 -0.255760 0.048430
vn -0.965527 -0.255760 0.048430
vn -0.965527 -0.255760 0.048430
vn -0.965527 -0.255760 0.048430
vn -0.965527 -0.255758 0.048431
vn -0.965527 -0.255758 0.048431
vn -0.965527 -0.255758 0.048431
vn -0.965526 -0.255762 0.048432
vn -0.965526 -0.255762 0.048432
vn -0.965526 -0.255762 0.048432
vn -0.965526 -0.255761 0.048431
vn -0.965526 -0.255761 0.048431
vn -0.965526 -0.255761 0.048431
vn -0.965526 -0.255761 0.048431
vn -0.965526 -0.255762 0.048432
vn -0.965526 -0.255762 0.048432
vn -0.965526 -0.255762 0.048432
vn -0.965527 -0.255758 0.048428
vn -0.965527 -0.255758 0.048428
vn -0.965527 -0.255758 0.048428
vn -0.965527 -0.255758 0.048426
vn -0.965527 -0.255758 0.048426
vn -0.965527 -0.255758 0.048426
vn -0.965156 -0.255620 0.055974
vn -0.965156 -0.255620 0.055974
vn -0.965156 -0.255620 0.055974
vn -0.965156 -0.255620 0.055974
vn -0.963494 -0.262242 0.053927
vn -0.963494 -0.262242 0.053927
vn -0.963494 -0.262242 0.053927
vn -0.963494 -0.262242 0.053927
vn -0.966952 -0.249190 0.053932
vn -0.966952 -0.249190 0.053932
vn -0.966952 -0.249190 0.053932
vn -0.966952 -0.249190 0.053932
vn -0.965156 -0.255609 0.056014
vn -0.965156 -0.255609 0.056014
vn -0.965156 -0.255609 0.056014
vn -0.965156 -0.255609 0.056014
vn -0.966719 -0.252918 0.038558
vn -0.966719 -0.252918 0.038558
vn -0.966719 -0.252918 0.038558
vn -0.966719 -0.252918 0.038558
vn -0.965149 -0.258831 0.038655
vn -0.965149 -0.258831 0.038654
vn -0.965149 -0.258831 0.038655
vn -0.965149 -0.258831 0.038655
vn -0.043815 -0.023701 -0.998758
vn -0.043815 -0.023701 -0.998759
vn -0.043815 -0.023701 -0.998758
vn -0.043815 -0.023701 -0.998759
vn -0.043822 -0.023689 -0.998758
vn -0.043822 -0.023689 -0.998758
vn -0.043822 -0.023689 -0.998758
vn -0.043822 -0.023689 -0.998758
vn 0.044090 0.022667 0.998770
vn 0.044090 0.022667 0.998770
vn 0.044090 0.022667 0.998770
vn 0.044090 0.022667 0.998770
vn -0.256173 0.966629 -0.002186
vn -0.256173 0.966629 -0.002186
vn -0.256173 0.966629 -0.002186
vn -0.256173 0.966629 -0.002186
vn -0.043561 -0.024685 -0.998746
vn -0.043561 -0.024685 -0.998746
vn -0.043561 -0.024685 -0.998746
vn -0.043561 -0.024685 -0.998746
vn -0.043555 -0.024692 -0.998746
vn -0.043555 -0.024692 -0.998746
vn -0.043555 -0.024692 -0.998746
vn -0.043555 -0.024692 -0.998746
vn 0.256155 -0.966633 0.002174
vn 0.256155 -0.966633 0.002174
vn 0.256155 -0.966633 0.002174
vn 0.256155 -0.966633 0.002174
vn 0.044105 0.022645 0.998770
vn 0.044105 0.022645 0.998770
vn 0.044105 0.022645 0.998770
vn 0.044105 0.022645 0.998770
vn -0.254936 -0.057092 0.965271
vn -0.254936 -0.057092 0.965271
vn -0.254936 -0.057092 0.965271
vn -0.254936 -0.057092 0.965271
vn -0.259174 0.965828 -0.002190
vn -0.259174 0.965828 -0.002190
vn -0.259174 0.965828 -0.002190
vn -0.259174 0.965828 -0.002190
vn 0.275657 0.060580 -0.959345
vn 0.275657 0.060580 -0.959345
vn 0.275657 0.060580 -0.959345
vn 0.275657 0.060580 -0.959345
vn 0.275632 0.060566 -0.959354
vn 0.275632 0.060566 -0.959353
vn 0.275632 0.060566 -0.959353
vn 0.275632 0.060566 -0.959353
vn 0.259176 -0.965828 0.002176
vn 0.259176 -0.965828 0.002176
vn 0.259176 -0.965828 0.002176
vn 0.259176 -0.965828 0.002176
vn -0.254963 -0.057120 0.965262
vn -0.254963 -0.057120 0.965262
vn -0.254963 -0.057120 0.965262
vn -0.254963 -0.057120 0.965262
vn -0.655429 -0.166180 0.736747
vn -0.655429 -0.166180 0.736747
vn -0.655429 -0.166180 0.736748
vn -0.655429 -0.166180 0.736748
vn -0.263015 0.964782 -0.004437
vn -0.263015 0.964782 -0.004437
vn -0.263015 0.964782 -0.004437
vn -0.263015 0.964782 -0.004437
vn 0.657609 0.164689 -0.735138
vn 0.657609 0.164689 -0.735138
vn 0.657609 0.164689 -0.735138
vn 0.657609 0.164689 -0.735138
vn 0.657605 0.164687 -0.735142
vn 0.657605 0.164687 -0.735142
vn 0.657605 0.164687 -0.735142
vn 0.657605 0.164687 -0.735142
vn 0.263027 -0.964779 0.004418
vn 0.263027 -0.964779 0.004418
vn 0.263027 -0.964778 0.004418
vn 0.263027 -0.964779 0.004418
vn -0.655421 -0.166205 0.736749
vn -0.655421 -0.166205 0.736749
vn -0.655421 -0.166205 0.736749
vn -0.655421 -0.166205 0.736749
vn -0.901679 -0.236071 0.362278
vn -0.901679 -0.236071 0.362278
vn -0.901679 -0.236071 0.362278
vn -0.901679 -0.236071 0.362278
vn -0.265419 0.964100 -0.008015
vn -0.265419 0.964100 -0.008015
vn -0.265419 0.964100 -0.008015
vn -0.265419 0.964100 -0.008015
vn 0.894609 0.231868 -0.381984
vn 0.894609 0.231868 -0.381984
vn 0.894609 0.231868 -0.381984
vn 0.894609 0.231868 -0.381984
vn 0.894626 0.231866 -0.381945
vn 0.894626 0.231866 -0.381945
vn 0.894626 0.231866 -0.381945
vn 0.894626 0.231866 -0.381945
vn 0.265437 -0.964095 0.008000
vn 0.265437 -0.964095 0.008000
vn 0.265437 -0.964095 0.008000
vn 0.265437 -0.964095 0.008000
vn -0.901661 -0.236091 0.362310
vn -0.901661 -0.236091 0.362310
vn -0.901661 -0.236091 0.362310
vn -0.901661 -0.236091 0.362310
f 5/1/1 1/2/2 9/3/3
f 2/4/4 5/1/5 9/3/6
f 1/2/7 6/5/8 9/3/9
f 6/5/10 3/6/11 9/3/12
f 7/7/13 4/8/14 9/3/15
f 3/6/16 7/7/17 9/3/18
f 4/8/19 8/9/20 9/3/21
f 8/9/22 2/4/23 9/3/24
f 1/2/25 5/1/26 11/73/27 10/70/28
f 5/1/29 2/4/30 12/63/31 11/72/32
f 6/5/33 1/2/34 10/71/35 13/68/36
f 3/6/37 6/5/38 13/69/39 14/66/40
f 4/8/41 7/7/42 16/65/43 15/58/44
f 7/7/45 3/6/46 14/67/47 16/64/48
f 8/9/49 4/8/50 15/59/51 17/17/52
f 2/4/53 8/9/54 17/60/55 12/62/56
f 10/11/57 11/10/58 18/18/59
f 11/10/60 12/12/61 19/19/62 18/18/63
f 13/13/64 10/11/65 18/18/66
f 14/14/67 13/13/68 18/18/69
f 15/16/70 16/15/71 18/18/72 21/20/73
f 16/15/74 14/14/75 18/18/76
f 20/21/77 21/20/78 18/18/79
f 19/19/80 20/21/81 18/18/82
f 19/19/83 25/54/84 26/52/85 20/21/86
f 21/20/87 27/53/88 24/55/89 15/16/90
f 12/12/91 22/56/92 25/54/93 19/19/94
f 26/52/95 27/53/96 21/20/97 20/21/98
f 23/57/99 22/56/100 12/12/101 17/61/102
f 17/61/103 15/16/104 24/55/105 23/57/106
f 47/28/107 46/29/108 48/30/109 49/31/110
f 49/31/111 50/32/112 51/33/113 47/28/114
f 26/23/115 25/89/116 28/85/117 29/35/118
f 25/22/119 22/88/120 30/84/121 28/34/122
f 22/26/123 23/27/124 31/37/125 30/36/126
f 23/27/127 24/87/128 32/83/129 31/37/130
f 24/25/131 27/86/132 33/82/133 32/38/134
f 27/24/135 26/23/136 29/35/137 33/39/138
f 29/35/139 28/85/140 34/81/141 35/41/142
f 28/34/143 30/84/144 36/80/145 34/40/146
f 30/36/147 31/37/148 37/43/149 36/42/150
f 31/37/151 32/83/152 38/79/153 37/43/154
f 32/38/155 33/82/156 39/78/157 38/44/158
f 33/39/159 29/35/160 35/41/161 39/45/162
f 35/41/163 34/81/164 40/77/165 41/47/166
f 34/40/167 36/80/168 42/76/169 40/46/170
f 36/42/171 37/43/172 43/49/173 42/48/174
f 37/43/175 38/79/176 44/75/177 43/49/178
f 38/44/179 39/78/180 45/74/181 44/50/182
f 39/45/183 35/41/184 41/47/185 45/51/186
f 41/47/187 40/77/188 46/29/189 47/28/190
f 40/46/191 42/76/192 48/30/193 46/29/194
f 42/48/195 43/49/196 49/31/197 48/30/198
f 43/49/199 44/75/200 50/32/201 49/31/202
f 44/50/203 45/74/204 51/33/205 50/32/206
f 45/51/207 41/47/208 47/28/209 51/33/210
