# This file uses meters as units for non-parametric coordinates.

v -20.000000 -0.000000 -16.500000
v -20.000000 27.262498 -16.500000
v -18.953383 27.262498 -15.453382
v -18.953383 1.300306 -15.453382
v -20.000000 22.422989 -5.785751
v -20.000000 18.323806 -5.215363
v -18.953383 22.422989 -5.785751
v -18.953383 18.323806 -5.215363
v 20.000000 -0.000000 -16.500000
v 20.000000 27.262498 -16.500000
v 18.953383 27.262498 -15.453382
v 18.953383 1.300306 -15.453382
v 20.000000 22.422989 -5.785751
v 20.000000 18.323806 -5.215363
v 18.953383 22.422989 -5.785751
v 18.953383 18.323806 -5.215363
v -20.000000 -0.000000 16.500000
v -20.000000 27.262498 16.500000
v -18.953383 27.262498 15.453382
v -18.953383 1.300306 15.453382
v -20.000000 22.422989 5.785751
v -20.000000 18.323806 5.215363
v -18.953383 22.422989 5.785751
v -18.953383 18.323806 5.215363
v 20.000000 -0.000000 16.500000
v 20.000000 27.262498 16.500000
v 18.953383 27.262498 15.453382
v 18.953383 1.300306 15.453382
v 20.000000 22.422989 5.785751
v 20.000000 18.323806 5.215363
v 18.953383 22.422989 5.785751
v 18.953383 18.323806 5.215363
vt 0.071979 0.574417
vt 0.417813 0.720778
vt 0.195441 0.720758
vt 0.586610 0.625024
vt 0.004698 0.505422
vt 0.011752 0.498370
vt 0.011732 0.720741
vt 0.004678 0.727793
vt 0.645334 0.231289
vt 0.011776 0.228828
vt 0.468869 0.488407
vt 0.581677 0.556854
vt 0.581673 0.627879
vt 0.468858 0.697532
vt 0.211495 0.488393
vt 0.608372 0.555393
vt 0.608368 0.629130
vt 0.195485 0.228845
vt 0.612966 0.552736
vt 0.612962 0.631796
vt 0.044394 0.156633
vt 0.586458 0.159024
vt 0.581493 0.161819
vt 0.612990 0.166000
vt 0.608364 0.089577
vt 0.612994 0.086962
vt 0.195505 0.006473
vt 0.586461 0.093609
vt 0.645345 0.021348
vt 0.011707 0.990283
vt 0.468844 0.953613
vt 0.581497 0.090742
vt 0.044401 0.078658
vt 0.072023 0.082504
vt 0.011796 0.006457
vt 0.195416 0.990299
vt 0.608360 0.163329
vt 0.004743 0.013509
vt 0.004655 0.983229
vt 0.645294 0.953623
vt 0.004679 0.713688
vt 0.645308 0.697542
vt 0.004723 0.235880
vt 0.004724 0.221775
vt 0.072017 0.152792
vt 0.417788 0.990319
vt 0.044349 0.648546
vt 0.071972 0.644705
vt 0.044356 0.570571
vt 0.004700 0.491316
vt 0.645320 0.488417
vt 0.586613 0.559629
vt 0.195461 0.498386
vt 0.211483 0.697518
vt 0.468895 0.021338
vt 0.468883 0.231279
vn -1.000000 -0.000000 0.000000
vn -1.000000 -0.000000 0.000000
vn -1.000000 -0.000000 0.000000
vn -1.000000 -0.000000 0.000000
vn 0.000000 1.000000 0.000000
vn 0.000000 1.000000 0.000000
vn 0.000000 1.000000 0.000000
vn 0.000000 1.000000 0.000000
vn 0.000000 1.000000 0.000000
vn 0.000000 1.000000 0.000000
vn 1.000000 0.000000 0.000000
vn 1.000000 0.000000 0.000000
vn 1.000000 0.000000 0.000000
vn 1.000000 0.000000 0.000000
vn 0.000000 0.000000 1.000000
vn 0.000000 0.000000 1.000000
vn 0.000000 0.000000 1.000000
vn 0.000000 0.000000 1.000000
vn -1.000000 0.000000 0.000000
vn -1.000000 0.000000 0.000000
vn -1.000000 0.000000 0.000000
vn -1.000000 0.000000 0.000000
vn 0.000000 0.000000 -1.000000
vn 0.000000 0.000000 -1.000000
vn 0.000000 0.000000 -1.000000
vn 0.000000 0.000000 -1.000000
vn 1.000000 -0.000000 0.000000
vn 1.000000 -0.000000 0.000000
vn 1.000000 -0.000000 0.000000
vn 1.000000 -0.000000 0.000000
vn 0.000000 1.000000 0.000000
vn 0.000000 1.000000 0.000000
vn 0.000000 1.000000 0.000000
vn 0.000000 1.000000 0.000000
vn 0.000000 0.137819 0.990457
vn 0.000000 0.137819 0.990457
vn 0.000000 0.137819 0.990457
vn 0.000000 0.137819 0.990457
vn 1.000000 0.000000 0.000000
vn 1.000000 0.000000 0.000000
vn 1.000000 0.000000 0.000000
vn 1.000000 0.000000 0.000000
vn -1.000000 0.000000 0.000000
vn -1.000000 0.000000 0.000000
vn -1.000000 0.000000 0.000000
vn -1.000000 0.000000 0.000000
vn 0.000000 -1.000000 0.000000
vn 0.000000 -1.000000 0.000000
vn 0.000000 -1.000000 0.000000
vn 0.000000 -1.000000 0.000000
vn 0.000000 0.137819 0.990457
vn 0.000000 0.137819 0.990457
vn 0.000000 0.137819 0.990457
vn 0.000000 0.137819 0.990457
vn 0.000000 -1.000000 0.000000
vn 0.000000 -1.000000 0.000000
vn 0.000000 -1.000000 0.000000
vn 0.000000 -1.000000 0.000000
vn 0.000000 0.137819 -0.990457
vn 0.000000 0.137819 -0.990457
vn 0.000000 0.137819 -0.990457
vn 0.000000 0.137819 -0.990457
vn 0.000000 -1.000000 0.000000
vn 0.000000 -1.000000 0.000000
vn 0.000000 -1.000000 0.000000
vn 0.000000 -1.000000 0.000000
vn 1.000000 0.000000 0.000000
vn 1.000000 0.000000 0.000000
vn 0.000000 1.000000 0.000000
vn 0.000000 1.000000 0.000000
vn -1.000000 0.000000 0.000000
vn -1.000000 0.000000 0.000000
vn 0.000000 0.000000 -1.000000
vn 0.000000 0.000000 -1.000000
vn 0.000000 0.000000 -1.000000
vn 0.000000 0.000000 -1.000000
vn 0.000000 1.000000 0.000000
vn 0.000000 1.000000 0.000000
vn 0.000000 1.000000 0.000000
vn 0.000000 1.000000 0.000000
vn 1.000000 0.000000 0.000000
vn 1.000000 0.000000 0.000000
vn 0.000000 0.000000 1.000000
vn 0.000000 0.000000 1.000000
vn 0.000000 0.000000 1.000000
vn 0.000000 0.000000 1.000000
vn -1.000000 0.000000 0.000000
vn -1.000000 0.000000 0.000000
vn 0.000000 1.000000 0.000000
vn 0.000000 1.000000 0.000000
vn 0.000000 1.000000 0.000000
vn 0.000000 1.000000 0.000000
vn 0.000000 0.137819 -0.990457
vn 0.000000 0.137819 -0.990457
vn 0.000000 0.137819 -0.990457
vn 0.000000 0.137819 -0.990457
g BoxBody Box
f 6/1/1 1/53/2 17/3/3 22/48/4
f 3/5/5 2/6/6 18/7/7 19/41/8
f 2/6/6 3/50/5 11/43/9 10/10/10
f 4/11/11 8/12/12 24/13/13 20/14/14
f 3/51/15 4/11/16 12/56/17 11/9/18
f 2/6/19 5/49/20 21/47/21 18/7/22
f 1/53/23 2/6/24 10/10/25 9/18/26
f 2/6/19 1/53/2 6/1/1 5/49/20
f 3/51/27 7/19/28 8/12/12 4/11/11
f 7/19/28 3/51/27 19/42/29 23/20/30
f 8/12/31 6/52/32 22/4/33 24/13/34
f 6/52/35 8/12/36 7/19/37 5/16/38
f 10/10/39 13/21/40 14/45/41 9/18/42
f 11/9/43 12/56/44 16/23/45 15/24/46
f 15/24/47 13/37/48 29/25/49 31/26/50
f 14/22/51 13/37/52 15/24/53 16/23/54
f 18/7/22 21/47/21 22/48/4 17/3/3
f 19/42/29 20/14/14 24/13/13 23/20/30
f 7/19/55 23/20/56 21/17/57 5/16/58
f 22/4/59 21/17/60 23/20/61 24/13/62
f 9/46/63 25/36/64 17/3/65 1/2/66
f 14/45/41 30/34/67 25/27/68 9/18/42
f 11/44/9 27/38/69 26/35/70 10/10/10
f 18/7/7 26/30/70 27/39/69 19/8/8
f 12/56/44 28/55/71 32/32/72 16/23/45
f 19/42/73 27/40/74 28/31/75 20/14/76
f 20/14/77 28/54/78 12/15/79 4/11/80
f 10/10/39 26/35/81 29/33/82 13/21/40
f 17/3/83 25/36/84 26/30/85 18/7/86
f 26/35/81 25/27/68 30/34/67 29/33/82
f 27/29/87 31/26/88 32/32/72 28/55/71
f 15/24/46 31/26/88 27/29/87 11/9/43
f 16/23/89 32/32/90 30/28/91 14/22/92
f 30/28/93 32/32/94 31/26/95 29/25/96
v -20.335191 23.199999 16.776533
v -20.335191 23.199999 -16.776533
v 20.335191 23.199999 -16.776533
v 20.335191 23.199999 16.776533
v -21.068861 29.188482 17.575073
v 21.068861 29.188482 17.575073
v 21.068861 29.188482 -17.575073
v -21.068861 29.188482 -17.575073
v -21.068861 23.199999 17.575073
v -21.068861 23.199999 -17.575073
v 21.068861 23.199999 -17.575073
v 21.068861 23.199999 17.575073
v -20.335191 28.149094 16.776533
v -20.335191 28.149094 -16.776533
v 20.335191 28.149094 -16.776533
v 20.335191 28.149094 16.776533
vt 0.713753 0.335705
vt 0.713747 0.051758
vt 0.950608 0.051754
vt 0.950613 0.335701
vt 0.990967 0.335700
vt 0.673399 0.335706
vt 0.950607 0.011400
vt 0.673393 0.051759
vt 0.694154 0.694295
vt 0.953606 0.727614
vt 0.727468 0.386882
vt 0.986920 0.420202
vt 0.727504 0.694291
vt 0.953602 0.694265
vt 0.727472 0.420232
vt 0.953571 0.420206
vt 0.668013 0.056703
vt 0.719127 0.006461
vt 0.953567 0.386856
vt 0.945226 0.006457
vt 0.996342 0.056697
vt 0.694123 0.420236
vt 0.996348 0.330756
vt 0.945233 0.380998
vt 0.727508 0.727641
vt 0.719134 0.381002
vt 0.668018 0.330762
vt 0.986952 0.694261
vt 0.713746 0.011405
vt 0.990961 0.051753
vt 0.950614 0.376054
vt 0.713753 0.376059
vn 0.000000 1.000000 0.000000
vn 0.000000 1.000000 0.000000
vn 0.000000 1.000000 0.000000
vn 0.000000 1.000000 0.000000
vn -1.000000 0.000000 0.000000
vn -1.000000 0.000000 0.000000
vn -1.000000 0.000000 0.000000
vn -1.000000 0.000000 0.000000
vn 0.000000 0.000000 -1.000000
vn 0.000000 0.000000 -1.000000
vn 0.000000 0.000000 -1.000000
vn 0.000000 0.000000 -1.000000
vn 1.000000 0.000000 0.000000
vn 1.000000 0.000000 0.000000
vn 1.000000 0.000000 0.000000
vn 1.000000 0.000000 0.000000
vn 0.000000 0.000000 1.000000
vn 0.000000 0.000000 1.000000
vn 0.000000 0.000000 1.000000
vn 0.000000 0.000000 1.000000
vn 0.000000 -1.000000 0.000000
vn 0.000000 -1.000000 0.000000
vn 0.000000 -1.000000 0.000000
vn 0.000000 -1.000000 0.000000
vn 0.000000 -1.000000 -0.000001
vn 0.000000 -1.000000 -0.000001
vn 0.000000 -1.000000 -0.000001
vn 0.000000 -1.000000 -0.000001
vn 0.000000 -1.000000 0.000000
vn 0.000000 -1.000000 0.000000
vn 0.000000 -1.000000 0.000000
vn 0.000000 -1.000000 0.000000
vn 0.000000 -1.000000 0.000001
vn 0.000000 -1.000000 0.000001
vn 0.000000 -1.000000 0.000001
vn 0.000000 -1.000000 0.000001
vn 1.000000 0.000000 0.000000
vn 1.000000 0.000000 0.000000
vn 1.000000 0.000000 0.000000
vn 1.000000 0.000000 0.000000
vn 0.000000 0.000000 1.000000
vn 0.000000 0.000000 1.000000
vn 0.000000 0.000000 1.000000
vn 0.000000 0.000000 1.000000
vn -1.000000 0.000000 0.000000
vn -1.000000 0.000000 0.000000
vn -1.000000 0.000000 0.000000
vn -1.000000 0.000000 0.000000
vn 0.000000 0.000000 -1.000000
vn 0.000000 0.000000 -1.000000
vn 0.000000 0.000000 -1.000000
vn 0.000000 0.000000 -1.000000
vn 0.000000 -1.000000 0.000000
vn 0.000000 -1.000000 0.000000
vn 0.000000 -1.000000 0.000000
vn 0.000000 -1.000000 0.000000
g Box BoxLid
f 37/57/97 38/58/98 39/59/99 40/60/100
f 42/87/101 41/88/102 37/57/103 40/60/104
f 40/60/105 39/59/106 43/86/107 42/61/108
f 44/85/109 43/63/110 39/59/111 38/58/112
f 41/62/113 44/64/114 38/58/115 37/57/116
f 34/80/117 33/82/118 41/88/119 42/87/120
f 35/77/121 34/79/122 42/61/123 43/86/124
f 36/74/125 35/76/126 43/63/127 44/85/128
f 33/83/129 36/73/130 44/64/131 41/62/132
f 33/66/133 34/81/134 46/69/135 45/70/136
f 34/65/137 35/78/138 47/71/139 46/69/140
f 35/67/141 36/75/142 48/72/143 47/71/144
f 36/68/145 33/84/146 45/70/147 48/72/148
f 46/69/149 47/71/150 48/72/151 45/70/152
