# This file uses meters as units for non-parametric coordinates.

v 14.471166 90.705720 7.845898
v 13.964951 90.705720 7.845898
v 13.711844 90.705720 8.284292
v 13.964951 90.705720 8.722687
v 14.471165 90.705720 8.722687
v 14.724273 90.705720 8.284292
v 14.471166 101.515629 7.845898
v 13.964951 101.515629 7.845898
v 13.711844 101.515629 8.284292
v 13.964951 101.515629 8.722687
v 14.471165 101.515629 8.722687
v 14.724273 101.515629 8.284292
v 14.218058 90.705720 8.284292
v 14.218058 101.515629 8.284292
vt 0.170691 0.464039
vt 0.166969 0.464039
vt 0.165107 0.467263
vt 0.166969 0.470487
vt 0.170691 0.470487
vt 0.172552 0.467263
vt 0.164359 0.372050
vt 0.168081 0.372050
vt 0.171804 0.372050
vt 0.175526 0.372050
vt 0.179249 0.372051
vt 0.182971 0.372051
vt 0.186694 0.372051
vt 0.164355 0.451540
vt 0.168077 0.451540
vt 0.171800 0.451541
vt 0.175522 0.451541
vt 0.179245 0.451541
vt 0.182967 0.451541
vt 0.186689 0.451541
vt 0.185152 0.464040
vt 0.181429 0.464040
vt 0.179568 0.467263
vt 0.181429 0.470487
vt 0.185152 0.470487
vt 0.187013 0.467263
vt 0.168830 0.467263
vt 0.183290 0.467263
vn 0.000000 0.000000 -1.000000
vn 0.000000 0.000000 -1.000000
vn 0.000000 0.000000 -1.000000
vn 0.000000 0.000000 -1.000000
vn -0.866025 0.000000 -0.500000
vn -0.866025 0.000000 -0.500000
vn -0.866025 0.000000 -0.500000
vn -0.866025 0.000000 -0.500000
vn -0.866025 0.000000 0.500000
vn -0.866025 0.000000 0.500000
vn -0.866025 0.000000 0.500000
vn -0.866025 0.000000 0.500000
vn -0.000000 0.000000 1.000000
vn -0.000000 0.000000 1.000000
vn -0.000000 0.000000 1.000000
vn -0.000000 0.000000 1.000000
vn 0.866025 0.000000 0.500000
vn 0.866025 0.000000 0.500000
vn 0.866025 0.000000 0.500000
vn 0.866025 0.000000 0.500000
vn 0.866025 0.000000 -0.500000
vn 0.866025 0.000000 -0.500000
vn 0.866025 0.000000 -0.500000
vn 0.866025 0.000000 -0.500000
vn -0.000000 -1.000000 0.000000
vn -0.000000 -1.000000 0.000000
vn -0.000000 -1.000000 -0.000000
vn -0.000000 -1.000000 0.000000
vn -0.000000 -1.000000 -0.000001
vn -0.000000 -1.000000 -0.000001
vn -0.000000 -1.000000 0.000000
vn 0.000000 1.000000 0.000000
vn 0.000000 1.000000 0.000000
vn 0.000000 1.000000 -0.000000
vn 0.000000 1.000000 0.000000
vn 0.000000 1.000000 -0.000001
vn 0.000000 1.000000 -0.000001
vn 0.000000 1.000000 0.000000
g pCylinder30 M_Arm
f 1/7/1 2/8/2 8/15/3 7/14/4
f 2/8/5 3/9/6 9/16/7 8/15/8
f 3/9/9 4/10/10 10/17/11 9/16/12
f 4/10/13 5/11/14 11/18/15 10/17/16
f 5/11/17 6/12/18 12/19/19 11/18/20
f 6/12/21 1/13/22 7/20/23 12/19/24
f 2/2/25 1/1/26 13/27/27
f 3/3/28 2/2/25 13/27/27
f 4/4/29 3/3/28 13/27/27
f 5/5/30 4/4/29 13/27/27
f 6/6/31 5/5/30 13/27/27
f 1/1/26 6/6/31 13/27/27
f 7/25/32 8/24/33 14/28/34
f 8/24/33 9/23/35 14/28/34
f 9/23/35 10/22/36 14/28/34
f 10/22/36 11/21/37 14/28/34
f 11/21/37 12/26/38 14/28/34
f 12/26/38 7/25/32 14/28/34
v -13.480131 84.800301 8.845272
v 13.480131 84.800301 8.845272
v -13.480131 107.831779 8.845272
v 13.480131 107.831779 8.845272
v -12.999855 107.280853 7.845898
v 12.999855 107.280853 7.845898
v -12.999855 85.351227 7.845898
v 12.999855 85.351227 7.845898
v -12.999855 107.280853 6.985395
v 12.999855 107.280853 6.985395
v 12.999855 85.351227 6.985395
v -12.999855 85.351227 6.985395
v 13.964952 108.245949 7.845898
v -13.964952 108.245949 7.845898
v -13.964952 84.386131 7.845898
v 13.964952 84.386131 7.845898
vt 0.252168 0.909799
vt 0.340294 0.909829
vt 0.340328 0.984971
vt 0.252202 0.984941
vt 0.343148 0.987839
vt 0.249339 0.987844
vt 0.453001 0.982960
vt 0.368998 0.982963
vt 0.368996 0.912111
vt 0.452998 0.912108
vt 0.249348 0.906932
vt 0.343157 0.906927
vt 0.246189 0.984562
vt 0.339901 0.990989
vt 0.346307 0.910209
vt 0.252595 0.903781
vt 0.452998 0.909328
vt 0.455778 0.912108
vt 0.366216 0.912111
vt 0.368996 0.909330
vt 0.368998 0.985743
vt 0.366218 0.982963
vt 0.455781 0.982960
vt 0.453001 0.985741
vt 0.339909 0.903777
vt 0.246198 0.910214
vt 0.252587 0.990994
vt 0.346298 0.984557
vn 0.000000 0.000000 1.000000
vn 0.000000 0.000000 1.000000
vn 0.000000 0.000000 1.000000
vn 0.000000 0.000000 1.000000
vn 0.000000 0.923809 0.382853
vn 0.000000 0.923809 0.382853
vn 0.000000 0.923809 0.382853
vn 0.000000 0.923809 0.382853
vn 0.000000 0.000000 -1.000000
vn 0.000000 0.000000 -1.000000
vn 0.000000 0.000000 -1.000000
vn 0.000000 0.000000 -1.000000
vn 0.000000 -0.923811 0.382849
vn 0.000000 -0.923811 0.382849
vn 0.000000 -0.923811 0.382849
vn 0.000000 -0.923811 0.382849
vn 0.899717 0.000000 0.436474
vn 0.899717 0.000000 0.436474
vn 0.899717 0.000000 0.436474
vn 0.899717 0.000000 0.436474
vn -0.899717 0.000000 0.436474
vn -0.899717 0.000000 0.436474
vn -0.899717 0.000000 0.436474
vn -0.899717 0.000000 0.436474
vn 0.000000 1.000000 0.000000
vn 0.000000 1.000000 0.000000
vn 0.000000 1.000000 0.000000
vn 0.000000 1.000000 0.000000
vn 1.000000 0.000000 0.000000
vn 1.000000 0.000000 0.000000
vn 1.000000 0.000000 0.000000
vn 1.000000 0.000000 0.000000
vn 0.000000 -1.000000 0.000000
vn 0.000000 -1.000000 0.000000
vn 0.000000 -1.000000 0.000000
vn 0.000000 -1.000000 0.000000
vn -1.000000 0.000000 0.000000
vn -1.000000 0.000000 0.000000
vn -1.000000 0.000000 0.000000
vn -1.000000 0.000000 0.000000
vn 0.000000 0.000000 -1.000000
vn 0.000000 0.000000 -1.000000
vn 0.000000 0.000000 -1.000000
vn 0.000000 0.000000 -1.000000
vn 0.000000 0.000000 -1.000000
vn 0.000000 0.000000 -1.000000
vn 0.000000 0.000000 -1.000000
vn 0.000000 0.000000 -1.000000
vn 0.000001 0.000000 -1.000000
vn 0.000001 0.000000 -1.000000
vn 0.000001 0.000000 -1.000000
vn 0.000001 0.000000 -1.000000
vn -0.000001 0.000000 -1.000000
vn -0.000001 0.000000 -1.000000
vn -0.000001 0.000000 -1.000000
vn -0.000001 0.000000 -1.000000
g M_Arm pCube44
f 15/29/39 16/30/40 18/31/41 17/32/42
f 17/32/43 18/31/44 27/33/45 28/34/46
f 23/35/47 24/36/48 25/37/49 26/38/50
f 29/39/51 30/40/52 16/30/53 15/29/54
f 16/30/55 30/40/56 27/33/57 18/31/58
f 29/39/59 15/29/60 17/32/61 28/34/62
f 19/52/63 20/49/64 24/36/65 23/35/66
f 20/50/67 22/47/68 25/37/69 24/36/70
f 22/48/71 21/45/72 26/38/73 25/37/74
f 21/46/75 19/51/76 23/35/77 26/38/78
f 20/42/79 19/55/80 28/34/81 27/33/82
f 21/44/83 22/53/84 30/40/85 29/39/86
f 22/43/87 20/56/88 27/33/89 30/40/90
f 19/41/91 21/54/92 29/39/93 28/34/94
v -17.500000 -0.000013 7.845898
v 17.500000 -0.000013 7.845898
v -17.500000 111.227220 7.845898
v 17.500000 111.227220 7.845898
v -17.500000 111.227220 -20.154102
v 17.500000 111.227220 -20.154102
v -17.500000 -0.000013 -20.154102
v 17.500000 -0.000013 -20.154102
v -17.500000 111.227220 -6.154102
v -17.500000 -0.000013 -6.154102
v 17.500000 -0.000013 -6.154102
v 17.500000 111.227220 -6.154102
v -17.500000 95.713269 7.845898
v -17.500000 95.713269 -6.154102
v -17.500000 95.713269 -20.154102
v 17.500000 95.713269 -20.154102
v 17.500000 95.713269 -6.154102
v 17.500000 95.713269 7.845898
v 3.120397 95.713269 -20.154102
v -3.120397 95.713269 -20.154102
v 1.560199 98.415601 -20.154102
v -1.560198 98.415609 -20.154102
v -1.560199 93.010921 -20.154102
v 1.560198 93.010905 -20.154102
v 3.120397 95.713269 -24.677760
v 1.560199 98.415601 -24.677760
v 0.000001 95.713269 -24.677760
v -1.560198 98.415609 -24.677760
v -3.120397 95.713269 -24.677760
v -1.560197 93.010921 -24.677760
v 1.560200 93.010905 -24.677760
v 12.999854 95.756330 7.845898
v -12.999854 95.756330 7.845898
v -17.500000 76.570584 7.845898
v 12.999854 85.351195 7.845898
v -12.999858 85.351212 7.845898
v 12.999854 107.280851 7.845898
v -12.999854 107.280851 7.845898
v 17.500000 76.570617 -20.154102
v 17.500000 76.570617 -6.154102
v 17.500000 76.570617 7.845898
v -17.500000 76.570617 -6.154102
v -17.500000 76.570617 -20.154102
v 12.999854 107.280851 -5.342473
v -12.999854 107.280851 -5.342473
v -12.999854 95.756330 -5.342473
v 12.999854 95.756330 -5.342473
v -12.999858 85.351212 -5.342473
v 12.999854 85.351195 -5.342473
vt 0.844541 0.643756
vt 0.729584 0.771900
vt 0.597134 0.756805
vt 0.597149 0.643724
vt 0.066919 0.754974
vt 0.956499 0.756852
vt 0.956514 0.643771
vt 0.089927 0.813384
vt 0.482197 0.817132
vt 0.551916 0.643718
vt 0.201887 0.813384
vt 0.729584 0.817132
vt 0.482197 0.862364
vt 0.224124 0.754971
vt 0.471515 0.641885
vt 0.224122 0.641890
vt 0.112152 0.754973
vt 0.112150 0.641892
vt 0.791431 0.817132
vt 0.791431 0.771900
vt 0.162265 0.754972
vt 0.044790 0.450965
vt 0.162285 0.641891
vt 0.033325 0.397827
vt 0.140037 0.813384
vt 0.906475 0.643764
vt 0.823295 0.914147
vt 0.823307 0.951381
vt 0.096541 0.467606
vt 0.136827 0.431108
vt 0.073600 0.434337
vt 0.062130 0.414464
vt 0.085076 0.414467
vt 0.096546 0.434341
vt 0.108022 0.414471
vt 0.096552 0.394597
vt 0.073606 0.394594
vt 0.096557 0.361333
vt 0.171006 0.693441
vt 0.949934 0.993950
vt 0.992518 0.914091
vt 0.949920 0.951339
vt 0.865917 0.951367
vt 0.865905 0.914133
vt 0.949908 0.914105
vt 0.865894 0.880515
vt 0.949896 0.880487
vt 0.865880 0.837904
vt 0.992507 0.880473
vt 0.125362 0.377970
vt 0.171006 0.703522
vt 0.044801 0.377957
vt 0.073611 0.361329
vt 0.162264 0.708560
vt 0.136833 0.397843
vt 0.153544 0.703517
vt 0.125351 0.450977
vt 0.153544 0.693435
vt 0.073595 0.467601
vt 0.162286 0.688397
vt 0.033320 0.431092
vt 0.872908 0.658283
vt 0.949882 0.837877
vt 0.872897 0.742285
vt 0.823284 0.880529
vt 0.943750 0.742295
vt 0.865932 0.993978
vt 0.943761 0.658292
vt 0.992530 0.951325
vt 0.906429 0.742290
vt 0.906474 0.658287
vt 0.729584 0.862364
vt 0.506668 0.756793
vt 0.471517 0.754966
vt 0.201887 0.768150
vt 0.140037 0.768150
vt 0.201887 0.858617
vt 0.506683 0.643712
vt 0.449284 0.858617
vt 0.844526 0.756838
vt 0.906427 0.756846
vt 0.140037 0.858617
vt 0.791431 0.862364
vt 0.449284 0.813384
vt 0.449284 0.768150
vt 0.551901 0.756799
vt 0.482197 0.771900
vt 0.841569 0.771900
vt 0.021687 0.754975
vt 0.021684 0.641894
vt 0.089927 0.768150
vt 0.066917 0.641893
vt 0.089927 0.858617
vt 0.841569 0.817132
vt 0.841569 0.862364
vn -0.000000 0.000000 1.000000
vn 0.000000 0.000000 1.000000
vn 0.000000 0.000000 1.000000
vn 0.000000 0.000000 1.000000
vn 0.000000 1.000000 0.000000
vn 0.000000 1.000000 0.000000
vn 0.000000 1.000000 0.000000
vn 0.000000 1.000000 0.000000
vn 0.000000 -1.000000 0.000000
vn 0.000000 -1.000000 0.000000
vn 0.000000 -1.000000 0.000000
vn 0.000000 -1.000000 0.000000
vn 1.000000 0.000000 0.000000
vn 1.000000 0.000000 0.000000
vn 1.000000 0.000000 0.000000
vn 1.000000 0.000000 0.000000
vn -1.000000 0.000000 0.000000
vn -1.000000 0.000000 0.000000
vn -1.000000 0.000000 0.000000
vn -1.000000 0.000000 0.000000
vn -1.000000 0.000000 0.000000
vn -1.000000 0.000000 0.000000
vn 0.000000 -1.000000 0.000000
vn 0.000000 -1.000000 0.000000
vn 1.000000 0.000000 0.000000
vn 1.000000 0.000000 0.000000
vn 0.000000 1.000000 0.000000
vn 0.000000 1.000000 0.000000
vn -1.000000 0.000000 0.000000
vn -1.000000 0.000000 0.000000
vn -1.000000 0.000000 0.000000
vn -1.000000 0.000000 0.000000
vn -1.000000 0.000000 0.000000
vn -1.000000 0.000000 0.000000
vn 0.000000 0.000000 -1.000000
vn -0.000000 0.000000 -1.000000
vn -0.000000 0.000000 -1.000000
vn -0.000000 0.000000 -1.000000
vn 1.000000 0.000000 0.000000
vn 1.000000 0.000000 0.000000
vn 1.000000 0.000000 0.000000
vn 1.000000 0.000000 0.000000
vn 1.000000 0.000000 0.000000
vn 1.000000 0.000000 0.000000
vn 0.000000 0.000000 1.000000
vn 0.000000 0.000000 1.000000
vn 0.000000 0.000000 1.000000
vn 0.000000 0.000000 1.000000
vn 0.000000 0.000000 -1.000000
vn 0.000000 0.000000 -1.000000
vn -0.000000 0.000000 -1.000000
vn -0.000000 0.000000 -1.000000
vn 0.000000 0.000000 -1.000000
vn -0.000000 0.000000 -1.000000
vn 0.000000 0.000000 -1.000000
vn 0.000000 0.000000 -1.000000
vn 0.000000 0.000000 -1.000000
vn 0.000000 0.000000 -1.000000
vn 0.000000 0.000000 -1.000000
vn 0.000000 0.000000 -1.000000
vn 0.000000 0.000000 -1.000000
vn 0.000000 0.000000 -1.000000
vn 0.000000 0.000000 -1.000000
vn 0.000000 0.000000 -1.000000
vn 0.000000 0.000000 -1.000000
vn 0.000000 0.000000 -1.000000
vn 0.000000 0.000000 -1.000000
vn 0.000000 0.000000 -1.000000
vn -0.000001 0.000000 -1.000000
vn -0.000001 0.000000 -1.000000
vn -0.000001 0.000000 -1.000000
vn 0.000000 0.000000 -1.000000
vn 0.000000 0.000000 -1.000000
vn 0.000000 0.000000 -1.000000
vn 0.866025 0.500001 0.000000
vn 0.866025 0.500001 0.000000
vn 0.866025 0.500001 0.000000
vn 0.866025 0.500001 0.000000
vn 0.000003 1.000000 0.000000
vn 0.000003 1.000000 0.000000
vn 0.000003 1.000000 0.000000
vn 0.000003 1.000000 0.000000
vn -0.866025 0.500001 0.000000
vn -0.866025 0.500001 0.000000
vn -0.866025 0.500001 0.000000
vn -0.866025 0.500001 0.000000
vn -0.866026 -0.499999 -0.000000
vn -0.866026 -0.499999 -0.000000
vn -0.866026 -0.499999 -0.000000
vn -0.866026 -0.499999 -0.000000
vn -0.000005 -1.000000 0.000000
vn -0.000005 -1.000000 0.000000
vn -0.000005 -1.000000 0.000000
vn -0.000005 -1.000000 0.000000
vn 0.866027 -0.499997 0.000000
vn 0.866027 -0.499997 0.000000
vn 0.866027 -0.499997 0.000000
vn 0.866027 -0.499997 0.000000
vn -0.000000 0.000000 1.000000
vn -0.000000 0.000000 1.000000
vn -0.000000 0.000000 1.000000
vn -0.000000 0.000000 1.000000
vn 0.000000 0.000000 1.000000
vn 0.000000 0.000000 1.000000
vn 0.000000 0.000000 1.000000
vn 0.000000 0.000000 1.000000
vn 0.000000 0.000000 1.000000
vn 0.000000 0.000000 1.000000
vn 0.000000 0.000000 1.000000
vn 0.000000 0.000000 1.000000
vn -0.000000 0.000000 -1.000000
vn 0.000000 0.000000 -1.000000
vn 0.000000 -1.000000 0.000000
vn 0.000000 -1.000000 0.000000
vn 0.000000 -1.000000 0.000000
vn 0.000000 -1.000000 0.000000
vn 1.000000 0.000000 0.000000
vn 1.000000 -0.000000 0.000000
vn 1.000000 -0.000000 0.000000
vn 1.000000 0.000000 0.000000
vn -1.000000 0.000000 0.000000
vn -1.000000 0.000000 0.000000
vn -1.000000 0.000000 0.000000
vn -1.000000 0.000000 0.000000
vn 1.000000 -0.000000 0.000000
vn 1.000000 -0.000000 0.000000
vn 0.000001 1.000000 0.000000
vn 0.000001 1.000000 0.000000
vn 0.000001 1.000000 0.000000
vn 0.000001 1.000000 0.000000
vn -1.000000 0.000000 0.000000
vn -1.000000 0.000000 0.000000
g M_Arm pCube42
f 71/57/95 64/136/96 31/59/97 32/60/98
f 39/61/99 33/145/100 34/146/101 42/148/102
f 31/59/103 40/142/104 41/66/105 32/60/106
f 32/141/107 41/140/108 70/67/109 71/131/110
f 64/58/111 72/68/112 40/65/113 31/143/114
f 37/69/115 40/65/113 72/68/112 73/128/116
f 40/142/104 37/129/117 38/134/118 41/66/105
f 69/133/119 70/67/109 41/140/108 38/135/120
f 35/73/121 39/61/99 42/148/102 36/74/122
f 39/150/123 44/75/124 43/76/125 33/144/126
f 45/139/127 44/75/124 39/150/123 35/151/128
f 51/114/129 36/74/130 46/79/131 49/116/132
f 42/64/133 47/81/134 46/138/135 36/149/136
f 48/132/137 47/81/134 42/64/133 34/147/138
f 63/126/139 68/122/140 33/62/141 43/137/142
f 52/112/143 35/73/144 36/74/130 51/114/129
f 35/73/144 52/112/143 50/110/145 45/77/146
f 37/130/147 73/70/148 69/72/149 38/71/150
f 56/87/151 55/88/152 57/89/153
f 58/90/154 56/87/155 57/89/156
f 59/91/157 58/90/158 57/89/159
f 60/92/160 59/91/161 57/89/162
f 61/93/163 60/92/164 57/89/165
f 55/88/166 61/93/167 57/89/168
f 51/78/169 49/117/170 55/88/171 56/87/172
f 56/87/173 58/90/174 52/85/175 51/115/176
f 50/86/177 52/113/178 58/90/179 59/91/180
f 53/106/181 50/111/182 59/91/183 60/92/184
f 53/94/185 60/92/186 61/93/187 54/109/188
f 49/80/189 54/108/190 61/93/191 55/88/192
f 34/63/193 67/124/194 62/127/195 48/82/196
f 74/98/197 75/99/198 76/100/199 77/101/200
f 76/100/199 78/102/201 79/103/202 77/101/200
f 63/126/139 43/137/142 64/136/96 66/120/203
f 34/63/193 33/62/141 68/122/140 67/124/194
f 46/138/135 47/81/134 70/67/109 69/133/119
f 71/131/110 70/67/109 47/81/134 48/132/137
f 71/57/95 65/118/204 66/120/203 64/136/96
f 43/76/125 44/75/124 72/68/112 64/58/111
f 73/128/116 72/68/112 44/75/124 45/139/127
f 53/107/205 73/70/148 45/77/146 50/110/145
f 69/72/149 73/70/148 53/107/205 54/95/206
f 69/72/149 54/95/206 49/116/132 46/79/131
f 62/127/195 65/118/204 71/57/95 48/82/196
f 67/96/207 68/123/208 75/99/209 74/98/210
f 68/84/211 63/83/212 76/100/213 75/99/214
f 62/97/215 67/125/216 74/98/217 77/101/218
f 63/83/212 66/121/219 78/102/220 76/100/213
f 66/104/221 65/119/222 79/103/223 78/102/224
f 65/105/225 62/97/215 77/101/218 79/103/226
v 344.499988 86.890957 -23.254000
v 344.499988 97.421621 -23.254000
v 344.499988 97.421621 -28.519331
v 344.499988 86.890957 -28.519331
v 44.499991 86.890957 -23.254000
v 44.499991 86.890957 -28.519331
v 44.499991 97.421621 -28.519331
v 44.499991 97.421621 -23.254000
v -7.038310 88.599294 -24.677763
v 0.000004 95.713265 -24.677766
v -7.038310 88.599294 -27.095573
v 0.000004 95.713265 -27.095570
v 44.499991 88.599300 -24.677758
v 44.499991 88.599300 -27.095573
v 44.499991 95.713265 -27.095573
v 44.499991 95.713265 -24.677758
v 19.607617 88.599300 -24.677763
v 19.607617 95.713265 -24.677763
v 19.607617 95.713265 -27.095573
v 19.607617 88.599300 -27.095570
v -7.038310 106.650576 -24.677763
v -7.038310 106.650576 -27.095573
v 15.742866 104.454177 -27.095570
v 15.742866 104.454177 -24.677763
v 9.277761 106.650576 -24.677763
v 9.277761 106.650576 -27.095570
vt 0.979898 0.570026
vt 0.979893 0.536002
vt 0.979891 0.518990
vt 0.979900 0.587037
vt 0.244319 0.380052
vt 0.244314 0.457489
vt 0.205596 0.457486
vt 0.205600 0.380049
vt 0.150640 0.905277
vt 0.173376 0.928266
vt 0.087286 0.928249
vt 0.396527 0.872283
vt 0.087284 0.936061
vt 0.173375 0.936077
vt 0.087280 0.959046
vt 0.150630 0.959058
vt 0.189086 0.887609
vt 0.173387 0.869944
vt 0.120672 0.869934
vt 0.120648 0.994389
vt 0.006861 0.928234
vt 0.554432 0.872293
vt 0.006860 0.936046
vt 0.006855 0.959031
vt 0.099782 0.877026
vt 0.099761 0.987289
vt 0.233846 0.444926
vt 0.233849 0.392613
vt 0.216066 0.444925
vt 0.010627 0.570163
vt 0.010630 0.587175
vt 0.216069 0.392612
vt 0.010620 0.519128
vt 0.010622 0.536140
vt 0.292587 0.887614
vt 0.335901 0.887617
vt 0.292588 0.872277
vt 0.335901 0.872280
vt 0.087290 0.905265
vt 0.396526 0.887621
vt 0.554431 0.887630
vt 0.006865 0.905250
vt 0.996910 0.570023
vt 0.996905 0.536000
vt 0.189087 0.872271
vt 0.231697 0.936088
vt 0.010635 0.621199
vt 0.979905 0.621061
vt 0.173364 0.994399
vt 0.231698 0.928276
vn 1.000000 0.000000 0.000000
vn 1.000000 0.000000 0.000000
vn 1.000000 0.000000 0.000000
vn 1.000000 0.000000 0.000000
vn 0.000000 0.000000 1.000000
vn 0.000000 0.000000 1.000000
vn 0.000000 0.000000 1.000000
vn 0.000000 0.000000 1.000000
vn 0.000000 1.000000 0.000000
vn 0.000000 1.000000 0.000000
vn 0.000000 1.000000 0.000000
vn 0.000000 1.000000 0.000000
vn 0.000000 0.000000 -1.000000
vn 0.000000 0.000000 -1.000000
vn 0.000000 0.000000 -1.000000
vn 0.000000 0.000000 -1.000000
vn 0.000000 -1.000000 0.000000
vn 0.000000 -1.000000 0.000000
vn 0.000000 -1.000000 0.000000
vn 0.000000 -1.000000 0.000000
vn -0.000000 0.000000 1.000000
vn -0.000000 0.000000 1.000000
vn -0.000000 0.000000 1.000000
vn -0.000000 0.000000 1.000000
vn 0.000000 -1.000000 0.000000
vn 0.000000 -1.000000 0.000000
vn 0.000000 -1.000000 0.000000
vn 0.000000 -1.000000 0.000000
vn 0.000000 -0.000000 -1.000000
vn 0.000000 -0.000000 -1.000000
vn 0.000000 -0.000000 -1.000000
vn 0.000000 -0.000000 -1.000000
vn 0.000000 1.000000 0.000000
vn 0.000000 1.000000 0.000000
vn 0.000000 1.000000 0.000000
vn 0.000000 1.000000 0.000000
vn -1.000000 0.000000 0.000000
vn -1.000000 0.000000 0.000000
vn -1.000000 0.000000 0.000000
vn -1.000000 0.000000 0.000000
vn -1.000000 0.000000 0.000000
vn -1.000000 0.000000 0.000000
vn -1.000000 0.000000 0.000000
vn -1.000000 0.000000 0.000000
vn -1.000000 0.000000 0.000000
vn -1.000000 0.000000 0.000000
vn -1.000000 0.000000 0.000000
vn -1.000000 0.000000 0.000000
vn -1.000000 -0.000003 0.000000
vn -1.000000 -0.000003 0.000000
vn -1.000000 -0.000003 0.000000
vn -1.000000 -0.000003 0.000000
vn -0.000000 0.000000 1.000000
vn -0.000000 0.000000 1.000000
vn -0.000000 0.000000 1.000000
vn -0.000000 0.000000 1.000000
vn 0.000000 1.000000 0.000000
vn 0.000000 1.000000 0.000000
vn 0.000000 1.000000 0.000000
vn 0.000000 1.000000 0.000000
vn -0.000000 -0.000000 -1.000000
vn -0.000000 -0.000000 -1.000000
vn -0.000000 -0.000000 -1.000000
vn -0.000000 -0.000000 -1.000000
vn 0.000000 -1.000000 0.000000
vn 0.000000 -1.000000 0.000000
vn 0.000000 -1.000000 0.000000
vn 0.000000 -1.000000 0.000000
vn 0.000000 0.000000 1.000000
vn 0.000000 0.000000 1.000000
vn 0.000000 0.000000 1.000000
vn 0.000000 0.000000 -1.000000
vn 0.000000 0.000000 -1.000000
vn 0.000000 0.000000 -1.000000
vn -1.000000 0.000000 0.000000
vn -1.000000 0.000000 0.000000
vn -1.000000 0.000000 0.000000
vn -1.000000 0.000000 0.000000
vn 0.000000 -0.000000 -1.000000
vn 0.000000 -0.000000 -1.000000
vn 0.000000 -0.000000 -1.000000
vn -0.000000 -0.000000 1.000000
vn -0.000000 -0.000000 1.000000
vn -0.000000 -0.000000 1.000000
vn 0.914590 0.404382 0.000000
vn 0.914590 0.404382 0.000000
vn 0.914590 0.404382 0.000000
vn 0.914590 0.404382 0.000000
vn 0.321675 0.946850 0.000000
vn 0.321675 0.946850 0.000000
vn 0.321675 0.946850 0.000000
vn 0.321675 0.946850 0.000000
vn 0.000000 -0.000000 1.000000
vn 0.000000 -0.000000 1.000000
vn 0.000000 -0.000000 1.000000
vn -0.000000 -0.000000 1.000000
vn -0.000000 -0.000000 1.000000
vn -0.000000 -0.000000 1.000000
vn -0.000000 0.000000 -1.000000
vn -0.000000 0.000000 -1.000000
vn -0.000000 0.000000 -1.000000
vn 0.000000 0.000000 -1.000000
vn 0.000000 0.000000 -1.000000
vn 0.000000 0.000000 -1.000000
g M_Arm pCube43
f 81/152/227 80/153/228 83/195/229 82/194/230
f 84/185/231 80/153/232 81/152/233 87/181/234
f 87/181/235 81/152/236 82/155/237 86/182/238
f 82/155/239 83/199/240 85/198/241 86/182/242
f 83/154/243 80/153/244 84/185/245 85/184/246
f 89/160/247 88/161/248 96/162/249 97/190/250
f 99/164/251 96/162/252 88/161/253 90/165/254
f 98/166/255 99/164/256 90/165/257 91/167/258
f 101/168/259 100/196/260 104/188/261 105/186/262
f 92/179/263 84/156/264 87/157/265 95/178/266
f 93/183/267 85/159/268 84/156/269 92/179/270
f 94/180/271 86/158/272 85/159/273 93/183/274
f 94/180/275 95/178/276 87/157/277 86/158/278
f 96/162/279 92/172/280 95/193/281 97/190/282
f 97/163/283 95/173/284 94/192/285 98/191/286
f 94/175/287 93/174/288 99/164/289 98/166/290
f 93/174/291 92/172/292 96/162/293 99/164/294
f 88/161/295 89/160/296 100/169/297
f 91/167/298 90/165/299 101/200/300
f 100/201/301 101/197/302 90/165/303 88/161/304
f 105/171/305 91/167/306 101/200/307
f 103/176/308 89/160/309 97/190/310
f 102/187/311 103/189/312 97/163/313 98/191/314
f 104/188/315 103/189/316 102/187/317 105/186/318
f 104/170/319 100/169/320 89/160/321
f 104/170/322 89/160/323 103/176/324
f 98/166/325 91/167/326 102/177/327
f 102/177/328 91/167/329 105/171/330
