# This file uses meters as units for non-parametric coordinates.

v -5.746809 1.200253 6.696337
v 5.746601 1.200253 6.696337
v -5.746809 6.941424 6.696337
v 5.746601 6.941424 6.696337
v -5.746809 6.941424 -8.475446
v 5.746601 6.941424 -8.475446
v -5.746809 1.200253 -8.475446
v 5.746601 1.200253 -8.475446
v -2.086953 6.941423 1.683929
v 2.086722 6.941423 1.683929
v 2.086722 6.941423 -3.500108
v -2.086953 6.941423 -3.500108
v -2.086953 71.368960 1.683929
v 2.086722 71.368960 1.683929
v 2.086722 71.368960 -3.500108
v -2.086953 71.368960 -3.500108
v -2.086953 85.872782 3.376005
v 2.086722 85.872782 3.376005
v 2.086722 88.099160 -1.323019
v -2.086953 88.099160 -1.323019
v -2.086953 96.528419 9.616915
v 2.086722 96.528419 9.616915
v 2.086722 102.617065 7.310538
v -2.086953 102.617065 7.310538
v -2.086953 98.472423 16.478351
v 2.086722 98.472423 16.478351
v 2.086722 105.974662 16.478352
v -2.086953 105.974662 16.478352
v -11.118087 93.501031 16.478351
v 11.117878 93.501031 16.478351
v 11.117878 111.607615 16.478354
v -11.118087 111.607615 16.478354
v -11.118087 93.501031 28.262392
v 11.117878 93.501031 28.262392
v 11.117878 111.607615 33.474027
v -11.118087 111.607615 33.474027
v 8.894280 93.501031 28.262401
v -8.894511 93.501031 28.262401
v 8.894280 109.117029 32.743459
v -8.894511 109.117029 32.743459
v 8.894280 109.117029 28.262403
v -8.894511 109.117029 28.262403
v 1.216330 97.149003 28.262401
v 1.216330 105.469057 28.262403
v -1.216653 105.469057 28.262403
v -1.216653 97.149003 28.262401
v 0.864127 97.704619 29.585986
v 0.864127 104.913451 29.585989
v -0.864450 104.913451 29.585989
v -0.864450 97.704619 29.585986
v -0.864450 102.964647 28.759342
v -0.864450 103.831012 29.585989
v 0.864127 102.964647 28.759342
v 0.864127 103.831012 29.585989
v -0.864450 99.653414 28.759342
v -0.864450 98.787049 29.585989
v 0.864127 99.653414 28.759342
v 0.864127 98.787049 29.585989
v 1.216330 98.545074 28.262401
v 1.216330 104.072996 28.262401
v -1.216653 104.072996 28.262403
v -1.216653 98.545074 28.262401
v -8.894511 101.309030 28.262401
v 8.894280 101.309030 28.262401
vt 0.244770 0.220273
vt 0.083989 0.273808
vt 0.083996 0.220251
vt 0.191213 0.220266
vt 0.655474 0.338709
vt 0.695138 0.338709
vt 0.698702 0.366411
vt 0.652606 0.366411
vt 0.191232 0.078735
vt 0.084015 0.078720
vt 0.030458 0.078713
vt 0.191187 0.415354
vt 0.935529 0.003363
vt 0.896259 0.003363
vt 0.808966 0.003363
vt 0.848272 0.003363
vt 0.935529 0.609104
vt 0.896259 0.609104
vt 0.808966 0.609104
vt 0.848272 0.609104
vt 0.935529 0.752992
vt 0.896259 0.752992
vt 0.808966 0.758849
vt 0.848272 0.758849
vt 0.935529 0.873251
vt 0.896259 0.877228
vt 0.808966 0.905695
vt 0.848272 0.905695
vt 0.384435 0.550671
vt 0.439604 0.550671
vt 0.384435 0.649839
vt 0.439604 0.649839
vt 0.265060 0.484958
vt 0.558984 0.484958
vt 0.265060 0.724298
vt 0.558984 0.724298
vt 0.265060 0.948954
vt 0.109282 0.484958
vt 0.783647 0.724298
vt 0.714739 0.484958
vt 0.454772 0.039427
vt 0.294429 0.329191
vt 0.529569 0.329191
vt 0.620716 0.039427
vt 0.252156 0.943162
vt 0.252156 0.850240
vt 0.040454 0.943164
vt 0.040453 0.850242
vt 0.160781 0.883135
vt 0.737402 0.366411
vt 0.131827 0.899749
vt 0.131826 0.817348
vt 0.613731 0.167593
vt 0.160781 0.800733
vt 0.698671 0.167593
vt 0.652543 0.167593
vt 0.695415 0.195180
vt 0.655811 0.195180
vt 0.698135 0.309469
vt 0.652578 0.309469
vt 0.652578 0.224422
vt 0.698135 0.224422
vt 0.160781 0.817347
vt 0.131827 0.883135
vt 0.630255 0.198645
vt 0.644451 0.131669
vt 0.131826 0.800733
vt 0.630255 0.335270
vt 0.720584 0.334929
vt 0.708132 0.402209
vt 0.160782 0.899749
vt 0.720584 0.198944
vt 0.707577 0.131669
vt 0.737415 0.167593
vt 0.645020 0.402209
vt 0.613743 0.366411
vt 0.381938 0.081229
vt 0.454772 0.081229
vt 0.693557 0.081229
vt 0.742984 0.476803
vt 0.766394 0.081229
vt 0.040453 0.757320
vt 0.252155 0.757318
vt 0.309100 0.081229
vt 0.081036 0.476852
vt 0.620716 0.081229
vt 0.802400 0.683169
vt 0.529618 0.983263
vt 0.558985 0.948954
vt 0.294479 0.983263
vt 0.021651 0.683228
vt 0.040411 0.724298
vt 0.265060 0.329191
vt 0.558984 0.329191
vt 0.903427 0.944654
vt 0.848272 0.990055
vt 0.808966 0.996637
vt 0.935529 0.944654
vt 0.988092 0.889362
vt 0.988092 0.974302
vt 0.988092 0.757717
vt 0.988092 0.609104
vt 0.118150 0.125138
vt 0.988092 0.003363
vt 0.157078 0.173503
vt 0.157084 0.125143
vt 0.118144 0.173497
vt 0.084022 0.025163
vt 0.083970 0.415339
vt 0.030439 0.220244
vt 0.191239 0.025178
vt 0.244789 0.078742
vt 0.191206 0.273823
vn 0.000000 0.000000 1.000000
vn 0.000000 0.000000 1.000000
vn 0.000000 0.000000 1.000000
vn 0.000000 0.000000 1.000000
vn 0.000000 0.000000 1.000000
vn 0.000000 0.000000 1.000000
vn 0.000000 0.000000 1.000000
vn 0.000000 0.000000 1.000000
vn 0.000000 0.000000 -1.000000
vn 0.000000 0.000000 -1.000000
vn 0.000000 0.000000 -1.000000
vn 0.000000 0.000000 -1.000000
vn 0.000000 -1.000000 0.000000
vn 0.000000 -1.000000 0.000000
vn 0.000000 -1.000000 0.000000
vn 0.000000 -1.000000 0.000000
vn 1.000000 0.000000 0.000000
vn 1.000000 0.000000 0.000000
vn 1.000000 0.000000 0.000000
vn 1.000000 0.000000 0.000000
vn -1.000000 0.000000 0.000000
vn -1.000000 0.000000 0.000000
vn -1.000000 0.000000 0.000000
vn -1.000000 0.000000 0.000000
vn 0.000000 1.000000 -0.000000
vn 0.000000 1.000000 -0.000000
vn 0.000000 1.000000 -0.000000
vn 0.000000 1.000000 -0.000000
vn -0.000000 1.000000 0.000000
vn -0.000000 1.000000 0.000000
vn -0.000000 1.000000 0.000000
vn -0.000000 1.000000 0.000000
vn 0.000000 1.000000 0.000000
vn 0.000000 1.000000 0.000000
vn 0.000000 1.000000 0.000000
vn 0.000000 1.000000 0.000000
vn 0.000000 1.000000 0.000000
vn 0.000000 1.000000 0.000000
vn 0.000000 1.000000 0.000000
vn 0.000000 1.000000 0.000000
vn 0.000000 0.000000 1.000000
vn 0.000000 0.000000 1.000000
vn 0.000000 0.000000 1.000000
vn 0.000000 0.000000 1.000000
vn 1.000000 0.000000 0.000000
vn 1.000000 0.000000 0.000000
vn 1.000000 0.000000 0.000000
vn 1.000000 0.000000 0.000000
vn 0.000000 0.000000 -1.000000
vn 0.000000 0.000000 -1.000000
vn 0.000000 0.000000 -1.000000
vn 0.000000 0.000000 -1.000000
vn -1.000000 0.000000 0.000000
vn -1.000000 0.000000 0.000000
vn -1.000000 0.000000 0.000000
vn -1.000000 0.000000 0.000000
vn 0.000000 -0.115878 0.993263
vn 0.000000 -0.115878 0.993263
vn 0.000000 -0.115878 0.993263
vn 0.000000 -0.115878 0.993263
vn 1.000000 -0.000000 0.000000
vn 1.000000 -0.000000 0.000000
vn 1.000000 -0.000000 0.000000
vn 1.000000 -0.000000 0.000000
vn 0.000000 0.129041 -0.991639
vn 0.000000 0.129041 -0.991639
vn 0.000000 0.129041 -0.991639
vn 0.000000 0.129041 -0.991639
vn -1.000000 0.000000 0.000000
vn -1.000000 0.000000 0.000000
vn -1.000000 0.000000 0.000000
vn -1.000000 0.000000 0.000000
vn 0.000000 -0.505388 0.862892
vn 0.000000 -0.505388 0.862892
vn 0.000000 -0.505388 0.862892
vn 0.000000 -0.505388 0.862892
vn 1.000000 0.000000 0.000000
vn 1.000000 0.000000 0.000000
vn 1.000000 0.000000 0.000000
vn 1.000000 0.000000 0.000000
vn 0.000000 0.511132 -0.859502
vn 0.000000 0.511132 -0.859502
vn 0.000000 0.511132 -0.859502
vn 0.000000 0.511132 -0.859502
vn -1.000000 0.000000 0.000000
vn -1.000000 0.000000 0.000000
vn -1.000000 0.000000 0.000000
vn -1.000000 0.000000 0.000000
vn 0.000000 -0.962129 0.272593
vn 0.000000 -0.962129 0.272593
vn 0.000000 -0.962129 0.272593
vn 0.000000 -0.962129 0.272593
vn 1.000000 0.000000 0.000000
vn 1.000000 0.000000 0.000000
vn 1.000000 0.000000 0.000000
vn 1.000000 0.000000 0.000000
vn 0.000000 0.939007 -0.343899
vn 0.000000 0.939007 -0.343899
vn 0.000000 0.939007 -0.343899
vn 0.000000 0.939007 -0.343899
vn -1.000000 0.000000 0.000000
vn -1.000000 0.000000 0.000000
vn -1.000000 0.000000 0.000000
vn -1.000000 0.000000 0.000000
vn 0.000000 0.000000 -1.000000
vn 0.000000 0.000000 -1.000000
vn 0.000000 0.000000 -1.000000
vn 0.000000 0.000000 -1.000000
vn -0.000000 0.000000 -1.000000
vn -0.000000 0.000000 -1.000000
vn -0.000000 0.000000 -1.000000
vn -0.000000 0.000000 -1.000000
vn 0.000000 0.000000 -1.000000
vn 0.000000 0.000000 -1.000000
vn 0.000000 0.000000 -1.000000
vn 0.000000 0.000000 -1.000000
vn 0.000000 0.000000 -1.000000
vn 0.000000 0.000000 -1.000000
vn 0.000000 0.000000 -1.000000
vn 0.000000 0.000000 -1.000000
vn 1.000000 -0.000000 0.000000
vn 1.000000 -0.000000 0.000000
vn 1.000000 -0.000000 0.000000
vn 1.000000 -0.000000 0.000000
vn 0.000000 1.000000 0.000000
vn 0.000000 1.000000 0.000000
vn 0.000000 1.000000 0.000000
vn 0.000000 1.000000 0.000000
vn -1.000000 0.000000 0.000000
vn -1.000000 0.000000 0.000000
vn -1.000000 0.000000 0.000000
vn -1.000000 0.000000 0.000000
vn -0.003176 -0.276239 0.961084
vn -0.003176 -0.276239 0.961084
vn -0.003176 -0.276239 0.961084
vn -0.003176 -0.276239 0.961084
vn 0.003176 -0.276239 0.961084
vn 0.003176 -0.276239 0.961084
vn 0.003176 -0.276239 0.961084
vn 0.003176 -0.276239 0.961084
vn 0.000000 -0.281472 0.959569
vn 0.000000 -0.281472 0.959569
vn 0.000000 -0.281472 0.959569
vn 0.000000 -0.281472 0.959569
vn -1.000000 -0.000000 0.000000
vn -1.000000 -0.000000 0.000000
vn -1.000000 -0.000000 0.000000
vn -1.000000 -0.000000 0.000000
vn 0.000000 -1.000000 0.000000
vn 0.000000 -1.000000 0.000000
vn 0.000000 -1.000000 0.000000
vn 0.000000 -1.000000 0.000000
vn 1.000000 0.000000 0.000000
vn 1.000000 0.000000 0.000000
vn 1.000000 0.000000 0.000000
vn 1.000000 0.000000 0.000000
vn 0.000000 -1.000000 0.000000
vn 0.000000 -1.000000 0.000000
vn 0.000000 -1.000000 0.000000
vn 0.000000 -0.000001 1.000000
vn 0.000000 -0.000001 1.000000
vn 0.000000 -0.000001 1.000000
vn 0.000000 -0.000001 1.000000
vn 0.000000 0.000000 1.000000
vn 0.000000 0.000000 1.000000
vn 0.000000 0.000000 1.000000
vn 0.000000 0.000000 1.000000
vn 0.000000 0.000000 1.000000
vn 0.000000 0.000000 1.000000
vn 0.000000 0.000000 1.000000
vn 0.000000 0.000000 1.000000
vn 0.000000 0.000000 1.000000
vn 0.000000 0.000000 1.000000
vn 0.000000 0.000000 1.000000
vn 0.000000 0.000000 1.000000
vn 0.000000 0.922057 0.387055
vn 0.000000 0.922057 0.387055
vn 0.000000 0.922057 0.387055
vn 0.000000 0.922057 0.387055
vn 0.000000 -0.922054 0.387061
vn 0.000000 -0.922054 0.387061
vn 0.000000 -0.922054 0.387061
vn 0.000000 -0.922054 0.387061
vn 0.000000 -0.000003 1.000000
vn 0.000000 -0.000003 1.000000
vn 0.000000 -0.000003 1.000000
vn 0.000000 -0.000003 1.000000
vn 0.000000 0.000000 1.000000
vn 0.000000 0.000000 1.000000
vn 0.000000 0.000000 1.000000
vn 0.000000 0.000000 1.000000
vn 0.966372 -0.000000 0.257148
vn 0.966372 -0.000000 0.257148
vn 0.966372 -0.000000 0.257148
vn 0.966372 -0.000000 0.257148
vn 0.000000 -0.690328 0.723497
vn 0.000000 -0.690328 0.723497
vn 0.000000 -0.690328 0.723497
vn 0.000000 -0.690328 0.723497
vn 0.000000 0.690328 0.723497
vn 0.000000 0.690328 0.723497
vn 0.000000 0.690328 0.723497
vn 0.000000 0.690328 0.723497
vn -0.966371 -0.000000 0.257150
vn -0.966371 -0.000000 0.257150
vn -0.966371 -0.000000 0.257150
vn -0.966371 -0.000000 0.257150
vn 0.966371 -0.000000 0.257150
vn 0.966371 -0.000000 0.257150
vn 0.966371 -0.000000 0.257150
vn 0.966371 -0.000000 0.257150
vn 0.815868 0.000000 0.578238
vn 0.815868 0.000000 0.578238
vn 0.815868 0.000000 0.578238
vn 0.815868 0.000000 0.578238
vn -0.954299 -0.206307 0.216219
vn -0.954299 -0.206307 0.216219
vn -0.954299 -0.206307 0.216219
vn -0.815867 -0.000000 0.578240
vn -0.815867 -0.000000 0.578239
vn -0.815867 -0.000000 0.578239
vn -0.815867 -0.000000 0.578239
vn 0.954299 -0.206307 0.216219
vn 0.954299 -0.206307 0.216219
vn 0.954299 -0.206306 0.216219
vn 0.954299 0.206307 0.216219
vn 0.954299 0.206307 0.216219
vn 0.954299 0.206307 0.216219
vn -0.954299 0.206307 0.216219
vn -0.954299 0.206307 0.216219
vn -0.954299 0.206307 0.216219
vn -0.966372 0.000000 0.257149
vn -0.966372 0.000000 0.257149
vn -0.966372 0.000000 0.257149
vn -0.966372 0.000000 0.257149
vn -0.000000 -0.000000 1.000000
vn -0.000000 -0.000000 1.000000
vn -0.000000 -0.000000 1.000000
vn -0.000000 -0.000000 1.000000
vn 0.000000 -0.000001 1.000000
vn 0.000000 -0.000001 1.000000
vn 0.000000 -0.000001 1.000000
vn -0.000000 0.000000 1.000000
vn -0.000000 0.000000 1.000000
vn -0.000000 0.000000 1.000000
vn -0.000000 0.000000 1.000000
vn 0.000000 0.000000 1.000000
vn 0.000000 0.000000 1.000000
vn 0.000000 0.000000 1.000000
vn 0.000000 -1.000000 0.000000
vn 0.000000 -1.000000 0.000000
vn 0.000000 -1.000000 0.000000
vn 0.000000 -1.000000 0.000000
vn 0.000000 -1.000000 0.000000
vn 0.000000 -1.000000 0.000000
vn 0.000000 -1.000000 0.000000
g M_CardReader
f 1/113/1 2/2/2 4/3/3 3/4/4
f 52/5/5 54/6/6 48/7/7 49/8/8
f 5/9/9 6/10/10 8/108/11 7/111/12
f 7/12/13 8/109/14 2/2/15 1/113/16
f 2/110/17 8/11/18 6/10/19 4/3/20
f 7/112/21 1/1/22 3/4/23 5/9/24
f 3/4/25 4/3/26 10/107/27 9/105/28
f 4/3/29 6/10/30 11/103/31 10/107/32
f 6/10/33 5/9/34 12/106/35 11/103/36
f 5/9/37 3/4/38 9/105/39 12/106/40
f 9/14/41 10/13/42 14/17/43 13/18/44
f 10/13/45 11/104/46 15/102/47 14/17/48
f 11/15/49 12/16/50 16/20/51 15/19/52
f 12/16/53 9/14/54 13/18/55 16/20/56
f 13/18/57 14/17/58 18/21/59 17/22/60
f 14/17/61 15/102/62 19/101/63 18/21/64
f 15/19/65 16/20/66 20/24/67 19/23/68
f 16/20/69 13/18/70 17/22/71 20/24/72
f 17/22/73 18/21/74 22/25/75 21/26/76
f 18/21/77 19/101/78 23/99/79 22/25/80
f 19/23/81 20/24/82 24/28/83 23/27/84
f 20/24/85 17/22/86 21/26/87 24/28/88
f 21/26/89 22/25/90 26/98/91 25/95/92
f 22/25/93 23/99/94 27/100/95 26/98/96
f 23/27/97 24/28/98 28/96/99 27/97/100
f 24/28/101 21/26/102 25/95/103 28/96/104
f 25/30/105 26/29/106 30/33/107 29/34/108
f 26/29/109 27/31/110 31/35/111 30/33/112
f 27/31/113 28/32/114 32/36/115 31/35/116
f 28/32/117 25/30/118 29/34/119 32/36/120
f 30/33/121 31/35/122 35/92/123 34/38/124
f 31/35/125 32/36/126 36/89/127 35/37/128
f 32/36/129 29/34/130 33/40/131 36/39/132
f 34/38/133 35/92/134 39/91/135 37/85/136
f 38/80/137 40/87/138 36/39/139 33/40/140
f 35/37/141 36/89/142 40/88/143 39/90/144
f 37/84/145 39/41/146 41/78/147 64/77/148
f 39/41/149 40/44/150 42/86/151 41/78/152
f 40/44/153 38/81/154 63/79/155 42/86/156
f 30/33/157 34/93/158 37/42/159
f 60/49/160 64/46/161 41/45/162 44/71/163
f 41/45/164 42/47/165 45/51/166 44/71/167
f 62/52/168 63/48/169 38/82/170 46/67/171
f 38/82/172 37/83/173 43/54/174 46/67/175
f 44/70/176 45/75/177 49/8/178 48/7/179
f 46/66/180 43/73/181 47/55/182 50/56/183
f 47/55/184 58/57/185 56/58/186 50/56/187
f 53/59/188 51/60/189 55/61/190 57/62/191
f 48/7/192 54/6/193 60/69/194 44/50/195
f 52/5/196 51/60/197 53/59/198 54/6/199
f 55/61/200 56/58/201 58/57/202 57/62/203
f 62/65/204 46/53/205 50/56/206 56/58/207
f 59/72/208 58/57/209 47/55/210 43/74/211
f 53/59/212 57/62/213 59/72/214 60/69/215
f 51/60/216 52/5/217 61/68/218
f 51/60/219 61/68/220 62/65/221 55/61/222
f 53/59/223 60/69/224 54/6/225
f 59/72/226 57/62/227 58/57/228
f 55/61/229 62/65/230 56/58/231
f 49/8/232 45/76/233 61/68/234 52/5/235
f 42/47/236 63/48/237 61/64/238 45/51/239
f 61/64/240 63/48/241 62/52/242
f 37/83/243 64/46/244 59/63/245 43/54/246
f 59/63/247 64/46/248 60/49/249
f 29/34/250 38/43/251 33/94/252
f 30/33/253 37/42/254 38/43/255 29/34/256
