# This file uses centimeters as units for non-parametric coordinates.

v 0.049827 1.280183 -0.049827
v 0.000000 1.280183 -0.070466
v -0.049827 1.280183 -0.049827
v -0.070466 1.280183 0.000000
v -0.049827 1.280183 0.049827
v 0.000000 1.280183 0.070466
v 0.049827 1.280183 0.049827
v 0.070466 1.280183 0.000000
v 0.043151 1.331964 -0.043151
v 0.000000 1.331964 -0.061025
v -0.043151 1.331964 -0.043151
v -0.061025 1.331964 0.000000
v -0.043151 1.331964 0.043151
v 0.000000 1.331964 0.061025
v 0.043151 1.331964 0.043151
v 0.061025 1.331964 0.000000
v 0.024913 1.369870 -0.024913
v 0.000000 1.369870 -0.035233
v -0.024913 1.369870 -0.024913
v -0.035233 1.369870 0.000000
v -0.024913 1.369870 0.024913
v 0.000000 1.369870 0.035233
v 0.024913 1.369870 0.024913
v 0.035233 1.369870 0.000000
v 0.000000 1.383745 0.000000
v 0.049827 -0.000000 -0.049827
v 0.000000 -0.000000 -0.070466
v -0.049827 -0.000000 -0.049827
v -0.070466 -0.000000 0.000000
v -0.049827 -0.000000 0.049827
v 0.000000 -0.000000 0.070466
v 0.049827 -0.000000 0.049827
v 0.070466 -0.000000 0.000000
vt 0.295529 0.980559
vt 0.336018 0.980564
vt 0.398559 0.128324
vt 0.585563 0.100529
vt 0.052594 0.980531
vt 0.416525 0.099117
vt 0.093083 0.980536
vt 0.440753 0.076973
vt 0.133572 0.980540
vt 0.469871 0.063216
vt 0.174061 0.980545
vt 0.501559 0.058717
vt 0.214550 0.980550
vt 0.533141 0.063783
vt 0.255040 0.980554
vt 0.561922 0.078046
vt 0.434148 0.137925
vt 0.557542 0.120218
vt 0.444373 0.119878
vt 0.460180 0.105728
vt 0.479612 0.096665
vt 0.500913 0.093581
vt 0.522217 0.096781
vt 0.541682 0.105946
vt 0.520586 0.125497
vt 0.295639 0.019469
vt 0.336128 0.019474
vt 0.052704 0.019441
vt 0.093193 0.019446
vt 0.133683 0.019451
vt 0.174172 0.019455
vt 0.214661 0.019460
vt 0.255150 0.019465
vt 0.638183 0.109055
vt 0.012105 0.980526
vt 0.012215 0.019437
vt 0.583463 0.045092
vt 0.615095 0.074057
vt 0.544471 0.026140
vt 0.501484 0.019436
vt 0.458432 0.025712
vt 0.419301 0.044328
vt 0.387593 0.073003
vt 0.507603 0.121559
vt 0.494085 0.121522
vt 0.481171 0.125371
vt 0.470068 0.132678
vt 0.462469 0.142051
vt 0.539088 0.142062
vt 0.531769 0.132910
vt 0.567434 0.138296
vt 0.602661 0.129908
vt 0.364425 0.107095
vn 0.377367 0.166101 -0.911046
vn 0.377367 0.166101 -0.911046
vn 0.377367 0.166101 -0.911046
vn 0.377367 0.166101 -0.911046
vn -0.377368 0.166101 -0.911046
vn -0.377368 0.166101 -0.911046
vn -0.377367 0.166101 -0.911046
vn -0.377367 0.166101 -0.911046
vn -0.911046 0.166101 -0.377367
vn -0.911046 0.166101 -0.377367
vn -0.911046 0.166101 -0.377367
vn -0.911046 0.166101 -0.377367
vn -0.911046 0.166101 0.377367
vn -0.911046 0.166101 0.377367
vn -0.911046 0.166101 0.377367
vn -0.911046 0.166101 0.377367
vn -0.377367 0.166101 0.911046
vn -0.377367 0.166101 0.911046
vn -0.377367 0.166101 0.911046
vn -0.377367 0.166101 0.911046
vn 0.377368 0.166101 0.911046
vn 0.377367 0.166101 0.911046
vn 0.377367 0.166101 0.911046
vn 0.377367 0.166101 0.911046
vn 0.911046 0.166101 0.377368
vn 0.911046 0.166101 0.377368
vn 0.911046 0.166101 0.377368
vn 0.911046 0.166101 0.377368
vn 0.911046 0.166101 -0.377368
vn 0.911046 0.166101 -0.377368
vn 0.911046 0.166101 -0.377368
vn 0.911046 0.166101 -0.377368
vn 0.323985 0.532208 -0.782169
vn 0.323985 0.532208 -0.782169
vn 0.323985 0.532208 -0.782169
vn 0.323985 0.532208 -0.782169
vn -0.323985 0.532208 -0.782169
vn -0.323985 0.532208 -0.782169
vn -0.323985 0.532208 -0.782169
vn -0.323985 0.532208 -0.782169
vn -0.782169 0.532208 -0.323985
vn -0.782169 0.532208 -0.323985
vn -0.782169 0.532208 -0.323985
vn -0.782169 0.532208 -0.323985
vn -0.782169 0.532208 0.323985
vn -0.782169 0.532208 0.323985
vn -0.782169 0.532208 0.323985
vn -0.782169 0.532208 0.323985
vn -0.323985 0.532208 0.782169
vn -0.323985 0.532208 0.782169
vn -0.323985 0.532208 0.782169
vn -0.323985 0.532208 0.782169
vn 0.323985 0.532208 0.782169
vn 0.323985 0.532208 0.782169
vn 0.323985 0.532208 0.782169
vn 0.323985 0.532208 0.782169
vn 0.782169 0.532208 0.323985
vn 0.782169 0.532208 0.323985
vn 0.782169 0.532208 0.323985
vn 0.782169 0.532208 0.323985
vn 0.782169 0.532208 -0.323985
vn 0.782169 0.532208 -0.323985
vn 0.782169 0.532208 -0.323985
vn 0.782169 0.532208 -0.323985
vn 0.150054 0.919919 -0.362262
vn 0.150054 0.919919 -0.362262
vn 0.150054 0.919919 -0.362262
vn -0.150054 0.919919 -0.362262
vn -0.150054 0.919919 -0.362262
vn -0.150054 0.919919 -0.362262
vn -0.362262 0.919919 -0.150053
vn -0.362262 0.919919 -0.150053
vn -0.362262 0.919919 -0.150053
vn -0.362262 0.919919 0.150053
vn -0.362262 0.919919 0.150053
vn -0.362262 0.919919 0.150053
vn -0.150054 0.919919 0.362262
vn -0.150054 0.919919 0.362262
vn -0.150054 0.919919 0.362262
vn 0.150054 0.919919 0.362262
vn 0.150054 0.919919 0.362262
vn 0.150054 0.919919 0.362262
vn 0.362262 0.919919 0.150053
vn 0.362262 0.919919 0.150053
vn 0.362262 0.919919 0.150053
vn 0.362262 0.919918 -0.150055
vn 0.362262 0.919918 -0.150055
vn 0.362262 0.919918 -0.150055
vn 0.382683 0.000000 -0.923880
vn 0.382683 0.000000 -0.923880
vn 0.382683 0.000000 -0.923880
vn 0.382683 0.000000 -0.923880
vn -0.382683 0.000000 -0.923880
vn -0.382683 0.000000 -0.923880
vn -0.382683 0.000000 -0.923880
vn -0.382683 0.000000 -0.923880
vn -0.923880 0.000000 -0.382683
vn -0.923880 0.000000 -0.382683
vn -0.923880 0.000000 -0.382683
vn -0.923880 0.000000 -0.382683
vn -0.923880 0.000000 0.382683
vn -0.923880 0.000000 0.382683
vn -0.923880 0.000000 0.382683
vn -0.923880 0.000000 0.382683
vn -0.382683 0.000000 0.923880
vn -0.382683 0.000000 0.923880
vn -0.382683 0.000000 0.923880
vn -0.382683 0.000000 0.923880
vn 0.382683 0.000000 0.923880
vn 0.382683 0.000000 0.923880
vn 0.382683 0.000000 0.923880
vn 0.382683 0.000000 0.923880
vn 0.923880 0.000000 0.382683
vn 0.923880 0.000000 0.382683
vn 0.923880 0.000000 0.382683
vn 0.923880 0.000000 0.382683
vn 0.923880 0.000000 -0.382684
vn 0.923880 0.000000 -0.382684
vn 0.923880 0.000000 -0.382684
vn 0.923880 0.000000 -0.382684
f 1/38/1 2/34/2 10/52/3 9/4/4
f 2/53/5 3/43/6 11/6/7 10/3/8
f 3/43/9 4/42/10 12/8/11 11/6/12
f 4/42/13 5/41/14 13/10/15 12/8/16
f 5/41/17 6/40/18 14/12/19 13/10/20
f 6/40/21 7/39/22 15/14/23 14/12/24
f 7/39/25 8/37/26 16/16/27 15/14/28
f 8/37/29 1/38/30 9/4/31 16/16/32
f 9/4/33 10/52/34 18/51/35 17/18/36
f 10/3/37 11/6/38 19/19/39 18/17/40
f 11/6/41 12/8/42 20/20/43 19/19/44
f 12/8/45 13/10/46 21/21/47 20/20/48
f 13/10/49 14/12/50 22/22/51 21/21/52
f 14/12/53 15/14/54 23/23/55 22/22/56
f 15/14/57 16/16/58 24/24/59 23/23/60
f 16/16/61 9/4/62 17/18/63 24/24/64
f 17/18/65 18/51/66 25/49/67
f 18/17/68 19/19/69 25/48/70
f 19/19/71 20/20/72 25/47/73
f 20/20/74 21/21/75 25/46/76
f 21/21/77 22/22/78 25/45/79
f 22/22/80 23/23/81 25/44/82
f 23/23/83 24/24/84 25/25/85
f 24/24/86 17/18/87 25/50/88
f 2/2/89 1/1/90 26/26/91 27/27/92
f 3/5/93 2/35/94 27/36/95 28/28/96
f 4/7/97 3/5/98 28/28/99 29/29/100
f 5/9/101 4/7/102 29/29/103 30/30/104
f 6/11/105 5/9/106 30/30/107 31/31/108
f 7/13/109 6/11/110 31/31/111 32/32/112
f 8/15/113 7/13/114 32/32/115 33/33/116
f 1/1/117 8/15/118 33/33/119 26/26/120
