# This file uses meters as units for non-parametric coordinates.

v 0.652377 0.533981 -1.129950
v -0.652377 0.533981 -1.129950
v -1.304754 0.533981 0.000000
v -0.652377 0.533981 1.129950
v 0.652377 0.533981 1.129950
v 1.304754 0.533981 0.000000
v -0.326189 0.533981 0.564975
v 0.326189 0.533981 0.564975
v 0.652377 0.533981 0.000000
v 0.326189 0.533981 -0.564975
v -0.326189 0.533981 -0.564975
v -0.652377 0.533981 0.000000
v 0.652377 -0.533984 -1.129950
v -0.652377 -0.533984 -1.129950
v -1.304754 -0.532630 0.000000
v -0.652377 -0.532630 1.129950
v 0.652377 -0.533984 1.129950
v 1.304754 -0.533984 0.000000
v -0.326189 -0.532630 0.564975
v 0.326189 -0.533984 0.564975
v 0.652377 -0.533984 0.000000
v 0.326189 -0.533984 -0.564975
v -0.326189 -0.533984 -0.564975
v -0.652377 -0.532630 0.000000
vt 0.665759 0.279113
vt 0.831415 0.278862
vt 0.790110 0.350656
vt 0.707282 0.350782
vt 0.997071 0.278611
vt 0.955766 0.350405
vt 0.872938 0.350531
vt 0.003134 0.280117
vt 0.168790 0.279866
vt 0.127485 0.351660
vt 0.044657 0.351786
vt 0.334447 0.279615
vt 0.293141 0.351409
vt 0.210313 0.351535
vt 0.500103 0.279364
vt 0.458797 0.351158
vt 0.375969 0.351284
vt 0.624453 0.350907
vt 0.541625 0.351033
vt 0.636678 0.486418
vt 0.553850 0.486472
vt 0.553761 0.351051
vt 0.636590 0.350997
vt 0.665554 0.143692
vt 0.706859 0.071898
vt 0.789687 0.071773
vt 0.831210 0.143441
vt 0.872441 0.071605
vt 0.955269 0.071393
vt 0.996866 0.143018
vt 0.002929 0.144524
vt 0.044234 0.072731
vt 0.127062 0.072605
vt 0.168585 0.144273
vt 0.209890 0.072479
vt 0.292718 0.072354
vt 0.334241 0.144022
vt 0.375546 0.072229
vt 0.458375 0.072103
vt 0.499897 0.143771
vt 0.541277 0.072020
vt 0.624105 0.071981
vt 0.719506 0.486364
vt 0.719418 0.350771
vt 0.802246 0.350717
vt 0.802334 0.486310
vt 0.471022 0.486526
vt 0.470933 0.350934
vt 0.885163 0.486256
vt 0.885074 0.350663
vt 0.967902 0.350609
vt 0.967991 0.486202
vn 0.000000 1.000000 -0.000000
vn 0.000000 1.000000 -0.000000
vn 0.000000 1.000000 -0.000000
vn 0.000000 1.000000 -0.000000
vn 0.000000 1.000000 0.000000
vn 0.000000 1.000000 0.000000
vn 0.000000 1.000000 0.000000
vn 0.000000 1.000000 0.000000
vn 0.000000 1.000000 0.000000
vn 0.000000 1.000000 0.000000
vn 0.000000 1.000000 0.000000
vn 0.000000 1.000000 0.000000
vn 0.000000 1.000000 0.000000
vn 0.000000 1.000000 0.000000
vn 0.000000 1.000000 0.000000
vn 0.000000 1.000000 0.000000
vn 0.000000 1.000000 -0.000000
vn 0.000000 1.000000 -0.000000
vn 0.000000 1.000000 -0.000000
vn 0.000000 1.000000 -0.000000
vn 0.000000 1.000000 0.000000
vn 0.000000 1.000000 0.000000
vn 0.000000 1.000000 0.000000
vn 0.000000 1.000000 0.000000
vn 0.866026 0.000000 -0.499999
vn 0.866026 0.000000 -0.499999
vn 0.866026 0.000000 -0.499999
vn 0.866026 0.000000 -0.499999
vn 0.000000 -1.000000 0.000000
vn 0.000000 -1.000000 0.000000
vn 0.000000 -1.000000 0.000000
vn 0.000000 -1.000000 0.000000
vn -0.001384 -0.999999 0.000000
vn -0.001384 -0.999999 0.000000
vn -0.001384 -0.999999 0.000000
vn -0.001384 -0.999999 0.000000
vn 0.000000 -1.000000 0.000000
vn 0.000000 -1.000000 0.000000
vn 0.000000 -1.000000 0.000000
vn 0.000000 -1.000000 0.000000
vn 0.000000 -1.000000 0.000000
vn 0.000000 -1.000000 0.000000
vn 0.000000 -1.000000 0.000000
vn 0.000000 -1.000000 0.000000
vn 0.000000 -1.000000 0.000000
vn 0.000000 -1.000000 0.000000
vn 0.000000 -1.000000 0.000000
vn 0.000000 -1.000000 0.000000
vn -0.000692 -0.999999 0.001198
vn -0.000692 -0.999999 0.001198
vn -0.000692 -0.999999 0.001198
vn -0.000692 -0.999999 0.001198
vn 0.866025 0.000000 -0.500000
vn 0.866025 0.000000 -0.500000
vn 0.866025 0.000000 -0.500000
vn 0.866025 0.000000 -0.500000
vn 0.866025 0.000000 0.500000
vn 0.866025 0.000000 0.500000
vn 0.866025 0.000000 0.500000
vn 0.866025 0.000000 0.500000
vn 0.000000 0.000000 1.000000
vn 0.000000 0.000000 1.000000
vn 0.000000 0.000000 1.000000
vn 0.000000 0.000000 1.000000
vn -0.866025 0.000000 0.500000
vn -0.866025 0.000000 0.500000
vn -0.866025 0.000000 0.500000
vn -0.866025 0.000000 0.500000
vn -0.866025 0.000000 -0.500000
vn -0.866025 0.000000 -0.500000
vn -0.866025 0.000000 -0.500000
vn -0.866025 0.000000 -0.500000
vn 0.000000 0.000000 -1.000000
vn 0.000000 0.000000 -1.000000
vn 0.000000 0.000000 -1.000000
vn 0.000000 0.000000 -1.000000
vn 0.000000 0.000000 1.000000
vn 0.000000 0.000000 1.000000
vn 0.000000 0.000000 1.000000
vn 0.000000 0.000000 1.000000
vn 0.866026 0.000000 0.499999
vn 0.866026 0.000000 0.499999
vn 0.866026 0.000000 0.499999
vn 0.866026 0.000000 0.499999
vn 0.000000 0.000000 -1.000000
vn 0.000000 0.000000 -1.000000
vn 0.000000 0.000000 -1.000000
vn 0.000000 0.000000 -1.000000
vn -0.866026 0.000000 -0.499999
vn -0.866026 0.000000 -0.499999
vn -0.866026 0.000000 -0.499999
vn -0.866026 0.000000 -0.499999
vn -0.866026 0.000000 0.499999
vn -0.866026 0.000000 0.499999
vn -0.866026 0.000000 0.499999
vn -0.866026 0.000000 0.499999
f 3/1/1 4/2/2 7/3/3 12/4/4
f 4/2/5 5/5/6 8/6/7 7/7/8
f 5/8/9 6/9/10 9/10/11 8/11/12
f 6/9/13 1/12/14 10/13/15 9/14/16
f 1/12/17 2/15/18 11/16/19 10/17/20
f 2/15/21 3/1/22 12/18/23 11/19/24
f 12/20/25 7/21/26 19/22/27 24/23/28
f 15/24/29 24/25/30 19/26/31 16/27/32
f 16/27/33 19/28/34 20/29/35 17/30/36
f 17/31/37 20/32/38 21/33/39 18/34/40
f 18/34/41 21/35/42 22/36/43 13/37/44
f 13/37/45 22/38/46 23/39/47 14/40/48
f 14/40/49 23/41/50 24/42/51 15/24/52
f 13/37/53 1/12/54 6/9/55 18/34/56
f 6/9/57 5/8/58 17/31/59 18/34/60
f 5/5/61 4/2/62 16/27/63 17/30/64
f 4/2/65 3/1/66 15/24/67 16/27/68
f 3/1/69 2/15/70 14/40/71 15/24/72
f 2/15/73 1/12/74 13/37/75 14/40/76
f 11/43/77 23/44/78 22/45/79 10/46/80
f 12/20/81 24/23/82 23/44/83 11/43/84
f 8/47/85 20/48/86 19/22/87 7/21/88
f 9/49/89 21/50/90 20/51/91 8/52/92
f 10/46/93 22/45/94 21/50/95 9/49/96
v 0.652377 0.533981 -1.129950
v -0.652377 0.533981 -1.129950
v -1.304754 0.533981 0.000000
v -0.652377 0.533981 1.129950
v 0.652377 0.533981 1.129950
v 1.304754 0.533981 0.000000
v -0.326189 0.533981 0.564975
v 0.326189 0.533981 0.564975
v 0.652377 0.533981 0.000000
v 0.326189 0.533981 -0.564975
v -0.326189 0.533981 -0.564975
v -0.652377 0.533981 0.000000
v 0.652377 -0.533984 -1.129950
v -0.652377 -0.533984 -1.129950
v -1.304754 -0.532630 0.000000
v -0.652377 -0.532630 1.129950
v 0.652377 -0.533984 1.129950
v 1.304754 -0.533984 0.000000
v -0.326189 -0.532630 0.564975
v 0.326189 -0.533984 0.564975
v 0.652377 -0.533984 0.000000
v 0.326189 -0.533984 -0.564975
v -0.326189 -0.533984 -0.564975
v -0.652377 -0.532630 0.000000
vt 0.665759 0.279113
vt 0.831415 0.278862
vt 0.790110 0.350656
vt 0.707282 0.350782
vt 0.997071 0.278611
vt 0.955766 0.350405
vt 0.872938 0.350531
vt 0.003134 0.280117
vt 0.168790 0.279866
vt 0.127485 0.351660
vt 0.044657 0.351786
vt 0.334447 0.279615
vt 0.293141 0.351409
vt 0.210313 0.351535
vt 0.500103 0.279364
vt 0.458797 0.351158
vt 0.375969 0.351284
vt 0.624453 0.350907
vt 0.541625 0.351033
vt 0.636678 0.486418
vt 0.553850 0.486472
vt 0.553761 0.351051
vt 0.636590 0.350997
vt 0.665554 0.143692
vt 0.706859 0.071898
vt 0.789687 0.071773
vt 0.831210 0.143441
vt 0.872441 0.071605
vt 0.955269 0.071393
vt 0.996866 0.143018
vt 0.002929 0.144524
vt 0.044234 0.072731
vt 0.127062 0.072605
vt 0.168585 0.144273
vt 0.209890 0.072479
vt 0.292718 0.072354
vt 0.334241 0.144022
vt 0.375546 0.072229
vt 0.458375 0.072103
vt 0.499897 0.143771
vt 0.541277 0.072020
vt 0.624105 0.071981
vt 0.719506 0.486364
vt 0.719418 0.350771
vt 0.802246 0.350717
vt 0.802334 0.486310
vt 0.471022 0.486526
vt 0.470933 0.350934
vt 0.885163 0.486256
vt 0.885074 0.350663
vt 0.967902 0.350609
vt 0.967991 0.486202
vn 0.000000 1.000000 -0.000000
vn 0.000000 1.000000 -0.000000
vn 0.000000 1.000000 -0.000000
vn 0.000000 1.000000 -0.000000
vn 0.000000 1.000000 0.000000
vn 0.000000 1.000000 0.000000
vn 0.000000 1.000000 0.000000
vn 0.000000 1.000000 0.000000
vn 0.000000 1.000000 0.000000
vn 0.000000 1.000000 0.000000
vn 0.000000 1.000000 0.000000
vn 0.000000 1.000000 0.000000
vn 0.000000 1.000000 0.000000
vn 0.000000 1.000000 0.000000
vn 0.000000 1.000000 0.000000
vn 0.000000 1.000000 0.000000
vn 0.000000 1.000000 -0.000000
vn 0.000000 1.000000 -0.000000
vn 0.000000 1.000000 -0.000000
vn 0.000000 1.000000 -0.000000
vn 0.000000 1.000000 0.000000
vn 0.000000 1.000000 0.000000
vn 0.000000 1.000000 0.000000
vn 0.000000 1.000000 0.000000
vn 0.866026 0.000000 -0.499999
vn 0.866026 0.000000 -0.499999
vn 0.866026 0.000000 -0.499999
vn 0.866026 0.000000 -0.499999
vn 0.000000 -1.000000 0.000000
vn 0.000000 -1.000000 0.000000
vn 0.000000 -1.000000 0.000000
vn 0.000000 -1.000000 0.000000
vn -0.001384 -0.999999 0.000000
vn -0.001384 -0.999999 0.000000
vn -0.001384 -0.999999 0.000000
vn -0.001384 -0.999999 0.000000
vn 0.000000 -1.000000 0.000000
vn 0.000000 -1.000000 0.000000
vn 0.000000 -1.000000 0.000000
vn 0.000000 -1.000000 0.000000
vn 0.000000 -1.000000 0.000000
vn 0.000000 -1.000000 0.000000
vn 0.000000 -1.000000 0.000000
vn 0.000000 -1.000000 0.000000
vn 0.000000 -1.000000 0.000000
vn 0.000000 -1.000000 0.000000
vn 0.000000 -1.000000 0.000000
vn 0.000000 -1.000000 0.000000
vn -0.000692 -0.999999 0.001198
vn -0.000692 -0.999999 0.001198
vn -0.000692 -0.999999 0.001198
vn -0.000692 -0.999999 0.001198
vn 0.866025 0.000000 -0.500000
vn 0.866025 0.000000 -0.500000
vn 0.866025 0.000000 -0.500000
vn 0.866025 0.000000 -0.500000
vn 0.866025 0.000000 0.500000
vn 0.866025 0.000000 0.500000
vn 0.866025 0.000000 0.500000
vn 0.866025 0.000000 0.500000
vn 0.000000 0.000000 1.000000
vn 0.000000 0.000000 1.000000
vn 0.000000 0.000000 1.000000
vn 0.000000 0.000000 1.000000
vn -0.866025 0.000000 0.500000
vn -0.866025 0.000000 0.500000
vn -0.866025 0.000000 0.500000
vn -0.866025 0.000000 0.500000
vn -0.866025 0.000000 -0.500000
vn -0.866025 0.000000 -0.500000
vn -0.866025 0.000000 -0.500000
vn -0.866025 0.000000 -0.500000
vn 0.000000 0.000000 -1.000000
vn 0.000000 0.000000 -1.000000
vn 0.000000 0.000000 -1.000000
vn 0.000000 0.000000 -1.000000
vn 0.000000 0.000000 1.000000
vn 0.000000 0.000000 1.000000
vn 0.000000 0.000000 1.000000
vn 0.000000 0.000000 1.000000
vn 0.866026 0.000000 0.499999
vn 0.866026 0.000000 0.499999
vn 0.866026 0.000000 0.499999
vn 0.866026 0.000000 0.499999
vn 0.000000 0.000000 -1.000000
vn 0.000000 0.000000 -1.000000
vn 0.000000 0.000000 -1.000000
vn 0.000000 0.000000 -1.000000
vn -0.866026 0.000000 -0.499999
vn -0.866026 0.000000 -0.499999
vn -0.866026 0.000000 -0.499999
vn -0.866026 0.000000 -0.499999
vn -0.866026 0.000000 0.499999
vn -0.866026 0.000000 0.499999
vn -0.866026 0.000000 0.499999
vn -0.866026 0.000000 0.499999
f 27/53/97 28/54/98 31/55/99 36/56/100
f 28/54/101 29/57/102 32/58/103 31/59/104
f 29/60/105 30/61/106 33/62/107 32/63/108
f 30/61/109 25/64/110 34/65/111 33/66/112
f 25/64/113 26/67/114 35/68/115 34/69/116
f 26/67/117 27/53/118 36/70/119 35/71/120
f 36/72/121 31/73/122 43/74/123 48/75/124
f 39/76/125 48/77/126 43/78/127 40/79/128
f 40/79/129 43/80/130 44/81/131 41/82/132
f 41/83/133 44/84/134 45/85/135 42/86/136
f 42/86/137 45/87/138 46/88/139 37/89/140
f 37/89/141 46/90/142 47/91/143 38/92/144
f 38/92/145 47/93/146 48/94/147 39/76/148
f 37/89/149 25/64/150 30/61/151 42/86/152
f 30/61/153 29/60/154 41/83/155 42/86/156
f 29/57/157 28/54/158 40/79/159 41/82/160
f 28/54/161 27/53/162 39/76/163 40/79/164
f 27/53/165 26/67/166 38/92/167 39/76/168
f 26/67/169 25/64/170 37/89/171 38/92/172
f 35/95/173 47/96/174 46/97/175 34/98/176
f 36/72/177 48/75/178 47/96/179 35/95/180
f 32/99/181 44/100/182 43/74/183 31/73/184
f 33/101/185 45/102/186 44/103/187 32/104/188
f 34/98/189 46/97/190 45/102/191 33/101/192
