# This file uses centimeters as units for non-parametric coordinates.

mtllib M_ParkBlock_Unwrapped.mtl
g default
v -1.387543 -0.000000 2.436461
v 1.100782 -0.000000 2.436461
v -1.344995 0.183698 2.375522
v 1.058234 0.183698 2.375522
v -1.344995 0.183698 2.219352
v 1.058234 0.183698 2.219352
v -1.387543 -0.000000 2.158413
v 1.100782 -0.000000 2.158413
v -1.387543 0.091849 2.436461
v -1.387543 0.091849 2.158413
v 1.100782 0.091849 2.158413
v 1.100782 0.091849 2.436461
vt 0.433672 0.978296
vt 0.385249 0.073329
vt 0.416747 0.073328
vt 0.416768 0.926675
vt 0.454569 0.912082
vt 0.454549 0.087919
vt 0.508106 0.087918
vt 0.508126 0.912081
vt 0.545927 0.926672
vt 0.529003 0.053203
vt 0.529002 0.021704
vt 0.577426 0.926671
vt 0.433649 0.053205
vt 0.545906 0.073325
vt 0.577405 0.073325
vt 0.529025 0.946795
vt 0.529026 0.978293
vt 0.433671 0.946797
vt 0.433649 0.021707
vt 0.385270 0.926675
vn 0.000000 0.000000 1.000000
vn 0.000000 0.000000 1.000000
vn 0.000000 0.273963 0.961740
vn 0.000000 0.273963 0.961740
vn 0.000000 1.000000 0.000000
vn 0.000000 1.000000 0.000000
vn 0.000000 1.000000 0.000000
vn 0.000000 1.000000 0.000000
vn 0.000000 0.273962 -0.961740
vn 0.000000 0.273962 -0.961740
vn 0.000000 0.000000 -1.000000
vn 0.000000 0.000000 -1.000000
vn 1.000000 0.000000 0.000000
vn 1.000000 0.000000 0.000000
vn 0.987936 0.154862 0.000000
vn 0.987936 0.154862 0.000000
vn -1.000000 0.000000 0.000000
vn -1.000000 0.000000 0.000000
vn -0.987936 0.154862 0.000000
vn -0.987936 0.154862 0.000000
vn -0.907372 0.420328 0.000000
vn -0.907372 0.420328 0.000000
vn 0.000000 0.552854 -0.833278
vn 0.000000 0.552854 -0.833278
vn 0.907372 0.420328 0.000000
vn 0.907372 0.420328 0.000000
vn 0.000000 0.552854 0.833278
vn 0.000000 0.552854 0.833278
g M_ParkBlock_Unwrapped
usemtl initialShadingGroup
f 1/20/1 2/2/2 12/3/3 9/4/4
f 3/5/5 4/6/6 6/7/7 5/8/8
f 10/9/9 11/14/10 8/15/11 7/12/12
f 2/19/13 8/11/14 11/10/15 12/13/16
f 7/17/17 1/1/18 9/18/19 10/16/20
f 10/16/20 9/18/19 3/5/21 5/8/22
f 5/8/23 6/7/24 11/14/10 10/9/9
f 12/13/16 11/10/15 6/7/25 4/6/26
f 9/4/4 12/3/3 4/6/27 3/5/28
