# This file uses centimeters as units for non-parametric coordinates.

v 0.020901 0.040955 0.075410
v -0.013027 0.040955 0.075410
v -0.037018 0.016964 0.075410
v -0.037018 -0.016964 0.075410
v -0.013027 -0.040955 0.075410
v 0.020901 -0.040955 0.075410
v 0.044892 -0.016964 0.075410
v 0.044892 0.016964 0.075410
v 0.023015 0.046059 0.092941
v -0.015141 0.046059 0.092941
v -0.042122 0.019078 0.092941
v -0.042122 -0.019078 0.092941
v -0.015141 -0.046059 0.092941
v 0.023015 -0.046059 0.092941
v 0.049995 -0.019078 0.092941
v 0.049995 0.019078 0.092941
v 0.028141 0.058434 0.075410
v -0.020267 0.058434 0.075410
v -0.020267 0.058434 0.092941
v 0.028141 0.058434 0.092941
v -0.054497 0.024204 0.075410
v -0.054497 0.024204 0.092941
v -0.054497 -0.024204 0.075410
v -0.054497 -0.024204 0.092941
v -0.020267 -0.058434 0.075410
v -0.020267 -0.058434 0.092941
v 0.028141 -0.058434 0.075410
v 0.028141 -0.058434 0.092941
v 0.062371 -0.024204 0.075410
v 0.062371 -0.024204 0.092941
v 0.062371 0.024204 0.075410
v 0.062371 0.024204 0.092941
v 0.020901 0.080611 -0.029970
v -0.013027 0.080611 -0.029970
v -0.037018 0.063647 -0.046934
v -0.037018 0.039656 -0.070925
v -0.013027 0.022692 -0.087889
v 0.020901 0.022692 -0.087889
v 0.044892 0.039656 -0.070925
v 0.044892 0.063647 -0.046934
v 0.023015 0.096615 -0.038757
v -0.015141 0.096615 -0.038757
v -0.042122 0.077537 -0.057835
v -0.042122 0.050557 -0.084816
v -0.015141 0.031479 -0.103894
v 0.023015 0.031479 -0.103894
v 0.049995 0.050557 -0.084816
v 0.049995 0.077537 -0.057835
v 0.028141 0.092970 -0.017611
v -0.020267 0.092970 -0.017611
v -0.020267 0.105366 -0.030006
v 0.028141 0.105366 -0.030006
v -0.054497 0.068766 -0.041815
v -0.054497 0.081162 -0.054210
v -0.054497 0.034536 -0.076044
v -0.054497 0.046932 -0.088440
v -0.020267 0.010332 -0.100248
v -0.020267 0.022728 -0.112644
v 0.028141 0.010332 -0.100248
v 0.028141 0.022728 -0.112644
v 0.062371 0.034536 -0.076044
v 0.062371 0.046932 -0.088440
v 0.062371 0.068766 -0.041815
v 0.062371 0.081162 -0.054210
v 0.020901 0.040955 0.023649
v 0.020901 0.047705 0.006196
v -0.013027 0.040955 0.023649
v -0.013027 0.047705 0.006196
v 0.044892 0.018578 0.015453
v 0.044892 0.026410 -0.004437
v 0.044892 -0.015511 0.015162
v 0.044892 0.001807 -0.030047
v 0.020901 -0.039643 0.015644
v 0.020901 -0.017060 -0.047163
v -0.013027 -0.039645 0.015640
v -0.013027 -0.017057 -0.047161
v -0.037018 -0.015633 0.016233
v -0.037018 0.000705 -0.029497
v -0.037018 0.018584 0.015460
v -0.037018 0.026408 -0.004442
vt 0.054986 0.845077
vt 0.039021 0.861036
vt 0.030846 0.861035
vt 0.054988 0.836902
vt 0.039017 0.883610
vt 0.033235 0.889390
vt 0.054976 0.899576
vt 0.054975 0.907751
vt 0.077550 0.899580
vt 0.083330 0.905361
vt 0.093516 0.883620
vt 0.101691 0.883622
vt 0.093520 0.861046
vt 0.099302 0.855267
vt 0.077560 0.845081
vt 0.077562 0.836906
vt 0.376381 0.306355
vt 0.378330 0.322005
vt 0.025075 0.863424
vt 0.043436 0.836904
vt 0.373129 0.206543
vt 0.030844 0.895160
vt 0.368781 0.222835
vt 0.057364 0.913522
vt 0.366041 0.240141
vt 0.089100 0.907753
vt 0.366325 0.257795
vt 0.107462 0.881233
vt 0.368823 0.275040
vt 0.101693 0.849496
vt 0.373035 0.291119
vt 0.075173 0.831135
vt 0.927149 0.638264
vt 0.921369 0.644045
vt 0.918974 0.615690
vt 0.927149 0.615690
vt 0.937331 0.593947
vt 0.943112 0.599728
vt 0.965686 0.591553
vt 0.965686 0.599728
vt 0.987429 0.609910
vt 0.981648 0.615690
vt 0.989823 0.638264
vt 0.981648 0.638264
vt 0.971466 0.660008
vt 0.965686 0.654227
vt 0.943112 0.662402
vt 0.943112 0.654227
vt 0.434194 0.306638
vt 0.434097 0.190924
vt 0.913203 0.618081
vt 0.918978 0.649816
vt 0.438828 0.206393
vt 0.931560 0.591557
vt 0.444033 0.222664
vt 0.963295 0.585782
vt 0.447264 0.240232
vt 0.989819 0.604139
vt 0.446990 0.258257
vt 0.995594 0.635874
vt 0.443375 0.275391
vt 0.977237 0.662398
vt 0.438436 0.291541
vt 0.945502 0.668173
vt 0.401193 0.302653
vt 0.410806 0.302761
vt 0.409851 0.318771
vt 0.401519 0.196216
vt 0.411805 0.286818
vt 0.401336 0.286576
vt 0.411992 0.211698
vt 0.401487 0.211959
vt 0.396463 0.271555
vt 0.392733 0.256713
vt 0.392838 0.241551
vt 0.395992 0.226710
vt 0.418381 0.271751
vt 0.421802 0.256533
vt 0.421850 0.241719
vt 0.417958 0.226944
vt 0.410962 0.196052
vt 0.935300 0.619067
vt 0.432109 0.322273
vt 0.047171 0.864414
vt 0.377115 0.190942
vt 0.401861 0.318463
vt 0.946488 0.646076
vt 0.935300 0.634888
vt 0.931560 0.662398
vt 0.937331 0.660008
vt 0.962310 0.646076
vt 0.963295 0.668173
vt 0.965686 0.662402
vt 0.973497 0.634888
vt 0.989819 0.649816
vt 0.987429 0.644045
vt 0.973497 0.619067
vt 0.995594 0.618081
vt 0.989823 0.615690
vt 0.962310 0.607879
vt 0.977237 0.591557
vt 0.971466 0.593947
vt 0.946488 0.607879
vt 0.945502 0.585782
vt 0.943112 0.591553
vt 0.918978 0.604139
vt 0.921369 0.609910
vt 0.913203 0.635874
vt 0.918974 0.638264
vt 0.083342 0.839301
vt 0.089114 0.836912
vt 0.101695 0.861048
vt 0.107465 0.863439
vt 0.099295 0.889402
vt 0.101685 0.895173
vt 0.077549 0.907755
vt 0.075157 0.913525
vt 0.049194 0.905355
vt 0.043423 0.907744
vt 0.030842 0.883609
vt 0.025071 0.881217
vt 0.049207 0.839295
vt 0.057379 0.831131
vt 0.033241 0.855255
vt 0.030852 0.849483
vt 0.074183 0.853231
vt 0.058361 0.853228
vt 0.085368 0.864421
vt 0.085365 0.880243
vt 0.074176 0.891428
vt 0.058354 0.891425
vt 0.047168 0.880236
vn -0.000000 1.000000 0.000000
vn -0.000000 1.000000 0.000000
vn -0.000000 1.000000 0.000000
vn -0.000000 1.000000 0.000000
vn -0.707107 0.707106 0.000000
vn -0.707107 0.707106 0.000000
vn -0.707107 0.707106 0.000000
vn -0.707107 0.707106 0.000000
vn -1.000000 0.000000 0.000000
vn -1.000000 0.000000 0.000000
vn -1.000000 0.000000 0.000000
vn -1.000000 0.000000 0.000000
vn -0.707107 -0.707107 0.000000
vn -0.707107 -0.707107 0.000000
vn -0.707107 -0.707107 0.000000
vn -0.707107 -0.707107 0.000000
vn -0.000001 -1.000000 0.000000
vn -0.000001 -1.000000 0.000000
vn -0.000001 -1.000000 0.000000
vn -0.000001 -1.000000 0.000000
vn 0.707107 -0.707107 0.000000
vn 0.707107 -0.707107 0.000000
vn 0.707107 -0.707107 0.000000
vn 0.707107 -0.707107 0.000000
vn 1.000000 0.000000 0.000000
vn 1.000000 0.000000 0.000000
vn 1.000000 0.000000 0.000000
vn 1.000000 0.000000 0.000000
vn 0.707106 0.707107 0.000000
vn 0.707106 0.707107 0.000000
vn 0.707106 0.707107 0.000000
vn 0.707106 0.707107 0.000000
vn 0.000000 -0.000010 -1.000000
vn 0.000000 -0.000010 -1.000000
vn 0.000000 -0.000010 -1.000000
vn 0.000000 -0.000010 -1.000000
vn -0.000000 0.000000 1.000000
vn -0.000000 0.000000 1.000000
vn -0.000000 0.000000 1.000000
vn -0.000000 0.000000 1.000000
vn 0.000007 -0.000006 -1.000000
vn 0.000007 -0.000006 -1.000000
vn 0.000007 -0.000006 -1.000000
vn 0.000007 -0.000006 -1.000000
vn -0.000000 0.000001 1.000000
vn -0.000000 0.000001 1.000000
vn -0.000000 0.000001 1.000000
vn -0.000000 0.000001 1.000000
vn 0.000010 -0.000000 -1.000000
vn 0.000010 -0.000000 -1.000000
vn 0.000010 -0.000000 -1.000000
vn 0.000010 -0.000000 -1.000000
vn 0.000000 0.000000 1.000000
vn 0.000000 0.000000 1.000000
vn 0.000000 0.000000 1.000000
vn 0.000000 0.000000 1.000000
vn 0.000007 0.000007 -1.000000
vn 0.000007 0.000007 -1.000000
vn 0.000007 0.000007 -1.000000
vn 0.000007 0.000007 -1.000000
vn -0.000000 0.000000 1.000000
vn -0.000000 0.000000 1.000000
vn -0.000000 0.000000 1.000000
vn -0.000000 0.000000 1.000000
vn -0.000000 0.000010 -1.000000
vn -0.000000 0.000010 -1.000000
vn -0.000000 0.000010 -1.000000
vn -0.000000 0.000010 -1.000000
vn 0.000000 -0.000000 1.000000
vn 0.000000 -0.000000 1.000000
vn 0.000000 -0.000000 1.000000
vn 0.000000 -0.000000 1.000000
vn -0.000007 0.000007 -1.000000
vn -0.000007 0.000007 -1.000000
vn -0.000007 0.000007 -1.000000
vn -0.000007 0.000007 -1.000000
vn 0.000000 0.000000 1.000000
vn 0.000000 0.000000 1.000000
vn 0.000000 0.000000 1.000000
vn 0.000000 0.000000 1.000000
vn -0.000010 0.000000 -1.000000
vn -0.000010 0.000000 -1.000000
vn -0.000010 0.000000 -1.000000
vn -0.000010 0.000000 -1.000000
vn -0.000000 0.000000 1.000000
vn -0.000000 0.000000 1.000000
vn -0.000000 0.000000 1.000000
vn -0.000000 0.000000 1.000000
vn -0.000007 -0.000007 -1.000000
vn -0.000007 -0.000007 -1.000000
vn -0.000007 -0.000007 -1.000000
vn -0.000007 -0.000007 -1.000000
vn 0.000000 0.000000 1.000000
vn 0.000000 0.000000 1.000000
vn 0.000000 0.000000 1.000000
vn 0.000000 0.000000 1.000000
vn -0.000000 0.707105 0.707108
vn -0.000000 0.707105 0.707108
vn -0.000000 0.707105 0.707108
vn -0.000000 0.707105 0.707108
vn -0.707107 0.500000 0.500000
vn -0.707107 0.500000 0.500000
vn -0.707107 0.500000 0.500000
vn -0.707107 0.500000 0.500000
vn -1.000000 -0.000000 0.000000
vn -1.000000 -0.000000 0.000000
vn -1.000000 -0.000000 0.000000
vn -1.000000 -0.000000 0.000000
vn -0.707107 -0.500001 -0.500000
vn -0.707107 -0.500001 -0.500000
vn -0.707107 -0.500001 -0.499999
vn -0.707107 -0.500001 -0.499999
vn -0.000001 -0.707108 -0.707105
vn -0.000001 -0.707108 -0.707105
vn -0.000001 -0.707108 -0.707105
vn -0.000001 -0.707108 -0.707105
vn 0.707106 -0.500000 -0.500000
vn 0.707106 -0.500001 -0.500000
vn 0.707106 -0.500001 -0.500000
vn 0.707106 -0.500000 -0.500000
vn 1.000000 0.000000 -0.000000
vn 1.000000 0.000000 -0.000000
vn 1.000000 0.000000 -0.000000
vn 1.000000 0.000000 -0.000000
vn 0.707106 0.499999 0.500002
vn 0.707106 0.499999 0.500002
vn 0.707106 0.499999 0.500003
vn 0.707106 0.499999 0.500003
vn 0.000000 -0.707112 0.707102
vn 0.000000 -0.707112 0.707102
vn 0.000000 -0.707112 0.707102
vn 0.000000 -0.707112 0.707102
vn -0.000000 0.707108 -0.707106
vn -0.000000 0.707107 -0.707106
vn -0.000000 0.707108 -0.707106
vn -0.000000 0.707108 -0.707106
vn 0.000005 -0.707109 0.707104
vn 0.000005 -0.707109 0.707104
vn 0.000005 -0.707109 0.707104
vn 0.000005 -0.707109 0.707104
vn 0.000000 0.707108 -0.707106
vn 0.000000 0.707108 -0.707106
vn 0.000000 0.707108 -0.707106
vn 0.000000 0.707108 -0.707106
vn 0.000005 -0.707107 0.707106
vn 0.000005 -0.707107 0.707106
vn 0.000005 -0.707107 0.707106
vn 0.000005 -0.707107 0.707106
vn -0.000002 0.707107 -0.707107
vn -0.000002 0.707107 -0.707107
vn -0.000002 0.707107 -0.707107
vn -0.000002 0.707107 -0.707107
vn 0.000006 -0.707103 0.707111
vn 0.000006 -0.707103 0.707111
vn 0.000006 -0.707103 0.707111
vn 0.000006 -0.707103 0.707111
vn -0.000002 0.707105 -0.707109
vn -0.000003 0.707105 -0.707109
vn -0.000002 0.707105 -0.707109
vn -0.000002 0.707105 -0.707109
vn -0.000000 -0.707099 0.707115
vn -0.000000 -0.707099 0.707115
vn -0.000000 -0.707099 0.707115
vn -0.000000 -0.707099 0.707115
vn -0.000001 0.707106 -0.707108
vn -0.000001 0.707106 -0.707108
vn -0.000001 0.707106 -0.707108
vn -0.000001 0.707106 -0.707108
vn -0.000006 -0.707102 0.707111
vn -0.000006 -0.707102 0.707111
vn -0.000006 -0.707102 0.707111
vn -0.000006 -0.707102 0.707111
vn -0.000001 0.707108 -0.707106
vn -0.000001 0.707108 -0.707106
vn -0.000001 0.707108 -0.707106
vn -0.000001 0.707108 -0.707106
vn -0.000005 -0.707107 0.707107
vn -0.000005 -0.707107 0.707107
vn -0.000005 -0.707107 0.707107
vn -0.000005 -0.707107 0.707107
vn -0.000003 0.707107 -0.707107
vn -0.000003 0.707107 -0.707107
vn -0.000003 0.707107 -0.707107
vn -0.000003 0.707107 -0.707107
vn -0.000005 -0.707109 0.707104
vn -0.000005 -0.707109 0.707104
vn -0.000005 -0.707109 0.707104
vn -0.000005 -0.707109 0.707104
vn -0.000001 0.707107 -0.707107
vn -0.000001 0.707107 -0.707107
vn -0.000001 0.707107 -0.707107
vn -0.000001 0.707107 -0.707107
vn -0.000000 0.932679 0.360709
vn -0.000000 0.932679 0.360709
vn -0.000000 0.932679 0.360709
vn -0.000000 0.932679 0.360709
vn 0.703747 0.661785 0.258421
vn 0.703747 0.661785 0.258421
vn 0.703747 0.661785 0.258421
vn 0.703747 0.661785 0.258421
vn -0.703713 0.661893 0.258235
vn -0.703713 0.661893 0.258236
vn -0.703713 0.661893 0.258235
vn -0.703713 0.661893 0.258235
vn 0.695787 0.718173 0.010375
vn 0.695787 0.718173 0.010375
vn 0.695787 0.718173 0.010375
vn 0.695787 0.718173 0.010375
vn 1.000000 0.000001 0.000000
vn 1.000000 0.000001 0.000000
vn 1.000000 0.000001 0.000000
vn 1.000000 0.000001 0.000000
vn 0.707967 -0.706058 -0.016271
vn 0.707967 -0.706058 -0.016271
vn 0.707967 -0.706058 -0.016271
vn 0.707967 -0.706058 -0.016271
vn 0.000036 -0.999759 -0.021934
vn 0.000036 -0.999759 -0.021934
vn 0.000036 -0.999759 -0.021934
vn 0.000036 -0.999759 -0.021934
vn -0.707272 -0.706768 -0.015693
vn -0.707272 -0.706768 -0.015693
vn -0.707272 -0.706768 -0.015693
vn -0.707272 -0.706768 -0.015693
vn -1.000000 -0.000001 -0.000000
vn -1.000000 -0.000001 -0.000000
vn -1.000000 -0.000001 -0.000000
vn -1.000000 -0.000001 -0.000000
vn -0.695746 0.718212 0.010412
vn -0.695746 0.718212 0.010412
vn -0.695746 0.718212 0.010412
vn -0.695746 0.718212 0.010412
vn 0.000000 1.000000 0.000000
vn 0.000000 1.000000 0.000000
vn 0.000000 1.000000 0.000000
vn 0.000000 1.000000 0.000000
vn 0.699163 0.533628 0.475828
vn 0.699163 0.533628 0.475828
vn 0.699163 0.533628 0.475828
vn 0.699163 0.533628 0.475828
vn 1.000000 0.000000 0.000001
vn 1.000000 0.000000 0.000001
vn 1.000000 0.000000 0.000001
vn 1.000000 0.000000 0.000001
vn 0.717686 -0.504629 -0.479872
vn 0.717686 -0.504629 -0.479872
vn 0.717686 -0.504629 -0.479872
vn 0.717686 -0.504629 -0.479872
vn -0.000059 -0.715637 -0.698472
vn -0.000059 -0.715637 -0.698472
vn -0.000059 -0.715637 -0.698472
vn -0.000059 -0.715637 -0.698472
vn -0.714712 -0.505075 -0.483824
vn -0.714712 -0.505075 -0.483824
vn -0.714712 -0.505075 -0.483824
vn -0.714712 -0.505075 -0.483824
vn -1.000000 -0.000000 -0.000001
vn -1.000000 -0.000000 -0.000001
vn -1.000000 -0.000000 -0.000001
vn -1.000000 -0.000000 -0.000001
vn -0.699201 0.533577 0.475829
vn -0.699201 0.533577 0.475829
vn -0.699201 0.533577 0.475829
vn -0.699201 0.533577 0.475829
vn 0.000000 0.739654 0.672987
vn 0.000000 0.739655 0.672987
vn 0.000000 0.739655 0.672987
vn 0.000000 0.739655 0.672987
vn 1.000000 0.000001 0.000000
vn 1.000000 0.000001 0.000000
vn 1.000000 0.000001 0.000000
vn 1.000000 0.000001 0.000000
vn 0.692819 -0.676436 -0.249872
vn 0.692819 -0.676436 -0.249872
vn 0.692819 -0.676436 -0.249872
vn 0.692819 -0.676436 -0.249872
vn -0.000006 -0.941003 -0.338398
vn -0.000006 -0.941003 -0.338398
vn -0.000006 -0.941003 -0.338398
vn -0.000006 -0.941003 -0.338398
vn -0.687974 -0.683125 -0.245014
vn -0.687974 -0.683125 -0.245014
vn -0.687974 -0.683125 -0.245014
vn -0.687974 -0.683125 -0.245014
vn -1.000000 -0.000001 -0.000000
vn -1.000000 -0.000001 -0.000000
vn -1.000000 -0.000001 -0.000000
vn -1.000000 -0.000001 -0.000000
f 17/1/1 18/2/2 19/124/3 20/122/4
f 18/2/5 21/5/6 22/120/7 19/3/8
f 21/5/9 23/7/10 24/118/11 22/6/12
f 23/7/13 25/9/14 26/116/15 24/8/16
f 25/9/17 27/11/18 28/114/19 26/10/20
f 27/11/21 29/13/22 30/112/23 28/12/24
f 29/13/25 31/15/26 32/110/27 30/14/28
f 31/15/29 17/1/30 20/4/31 32/16/32
f 1/127/33 2/84/34 18/2/35 17/1/36
f 10/125/37 9/20/38 20/122/39 19/124/40
f 2/84/41 3/132/42 21/5/43 18/2/44
f 11/121/45 10/19/46 19/3/47 22/120/48
f 3/132/49 4/131/50 23/7/51 21/5/52
f 12/119/53 11/22/54 22/6/55 24/118/56
f 4/131/57 5/130/58 25/9/59 23/7/60
f 13/117/61 12/24/62 24/8/63 26/116/64
f 5/130/65 6/129/66 27/11/67 25/9/68
f 14/115/69 13/26/70 26/10/71 28/114/72
f 6/129/73 7/128/74 29/13/75 27/11/76
f 15/113/77 14/28/78 28/12/79 30/112/80
f 7/128/81 8/126/82 31/15/83 29/13/84
f 16/111/85 15/30/86 30/14/87 32/110/88
f 8/126/89 1/127/90 17/1/91 31/15/92
f 9/123/93 16/32/94 32/16/95 20/4/96
f 49/33/97 52/109/98 51/35/99 50/36/100
f 50/36/101 51/107/102 54/37/103 53/38/104
f 53/38/105 54/105/106 56/39/107 55/40/108
f 55/40/109 56/102/110 58/41/111 57/42/112
f 57/42/113 58/99/114 60/43/115 59/44/116
f 59/44/117 60/96/118 62/45/119 61/46/120
f 61/46/121 62/93/122 64/47/123 63/48/124
f 63/48/125 64/90/126 52/34/127 49/33/128
f 33/88/129 49/33/130 50/36/131 34/82/132
f 42/51/133 51/35/134 52/109/135 41/108/136
f 34/82/137 50/36/138 53/38/139 35/103/140
f 43/54/141 54/37/142 51/107/143 42/106/144
f 35/103/145 53/38/146 55/40/147 36/100/148
f 44/56/149 56/39/150 54/105/151 43/104/152
f 36/100/153 55/40/154 57/42/155 37/97/156
f 45/58/157 58/41/158 56/102/159 44/101/160
f 37/97/161 57/42/162 59/44/163 38/94/164
f 46/60/165 60/43/166 58/99/167 45/98/168
f 38/94/169 59/44/170 61/46/171 39/91/172
f 47/62/173 62/45/174 60/96/175 46/95/176
f 39/91/177 61/46/178 63/48/179 40/87/180
f 48/64/181 64/47/182 62/93/183 47/92/184
f 40/87/185 63/48/186 49/33/187 33/88/188
f 41/52/189 52/34/190 64/90/191 48/89/192
f 65/65/193 66/66/194 68/67/195 67/86/196
f 70/69/197 66/66/198 65/65/199 69/70/200
f 67/68/201 68/81/202 80/71/203 79/72/204
f 69/70/205 65/65/206 1/17/207 8/31/208
f 71/73/209 69/70/210 8/31/211 7/29/212
f 73/74/213 71/73/214 7/29/215 6/27/216
f 75/75/217 73/74/218 6/27/219 5/25/220
f 77/76/221 75/75/222 5/25/223 4/23/224
f 79/72/225 77/76/226 4/23/227 3/21/228
f 67/68/229 79/72/230 3/21/231 2/85/232
f 65/65/233 67/86/234 2/18/235 1/17/236
f 70/69/237 40/63/238 33/49/239 66/66/240
f 72/77/241 39/61/242 40/63/243 70/69/244
f 74/78/245 38/59/246 39/61/247 72/77/248
f 76/79/249 37/57/250 38/59/251 74/78/252
f 78/80/253 36/55/254 37/57/255 76/79/256
f 80/71/257 35/53/258 36/55/259 78/80/260
f 68/81/261 34/50/262 35/53/263 80/71/264
f 66/66/265 33/49/266 34/83/267 68/67/268
f 72/77/269 70/69/270 69/70/271 71/73/272
f 74/78/273 72/77/274 71/73/275 73/74/276
f 76/79/277 74/78/278 73/74/279 75/75/280
f 78/80/281 76/79/282 75/75/283 77/76/284
f 79/72/285 80/71/286 78/80/287 77/76/288
