# This file uses centimeters as units for non-parametric coordinates.

v 0.029512 0.061745 0.113691
v -0.021639 0.061745 0.113691
v -0.057808 0.025576 0.113691
v -0.057808 -0.025576 0.113691
v -0.021639 -0.061745 0.113691
v 0.029512 -0.061745 0.113691
v 0.065682 -0.025576 0.113691
v 0.065682 0.025576 0.113691
v 0.032699 0.069439 0.140119
v -0.024826 0.069439 0.140119
v -0.065502 0.028763 0.140119
v -0.065502 -0.028763 0.140119
v -0.024826 -0.069439 0.140119
v 0.032699 -0.069439 0.140119
v 0.073376 -0.028763 0.140119
v 0.073376 0.028763 0.140119
v 0.040427 0.088096 0.113690
v -0.032554 0.088096 0.113690
v -0.032554 0.088096 0.140119
v 0.040427 0.088096 0.140119
v -0.084159 0.036491 0.113690
v -0.084159 0.036491 0.140119
v -0.084159 -0.036491 0.113690
v -0.084159 -0.036491 0.140119
v -0.032554 -0.088096 0.113690
v -0.032554 -0.088096 0.140119
v 0.040427 -0.088096 0.113690
v 0.040427 -0.088096 0.140119
v 0.092033 -0.036491 0.113690
v 0.092033 -0.036491 0.140119
v 0.092033 0.036491 0.113690
v 0.092033 0.036491 0.140119
v 0.029512 0.061745 0.059192
v 0.065682 0.025576 0.059192
v 0.065682 -0.025576 0.059192
v 0.029512 -0.061745 0.059192
v -0.021639 -0.061745 0.059192
v -0.057808 -0.025576 0.059192
v -0.057808 0.025576 0.059192
v -0.021639 0.061745 0.059192
v 0.029512 0.237937 -0.221214
v -0.021639 0.237937 -0.221214
v -0.057808 0.201768 -0.221214
v -0.057808 0.150617 -0.221214
v -0.021639 0.114448 -0.221214
v 0.029512 0.114448 -0.221214
v 0.065682 0.150617 -0.221214
v 0.065682 0.201768 -0.221214
v 0.032699 0.245631 -0.247643
v -0.024826 0.245631 -0.247643
v -0.065502 0.204955 -0.247643
v -0.065502 0.147430 -0.247643
v -0.024826 0.106753 -0.247643
v 0.032699 0.106753 -0.247643
v 0.073376 0.147430 -0.247643
v 0.073376 0.204955 -0.247643
v 0.040427 0.264289 -0.221214
v -0.032554 0.264289 -0.221214
v -0.032554 0.264289 -0.247643
v 0.040427 0.264289 -0.247643
v -0.084159 0.212683 -0.221214
v -0.084159 0.212683 -0.247643
v -0.084159 0.139702 -0.221214
v -0.084159 0.139702 -0.247643
v -0.032554 0.088096 -0.221214
v -0.032554 0.088096 -0.247643
v 0.040427 0.088096 -0.221214
v 0.040427 0.088096 -0.247643
v 0.092033 0.139702 -0.221214
v 0.092033 0.139702 -0.247643
v 0.092033 0.212683 -0.221214
v 0.092033 0.212683 -0.247643
v 0.029512 0.237937 -0.172871
v -0.021639 0.237937 -0.172871
v -0.057808 0.201768 -0.172871
v -0.057808 0.150617 -0.172871
v -0.021639 0.114448 -0.172871
v 0.029512 0.114448 -0.172871
v 0.065682 0.150617 -0.172871
v 0.065682 0.201768 -0.172871
v 0.029512 0.068119 0.046739
v -0.021639 0.068119 0.046739
v -0.057808 0.034703 0.032898
v -0.057808 -0.012554 0.013323
v -0.021639 -0.045970 -0.000518
v 0.029512 -0.045970 -0.000518
v 0.065682 -0.012554 0.013323
v 0.065682 0.034703 0.032898
v 0.029512 0.219474 -0.110689
v -0.021639 0.219474 -0.110689
v -0.057808 0.186058 -0.124531
v -0.057808 0.138801 -0.144105
v -0.021639 0.105385 -0.157947
v 0.029512 0.105385 -0.157947
v 0.065682 0.138801 -0.144105
v 0.065682 0.186058 -0.124531
vt 0.612707 0.824524
vt 0.612710 0.858558
vt 0.603995 0.867273
vt 0.603992 0.815810
vt 0.636777 0.882621
vt 0.636777 0.894946
vt 0.670810 0.882619
vt 0.679525 0.891333
vt 0.694874 0.858552
vt 0.707198 0.858551
vt 0.694871 0.824519
vt 0.703586 0.815803
vt 0.670804 0.800455
vt 0.670804 0.788130
vt 0.636771 0.800457
vt 0.628056 0.791743
vt 0.537818 0.565088
vt 0.541337 0.588137
vt 0.600392 0.875974
vt 0.591682 0.828130
vt 0.531695 0.412088
vt 0.640382 0.903646
vt 0.519648 0.436071
vt 0.688226 0.894937
vt 0.511695 0.463651
vt 0.715899 0.854947
vt 0.511454 0.492861
vt 0.707189 0.807103
vt 0.518855 0.520119
vt 0.667199 0.779430
vt 0.529667 0.543557
vt 0.619355 0.788140
vt 0.554146 0.535966
vt 0.563843 0.558930
vt 0.542518 0.513816
vt 0.535427 0.490463
vt 0.535929 0.466539
vt 0.543654 0.443522
vt 0.555957 0.422121
vt 0.565511 0.582862
vt 0.185493 0.921463
vt 0.185494 0.933788
vt 0.152712 0.906115
vt 0.161426 0.897400
vt 0.149099 0.863367
vt 0.161424 0.863366
vt 0.176772 0.830585
vt 0.185488 0.839299
vt 0.219521 0.826973
vt 0.219521 0.839297
vt 0.252302 0.854646
vt 0.243588 0.863361
vt 0.255915 0.897394
vt 0.243590 0.897395
vt 0.228242 0.930176
vt 0.219526 0.921461
vt 0.722014 0.552671
vt 0.725080 0.413310
vt 0.149108 0.914816
vt 0.189098 0.942488
vt 0.713763 0.434304
vt 0.140399 0.866971
vt 0.701664 0.453606
vt 0.168072 0.826982
vt 0.693011 0.471655
vt 0.215916 0.818272
vt 0.692188 0.490134
vt 0.255906 0.845945
vt 0.700246 0.508982
vt 0.264615 0.893790
vt 0.712015 0.529402
vt 0.236942 0.933779
vt 0.566788 0.400384
vt 0.173714 0.892309
vt 0.728189 0.577059
vt 0.214436 0.909173
vt 0.190582 0.909175
vt 0.215924 0.942487
vt 0.219527 0.933786
vt 0.231301 0.892305
vt 0.255910 0.914809
vt 0.252305 0.906109
vt 0.231300 0.868452
vt 0.264613 0.866964
vt 0.255913 0.863360
vt 0.214432 0.851586
vt 0.236936 0.826977
vt 0.228236 0.830582
vt 0.190579 0.851588
vt 0.189090 0.818274
vt 0.185487 0.826975
vt 0.173713 0.868455
vt 0.149104 0.845952
vt 0.152709 0.854652
vt 0.140401 0.893797
vt 0.149101 0.897400
vt 0.168078 0.933783
vt 0.176778 0.930179
vt 0.624998 0.853467
vt 0.542504 0.389940
vt 0.636770 0.788133
vt 0.640373 0.779432
vt 0.679519 0.791740
vt 0.688219 0.788135
vt 0.707196 0.824518
vt 0.715897 0.828121
vt 0.703589 0.867266
vt 0.707194 0.875967
vt 0.670811 0.894944
vt 0.667208 0.903645
vt 0.628062 0.891337
vt 0.619362 0.894941
vt 0.600383 0.824525
vt 0.600387 0.807110
vt 0.600385 0.858559
vt 0.591684 0.854955
vt 0.641862 0.812746
vt 0.624996 0.829613
vt 0.665715 0.812744
vt 0.682583 0.829610
vt 0.682585 0.853463
vt 0.665719 0.870331
vt 0.641866 0.870333
vt 0.701119 0.559828
vt 0.705102 0.402840
vt 0.705558 0.583509
vt 0.693933 0.424048
vt 0.680676 0.444653
vt 0.670542 0.467658
vt 0.669999 0.493254
vt 0.679470 0.516507
vt 0.691864 0.537761
vt 0.571243 0.558417
vt 0.573913 0.400974
vt 0.571247 0.582655
vt 0.569937 0.424365
vt 0.565084 0.446402
vt 0.561593 0.468107
vt 0.561539 0.490211
vt 0.564093 0.512118
vt 0.568112 0.534514
vt 0.673180 0.564594
vt 0.676384 0.395374
vt 0.673505 0.588118
vt 0.671845 0.419021
vt 0.666018 0.442561
vt 0.661989 0.467429
vt 0.661349 0.493114
vt 0.664570 0.517953
vt 0.669486 0.541338
vn 0.000000 1.000000 0.000000
vn 0.000000 1.000000 0.000000
vn 0.000000 1.000000 0.000000
vn 0.000000 1.000000 0.000000
vn -0.707107 0.707107 0.000000
vn -0.707107 0.707107 0.000000
vn -0.707107 0.707107 0.000000
vn -0.707107 0.707107 0.000000
vn -1.000000 0.000000 0.000000
vn -1.000000 0.000000 0.000000
vn -1.000000 0.000000 0.000000
vn -1.000000 0.000000 0.000000
vn -0.707107 -0.707107 0.000000
vn -0.707107 -0.707107 0.000000
vn -0.707107 -0.707107 0.000000
vn -0.707107 -0.707107 0.000000
vn -0.000001 -1.000000 0.000000
vn -0.000001 -1.000000 0.000000
vn -0.000001 -1.000000 0.000000
vn -0.000001 -1.000000 0.000000
vn 0.707107 -0.707107 0.000000
vn 0.707107 -0.707107 0.000000
vn 0.707107 -0.707107 0.000000
vn 0.707107 -0.707107 0.000000
vn 1.000000 0.000000 0.000000
vn 1.000000 0.000000 0.000000
vn 1.000000 0.000000 0.000000
vn 1.000000 0.000000 0.000000
vn 0.707106 0.707107 0.000000
vn 0.707106 0.707107 0.000000
vn 0.707106 0.707107 0.000000
vn 0.707106 0.707107 0.000000
vn -0.000000 -0.000009 -1.000000
vn -0.000000 -0.000009 -1.000000
vn -0.000000 -0.000009 -1.000000
vn -0.000000 -0.000009 -1.000000
vn -0.000000 0.000000 1.000000
vn -0.000000 0.000000 1.000000
vn -0.000000 0.000000 1.000000
vn -0.000000 0.000000 1.000000
vn 0.000006 -0.000006 -1.000000
vn 0.000006 -0.000006 -1.000000
vn 0.000006 -0.000006 -1.000000
vn 0.000006 -0.000006 -1.000000
vn -0.000000 0.000001 1.000000
vn -0.000000 0.000001 1.000000
vn -0.000000 0.000001 1.000000
vn -0.000000 0.000001 1.000000
vn 0.000009 0.000000 -1.000000
vn 0.000009 0.000000 -1.000000
vn 0.000009 0.000000 -1.000000
vn 0.000009 0.000000 -1.000000
vn 0.000000 0.000000 1.000000
vn 0.000000 0.000000 1.000000
vn 0.000000 0.000000 1.000000
vn 0.000000 0.000000 1.000000
vn 0.000006 0.000006 -1.000000
vn 0.000006 0.000006 -1.000000
vn 0.000006 0.000006 -1.000000
vn 0.000006 0.000006 -1.000000
vn -0.000000 0.000000 1.000000
vn -0.000000 0.000000 1.000000
vn -0.000000 0.000000 1.000000
vn -0.000000 0.000000 1.000000
vn 0.000000 0.000008 -1.000000
vn 0.000000 0.000008 -1.000000
vn 0.000000 0.000008 -1.000000
vn 0.000000 0.000008 -1.000000
vn -0.000000 0.000000 1.000000
vn -0.000000 0.000000 1.000000
vn -0.000000 0.000000 1.000000
vn -0.000000 0.000000 1.000000
vn -0.000006 0.000006 -1.000000
vn -0.000006 0.000006 -1.000000
vn -0.000006 0.000006 -1.000000
vn -0.000006 0.000006 -1.000000
vn 0.000000 0.000000 1.000000
vn 0.000000 0.000000 1.000000
vn 0.000000 0.000000 1.000000
vn 0.000000 0.000000 1.000000
vn -0.000009 0.000000 -1.000000
vn -0.000009 0.000000 -1.000000
vn -0.000009 0.000000 -1.000000
vn -0.000009 0.000000 -1.000000
vn -0.000000 0.000000 1.000000
vn -0.000000 0.000000 1.000000
vn -0.000000 0.000000 1.000000
vn -0.000000 0.000000 1.000000
vn -0.000006 -0.000006 -1.000000
vn -0.000006 -0.000006 -1.000000
vn -0.000006 -0.000006 -1.000000
vn -0.000006 -0.000006 -1.000000
vn 0.000000 0.000000 1.000000
vn 0.000000 0.000000 1.000000
vn 0.000000 0.000000 1.000000
vn 0.000000 0.000000 1.000000
vn 0.707106 0.707107 0.000000
vn 0.707106 0.707107 0.000000
vn 0.707106 0.707107 0.000000
vn 0.707106 0.707107 0.000000
vn 1.000000 0.000001 0.000000
vn 1.000000 0.000001 0.000000
vn 1.000000 0.000001 0.000000
vn 1.000000 0.000001 0.000000
vn 0.707107 -0.707107 0.000000
vn 0.707107 -0.707107 0.000000
vn 0.707107 -0.707107 0.000000
vn 0.707107 -0.707107 0.000000
vn -0.000000 -1.000000 0.000000
vn -0.000000 -1.000000 0.000000
vn -0.000000 -1.000000 0.000000
vn -0.000000 -1.000000 0.000000
vn -0.707107 -0.707106 0.000000
vn -0.707107 -0.707106 0.000000
vn -0.707107 -0.707106 0.000000
vn -0.707107 -0.707106 0.000000
vn -1.000000 -0.000000 0.000000
vn -1.000000 -0.000000 0.000000
vn -1.000000 -0.000000 0.000000
vn -1.000000 -0.000000 0.000000
vn -0.707106 0.707107 0.000000
vn -0.707106 0.707107 0.000000
vn -0.707106 0.707107 0.000000
vn -0.707106 0.707107 0.000000
vn 0.000000 1.000000 0.000000
vn 0.000000 1.000000 0.000000
vn 0.000000 1.000000 0.000000
vn 0.000000 1.000000 0.000000
vn 0.000000 1.000000 0.000000
vn 0.000000 1.000000 0.000000
vn 0.000000 1.000000 0.000000
vn 0.000000 1.000000 0.000000
vn -0.707107 0.707106 0.000000
vn -0.707107 0.707106 0.000000
vn -0.707107 0.707106 0.000000
vn -0.707107 0.707106 0.000000
vn -1.000000 0.000000 0.000000
vn -1.000000 0.000000 0.000000
vn -1.000000 0.000000 0.000000
vn -1.000000 0.000000 0.000000
vn -0.707107 -0.707106 0.000000
vn -0.707107 -0.707106 0.000000
vn -0.707107 -0.707106 0.000000
vn -0.707107 -0.707106 0.000000
vn -0.000001 -1.000000 0.000000
vn -0.000001 -1.000000 0.000000
vn -0.000001 -1.000000 0.000000
vn -0.000001 -1.000000 0.000000
vn 0.707107 -0.707106 0.000000
vn 0.707107 -0.707106 0.000000
vn 0.707107 -0.707106 0.000000
vn 0.707107 -0.707106 0.000000
vn 1.000000 0.000000 0.000000
vn 1.000000 0.000000 0.000000
vn 1.000000 0.000000 0.000000
vn 1.000000 0.000000 0.000000
vn 0.707106 0.707107 0.000000
vn 0.707106 0.707107 0.000000
vn 0.707106 0.707107 0.000000
vn 0.707106 0.707107 0.000000
vn 0.000000 -0.000009 1.000000
vn 0.000000 -0.000009 1.000000
vn 0.000000 -0.000009 1.000000
vn 0.000000 -0.000009 1.000000
vn 0.000000 0.000000 -1.000000
vn 0.000000 0.000000 -1.000000
vn 0.000000 0.000000 -1.000000
vn 0.000000 0.000000 -1.000000
vn 0.000006 -0.000006 1.000000
vn 0.000006 -0.000006 1.000000
vn 0.000006 -0.000006 1.000000
vn 0.000006 -0.000006 1.000000
vn 0.000000 0.000000 -1.000000
vn 0.000000 0.000000 -1.000000
vn 0.000000 0.000000 -1.000000
vn 0.000000 0.000000 -1.000000
vn 0.000009 -0.000000 1.000000
vn 0.000009 -0.000000 1.000000
vn 0.000009 -0.000000 1.000000
vn 0.000009 -0.000000 1.000000
vn 0.000000 -0.000000 -1.000000
vn 0.000000 -0.000000 -1.000000
vn 0.000000 -0.000000 -1.000000
vn 0.000000 -0.000000 -1.000000
vn 0.000006 0.000006 1.000000
vn 0.000006 0.000006 1.000000
vn 0.000006 0.000006 1.000000
vn 0.000006 0.000006 1.000000
vn -0.000000 0.000000 -1.000000
vn -0.000000 0.000000 -1.000000
vn -0.000000 0.000000 -1.000000
vn -0.000000 0.000000 -1.000000
vn -0.000000 0.000009 1.000000
vn -0.000000 0.000009 1.000000
vn -0.000000 0.000009 1.000000
vn -0.000000 0.000009 1.000000
vn 0.000000 -0.000001 -1.000000
vn 0.000000 -0.000001 -1.000000
vn 0.000000 -0.000001 -1.000000
vn 0.000000 -0.000001 -1.000000
vn -0.000006 0.000006 1.000000
vn -0.000006 0.000006 1.000000
vn -0.000006 0.000006 1.000000
vn -0.000006 0.000006 1.000000
vn 0.000000 -0.000001 -1.000000
vn 0.000000 -0.000001 -1.000000
vn 0.000000 -0.000001 -1.000000
vn 0.000000 -0.000001 -1.000000
vn -0.000009 0.000000 1.000000
vn -0.000009 0.000000 1.000000
vn -0.000009 0.000000 1.000000
vn -0.000009 0.000000 1.000000
vn 0.000000 0.000000 -1.000000
vn 0.000000 0.000000 -1.000000
vn 0.000000 0.000000 -1.000000
vn 0.000000 0.000000 -1.000000
vn -0.000006 -0.000006 1.000000
vn -0.000006 -0.000006 1.000000
vn -0.000006 -0.000006 1.000000
vn -0.000006 -0.000006 1.000000
vn 0.000000 -0.000001 -1.000000
vn 0.000000 -0.000001 -1.000000
vn 0.000000 -0.000001 -1.000000
vn 0.000000 -0.000001 -1.000000
vn 0.694099 0.668375 0.267395
vn 0.694099 0.668375 0.267396
vn 0.694099 0.668375 0.267396
vn 0.694100 0.668375 0.267396
vn 1.000000 0.000001 0.000000
vn 1.000000 0.000001 0.000000
vn 1.000000 0.000001 0.000000
vn 1.000000 0.000001 0.000000
vn 0.699341 -0.689600 -0.188079
vn 0.699341 -0.689600 -0.188079
vn 0.699341 -0.689600 -0.188079
vn 0.699341 -0.689600 -0.188079
vn 0.000000 -0.966831 -0.255418
vn 0.000000 -0.966831 -0.255418
vn 0.000000 -0.966831 -0.255418
vn 0.000000 -0.966831 -0.255418
vn -0.699342 -0.689600 -0.188079
vn -0.699342 -0.689600 -0.188079
vn -0.699342 -0.689600 -0.188079
vn -0.699342 -0.689600 -0.188079
vn -1.000000 -0.000000 -0.000000
vn -1.000000 -0.000000 -0.000000
vn -1.000000 -0.000000 -0.000000
vn -1.000000 -0.000000 -0.000000
vn -0.694100 0.668375 0.267395
vn -0.694100 0.668375 0.267395
vn -0.694100 0.668375 0.267395
vn -0.694100 0.668375 0.267395
vn 0.000000 0.890165 0.455638
vn 0.000000 0.890165 0.455638
vn 0.000000 0.890165 0.455638
vn 0.000000 0.890165 0.455638
vn -0.000000 1.000000 -0.000000
vn -0.000000 1.000000 -0.000000
vn -0.000000 1.000000 -0.000000
vn -0.000000 1.000000 -0.000000
vn -0.707106 0.707108 0.000000
vn -0.707106 0.707108 0.000000
vn -0.707106 0.707108 0.000000
vn -0.707106 0.707108 0.000000
vn -1.000000 -0.000000 0.000000
vn -1.000000 -0.000000 0.000000
vn -1.000000 -0.000000 0.000000
vn -1.000000 -0.000000 0.000000
vn -0.707107 -0.707106 0.000000
vn -0.707107 -0.707106 0.000000
vn -0.707107 -0.707106 0.000000
vn -0.707107 -0.707106 0.000000
vn -0.000000 -1.000000 0.000000
vn -0.000000 -1.000000 0.000000
vn -0.000000 -1.000000 0.000000
vn -0.000000 -1.000000 0.000000
vn 0.707107 -0.707107 0.000000
vn 0.707107 -0.707107 0.000000
vn 0.707107 -0.707107 0.000000
vn 0.707107 -0.707107 0.000000
vn 1.000000 0.000001 -0.000000
vn 1.000000 0.000001 -0.000000
vn 1.000000 0.000001 -0.000000
vn 1.000000 0.000001 -0.000000
vn 0.707106 0.707107 -0.000000
vn 0.707106 0.707107 -0.000000
vn 0.707106 0.707107 -0.000000
vn 0.707106 0.707107 -0.000000
vn 0.000000 0.720874 0.693066
vn 0.000000 0.720874 0.693066
vn 0.000000 0.720874 0.693066
vn 0.000000 0.720874 0.693066
vn -0.681493 0.527553 0.507202
vn -0.681493 0.527553 0.507202
vn -0.681493 0.527553 0.507202
vn -0.681493 0.527553 0.507202
vn -1.000000 -0.000000 -0.000000
vn -1.000000 -0.000000 -0.000000
vn -1.000000 -0.000000 -0.000000
vn -1.000000 -0.000000 -0.000000
vn -0.681495 -0.527553 -0.507202
vn -0.681495 -0.527553 -0.507202
vn -0.681495 -0.527553 -0.507202
vn -0.681495 -0.527553 -0.507202
vn -0.000000 -0.720874 -0.693066
vn -0.000000 -0.720874 -0.693066
vn -0.000000 -0.720874 -0.693066
vn -0.000000 -0.720874 -0.693066
vn 0.681494 -0.527553 -0.507202
vn 0.681494 -0.527553 -0.507202
vn 0.681494 -0.527553 -0.507202
vn 0.681494 -0.527553 -0.507202
vn 1.000000 0.000001 0.000001
vn 1.000000 0.000001 0.000001
vn 1.000000 0.000001 0.000001
vn 1.000000 0.000001 0.000001
vn 0.681493 0.527553 0.507202
vn 0.681493 0.527553 0.507202
vn 0.681493 0.527553 0.507202
vn 0.681493 0.527553 0.507202
vn -0.000000 0.958636 0.284634
vn -0.000000 0.958636 0.284634
vn -0.000000 0.958636 0.284634
vn -0.000000 0.958636 0.284634
vn -0.698296 0.683867 0.211444
vn -0.698296 0.683867 0.211444
vn -0.698296 0.683867 0.211444
vn -0.698296 0.683867 0.211444
vn -1.000000 -0.000000 0.000000
vn -1.000000 -0.000000 0.000000
vn -1.000000 -0.000000 0.000000
vn -1.000000 -0.000000 0.000000
vn -0.688914 -0.654004 -0.312531
vn -0.688914 -0.654004 -0.312531
vn -0.688914 -0.654004 -0.312531
vn -0.688914 -0.654004 -0.312531
vn -0.000001 -0.854753 -0.519035
vn -0.000001 -0.854753 -0.519035
vn -0.000001 -0.854753 -0.519035
vn -0.000001 -0.854753 -0.519035
vn 0.688914 -0.654004 -0.312532
vn 0.688914 -0.654004 -0.312532
vn 0.688914 -0.654004 -0.312532
vn 0.688914 -0.654004 -0.312532
vn 1.000000 0.000001 0.000000
vn 1.000000 0.000001 0.000000
vn 1.000000 0.000001 0.000000
vn 1.000000 0.000001 0.000000
vn 0.698296 0.683867 0.211444
vn 0.698296 0.683867 0.211444
vn 0.698296 0.683867 0.211444
vn 0.698296 0.683867 0.211444
f 17/1/1 18/2/2 19/115/3 20/113/4
f 18/2/5 21/5/6 22/111/7 19/3/8
f 21/5/9 23/7/10 24/109/11 22/6/12
f 23/7/13 25/9/14 26/107/15 24/8/16
f 25/9/17 27/11/18 28/105/19 26/10/20
f 27/11/21 29/13/22 30/103/23 28/12/24
f 29/13/25 31/15/26 32/101/27 30/14/28
f 31/15/29 17/1/30 20/4/31 32/16/32
f 1/118/33 2/99/34 18/2/35 17/1/36
f 10/116/37 9/20/38 20/113/39 19/115/40
f 2/99/41 3/123/42 21/5/43 18/2/44
f 11/112/45 10/19/46 19/3/47 22/111/48
f 3/123/49 4/122/50 23/7/51 21/5/52
f 12/110/53 11/22/54 22/6/55 24/109/56
f 4/122/57 5/121/58 25/9/59 23/7/60
f 13/108/61 12/24/62 24/8/63 26/107/64
f 5/121/65 6/120/66 27/11/67 25/9/68
f 14/106/69 13/26/70 26/10/71 28/105/72
f 6/120/73 7/119/74 29/13/75 27/11/76
f 15/104/77 14/28/78 28/12/79 30/103/80
f 7/119/81 8/117/82 31/15/83 29/13/84
f 16/102/85 15/30/86 30/14/87 32/101/88
f 8/117/89 1/118/90 17/1/91 31/15/92
f 9/114/93 16/32/94 32/16/95 20/4/96
f 34/33/97 33/34/98 1/17/99 8/31/100
f 35/35/101 34/33/102 8/31/103 7/29/104
f 36/36/105 35/35/106 7/29/107 6/27/108
f 37/37/109 36/36/110 6/27/111 5/25/112
f 38/38/113 37/37/114 5/25/115 4/23/116
f 39/39/117 38/38/118 4/23/119 3/21/120
f 40/73/121 39/39/122 3/21/123 2/100/124
f 33/34/125 40/40/126 2/18/127 1/17/128
f 57/41/129 60/98/130 59/43/131 58/44/132
f 58/44/133 59/96/134 62/45/135 61/46/136
f 61/46/137 62/94/138 64/47/139 63/48/140
f 63/48/141 64/91/142 66/49/143 65/50/144
f 65/50/145 66/88/146 68/51/147 67/52/148
f 67/52/149 68/85/150 70/53/151 69/54/152
f 69/54/153 70/82/154 72/55/155 71/56/156
f 71/56/157 72/79/158 60/42/159 57/41/160
f 41/77/161 57/41/162 58/44/163 42/74/164
f 50/59/165 59/43/166 60/98/167 49/97/168
f 42/74/169 58/44/170 61/46/171 43/92/172
f 51/62/173 62/45/174 59/96/175 50/95/176
f 43/92/177 61/46/178 63/48/179 44/89/180
f 52/64/181 64/47/182 62/94/183 51/93/184
f 44/89/185 63/48/186 65/50/187 45/86/188
f 53/66/189 66/49/190 64/91/191 52/90/192
f 45/86/193 65/50/194 67/52/195 46/83/196
f 54/68/197 68/51/198 66/88/199 53/87/200
f 46/83/201 67/52/202 69/54/203 47/80/204
f 55/70/205 70/53/206 68/85/207 54/84/208
f 47/80/209 69/54/210 71/56/211 48/76/212
f 56/72/213 72/55/214 70/82/215 55/81/216
f 48/76/217 71/56/218 57/41/219 41/77/220
f 49/60/221 60/42/222 72/79/223 56/78/224
f 34/33/225 88/141/226 81/133/227 33/34/228
f 35/35/229 87/140/230 88/141/231 34/33/232
f 36/36/233 86/139/234 87/140/235 35/35/236
f 37/37/237 85/138/238 86/139/239 36/36/240
f 38/38/241 84/137/242 85/138/243 37/37/244
f 39/39/245 83/136/246 84/137/247 38/38/248
f 40/73/249 82/134/250 83/136/251 39/39/252
f 33/34/253 81/133/254 82/135/255 40/40/256
f 74/126/257 73/124/258 41/57/259 42/75/260
f 75/127/261 74/125/262 42/58/263 43/61/264
f 76/128/265 75/127/266 43/61/267 44/63/268
f 77/129/269 76/128/270 44/63/271 45/65/272
f 78/130/273 77/129/274 45/65/275 46/67/276
f 79/131/277 78/130/278 46/67/279 47/69/280
f 80/132/281 79/131/282 47/69/283 48/71/284
f 73/124/285 80/132/286 48/71/287 41/57/288
f 90/144/289 82/135/290 81/133/291 89/142/292
f 91/145/293 83/136/294 82/134/295 90/143/296
f 92/146/297 84/137/298 83/136/299 91/145/300
f 93/147/301 85/138/302 84/137/303 92/146/304
f 94/148/305 86/139/306 85/138/307 93/147/308
f 95/149/309 87/140/310 86/139/311 94/148/312
f 96/150/313 88/141/314 87/140/315 95/149/316
f 89/142/317 81/133/318 88/141/319 96/150/320
f 90/144/321 89/142/322 73/124/323 74/126/324
f 91/145/325 90/143/326 74/125/327 75/127/328
f 92/146/329 91/145/330 75/127/331 76/128/332
f 93/147/333 92/146/334 76/128/335 77/129/336
f 94/148/337 93/147/338 77/129/339 78/130/340
f 95/149/341 94/148/342 78/130/343 79/131/344
f 96/150/345 95/149/346 79/131/347 80/132/348
f 89/142/349 96/150/350 80/132/351 73/124/352
