# This file uses centimeters as units for non-parametric coordinates.

v 0.026222 0.026223 0.352022
v 0.000000 0.037084 0.352022
v -0.026222 0.026223 0.352022
v -0.037084 -0.000000 0.352022
v -0.026222 -0.026222 0.352022
v 0.000000 -0.037084 0.352022
v 0.026222 -0.026222 0.352022
v 0.037084 -0.000000 0.352022
v 0.026222 0.026223 -0.352022
v 0.037084 -0.000000 -0.352022
v 0.026222 -0.026222 -0.352022
v 0.000000 -0.037084 -0.352022
v -0.026222 -0.026222 -0.352022
v -0.037084 -0.000000 -0.352022
v -0.026222 0.026223 -0.352022
v 0.000000 0.037084 -0.352022
v 0.026222 0.026223 0.000000
v 0.037084 -0.000000 0.000000
v 0.026222 -0.026222 0.000000
v 0.000000 -0.037084 0.000000
v -0.026222 -0.026222 0.000000
v -0.037084 -0.000000 0.000000
v -0.026222 0.026223 0.000000
v 0.000000 0.037084 0.000000
vt 0.587999 0.731727
vt 0.597952 0.731727
vt 0.597954 0.855160
vt 0.588002 0.855160
vt 0.578047 0.731727
vt 0.578049 0.855160
vt 0.568095 0.731727
vt 0.568097 0.855160
vt 0.558143 0.731728
vt 0.558145 0.855160
vt 0.548191 0.731728
vt 0.548193 0.855160
vt 0.538239 0.731728
vt 0.538241 0.855161
vt 0.528287 0.731728
vt 0.528289 0.855161
vt 0.518334 0.731728
vt 0.518337 0.855161
vt 0.597956 0.978592
vt 0.588004 0.978592
vt 0.578052 0.978592
vt 0.568099 0.978593
vt 0.558147 0.978593
vt 0.548195 0.978593
vt 0.538243 0.978593
vt 0.528291 0.978593
vt 0.518339 0.978593
vn 0.923878 0.382686 0.000000
vn 0.923878 0.382686 0.000000
vn 0.923878 0.382686 0.000000
vn 0.923878 0.382686 0.000000
vn 0.923881 -0.382680 0.000000
vn 0.923881 -0.382680 0.000000
vn 0.923881 -0.382680 0.000000
vn 0.923881 -0.382680 0.000000
vn 0.382685 -0.923879 0.000000
vn 0.382685 -0.923879 0.000000
vn 0.382685 -0.923879 0.000000
vn 0.382685 -0.923879 0.000000
vn -0.382685 -0.923879 0.000000
vn -0.382685 -0.923879 0.000000
vn -0.382685 -0.923879 0.000000
vn -0.382685 -0.923879 0.000000
vn -0.923881 -0.382680 0.000000
vn -0.923881 -0.382680 0.000000
vn -0.923881 -0.382680 0.000000
vn -0.923881 -0.382680 0.000000
vn -0.923881 0.382680 0.000000
vn -0.923881 0.382680 0.000000
vn -0.923881 0.382680 0.000000
vn -0.923881 0.382680 0.000000
vn -0.382680 0.923881 0.000000
vn -0.382680 0.923881 0.000000
vn -0.382680 0.923881 0.000000
vn -0.382680 0.923881 0.000000
vn 0.382680 0.923881 0.000000
vn 0.382680 0.923881 0.000000
vn 0.382680 0.923881 0.000000
vn 0.382680 0.923881 0.000000
vn 0.923881 0.382680 0.000000
vn 0.923881 0.382680 0.000000
vn 0.923881 0.382680 0.000000
vn 0.923881 0.382680 0.000000
vn 0.923881 -0.382680 0.000000
vn 0.923881 -0.382680 0.000000
vn 0.923881 -0.382680 0.000000
vn 0.923881 -0.382680 0.000000
vn 0.382685 -0.923879 0.000000
vn 0.382685 -0.923879 0.000000
vn 0.382685 -0.923879 0.000000
vn 0.382685 -0.923879 0.000000
vn -0.382685 -0.923879 0.000000
vn -0.382685 -0.923879 0.000000
vn -0.382685 -0.923879 0.000000
vn -0.382685 -0.923879 0.000000
vn -0.923881 -0.382680 0.000000
vn -0.923881 -0.382680 0.000000
vn -0.923881 -0.382680 0.000000
vn -0.923881 -0.382680 0.000000
vn -0.923881 0.382680 0.000000
vn -0.923881 0.382680 0.000000
vn -0.923881 0.382680 0.000000
vn -0.923881 0.382680 0.000000
vn -0.382680 0.923881 0.000000
vn -0.382680 0.923881 0.000000
vn -0.382680 0.923881 0.000000
vn -0.382680 0.923881 0.000000
vn 0.382680 0.923881 0.000000
vn 0.382680 0.923881 0.000000
vn 0.382680 0.923881 0.000000
vn 0.382680 0.923881 0.000000
f 10/1/1 9/2/2 17/3/3 18/4/4
f 11/5/5 10/1/6 18/4/7 19/6/8
f 12/7/9 11/5/10 19/6/11 20/8/12
f 13/9/13 12/7/14 20/8/15 21/10/16
f 14/11/17 13/9/18 21/10/19 22/12/20
f 15/13/21 14/11/22 22/12/23 23/14/24
f 16/15/25 15/13/26 23/14/27 24/16/28
f 9/17/29 16/15/30 24/16/31 17/18/32
f 18/4/33 17/3/34 1/19/35 8/20/36
f 19/6/37 18/4/38 8/20/39 7/21/40
f 20/8/41 19/6/42 7/21/43 6/22/44
f 21/10/45 20/8/46 6/22/47 5/23/48
f 22/12/49 21/10/50 5/23/51 4/24/52
f 23/14/53 22/12/54 4/24/55 3/25/56
f 24/16/57 23/14/58 3/25/59 2/26/60
f 17/18/61 24/16/62 2/26/63 1/27/64
