# This file uses centimeters as units for non-parametric coordinates.

v -0.041001 -0.041001 -0.055041
v -0.057984 0.000000 -0.055041
v -0.041001 0.041001 -0.055041
v -0.000000 0.057984 -0.055041
v 0.041001 0.041001 -0.055041
v 0.057984 0.000000 -0.055041
v 0.041001 -0.041001 -0.055041
v -0.000000 -0.057984 -0.055041
v -0.041001 -0.041001 0.055041
v -0.057984 0.000000 0.055041
v -0.041001 0.041001 0.055041
v -0.000000 0.057984 0.055041
v 0.041001 0.041001 0.055041
v 0.057984 0.000000 0.055041
v 0.041001 -0.041001 0.055041
v -0.000000 -0.057984 0.055041
v -0.049309 -0.049309 -0.055041
v -0.069734 0.000000 -0.055041
v -0.049309 -0.049309 0.055041
v -0.069734 0.000000 0.055041
v -0.049309 0.049309 -0.055041
v -0.049309 0.049309 0.055041
v -0.000000 0.069733 -0.055041
v -0.000000 0.069733 0.055041
v 0.049308 0.049309 -0.055041
v 0.049308 0.049309 0.055041
v 0.069733 0.000000 -0.055041
v 0.069733 0.000000 0.055041
v 0.047540 -0.049258 -0.055041
v 0.047540 -0.049258 0.055041
v -0.000000 -0.069733 -0.055041
v -0.000000 -0.069733 0.055041
v 0.024654 -0.059521 -0.055041
v 0.024654 -0.059521 0.055041
v 0.069733 -0.088353 -0.055041
v 0.069733 -0.088353 0.055041
v 0.024654 -0.088353 -0.055041
v 0.024654 -0.088353 0.055041
vt 0.797786 0.729406
vt 0.797789 0.749202
vt 0.763762 0.749207
vt 0.763759 0.729411
vt 0.797784 0.709610
vt 0.763757 0.709614
vt 0.797781 0.689813
vt 0.763754 0.689818
vt 0.797778 0.670017
vt 0.763751 0.670022
vt 0.797776 0.650221
vt 0.763749 0.650226
vt 0.797792 0.768998
vt 0.797793 0.778896
vt 0.763766 0.778901
vt 0.763765 0.769003
vt 0.830537 0.573657
vt 0.817864 0.578909
vt 0.812248 0.573293
vt 0.830536 0.565715
vt 0.743641 0.578919
vt 0.730966 0.573671
vt 0.730965 0.565729
vt 0.749255 0.573302
vt 0.843211 0.578905
vt 0.848826 0.573289
vt 0.718293 0.578923
vt 0.712677 0.573308
vt 0.848462 0.591578
vt 0.856404 0.591577
vt 0.713046 0.591597
vt 0.705104 0.591598
vt 0.843214 0.604252
vt 0.848831 0.609868
vt 0.718297 0.604270
vt 0.712682 0.609886
vt 0.830542 0.609504
vt 0.830542 0.617445
vt 0.730972 0.609517
vt 0.730973 0.617459
vt 0.817867 0.604256
vt 0.812252 0.609872
vt 0.743644 0.604266
vt 0.749261 0.609881
vt 0.812616 0.591583
vt 0.808463 0.600728
vt 0.804674 0.591584
vt 0.748892 0.591591
vt 0.756834 0.591590
vt 0.753047 0.600735
vt 0.763742 0.600734
vt 0.797769 0.600729
vt 0.797771 0.617450
vt 0.763744 0.617454
vt 0.763740 0.590039
vt 0.797767 0.590035
vn -0.923876 -0.382692 0.000000
vn -0.923876 -0.382692 0.000000
vn -0.923876 -0.382692 0.000000
vn -0.923876 -0.382692 0.000000
vn -0.923881 0.382681 0.000000
vn -0.923881 0.382681 0.000000
vn -0.923881 0.382681 0.000000
vn -0.923881 0.382681 0.000000
vn -0.382682 0.923880 0.000000
vn -0.382682 0.923880 0.000000
vn -0.382682 0.923880 0.000000
vn -0.382682 0.923880 0.000000
vn 0.382682 0.923880 0.000000
vn 0.382682 0.923880 0.000000
vn 0.382682 0.923880 0.000000
vn 0.382682 0.923880 0.000000
vn 0.923881 0.382681 0.000000
vn 0.923881 0.382681 0.000000
vn 0.923881 0.382681 0.000000
vn 0.923881 0.382681 0.000000
vn 0.382676 -0.923883 0.000000
vn 0.382676 -0.923883 0.000000
vn 0.382676 -0.923883 0.000000
vn 0.382676 -0.923883 0.000000
vn -0.382677 -0.923882 0.000000
vn -0.382677 -0.923882 0.000000
vn -0.382677 -0.923882 0.000000
vn -0.382677 -0.923882 0.000000
vn 0.000000 -0.000001 -1.000000
vn 0.000000 -0.000004 -1.000000
vn 0.000000 -0.000004 -1.000000
vn 0.000000 -0.000001 -1.000000
vn 0.000000 -0.000001 1.000000
vn 0.000000 -0.000001 1.000000
vn 0.000000 -0.000001 1.000000
vn 0.000000 -0.000001 1.000000
vn 0.000000 0.000001 -1.000000
vn 0.000000 -0.000001 -1.000000
vn 0.000000 -0.000001 -1.000000
vn 0.000000 0.000001 -1.000000
vn 0.000000 -0.000001 1.000000
vn 0.000000 0.000003 1.000000
vn 0.000000 0.000003 1.000000
vn 0.000000 -0.000001 1.000000
vn 0.000000 0.000002 -1.000000
vn 0.000000 0.000001 -1.000000
vn 0.000000 0.000001 -1.000000
vn 0.000000 0.000002 -1.000000
vn 0.000000 0.000003 1.000000
vn 0.000000 0.000002 1.000000
vn 0.000000 0.000002 1.000000
vn 0.000000 0.000003 1.000000
vn 0.000000 0.000004 -1.000000
vn 0.000000 0.000002 -1.000000
vn 0.000000 0.000002 -1.000000
vn 0.000000 0.000004 -1.000000
vn 0.000000 0.000002 1.000000
vn 0.000000 0.000001 1.000000
vn 0.000000 0.000001 1.000000
vn 0.000000 0.000002 1.000000
vn 0.000000 0.000003 -1.000000
vn 0.000000 0.000004 -1.000000
vn 0.000000 0.000004 -1.000000
vn 0.000000 0.000003 -1.000000
vn 0.000000 0.000001 1.000000
vn 0.000000 0.000001 1.000000
vn 0.000000 0.000001 1.000000
vn 0.000000 0.000001 1.000000
vn 0.000000 -0.000003 -1.000000
vn 0.000000 0.000003 -1.000000
vn 0.000000 0.000003 -1.000000
vn 0.000000 -0.000003 -1.000000
vn 0.000000 0.000001 1.000000
vn 0.000000 -0.000003 1.000000
vn 0.000000 -0.000004 1.000000
vn 0.000000 0.000001 1.000000
vn 0.000000 -0.000006 -1.000000
vn 0.000000 -0.000003 -1.000000
vn 0.000000 -0.000003 -1.000000
vn 0.000000 -0.000007 -1.000000
vn 0.000000 -0.000006 -1.000000
vn 0.000000 -0.000003 1.000000
vn 0.000000 -0.000004 1.000000
vn 0.000000 -0.000004 1.000000
vn 0.000000 -0.000007 1.000000
vn 0.000000 -0.000004 1.000000
vn 0.000000 -0.000004 -1.000000
vn 0.000000 -0.000006 -1.000000
vn 0.000000 -0.000006 -1.000000
vn 0.000000 -0.000004 -1.000000
vn 0.000000 -0.000004 1.000000
vn 0.000000 -0.000001 1.000000
vn 0.000000 -0.000001 1.000000
vn 0.000000 -0.000004 1.000000
vn 0.000013 -1.000000 0.000000
vn 0.000013 -1.000000 0.000000
vn 0.000013 -1.000000 0.000000
vn 0.000013 -1.000000 0.000000
vn 0.000000 0.000000 -1.000000
vn 0.000000 0.000000 -1.000000
vn 0.000000 0.000000 -1.000000
vn 1.000000 -0.000000 0.000000
vn 1.000000 -0.000000 0.000000
vn 1.000000 -0.000000 0.000000
vn 1.000000 -0.000000 0.000000
vn 0.000000 0.000000 1.000000
vn 0.000000 0.000000 1.000000
vn 0.000000 0.000000 1.000000
vn -1.000000 0.000000 0.000000
vn -1.000000 0.000000 0.000000
vn -1.000000 0.000000 0.000000
vn -1.000000 0.000000 0.000000
vn 0.000000 -0.000006 -1.000000
vn 0.000000 -0.000006 -1.000000
vn 0.000000 -0.000006 -1.000000
vn 0.000000 -0.000006 -1.000000
vn 0.000000 0.000003 1.000000
vn 0.000000 0.000003 1.000000
vn 0.000000 0.000003 1.000000
vn 0.000000 0.000003 1.000000
f 18/1/1 17/2/2 19/3/3 20/4/4
f 21/5/5 18/1/6 20/4/7 22/6/8
f 23/7/9 21/5/10 22/6/11 24/8/12
f 25/9/13 23/7/14 24/8/15 26/10/16
f 27/11/17 25/9/18 26/10/19 28/12/20
f 31/13/21 33/14/22 34/15/23 32/16/24
f 17/2/25 31/13/26 32/16/27 19/3/28
f 2/17/29 1/18/30 17/19/31 18/20/32
f 9/21/33 10/22/34 20/23/35 19/24/36
f 3/25/37 2/17/38 18/20/39 21/26/40
f 10/22/41 11/27/42 22/28/43 20/23/44
f 4/29/45 3/25/46 21/26/47 23/30/48
f 11/27/49 12/31/50 24/32/51 22/28/52
f 5/33/53 4/29/54 23/30/55 25/34/56
f 12/31/57 13/35/58 26/36/59 24/32/60
f 6/37/61 5/33/62 25/34/63 27/38/64
f 13/35/65 14/39/66 28/40/67 26/36/68
f 7/41/69 6/37/70 27/38/71 29/42/72
f 14/39/73 15/43/74 30/44/75 28/40/76
f 8/45/77 7/41/78 29/42/79 33/46/80 31/47/81
f 15/43/82 16/48/83 32/49/84 34/50/85 30/44/86
f 1/18/87 8/45/88 31/47/89 17/19/90
f 16/48/91 9/21/92 19/24/93 32/49/94
f 38/51/95 37/52/96 35/53/97 36/54/98
f 29/42/99 27/38/100 35/53/101
f 27/11/102 28/12/103 36/54/104 35/53/105
f 28/40/106 30/44/107 36/54/108
f 34/55/109 33/56/110 37/52/111 38/51/112
f 33/46/113 29/42/114 35/53/115 37/52/116
f 30/44/117 34/50/118 38/51/119 36/54/120
