# This file uses centimeters as units for non-parametric coordinates.

v -0.174451 0.041163 -0.202215
v -0.174451 0.017050 -0.178103
v -0.174451 -0.017050 -0.178103
v -0.174451 -0.041163 -0.202215
v -0.174451 -0.041163 -0.236314
v -0.174451 -0.017050 -0.260426
v -0.174451 0.017050 -0.260426
v -0.174451 0.041163 -0.236314
v -0.125497 0.041163 -0.200302
v -0.128168 0.017050 -0.176338
v -0.128168 -0.017050 -0.176338
v -0.125497 -0.041163 -0.200302
v -0.121718 -0.041163 -0.234192
v -0.119047 -0.017050 -0.258156
v -0.119047 0.017050 -0.258156
v -0.121718 0.041163 -0.234192
v -0.079744 0.041163 -0.189797
v -0.088522 0.017050 -0.167339
v -0.088522 -0.017050 -0.167339
v -0.079744 -0.041163 -0.189797
v -0.067330 -0.041163 -0.221557
v -0.058552 -0.017050 -0.244015
v -0.058552 0.017050 -0.244015
v -0.067330 0.041163 -0.221557
v -0.044613 0.041163 -0.166127
v -0.062970 0.017050 -0.150493
v -0.062970 -0.017050 -0.150493
v -0.044613 -0.041163 -0.166127
v -0.018652 -0.041163 -0.188238
v -0.000295 -0.017050 -0.203872
v -0.000295 0.017050 -0.203872
v -0.018652 0.041163 -0.188238
v -0.023659 0.041163 -0.123220
v -0.046842 0.017050 -0.116590
v -0.046842 -0.017050 -0.116590
v -0.023659 -0.041163 -0.123220
v 0.009128 -0.041163 -0.132594
v 0.032311 -0.017050 -0.139223
v 0.032311 0.017050 -0.139223
v 0.009127 0.041163 -0.132594
v -0.014575 0.041163 -0.071246
v -0.038589 0.017050 -0.069068
v -0.038589 -0.017050 -0.069068
v -0.014575 -0.041163 -0.071246
v 0.019386 -0.041163 -0.074327
v 0.043400 -0.017050 -0.076506
v 0.043400 0.017050 -0.076506
v 0.019386 0.041163 -0.074327
v -0.012601 0.041163 -0.017583
v -0.036713 0.017050 -0.017583
v -0.036713 -0.017050 -0.017583
v -0.012601 -0.041163 -0.017583
v 0.021500 -0.041163 -0.017583
v 0.045612 -0.017050 -0.017583
v 0.045612 0.017050 -0.017583
v 0.021500 0.041163 -0.017583
v -0.174451 0.058405 -0.195073
v -0.174451 0.024192 -0.160862
v -0.174451 -0.024192 -0.160862
v -0.174451 -0.058405 -0.195073
v -0.174451 -0.058405 -0.243456
v -0.174451 -0.024192 -0.277668
v -0.174451 0.024192 -0.277668
v -0.174451 0.058405 -0.243456
v -0.192173 0.058405 -0.195073
v -0.192173 0.024192 -0.160862
v -0.192173 -0.024192 -0.160862
v -0.192173 -0.058405 -0.195073
v -0.192173 -0.058405 -0.243456
v -0.192173 -0.024192 -0.277668
v -0.192173 0.024192 -0.277668
v -0.192173 0.058405 -0.243456
v -0.192173 0.046087 -0.200176
v -0.192173 0.019090 -0.173179
v -0.192173 -0.019090 -0.173179
v -0.192173 -0.046087 -0.200176
v -0.192173 -0.046087 -0.238354
v -0.192173 -0.019090 -0.265350
v -0.192173 0.019090 -0.265350
v -0.192173 0.046087 -0.238354
v -0.053720 0.024095 -0.017583
v -0.019645 0.058170 -0.017583
v -0.053720 -0.024095 -0.017583
v -0.019645 -0.058170 -0.017583
v 0.028544 -0.058170 -0.017583
v 0.062619 -0.024095 -0.017583
v 0.062619 0.024095 -0.017583
v 0.028544 0.058170 -0.017583
v -0.053720 0.024095 -0.000000
v -0.019645 0.058170 -0.000000
v -0.053720 -0.024095 -0.000000
v -0.019645 -0.058170 -0.000000
v 0.028544 -0.058170 -0.000000
v 0.062619 -0.024095 -0.000000
v 0.062619 0.024095 -0.000000
v 0.028544 0.058170 -0.000000
v -0.043393 0.019817 -0.000000
v -0.015368 0.047842 -0.000000
v -0.043393 -0.019817 -0.000000
v -0.015368 -0.047842 -0.000000
v 0.024266 -0.047842 -0.000000
v 0.052292 -0.019817 -0.000000
v 0.052292 0.019817 -0.000000
v 0.024266 0.047842 -0.000000
vt 0.025035 0.815086
vt 0.197548 0.557505
vt 0.049224 0.799766
vt 0.047643 0.815536
vt 0.197551 0.541603
vt 0.047677 0.783902
vt 0.208797 0.530360
vt 0.042623 0.768727
vt 0.224698 0.530363
vt 0.036395 0.753907
vt 0.235940 0.541609
vt 0.031099 0.738762
vt 0.002602 0.729459
vt 0.027394 0.723234
vt 0.224692 0.568754
vt 0.046039 0.831278
vt 0.070069 0.798399
vt 0.068813 0.815093
vt 0.068806 0.781107
vt 0.064969 0.764495
vt 0.060517 0.748794
vt 0.056862 0.733250
vt 0.054495 0.717591
vt 0.067695 0.830931
vt 0.086468 0.797607
vt 0.087340 0.814859
vt 0.085805 0.779954
vt 0.085721 0.762543
vt 0.085673 0.746155
vt 0.085439 0.730322
vt 0.084846 0.714729
vt 0.088173 0.831280
vt 0.106380 0.797074
vt 0.108261 0.813384
vt 0.106506 0.780230
vt 0.109152 0.763687
vt 0.112500 0.747655
vt 0.115099 0.731717
vt 0.116333 0.715675
vt 0.110081 0.829136
vt 0.130787 0.797598
vt 0.132224 0.813301
vt 0.131452 0.781815
vt 0.134663 0.766268
vt 0.138834 0.750810
vt 0.142417 0.735127
vt 0.144740 0.719148
vt 0.133638 0.829044
vt 0.799371 0.978350
vt 0.788127 0.967105
vt 0.815273 0.978351
vt 0.826518 0.967107
vt 0.826519 0.951205
vt 0.815275 0.939960
vt 0.799373 0.939959
vt 0.788128 0.951203
vt 0.205458 0.576791
vt 0.189507 0.560834
vt 0.189511 0.538271
vt 0.205468 0.522319
vt 0.228030 0.522323
vt 0.243981 0.538280
vt 0.243977 0.560843
vt 0.228021 0.576795
vt 0.205457 0.585055
vt 0.183662 0.566676
vt 0.181247 0.538269
vt 0.199625 0.516474
vt 0.228032 0.514059
vt 0.252246 0.538282
vt 0.252242 0.560845
vt 0.228019 0.585059
vt 0.207835 0.590800
vt 0.181282 0.572420
vt 0.175502 0.540648
vt 0.193881 0.514094
vt 0.225653 0.508314
vt 0.252207 0.526694
vt 0.257986 0.558466
vt 0.239607 0.585020
vt 0.796086 0.986281
vt 0.780197 0.970390
vt 0.818558 0.986282
vt 0.834449 0.970393
vt 0.834450 0.947921
vt 0.818561 0.932029
vt 0.796089 0.932028
vt 0.780198 0.947917
vt 0.796085 0.994480
vt 0.774398 0.976187
vt 0.824355 0.992080
vt 0.842648 0.970393
vt 0.840248 0.942123
vt 0.818561 0.923830
vt 0.790291 0.926230
vt 0.771998 0.947917
vt 0.798080 0.999296
vt 0.772403 0.981003
vt 0.829171 0.994075
vt 0.847464 0.968399
vt 0.842244 0.937307
vt 0.816567 0.919014
vt 0.785476 0.924235
vt 0.767183 0.949911
vt 0.006810 0.745801
vt 0.235938 0.557511
vt 0.000000 0.713401
vt 0.022814 0.830333
vt 0.208790 0.568751
vt 0.774400 0.942119
vt 0.772406 0.937303
vt 0.796089 0.923829
vt 0.798084 0.919013
vt 0.824359 0.926232
vt 0.829175 0.924237
vt 0.842650 0.947921
vt 0.847465 0.949916
vt 0.840246 0.976191
vt 0.842241 0.981007
vt 0.818558 0.994481
vt 0.816562 0.999297
vt 0.771997 0.970389
vt 0.767181 0.968394
vt 0.790288 0.992078
vt 0.785472 0.994073
vt 0.233863 0.582640
vt 0.225639 0.590803
vt 0.249820 0.566688
vt 0.252199 0.572432
vt 0.249826 0.532438
vt 0.257989 0.540662
vt 0.233875 0.516480
vt 0.239620 0.514102
vt 0.205469 0.514055
vt 0.207850 0.508311
vt 0.183668 0.532426
vt 0.181290 0.526681
vt 0.181243 0.560832
vt 0.175499 0.558452
vt 0.199613 0.582634
vt 0.193869 0.585012
vt 0.157069 0.812850
vt 0.158934 0.828279
vt 0.173283 0.707294
vt 0.171823 0.723427
vt 0.146201 0.703351
vt 0.168955 0.739879
vt 0.164566 0.755667
vt 0.159754 0.770418
vt 0.156525 0.784428
vt 0.155494 0.798342
vt 0.116561 0.699952
vt 0.084110 0.698711
vt 0.053124 0.702093
vt 0.024941 0.707637
vt 0.013392 0.761160
vt 0.020515 0.775015
vt 0.025655 0.787930
vt 0.026569 0.801094
vn -0.027317 0.706505 0.707181
vn -0.027317 0.706505 0.707181
vn -0.027317 0.706505 0.707181
vn -0.027317 0.706505 0.707181
vn -0.038119 0.000000 0.999273
vn -0.038119 0.000000 0.999273
vn -0.038119 0.000000 0.999273
vn -0.038119 0.000000 0.999273
vn -0.027317 -0.706505 0.707181
vn -0.027317 -0.706505 0.707181
vn -0.027317 -0.706505 0.707181
vn -0.027317 -0.706505 0.707181
vn 0.000000 -1.000000 -0.000000
vn 0.000000 -1.000000 -0.000000
vn 0.000000 -1.000000 -0.000000
vn 0.000000 -1.000000 -0.000000
vn 0.028718 -0.706516 -0.707114
vn 0.028718 -0.706516 -0.707114
vn 0.028718 -0.706516 -0.707114
vn 0.028718 -0.706516 -0.707114
vn 0.040933 0.000000 -0.999162
vn 0.040933 0.000000 -0.999162
vn 0.040933 0.000000 -0.999162
vn 0.040933 0.000000 -0.999162
vn 0.028718 0.706516 -0.707114
vn 0.028718 0.706516 -0.707114
vn 0.028718 0.706516 -0.707114
vn 0.028718 0.706516 -0.707114
vn 0.000000 1.000000 0.000000
vn 0.000000 1.000000 0.000000
vn 0.000000 1.000000 0.000000
vn 0.000000 1.000000 0.000000
vn -0.158126 0.704014 0.692359
vn -0.158126 0.704014 0.692359
vn -0.158126 0.704014 0.692359
vn -0.158126 0.704014 0.692359
vn -0.221352 0.000000 0.975194
vn -0.221352 0.000000 0.975194
vn -0.221352 0.000000 0.975194
vn -0.221352 0.000000 0.975194
vn -0.158126 -0.704014 0.692359
vn -0.158126 -0.704014 0.692359
vn -0.158126 -0.704014 0.692359
vn -0.158126 -0.704014 0.692359
vn -0.000000 -1.000000 -0.000000
vn -0.000000 -1.000000 -0.000000
vn -0.000000 -1.000000 -0.000000
vn -0.000000 -1.000000 -0.000000
vn 0.161199 -0.704037 -0.691626
vn 0.161199 -0.704037 -0.691626
vn 0.161199 -0.704037 -0.691626
vn 0.161199 -0.704037 -0.691626
vn 0.227621 0.000000 -0.973750
vn 0.227621 0.000000 -0.973750
vn 0.227621 0.000000 -0.973750
vn 0.227621 0.000000 -0.973750
vn 0.161199 0.704037 -0.691626
vn 0.161199 0.704037 -0.691626
vn 0.161199 0.704037 -0.691626
vn 0.161199 0.704037 -0.691626
vn -0.000000 1.000000 0.000000
vn -0.000000 1.000000 0.000000
vn -0.000000 1.000000 0.000000
vn -0.000000 1.000000 0.000000
vn -0.398692 0.696021 0.597160
vn -0.398692 0.696020 0.597160
vn -0.398692 0.696020 0.597160
vn -0.398692 0.696021 0.597160
vn -0.550417 0.000000 0.834890
vn -0.550417 0.000000 0.834890
vn -0.550417 0.000000 0.834890
vn -0.550417 0.000000 0.834890
vn -0.398691 -0.696021 0.597160
vn -0.398691 -0.696021 0.597160
vn -0.398691 -0.696021 0.597160
vn -0.398691 -0.696021 0.597160
vn 0.000000 -1.000000 -0.000000
vn 0.000000 -1.000000 -0.000000
vn 0.000000 -1.000000 -0.000000
vn 0.000000 -1.000000 -0.000000
vn 0.406509 -0.696133 -0.591734
vn 0.406509 -0.696133 -0.591734
vn 0.406509 -0.696133 -0.591734
vn 0.406509 -0.696133 -0.591734
vn 0.567403 0.000000 -0.823440
vn 0.567403 0.000000 -0.823440
vn 0.567403 0.000000 -0.823440
vn 0.567403 0.000000 -0.823440
vn 0.406509 0.696133 -0.591734
vn 0.406509 0.696133 -0.591734
vn 0.406509 0.696133 -0.591734
vn 0.406509 0.696133 -0.591734
vn -0.000000 1.000000 0.000000
vn -0.000000 1.000000 0.000000
vn -0.000000 1.000000 0.000000
vn -0.000000 1.000000 0.000000
vn -0.644335 0.698624 0.311060
vn -0.644335 0.698624 0.311060
vn -0.644335 0.698624 0.311060
vn -0.644335 0.698624 0.311060
vn -0.903033 0.000000 0.429572
vn -0.903033 0.000000 0.429572
vn -0.903033 0.000000 0.429572
vn -0.903033 0.000000 0.429572
vn -0.644334 -0.698624 0.311059
vn -0.644334 -0.698624 0.311059
vn -0.644334 -0.698624 0.311059
vn -0.644334 -0.698624 0.311059
vn 0.000000 -1.000000 -0.000000
vn 0.000000 -1.000000 -0.000000
vn 0.000000 -1.000000 -0.000000
vn 0.000000 -1.000000 -0.000000
vn 0.639278 -0.698814 -0.320908
vn 0.639278 -0.698814 -0.320908
vn 0.639278 -0.698814 -0.320908
vn 0.639278 -0.698814 -0.320908
vn 0.892869 0.000000 -0.450317
vn 0.892869 0.000000 -0.450317
vn 0.892869 0.000000 -0.450317
vn 0.892869 0.000000 -0.450317
vn 0.639278 0.698815 -0.320907
vn 0.639278 0.698815 -0.320907
vn 0.639278 0.698815 -0.320907
vn 0.639278 0.698815 -0.320907
vn -0.000000 1.000000 0.000000
vn -0.000000 1.000000 0.000000
vn -0.000000 1.000000 0.000000
vn -0.000000 1.000000 0.000000
vn -0.698175 0.705515 0.121655
vn -0.698175 0.705515 0.121655
vn -0.698175 0.705515 0.121655
vn -0.698175 0.705515 0.121655
vn -0.985253 0.000000 0.171105
vn -0.985253 0.000000 0.171105
vn -0.985253 0.000000 0.171105
vn -0.985253 0.000000 0.171105
vn -0.698175 -0.705515 0.121655
vn -0.698175 -0.705515 0.121655
vn -0.698175 -0.705515 0.121655
vn -0.698175 -0.705515 0.121655
vn 0.000000 -1.000000 -0.000000
vn 0.000000 -1.000000 -0.000000
vn 0.000000 -1.000000 -0.000000
vn 0.000000 -1.000000 -0.000000
vn 0.697908 -0.705522 -0.123141
vn 0.697908 -0.705522 -0.123141
vn 0.697908 -0.705522 -0.123141
vn 0.697908 -0.705522 -0.123141
vn 0.984727 0.000000 -0.174105
vn 0.984727 0.000000 -0.174105
vn 0.984727 0.000000 -0.174105
vn 0.984727 0.000000 -0.174105
vn 0.697906 0.705523 -0.123142
vn 0.697906 0.705523 -0.123142
vn 0.697906 0.705523 -0.123142
vn 0.697906 0.705523 -0.123142
vn -0.000000 1.000000 0.000000
vn -0.000000 1.000000 0.000000
vn -0.000000 1.000000 0.000000
vn -0.000000 1.000000 0.000000
vn -0.707007 0.706733 0.025888
vn -0.707007 0.706733 0.025888
vn -0.707007 0.706733 0.025888
vn -0.707007 0.706733 0.025888
vn -0.999337 0.000000 0.036409
vn -0.999337 0.000000 0.036409
vn -0.999337 0.000000 0.036409
vn -0.999337 0.000000 0.036409
vn -0.707006 -0.706733 0.025888
vn -0.707006 -0.706733 0.025888
vn -0.707006 -0.706733 0.025888
vn -0.707007 -0.706733 0.025888
vn 0.000000 -1.000000 -0.000000
vn 0.000000 -1.000000 -0.000000
vn 0.000000 -1.000000 -0.000000
vn 0.000000 -1.000000 -0.000000
vn 0.706986 -0.706733 -0.026443
vn 0.706986 -0.706733 -0.026443
vn 0.706986 -0.706733 -0.026443
vn 0.706986 -0.706733 -0.026443
vn 0.999296 0.000000 -0.037521
vn 0.999296 0.000000 -0.037521
vn 0.999296 0.000000 -0.037521
vn 0.999296 0.000000 -0.037521
vn 0.706986 0.706733 -0.026443
vn 0.706986 0.706733 -0.026443
vn 0.706986 0.706733 -0.026443
vn 0.706986 0.706733 -0.026443
vn -0.000000 1.000000 0.000000
vn -0.000000 1.000000 0.000000
vn -0.000000 1.000000 0.000000
vn -0.000000 1.000000 0.000000
vn 1.000000 0.000000 0.000004
vn 1.000000 0.000000 0.000004
vn 1.000000 0.000000 0.000004
vn 1.000000 0.000000 0.000004
vn 1.000000 0.000000 -0.000002
vn 1.000000 0.000000 -0.000002
vn 1.000000 0.000000 -0.000002
vn 1.000000 0.000000 -0.000002
vn 1.000000 0.000000 0.000000
vn 1.000000 0.000000 0.000000
vn 1.000000 0.000000 0.000000
vn 1.000000 0.000000 0.000000
vn 1.000000 0.000000 0.000000
vn 1.000000 0.000000 0.000000
vn 1.000000 0.000000 0.000000
vn 1.000000 0.000000 0.000000
vn 1.000000 0.000000 -0.000001
vn 1.000000 0.000000 -0.000001
vn 1.000000 0.000000 -0.000001
vn 1.000000 0.000000 -0.000001
vn 1.000000 0.000000 -0.000007
vn 1.000000 0.000000 -0.000007
vn 1.000000 0.000000 -0.000007
vn 1.000000 0.000000 -0.000007
vn 1.000000 0.000000 -0.000007
vn 1.000000 0.000000 -0.000007
vn 1.000000 0.000000 -0.000007
vn 1.000000 0.000000 -0.000007
vn 1.000000 0.000000 -0.000001
vn 1.000000 0.000000 -0.000001
vn 1.000000 0.000000 -0.000001
vn 1.000000 0.000000 -0.000001
vn 0.000000 0.707095 0.707119
vn 0.000000 0.707095 0.707119
vn 0.000000 0.707095 0.707119
vn 0.000000 0.707095 0.707119
vn 0.000000 0.000000 1.000000
vn 0.000000 0.000000 1.000000
vn 0.000000 0.000000 1.000000
vn 0.000000 0.000000 1.000000
vn 0.000000 -0.707095 0.707119
vn 0.000000 -0.707095 0.707119
vn 0.000000 -0.707095 0.707119
vn 0.000000 -0.707095 0.707119
vn 0.000000 -1.000000 0.000000
vn 0.000000 -1.000000 0.000000
vn 0.000000 -1.000000 0.000000
vn 0.000000 -1.000000 0.000000
vn 0.000000 -0.707095 -0.707119
vn 0.000000 -0.707095 -0.707119
vn 0.000000 -0.707095 -0.707119
vn 0.000000 -0.707095 -0.707119
vn -0.000000 0.000000 -1.000000
vn -0.000000 0.000000 -1.000000
vn -0.000000 0.000000 -1.000000
vn -0.000000 0.000000 -1.000000
vn -0.000000 0.707095 -0.707119
vn -0.000000 0.707095 -0.707119
vn -0.000000 0.707095 -0.707119
vn -0.000000 0.707095 -0.707119
vn 0.000000 1.000000 0.000000
vn 0.000000 1.000000 0.000000
vn 0.000000 1.000000 0.000000
vn 0.000000 1.000000 0.000000
vn -1.000000 0.000000 0.000009
vn -1.000000 0.000000 0.000009
vn -1.000000 0.000000 0.000009
vn -1.000000 0.000000 0.000009
vn -1.000000 0.000000 -0.000009
vn -1.000000 0.000000 -0.000009
vn -1.000000 0.000000 -0.000009
vn -1.000000 0.000000 -0.000009
vn -1.000000 0.000000 -0.000002
vn -1.000000 0.000000 -0.000002
vn -1.000000 0.000000 -0.000002
vn -1.000000 0.000000 -0.000002
vn -1.000000 0.000000 0.000000
vn -1.000000 0.000000 0.000000
vn -1.000000 0.000000 0.000000
vn -1.000000 0.000000 0.000000
vn -1.000000 0.000000 -0.000006
vn -1.000000 0.000000 -0.000006
vn -1.000000 0.000000 -0.000006
vn -1.000000 0.000000 -0.000006
vn -1.000000 0.000000 0.000009
vn -1.000000 0.000000 0.000009
vn -1.000000 0.000000 0.000009
vn -1.000000 0.000000 0.000009
vn -1.000000 0.000000 0.000002
vn -1.000000 0.000000 0.000002
vn -1.000000 0.000000 0.000002
vn -1.000000 0.000000 0.000002
vn -1.000000 0.000000 -0.000001
vn -1.000000 0.000000 -0.000001
vn -1.000000 0.000000 -0.000001
vn -1.000000 0.000000 -0.000001
vn 0.000000 -0.000000 -1.000000
vn 0.000000 -0.000000 -1.000000
vn 0.000000 -0.000000 -1.000000
vn 0.000000 -0.000000 -1.000000
vn -0.000000 0.000000 -1.000000
vn -0.000000 0.000000 -1.000000
vn -0.000000 0.000000 -1.000000
vn -0.000000 0.000000 -1.000000
vn -0.000000 0.000000 -1.000000
vn -0.000000 0.000000 -1.000000
vn -0.000000 0.000000 -1.000000
vn -0.000000 0.000000 -1.000000
vn 0.000000 -0.000000 -1.000000
vn 0.000000 -0.000000 -1.000000
vn 0.000000 -0.000000 -1.000000
vn 0.000000 -0.000000 -1.000000
vn 0.000000 -0.000000 -1.000000
vn 0.000000 -0.000000 -1.000000
vn 0.000000 -0.000000 -1.000000
vn 0.000000 -0.000000 -1.000000
vn -0.000000 0.000000 -1.000000
vn -0.000000 0.000000 -1.000000
vn -0.000000 0.000000 -1.000000
vn -0.000000 0.000000 -1.000000
vn -0.000000 0.000000 -1.000000
vn -0.000000 0.000000 -1.000000
vn -0.000000 0.000000 -1.000000
vn -0.000000 0.000000 -1.000000
vn -0.000000 0.000000 -1.000000
vn -0.000000 0.000000 -1.000000
vn -0.000000 0.000000 -1.000000
vn -0.000000 0.000000 -1.000000
vn -0.707106 0.707108 0.000000
vn -0.707106 0.707108 0.000000
vn -0.707106 0.707108 0.000000
vn -0.707106 0.707108 0.000000
vn -1.000000 0.000000 0.000000
vn -1.000000 0.000000 0.000000
vn -1.000000 0.000000 0.000000
vn -1.000000 0.000000 0.000000
vn -0.707106 -0.707108 0.000000
vn -0.707106 -0.707108 0.000000
vn -0.707106 -0.707108 0.000000
vn -0.707106 -0.707108 0.000000
vn 0.000000 -1.000000 0.000000
vn 0.000000 -1.000000 0.000000
vn 0.000000 -1.000000 0.000000
vn 0.000000 -1.000000 0.000000
vn 0.707107 -0.707107 0.000000
vn 0.707107 -0.707107 0.000000
vn 0.707107 -0.707107 0.000000
vn 0.707107 -0.707107 0.000000
vn 1.000000 0.000000 0.000000
vn 1.000000 0.000000 0.000000
vn 1.000000 0.000000 0.000000
vn 1.000000 0.000000 0.000000
vn 0.707107 0.707107 0.000000
vn 0.707107 0.707107 0.000000
vn 0.707107 0.707107 0.000000
vn 0.707107 0.707107 0.000000
vn -0.000000 1.000000 0.000000
vn -0.000000 1.000000 0.000000
vn -0.000000 1.000000 0.000000
vn -0.000000 1.000000 0.000000
vn 0.000000 0.000001 1.000000
vn 0.000000 0.000001 1.000000
vn 0.000000 0.000001 1.000000
vn 0.000000 0.000001 1.000000
vn 0.000000 0.000000 1.000000
vn 0.000000 0.000000 1.000000
vn 0.000000 0.000000 1.000000
vn 0.000000 0.000000 1.000000
vn 0.000000 -0.000001 1.000000
vn 0.000000 -0.000001 1.000000
vn 0.000000 -0.000001 1.000000
vn 0.000000 -0.000001 1.000000
vn 0.000000 -0.000002 1.000000
vn 0.000000 -0.000002 1.000000
vn 0.000000 -0.000002 1.000000
vn 0.000000 -0.000002 1.000000
vn 0.000000 -0.000000 1.000000
vn 0.000000 -0.000000 1.000000
vn 0.000000 -0.000000 1.000000
vn 0.000000 -0.000000 1.000000
vn 0.000000 0.000000 1.000000
vn 0.000000 0.000000 1.000000
vn 0.000000 0.000000 1.000000
vn 0.000000 0.000000 1.000000
vn 0.000000 0.000000 1.000000
vn 0.000000 0.000000 1.000000
vn 0.000000 0.000000 1.000000
vn 0.000000 0.000000 1.000000
vn 0.000000 0.000002 1.000000
vn 0.000000 0.000002 1.000000
vn 0.000000 0.000002 1.000000
vn 0.000000 0.000002 1.000000
f 1/1/1 2/159/2 10/3/3 9/4/4
f 2/159/5 3/158/6 11/6/7 10/3/8
f 3/158/9 4/157/10 12/8/11 11/6/12
f 4/157/13 5/156/14 13/10/15 12/8/16
f 5/156/17 6/105/18 14/12/19 13/10/20
f 14/12/21 6/105/22 7/13/23 15/14/24
f 7/13/25 8/107/26 16/155/27 15/14/28
f 16/16/29 8/108/30 1/1/31 9/4/32
f 9/4/33 10/3/34 18/17/35 17/18/36
f 10/3/37 11/6/38 19/19/39 18/17/40
f 11/6/41 12/8/42 20/20/43 19/19/44
f 12/8/45 13/10/46 21/21/47 20/20/48
f 13/10/49 14/12/50 22/22/51 21/21/52
f 22/22/53 14/12/54 15/14/55 23/23/56
f 15/14/57 16/155/58 24/154/59 23/23/60
f 24/24/61 16/16/62 9/4/63 17/18/64
f 17/18/65 18/17/66 26/25/67 25/26/68
f 18/17/69 19/19/70 27/27/71 26/25/72
f 19/19/73 20/20/74 28/28/75 27/27/76
f 20/20/77 21/21/78 29/29/79 28/28/80
f 21/21/81 22/22/82 30/30/83 29/29/84
f 30/30/85 22/22/86 23/23/87 31/31/88
f 23/23/89 24/154/90 32/153/91 31/31/92
f 32/32/93 24/24/94 17/18/95 25/26/96
f 25/26/97 26/25/98 34/33/99 33/34/100
f 26/25/101 27/27/102 35/35/103 34/33/104
f 27/27/105 28/28/106 36/36/107 35/35/108
f 28/28/109 29/29/110 37/37/111 36/36/112
f 29/29/113 30/30/114 38/38/115 37/37/116
f 38/38/117 30/30/118 31/31/119 39/39/120
f 31/31/121 32/153/122 40/152/123 39/39/124
f 40/40/125 32/32/126 25/26/127 33/34/128
f 33/34/129 34/33/130 42/41/131 41/42/132
f 34/33/133 35/35/134 43/43/135 42/41/136
f 35/35/137 36/36/138 44/44/139 43/43/140
f 36/36/141 37/37/142 45/45/143 44/44/144
f 37/37/145 38/38/146 46/46/147 45/45/148
f 46/46/149 38/38/150 39/39/151 47/47/152
f 39/39/153 40/152/154 48/146/155 47/47/156
f 48/48/157 40/40/158 33/34/159 41/42/160
f 41/42/161 42/41/162 50/151/163 49/142/164
f 42/41/165 43/43/166 51/150/167 50/151/168
f 43/43/169 44/44/170 52/149/171 51/150/172
f 44/44/173 45/45/174 53/148/175 52/149/176
f 45/45/177 46/46/178 54/147/179 53/148/180
f 54/147/181 46/46/182 47/47/183 55/145/184
f 47/47/185 48/146/186 56/144/187 55/145/188
f 56/143/189 48/48/190 41/42/191 49/142/192
f 2/2/193 1/109/194 57/57/195 58/58/196
f 3/5/197 2/2/198 58/58/199 59/59/200
f 4/7/201 3/5/202 59/59/203 60/60/204
f 5/9/205 4/7/206 60/60/207 61/61/208
f 6/11/209 5/9/210 61/61/211 62/62/212
f 6/11/213 62/62/214 63/63/215 7/106/216
f 8/15/217 7/106/218 63/63/219 64/64/220
f 8/15/221 64/64/222 57/57/223 1/109/224
f 58/58/225 57/57/226 65/140/227 66/66/228
f 59/59/229 58/58/230 66/138/231 67/67/232
f 60/60/233 59/59/234 67/136/235 68/68/236
f 61/61/237 60/60/238 68/134/239 69/69/240
f 62/62/241 61/61/242 69/132/243 70/130/244
f 62/62/245 70/70/246 71/71/247 63/63/248
f 64/64/249 63/63/250 71/128/251 72/126/252
f 64/64/253 72/72/254 65/65/255 57/57/256
f 66/66/257 65/140/258 73/141/259 74/74/260
f 67/67/261 66/138/262 74/139/263 75/75/264
f 68/68/265 67/136/266 75/137/267 76/76/268
f 69/69/269 68/134/270 76/135/271 77/77/272
f 70/130/273 69/132/274 77/133/275 78/78/276
f 70/70/277 78/131/278 79/79/279 71/71/280
f 72/126/281 71/128/282 79/129/283 80/80/284
f 72/72/285 80/127/286 73/73/287 65/65/288
f 49/50/289 50/49/290 81/81/291 82/82/292
f 50/49/293 51/51/294 83/83/295 81/81/296
f 51/51/297 52/52/298 84/84/299 83/83/300
f 52/52/301 53/53/302 85/85/303 84/84/304
f 53/53/305 54/54/306 86/86/307 85/85/308
f 86/86/309 54/54/310 55/55/311 87/87/312
f 55/55/313 56/56/314 88/88/315 87/87/316
f 88/88/317 56/56/318 49/50/319 82/82/320
f 82/82/321 81/81/322 89/124/323 90/90/324
f 81/81/325 83/83/326 91/120/327 89/89/328
f 83/83/329 84/84/330 92/118/331 91/91/332
f 84/84/333 85/85/334 93/116/335 92/92/336
f 85/85/337 86/86/338 94/114/339 93/93/340
f 94/94/341 86/86/342 87/87/343 95/112/344
f 87/87/345 88/88/346 96/110/347 95/95/348
f 96/96/349 88/88/350 82/82/351 90/122/352
f 90/90/353 89/124/354 97/125/355 98/98/356
f 89/89/357 91/120/358 99/121/359 97/97/360
f 91/91/361 92/118/362 100/119/363 99/99/364
f 92/92/365 93/116/366 101/117/367 100/100/368
f 93/93/369 94/114/370 102/115/371 101/101/372
f 103/113/373 102/102/374 94/94/375 95/112/376
f 95/95/377 96/110/378 104/111/379 103/103/380
f 98/123/381 104/104/382 96/96/383 90/122/384
