# This file uses centimeters as units for non-parametric coordinates.

v 0.041002 0.041001 0.550416
v 0.000001 0.057984 0.550416
v -0.041000 0.041001 0.550416
v -0.057984 -0.000000 0.550416
v -0.041000 -0.041001 0.550416
v 0.000001 -0.057984 0.550416
v 0.041002 -0.041001 0.550416
v 0.057984 -0.000000 0.550416
v 0.041002 0.041001 -0.550416
v 0.057984 -0.000000 -0.550416
v 0.041002 -0.041001 -0.550416
v 0.000001 -0.057984 -0.550416
v -0.041000 -0.041001 -0.550416
v -0.057984 -0.000000 -0.550416
v -0.041000 0.041001 -0.550416
v 0.000001 0.057984 -0.550416
v 0.041002 0.041001 0.000000
v 0.057984 -0.000000 0.000000
v 0.041002 -0.041001 0.000000
v 0.000001 -0.057984 0.000000
v -0.041000 -0.041001 0.000000
v -0.057984 -0.000000 0.000000
v -0.041000 0.041001 0.000000
v 0.000001 0.057984 0.000000
vt 0.636839 0.006278
vt 0.652400 0.006273
vt 0.652470 0.199269
vt 0.636909 0.199275
vt 0.621278 0.006284
vt 0.621348 0.199281
vt 0.605717 0.006289
vt 0.605787 0.199286
vt 0.590156 0.006295
vt 0.590226 0.199292
vt 0.574595 0.006301
vt 0.574665 0.199297
vt 0.559034 0.006306
vt 0.559104 0.199303
vt 0.543473 0.006312
vt 0.543543 0.199309
vt 0.527912 0.006317
vt 0.527982 0.199314
vt 0.652539 0.392266
vt 0.636978 0.392272
vt 0.621417 0.392277
vt 0.605856 0.392283
vt 0.590295 0.392289
vt 0.574734 0.392294
vt 0.559173 0.392300
vt 0.543612 0.392305
vt 0.528051 0.392311
vn 0.923889 0.382660 0.000000
vn 0.923889 0.382660 0.000000
vn 0.923889 0.382660 0.000000
vn 0.923889 0.382660 0.000000
vn 0.923881 -0.382680 0.000000
vn 0.923881 -0.382680 0.000000
vn 0.923881 -0.382680 0.000000
vn 0.923881 -0.382680 0.000000
vn 0.382685 -0.923879 0.000000
vn 0.382685 -0.923879 0.000000
vn 0.382685 -0.923879 0.000000
vn 0.382685 -0.923879 0.000000
vn -0.382685 -0.923879 0.000000
vn -0.382685 -0.923879 0.000000
vn -0.382685 -0.923879 0.000000
vn -0.382685 -0.923879 0.000000
vn -0.923881 -0.382680 0.000000
vn -0.923881 -0.382680 0.000000
vn -0.923881 -0.382680 0.000000
vn -0.923881 -0.382680 0.000000
vn -0.923881 0.382680 0.000000
vn -0.923881 0.382680 0.000000
vn -0.923881 0.382680 0.000000
vn -0.923881 0.382680 0.000000
vn -0.382680 0.923881 0.000000
vn -0.382680 0.923881 0.000000
vn -0.382680 0.923881 0.000000
vn -0.382680 0.923881 0.000000
vn 0.382680 0.923881 0.000000
vn 0.382680 0.923881 0.000000
vn 0.382680 0.923881 0.000000
vn 0.382680 0.923881 0.000000
vn 0.923881 0.382680 0.000000
vn 0.923881 0.382680 0.000000
vn 0.923881 0.382680 0.000000
vn 0.923881 0.382680 0.000000
vn 0.923881 -0.382680 0.000000
vn 0.923881 -0.382680 0.000000
vn 0.923881 -0.382680 0.000000
vn 0.923881 -0.382680 0.000000
vn 0.382685 -0.923879 0.000000
vn 0.382685 -0.923879 0.000000
vn 0.382685 -0.923879 0.000000
vn 0.382685 -0.923879 0.000000
vn -0.382685 -0.923879 0.000000
vn -0.382685 -0.923879 0.000000
vn -0.382685 -0.923879 0.000000
vn -0.382685 -0.923879 0.000000
vn -0.923881 -0.382680 0.000000
vn -0.923881 -0.382680 0.000000
vn -0.923881 -0.382680 0.000000
vn -0.923881 -0.382680 0.000000
vn -0.923881 0.382680 0.000000
vn -0.923881 0.382680 0.000000
vn -0.923881 0.382680 0.000000
vn -0.923881 0.382680 0.000000
vn -0.382680 0.923881 0.000000
vn -0.382680 0.923881 0.000000
vn -0.382680 0.923881 0.000000
vn -0.382680 0.923881 0.000000
vn 0.382680 0.923881 0.000000
vn 0.382680 0.923881 0.000000
vn 0.382680 0.923881 0.000000
vn 0.382680 0.923881 0.000000
f 10/1/1 9/2/2 17/3/3 18/4/4
f 11/5/5 10/1/6 18/4/7 19/6/8
f 12/7/9 11/5/10 19/6/11 20/8/12
f 13/9/13 12/7/14 20/8/15 21/10/16
f 14/11/17 13/9/18 21/10/19 22/12/20
f 15/13/21 14/11/22 22/12/23 23/14/24
f 16/15/25 15/13/26 23/14/27 24/16/28
f 9/17/29 16/15/30 24/16/31 17/18/32
f 18/4/33 17/3/34 1/19/35 8/20/36
f 19/6/37 18/4/38 8/20/39 7/21/40
f 20/8/41 19/6/42 7/21/43 6/22/44
f 21/10/45 20/8/46 6/22/47 5/23/48
f 22/12/49 21/10/50 5/23/51 4/24/52
f 23/14/53 22/12/54 4/24/55 3/25/56
f 24/16/57 23/14/58 3/25/59 2/26/60
f 17/18/61 24/16/62 2/26/63 1/27/64
