# This file uses centimeters as units for non-parametric coordinates.

v 0.000000 0.057920 -0.000000
v -0.040955 0.040955 -0.000000
v -0.057920 -0.000000 -0.000000
v -0.040955 -0.040956 -0.000000
v 0.000001 -0.057920 -0.000000
v 0.040956 -0.040956 0.000001
v 0.057921 -0.000000 0.000001
v 0.040956 0.040955 0.000001
v -0.005021 0.057920 0.129323
v -0.045718 0.040955 0.124727
v -0.062576 -0.000000 0.122823
v -0.045718 -0.040956 0.124727
v -0.005021 -0.057920 0.129323
v 0.035676 -0.040956 0.133919
v 0.052533 -0.000000 0.135823
v 0.035676 0.040955 0.133919
v -0.044355 0.057920 0.251435
v -0.076779 0.040955 0.226413
v -0.090209 -0.000000 0.216049
v -0.076779 -0.040956 0.226413
v -0.044355 -0.057920 0.251435
v -0.011932 -0.040956 0.276457
v 0.001499 -0.000000 0.286821
v -0.011932 0.040955 0.276457
v -0.166299 0.057920 0.304786
v -0.170599 0.040955 0.264056
v -0.172380 -0.000000 0.247186
v -0.170599 -0.040956 0.264056
v -0.166299 -0.057920 0.304786
v -0.161999 -0.040956 0.345515
v -0.160217 -0.000000 0.362386
v -0.161999 0.040955 0.345515
v -0.304152 0.057920 0.308912
v -0.304152 0.040955 0.267956
v -0.304152 -0.000000 0.250992
v -0.304152 -0.040956 0.267956
v -0.304152 -0.057920 0.308912
v -0.304152 -0.040956 0.349867
v -0.304152 -0.000000 0.366832
v -0.304152 0.040955 0.349867
vt 0.599748 0.633950
vt 0.615000 0.632984
vt 0.620660 0.677260
vt 0.605408 0.677457
vt 0.629819 0.631396
vt 0.636122 0.676356
vt 0.644516 0.628454
vt 0.651578 0.673557
vt 0.659386 0.624244
vt 0.666682 0.669349
vt 0.674941 0.619957
vt 0.681871 0.665288
vt 0.691221 0.616765
vt 0.697486 0.662709
vt 0.707577 0.615337
vt 0.713135 0.662019
vt 0.723424 0.614694
vt 0.728485 0.662406
vt 0.621823 0.714835
vt 0.606643 0.713952
vt 0.638675 0.715223
vt 0.655512 0.714620
vt 0.670934 0.713221
vt 0.685644 0.711890
vt 0.700708 0.711392
vt 0.715787 0.711840
vt 0.730224 0.713171
vt 0.621030 0.749952
vt 0.605898 0.750175
vt 0.636602 0.750635
vt 0.652161 0.753638
vt 0.667142 0.758300
vt 0.682046 0.762852
vt 0.697462 0.765592
vt 0.712946 0.765955
vt 0.728086 0.764820
vt 0.614938 0.797371
vt 0.599747 0.796272
vt 0.629680 0.799061
vt 0.644312 0.802040
vt 0.659120 0.806295
vt 0.674653 0.810658
vt 0.690984 0.813919
vt 0.707403 0.815319
vt 0.723246 0.815906
vn -0.382984 0.923637 -0.014750
vn -0.382984 0.923637 -0.014750
vn -0.382984 0.923637 -0.014750
vn -0.382984 0.923637 -0.014750
vn -0.923447 0.382113 -0.035137
vn -0.923447 0.382113 -0.035137
vn -0.923447 0.382113 -0.035137
vn -0.923447 0.382113 -0.035137
vn -0.923447 -0.382113 -0.035137
vn -0.923447 -0.382113 -0.035137
vn -0.923447 -0.382113 -0.035137
vn -0.923447 -0.382113 -0.035137
vn -0.382968 -0.923644 -0.014751
vn -0.382968 -0.923644 -0.014751
vn -0.382968 -0.923644 -0.014751
vn -0.382968 -0.923644 -0.014751
vn 0.382955 -0.923645 0.014988
vn 0.382955 -0.923645 0.014988
vn 0.382955 -0.923645 0.014988
vn 0.382955 -0.923645 0.014988
vn 0.923390 -0.382121 0.036520
vn 0.923390 -0.382121 0.036520
vn 0.923390 -0.382121 0.036520
vn 0.923390 -0.382121 0.036520
vn 0.923390 0.382121 0.036520
vn 0.923390 0.382121 0.036520
vn 0.923390 0.382121 0.036521
vn 0.923390 0.382121 0.036520
vn 0.382955 0.923646 0.014988
vn 0.382955 0.923646 0.014988
vn 0.382955 0.923646 0.014988
vn 0.382955 0.923646 0.014988
vn -0.377902 0.918184 -0.118866
vn -0.377902 0.918184 -0.118866
vn -0.377902 0.918184 -0.118866
vn -0.377902 0.918184 -0.118866
vn -0.889887 0.369178 -0.267970
vn -0.889888 0.369178 -0.267970
vn -0.889887 0.369178 -0.267970
vn -0.889887 0.369178 -0.267970
vn -0.889887 -0.369178 -0.267970
vn -0.889887 -0.369178 -0.267970
vn -0.889887 -0.369178 -0.267970
vn -0.889887 -0.369178 -0.267970
vn -0.377901 -0.918184 -0.118866
vn -0.377901 -0.918184 -0.118866
vn -0.377901 -0.918184 -0.118866
vn -0.377901 -0.918184 -0.118866
vn 0.376070 -0.918318 0.123544
vn 0.376070 -0.918318 0.123544
vn 0.376070 -0.918318 0.123544
vn 0.376070 -0.918318 0.123544
vn 0.880655 -0.369954 0.295940
vn 0.880655 -0.369954 0.295940
vn 0.880655 -0.369954 0.295940
vn 0.880655 -0.369954 0.295940
vn 0.880655 0.369954 0.295940
vn 0.880655 0.369954 0.295940
vn 0.880655 0.369954 0.295940
vn 0.880655 0.369954 0.295940
vn 0.376069 0.918319 0.123544
vn 0.376069 0.918319 0.123544
vn 0.376069 0.918319 0.123544
vn 0.376069 0.918319 0.123544
vn -0.160423 0.910805 -0.380393
vn -0.160423 0.910805 -0.380393
vn -0.160423 0.910805 -0.380393
vn -0.160423 0.910805 -0.380393
vn -0.340571 0.352994 -0.871439
vn -0.340571 0.352994 -0.871439
vn -0.340571 0.352994 -0.871439
vn -0.340571 0.352994 -0.871439
vn -0.340571 -0.352993 -0.871440
vn -0.340571 -0.352993 -0.871440
vn -0.340571 -0.352993 -0.871440
vn -0.340571 -0.352993 -0.871440
vn -0.160423 -0.910805 -0.380393
vn -0.160423 -0.910805 -0.380393
vn -0.160423 -0.910805 -0.380393
vn -0.160423 -0.910805 -0.380393
vn 0.169089 -0.911168 0.375741
vn 0.169089 -0.911168 0.375741
vn 0.169089 -0.911168 0.375741
vn 0.169089 -0.911168 0.375741
vn 0.393380 -0.355027 0.848061
vn 0.393379 -0.355027 0.848062
vn 0.393379 -0.355027 0.848062
vn 0.393380 -0.355027 0.848061
vn 0.393380 0.355027 0.848061
vn 0.393380 0.355027 0.848061
vn 0.393380 0.355027 0.848061
vn 0.393380 0.355027 0.848061
vn 0.169089 0.911169 0.375740
vn 0.169089 0.911169 0.375740
vn 0.169089 0.911169 0.375740
vn 0.169089 0.911169 0.375740
vn -0.011327 0.923656 -0.383055
vn -0.011327 0.923656 -0.383055
vn -0.011327 0.923656 -0.383055
vn -0.011327 0.923656 -0.383055
vn -0.026826 0.382140 -0.923715
vn -0.026826 0.382140 -0.923715
vn -0.026826 0.382140 -0.923715
vn -0.026826 0.382140 -0.923715
vn -0.026826 -0.382141 -0.923715
vn -0.026826 -0.382141 -0.923715
vn -0.026826 -0.382141 -0.923715
vn -0.026826 -0.382141 -0.923715
vn -0.011327 -0.923657 -0.383054
vn -0.011327 -0.923656 -0.383055
vn -0.011327 -0.923657 -0.383054
vn -0.011327 -0.923656 -0.383055
vn 0.011598 -0.923658 0.383042
vn 0.011598 -0.923658 0.383042
vn 0.011598 -0.923658 0.383042
vn 0.011598 -0.923658 0.383042
vn 0.028407 -0.382154 0.923662
vn 0.028407 -0.382154 0.923662
vn 0.028407 -0.382154 0.923662
vn 0.028407 -0.382154 0.923662
vn 0.028407 0.382154 0.923662
vn 0.028407 0.382154 0.923662
vn 0.028407 0.382154 0.923662
vn 0.028407 0.382154 0.923662
vn 0.011598 0.923659 0.383041
vn 0.011598 0.923659 0.383041
vn 0.011598 0.923659 0.383041
vn 0.011598 0.923659 0.383041
f 1/1/1 2/2/2 10/3/3 9/4/4
f 2/2/5 3/5/6 11/6/7 10/3/8
f 3/5/9 4/7/10 12/8/11 11/6/12
f 4/7/13 5/9/14 13/10/15 12/8/16
f 5/9/17 6/11/18 14/12/19 13/10/20
f 6/11/21 7/13/22 15/14/23 14/12/24
f 7/13/25 8/15/26 16/16/27 15/14/28
f 8/15/29 1/17/30 9/18/31 16/16/32
f 9/4/33 10/3/34 18/19/35 17/20/36
f 10/3/37 11/6/38 19/21/39 18/19/40
f 11/6/41 12/8/42 20/22/43 19/21/44
f 12/8/45 13/10/46 21/23/47 20/22/48
f 13/10/49 14/12/50 22/24/51 21/23/52
f 14/12/53 15/14/54 23/25/55 22/24/56
f 15/14/57 16/16/58 24/26/59 23/25/60
f 16/16/61 9/18/62 17/27/63 24/26/64
f 17/20/65 18/19/66 26/28/67 25/29/68
f 18/19/69 19/21/70 27/30/71 26/28/72
f 19/21/73 20/22/74 28/31/75 27/30/76
f 20/22/77 21/23/78 29/32/79 28/31/80
f 21/23/81 22/24/82 30/33/83 29/32/84
f 22/24/85 23/25/86 31/34/87 30/33/88
f 23/25/89 24/26/90 32/35/91 31/34/92
f 24/26/93 17/27/94 25/36/95 32/35/96
f 25/29/97 26/28/98 34/37/99 33/38/100
f 26/28/101 27/30/102 35/39/103 34/37/104
f 27/30/105 28/31/106 36/40/107 35/39/108
f 28/31/109 29/32/110 37/41/111 36/40/112
f 29/32/113 30/33/114 38/42/115 37/41/116
f 30/33/117 31/34/118 39/43/119 38/42/120
f 31/34/121 32/35/122 40/44/123 39/43/124
f 32/35/125 25/36/126 33/45/127 40/44/128
