# This file uses centimeters as units for non-parametric coordinates.

v -0.267267 0.061872 -0.303952
v -0.267267 0.025628 -0.267710
v -0.267267 -0.025628 -0.267710
v -0.267267 -0.061872 -0.303952
v -0.267267 -0.061872 -0.355207
v -0.267267 -0.025628 -0.391450
v -0.267267 0.025628 -0.391450
v -0.267267 0.061872 -0.355207
v -0.193683 0.061872 -0.301076
v -0.197699 0.025628 -0.265056
v -0.197699 -0.025628 -0.265056
v -0.193683 -0.061872 -0.301076
v -0.188004 -0.061872 -0.352018
v -0.183988 -0.025628 -0.388038
v -0.183988 0.025628 -0.388038
v -0.188004 0.061872 -0.352018
v -0.124911 0.061872 -0.285286
v -0.138106 0.025628 -0.251529
v -0.138106 -0.025628 -0.251529
v -0.124911 -0.061872 -0.285286
v -0.106252 -0.061872 -0.333026
v -0.093058 -0.025628 -0.366783
v -0.093058 0.025628 -0.366783
v -0.106252 0.061872 -0.333026
v -0.072105 0.061872 -0.249708
v -0.099698 0.025628 -0.226208
v -0.099698 -0.025628 -0.226208
v -0.072105 -0.061872 -0.249708
v -0.033083 -0.061872 -0.282943
v -0.005490 -0.025628 -0.306443
v -0.005490 0.025628 -0.306443
v -0.033083 0.061872 -0.282943
v -0.040609 0.061872 -0.185213
v -0.075456 0.025628 -0.175249
v -0.075456 -0.025628 -0.175249
v -0.040609 -0.061872 -0.185213
v 0.008672 -0.061872 -0.199304
v 0.043520 -0.025628 -0.209268
v 0.043520 0.025628 -0.209268
v 0.008672 0.061872 -0.199304
v -0.026955 0.061872 -0.107091
v -0.063051 0.025628 -0.103817
v -0.063051 -0.025628 -0.103817
v -0.026955 -0.061872 -0.107091
v 0.024092 -0.061872 -0.111722
v 0.060187 -0.025628 -0.114997
v 0.060187 0.025628 -0.114997
v 0.024092 0.061872 -0.111722
v -0.023988 0.061872 -0.026429
v -0.060232 0.025628 -0.026429
v -0.060232 -0.025628 -0.026429
v -0.023988 -0.061872 -0.026429
v 0.027269 -0.061872 -0.026429
v 0.063513 -0.025628 -0.026429
v 0.063513 0.025628 -0.026429
v 0.027269 0.061872 -0.026429
v -0.267267 0.087789 -0.293218
v -0.267267 0.036363 -0.241794
v -0.267267 -0.036363 -0.241794
v -0.267267 -0.087789 -0.293218
v -0.267267 -0.087789 -0.365942
v -0.267267 -0.036363 -0.417366
v -0.267267 0.036363 -0.417366
v -0.267267 0.087789 -0.365942
v -0.293905 0.087789 -0.293218
v -0.293905 0.036363 -0.241794
v -0.293905 -0.036363 -0.241794
v -0.293905 -0.087789 -0.293218
v -0.293905 -0.087789 -0.365942
v -0.293905 -0.036363 -0.417366
v -0.293905 0.036363 -0.417366
v -0.293905 0.087789 -0.365942
v -0.293905 0.069274 -0.300887
v -0.293905 0.028694 -0.260308
v -0.293905 -0.028694 -0.260308
v -0.293905 -0.069274 -0.300887
v -0.293905 -0.069274 -0.358273
v -0.293905 -0.028694 -0.398851
v -0.293905 0.028694 -0.398851
v -0.293905 0.069274 -0.358273
v -0.085795 0.036217 -0.026429
v -0.034576 0.087435 -0.026429
v -0.085795 -0.036217 -0.026429
v -0.034576 -0.087435 -0.026429
v 0.037857 -0.087435 -0.026429
v 0.089076 -0.036217 -0.026429
v 0.089076 0.036217 -0.026429
v 0.037857 0.087435 -0.026429
v -0.085795 0.036217 -0.000000
v -0.034576 0.087435 -0.000000
v -0.085795 -0.036217 -0.000000
v -0.034576 -0.087435 -0.000000
v 0.037857 -0.087435 -0.000000
v 0.089076 -0.036217 -0.000000
v 0.089076 0.036217 -0.000000
v 0.037857 0.087435 -0.000000
v -0.070272 0.029787 -0.000000
v -0.028147 0.071913 -0.000000
v -0.070272 -0.029787 -0.000000
v -0.028147 -0.071913 -0.000000
v 0.031428 -0.071913 -0.000000
v 0.073553 -0.029787 -0.000000
v 0.073553 0.029787 -0.000000
v 0.031428 0.071913 -0.000000
vt 0.493897 0.365855
vt 0.855480 0.553635
vt 0.530260 0.342836
vt 0.527879 0.366540
vt 0.855485 0.529733
vt 0.527940 0.318991
vt 0.872389 0.512834
vt 0.520348 0.296179
vt 0.896290 0.512838
vt 0.510991 0.273901
vt 0.913189 0.529743
vt 0.503035 0.251134
vt 0.460203 0.237142
vt 0.896280 0.570544
vt 0.525462 0.390201
vt 0.497470 0.227792
vt 0.561594 0.340788
vt 0.559699 0.365880
vt 0.559700 0.314795
vt 0.553938 0.289825
vt 0.547251 0.266223
vt 0.541761 0.242857
vt 0.558015 0.389686
vt 0.538208 0.219319
vt 0.586242 0.339602
vt 0.587548 0.365534
vt 0.585252 0.313067
vt 0.585130 0.286896
vt 0.585064 0.262264
vt 0.584717 0.238464
vt 0.588795 0.390216
vt 0.583830 0.215027
vt 0.616173 0.338807
vt 0.618996 0.363324
vt 0.616367 0.313488
vt 0.620349 0.288624
vt 0.625388 0.264526
vt 0.629298 0.240571
vt 0.621726 0.387000
vt 0.631158 0.216459
vt 0.652859 0.339602
vt 0.655014 0.363206
vt 0.653863 0.315878
vt 0.658695 0.292511
vt 0.664969 0.269277
vt 0.670359 0.245705
vt 0.657134 0.386870
vt 0.673856 0.221687
vt 0.899921 0.742821
vt 0.876019 0.742825
vt 0.916820 0.725916
vt 0.916816 0.702013
vt 0.899911 0.685115
vt 0.876008 0.685119
vt 0.859114 0.725926
vt 0.859110 0.702024
vt 0.867370 0.582625
vt 0.843394 0.558639
vt 0.843400 0.524724
vt 0.867385 0.500747
vt 0.901298 0.500753
vt 0.925275 0.524739
vt 0.925269 0.558654
vt 0.901284 0.582631
vt 0.867368 0.595047
vt 0.834608 0.567421
vt 0.830978 0.524722
vt 0.858602 0.491962
vt 0.901301 0.488331
vt 0.937697 0.524741
vt 0.937691 0.558656
vt 0.901282 0.595053
vt 0.870943 0.603682
vt 0.831030 0.576055
vt 0.822343 0.528297
vt 0.849968 0.488384
vt 0.897726 0.479696
vt 0.937639 0.507323
vt 0.946326 0.555081
vt 0.918701 0.594994
vt 0.904861 0.754741
vt 0.871083 0.754747
vt 0.928742 0.730851
vt 0.928736 0.697073
vt 0.904847 0.673193
vt 0.871068 0.673199
vt 0.847194 0.730866
vt 0.847188 0.697088
vt 0.913578 0.763454
vt 0.871085 0.767071
vt 0.941066 0.730849
vt 0.937449 0.688357
vt 0.904845 0.660868
vt 0.862352 0.664486
vt 0.838481 0.739583
vt 0.834864 0.697090
vt 0.920817 0.766451
vt 0.874085 0.774309
vt 0.948305 0.727849
vt 0.940446 0.681118
vt 0.901845 0.653630
vt 0.855113 0.661489
vt 0.835484 0.746822
vt 0.827625 0.700090
vt 0.466523 0.261708
vt 0.913184 0.553645
vt 0.456297 0.213004
vt 0.490554 0.388774
vt 0.872378 0.570540
vt 0.834870 0.730868
vt 0.827630 0.727871
vt 0.838472 0.688375
vt 0.835472 0.681137
vt 0.871066 0.660874
vt 0.874063 0.653635
vt 0.913560 0.664477
vt 0.920798 0.661477
vt 0.941060 0.697071
vt 0.948300 0.700068
vt 0.937458 0.739565
vt 0.940458 0.746803
vt 0.862370 0.763463
vt 0.855132 0.766463
vt 0.904864 0.767065
vt 0.901867 0.774304
vt 0.910067 0.591416
vt 0.897704 0.603687
vt 0.934051 0.567439
vt 0.937627 0.576073
vt 0.934060 0.515957
vt 0.946331 0.528319
vt 0.910084 0.491971
vt 0.918719 0.488396
vt 0.867387 0.488325
vt 0.870965 0.479691
vt 0.834617 0.515939
vt 0.831042 0.507305
vt 0.830972 0.558637
vt 0.822338 0.555059
vt 0.858585 0.591407
vt 0.849950 0.594982
vt 0.692359 0.362535
vt 0.695159 0.385729
vt 0.716763 0.203879
vt 0.714564 0.228127
vt 0.676058 0.197943
vt 0.710248 0.252855
vt 0.703645 0.276586
vt 0.696409 0.298756
vt 0.691551 0.319814
vt 0.689996 0.340728
vt 0.631506 0.192825
vt 0.582730 0.190950
vt 0.536153 0.196024
vt 0.493788 0.204349
vt 0.476413 0.284796
vt 0.487115 0.305623
vt 0.494836 0.325038
vt 0.496207 0.344825
vn -0.027316 0.706505 0.707180
vn -0.027316 0.706505 0.707180
vn -0.027316 0.706505 0.707180
vn -0.027316 0.706505 0.707181
vn -0.038118 0.000000 0.999273
vn -0.038118 0.000000 0.999273
vn -0.038118 0.000000 0.999273
vn -0.038118 0.000000 0.999273
vn -0.027316 -0.706505 0.707180
vn -0.027316 -0.706505 0.707180
vn -0.027316 -0.706505 0.707181
vn -0.027316 -0.706505 0.707180
vn -0.000000 -1.000000 -0.000000
vn -0.000000 -1.000000 -0.000000
vn -0.000000 -1.000000 -0.000000
vn -0.000000 -1.000000 -0.000000
vn 0.028718 -0.706516 -0.707114
vn 0.028718 -0.706516 -0.707114
vn 0.028718 -0.706516 -0.707114
vn 0.028718 -0.706516 -0.707114
vn 0.040933 0.000000 -0.999162
vn 0.040933 0.000000 -0.999162
vn 0.040933 0.000000 -0.999162
vn 0.040933 0.000000 -0.999162
vn 0.028718 0.706516 -0.707115
vn 0.028718 0.706516 -0.707114
vn 0.028718 0.706516 -0.707114
vn 0.028718 0.706516 -0.707115
vn 0.000000 1.000000 0.000000
vn 0.000000 1.000000 0.000000
vn 0.000000 1.000000 0.000000
vn 0.000000 1.000000 0.000000
vn -0.158126 0.704014 0.692359
vn -0.158126 0.704014 0.692359
vn -0.158126 0.704014 0.692359
vn -0.158126 0.704014 0.692359
vn -0.221352 0.000000 0.975194
vn -0.221352 0.000000 0.975194
vn -0.221352 0.000000 0.975194
vn -0.221352 0.000000 0.975194
vn -0.158126 -0.704014 0.692359
vn -0.158126 -0.704014 0.692359
vn -0.158126 -0.704014 0.692359
vn -0.158126 -0.704014 0.692359
vn 0.000000 -1.000000 -0.000000
vn 0.000000 -1.000000 -0.000000
vn 0.000000 -1.000000 -0.000000
vn 0.000000 -1.000000 -0.000000
vn 0.161199 -0.704037 -0.691626
vn 0.161199 -0.704037 -0.691626
vn 0.161199 -0.704037 -0.691626
vn 0.161199 -0.704037 -0.691626
vn 0.227622 0.000000 -0.973750
vn 0.227622 0.000000 -0.973750
vn 0.227622 0.000000 -0.973750
vn 0.227622 0.000000 -0.973750
vn 0.161199 0.704037 -0.691626
vn 0.161199 0.704037 -0.691626
vn 0.161199 0.704037 -0.691626
vn 0.161199 0.704037 -0.691626
vn 0.000000 1.000000 0.000000
vn 0.000000 1.000000 0.000000
vn 0.000000 1.000000 0.000000
vn 0.000000 1.000000 0.000000
vn -0.398692 0.696021 0.597160
vn -0.398692 0.696021 0.597160
vn -0.398692 0.696021 0.597160
vn -0.398692 0.696021 0.597160
vn -0.550417 0.000000 0.834890
vn -0.550417 0.000000 0.834890
vn -0.550417 0.000000 0.834890
vn -0.550417 0.000000 0.834890
vn -0.398690 -0.696022 0.597160
vn -0.398690 -0.696022 0.597160
vn -0.398690 -0.696022 0.597160
vn -0.398690 -0.696022 0.597160
vn 0.000000 -1.000000 -0.000000
vn 0.000000 -1.000000 -0.000000
vn 0.000000 -1.000000 -0.000000
vn 0.000000 -1.000000 -0.000000
vn 0.406510 -0.696132 -0.591734
vn 0.406510 -0.696133 -0.591734
vn 0.406510 -0.696132 -0.591734
vn 0.406510 -0.696132 -0.591734
vn 0.567403 0.000000 -0.823440
vn 0.567403 0.000000 -0.823440
vn 0.567403 0.000000 -0.823440
vn 0.567403 0.000000 -0.823440
vn 0.406510 0.696132 -0.591734
vn 0.406510 0.696132 -0.591734
vn 0.406510 0.696132 -0.591734
vn 0.406510 0.696132 -0.591734
vn -0.000000 1.000000 0.000000
vn -0.000000 1.000000 0.000000
vn -0.000000 1.000000 0.000000
vn -0.000000 1.000000 0.000000
vn -0.644335 0.698624 0.311060
vn -0.644335 0.698624 0.311060
vn -0.644335 0.698623 0.311060
vn -0.644335 0.698623 0.311060
vn -0.903032 0.000000 0.429574
vn -0.903032 0.000000 0.429574
vn -0.903032 0.000000 0.429574
vn -0.903032 0.000000 0.429574
vn -0.644334 -0.698624 0.311059
vn -0.644334 -0.698624 0.311059
vn -0.644334 -0.698624 0.311059
vn -0.644334 -0.698624 0.311059
vn 0.000000 -1.000000 -0.000000
vn 0.000000 -1.000000 -0.000000
vn 0.000000 -1.000000 -0.000000
vn 0.000000 -1.000000 -0.000000
vn 0.639279 -0.698814 -0.320908
vn 0.639279 -0.698814 -0.320908
vn 0.639279 -0.698814 -0.320908
vn 0.639279 -0.698814 -0.320908
vn 0.892868 0.000000 -0.450318
vn 0.892868 0.000000 -0.450318
vn 0.892868 0.000000 -0.450318
vn 0.892868 0.000000 -0.450318
vn 0.639278 0.698815 -0.320907
vn 0.639278 0.698815 -0.320907
vn 0.639278 0.698815 -0.320907
vn 0.639278 0.698815 -0.320907
vn -0.000000 1.000000 0.000000
vn -0.000000 1.000000 0.000000
vn -0.000000 1.000000 0.000000
vn -0.000000 1.000000 0.000000
vn -0.698175 0.705515 0.121655
vn -0.698175 0.705515 0.121655
vn -0.698175 0.705515 0.121655
vn -0.698175 0.705515 0.121655
vn -0.985253 0.000000 0.171104
vn -0.985253 0.000000 0.171104
vn -0.985253 0.000000 0.171104
vn -0.985253 0.000000 0.171104
vn -0.698175 -0.705515 0.121655
vn -0.698175 -0.705515 0.121655
vn -0.698175 -0.705516 0.121655
vn -0.698175 -0.705515 0.121655
vn 0.000000 -1.000000 -0.000000
vn 0.000000 -1.000000 -0.000000
vn 0.000000 -1.000000 -0.000000
vn 0.000000 -1.000000 -0.000000
vn 0.697909 -0.705521 -0.123141
vn 0.697909 -0.705521 -0.123141
vn 0.697909 -0.705521 -0.123141
vn 0.697909 -0.705521 -0.123141
vn 0.984728 0.000000 -0.174101
vn 0.984728 0.000000 -0.174101
vn 0.984728 0.000000 -0.174101
vn 0.984728 0.000000 -0.174101
vn 0.697907 0.705522 -0.123142
vn 0.697907 0.705522 -0.123142
vn 0.697907 0.705522 -0.123142
vn 0.697907 0.705522 -0.123142
vn -0.000000 1.000000 0.000000
vn -0.000000 1.000000 0.000000
vn -0.000000 1.000000 0.000000
vn -0.000000 1.000000 0.000000
vn -0.707007 0.706733 0.025886
vn -0.707007 0.706733 0.025886
vn -0.707007 0.706733 0.025886
vn -0.707007 0.706733 0.025886
vn -0.999337 0.000000 0.036409
vn -0.999337 0.000000 0.036409
vn -0.999337 0.000000 0.036409
vn -0.999337 0.000000 0.036409
vn -0.707007 -0.706733 0.025886
vn -0.707007 -0.706733 0.025886
vn -0.707007 -0.706733 0.025886
vn -0.707007 -0.706733 0.025886
vn 0.000000 -1.000000 -0.000000
vn 0.000000 -1.000000 -0.000000
vn 0.000000 -1.000000 -0.000000
vn 0.000000 -1.000000 -0.000000
vn 0.706987 -0.706732 -0.026442
vn 0.706987 -0.706732 -0.026442
vn 0.706987 -0.706732 -0.026442
vn 0.706987 -0.706732 -0.026442
vn 0.999296 0.000000 -0.037522
vn 0.999296 0.000000 -0.037522
vn 0.999296 0.000000 -0.037522
vn 0.999296 0.000000 -0.037522
vn 0.706987 0.706732 -0.026442
vn 0.706987 0.706732 -0.026442
vn 0.706987 0.706732 -0.026442
vn 0.706987 0.706732 -0.026442
vn -0.000000 1.000000 0.000000
vn -0.000000 1.000000 0.000000
vn -0.000000 1.000000 0.000000
vn -0.000000 1.000000 0.000000
vn 1.000000 0.000000 0.000003
vn 1.000000 0.000000 0.000003
vn 1.000000 0.000000 0.000003
vn 1.000000 0.000000 0.000003
vn 1.000000 0.000000 0.000002
vn 1.000000 0.000000 0.000002
vn 1.000000 0.000000 0.000002
vn 1.000000 0.000000 0.000002
vn 1.000000 0.000000 0.000003
vn 1.000000 0.000000 0.000003
vn 1.000000 0.000000 0.000003
vn 1.000000 0.000000 0.000003
vn 1.000000 0.000000 0.000000
vn 1.000000 0.000000 0.000000
vn 1.000000 0.000000 0.000000
vn 1.000000 0.000000 0.000000
vn 1.000000 0.000000 0.000005
vn 1.000000 0.000000 0.000005
vn 1.000000 0.000000 0.000005
vn 1.000000 0.000000 0.000005
vn 1.000000 0.000000 0.000000
vn 1.000000 0.000000 0.000000
vn 1.000000 0.000000 0.000000
vn 1.000000 0.000000 0.000000
vn 1.000000 0.000000 0.000007
vn 1.000000 0.000000 0.000007
vn 1.000000 0.000000 0.000007
vn 1.000000 0.000000 0.000007
vn 1.000000 0.000000 -0.000001
vn 1.000000 0.000000 -0.000001
vn 1.000000 0.000000 -0.000001
vn 1.000000 0.000000 -0.000001
vn 0.000000 0.707095 0.707118
vn 0.000000 0.707095 0.707118
vn 0.000000 0.707095 0.707118
vn 0.000000 0.707095 0.707118
vn 0.000000 0.000000 1.000000
vn 0.000000 0.000000 1.000000
vn 0.000000 0.000000 1.000000
vn 0.000000 0.000000 1.000000
vn 0.000000 -0.707095 0.707118
vn 0.000000 -0.707095 0.707118
vn 0.000000 -0.707095 0.707118
vn 0.000000 -0.707095 0.707118
vn 0.000000 -1.000000 0.000000
vn 0.000000 -1.000000 0.000000
vn 0.000000 -1.000000 0.000000
vn 0.000000 -1.000000 0.000000
vn 0.000000 -0.707095 -0.707118
vn 0.000000 -0.707095 -0.707118
vn 0.000000 -0.707095 -0.707118
vn 0.000000 -0.707095 -0.707118
vn -0.000000 0.000000 -1.000000
vn -0.000000 0.000000 -1.000000
vn -0.000000 0.000000 -1.000000
vn -0.000000 0.000000 -1.000000
vn -0.000000 0.707092 -0.707121
vn -0.000000 0.707092 -0.707121
vn -0.000000 0.707092 -0.707121
vn -0.000000 0.707092 -0.707121
vn 0.000000 1.000000 0.000000
vn 0.000000 1.000000 0.000000
vn 0.000000 1.000000 0.000000
vn 0.000000 1.000000 0.000000
vn -1.000000 0.000000 0.000003
vn -1.000000 0.000000 0.000003
vn -1.000000 0.000000 0.000003
vn -1.000000 0.000000 0.000003
vn -1.000000 0.000000 -0.000012
vn -1.000000 0.000000 -0.000012
vn -1.000000 0.000000 -0.000012
vn -1.000000 0.000000 -0.000012
vn -1.000000 0.000000 -0.000005
vn -1.000000 0.000000 -0.000005
vn -1.000000 0.000000 -0.000005
vn -1.000000 0.000000 -0.000005
vn -1.000000 0.000000 0.000000
vn -1.000000 0.000000 0.000000
vn -1.000000 0.000000 0.000000
vn -1.000000 0.000000 0.000000
vn -1.000000 0.000000 -0.000005
vn -1.000000 0.000000 -0.000005
vn -1.000000 0.000000 -0.000005
vn -1.000000 0.000000 -0.000005
vn -1.000000 0.000000 0.000000
vn -1.000000 0.000000 0.000000
vn -1.000000 0.000000 0.000000
vn -1.000000 0.000000 0.000000
vn -1.000000 0.000000 0.000000
vn -1.000000 0.000000 0.000000
vn -1.000000 0.000000 0.000000
vn -1.000000 0.000000 0.000000
vn -1.000000 0.000000 0.000001
vn -1.000000 0.000000 0.000001
vn -1.000000 0.000000 0.000001
vn -1.000000 0.000000 0.000001
vn -0.000000 0.000000 -1.000000
vn -0.000000 0.000000 -1.000000
vn -0.000000 0.000000 -1.000000
vn -0.000000 0.000000 -1.000000
vn -0.000000 0.000000 -1.000000
vn -0.000000 0.000000 -1.000000
vn -0.000000 0.000000 -1.000000
vn -0.000000 0.000000 -1.000000
vn 0.000000 -0.000000 -1.000000
vn 0.000000 -0.000000 -1.000000
vn 0.000000 -0.000000 -1.000000
vn 0.000000 -0.000000 -1.000000
vn -0.000000 0.000000 -1.000000
vn -0.000000 0.000000 -1.000000
vn -0.000000 0.000000 -1.000000
vn -0.000000 0.000000 -1.000000
vn -0.000000 0.000000 -1.000000
vn -0.000000 0.000000 -1.000000
vn -0.000000 0.000000 -1.000000
vn -0.000000 0.000000 -1.000000
vn -0.000000 0.000000 -1.000000
vn -0.000000 0.000000 -1.000000
vn -0.000000 0.000000 -1.000000
vn -0.000000 0.000000 -1.000000
vn 0.000000 -0.000000 -1.000000
vn 0.000000 -0.000000 -1.000000
vn 0.000000 -0.000000 -1.000000
vn 0.000000 -0.000000 -1.000000
vn -0.000000 0.000000 -1.000000
vn -0.000000 0.000000 -1.000000
vn -0.000000 0.000000 -1.000000
vn -0.000000 0.000000 -1.000000
vn -0.707105 0.707108 0.000000
vn -0.707105 0.707108 0.000000
vn -0.707105 0.707108 0.000000
vn -0.707105 0.707108 0.000000
vn -1.000000 0.000000 0.000000
vn -1.000000 0.000000 0.000000
vn -1.000000 0.000000 0.000000
vn -1.000000 0.000000 0.000000
vn -0.707105 -0.707108 0.000000
vn -0.707105 -0.707108 0.000000
vn -0.707105 -0.707108 0.000000
vn -0.707105 -0.707108 0.000000
vn 0.000000 -1.000000 0.000000
vn 0.000000 -1.000000 0.000000
vn 0.000000 -1.000000 0.000000
vn 0.000000 -1.000000 0.000000
vn 0.707106 -0.707107 0.000000
vn 0.707106 -0.707107 0.000000
vn 0.707106 -0.707107 0.000000
vn 0.707106 -0.707107 0.000000
vn 1.000000 0.000000 0.000000
vn 1.000000 0.000000 0.000000
vn 1.000000 0.000000 0.000000
vn 1.000000 0.000000 0.000000
vn 0.707106 0.707108 0.000000
vn 0.707106 0.707108 0.000000
vn 0.707106 0.707108 0.000000
vn 0.707106 0.707108 0.000000
vn -0.000000 1.000000 0.000000
vn -0.000000 1.000000 0.000000
vn -0.000000 1.000000 0.000000
vn -0.000000 1.000000 0.000000
vn 0.000000 0.000000 1.000000
vn 0.000000 0.000000 1.000000
vn 0.000000 0.000000 1.000000
vn 0.000000 0.000000 1.000000
vn 0.000000 0.000000 1.000000
vn 0.000000 0.000000 1.000000
vn 0.000000 0.000000 1.000000
vn 0.000000 0.000000 1.000000
vn 0.000000 0.000001 1.000000
vn 0.000000 0.000001 1.000000
vn 0.000000 0.000001 1.000000
vn 0.000000 0.000001 1.000000
vn 0.000000 0.000000 1.000000
vn 0.000000 0.000000 1.000000
vn 0.000000 0.000000 1.000000
vn 0.000000 0.000000 1.000000
vn 0.000000 0.000001 1.000000
vn 0.000000 0.000001 1.000000
vn 0.000000 0.000001 1.000000
vn 0.000000 0.000001 1.000000
vn 0.000000 0.000000 1.000000
vn 0.000000 0.000000 1.000000
vn 0.000000 0.000000 1.000000
vn 0.000000 0.000000 1.000000
vn 0.000000 0.000001 1.000000
vn 0.000000 0.000001 1.000000
vn 0.000000 0.000001 1.000000
vn 0.000000 0.000001 1.000000
vn 0.000000 0.000000 1.000000
vn 0.000000 0.000000 1.000000
vn 0.000000 0.000000 1.000000
vn 0.000000 0.000000 1.000000
f 1/1/1 2/159/2 10/3/3 9/4/4
f 2/159/5 3/158/6 11/6/7 10/3/8
f 3/158/9 4/157/10 12/8/11 11/6/12
f 4/157/13 5/156/14 13/10/15 12/8/16
f 5/156/17 6/105/18 14/12/19 13/10/20
f 14/12/21 6/105/22 7/13/23 15/16/24
f 7/13/25 8/107/26 16/155/27 15/16/28
f 16/15/29 8/108/30 1/1/31 9/4/32
f 9/4/33 10/3/34 18/17/35 17/18/36
f 10/3/37 11/6/38 19/19/39 18/17/40
f 11/6/41 12/8/42 20/20/43 19/19/44
f 12/8/45 13/10/46 21/21/47 20/20/48
f 13/10/49 14/12/50 22/22/51 21/21/52
f 22/22/53 14/12/54 15/16/55 23/24/56
f 15/16/57 16/155/58 24/154/59 23/24/60
f 24/23/61 16/15/62 9/4/63 17/18/64
f 17/18/65 18/17/66 26/25/67 25/26/68
f 18/17/69 19/19/70 27/27/71 26/25/72
f 19/19/73 20/20/74 28/28/75 27/27/76
f 20/20/77 21/21/78 29/29/79 28/28/80
f 21/21/81 22/22/82 30/30/83 29/29/84
f 30/30/85 22/22/86 23/24/87 31/32/88
f 23/24/89 24/154/90 32/153/91 31/32/92
f 32/31/93 24/23/94 17/18/95 25/26/96
f 25/26/97 26/25/98 34/33/99 33/34/100
f 26/25/101 27/27/102 35/35/103 34/33/104
f 27/27/105 28/28/106 36/36/107 35/35/108
f 28/28/109 29/29/110 37/37/111 36/36/112
f 29/29/113 30/30/114 38/38/115 37/37/116
f 38/38/117 30/30/118 31/32/119 39/40/120
f 31/32/121 32/153/122 40/152/123 39/40/124
f 40/39/125 32/31/126 25/26/127 33/34/128
f 33/34/129 34/33/130 42/41/131 41/42/132
f 34/33/133 35/35/134 43/43/135 42/41/136
f 35/35/137 36/36/138 44/44/139 43/43/140
f 36/36/141 37/37/142 45/45/143 44/44/144
f 37/37/145 38/38/146 46/46/147 45/45/148
f 46/46/149 38/38/150 39/40/151 47/48/152
f 39/40/153 40/152/154 48/146/155 47/48/156
f 48/47/157 40/39/158 33/34/159 41/42/160
f 41/42/161 42/41/162 50/151/163 49/142/164
f 42/41/165 43/43/166 51/150/167 50/151/168
f 43/43/169 44/44/170 52/149/171 51/150/172
f 44/44/173 45/45/174 53/148/175 52/149/176
f 45/45/177 46/46/178 54/147/179 53/148/180
f 54/147/181 46/46/182 47/48/183 55/145/184
f 47/48/185 48/146/186 56/144/187 55/145/188
f 56/143/189 48/47/190 41/42/191 49/142/192
f 2/2/193 1/109/194 57/57/195 58/58/196
f 3/5/197 2/2/198 58/58/199 59/59/200
f 4/7/201 3/5/202 59/59/203 60/60/204
f 5/9/205 4/7/206 60/60/207 61/61/208
f 6/11/209 5/9/210 61/61/211 62/62/212
f 6/11/213 62/62/214 63/63/215 7/106/216
f 8/14/217 7/106/218 63/63/219 64/64/220
f 8/14/221 64/64/222 57/57/223 1/109/224
f 58/58/225 57/57/226 65/140/227 66/66/228
f 59/59/229 58/58/230 66/138/231 67/67/232
f 60/60/233 59/59/234 67/136/235 68/68/236
f 61/61/237 60/60/238 68/134/239 69/69/240
f 62/62/241 61/61/242 69/132/243 70/130/244
f 62/62/245 70/70/246 71/71/247 63/63/248
f 64/64/249 63/63/250 71/128/251 72/126/252
f 64/64/253 72/72/254 65/65/255 57/57/256
f 66/66/257 65/140/258 73/141/259 74/74/260
f 67/67/261 66/138/262 74/139/263 75/75/264
f 68/68/265 67/136/266 75/137/267 76/76/268
f 69/69/269 68/134/270 76/135/271 77/77/272
f 70/130/273 69/132/274 77/133/275 78/78/276
f 70/70/277 78/131/278 79/79/279 71/71/280
f 72/126/281 71/128/282 79/129/283 80/80/284
f 72/72/285 80/127/286 73/73/287 65/65/288
f 49/50/289 50/49/290 81/81/291 82/82/292
f 50/49/293 51/51/294 83/83/295 81/81/296
f 51/51/297 52/52/298 84/84/299 83/83/300
f 52/52/301 53/53/302 85/85/303 84/84/304
f 53/53/305 54/54/306 86/86/307 85/85/308
f 86/86/309 54/54/310 55/56/311 87/88/312
f 55/56/313 56/55/314 88/87/315 87/88/316
f 88/87/317 56/55/318 49/50/319 82/82/320
f 82/82/321 81/81/322 89/124/323 90/90/324
f 81/81/325 83/83/326 91/120/327 89/89/328
f 83/83/329 84/84/330 92/118/331 91/91/332
f 84/84/333 85/85/334 93/116/335 92/92/336
f 85/85/337 86/86/338 94/114/339 93/93/340
f 94/94/341 86/86/342 87/88/343 95/112/344
f 87/88/345 88/87/346 96/110/347 95/96/348
f 96/95/349 88/87/350 82/82/351 90/122/352
f 90/90/353 89/124/354 97/125/355 98/98/356
f 89/89/357 91/120/358 99/121/359 97/97/360
f 91/91/361 92/118/362 100/119/363 99/99/364
f 92/92/365 93/116/366 101/117/367 100/100/368
f 93/93/369 94/114/370 102/115/371 101/101/372
f 103/113/373 102/102/374 94/94/375 95/112/376
f 95/96/377 96/110/378 104/111/379 103/104/380
f 98/123/381 104/103/382 96/95/383 90/122/384
