# This file uses centimeters as units for non-parametric coordinates.

v 0.041002 0.041001 1.100832
v 0.000001 0.057984 1.100832
v -0.041000 0.041001 1.100832
v -0.057984 0.000000 1.100832
v -0.041000 -0.041001 1.100832
v 0.000001 -0.057984 1.100832
v 0.041002 -0.041001 1.100832
v 0.057984 0.000000 1.100832
v 0.041002 0.041001 -1.100832
v 0.057984 0.000000 -1.100832
v 0.041002 -0.041001 -1.100832
v 0.000001 -0.057984 -1.100832
v -0.041000 -0.041001 -1.100832
v -0.057984 0.000000 -1.100832
v -0.041000 0.041001 -1.100832
v 0.000001 0.057984 -1.100832
v 0.041002 0.041001 0.000000
v 0.057984 0.000000 0.000000
v 0.041002 -0.041001 0.000000
v 0.000001 -0.057984 0.000000
v -0.041000 -0.041001 0.000000
v -0.057984 0.000000 0.000000
v -0.041000 0.041001 0.000000
v 0.000001 0.057984 0.000000
vt 0.114842 0.006273
vt 0.130403 0.006273
vt 0.130424 0.392266
vt 0.114863 0.392267
vt 0.099281 0.006274
vt 0.099303 0.392268
vt 0.083720 0.006275
vt 0.083741 0.392269
vt 0.068159 0.006276
vt 0.068180 0.392270
vt 0.052598 0.006277
vt 0.052619 0.392271
vt 0.037037 0.006278
vt 0.037058 0.392271
vt 0.021477 0.006279
vt 0.021497 0.392272
vt 0.005915 0.006279
vt 0.005936 0.392273
vt 0.130445 0.778260
vt 0.114884 0.778261
vt 0.099323 0.778262
vt 0.083762 0.778263
vt 0.068201 0.778263
vt 0.052640 0.778264
vt 0.037080 0.778265
vt 0.021519 0.778266
vt 0.005958 0.778267
vn 0.923889 0.382661 0.000000
vn 0.923889 0.382661 0.000000
vn 0.923889 0.382661 0.000000
vn 0.923889 0.382661 0.000000
vn 0.923881 -0.382680 0.000000
vn 0.923881 -0.382680 0.000000
vn 0.923881 -0.382680 0.000000
vn 0.923881 -0.382680 0.000000
vn 0.382685 -0.923879 0.000000
vn 0.382685 -0.923879 0.000000
vn 0.382685 -0.923879 0.000000
vn 0.382685 -0.923879 0.000000
vn -0.382685 -0.923879 0.000000
vn -0.382685 -0.923879 0.000000
vn -0.382685 -0.923879 0.000000
vn -0.382685 -0.923879 0.000000
vn -0.923881 -0.382680 0.000000
vn -0.923881 -0.382680 0.000000
vn -0.923881 -0.382680 0.000000
vn -0.923881 -0.382680 0.000000
vn -0.923881 0.382680 0.000000
vn -0.923881 0.382680 0.000000
vn -0.923881 0.382680 0.000000
vn -0.923881 0.382680 0.000000
vn -0.382680 0.923881 0.000000
vn -0.382680 0.923881 0.000000
vn -0.382680 0.923881 0.000000
vn -0.382680 0.923881 0.000000
vn 0.382680 0.923881 0.000000
vn 0.382680 0.923881 0.000000
vn 0.382680 0.923881 0.000000
vn 0.382680 0.923881 0.000000
vn 0.923881 0.382680 0.000000
vn 0.923881 0.382680 0.000000
vn 0.923881 0.382680 0.000000
vn 0.923881 0.382680 0.000000
vn 0.923881 -0.382680 0.000000
vn 0.923881 -0.382680 0.000000
vn 0.923881 -0.382680 0.000000
vn 0.923881 -0.382680 0.000000
vn 0.382685 -0.923879 0.000000
vn 0.382685 -0.923879 0.000000
vn 0.382685 -0.923879 0.000000
vn 0.382685 -0.923879 0.000000
vn -0.382685 -0.923879 0.000000
vn -0.382685 -0.923879 0.000000
vn -0.382685 -0.923879 0.000000
vn -0.382685 -0.923879 0.000000
vn -0.923881 -0.382680 0.000000
vn -0.923881 -0.382680 0.000000
vn -0.923881 -0.382680 0.000000
vn -0.923881 -0.382680 0.000000
vn -0.923881 0.382680 0.000000
vn -0.923881 0.382680 0.000000
vn -0.923881 0.382680 0.000000
vn -0.923881 0.382680 0.000000
vn -0.382680 0.923881 0.000000
vn -0.382680 0.923881 0.000000
vn -0.382680 0.923881 0.000000
vn -0.382680 0.923881 0.000000
vn 0.382680 0.923881 0.000000
vn 0.382680 0.923881 0.000000
vn 0.382680 0.923881 0.000000
vn 0.382680 0.923881 0.000000
f 10/1/1 9/2/2 17/3/3 18/4/4
f 11/5/5 10/1/6 18/4/7 19/6/8
f 12/7/9 11/5/10 19/6/11 20/8/12
f 13/9/13 12/7/14 20/8/15 21/10/16
f 14/11/17 13/9/18 21/10/19 22/12/20
f 15/13/21 14/11/22 22/12/23 23/14/24
f 16/15/25 15/13/26 23/14/27 24/16/28
f 9/17/29 16/15/30 24/16/31 17/18/32
f 18/4/33 17/3/34 1/19/35 8/20/36
f 19/6/37 18/4/38 8/20/39 7/21/40
f 20/8/41 19/6/42 7/21/43 6/22/44
f 21/10/45 20/8/46 6/22/47 5/23/48
f 22/12/49 21/10/50 5/23/51 4/24/52
f 23/14/53 22/12/54 4/24/55 3/25/56
f 24/16/57 23/14/58 3/25/59 2/26/60
f 17/18/61 24/16/62 2/26/63 1/27/64
