# This file uses meters as units for non-parametric coordinates.

mtllib M_ReflectiveSign_Unwrapped.mtl
g default
v 86.602539 0.000000 -50.000000
v 50.000000 0.000000 -86.602539
v 0.000000 0.000000 -100.000000
v -50.000000 0.000000 -86.602539
v -86.602539 0.000000 -50.000000
v -100.000000 0.000000 0.000000
v -86.602539 0.000000 50.000000
v -50.000000 0.000000 86.602539
v 0.000000 0.000000 100.000000
v 50.000000 0.000000 86.602539
v 86.602539 0.000000 50.000000
v 100.000000 0.000000 0.000000
v 86.602539 10.443398 -50.000000
v 50.000000 10.443398 -86.602539
v 0.000000 10.443398 -100.000000
v -50.000000 10.443398 -86.602539
v -86.602539 10.443398 -50.000000
v -100.000000 10.443398 0.000000
v -86.602539 10.443398 50.000000
v -50.000000 10.443398 86.602539
v 0.000000 10.443398 100.000000
v 50.000000 10.443398 86.602539
v 86.602539 10.443398 50.000000
v 100.000000 10.443398 0.000000
v 0.000000 0.000000 0.000000
v 80.829041 10.443398 -46.666668
v 93.333344 10.443398 0.000000
v 80.829041 10.443398 46.666668
v 46.666656 10.443398 80.829041
v 0.000000 10.443398 93.333336
v -46.666672 10.443398 80.829041
v -80.829041 10.443398 46.666668
v -93.333344 10.443398 0.000000
v -80.829041 10.443398 -46.666668
v -46.666672 10.443398 -80.829041
v 0.000000 10.443398 -93.333336
v 46.666656 10.443398 -80.829041
v 57.735016 18.368731 -33.333332
v 33.333344 18.368731 -57.735023
v 16.666672 24.526974 -28.867512
v 28.867508 24.526974 -16.666666
v 0.000000 18.368731 -66.666664
v 0.000000 24.526974 -33.333332
v -33.333328 18.368731 -57.735023
v -16.666672 24.526974 -28.867512
v -57.735016 18.368731 -33.333332
v -28.867508 24.526974 -16.666666
v -66.666656 18.368731 0.000000
v -33.333328 24.526974 0.000000
v -57.735016 18.368731 33.333332
v -28.867508 24.526974 16.666666
v -33.333328 18.368731 57.735023
v -16.666672 24.526974 28.867512
v 0.000000 18.368731 66.666664
v 0.000000 24.526974 33.333332
v 33.333344 18.368731 57.735023
v 16.666672 24.526974 28.867512
v 57.735016 18.368731 33.333332
v 28.867508 24.526974 16.666666
v 66.666656 18.368731 0.000000
v 33.333344 24.526974 0.000000
v 0.000000 26.781466 0.000000
v 80.829041 7.883854 -46.666668
v 93.333344 7.883854 0.000000
v 80.829041 7.883854 46.666668
v 46.666656 7.883854 80.829041
v 0.000000 7.883854 93.333336
v -46.666672 7.883854 80.829041
v -80.829041 7.883854 46.666668
v -93.333344 7.883854 0.000000
v -80.829041 7.883854 -46.666668
v -46.666672 7.883854 -80.829041
v 0.000000 7.883854 -93.333336
v 46.666656 7.883854 -80.829041
vt 0.464027 0.297600
vt 0.464026 0.175458
vt 0.402955 0.069680
vt 0.297177 0.008609
vt 0.175035 0.008609
vt 0.069257 0.069680
vt 0.008186 0.175458
vt 0.008186 0.297600
vt 0.069257 0.403378
vt 0.175035 0.464449
vt 0.297177 0.464450
vt 0.402955 0.403378
vt 0.017325 0.889103
vt 0.139467 0.889096
vt 0.261610 0.889089
vt 0.383752 0.889082
vt 0.505894 0.889075
vt 0.628036 0.889068
vt 0.015990 0.945515
vt 0.138132 0.945508
vt 0.260274 0.945500
vt 0.382416 0.945493
vt 0.504558 0.945486
vt 0.626700 0.945479
vt 0.748842 0.945472
vt 0.017327 0.913745
vt 0.139469 0.913738
vt 0.261611 0.913731
vt 0.383753 0.913724
vt 0.505895 0.913717
vt 0.628037 0.913710
vt 0.015992 0.970157
vt 0.138134 0.970150
vt 0.260276 0.970143
vt 0.382418 0.970136
vt 0.504560 0.970128
vt 0.626702 0.970121
vt 0.898416 0.632647
vt 0.898509 0.518172
vt 0.841352 0.418987
vt 0.742260 0.361669
vt 0.627785 0.361576
vt 0.528601 0.418733
vt 0.471282 0.517824
vt 0.471189 0.632299
vt 0.528346 0.731484
vt 0.627438 0.788802
vt 0.741913 0.788895
vt 0.841098 0.731738
vt 0.790729 0.603773
vt 0.790812 0.547010
vt 0.762503 0.497810
vt 0.713387 0.469356
vt 0.656624 0.469273
vt 0.607424 0.497581
vt 0.578970 0.546698
vt 0.578886 0.603461
vt 0.607195 0.652661
vt 0.656311 0.681115
vt 0.713074 0.681198
vt 0.762275 0.652890
vt 0.236106 0.236529
vt 0.684849 0.575235
vt 0.021399 0.928940
vt 0.630774 0.985316
vt 0.508632 0.985323
vt 0.386490 0.985330
vt 0.264348 0.985337
vt 0.142206 0.985344
vt 0.020064 0.985351
vt 0.632110 0.928904
vt 0.509968 0.928911
vt 0.387825 0.928918
vt 0.265683 0.928926
vt 0.143541 0.928933
vt 0.908208 0.798594
vt 0.021400 0.934979
vt 0.989963 0.656990
vt 0.989963 0.493480
vt 0.908208 0.351876
vt 0.766604 0.270121
vt 0.603093 0.270122
vt 0.461490 0.351877
vt 0.379735 0.493481
vt 0.379735 0.656991
vt 0.461491 0.798595
vt 0.603095 0.880350
vt 0.143542 0.934972
vt 0.766605 0.880349
vt 0.265684 0.934965
vt 0.387826 0.934958
vt 0.509968 0.934951
vt 0.632110 0.934944
vt 0.020064 0.991391
vt 0.142206 0.991384
vt 0.264348 0.991377
vt 0.386490 0.991370
vt 0.508632 0.991363
vt 0.630774 0.991355
vt 0.135398 0.928933
vt 0.135399 0.934973
vt 0.257541 0.928926
vt 0.257541 0.934965
vt 0.379683 0.928919
vt 0.379683 0.934958
vt 0.501825 0.928912
vt 0.501825 0.934951
vt 0.623967 0.928905
vt 0.623967 0.934944
vt 0.746109 0.928898
vt 0.746109 0.934937
vt 0.134063 0.985345
vt 0.134063 0.991384
vt 0.256205 0.985338
vt 0.256205 0.991377
vt 0.378347 0.985331
vt 0.378348 0.991370
vt 0.500489 0.985323
vt 0.500490 0.991363
vt 0.622631 0.985316
vt 0.622632 0.991356
vt 0.744774 0.985309
vt 0.744774 0.991349
vt 0.748844 0.970114
vt 0.750178 0.889060
vt 0.750179 0.913703
vn 0.000000 -1.000000 0.000000
vn 0.000000 -1.000000 0.000000
vn 0.000000 -1.000000 0.000000
vn 0.000000 -1.000000 0.000000
vn 0.000000 -1.000000 0.000000
vn 0.000000 -1.000000 0.000000
vn 0.000000 -1.000000 0.000000
vn 0.000000 -1.000000 0.000000
vn 0.000000 -1.000000 0.000000
vn 0.000000 -1.000000 0.000000
vn 0.000000 -1.000000 0.000000
vn 0.000000 -1.000000 0.000000
vn 0.000000 -1.000000 0.000000
vn 0.000000 -1.000000 0.000000
vn 0.000000 -1.000000 0.000000
vn 0.000000 -1.000000 0.000000
vn 0.000000 -1.000000 0.000000
vn 0.000000 -1.000000 0.000000
vn 0.000000 -1.000000 0.000000
vn 0.000000 -1.000000 0.000000
vn 0.000000 -1.000000 0.000000
vn 0.000000 -1.000000 0.000000
vn 0.000000 -1.000000 0.000000
vn 0.000000 -1.000000 0.000000
vn 0.000000 -1.000000 0.000000
vn 0.000000 -1.000000 0.000000
vn 0.000000 -1.000000 0.000000
vn 0.000000 -1.000000 0.000000
vn 0.000000 -1.000000 0.000000
vn 0.000000 -1.000000 0.000000
vn 0.000000 -1.000000 0.000000
vn 0.000000 -1.000000 0.000000
vn 0.000000 -1.000000 0.000000
vn 0.000000 -1.000000 0.000000
vn 0.000000 -1.000000 0.000000
vn 0.000000 -1.000000 0.000000
vn 0.707107 0.000000 -0.707107
vn 0.707107 0.000000 -0.707107
vn 0.707107 0.000000 -0.707107
vn 0.707107 0.000000 -0.707107
vn 0.258819 0.000000 -0.965926
vn 0.258819 0.000000 -0.965926
vn 0.258819 0.000000 -0.965926
vn 0.258819 0.000000 -0.965926
vn -0.258819 0.000000 -0.965926
vn -0.258819 0.000000 -0.965926
vn -0.258819 0.000000 -0.965926
vn -0.258819 0.000000 -0.965926
vn -0.707107 0.000000 -0.707107
vn -0.707107 0.000000 -0.707107
vn -0.707107 0.000000 -0.707107
vn -0.707107 0.000000 -0.707107
vn -0.965926 0.000000 -0.258819
vn -0.965926 0.000000 -0.258819
vn -0.965926 0.000000 -0.258819
vn -0.965926 0.000000 -0.258819
vn -0.965926 0.000000 0.258819
vn -0.965926 0.000000 0.258819
vn -0.965926 0.000000 0.258819
vn -0.965926 0.000000 0.258819
vn -0.707107 0.000000 0.707107
vn -0.707107 0.000000 0.707107
vn -0.707107 0.000000 0.707107
vn -0.707107 0.000000 0.707107
vn -0.258819 0.000000 0.965926
vn -0.258819 0.000000 0.965926
vn -0.258819 0.000000 0.965926
vn -0.258819 0.000000 0.965926
vn 0.258819 0.000000 0.965926
vn 0.258819 0.000000 0.965926
vn 0.258819 0.000000 0.965926
vn 0.258819 0.000000 0.965926
vn 0.707107 0.000000 0.707107
vn 0.707107 0.000000 0.707107
vn 0.707107 0.000000 0.707107
vn 0.707107 0.000000 0.707107
vn 0.965926 0.000000 0.258819
vn 0.965926 0.000000 0.258819
vn 0.965926 0.000000 0.258819
vn 0.965926 0.000000 0.258819
vn 0.965926 0.000000 -0.258819
vn 0.965926 0.000000 -0.258819
vn 0.965926 0.000000 -0.258819
vn 0.965926 0.000000 -0.258819
vn 0.000000 1.000000 -0.000000
vn 0.000000 1.000000 -0.000000
vn 0.000000 1.000000 -0.000000
vn 0.000000 1.000000 -0.000000
vn 0.000000 1.000000 -0.000000
vn 0.000000 1.000000 -0.000000
vn 0.000000 1.000000 -0.000000
vn 0.000000 1.000000 -0.000000
vn 0.000000 1.000000 -0.000000
vn 0.000000 1.000000 -0.000000
vn 0.000000 1.000000 -0.000000
vn 0.000000 1.000000 -0.000000
vn 0.000000 1.000000 -0.000000
vn 0.000000 1.000000 -0.000000
vn 0.000000 1.000000 -0.000000
vn 0.000000 1.000000 -0.000000
vn 0.000000 1.000000 0.000000
vn 0.000000 1.000000 0.000000
vn 0.000000 1.000000 0.000000
vn 0.000000 1.000000 0.000000
vn 0.000000 1.000000 0.000000
vn 0.000000 1.000000 0.000000
vn 0.000000 1.000000 0.000000
vn 0.000000 1.000000 0.000000
vn 0.000000 1.000000 0.000000
vn 0.000000 1.000000 0.000000
vn 0.000000 1.000000 0.000000
vn 0.000000 1.000000 0.000000
vn 0.000000 1.000000 0.000000
vn 0.000000 1.000000 0.000000
vn 0.000000 1.000000 0.000000
vn 0.000000 1.000000 0.000000
vn 0.000000 1.000000 0.000000
vn 0.000000 1.000000 0.000000
vn 0.000000 1.000000 0.000000
vn 0.000000 1.000000 0.000000
vn 0.000000 1.000000 0.000000
vn 0.000000 1.000000 0.000000
vn 0.000000 1.000000 0.000000
vn 0.000000 1.000000 0.000000
vn 0.000000 1.000000 -0.000000
vn 0.000000 1.000000 -0.000000
vn 0.000000 1.000000 -0.000000
vn 0.000000 1.000000 -0.000000
vn 0.000000 1.000000 0.000000
vn 0.000000 1.000000 0.000000
vn 0.000000 1.000000 0.000000
vn 0.000000 1.000000 0.000000
vn 0.132837 0.982196 -0.132836
vn 0.132837 0.982196 -0.132836
vn 0.132837 0.982196 -0.132836
vn 0.132837 0.982196 -0.132836
vn 0.048622 0.982196 -0.181458
vn 0.048622 0.982196 -0.181458
vn 0.048622 0.982196 -0.181458
vn 0.048622 0.982196 -0.181458
vn -0.048622 0.982196 -0.181458
vn -0.048622 0.982196 -0.181458
vn -0.048622 0.982196 -0.181458
vn -0.048622 0.982196 -0.181458
vn -0.132837 0.982196 -0.132837
vn -0.132837 0.982196 -0.132837
vn -0.132837 0.982196 -0.132837
vn -0.132837 0.982196 -0.132837
vn -0.181458 0.982196 -0.048622
vn -0.181458 0.982196 -0.048622
vn -0.181458 0.982196 -0.048622
vn -0.181458 0.982196 -0.048622
vn -0.181458 0.982196 0.048622
vn -0.181458 0.982196 0.048622
vn -0.181458 0.982196 0.048622
vn -0.181458 0.982196 0.048622
vn -0.132837 0.982196 0.132837
vn -0.132837 0.982196 0.132837
vn -0.132837 0.982196 0.132837
vn -0.132837 0.982196 0.132837
vn -0.048622 0.982196 0.181458
vn -0.048622 0.982196 0.181458
vn -0.048622 0.982196 0.181458
vn -0.048622 0.982196 0.181458
vn 0.048622 0.982196 0.181458
vn 0.048622 0.982196 0.181458
vn 0.048622 0.982196 0.181458
vn 0.048622 0.982196 0.181458
vn 0.132837 0.982196 0.132836
vn 0.132837 0.982196 0.132836
vn 0.132837 0.982196 0.132836
vn 0.132837 0.982196 0.132836
vn 0.181458 0.982196 0.048622
vn 0.181458 0.982196 0.048622
vn 0.181458 0.982196 0.048622
vn 0.181458 0.982196 0.048622
vn 0.181458 0.982196 -0.048622
vn 0.181458 0.982196 -0.048622
vn 0.181458 0.982196 -0.048622
vn 0.181458 0.982196 -0.048622
vn 0.049391 0.997558 -0.049391
vn 0.049391 0.997558 -0.049391
vn 0.049391 0.997558 -0.049391
vn 0.018078 0.997558 -0.067470
vn 0.018078 0.997558 -0.067470
vn 0.018078 0.997558 -0.067470
vn -0.018078 0.997558 -0.067470
vn -0.018078 0.997558 -0.067470
vn -0.018078 0.997558 -0.067470
vn -0.049391 0.997558 -0.049391
vn -0.049391 0.997558 -0.049391
vn -0.049391 0.997558 -0.049391
vn -0.067470 0.997558 -0.018078
vn -0.067470 0.997558 -0.018078
vn -0.067470 0.997558 -0.018078
vn -0.067470 0.997558 0.018078
vn -0.067470 0.997558 0.018078
vn -0.067470 0.997558 0.018078
vn -0.049391 0.997558 0.049391
vn -0.049391 0.997558 0.049391
vn -0.049391 0.997558 0.049391
vn -0.018078 0.997558 0.067470
vn -0.018078 0.997558 0.067470
vn -0.018078 0.997558 0.067470
vn 0.018078 0.997558 0.067470
vn 0.018078 0.997558 0.067470
vn 0.018078 0.997558 0.067470
vn 0.049391 0.997558 0.049391
vn 0.049391 0.997558 0.049391
vn 0.049391 0.997558 0.049391
vn 0.067470 0.997558 0.018078
vn 0.067470 0.997558 0.018078
vn 0.067470 0.997558 0.018078
vn 0.067470 0.997558 -0.018078
vn 0.067470 0.997558 -0.018078
vn 0.067470 0.997558 -0.018078
vn 0.364169 0.926207 -0.097579
vn 0.364169 0.926207 -0.097579
vn 0.364169 0.926207 -0.097579
vn 0.364169 0.926207 -0.097579
vn 0.364169 0.926207 0.097579
vn 0.364169 0.926207 0.097579
vn 0.364169 0.926207 0.097579
vn 0.364169 0.926207 0.097579
vn 0.266590 0.926207 0.266590
vn 0.266590 0.926207 0.266590
vn 0.266590 0.926207 0.266590
vn 0.266590 0.926207 0.266590
vn 0.097579 0.926207 0.364169
vn 0.097579 0.926207 0.364169
vn 0.097579 0.926207 0.364169
vn 0.097579 0.926207 0.364169
vn -0.097579 0.926207 0.364169
vn -0.097579 0.926207 0.364169
vn -0.097579 0.926207 0.364169
vn -0.097579 0.926207 0.364169
vn -0.266590 0.926207 0.266590
vn -0.266590 0.926207 0.266590
vn -0.266590 0.926207 0.266590
vn -0.266590 0.926207 0.266590
vn -0.364169 0.926207 0.097579
vn -0.364169 0.926207 0.097579
vn -0.364169 0.926207 0.097579
vn -0.364169 0.926207 0.097579
vn -0.364169 0.926207 -0.097579
vn -0.364169 0.926207 -0.097579
vn -0.364169 0.926207 -0.097579
vn -0.364169 0.926207 -0.097579
vn -0.266590 0.926207 -0.266590
vn -0.266590 0.926207 -0.266590
vn -0.266590 0.926207 -0.266590
vn -0.266590 0.926207 -0.266590
vn -0.097579 0.926207 -0.364169
vn -0.097579 0.926207 -0.364169
vn -0.097579 0.926207 -0.364169
vn -0.097579 0.926207 -0.364169
vn 0.097579 0.926207 -0.364169
vn 0.097579 0.926207 -0.364169
vn 0.097579 0.926207 -0.364169
vn 0.097579 0.926207 -0.364169
vn 0.266590 0.926207 -0.266590
vn 0.266590 0.926207 -0.266590
vn 0.266590 0.926207 -0.266590
vn 0.266590 0.926207 -0.266590
vn -0.965926 0.000000 0.258819
vn -0.965926 0.000000 0.258819
vn -0.965926 0.000000 0.258819
vn -0.965926 0.000000 0.258819
vn -0.965926 0.000000 -0.258819
vn -0.965926 0.000000 -0.258819
vn -0.965926 0.000000 -0.258819
vn -0.965926 0.000000 -0.258819
vn -0.707107 0.000000 -0.707107
vn -0.707107 0.000000 -0.707107
vn -0.707107 0.000000 -0.707107
vn -0.707107 0.000000 -0.707107
vn -0.258819 0.000000 -0.965926
vn -0.258819 0.000000 -0.965926
vn -0.258819 0.000000 -0.965926
vn -0.258819 0.000000 -0.965926
vn 0.258819 0.000000 -0.965926
vn 0.258819 0.000000 -0.965926
vn 0.258819 0.000000 -0.965926
vn 0.258819 0.000000 -0.965926
vn 0.707107 0.000000 -0.707107
vn 0.707107 0.000000 -0.707107
vn 0.707107 0.000000 -0.707107
vn 0.707107 0.000000 -0.707107
vn 0.965926 0.000000 -0.258819
vn 0.965926 0.000000 -0.258819
vn 0.965926 0.000000 -0.258819
vn 0.965926 0.000000 -0.258819
vn 0.965926 0.000000 0.258819
vn 0.965926 0.000000 0.258819
vn 0.965926 0.000000 0.258819
vn 0.965926 0.000000 0.258819
vn 0.707107 0.000000 0.707107
vn 0.707107 0.000000 0.707107
vn 0.707107 0.000000 0.707107
vn 0.707107 0.000000 0.707107
vn 0.258819 0.000000 0.965926
vn 0.258819 0.000000 0.965926
vn 0.258819 0.000000 0.965926
vn 0.258819 0.000000 0.965926
vn -0.258819 0.000000 0.965926
vn -0.258819 0.000000 0.965926
vn -0.258819 0.000000 0.965926
vn -0.258819 0.000000 0.965926
vn -0.707107 0.000000 0.707107
vn -0.707107 0.000000 0.707107
vn -0.707107 0.000000 0.707107
vn -0.707107 0.000000 0.707107
s off
g pCylinder12
usemtl initialShadingGroup
f 25/62/1 2/2/2 1/1/3
f 25/62/4 3/3/5 2/2/6
f 25/62/7 4/4/8 3/3/9
f 25/62/10 5/5/11 4/4/12
f 25/62/13 6/6/14 5/5/15
f 25/62/16 7/7/17 6/6/18
f 25/62/19 8/8/20 7/7/21
f 25/62/22 9/9/23 8/8/24
f 25/62/25 10/10/26 9/9/27
f 25/62/28 11/11/29 10/10/30
f 25/62/31 12/12/32 11/11/33
f 25/62/34 1/1/35 12/12/36
f 1/13/37 2/14/38 14/27/39 13/26/40
f 2/14/41 3/15/42 15/28/43 14/27/44
f 3/15/45 4/16/46 16/29/47 15/28/48
f 4/16/49 5/17/50 17/30/51 16/29/52
f 5/17/53 6/18/54 18/31/55 17/30/56
f 6/18/57 7/125/58 19/126/59 18/31/60
f 7/19/61 8/20/62 20/33/63 19/32/64
f 8/20/65 9/21/66 21/34/67 20/33/68
f 9/21/69 10/22/70 22/35/71 21/34/72
f 10/22/73 11/23/74 23/36/75 22/35/76
f 11/23/77 12/24/78 24/37/79 23/36/80
f 12/24/81 1/25/82 13/124/83 24/37/84
f 13/26/85 14/27/86 37/100/87 26/64/88
f 14/27/89 15/28/90 36/102/91 37/75/92
f 15/28/93 16/29/94 35/104/95 36/74/96
f 16/29/97 17/30/98 34/106/99 35/73/100
f 17/30/101 18/31/102 33/108/103 34/72/104
f 18/31/105 19/126/106 32/110/107 33/71/108
f 19/32/109 20/33/110 31/112/111 32/70/112
f 20/33/113 21/34/114 30/114/115 31/69/116
f 21/34/117 22/35/118 29/116/119 30/68/120
f 22/35/121 23/36/122 28/118/123 29/67/124
f 23/36/125 24/37/126 27/120/127 28/66/128
f 24/37/129 13/124/130 26/122/131 27/65/132
f 38/48/133 39/47/134 40/59/135 41/60/136
f 39/47/137 42/46/138 43/58/139 40/59/140
f 42/46/141 44/45/142 45/57/143 43/58/144
f 44/45/145 46/44/146 47/56/147 45/57/148
f 46/44/149 48/43/150 49/55/151 47/56/152
f 48/43/153 50/42/154 51/54/155 49/55/156
f 50/42/157 52/41/158 53/53/159 51/54/160
f 52/41/161 54/40/162 55/52/163 53/53/164
f 54/40/165 56/39/166 57/51/167 55/52/168
f 56/39/169 58/38/170 59/50/171 57/51/172
f 58/38/173 60/49/174 61/61/175 59/50/176
f 60/49/177 38/48/178 41/60/179 61/61/180
f 41/60/181 40/59/182 62/63/183
f 40/59/184 43/58/185 62/63/186
f 43/58/187 45/57/188 62/63/189
f 45/57/190 47/56/191 62/63/192
f 47/56/193 49/55/194 62/63/195
f 49/55/196 51/54/197 62/63/198
f 51/54/199 53/53/200 62/63/201
f 53/53/202 55/52/203 62/63/204
f 55/52/205 57/51/206 62/63/207
f 57/51/208 59/50/209 62/63/210
f 59/50/211 61/61/212 62/63/213
f 61/61/214 41/60/215 62/63/216
f 64/76/217 63/89/218 38/48/219 60/49/220
f 65/78/221 64/76/222 60/49/223 58/38/224
f 66/79/225 65/78/226 58/38/227 56/39/228
f 67/80/229 66/79/230 56/39/231 54/40/232
f 68/81/233 67/80/234 54/40/235 52/41/236
f 69/82/237 68/81/238 52/41/239 50/42/240
f 70/83/241 69/82/242 50/42/243 48/43/244
f 71/84/245 70/83/246 48/43/247 46/44/248
f 72/85/249 71/84/250 46/44/251 44/45/252
f 73/86/253 72/85/254 44/45/255 42/46/256
f 74/87/257 73/86/258 42/46/259 39/47/260
f 63/89/261 74/87/262 39/47/263 38/48/264
f 27/65/265 26/122/266 63/123/267 64/99/268
f 28/66/269 27/120/270 64/121/271 65/98/272
f 29/67/273 28/118/274 65/119/275 66/97/276
f 30/68/277 29/116/278 66/117/279 67/96/280
f 31/69/281 30/114/282 67/115/283 68/95/284
f 32/70/285 31/112/286 68/113/287 69/94/288
f 33/71/289 32/110/290 69/111/291 70/93/292
f 34/72/293 33/108/294 70/109/295 71/92/296
f 35/73/297 34/106/298 71/107/299 72/91/300
f 36/74/301 35/104/302 72/105/303 73/90/304
f 37/75/305 36/102/306 73/103/307 74/88/308
f 26/64/309 37/100/310 74/101/311 63/77/312
