# This file uses centimeters as units for non-parametric coordinates.

v -0.727309 0.000000 0.021082
v 0.727309 0.000000 0.021082
v -0.727309 0.414186 0.021082
v 0.727309 0.414186 0.021082
v -0.727309 0.414186 -0.021082
v 0.727309 0.414186 -0.021082
v -0.727309 0.000000 -0.021082
v 0.727309 0.000000 -0.021082
vt 0.030842 0.301600
vt 0.968926 0.301458
vt 0.030882 0.568709
vt 0.968967 0.568567
vt 0.030886 0.595901
vt 0.968971 0.595759
vt 0.030927 0.863011
vt 0.969011 0.862868
vt 0.030931 0.890203
vt 0.969015 0.890061
vt 0.996118 0.301454
vt 0.996159 0.568563
vt 0.003649 0.301604
vt 0.003690 0.568713
vn 0.000000 0.000000 1.000000
vn 0.000000 0.000000 1.000000
vn 0.000000 0.000000 1.000000
vn 0.000000 0.000000 1.000000
vn 0.000000 1.000000 0.000000
vn 0.000000 1.000000 0.000000
vn 0.000000 1.000000 0.000000
vn 0.000000 1.000000 0.000000
vn 0.000000 0.000000 -1.000000
vn 0.000000 0.000000 -1.000000
vn 0.000000 0.000000 -1.000000
vn 0.000000 0.000000 -1.000000
vn 0.000000 -1.000000 0.000000
vn 0.000000 -1.000000 0.000000
vn 0.000000 -1.000000 0.000000
vn 0.000000 -1.000000 0.000000
vn 1.000000 0.000000 0.000000
vn 1.000000 0.000000 0.000000
vn 1.000000 0.000000 0.000000
vn 1.000000 0.000000 0.000000
vn -1.000000 0.000000 0.000000
vn -1.000000 0.000000 0.000000
vn -1.000000 0.000000 0.000000
vn -1.000000 0.000000 0.000000
f 1/1/1 2/2/2 4/4/3 3/3/4
f 3/3/5 4/4/6 6/6/7 5/5/8
f 5/5/9 6/6/10 8/8/11 7/7/12
f 7/7/13 8/8/14 2/10/15 1/9/16
f 2/2/17 8/11/18 6/12/19 4/4/20
f 7/13/21 1/1/22 3/3/23 5/14/24
