# This file uses meters as units for non-parametric coordinates.

v 16.814747 212.435257 2.019020
v -16.814722 212.435257 2.019020
v -40.594349 188.655640 2.019020
v -40.594349 155.026169 2.019020
v -16.814724 131.246536 2.019020
v 16.814747 131.246536 2.019020
v 40.594379 155.026154 2.019020
v 40.594379 188.655640 2.019020
v 16.814747 212.435257 4.972046
v -16.814722 212.435257 4.972046
v -40.594349 188.655640 4.972046
v -40.594349 155.026169 4.972046
v -16.814724 131.246536 4.972046
v 16.814747 131.246536 4.972046
v 40.594379 155.026154 4.972046
v 40.594379 188.655640 4.972046
v 0.000011 171.840897 2.019020
v 0.000011 171.840897 4.972046
v 36.534943 186.974167 4.972046
v 15.133272 208.375824 4.972046
v -15.133250 208.375824 4.972046
v -36.534912 186.974152 4.972046
v -36.534912 156.707642 4.972046
v -15.133251 135.305969 4.972046
v 15.133272 135.305969 4.972046
v 36.534943 156.707626 4.972046
v 1.478729 0.000000 -2.561203
v -1.478729 0.000000 -2.561203
v -2.957458 0.000000 0.000000
v -1.478729 0.000000 2.561203
v 1.478729 0.000000 2.561203
v 2.957458 0.000000 0.000000
v 1.478729 206.428680 -2.561203
v -1.478729 206.428680 -2.561203
v -2.957458 206.428680 0.000000
v -1.478729 206.428680 2.561203
v 1.478729 206.428680 2.561203
v 2.957458 206.428680 0.000000
v 0.000000 0.000000 0.000000
v 0.000000 206.428680 0.000000
vt 0.498603 0.741491
vt 0.498603 0.541586
vt 0.357249 0.400231
vt 0.157344 0.400231
vt 0.015989 0.541586
vt 0.015989 0.741491
vt 0.157344 0.882846
vt 0.357249 0.882846
vt 0.726764 0.527316
vt 0.526859 0.527313
vt 0.373094 0.380815
vt 0.367955 0.168498
vt 0.514453 0.014733
vt 0.726771 0.009594
vt 0.880536 0.156092
vt 0.885674 0.368410
vt 0.739176 0.522174
vt 0.726764 0.509762
vt 0.526859 0.509759
vt 0.385506 0.368403
vt 0.385509 0.168498
vt 0.526865 0.027145
vt 0.726771 0.027148
vt 0.868123 0.168504
vt 0.868120 0.368409
vt 0.257296 0.641539
vt 0.626815 0.268453
vt 0.843990 0.358414
vt 0.716769 0.485631
vt 0.536854 0.485629
vt 0.409637 0.358408
vt 0.409640 0.178493
vt 0.536860 0.051276
vt 0.716775 0.051278
vt 0.843992 0.178499
vt 0.008556 0.959424
vt 0.008556 0.945342
vt 0.991444 0.945342
vt 0.991444 0.959424
vt 0.008556 0.931261
vt 0.991444 0.931261
vt 0.008556 0.917179
vt 0.991444 0.917179
vt 0.008556 0.903097
vt 0.991444 0.903097
vt 0.008556 0.987587
vt 0.008556 0.973505
vt 0.991444 0.973505
vt 0.991444 0.987587
vt 0.667777 0.702604
vt 0.667776 0.734878
vt 0.639827 0.718741
vt 0.639827 0.686467
vt 0.611877 0.702603
vt 0.611877 0.734877
vt 0.639826 0.751015
vt 0.758844 0.702604
vt 0.758844 0.734878
vt 0.730895 0.718741
vt 0.730895 0.751015
vt 0.702945 0.734878
vt 0.702944 0.702605
vt 0.730894 0.686467
vt 0.880533 0.380822
vt 0.885677 0.168504
vt 0.739183 0.014736
vt 0.526866 0.009591
vt 0.373097 0.156085
vt 0.367952 0.368403
vt 0.514446 0.522171
vn 0.000000 1.000000 0.000000
vn 0.000000 1.000000 0.000000
vn 0.000000 1.000000 0.000000
vn 0.000000 1.000000 0.000000
vn -0.707107 0.707107 0.000000
vn -0.707107 0.707107 0.000000
vn -0.707107 0.707107 0.000000
vn -0.707107 0.707107 0.000000
vn -1.000000 0.000000 0.000000
vn -1.000000 0.000000 0.000000
vn -1.000000 0.000000 0.000000
vn -1.000000 0.000000 0.000000
vn -0.707107 -0.707107 0.000000
vn -0.707107 -0.707107 0.000000
vn -0.707107 -0.707107 0.000000
vn -0.707107 -0.707107 0.000000
vn 0.000000 -1.000000 0.000000
vn 0.000000 -1.000000 0.000000
vn 0.000000 -1.000000 0.000000
vn 0.000000 -1.000000 0.000000
vn 0.707107 -0.707107 0.000000
vn 0.707107 -0.707107 0.000000
vn 0.707107 -0.707107 0.000000
vn 0.707107 -0.707107 0.000000
vn 1.000000 0.000000 0.000000
vn 1.000000 0.000000 0.000000
vn 1.000000 0.000000 0.000000
vn 1.000000 0.000000 0.000000
vn 0.707107 0.707107 0.000000
vn 0.707107 0.707107 0.000000
vn 0.707107 0.707107 0.000000
vn 0.707107 0.707107 0.000000
vn 0.000000 0.000000 -1.000000
vn 0.000000 0.000000 -1.000000
vn -0.000000 0.000000 -1.000000
vn 0.000000 0.000000 -1.000000
vn 0.000000 0.000000 -1.000000
vn 0.000000 0.000000 -1.000000
vn -0.000000 0.000000 -1.000000
vn -0.000000 0.000000 -1.000000
vn 0.000000 0.000000 -1.000000
vn -0.000000 0.000000 1.000000
vn -0.000000 0.000000 1.000000
vn 0.000000 0.000000 1.000000
vn -0.000000 0.000000 1.000000
vn -0.000000 0.000000 1.000000
vn 0.000000 0.000000 1.000000
vn 0.000000 0.000000 1.000000
vn 0.000000 0.000000 1.000000
vn 0.000000 0.000000 1.000000
vn 0.000000 0.000000 1.000000
vn -0.000000 0.000000 1.000000
vn -0.000000 0.000000 1.000000
vn -0.000000 0.000000 1.000000
vn -0.000000 0.000000 1.000000
vn 0.000000 0.000000 1.000000
vn 0.000000 0.000000 1.000000
vn 0.000000 0.000000 1.000000
vn 0.000000 0.000000 -1.000000
vn 0.000000 0.000000 -1.000000
vn 0.000000 0.000000 -1.000000
vn 0.000000 0.000000 -1.000000
vn -0.866023 0.000000 -0.500005
vn -0.866023 0.000000 -0.500005
vn -0.866023 0.000000 -0.500005
vn -0.866023 0.000000 -0.500005
vn -0.866023 0.000000 0.500004
vn -0.866023 0.000000 0.500004
vn -0.866023 0.000000 0.500004
vn -0.866023 0.000000 0.500004
vn 0.000000 0.000000 1.000000
vn 0.000000 0.000000 1.000000
vn 0.000000 0.000000 1.000000
vn 0.000000 0.000000 1.000000
vn 0.866023 0.000000 0.500004
vn 0.866023 0.000000 0.500004
vn 0.866023 0.000000 0.500004
vn 0.866023 0.000000 0.500004
vn 0.866023 0.000000 -0.500005
vn 0.866023 0.000000 -0.500005
vn 0.866023 0.000000 -0.500005
vn 0.866023 0.000000 -0.500005
vn 0.000000 -1.000000 0.000000
vn 0.000000 -1.000000 0.000000
vn 0.000000 -1.000000 0.000000
vn 0.000000 -1.000000 0.000000
vn 0.000000 -1.000000 0.000000
vn 0.000000 -1.000000 0.000000
vn 0.000000 -1.000000 0.000000
vn 0.000000 -1.000000 0.000000
vn 0.000000 -1.000000 0.000000
vn 0.000000 -1.000000 0.000000
vn 0.000000 -1.000000 0.000000
vn 0.000000 -1.000000 0.000000
vn 0.000000 -1.000000 0.000000
vn 0.000000 -1.000000 0.000000
vn 0.000000 -1.000000 0.000000
vn 0.000000 -1.000000 0.000000
vn 0.000000 -1.000000 0.000000
vn 0.000000 -1.000000 0.000000
vn 0.000000 1.000000 0.000000
vn 0.000000 1.000000 0.000000
vn 0.000000 1.000000 0.000000
vn 0.000000 1.000000 0.000000
vn 0.000000 1.000000 0.000000
vn 0.000000 1.000000 0.000000
vn 0.000000 1.000000 0.000000
vn 0.000000 1.000000 0.000000
vn 0.000000 1.000000 0.000000
vn 0.000000 1.000000 0.000000
vn 0.000000 1.000000 0.000000
vn 0.000000 1.000000 0.000000
vn 0.000000 1.000000 0.000000
vn 0.000000 1.000000 0.000000
vn 0.000000 1.000000 0.000000
vn 0.000000 1.000000 0.000000
vn 0.000000 1.000000 0.000000
vn 0.000000 1.000000 0.000000
g pCylinder3
f 1/9/1 2/10/2 10/19/3 9/18/4
f 2/70/5 3/11/6 11/20/7 10/19/8
f 3/69/9 4/12/10 12/21/11 11/20/12
f 4/68/13 5/13/14 13/22/15 12/21/16
f 5/67/17 6/14/18 14/23/19 13/22/20
f 6/66/21 7/15/22 15/24/23 14/23/24
f 7/65/25 8/16/26 16/25/27 15/24/28
f 8/64/29 1/17/30 9/18/31 16/25/32
f 2/2/33 1/1/34 17/26/35
f 3/3/36 2/2/33 17/26/35
f 4/4/37 3/3/36 17/26/35
f 5/5/38 4/4/37 17/26/35
f 6/6/39 5/5/38 17/26/35
f 7/7/40 6/6/39 17/26/35
f 8/8/41 7/7/40 17/26/35
f 1/1/34 8/8/41 17/26/35
f 20/29/42 21/30/43 18/27/44
f 21/30/43 22/31/45 18/27/44
f 22/31/45 23/32/46 18/27/44
f 23/32/46 24/33/47 18/27/44
f 24/33/47 25/34/48 18/27/44
f 25/34/48 26/35/49 18/27/44
f 26/35/49 19/28/50 18/27/44
f 19/28/50 20/29/42 18/27/44
f 16/25/51 9/18/52 20/29/42 19/28/50
f 9/18/52 10/19/53 21/30/43 20/29/42
f 10/19/53 11/20/54 22/31/45 21/30/43
f 11/20/54 12/21/55 23/32/46 22/31/45
f 12/21/55 13/22/56 24/33/47 23/32/46
f 13/22/56 14/23/57 25/34/48 24/33/47
f 14/23/57 15/24/58 26/35/49 25/34/48
f 15/24/58 16/25/51 19/28/50 26/35/49
f 27/36/59 28/37/60 34/38/61 33/39/62
f 28/37/63 29/40/64 35/41/65 34/38/66
f 29/40/67 30/42/68 36/43/69 35/41/70
f 30/42/71 31/44/72 37/45/73 36/43/74
f 31/46/75 32/47/76 38/48/77 37/49/78
f 32/47/79 27/36/80 33/39/81 38/48/82
f 28/50/83 27/51/84 39/52/85
f 29/53/86 28/50/87 39/52/88
f 30/54/89 29/53/90 39/52/91
f 31/55/92 30/54/93 39/52/94
f 32/56/95 31/55/96 39/52/97
f 27/51/98 32/56/99 39/52/100
f 33/57/101 34/58/102 40/59/103
f 34/58/104 35/60/105 40/59/106
f 35/60/107 36/61/108 40/59/109
f 36/61/110 37/62/111 40/59/112
f 37/62/113 38/63/114 40/59/115
f 38/63/116 33/57/117 40/59/118
