# This file uses meters as units for non-parametric coordinates.

v 1.478729 0.000000 -2.561203
v -1.478729 0.000000 -2.561203
v -2.957458 0.000000 0.000000
v -1.478729 0.000000 2.561203
v 1.478729 0.000000 2.561203
v 2.957458 0.000000 0.000000
v 1.478729 206.428680 -2.561203
v -1.478729 206.428680 -2.561203
v -2.957458 206.428680 0.000000
v -1.478729 206.428680 2.561203
v 1.478729 206.428680 2.561203
v 2.957458 206.428680 0.000000
v 0.000000 0.000000 0.000000
v 0.000000 206.428680 0.000000
v 23.327524 232.934357 2.019020
v -23.327505 232.934372 2.019020
v -46.655025 192.529922 2.019020
v -23.327518 152.125488 2.019020
v 23.327511 152.125488 2.019020
v 46.655025 192.529922 2.019020
v 23.327524 232.934357 4.972046
v -23.327505 232.934372 4.972046
v -46.655025 192.529922 4.972046
v -23.327518 152.125488 4.972046
v 23.327511 152.125488 4.972046
v 46.655025 192.529922 4.972046
v 0.000000 192.529922 2.019020
v 0.000000 192.529922 4.972046
vt 0.063752 0.752944
vt 0.053187 0.752944
vt 0.047904 0.762093
vt 0.053187 0.771242
vt 0.063752 0.771242
vt 0.069034 0.762093
vt 0.018741 0.000012
vt 0.029306 0.000010
vt 0.039871 0.000008
vt 0.050436 0.000006
vt 0.061001 0.000004
vt 0.071566 0.000002
vt 0.082130 0.000000
vt 0.018875 0.737440
vt 0.029440 0.737438
vt 0.040005 0.737436
vt 0.050570 0.737434
vt 0.061135 0.737432
vt 0.071700 0.737430
vt 0.082265 0.737428
vt 0.040090 0.752944
vt 0.029525 0.752944
vt 0.024243 0.762093
vt 0.029525 0.771242
vt 0.040090 0.771242
vt 0.045372 0.762093
vt 0.058469 0.762093
vt 0.034808 0.762093
vt 0.001951 0.997005
vt 0.001924 0.831337
vt 0.012410 0.831335
vt 0.012437 0.997003
vt 0.001898 0.665669
vt 0.012384 0.665667
vt 0.001871 0.500001
vt 0.012357 0.499999
vt 0.001844 0.334333
vt 0.012330 0.334331
vt 0.001817 0.168665
vt 0.012303 0.168663
vt 0.001790 0.002997
vt 0.012276 0.002995
vt 0.421481 0.505431
vt 0.699976 0.505431
vt 0.560729 0.746615
vt 0.282234 0.746615
vt 0.421481 0.987798
vt 0.699976 0.987798
vt 0.839224 0.746615
vt 0.697593 0.495449
vt 0.419098 0.495449
vt 0.558346 0.254265
vt 0.279851 0.254265
vt 0.419098 0.013081
vt 0.697593 0.013082
vt 0.836841 0.254265
vn 0.000000 0.000000 -1.000000
vn 0.000000 0.000000 -1.000000
vn 0.000000 0.000000 -1.000000
vn 0.000000 0.000000 -1.000000
vn -0.866023 0.000000 -0.500005
vn -0.866023 0.000000 -0.500005
vn -0.866023 0.000000 -0.500005
vn -0.866023 0.000000 -0.500005
vn -0.866023 0.000000 0.500004
vn -0.866023 0.000000 0.500004
vn -0.866023 0.000000 0.500004
vn -0.866023 0.000000 0.500004
vn 0.000000 0.000000 1.000000
vn 0.000000 0.000000 1.000000
vn 0.000000 0.000000 1.000000
vn 0.000000 0.000000 1.000000
vn 0.866023 0.000000 0.500004
vn 0.866023 0.000000 0.500004
vn 0.866023 0.000000 0.500004
vn 0.866023 0.000000 0.500004
vn 0.866023 0.000000 -0.500005
vn 0.866023 0.000000 -0.500005
vn 0.866023 0.000000 -0.500005
vn 0.866023 0.000000 -0.500005
vn 0.000000 -1.000000 0.000000
vn 0.000000 -1.000000 0.000000
vn 0.000000 -1.000000 0.000000
vn 0.000000 -1.000000 0.000000
vn 0.000000 -1.000000 0.000000
vn 0.000000 -1.000000 0.000000
vn 0.000000 -1.000000 0.000000
vn 0.000000 -1.000000 0.000000
vn 0.000000 -1.000000 0.000000
vn 0.000000 -1.000000 0.000000
vn 0.000000 -1.000000 0.000000
vn 0.000000 -1.000000 0.000000
vn 0.000000 -1.000000 0.000000
vn 0.000000 -1.000000 0.000000
vn 0.000000 -1.000000 0.000000
vn 0.000000 -1.000000 0.000000
vn 0.000000 -1.000000 0.000000
vn 0.000000 -1.000000 0.000000
vn 0.000000 1.000000 0.000000
vn 0.000000 1.000000 0.000000
vn 0.000000 1.000000 0.000000
vn 0.000000 1.000000 0.000000
vn 0.000000 1.000000 0.000000
vn 0.000000 1.000000 0.000000
vn 0.000000 1.000000 0.000000
vn 0.000000 1.000000 0.000000
vn 0.000000 1.000000 0.000000
vn 0.000000 1.000000 0.000000
vn 0.000000 1.000000 0.000000
vn 0.000000 1.000000 0.000000
vn 0.000000 1.000000 0.000000
vn 0.000000 1.000000 0.000000
vn 0.000000 1.000000 0.000000
vn 0.000000 1.000000 0.000000
vn 0.000000 1.000000 0.000000
vn 0.000000 1.000000 0.000000
vn 0.000000 1.000000 0.000000
vn 0.000000 1.000000 0.000000
vn 0.000000 1.000000 0.000000
vn 0.000000 1.000000 0.000000
vn -0.866025 0.500000 0.000000
vn -0.866025 0.500000 0.000000
vn -0.866025 0.500000 0.000000
vn -0.866025 0.500000 0.000000
vn -0.866026 -0.500000 0.000000
vn -0.866026 -0.500000 0.000000
vn -0.866026 -0.500000 0.000000
vn -0.866026 -0.500000 0.000000
vn 0.000000 -1.000000 0.000000
vn 0.000000 -1.000000 0.000000
vn 0.000000 -1.000000 0.000000
vn 0.000000 -1.000000 0.000000
vn 0.866026 -0.500000 0.000000
vn 0.866026 -0.500000 0.000000
vn 0.866026 -0.500000 0.000000
vn 0.866026 -0.500000 0.000000
vn 0.866026 0.500000 0.000000
vn 0.866026 0.500000 0.000000
vn 0.866026 0.500000 0.000000
vn 0.866026 0.500000 0.000000
vn 0.000000 0.000000 -1.000000
vn 0.000000 0.000000 -1.000000
vn 0.000000 0.000000 -1.000000
vn 0.000000 0.000000 -1.000000
vn 0.000000 0.000000 -1.000000
vn 0.000000 0.000000 -1.000000
vn 0.000000 0.000000 -1.000000
vn 0.000000 0.000000 -1.000000
vn 0.000000 0.000000 -1.000000
vn 0.000000 0.000000 -1.000000
vn 0.000000 0.000000 -1.000000
vn 0.000000 0.000000 -1.000000
vn 0.000000 0.000000 -1.000000
vn 0.000000 0.000000 -1.000000
vn 0.000000 0.000000 -1.000000
vn 0.000000 0.000000 -1.000000
vn 0.000000 0.000000 -1.000000
vn 0.000000 0.000000 -1.000000
vn 0.000000 0.000000 1.000000
vn 0.000000 0.000000 1.000000
vn 0.000000 0.000000 1.000000
vn 0.000000 0.000000 1.000000
vn 0.000000 0.000000 1.000000
vn 0.000000 0.000000 1.000000
vn 0.000000 0.000000 1.000000
vn 0.000000 0.000000 1.000000
vn 0.000000 0.000000 1.000000
vn 0.000000 0.000000 1.000000
vn 0.000000 0.000000 1.000000
vn 0.000000 0.000000 1.000000
vn 0.000000 0.000000 1.000000
vn 0.000000 0.000000 1.000000
vn 0.000000 0.000000 1.000000
vn 0.000000 0.000000 1.000000
vn 0.000000 0.000000 1.000000
vn 0.000000 0.000000 1.000000
f 1/7/1 2/8/2 8/15/3 7/14/4
f 2/8/5 3/9/6 9/16/7 8/15/8
f 3/9/9 4/10/10 10/17/11 9/16/12
f 4/10/13 5/11/14 11/18/15 10/17/16
f 5/11/17 6/12/18 12/19/19 11/18/20
f 6/12/21 1/13/22 7/20/23 12/19/24
f 2/2/25 1/1/26 13/27/27
f 3/3/28 2/2/29 13/27/30
f 4/4/31 3/3/32 13/27/33
f 5/5/34 4/4/35 13/27/36
f 6/6/37 5/5/38 13/27/39
f 1/1/40 6/6/41 13/27/42
f 7/25/43 8/24/44 14/28/45
f 8/24/46 9/23/47 14/28/48
f 9/23/49 10/22/50 14/28/51
f 10/22/52 11/21/53 14/28/54
f 11/21/55 12/26/56 14/28/57
f 12/26/58 7/25/59 14/28/60
f 15/29/61 16/30/62 22/31/63 21/32/64
f 16/30/65 17/33/66 23/34/67 22/31/68
f 17/33/69 18/35/70 24/36/71 23/34/72
f 18/35/73 19/37/74 25/38/75 24/36/76
f 19/37/77 20/39/78 26/40/79 25/38/80
f 20/39/81 15/41/82 21/42/83 26/40/84
f 16/43/85 15/44/86 27/45/87
f 17/46/88 16/43/89 27/45/90
f 18/47/91 17/46/92 27/45/93
f 19/48/94 18/47/95 27/45/96
f 20/49/97 19/48/98 27/45/99
f 15/44/100 20/49/101 27/45/102
f 21/50/103 22/51/104 28/52/105
f 22/51/106 23/53/107 28/52/108
f 23/53/109 24/54/110 28/52/111
f 24/54/112 25/55/113 28/52/114
f 25/55/115 26/56/116 28/52/117
f 26/56/118 21/50/119 28/52/120
