# This file uses meters as units for non-parametric coordinates.

v 18.947638 0.000001 -18.947628
v 0.000000 0.000001 -26.796010
v -18.947638 0.000001 -18.947628
v -26.796006 0.000001 -0.000000
v -18.947638 0.000001 18.947628
v 0.000000 0.000001 26.796010
v 18.947650 0.000001 18.947644
v 26.796024 0.000001 -0.000000
v 18.947638 4.921652 -18.947628
v 0.000000 4.921652 -26.796010
v -18.947638 4.921652 -18.947628
v -26.796006 4.921652 -0.000000
v -18.947638 4.921652 18.947628
v 0.000000 4.921652 26.796010
v 18.947650 4.921652 18.947644
v 26.796024 4.921652 -0.000000
v 10.986783 4.921652 -10.986773
v 0.000002 4.921652 -15.537662
v -10.986779 4.921652 -10.986773
v -15.537654 4.921652 -0.000000
v -10.986779 4.921652 10.986773
v 0.000002 4.921652 15.537662
v 10.986786 4.921652 10.986789
v 15.537664 4.921652 -0.000000
v 9.384788 17.741072 -9.384786
v 13.272103 17.741072 -0.000000
v 9.384791 17.741072 9.384786
v 0.000002 17.741072 13.272088
v -9.384784 17.741072 9.384786
v -13.272089 17.741072 -0.000000
v -9.384784 17.741072 -9.384786
v 0.000002 17.741072 -13.272137
v 3.297889 65.356043 -3.297885
v 4.663914 65.356043 -0.000000
v 3.297889 65.356043 3.297885
v 0.000004 65.356043 4.663902
v -3.297880 65.356043 3.297885
v -4.663906 65.356043 -0.000000
v -3.297880 65.356043 -3.297885
v 0.000004 65.356043 -4.663951
v 7.050452 36.420793 -7.050487
v 9.970844 36.420793 -0.000000
v 7.050454 36.420793 7.050455
v 0.000003 36.420793 9.970834
v -7.050446 36.420793 7.050438
v -9.970836 36.420793 -0.000000
v -7.050446 36.420793 -7.050487
v 0.000003 36.420793 -9.970883
v 13.880532 0.000001 -13.880526
v 0.000002 0.000001 -19.630040
v -13.880532 0.000001 -13.880526
v -19.630027 0.000001 -0.000000
v -13.880532 0.000001 13.880526
v 0.000002 0.000001 19.630040
v 13.880536 0.000001 13.880542
v 19.630040 0.000001 -0.000000
v 9.342453 3.400693 -9.342459
v 0.000003 3.400693 -13.212261
v -9.342447 3.400693 -9.342459
v -13.212215 3.400693 -0.000000
v -9.342447 3.400693 9.342426
v 0.000003 3.400693 13.212212
v 9.342457 3.400693 9.342426
v 13.212230 3.400693 -0.000000
v 4.700807 32.616991 -4.700832
v 0.000005 32.616991 -6.647991
v -4.700801 32.616991 -4.700832
v -6.647936 32.616991 -0.000000
v -4.700801 32.616991 4.700734
v 0.000005 32.616991 6.647877
v 4.700810 32.616991 4.700734
v 6.647948 32.616991 -0.000000
v 1.282832 77.291910 -1.282820
v 1.961253 77.049320 -1.961241
v 0.000004 77.291910 -1.814210
v 0.000004 77.049320 -2.773659
v -1.282820 77.291910 -1.282820
v -1.961244 77.049320 -1.961241
v -1.814177 77.291910 -0.000000
v -2.773616 77.049320 -0.000000
v -1.282818 77.291910 1.282771
v -1.961244 77.049320 1.961208
v 0.000004 77.291889 1.814177
v 0.000004 77.049298 2.773609
v 1.282829 77.291910 1.282771
v 1.961253 77.049320 1.961208
v 1.814190 77.291910 -0.000000
v 2.773626 77.049320 -0.000000
v 6.665973 39.497456 -6.665994
v 9.427108 39.497456 -0.000000
v 6.665975 39.497456 6.665977
v 0.000003 39.497456 9.427101
v -6.665966 39.497456 6.665960
v -9.427100 39.497456 -0.000000
v -6.665966 39.497456 -6.665994
v 0.000003 39.497456 -9.427135
v 4.354728 57.664399 -4.354718
v 6.158513 57.664399 -0.000000
v 4.354728 57.664399 4.354729
v 0.000003 57.664399 6.158503
v -4.354720 57.664399 4.354718
v -6.158505 57.664399 -0.000000
v -4.354720 57.664399 -4.354718
v 0.000003 57.664399 -6.158529
v 7.517320 32.684847 -7.517347
v 10.631096 32.684847 -0.000000
v 7.517321 32.684847 7.517321
v 0.000003 32.684847 10.631085
v -7.517313 32.684847 7.517308
v -10.631087 32.684847 -0.000000
v -7.517313 32.684847 -7.517347
v 0.000003 32.684847 -10.631134
v 6.203724 43.130845 -6.203739
v 8.773389 43.130845 -0.000000
v 6.203725 43.130845 6.203727
v 0.000003 43.130845 8.773381
v -6.203717 43.130845 6.203712
v -8.773381 43.130845 -0.000000
v -6.203717 43.130845 -6.203739
v 0.000003 43.130845 -8.773414
vt 0.324137 0.585906
vt 0.451425 0.599682
vt 0.942941 0.860903
vt 0.942967 0.719940
vt 0.001987 0.130203
vt 0.843246 0.960559
vt 0.016433 0.233168
vt 0.702284 0.960532
vt 0.049616 0.323212
vt 0.602628 0.860838
vt 0.096822 0.403833
vt 0.602655 0.719875
vt 0.157018 0.475447
vt 0.702349 0.620219
vt 0.231029 0.537095
vt 0.843311 0.620246
vt 0.674136 0.035881
vt 0.986809 0.491028
vt 0.743042 0.079859
vt 0.805515 0.132608
vt 0.860425 0.193224
vt 0.906762 0.260640
vt 0.943676 0.333643
vt 0.970509 0.410905
vt 0.902841 0.572679
vt 0.898132 0.503014
vt 0.689974 0.151904
vt 0.743343 0.196949
vt 0.790240 0.248706
vt 0.829805 0.306268
vt 0.861318 0.368602
vt 0.884222 0.434581
vt 0.768886 0.520486
vt 0.758516 0.469074
vt 0.741366 0.419517
vt 0.717725 0.372717
vt 0.688014 0.329516
vt 0.652768 0.290686
vt 0.612630 0.256913
vt 0.772341 0.572815
vt 0.563076 0.521443
vt 0.568073 0.545627
vt 0.554897 0.498052
vt 0.543694 0.475901
vt 0.529677 0.455411
vt 0.513106 0.436968
vt 0.494288 0.420928
vt 0.473566 0.407620
vt 0.338012 0.539025
vt 0.437573 0.551530
vt 0.051208 0.132133
vt 0.063298 0.221378
vt 0.092861 0.302468
vt 0.135662 0.375885
vt 0.190389 0.441122
vt 0.257137 0.496727
vt 0.349941 0.488674
vt 0.420541 0.503205
vt 0.100966 0.139098
vt 0.112134 0.212720
vt 0.138329 0.283351
vt 0.176644 0.348458
vt 0.225481 0.406141
vt 0.283715 0.454116
vt 0.429415 0.297830
vt 0.460062 0.314997
vt 0.308271 0.125615
vt 0.318444 0.160028
vt 0.333085 0.193007
vt 0.351973 0.223887
vt 0.374695 0.252013
vt 0.400720 0.276804
vt 0.629433 0.063107
vt 0.487848 0.558188
vt 0.489149 0.572714
vt 0.593938 0.007529
vt 0.622374 0.056662
vt 0.484813 0.543985
vt 0.444753 0.485132
vt 0.596937 0.016761
vt 0.455715 0.494638
vt 0.600628 0.025642
vt 0.465356 0.505445
vt 0.605024 0.034119
vt 0.473502 0.517400
vt 0.610127 0.042143
vt 0.480018 0.530317
vt 0.615923 0.049668
vt 0.432675 0.477028
vt 0.569777 0.570133
vt 0.479161 0.547749
vt 0.478024 0.543728
vt 0.474884 0.534752
vt 0.473255 0.530946
vt 0.468983 0.522456
vt 0.466879 0.518907
vt 0.461535 0.511047
vt 0.458982 0.507795
vt 0.452659 0.500694
vt 0.449688 0.497777
vt 0.442502 0.491537
vt 0.439149 0.488981
vt 0.431238 0.483669
vt 0.482633 0.570766
vt 0.481782 0.561262
vt 0.481146 0.557062
vt 0.568347 0.228767
vt 0.631109 0.114344
vt 0.871455 0.831276
vt 0.992326 0.572586
vt 0.813685 0.691732
vt 0.871471 0.749539
vt 0.731948 0.691716
vt 0.674141 0.749502
vt 0.674125 0.831239
vt 0.731911 0.889046
vt 0.813647 0.889062
vt 0.843318 0.586418
vt 0.867236 0.596331
vt 0.678434 0.596295
vt 0.702356 0.586392
vt 0.568827 0.719869
vt 0.578740 0.695951
vt 0.578704 0.884753
vt 0.568801 0.860831
vt 0.702278 0.994359
vt 0.678360 0.984447
vt 0.867161 0.984483
vt 0.843240 0.994386
vt 0.976768 0.860909
vt 0.966856 0.884827
vt 0.966892 0.696025
vt 0.976795 0.719947
vt 0.302379 0.090284
vt 0.637038 0.069004
vt 0.110122 0.067861
vt 0.071430 0.036674
vt 0.029883 0.007624
vt 0.747588 0.523324
vt 0.737811 0.474718
vt 0.721613 0.427879
vt 0.699275 0.383651
vt 0.671195 0.342828
vt 0.637875 0.306141
vt 0.599920 0.274242
vt 0.750807 0.572811
vt 0.558040 0.247681
vt 0.621646 0.539416
vt 0.615310 0.507713
vt 0.604741 0.477173
vt 0.590173 0.448333
vt 0.571877 0.421704
vt 0.550172 0.397768
vt 0.525411 0.376987
vt 0.623523 0.571721
vt 0.497970 0.359816
vt 0.794735 0.516992
vt 0.783657 0.462175
vt 0.765356 0.409334
vt 0.740141 0.359427
vt 0.708459 0.313354
vt 0.670883 0.271938
vt 0.628098 0.235912
vt 0.798441 0.572787
vt 0.580900 0.205883
vt 0.722399 0.526542
vt 0.713311 0.481317
vt 0.698239 0.437738
vt 0.677455 0.396587
vt 0.651331 0.358603
vt 0.620334 0.324466
vt 0.585018 0.294791
vt 0.725350 0.572593
vt 0.546026 0.270108
vn 0.382684 0.000000 -0.923879
vn 0.382684 0.000000 -0.923879
vn 0.382684 0.000000 -0.923879
vn 0.382684 0.000000 -0.923879
vn -0.382684 0.000000 -0.923879
vn -0.382684 0.000000 -0.923879
vn -0.382684 0.000000 -0.923879
vn -0.382684 0.000000 -0.923879
vn -0.923879 0.000000 -0.382684
vn -0.923879 0.000000 -0.382684
vn -0.923879 0.000000 -0.382684
vn -0.923879 0.000000 -0.382684
vn -0.923879 0.000000 0.382684
vn -0.923879 0.000000 0.382684
vn -0.923879 0.000000 0.382684
vn -0.923879 0.000000 0.382684
vn -0.382684 0.000000 0.923879
vn -0.382684 0.000000 0.923879
vn -0.382684 0.000000 0.923879
vn -0.382684 0.000000 0.923879
vn 0.382683 0.000000 0.923880
vn 0.382683 0.000000 0.923880
vn 0.382683 0.000000 0.923880
vn 0.382683 0.000000 0.923880
vn 0.923880 0.000000 0.382684
vn 0.923880 0.000000 0.382684
vn 0.923880 0.000000 0.382684
vn 0.923880 0.000000 0.382684
vn 0.923879 0.000000 -0.382684
vn 0.923879 0.000000 -0.382684
vn 0.923879 0.000000 -0.382684
vn 0.923879 0.000000 -0.382684
vn 0.000000 1.000000 0.000000
vn 0.000000 1.000000 0.000000
vn 0.000000 1.000000 0.000000
vn 0.000000 1.000000 0.000000
vn 0.000000 1.000000 0.000000
vn 0.000000 1.000000 0.000000
vn 0.000000 1.000000 0.000000
vn 0.000000 1.000000 0.000000
vn 0.000000 1.000000 -0.000000
vn 0.000000 1.000000 -0.000000
vn 0.000000 1.000000 -0.000000
vn 0.000000 1.000000 -0.000000
vn 0.000000 1.000000 0.000000
vn 0.000000 1.000000 0.000000
vn 0.000000 1.000000 0.000000
vn 0.000000 1.000000 0.000000
vn 0.000000 1.000000 0.000000
vn 0.000000 1.000000 0.000000
vn 0.000000 1.000000 0.000000
vn 0.000000 1.000000 0.000000
vn 0.000000 1.000000 -0.000000
vn 0.000000 1.000000 -0.000000
vn 0.000000 1.000000 -0.000000
vn 0.000000 1.000000 -0.000000
vn 0.000000 1.000000 0.000000
vn 0.000000 1.000000 0.000000
vn 0.000000 1.000000 0.000000
vn 0.000000 1.000000 0.000000
vn 0.000000 1.000000 -0.000000
vn 0.000000 1.000000 -0.000000
vn 0.000000 1.000000 -0.000000
vn 0.000000 1.000000 -0.000000
vn 0.377685 0.161141 -0.911805
vn 0.377685 0.161141 -0.911805
vn 0.377685 0.161141 -0.911805
vn 0.377685 0.161141 -0.911805
vn -0.377685 0.161141 -0.911805
vn -0.377685 0.161141 -0.911805
vn -0.377685 0.161141 -0.911805
vn -0.377685 0.161141 -0.911805
vn -0.911805 0.161142 -0.377682
vn -0.911805 0.161142 -0.377682
vn -0.911805 0.161142 -0.377682
vn -0.911806 0.161142 -0.377682
vn -0.911805 0.161142 0.377682
vn -0.911805 0.161142 0.377682
vn -0.911806 0.161142 0.377682
vn -0.911805 0.161142 0.377682
vn -0.377683 0.161143 0.911805
vn -0.377683 0.161143 0.911805
vn -0.377683 0.161143 0.911805
vn -0.377683 0.161143 0.911805
vn 0.377682 0.161143 0.911806
vn 0.377682 0.161143 0.911806
vn 0.377682 0.161143 0.911806
vn 0.377682 0.161143 0.911806
vn 0.911805 0.161143 0.377683
vn 0.911805 0.161143 0.377683
vn 0.911805 0.161143 0.377683
vn 0.911805 0.161143 0.377683
vn 0.911805 0.161142 -0.377683
vn 0.911805 0.161142 -0.377683
vn 0.911805 0.161142 -0.377683
vn 0.911805 0.161142 -0.377683
vn 0.911806 0.161142 -0.377682
vn 0.911806 0.161142 -0.377682
vn 0.911759 0.161454 -0.377662
vn 0.911759 0.161454 -0.377662
vn 0.911805 0.161143 0.377682
vn 0.911805 0.161143 0.377682
vn 0.911758 0.161454 0.377663
vn 0.911758 0.161454 0.377663
vn 0.377682 0.161143 0.911806
vn 0.377682 0.161143 0.911806
vn 0.377662 0.161454 0.911759
vn 0.377662 0.161454 0.911759
vn -0.377682 0.161143 0.911805
vn -0.377682 0.161143 0.911805
vn -0.377663 0.161454 0.911758
vn -0.377663 0.161454 0.911758
vn -0.911805 0.161143 0.377682
vn -0.911805 0.161143 0.377682
vn -0.911758 0.161454 0.377663
vn -0.911758 0.161454 0.377663
vn -0.911806 0.161142 -0.377682
vn -0.911806 0.161142 -0.377682
vn -0.911759 0.161454 -0.377662
vn -0.911759 0.161454 -0.377662
vn -0.377685 0.161142 -0.911804
vn -0.377685 0.161142 -0.911804
vn -0.377665 0.161454 -0.911758
vn -0.377665 0.161454 -0.911758
vn 0.377665 0.161454 -0.911758
vn 0.377665 0.161454 -0.911758
vn 0.377685 0.161142 -0.911805
vn 0.377685 0.161142 -0.911804
vn 0.000000 -1.000000 0.000000
vn 0.000000 -1.000000 0.000000
vn 0.000000 -1.000000 0.000000
vn 0.000000 -1.000000 0.000000
vn 0.000000 -1.000000 0.000001
vn 0.000000 -1.000000 0.000001
vn 0.000000 -1.000000 0.000001
vn 0.000000 -1.000000 0.000001
vn 0.000000 -1.000000 -0.000000
vn 0.000000 -1.000000 -0.000000
vn 0.000000 -1.000000 -0.000000
vn 0.000000 -1.000000 -0.000000
vn 0.000000 -1.000000 0.000000
vn 0.000000 -1.000000 0.000000
vn 0.000000 -1.000000 0.000000
vn 0.000000 -1.000000 0.000000
vn 0.000000 -1.000000 -0.000001
vn 0.000000 -1.000000 -0.000001
vn 0.000000 -1.000000 -0.000001
vn 0.000000 -1.000000 -0.000001
vn 0.000000 -1.000000 0.000000
vn 0.000000 -1.000000 0.000000
vn 0.000000 -1.000000 0.000000
vn 0.000000 -1.000000 0.000000
vn 0.000000 -1.000000 -0.000000
vn 0.000000 -1.000000 -0.000000
vn 0.000000 -1.000000 -0.000000
vn 0.000000 -1.000000 -0.000000
vn 0.000000 -1.000000 0.000000
vn 0.000000 -1.000000 0.000000
vn 0.000000 -1.000000 0.000000
vn 0.000000 -1.000000 0.000000
vn -0.190394 -0.867452 0.459650
vn -0.190394 -0.867452 0.459650
vn -0.190394 -0.867452 0.459650
vn -0.190394 -0.867452 0.459650
vn 0.190394 -0.867452 0.459649
vn 0.190394 -0.867452 0.459649
vn 0.190394 -0.867452 0.459649
vn 0.190394 -0.867452 0.459649
vn 0.459649 -0.867453 0.190392
vn 0.459649 -0.867453 0.190392
vn 0.459649 -0.867453 0.190392
vn 0.459649 -0.867453 0.190392
vn 0.459648 -0.867453 -0.190392
vn 0.459648 -0.867453 -0.190392
vn 0.459648 -0.867453 -0.190392
vn 0.459648 -0.867453 -0.190392
vn 0.190393 -0.867453 -0.459647
vn 0.190393 -0.867453 -0.459647
vn 0.190393 -0.867453 -0.459647
vn 0.190393 -0.867453 -0.459647
vn -0.190392 -0.867453 -0.459647
vn -0.190392 -0.867454 -0.459647
vn -0.190392 -0.867454 -0.459647
vn -0.190392 -0.867453 -0.459647
vn -0.459648 -0.867453 -0.190393
vn -0.459648 -0.867453 -0.190393
vn -0.459648 -0.867453 -0.190393
vn -0.459648 -0.867453 -0.190393
vn -0.459649 -0.867452 0.190393
vn -0.459649 -0.867452 0.190393
vn -0.459649 -0.867452 0.190393
vn -0.459649 -0.867452 0.190393
vn -0.374699 -0.203243 0.904595
vn -0.374699 -0.203243 0.904595
vn -0.374699 -0.203243 0.904595
vn -0.374699 -0.203243 0.904595
vn 0.374699 -0.203243 0.904595
vn 0.374699 -0.203243 0.904595
vn 0.374699 -0.203243 0.904595
vn 0.374699 -0.203243 0.904595
vn 0.904597 -0.203243 0.374695
vn 0.904597 -0.203243 0.374695
vn 0.904597 -0.203243 0.374695
vn 0.904597 -0.203243 0.374695
vn 0.904596 -0.203244 -0.374698
vn 0.904596 -0.203244 -0.374698
vn 0.904596 -0.203244 -0.374698
vn 0.904596 -0.203244 -0.374698
vn 0.374697 -0.203245 -0.904596
vn 0.374697 -0.203245 -0.904596
vn 0.374697 -0.203245 -0.904596
vn 0.374697 -0.203245 -0.904596
vn -0.374697 -0.203245 -0.904596
vn -0.374697 -0.203245 -0.904596
vn -0.374697 -0.203245 -0.904596
vn -0.374697 -0.203245 -0.904596
vn -0.904595 -0.203244 -0.374698
vn -0.904595 -0.203244 -0.374698
vn -0.904595 -0.203244 -0.374698
vn -0.904595 -0.203244 -0.374698
vn -0.904597 -0.203243 0.374696
vn -0.904597 -0.203243 0.374696
vn -0.904597 -0.203243 0.374696
vn -0.904597 -0.203243 0.374696
vn 0.173336 0.969489 -0.173335
vn 0.173336 0.969489 -0.173336
vn -0.000000 0.969490 -0.245131
vn -0.000000 0.969490 -0.245131
vn 0.245132 0.969490 0.000000
vn 0.245132 0.969490 -0.000000
vn -0.173336 0.969490 -0.173334
vn -0.173336 0.969490 -0.173334
vn -0.245131 0.969490 -0.000000
vn -0.245131 0.969490 0.000000
vn -0.173328 0.969490 0.173340
vn -0.173330 0.969490 0.173338
vn 0.000000 0.969489 0.245134
vn -0.000000 0.969489 0.245134
vn 0.173328 0.969490 0.173338
vn 0.173330 0.969490 0.173337
vn -0.380792 -0.099467 0.919295
vn -0.380792 -0.099467 0.919295
vn -0.380792 -0.099467 0.919295
vn -0.380792 -0.099467 0.919295
vn 0.380792 -0.099467 0.919295
vn 0.380792 -0.099467 0.919295
vn 0.380792 -0.099467 0.919295
vn 0.380792 -0.099467 0.919295
vn 0.919299 -0.099467 0.380783
vn 0.919299 -0.099467 0.380783
vn 0.919299 -0.099467 0.380783
vn 0.919299 -0.099467 0.380783
vn 0.919295 -0.099467 -0.380792
vn 0.919295 -0.099467 -0.380792
vn 0.919295 -0.099467 -0.380792
vn 0.919295 -0.099467 -0.380792
vn 0.380792 -0.099466 -0.919295
vn 0.380792 -0.099466 -0.919295
vn 0.380792 -0.099466 -0.919295
vn 0.380792 -0.099466 -0.919295
vn -0.380792 -0.099466 -0.919295
vn -0.380792 -0.099466 -0.919295
vn -0.380792 -0.099466 -0.919295
vn -0.380792 -0.099466 -0.919295
vn -0.919295 -0.099467 -0.380792
vn -0.919295 -0.099467 -0.380792
vn -0.919295 -0.099467 -0.380792
vn -0.919295 -0.099467 -0.380792
vn -0.919299 -0.099467 0.380784
vn -0.919299 -0.099467 0.380784
vn -0.919298 -0.099467 0.380784
vn -0.919298 -0.099467 0.380784
vn 0.911685 0.161940 -0.377632
vn 0.911503 0.163139 -0.377556
vn 0.911503 0.163139 -0.377556
vn 0.911685 0.161940 -0.377632
vn 0.911685 0.161940 -0.377632
vn 0.911685 0.161940 -0.377632
vn 0.911685 0.161941 0.377633
vn 0.911502 0.163139 0.377557
vn 0.911503 0.163139 0.377557
vn 0.911685 0.161941 0.377633
vn 0.911685 0.161941 0.377633
vn 0.911685 0.161941 0.377633
vn 0.377632 0.161942 0.911685
vn 0.377555 0.163139 0.911503
vn 0.377555 0.163139 0.911503
vn 0.377632 0.161942 0.911685
vn 0.377632 0.161941 0.911685
vn 0.377632 0.161942 0.911685
vn -0.377633 0.161941 0.911685
vn -0.377557 0.163139 0.911502
vn -0.377557 0.163139 0.911502
vn -0.377633 0.161941 0.911685
vn -0.377633 0.161941 0.911685
vn -0.377633 0.161941 0.911685
vn -0.911685 0.161941 0.377633
vn -0.911502 0.163139 0.377557
vn -0.911502 0.163139 0.377557
vn -0.911685 0.161941 0.377633
vn -0.911685 0.161941 0.377633
vn -0.911685 0.161941 0.377633
vn -0.911685 0.161941 -0.377632
vn -0.911503 0.163139 -0.377556
vn -0.911503 0.163139 -0.377556
vn -0.911685 0.161941 -0.377632
vn -0.911685 0.161941 -0.377632
vn -0.911685 0.161941 -0.377632
vn -0.377642 0.161940 -0.911681
vn -0.377562 0.163139 -0.911500
vn -0.377562 0.163139 -0.911500
vn -0.377642 0.161940 -0.911681
vn -0.377642 0.161940 -0.911681
vn -0.377642 0.161940 -0.911681
vn 0.377641 0.161940 -0.911681
vn 0.377562 0.163139 -0.911500
vn 0.377562 0.163139 -0.911500
vn 0.377641 0.161940 -0.911681
vn 0.377641 0.161940 -0.911681
vn 0.377641 0.161940 -0.911681
vn 0.911666 0.162067 -0.377623
vn 0.911666 0.162067 -0.377623
vn 0.911666 0.162067 -0.377623
vn 0.911666 0.162067 -0.377623
vn 0.911524 0.163000 -0.377565
vn 0.911524 0.163000 -0.377565
vn 0.911666 0.162067 0.377624
vn 0.911666 0.162067 0.377624
vn 0.911666 0.162067 0.377624
vn 0.911666 0.162066 0.377624
vn 0.911524 0.163000 0.377565
vn 0.911524 0.163000 0.377565
vn 0.377623 0.162066 0.911666
vn 0.377623 0.162066 0.911666
vn 0.377623 0.162066 0.911666
vn 0.377623 0.162066 0.911666
vn 0.377564 0.163000 0.911524
vn 0.377564 0.163000 0.911524
vn -0.377625 0.162066 0.911666
vn -0.377624 0.162066 0.911666
vn -0.377624 0.162066 0.911666
vn -0.377625 0.162066 0.911666
vn -0.377566 0.163000 0.911524
vn -0.377566 0.163000 0.911524
vn -0.911666 0.162067 0.377624
vn -0.911666 0.162067 0.377624
vn -0.911666 0.162067 0.377624
vn -0.911666 0.162067 0.377624
vn -0.911524 0.163000 0.377566
vn -0.911524 0.163000 0.377566
vn -0.911666 0.162067 -0.377623
vn -0.911666 0.162067 -0.377623
vn -0.911666 0.162067 -0.377623
vn -0.911666 0.162067 -0.377623
vn -0.911524 0.163000 -0.377564
vn -0.911524 0.163000 -0.377564
vn -0.377625 0.162068 -0.911665
vn -0.377625 0.162068 -0.911665
vn -0.377625 0.162068 -0.911665
vn -0.377625 0.162068 -0.911665
vn -0.377567 0.163001 -0.911523
vn -0.377567 0.163001 -0.911523
vn 0.377625 0.162068 -0.911665
vn 0.377625 0.162068 -0.911665
vn 0.377625 0.162068 -0.911665
vn 0.377625 0.162068 -0.911665
vn 0.377567 0.163001 -0.911523
vn 0.377567 0.163001 -0.911523
g Traffic_Cone
f 1/133/1 2/130/2 10/3/3 9/4/4
f 2/131/5 3/128/6 11/6/7 10/3/8
f 3/129/9 4/126/10 12/8/11 11/6/12
f 4/127/13 5/124/14 13/10/15 12/8/16
f 5/125/17 6/122/18 14/12/19 13/10/20
f 6/123/21 7/120/22 15/14/23 14/12/24
f 7/121/25 8/118/26 16/16/27 15/14/28
f 8/119/29 1/132/30 9/4/31 16/16/32
f 9/4/33 10/3/34 18/109/35 17/112/36
f 10/3/37 11/6/38 19/117/39 18/109/40
f 11/6/41 12/8/42 20/116/43 19/117/44
f 12/8/45 13/10/46 21/115/47 20/116/48
f 13/10/49 14/12/50 22/114/51 21/115/52
f 14/12/53 15/14/54 23/113/55 22/114/56
f 15/14/57 16/16/58 24/111/59 23/113/60
f 16/16/61 9/4/62 17/112/63 24/111/64
f 17/18/65 18/110/66 32/25/67 25/26/68
f 18/17/69 19/19/70 31/27/71 32/108/72
f 19/19/73 20/20/74 30/28/75 31/27/76
f 20/20/77 21/21/78 29/29/79 30/28/80
f 21/21/81 22/22/82 28/30/83 29/29/84
f 22/22/85 23/23/86 27/31/87 28/30/88
f 23/23/89 24/24/90 26/32/91 27/31/92
f 24/24/93 17/18/94 25/26/95 26/32/96
f 26/32/97 25/26/98 105/157/99 106/158/100
f 27/31/101 26/32/102 106/158/103 107/159/104
f 28/30/105 27/31/106 107/159/107 108/160/108
f 29/29/109 28/30/110 108/160/111 109/161/112
f 30/28/113 29/29/114 109/161/115 110/162/116
f 31/27/117 30/28/118 110/162/119 111/163/120
f 32/108/121 31/27/122 111/163/123 112/165/124
f 112/164/125 105/157/126 25/26/127 32/25/128
f 2/2/129 1/1/130 49/49/131 50/50/132
f 3/5/133 2/138/134 50/137/135 51/51/136
f 4/7/137 3/5/138 51/51/139 52/52/140
f 5/9/141 4/7/142 52/52/143 53/53/144
f 6/11/145 5/9/146 53/53/147 54/54/148
f 7/13/149 6/11/150 54/54/151 55/55/152
f 8/15/153 7/13/154 55/55/155 56/56/156
f 1/1/157 8/15/158 56/56/159 49/49/160
f 50/50/161 49/49/162 57/57/163 58/58/164
f 51/51/165 50/137/166 58/136/167 59/59/168
f 52/52/169 51/51/170 59/59/171 60/60/172
f 53/53/173 52/52/174 60/60/175 61/61/176
f 54/54/177 53/53/178 61/61/179 62/62/180
f 55/55/181 54/54/182 62/62/183 63/63/184
f 56/56/185 55/55/186 63/63/187 64/64/188
f 49/49/189 56/56/190 64/64/191 57/57/192
f 58/58/193 57/57/194 65/65/195 66/66/196
f 59/59/197 58/136/198 66/134/199 67/67/200
f 60/60/201 59/59/202 67/67/203 68/68/204
f 61/61/205 60/60/206 68/68/207 69/69/208
f 62/62/209 61/61/210 69/69/211 70/70/212
f 63/63/213 62/62/214 70/70/215 71/71/216
f 64/64/217 63/63/218 71/71/219 72/72/220
f 57/57/221 64/64/222 72/72/223 65/65/224
f 73/105/225 74/74/226 76/75/227 75/104/228
f 74/74/226 73/106/225 87/91/229 88/78/230
f 75/103/228 76/89/227 78/79/231 77/102/232
f 77/101/232 78/79/231 80/81/233 79/100/234
f 79/99/234 80/81/233 82/83/235 81/98/236
f 81/97/236 82/83/235 84/85/237 83/96/238
f 83/95/238 84/85/237 86/87/239 85/94/240
f 85/93/240 86/87/239 88/78/230 87/92/229
f 66/66/241 65/65/242 73/73/243 75/135/244
f 67/67/245 66/134/246 75/76/247 77/80/248
f 68/68/249 67/67/250 77/80/251 79/82/252
f 69/69/253 68/68/254 79/82/255 81/84/256
f 70/70/257 69/69/258 81/84/259 83/86/260
f 71/71/261 70/70/262 83/86/263 85/88/264
f 72/72/265 71/71/266 85/88/267 87/77/268
f 65/65/269 72/72/270 87/77/271 73/73/272
f 34/41/273 98/149/274 97/148/275 33/42/276 74/74/277 88/78/278
f 35/43/279 99/150/280 98/149/281 34/41/282 88/78/283 86/87/284
f 36/44/285 100/151/286 99/150/287 35/43/288 86/87/289 84/85/290
f 37/45/291 101/152/292 100/151/293 36/44/294 84/85/295 82/83/296
f 38/46/297 102/153/298 101/152/299 37/45/300 82/83/301 80/81/302
f 39/47/303 103/154/304 102/153/305 38/46/306 80/81/307 78/79/308
f 40/48/309 104/156/310 103/154/311 39/47/312 78/79/313 76/89/314
f 33/42/315 97/148/316 104/155/317 40/90/318 76/75/319 74/74/320
f 90/140/321 42/34/322 106/158/100 105/157/99 41/33/323 89/139/324 113/166/325 114/167/326
f 91/141/327 43/35/328 107/159/104 106/158/103 42/34/329 90/140/330 114/167/331 115/168/332
f 92/142/333 44/36/334 108/160/108 107/159/107 43/35/335 91/141/336 115/168/337 116/169/338
f 93/143/339 45/37/340 109/161/112 108/160/111 44/36/341 92/142/342 116/169/343 117/170/344
f 94/144/345 46/38/346 110/162/116 109/161/115 45/37/347 93/143/348 117/170/349 118/171/350
f 95/145/351 47/39/352 111/163/120 110/162/119 46/38/353 94/144/354 118/171/355 119/172/356
f 96/147/357 48/107/358 112/165/124 111/163/123 47/39/359 95/145/360 119/172/361 120/174/362
f 89/139/363 41/33/364 105/157/126 112/164/125 48/40/365 96/146/366 120/173/367 113/166/368
f 98/149/274 114/167/326 113/166/325 97/148/275
f 99/150/280 115/168/332 114/167/331 98/149/281
f 100/151/286 116/169/338 115/168/337 99/150/287
f 101/152/292 117/170/344 116/169/343 100/151/293
f 102/153/298 118/171/350 117/170/349 101/152/299
f 103/154/304 119/172/356 118/171/355 102/153/305
f 104/156/310 120/174/362 119/172/361 103/154/311
f 97/148/316 113/166/368 120/173/367 104/155/317
