# This file uses meters as units for non-parametric coordinates.

v 1.478729 0.000000 -2.561203
v -1.478729 0.000000 -2.561203
v -2.957458 0.000000 0.000000
v -1.478729 0.000000 2.561203
v 1.478729 0.000000 2.561203
v 2.957458 0.000000 0.000000
v 1.478729 206.428680 -2.561203
v -1.478729 206.428680 -2.561203
v -2.957458 206.428680 0.000000
v -1.478729 206.428680 2.561203
v 1.478729 206.428680 2.561203
v 2.957458 206.428680 0.000000
v 0.000000 0.000000 0.000000
v 0.000000 206.428680 0.000000
v -6.997545 220.814240 2.019012
v 0.000009 224.854279 2.019012
v 6.997561 220.814240 2.019012
v 6.997563 220.814240 4.972038
v 0.000011 224.854279 4.972038
v -6.997543 220.814240 4.972038
v -32.659920 152.125488 2.019020
v -39.657471 156.165527 2.019020
v -39.657471 164.245605 2.019020
v -39.657467 164.245605 4.972046
v -39.657467 156.165527 4.972046
v -32.659916 152.125488 4.972046
v 39.657475 164.245605 2.019020
v 39.657475 156.165527 2.019020
v 32.659920 152.125488 2.019020
v 32.659920 152.125488 4.972046
v 39.657475 156.165527 4.972046
v 39.657475 164.245605 4.972046
v 0.000004 170.981720 2.019020
v -6.997549 183.101837 2.019020
v 6.997558 183.101837 2.019020
v 6.997558 183.101837 4.972046
v -6.997548 183.101837 4.972046
v 0.000004 170.981720 4.972046
v 0.000004 179.061798 2.019020
v 0.000004 179.061798 4.972046
vt 0.886654 0.930298
vt 0.886654 0.913703
vt 0.957186 0.930298
vt 0.957186 0.913703
vt 0.872284 0.905406
vt 0.942815 0.938595
vt 0.857913 0.913703
vt 0.928444 0.930298
vt 0.857913 0.930298
vt 0.928444 0.913704
vt 0.872284 0.938595
vt 0.942815 0.905406
vt 0.872284 0.922001
vt 0.942815 0.922001
vt 0.959951 0.978045
vt 0.324044 0.272697
vt 0.707112 0.526116
vt 0.755037 0.498446
vt 0.283015 0.296434
vt 0.040049 0.989773
vt 0.303271 0.977922
vt 0.091759 0.675857
vt 0.435507 0.055681
vt 0.435507 0.111020
vt 0.132830 0.699521
vt 0.368389 0.989834
vt 0.631611 0.977983
vt 0.557049 0.675441
vt 0.978717 0.055681
vt 0.930793 0.028012
vt 0.557006 0.628040
vt 0.696729 0.989895
vt 0.283212 0.517668
vt 0.324326 0.588732
vt 0.365312 0.517594
vt 0.659188 0.240162
vt 0.707113 0.157154
vt 0.755038 0.240162
vt 0.324283 0.541331
vt 0.707113 0.212493
vt 0.959949 0.989944
vt 0.978718 0.111020
vt 0.696732 0.977995
vt 0.365115 0.296360
vt 0.631609 0.989883
vt 0.483432 0.028012
vt 0.368391 0.977934
vt 0.516020 0.699178
vt 0.303268 0.989821
vt 0.659188 0.498446
vt 0.040051 0.977873
vt 0.091717 0.628456
vt 0.664169 0.989889
vt 0.664171 0.977989
vt 0.335829 0.989828
vt 0.335831 0.977928
vt 0.007488 0.989767
vt 0.992509 0.989950
vt 0.992512 0.978051
vt 0.007491 0.977867
vt 0.007648 0.893334
vt 0.007661 0.964839
vt 0.839507 0.964695
vt 0.839495 0.893190
vt 0.839505 0.952778
vt 0.839503 0.940860
vt 0.839497 0.905107
vt 0.839499 0.917025
vt 0.839501 0.928942
vt 0.007659 0.952922
vt 0.007657 0.941004
vt 0.007650 0.905251
vt 0.007652 0.917169
vt 0.007654 0.929087
vn 0.000000 0.000000 -1.000000
vn 0.000000 0.000000 -1.000000
vn 0.000000 0.000000 -1.000000
vn 0.000000 0.000000 -1.000000
vn -0.866023 0.000000 -0.500005
vn -0.866023 0.000000 -0.500005
vn -0.866023 0.000000 -0.500005
vn -0.866023 0.000000 -0.500005
vn -0.866023 0.000000 0.500004
vn -0.866023 0.000000 0.500004
vn -0.866023 0.000000 0.500004
vn -0.866023 0.000000 0.500004
vn 0.000000 0.000000 1.000000
vn 0.000000 0.000000 1.000000
vn 0.000000 0.000000 1.000000
vn 0.000000 0.000000 1.000000
vn 0.866023 0.000000 0.500004
vn 0.866023 0.000000 0.500004
vn 0.866023 0.000000 0.500004
vn 0.866023 0.000000 0.500004
vn 0.866023 0.000000 -0.500005
vn 0.866023 0.000000 -0.500005
vn 0.866023 0.000000 -0.500005
vn 0.866023 0.000000 -0.500005
vn 0.000000 -1.000000 0.000000
vn 0.000000 -1.000000 0.000000
vn 0.000000 -1.000000 0.000000
vn 0.000000 -1.000000 0.000000
vn 0.000000 -1.000000 0.000000
vn 0.000000 -1.000000 0.000000
vn 0.000000 -1.000000 0.000000
vn 0.000000 -1.000000 0.000000
vn 0.000000 -1.000000 0.000000
vn 0.000000 -1.000000 0.000000
vn 0.000000 -1.000000 0.000000
vn 0.000000 -1.000000 0.000000
vn 0.000000 -1.000000 0.000000
vn 0.000000 -1.000000 0.000000
vn 0.000000 -1.000000 0.000000
vn 0.000000 -1.000000 0.000000
vn 0.000000 -1.000000 0.000000
vn 0.000000 -1.000000 0.000000
vn 0.000000 1.000000 0.000000
vn 0.000000 1.000000 0.000000
vn 0.000000 1.000000 0.000000
vn 0.000000 1.000000 0.000000
vn 0.000000 1.000000 0.000000
vn 0.000000 1.000000 0.000000
vn 0.000000 1.000000 0.000000
vn 0.000000 1.000000 0.000000
vn 0.000000 1.000000 0.000000
vn 0.000000 1.000000 0.000000
vn 0.000000 1.000000 0.000000
vn 0.000000 1.000000 0.000000
vn 0.000000 1.000000 0.000000
vn 0.000000 1.000000 0.000000
vn 0.000000 1.000000 0.000000
vn 0.000000 1.000000 0.000000
vn 0.000000 1.000000 0.000000
vn 0.000000 1.000000 0.000000
vn 0.500000 0.866025 -0.000003
vn 0.500000 0.866025 -0.000003
vn 0.500000 0.866025 -0.000003
vn 0.500000 0.866025 -0.000003
vn -0.500000 0.866025 0.000003
vn -0.836788 0.547527 0.000003
vn -0.836788 0.547527 0.000003
vn -0.500000 0.866025 0.000003
vn -1.000000 0.000000 0.000001
vn -1.000000 0.000000 0.000001
vn -1.000000 0.000000 0.000001
vn -1.000000 0.000000 0.000001
vn -0.500000 -0.866025 -0.000001
vn -0.500000 -0.866025 -0.000001
vn -0.500000 -0.866025 -0.000001
vn -0.500000 -0.866025 -0.000001
vn 0.500000 -0.866025 0.000000
vn 0.500000 -0.866025 0.000000
vn 0.500000 -0.866025 0.000000
vn 0.500000 -0.866025 0.000000
vn 1.000000 0.000000 0.000000
vn 0.892566 0.450916 -0.000002
vn 0.892566 0.450916 -0.000002
vn 1.000000 0.000000 0.000000
vn -0.866025 0.500000 0.000003
vn -0.866025 0.500000 0.000003
vn 0.000000 -1.000000 0.000003
vn 0.000000 -1.000000 0.000003
vn 0.000000 -1.000000 0.000003
vn 0.000000 -1.000000 0.000003
vn 0.866025 0.500000 -0.000003
vn 0.866025 0.500000 -0.000003
vn -0.000000 -0.000000 -1.000000
vn 0.000000 -0.000000 -1.000000
vn 0.000000 -0.000000 -1.000000
vn -0.000000 0.000000 -1.000000
vn 0.000000 0.000000 -1.000000
vn 0.000000 0.000000 -1.000000
vn 0.000000 -0.000000 -1.000000
vn 0.000000 -0.000000 -1.000000
vn 0.000000 -0.000000 -1.000000
vn -0.000001 0.000000 1.000000
vn 0.000000 0.000000 1.000000
vn -0.000000 0.000000 1.000000
vn -0.000000 0.000000 1.000000
vn 0.000000 0.000000 1.000000
vn -0.000000 0.000000 1.000000
vn -0.000000 0.000000 1.000000
vn 0.000001 0.000000 1.000000
vn 0.000000 0.000000 1.000000
vn 0.000000 -0.000000 -1.000000
vn 0.000000 -0.000000 -1.000000
vn -0.000000 0.000000 1.000000
vn -0.000000 0.000000 1.000000
vn 0.000000 0.000000 -1.000000
vn -0.000000 0.000000 1.000000
vn 0.000000 0.000000 1.000000
vn -0.000000 0.000000 -1.000000
f 1/71/1 2/74/2 8/69/3 7/66/4
f 2/74/5 3/73/6 9/68/7 8/69/8
f 3/73/9 4/72/10 10/67/11 9/68/12
f 4/72/13 5/61/14 11/64/15 10/67/16
f 5/62/17 6/70/18 12/65/19 11/63/20
f 6/70/21 1/71/22 7/66/23 12/65/24
f 2/2/25 1/1/26 13/13/27
f 3/5/28 2/2/29 13/13/30
f 4/7/31 3/5/32 13/13/33
f 5/9/34 4/7/35 13/13/36
f 6/11/37 5/9/38 13/13/39
f 1/1/40 6/11/41 13/13/42
f 7/4/43 8/3/44 14/14/45
f 8/3/46 9/6/47 14/14/48
f 9/6/49 10/8/50 14/14/51
f 10/8/52 11/10/53 14/14/54
f 11/10/55 12/12/56 14/14/57
f 12/12/58 7/4/59 14/14/60
f 17/15/61 16/59/62 19/58/63 18/41/64
f 16/60/65 15/51/66 20/20/67 19/57/68
f 23/21/69 22/56/70 25/55/71 24/49/72
f 22/56/73 21/47/74 26/26/75 25/55/76
f 29/27/77 28/54/78 31/53/79 30/45/80
f 28/54/81 27/43/82 32/32/83 31/53/84
f 20/20/67 15/51/66 23/21/85 24/49/86
f 21/47/87 29/27/88 30/45/89 26/26/90
f 32/32/83 27/43/82 17/15/91 18/41/92
f 23/52/93 15/19/94 34/33/95
f 29/48/96 21/25/97 33/34/98
f 17/44/99 27/31/100 35/35/101
f 20/50/102 24/24/103 37/36/104
f 26/46/105 30/30/106 38/37/107
f 32/42/108 18/18/109 36/38/110
f 39/39/111 34/33/95 15/19/94 16/16/112
f 37/36/104 24/24/103 25/23/113 40/40/114
f 35/35/101 39/39/111 16/16/112 17/44/99
f 39/39/111 33/34/98 21/25/97 22/22/115
f 38/37/107 40/40/114 25/23/113 26/46/105
f 31/29/116 32/42/108 36/38/110 40/40/114
f 40/40/114 36/38/110 18/18/109 19/17/117
f 37/36/104 40/40/114 19/17/117 20/50/102
f 38/37/107 30/30/106 31/29/116 40/40/114
f 35/35/101 27/31/100 28/28/118 39/39/111
f 22/22/115 23/52/93 34/33/95 39/39/111
f 28/28/118 29/48/96 33/34/98 39/39/111
