# This file uses meters as units for non-parametric coordinates.

v 1.478729 0.000000 -2.561203
v -1.478729 0.000000 -2.561203
v -2.957458 0.000000 0.000000
v -1.478729 0.000000 2.561203
v 1.478729 0.000000 2.561203
v 2.957458 0.000000 0.000000
v 1.478729 206.428680 -2.561203
v -1.478729 206.428680 -2.561203
v -2.957458 206.428680 0.000000
v -1.478729 206.428680 2.561203
v 1.478729 206.428680 2.561203
v 2.957458 206.428680 0.000000
v 0.000000 0.000000 0.000000
v 0.000000 206.428680 0.000000
v 6.997585 143.935257 2.019012
v -0.000041 139.895203 2.019012
v -6.997541 143.935242 2.019012
v -6.997547 143.935242 4.972038
v -0.000039 139.895203 4.972038
v 6.997580 143.935257 4.972038
v 32.659943 212.623978 2.019020
v 39.657501 208.583939 2.019020
v 39.657513 200.503891 2.019020
v 39.657509 200.503891 4.972046
v 39.657501 208.583939 4.972046
v 32.659939 212.623978 4.972046
v -39.657467 200.503891 2.019020
v -39.657467 208.583969 2.019020
v -32.659866 212.624008 2.019020
v -32.659866 212.624008 4.972046
v -39.657467 208.583969 4.972046
v -39.657467 200.503891 4.972046
v 0.000004 193.767776 2.019020
v 6.997570 181.647659 2.019020
v -6.997536 181.647659 2.019020
v -6.997536 181.647659 4.972046
v 6.997569 181.647659 4.972046
v 0.000004 193.767776 4.972046
v 0.000011 185.687698 2.019020
v 0.000011 185.687698 4.972046
vt 0.010917 0.845974
vt 0.010917 0.831924
vt 0.991583 0.831924
vt 0.991583 0.845974
vt 0.010917 0.817875
vt 0.991583 0.817875
vt 0.010917 0.803825
vt 0.991583 0.803825
vt 0.010917 0.789776
vt 0.991583 0.789776
vt 0.010917 0.874073
vt 0.010917 0.860024
vt 0.991583 0.860024
vt 0.991583 0.874073
vt 0.666137 0.651182
vt 0.666137 0.684067
vt 0.637661 0.667626
vt 0.637661 0.634741
vt 0.609184 0.651182
vt 0.609184 0.684067
vt 0.637661 0.700509
vt 0.805905 0.651182
vt 0.805905 0.684067
vt 0.777427 0.667626
vt 0.777427 0.700509
vt 0.748949 0.684067
vt 0.748949 0.651184
vt 0.777427 0.634741
vt 0.959950 0.977959
vt 0.992510 0.977959
vt 0.992510 0.989859
vt 0.959950 0.989859
vt 0.007490 0.977959
vt 0.040050 0.977959
vt 0.040050 0.989859
vt 0.007490 0.989859
vt 0.303270 0.977959
vt 0.335830 0.977959
vt 0.335830 0.989859
vt 0.303270 0.989859
vt 0.368390 0.977959
vt 0.368390 0.989859
vt 0.631610 0.977959
vt 0.664170 0.977959
vt 0.664170 0.989859
vt 0.631610 0.989859
vt 0.696730 0.977959
vt 0.696730 0.989859
vt 0.031607 0.562993
vt 0.246338 0.190301
vt 0.246559 0.438634
vt 0.507884 0.642378
vt 0.077756 0.642763
vt 0.292709 0.518403
vt 0.338494 0.190218
vt 0.553891 0.562526
vt 0.338716 0.438551
vt 0.596660 0.573993
vt 0.345580 0.139110
vt 0.596660 0.284071
vt 0.399376 0.045934
vt 0.901535 0.045934
vt 0.650456 0.190895
vt 0.955330 0.139110
vt 0.704250 0.573993
vt 0.704251 0.284071
vt 0.292661 0.465196
vt 0.292393 0.163656
vt 0.345580 0.076993
vt 0.650456 0.253013
vt 0.031655 0.616200
vt 0.955329 0.076993
vt 0.650455 0.605052
vt 0.553939 0.615733
vn 0.000000 0.000000 -1.000000
vn 0.000000 0.000000 -1.000000
vn 0.000000 0.000000 -1.000000
vn 0.000000 0.000000 -1.000000
vn -0.866023 0.000000 -0.500005
vn -0.866023 0.000000 -0.500005
vn -0.866023 0.000000 -0.500005
vn -0.866023 0.000000 -0.500005
vn -0.866023 0.000000 0.500004
vn -0.866023 0.000000 0.500004
vn -0.866023 0.000000 0.500004
vn -0.866023 0.000000 0.500004
vn 0.000000 0.000000 1.000000
vn 0.000000 0.000000 1.000000
vn 0.000000 0.000000 1.000000
vn 0.000000 0.000000 1.000000
vn 0.866023 0.000000 0.500004
vn 0.866023 0.000000 0.500004
vn 0.866023 0.000000 0.500004
vn 0.866023 0.000000 0.500004
vn 0.866023 0.000000 -0.500005
vn 0.866023 0.000000 -0.500005
vn 0.866023 0.000000 -0.500005
vn 0.866023 0.000000 -0.500005
vn 0.000000 -1.000000 0.000000
vn 0.000000 -1.000000 0.000000
vn 0.000000 -1.000000 0.000000
vn 0.000000 -1.000000 0.000000
vn 0.000000 -1.000000 0.000000
vn 0.000000 -1.000000 0.000000
vn 0.000000 -1.000000 0.000000
vn 0.000000 -1.000000 0.000000
vn 0.000000 -1.000000 0.000000
vn 0.000000 -1.000000 0.000000
vn 0.000000 -1.000000 0.000000
vn 0.000000 -1.000000 0.000000
vn 0.000000 -1.000000 0.000000
vn 0.000000 -1.000000 0.000000
vn 0.000000 -1.000000 0.000000
vn 0.000000 -1.000000 0.000000
vn 0.000000 -1.000000 0.000000
vn 0.000000 -1.000000 0.000000
vn 0.000000 1.000000 0.000000
vn 0.000000 1.000000 0.000000
vn 0.000000 1.000000 0.000000
vn 0.000000 1.000000 0.000000
vn 0.000000 1.000000 0.000000
vn 0.000000 1.000000 0.000000
vn 0.000000 1.000000 0.000000
vn 0.000000 1.000000 0.000000
vn 0.000000 1.000000 0.000000
vn 0.000000 1.000000 0.000000
vn 0.000000 1.000000 0.000000
vn 0.000000 1.000000 0.000000
vn 0.000000 1.000000 0.000000
vn 0.000000 1.000000 0.000000
vn 0.000000 1.000000 0.000000
vn 0.000000 1.000000 0.000000
vn 0.000000 1.000000 0.000000
vn 0.000000 1.000000 0.000000
vn -0.500000 -0.866025 -0.000003
vn -0.500000 -0.866025 -0.000003
vn -0.500000 -0.866025 -0.000003
vn -0.500000 -0.866025 -0.000003
vn 0.500000 -0.866025 0.000003
vn 0.836788 -0.547527 0.000003
vn 0.836788 -0.547527 0.000003
vn 0.500000 -0.866025 0.000003
vn 1.000000 -0.000000 0.000001
vn 1.000000 -0.000000 0.000001
vn 1.000000 -0.000000 0.000001
vn 1.000000 -0.000000 0.000001
vn 0.500000 0.866025 -0.000001
vn 0.500000 0.866025 -0.000001
vn 0.500000 0.866025 -0.000001
vn 0.500000 0.866025 -0.000001
vn -0.500000 0.866025 0.000000
vn -0.500000 0.866025 0.000000
vn -0.500000 0.866025 0.000000
vn -0.500000 0.866025 0.000000
vn -1.000000 0.000000 0.000000
vn -0.892566 -0.450916 -0.000002
vn -0.892566 -0.450916 -0.000002
vn -1.000000 0.000000 0.000000
vn 0.836788 -0.547527 0.000003
vn 0.836788 -0.547527 0.000003
vn 0.866025 -0.500000 0.000003
vn 0.866025 -0.500000 0.000003
vn 0.000000 1.000000 0.000003
vn 0.000000 1.000000 0.000003
vn 0.000000 1.000000 0.000003
vn 0.000000 1.000000 0.000003
vn -0.892566 -0.450916 -0.000002
vn -0.892566 -0.450916 -0.000002
vn -0.866025 -0.500000 -0.000003
vn -0.866025 -0.500000 -0.000003
vn 0.000000 0.000000 -1.000000
vn 0.000000 0.000000 -1.000000
vn 0.000000 0.000000 -1.000000
vn 0.000000 0.000000 -1.000000
vn -0.000000 0.000000 -1.000000
vn -0.000000 0.000000 -1.000000
vn 0.000000 0.000000 -1.000000
vn 0.000000 0.000000 -1.000000
vn 0.000000 0.000000 -1.000000
vn 0.000001 -0.000000 1.000000
vn 0.000000 0.000000 1.000000
vn 0.000000 0.000000 1.000000
vn 0.000000 0.000000 1.000000
vn 0.000000 0.000000 1.000000
vn 0.000000 0.000000 1.000000
vn 0.000000 0.000000 1.000000
vn -0.000001 0.000000 1.000000
vn 0.000000 0.000000 1.000000
vn 0.000000 0.000000 -1.000000
vn 0.000000 0.000000 -1.000000
vn 0.000000 0.000000 -1.000000
vn 0.000000 0.000000 -1.000000
vn 0.000000 0.000000 1.000000
vn 0.000000 0.000000 1.000000
vn 0.000000 0.000000 1.000000
vn 0.000000 0.000000 1.000000
vn 0.000000 0.000000 -1.000000
vn 0.000000 0.000000 -1.000000
vn 0.000000 0.000000 -1.000000
vn 0.000000 0.000000 -1.000000
vn 0.000000 0.000000 -1.000000
vn -0.000000 0.000000 -1.000000
vn -0.000000 0.000000 -1.000000
vn -0.000000 0.000000 -1.000000
vn 0.000000 0.000000 1.000000
vn 0.000000 0.000000 1.000000
vn 0.000000 0.000000 1.000000
vn 0.000000 0.000000 1.000000
vn 0.000000 0.000000 1.000000
vn 0.000000 0.000000 1.000000
vn 0.000000 0.000000 1.000000
vn 0.000000 0.000000 1.000000
vn 0.000000 0.000000 1.000000
vn 0.000000 0.000000 1.000000
vn -0.000001 0.000000 1.000000
vn 0.000000 0.000000 1.000000
vn 0.000000 0.000000 1.000000
vn 0.000000 0.000000 1.000000
vn 0.000000 0.000000 1.000000
vn 0.000001 -0.000000 1.000000
vn 0.000000 0.000000 1.000000
vn 0.000000 0.000000 1.000000
vn 0.000000 0.000000 1.000000
vn 0.000000 0.000000 1.000000
vn 0.000000 0.000000 -1.000000
vn 0.000000 0.000000 -1.000000
vn 0.000000 0.000000 -1.000000
vn 0.000000 0.000000 -1.000000
vn -0.000000 0.000000 -1.000000
vn 0.000000 0.000000 -1.000000
vn 0.000000 0.000000 -1.000000
vn 0.000000 0.000000 -1.000000
vn 0.000000 0.000000 -1.000000
vn 0.000000 0.000000 -1.000000
vn -0.000000 0.000000 -1.000000
vn 0.000000 0.000000 -1.000000
g Mesh10
f 1/1/1 2/2/2 8/3/3 7/4/4
f 2/2/5 3/5/6 9/6/7 8/3/8
f 3/5/9 4/7/10 10/8/11 9/6/12
f 4/7/13 5/9/14 11/10/15 10/8/16
f 5/11/17 6/12/18 12/13/19 11/14/20
f 6/12/21 1/1/22 7/4/23 12/13/24
f 2/15/25 1/16/26 13/17/27
f 3/18/28 2/15/29 13/17/30
f 4/19/31 3/18/32 13/17/33
f 5/20/34 4/19/35 13/17/36
f 6/21/37 5/20/38 13/17/39
f 1/16/40 6/21/41 13/17/42
f 7/22/43 8/23/44 14/24/45
f 8/23/46 9/25/47 14/24/48
f 9/25/49 10/26/50 14/24/51
f 10/26/52 11/27/53 14/24/54
f 11/27/55 12/28/56 14/24/57
f 12/28/58 7/22/59 14/24/60
f 17/29/61 16/30/62 19/31/63 18/32/64
f 16/33/65 15/34/66 20/35/67 19/36/68
f 23/37/69 22/38/70 25/39/71 24/40/72
f 22/38/73 21/41/74 26/42/75 25/39/76
f 29/43/77 28/44/78 31/45/79 30/46/80
f 28/44/81 27/47/82 32/48/83 31/45/84
f 20/35/85 15/34/86 23/37/87 24/40/88
f 21/41/89 29/43/90 30/46/91 26/42/92
f 32/48/93 27/47/94 17/29/95 18/32/96
f 23/49/97 15/50/98 34/51/99
f 29/52/100 21/53/101 33/54/102
f 17/55/103 27/56/104 35/57/105
f 20/58/106 24/59/107 37/60/108
f 26/61/109 30/62/110 38/63/111
f 32/64/112 18/65/113 36/66/114
f 39/67/115 34/51/116 15/50/117 16/68/118
f 37/60/119 24/59/120 25/69/121 40/70/122
f 35/57/123 39/67/124 16/68/125 17/55/126
f 39/67/127 33/54/128 21/53/129 22/71/130
f 38/63/131 40/70/132 25/69/133 26/61/134
f 31/72/135 32/64/136 36/66/137 40/70/138
f 40/70/139 36/66/140 18/65/141 19/73/142
f 37/60/143 40/70/144 19/73/145 20/58/146
f 38/63/147 30/62/148 31/72/149 40/70/150
f 35/57/151 27/56/152 28/74/153 39/67/154
f 22/71/155 23/49/156 34/51/157 39/67/158
f 28/74/159 29/52/160 33/54/161 39/67/162
