# This file uses centimeters as units for non-parametric coordinates.

v 0.462339 0.041277 0.250355
v 0.450688 0.034813 0.250456
v 0.442915 0.019207 0.253345
v 0.450288 0.015059 0.169033
v 0.457530 0.028107 0.172219
v 0.469096 0.033511 0.173090
v 0.471967 0.019207 0.282397
v 0.473970 0.034813 0.273606
v 0.475765 0.041277 0.263307
v 0.506916 0.041277 0.263307
v 0.508711 0.034813 0.273606
v 0.510713 0.019207 0.282397
v 0.539765 0.019207 0.253345
v 0.531993 0.034813 0.250456
v 0.520341 0.041277 0.250355
v 0.513584 0.033511 0.173090
v 0.525150 0.028107 0.172219
v 0.532392 0.015059 0.169033
v 0.479331 0.033511 0.159070
v 0.476948 0.028107 0.148772
v 0.474917 0.015059 0.139981
v 0.507763 0.015059 0.139981
v 0.505733 0.028107 0.148772
v 0.503349 0.033511 0.159070
v 0.466035 0.041277 0.259277
v 0.457441 0.034813 0.266760
v 0.451424 0.019207 0.273888
v 0.516645 0.041277 0.259277
v 0.525239 0.034813 0.266760
v 0.531256 0.019207 0.273888
v 0.457502 0.015059 0.148490
v 0.463447 0.028107 0.155368
v 0.472919 0.033511 0.162204
v 0.525178 0.015059 0.148490
v 0.519233 0.028107 0.155368
v 0.509761 0.033511 0.162204
v 0.472838 0.000000 0.278019
v 0.471967 0.004378 0.282397
v 0.509843 0.000000 0.278019
v 0.510713 0.004378 0.282397
v 0.447369 0.000000 0.252659
v 0.442915 0.004378 0.253345
v 0.454601 0.000000 0.169963
v 0.450288 0.004378 0.169033
v 0.475930 0.000000 0.144358
v 0.474917 0.004378 0.139981
v 0.506751 0.000000 0.144358
v 0.507763 0.004378 0.139981
v 0.535311 0.000000 0.252659
v 0.539765 0.004378 0.253345
v 0.528079 0.000000 0.169963
v 0.532392 0.004378 0.169033
v 0.454774 0.000000 0.270538
v 0.451424 0.004378 0.273888
v 0.527905 0.000000 0.270538
v 0.531256 0.004378 0.273888
v 0.461038 0.000000 0.151635
v 0.457502 0.004378 0.148490
v 0.521643 0.000000 0.151635
v 0.525178 0.004378 0.148490
v 0.538224 0.000000 0.233489
v 0.543103 0.004378 0.233851
v 0.543103 0.018377 0.233851
v 0.534651 0.033471 0.232306
v 0.521824 0.039723 0.232270
v 0.460856 0.039723 0.232271
v 0.448030 0.033471 0.232306
v 0.439577 0.018377 0.233851
v 0.439577 0.004378 0.233851
v 0.444457 0.000000 0.233489
v 0.517841 0.037860 0.205033
v 0.529618 0.031862 0.205259
v 0.537271 0.017382 0.204923
v 0.537271 0.004378 0.204923
v 0.532815 0.000000 0.204948
v 0.449865 0.000000 0.204948
v 0.445410 0.004378 0.204923
v 0.445410 0.017382 0.204923
v 0.453063 0.031862 0.205259
v 0.464840 0.037860 0.205033
v 0.491340 0.041272 0.211189
v 0.491340 0.037384 0.174706
v 0.491340 0.043644 0.242460
vt 0.265545 0.804322
vt 0.276078 0.809713
vt 0.272915 0.821583
vt 0.261339 0.818672
vt 0.284763 0.810912
vt 0.282690 0.822594
vt 0.293704 0.802759
vt 0.292119 0.794838
vt 0.315003 0.794023
vt 0.313729 0.802133
vt 0.289006 0.783041
vt 0.317689 0.782281
vt 0.322915 0.810086
vt 0.331527 0.808645
vt 0.335223 0.820340
vt 0.325490 0.821724
vt 0.341753 0.802925
vt 0.346695 0.816963
vt 0.293158 0.888381
vt 0.295340 0.877932
vt 0.315036 0.877312
vt 0.317580 0.887777
vt 0.296783 0.870162
vt 0.313302 0.869744
vt 0.303991 0.816303
vt 0.319984 0.804469
vt 0.281637 0.799577
vt 0.287499 0.805248
vt 0.274909 0.790581
vt 0.270366 0.869525
vt 0.279505 0.863616
vt 0.286036 0.873891
vt 0.280485 0.882284
vt 0.288662 0.861644
vt 0.292214 0.868396
vt 0.325629 0.798673
vt 0.332199 0.789664
vt 0.324199 0.873129
vt 0.329937 0.881456
vt 0.317820 0.867825
vt 0.321118 0.860981
vt 0.330358 0.862628
vt 0.339744 0.868201
vt 0.285265 0.768970
vt 0.286104 0.773038
vt 0.268769 0.783365
vt 0.266128 0.780088
vt 0.320710 0.768974
vt 0.320014 0.772969
vt 0.340200 0.778609
vt 0.337735 0.782001
vt 0.253429 0.796860
vt 0.256764 0.799430
vt 0.251925 0.817082
vt 0.247306 0.816853
vt 0.260467 0.875959
vt 0.264026 0.873625
vt 0.276609 0.887987
vt 0.274184 0.891436
vt 0.290917 0.899155
vt 0.291565 0.895222
vt 0.319545 0.895025
vt 0.320359 0.899075
vt 0.334232 0.886874
vt 0.336812 0.890228
vt 0.353940 0.794708
vt 0.350768 0.797441
vt 0.360708 0.814593
vt 0.356090 0.814989
vt 0.346028 0.871976
vt 0.349699 0.874151
vt 0.355883 0.841561
vt 0.360225 0.842951
vt 0.346523 0.840342
vt 0.334173 0.839398
vt 0.324334 0.839601
vt 0.274738 0.840584
vt 0.284581 0.840396
vt 0.262436 0.842021
vt 0.253126 0.843608
vt 0.248834 0.845153
vt 0.304843 0.859537
vt 0.304385 0.836372
vn -0.871873 0.476899 0.111379
vn -0.871873 0.476899 0.111379
vn -0.871873 0.476899 0.111379
vn -0.871873 0.476899 0.111379
vn -0.461000 0.887214 -0.018182
vn -0.461000 0.887214 -0.018182
vn -0.461000 0.887214 -0.018182
vn -0.461000 0.887214 -0.018182
vn 0.000000 0.846991 0.531607
vn 0.000000 0.846991 0.531607
vn 0.000000 0.846991 0.531607
vn 0.000000 0.846991 0.531607
vn 0.000000 0.490790 0.871278
vn 0.000000 0.490790 0.871278
vn 0.000000 0.490790 0.871278
vn 0.000000 0.490790 0.871278
vn 0.461000 0.887214 -0.018182
vn 0.461000 0.887214 -0.018182
vn 0.461000 0.887214 -0.018182
vn 0.461000 0.887214 -0.018182
vn 0.871885 0.476877 0.111377
vn 0.871885 0.476877 0.111377
vn 0.871885 0.476877 0.111377
vn 0.871885 0.476877 0.111377
vn 0.000000 0.558747 -0.829338
vn 0.000000 0.558747 -0.829338
vn 0.000000 0.558747 -0.829338
vn 0.000000 0.558747 -0.829338
vn 0.000000 0.885485 -0.464668
vn 0.000000 0.885485 -0.464668
vn 0.000000 0.885485 -0.464668
vn 0.000000 0.885485 -0.464668
vn 0.055216 0.996833 0.057231
vn 0.055216 0.996833 0.057231
vn 0.055216 0.996833 0.057231
vn 0.055216 0.996833 0.057231
vn -0.474373 0.858117 0.196483
vn -0.474373 0.858117 0.196483
vn -0.474373 0.858117 0.196483
vn -0.474373 0.858117 0.196483
vn -0.815974 0.468991 0.337985
vn -0.815974 0.468991 0.337985
vn -0.815974 0.468991 0.337985
vn -0.815974 0.468991 0.337985
vn -0.807430 0.517364 -0.283533
vn -0.807430 0.517364 -0.283533
vn -0.807430 0.517364 -0.283533
vn -0.807430 0.517364 -0.283533
vn -0.410010 0.900646 -0.143973
vn -0.410010 0.900646 -0.143973
vn -0.410010 0.900646 -0.143973
vn -0.410010 0.900646 -0.143973
vn 0.204824 0.844711 0.494481
vn 0.204824 0.844711 0.494481
vn 0.204824 0.844711 0.494481
vn 0.204824 0.844711 0.494481
vn 0.332539 0.494892 0.802807
vn 0.332539 0.494892 0.802807
vn 0.332539 0.494892 0.802807
vn 0.332539 0.494892 0.802807
vn 0.364105 0.558707 -0.745167
vn 0.364105 0.558707 -0.745167
vn 0.364105 0.558707 -0.745167
vn 0.364105 0.558707 -0.745167
vn 0.203984 0.885504 -0.417461
vn 0.203984 0.885504 -0.417461
vn 0.203984 0.885504 -0.417460
vn 0.203984 0.885504 -0.417460
vn -0.332527 0.494894 0.802811
vn -0.332527 0.494894 0.802811
vn -0.332527 0.494894 0.802811
vn -0.332527 0.494894 0.802811
vn -0.204816 0.844711 0.494484
vn -0.204816 0.844711 0.494484
vn -0.204817 0.844711 0.494484
vn -0.204817 0.844711 0.494484
vn 0.815972 0.468976 0.338011
vn 0.815972 0.468976 0.338011
vn 0.815972 0.468976 0.338011
vn 0.815972 0.468976 0.338011
vn 0.474362 0.858118 0.196503
vn 0.474362 0.858118 0.196503
vn 0.474362 0.858118 0.196503
vn 0.474362 0.858118 0.196503
vn -0.203979 0.885502 -0.417468
vn -0.203979 0.885502 -0.417468
vn -0.203979 0.885502 -0.417468
vn -0.203979 0.885502 -0.417468
vn -0.364099 0.558703 -0.745173
vn -0.364099 0.558703 -0.745173
vn -0.364099 0.558703 -0.745173
vn -0.364099 0.558703 -0.745173
vn 0.410002 0.900649 -0.143975
vn 0.410002 0.900649 -0.143975
vn 0.410002 0.900649 -0.143975
vn 0.410002 0.900649 -0.143975
vn 0.807429 0.517368 -0.283528
vn 0.807429 0.517368 -0.283528
vn 0.807429 0.517368 -0.283528
vn 0.807429 0.517368 -0.283529
vn -0.270589 -0.707108 0.653284
vn -0.270589 -0.707108 0.653284
vn -0.270589 -0.707108 0.653284
vn -0.270589 -0.707108 0.653284
vn 0.000000 -0.707107 0.707106
vn 0.000000 -0.707107 0.707106
vn 0.000000 -0.707107 0.707106
vn 0.000000 -0.707107 0.707106
vn 0.270606 -0.707096 0.653290
vn 0.270606 -0.707096 0.653290
vn 0.270606 -0.707096 0.653290
vn 0.270606 -0.707096 0.653290
vn -0.673515 -0.731111 0.108881
vn -0.673514 -0.731111 0.108881
vn -0.673515 -0.731111 0.108881
vn -0.673515 -0.731111 0.108881
vn -0.653278 -0.707113 0.270591
vn -0.653278 -0.707113 0.270591
vn -0.653278 -0.707113 0.270591
vn -0.653278 -0.707113 0.270591
vn -0.667163 -0.707110 -0.234286
vn -0.667163 -0.707110 -0.234286
vn -0.667163 -0.707110 -0.234286
vn -0.667163 -0.707110 -0.234286
vn 0.000000 -0.707109 -0.707105
vn 0.000000 -0.707109 -0.707105
vn 0.000000 -0.707109 -0.707105
vn 0.000000 -0.707109 -0.707105
vn -0.310422 -0.707112 -0.635319
vn -0.310422 -0.707112 -0.635319
vn -0.310422 -0.707112 -0.635319
vn -0.310422 -0.707112 -0.635319
vn 0.310425 -0.707108 -0.635322
vn 0.310425 -0.707108 -0.635322
vn 0.310425 -0.707108 -0.635322
vn 0.310425 -0.707108 -0.635322
vn 0.653287 -0.707098 0.270608
vn 0.653287 -0.707098 0.270608
vn 0.653287 -0.707098 0.270608
vn 0.653287 -0.707098 0.270608
vn 0.673538 -0.731088 0.108888
vn 0.673538 -0.731088 0.108888
vn 0.673538 -0.731088 0.108888
vn 0.673538 -0.731088 0.108888
vn 0.667188 -0.707086 -0.234285
vn 0.667188 -0.707086 -0.234285
vn 0.667188 -0.707086 -0.234285
vn 0.667188 -0.707086 -0.234285
vn 0.000000 0.000000 1.000000
vn 0.000000 0.000000 1.000000
vn 0.000000 0.000000 1.000000
vn 0.000000 0.000000 1.000000
vn 0.000000 0.000000 -1.000000
vn 0.000000 0.000000 -1.000000
vn 0.000000 0.000000 -1.000000
vn 0.000000 0.000000 -1.000000
vn 0.985654 0.000000 0.168777
vn 0.985654 0.000000 0.168777
vn 0.985654 0.000000 0.168777
vn 0.985654 0.000000 0.168777
vn -0.985654 0.000000 0.168777
vn -0.985654 0.000000 0.168777
vn -0.985654 0.000000 0.168777
vn -0.985654 0.000000 0.168777
vn -0.923880 0.000000 0.382683
vn -0.923880 0.000000 0.382683
vn -0.923880 0.000000 0.382683
vn -0.923880 0.000000 0.382683
vn -0.382677 0.000000 0.923882
vn -0.382677 0.000000 0.923882
vn -0.382677 0.000000 0.923882
vn -0.382677 0.000000 0.923882
vn 0.382690 0.000000 0.923877
vn 0.382690 0.000000 0.923877
vn 0.382690 0.000000 0.923877
vn 0.382690 0.000000 0.923877
vn 0.923873 0.000000 0.382699
vn 0.923873 0.000000 0.382699
vn 0.923873 0.000000 0.382699
vn 0.923873 0.000000 0.382699
vn -0.943516 0.000000 -0.331326
vn -0.943516 0.000000 -0.331326
vn -0.943516 0.000000 -0.331326
vn -0.943516 0.000000 -0.331326
vn -0.439006 0.000000 -0.898484
vn -0.439006 0.000000 -0.898484
vn -0.439006 0.000000 -0.898484
vn -0.439006 0.000000 -0.898484
vn 0.439010 0.000000 -0.898482
vn 0.439010 0.000000 -0.898482
vn 0.439010 0.000000 -0.898482
vn 0.439010 0.000000 -0.898482
vn 0.943522 0.000000 -0.331309
vn 0.943522 0.000000 -0.331309
vn 0.943522 0.000000 -0.331309
vn 0.943522 0.000000 -0.331309
vn 0.698226 -0.709583 -0.094721
vn 0.698226 -0.709583 -0.094721
vn 0.698226 -0.709583 -0.094721
vn 0.698226 -0.709583 -0.094721
vn 0.990886 0.000000 -0.134705
vn 0.990886 0.000000 -0.134705
vn 0.990886 0.000000 -0.134705
vn 0.990886 0.000000 -0.134705
vn 0.859595 0.485487 -0.159369
vn 0.859595 0.485487 -0.159369
vn 0.859595 0.485487 -0.159369
vn 0.859595 0.485487 -0.159369
vn 0.428883 0.887550 -0.168267
vn 0.428883 0.887550 -0.168267
vn 0.428883 0.887550 -0.168267
vn 0.428883 0.887550 -0.168267
vn -0.428887 0.887549 -0.168263
vn -0.428887 0.887549 -0.168263
vn -0.428887 0.887549 -0.168263
vn -0.428887 0.887549 -0.168263
vn -0.859591 0.485497 -0.159364
vn -0.859591 0.485497 -0.159364
vn -0.859591 0.485497 -0.159364
vn -0.859591 0.485497 -0.159364
vn -0.990887 0.000000 -0.134699
vn -0.990887 0.000000 -0.134699
vn -0.990887 0.000000 -0.134699
vn -0.990887 0.000000 -0.134699
vn -0.698201 -0.709608 -0.094716
vn -0.698201 -0.709608 -0.094716
vn -0.698201 -0.709608 -0.094716
vn -0.698201 -0.709608 -0.094716
vn 0.443007 0.886994 -0.130333
vn 0.443007 0.886994 -0.130333
vn 0.443007 0.886994 -0.130333
vn 0.443007 0.886994 -0.130333
vn 0.865531 0.463587 -0.189585
vn 0.865531 0.463587 -0.189585
vn 0.865531 0.463587 -0.189584
vn 0.865531 0.463587 -0.189584
vn 0.980275 0.000000 -0.197640
vn 0.980275 0.000000 -0.197640
vn 0.980275 0.000000 -0.197640
vn 0.980275 0.000000 -0.197640
vn 0.680553 -0.720505 -0.133116
vn 0.680553 -0.720505 -0.133116
vn 0.680553 -0.720505 -0.133116
vn 0.680553 -0.720505 -0.133116
vn -0.680529 -0.720528 -0.133114
vn -0.680529 -0.720528 -0.133114
vn -0.680529 -0.720528 -0.133114
vn -0.680529 -0.720528 -0.133114
vn -0.980273 0.000000 -0.197647
vn -0.980273 0.000000 -0.197647
vn -0.980273 0.000000 -0.197647
vn -0.980273 0.000000 -0.197647
vn -0.865523 0.463601 -0.189587
vn -0.865523 0.463601 -0.189587
vn -0.865523 0.463601 -0.189587
vn -0.865523 0.463601 -0.189587
vn -0.443004 0.886996 -0.130330
vn -0.443004 0.886996 -0.130330
vn -0.443004 0.886996 -0.130330
vn -0.443004 0.886996 -0.130330
vn -0.055215 0.996833 0.057231
vn -0.055215 0.996833 0.057231
vn -0.055215 0.996833 0.057231
vn -0.055215 0.996833 0.057231
vn 0.000000 0.970665 -0.240437
vn 0.000000 0.970665 -0.240437
vn 0.000000 0.970665 -0.240437
vn -0.108147 0.990614 -0.083597
vn -0.108147 0.990614 -0.083597
vn -0.108147 0.990614 -0.083597
vn 0.108147 0.990614 -0.083598
vn 0.108147 0.990614 -0.083598
vn 0.108147 0.990614 -0.083598
vn -0.126908 0.983837 -0.126326
vn -0.126908 0.983837 -0.126326
vn -0.126908 0.983837 -0.126326
vn -0.126908 0.983837 -0.126326
vn 0.126909 0.983837 -0.126327
vn 0.126909 0.983837 -0.126327
vn 0.126909 0.983837 -0.126327
vn 0.126909 0.983837 -0.126327
vn -0.138502 0.985187 -0.101117
vn -0.138502 0.985187 -0.101117
vn -0.138502 0.985187 -0.101117
vn -0.138502 0.985187 -0.101117
vn 0.138506 0.985186 -0.101117
vn 0.138506 0.985186 -0.101117
vn 0.138506 0.985186 -0.101117
vn 0.138506 0.985186 -0.101117
vn 0.102221 0.991870 -0.075798
vn 0.102221 0.991870 -0.075798
vn 0.102221 0.991870 -0.075798
vn 0.102221 0.991870 -0.075798
vn -0.102222 0.991870 -0.075798
vn -0.102222 0.991870 -0.075798
vn -0.102222 0.991870 -0.075798
vn -0.102222 0.991870 -0.075798
vn 0.000000 0.993615 0.112824
vn 0.000000 0.993615 0.112824
vn 0.000000 0.993615 0.112824
f 3/1/1 2/2/2 67/3/3 68/4/4
f 2/2/5 1/5/6 66/6/7 67/3/8
f 9/7/9 8/8/10 11/9/11 10/10/12
f 8/8/13 7/11/14 12/12/15 11/9/16
f 15/13/17 14/14/18 64/15/19 65/16/20
f 14/14/21 13/17/22 63/18/23 64/15/24
f 21/19/25 20/20/26 23/21/27 22/22/28
f 20/20/29 19/23/30 24/24/31 23/21/32
f 15/13/33 83/25/34 10/10/35 28/26/36
f 1/5/37 2/2/38 26/27/39 25/28/40
f 2/2/41 3/1/42 27/29/43 26/27/44
f 4/30/45 5/31/46 32/32/47 31/33/48
f 5/31/49 6/34/50 33/35/51 32/32/52
f 10/10/53 11/9/54 29/36/55 28/26/56
f 11/9/57 12/12/58 30/37/59 29/36/60
f 22/22/61 23/21/62 35/38/63 34/39/64
f 23/21/65 24/24/66 36/40/67 35/38/68
f 7/11/69 8/8/70 26/27/71 27/29/72
f 8/8/73 9/7/74 25/28/75 26/27/76
f 13/17/77 14/14/78 29/36/79 30/37/80
f 14/14/81 15/13/82 28/26/83 29/36/84
f 19/23/85 20/20/86 32/32/87 33/35/88
f 20/20/89 21/19/90 31/33/91 32/32/92
f 16/41/93 17/42/94 35/38/95 36/40/96
f 17/42/97 18/43/98 34/39/99 35/38/100
f 37/44/101 38/45/102 54/46/103 53/47/104
f 38/45/105 37/44/106 39/48/107 40/49/108
f 40/49/109 39/48/110 55/50/111 56/51/112
f 41/52/113 42/53/114 69/54/115 70/55/116
f 42/53/117 41/52/118 53/47/119 54/46/120
f 43/56/121 44/57/122 58/58/123 57/59/124
f 45/60/125 46/61/126 48/62/127 47/63/128
f 46/61/129 45/60/130 57/59/131 58/58/132
f 47/63/133 48/62/134 60/64/135 59/65/136
f 49/66/137 50/67/138 56/51/139 55/50/140
f 50/67/141 49/66/142 61/68/143 62/69/144
f 52/70/145 51/71/146 59/65/147 60/64/148
f 7/11/149 38/45/150 40/49/151 12/12/152
f 46/61/153 21/19/154 22/22/155 48/62/156
f 13/17/157 50/67/158 62/69/159 63/18/160
f 68/4/161 69/54/162 42/53/163 3/1/164
f 42/53/165 54/46/166 27/29/167 3/1/168
f 54/46/169 38/45/170 7/11/171 27/29/172
f 40/49/173 56/51/174 30/37/175 12/12/176
f 56/51/177 50/67/178 13/17/179 30/37/180
f 4/30/181 31/33/182 58/58/183 44/57/184
f 31/33/185 21/19/186 46/61/187 58/58/188
f 22/22/189 34/39/190 60/64/191 48/62/192
f 34/39/193 18/43/194 52/70/195 60/64/196
f 74/72/197 75/73/198 51/71/199 52/70/200
f 73/74/201 74/72/202 52/70/203 18/43/204
f 72/75/205 73/74/206 18/43/207 17/42/208
f 71/76/209 72/75/210 17/42/211 16/41/212
f 79/77/213 80/78/214 6/34/215 5/31/216
f 78/79/217 79/77/218 5/31/219 4/30/220
f 4/30/221 44/57/222 77/80/223 78/79/224
f 76/81/225 77/80/226 44/57/227 43/56/228
f 65/16/229 64/15/230 72/75/231 71/76/232
f 64/15/233 63/18/234 73/74/235 72/75/236
f 63/18/237 62/69/238 74/72/239 73/74/240
f 62/69/241 61/68/242 75/73/243 74/72/244
f 70/55/245 69/54/246 77/80/247 76/81/248
f 78/79/249 77/80/250 69/54/251 68/4/252
f 68/4/253 67/3/254 79/77/255 78/79/256
f 67/3/257 66/6/258 80/78/259 79/77/260
f 9/7/261 83/25/262 1/5/263 25/28/264
f 82/82/265 24/24/266 19/23/267
f 66/6/268 81/83/269 80/78/270
f 71/76/271 81/83/272 65/16/273
f 80/78/274 81/83/275 82/82/276 6/34/277
f 16/41/278 82/82/279 81/83/280 71/76/281
f 6/34/282 82/82/283 19/23/284 33/35/285
f 36/40/286 24/24/287 82/82/288 16/41/289
f 65/16/290 81/83/291 83/25/292 15/13/293
f 1/5/294 83/25/295 81/83/296 66/6/297
f 9/7/298 10/10/299 83/25/300
