# This file uses meters as units for non-parametric coordinates.

g default
v -695.594849 -136.668549 48.075890
v -695.594849 -136.668549 79.375877
v -695.594849 -11.016302 361.075867
v -695.594849 -121.278641 48.075890
v -695.594849 -121.278641 79.375877
v -695.594849 -108.068550 79.375885
v -695.594849 -108.068550 110.675865
v -695.594849 -93.768547 110.675865
v -695.594849 -93.768547 141.975861
v -695.594849 -79.468552 141.975861
v -695.594788 -79.468552 173.275879
v -695.594788 -65.168549 173.275879
v -695.594849 -65.168549 204.575882
v -695.594849 -50.868553 204.575867
v -695.594849 -50.868553 235.875854
v -695.594849 -36.568550 235.875854
v -695.594849 -36.568550 267.175873
v -695.594849 -22.268545 267.175873
v -695.594849 -22.268545 298.475891
v -695.594849 -7.968561 298.475891
v -695.594788 -7.968561 329.775879
v -695.594788 6.331450 329.775879
v -695.594849 6.331450 361.075867
v -858.708618 -136.668549 48.075890
v -858.708618 -136.668945 79.375877
v -858.708618 -121.279022 79.375877
v -858.708618 -121.278625 48.075890
v -858.708618 -11.017090 361.075867
v -858.708618 6.330658 361.075867
v -858.708557 6.330658 329.775879
v -858.708557 -7.969345 329.775879
v -858.708618 -7.969345 298.475891
v -858.708618 -22.269333 298.475891
v -858.708618 -22.269333 267.175873
v -858.708618 -36.569336 267.175873
v -858.708618 -36.569336 235.875854
v -858.708618 -50.869339 235.875854
v -858.708618 -50.869339 204.575867
v -858.708618 -65.169342 204.575867
v -858.708557 -65.169342 173.275879
v -858.708557 -79.469330 173.275879
v -858.708618 -79.469330 141.975861
v -858.708618 -93.769333 141.975861
v -858.708618 -93.769333 110.675865
v -858.708618 -108.069336 110.675865
v -858.708618 -108.069336 79.375885
vt 0.001993 0.610209
vt 0.001992 0.549374
vt 0.031904 0.549374
vt 0.031905 0.610209
vt 0.246210 0.001859
vt 0.057579 0.488539
vt 0.085372 0.427704
vt 0.057579 0.549374
vt 0.113166 0.366869
vt 0.085372 0.488539
vt 0.140960 0.306034
vt 0.113166 0.427704
vt 0.168753 0.245199
vt 0.140960 0.366869
vt 0.196547 0.184364
vt 0.168753 0.306034
vt 0.224340 0.123529
vt 0.196547 0.245199
vt 0.252134 0.062694
vt 0.224340 0.184364
vt 0.279928 0.062694
vt 0.252134 0.123529
vt 0.279928 0.001859
vt 0.286734 0.001859
vt 0.316646 0.001859
vt 0.316646 0.062694
vt 0.286734 0.062694
vt 0.530953 0.610209
vt 0.342321 0.123529
vt 0.342321 0.062694
vt 0.370115 0.184364
vt 0.370115 0.123529
vt 0.397909 0.245199
vt 0.397909 0.184364
vt 0.425702 0.306034
vt 0.425702 0.245199
vt 0.453496 0.366869
vt 0.453496 0.306034
vt 0.481290 0.427704
vt 0.481290 0.366869
vt 0.509083 0.488539
vt 0.509083 0.427704
vt 0.536877 0.488539
vt 0.536877 0.549374
vt 0.564671 0.610209
vt 0.564671 0.549374
vt 0.888311 0.001859
vt 0.888311 0.062694
vt 0.571281 0.062694
vt 0.571281 0.001859
vt 0.888311 0.610209
vt 0.571281 0.610209
vt 0.736262 0.614201
vt 0.797097 0.614201
vt 0.797097 0.931231
vt 0.736262 0.931231
vt 0.894807 0.001859
vt 0.955642 0.001859
vt 0.955642 0.318889
vt 0.894807 0.318889
vt 0.937173 0.322880
vt 0.998008 0.322880
vt 0.998008 0.639910
vt 0.937173 0.639910
vt 0.559460 0.614201
vt 0.620295 0.614201
vt 0.620295 0.931231
vt 0.559460 0.931231
vt 0.458560 0.614201
vt 0.519395 0.614201
vt 0.519395 0.931231
vt 0.458560 0.931231
vt 0.357659 0.614201
vt 0.418494 0.614201
vt 0.418494 0.931231
vt 0.357659 0.931231
vt 0.870203 0.614201
vt 0.931038 0.614201
vt 0.931038 0.931230
vt 0.870203 0.931231
vt 0.803233 0.614201
vt 0.864068 0.614201
vt 0.864068 0.931231
vt 0.803233 0.931230
vt 0.222828 0.614201
vt 0.283663 0.614201
vt 0.283663 0.931231
vt 0.222828 0.931231
vt 0.121927 0.614201
vt 0.182762 0.614201
vt 0.182762 0.931231
vt 0.121927 0.931231
vt 0.700215 0.614201
vt 0.730127 0.614201
vt 0.730127 0.931231
vt 0.700215 0.931231
vt 0.660363 0.614201
vt 0.694080 0.614201
vt 0.694078 0.931231
vt 0.660361 0.931231
vt 0.056186 0.614201
vt 0.083979 0.614201
vt 0.083981 0.931230
vt 0.056187 0.931230
vt 0.626431 0.614201
vt 0.654224 0.614201
vt 0.654226 0.931231
vt 0.626432 0.931231
vt 0.525530 0.614201
vt 0.553324 0.614201
vt 0.553325 0.931231
vt 0.525532 0.931231
vt 0.424629 0.614201
vt 0.452423 0.614201
vt 0.452424 0.931231
vt 0.424631 0.931231
vt 0.323729 0.614201
vt 0.351522 0.614201
vt 0.351524 0.931231
vt 0.323730 0.931231
vt 0.022255 0.614201
vt 0.050049 0.614201
vt 0.050051 0.931230
vt 0.022257 0.931230
vt 0.289798 0.614201
vt 0.317592 0.614201
vt 0.317594 0.931231
vt 0.289800 0.931231
vt 0.188898 0.614201
vt 0.216691 0.614201
vt 0.216693 0.931231
vt 0.188899 0.931231
vt 0.090116 0.614201
vt 0.115791 0.614201
vt 0.115792 0.931231
vt 0.090118 0.931231
vn -1.000000 0.000000 0.000000
vn -1.000000 0.000000 0.000000
vn -1.000000 0.000000 0.000000
vn -1.000000 0.000000 0.000000
vn -1.000000 0.000000 -0.000001
vn -1.000000 0.000000 -0.000002
vn -1.000000 0.000000 -0.000002
vn -1.000000 0.000000 -0.000001
vn -1.000000 0.000000 0.000002
vn -1.000000 0.000005 0.000000
vn -1.000000 0.000000 0.000000
vn -1.000000 -0.000005 0.000000
vn -1.000000 0.000000 0.000000
vn -1.000000 0.000024 0.000000
vn -1.000000 0.000000 0.000000
vn -1.000000 -0.000014 0.000004
vn -1.000000 0.000000 -0.000002
vn -1.000000 -0.000005 -0.000007
vn -1.000000 0.000000 0.000002
vn -1.000000 -0.000035 0.000000
vn -1.000000 0.000000 0.000000
vn -1.000000 0.000038 0.000000
vn -1.000000 0.000000 0.000000
vn 1.000000 0.000000 0.000000
vn 1.000000 0.000000 0.000000
vn 1.000000 0.000000 0.000000
vn 1.000000 0.000000 0.000000
vn 1.000000 -0.000000 0.000001
vn 1.000000 0.000007 0.000000
vn 1.000000 -0.000000 0.000000
vn 1.000000 0.000000 0.000000
vn 1.000000 -0.000040 -0.000000
vn 1.000000 0.000000 -0.000002
vn 1.000000 0.000000 0.000007
vn 1.000000 0.000000 0.000002
vn 1.000000 -0.000001 -0.000004
vn 1.000000 -0.000004 0.000000
vn 1.000000 -0.000000 0.000000
vn 1.000000 0.000000 0.000000
vn 1.000000 0.000000 0.000000
vn 1.000000 0.000000 0.000000
vn 1.000000 0.000000 0.000000
vn 1.000000 0.000000 -0.000000
vn 1.000000 0.000000 0.000001
vn 1.000000 0.000000 0.000002
vn 1.000000 0.000000 0.000002
vn 0.000001 -1.000000 -0.000007
vn 0.000003 -0.928014 0.372545
vn 0.000003 -0.928014 0.372545
vn 0.000001 -1.000000 -0.000007
vn -0.000001 1.000000 0.000007
vn -0.000001 1.000000 0.000007
vn -0.000001 1.000000 0.000007
vn -0.000001 1.000000 0.000007
vn 0.000000 0.000000 -1.000000
vn 0.000000 0.000000 -1.000000
vn 0.000000 0.000000 -1.000000
vn 0.000000 0.000000 -1.000000
vn -0.000000 0.000000 1.000000
vn -0.000000 0.000000 1.000000
vn -0.000000 0.000000 1.000000
vn -0.000000 0.000000 1.000000
vn -0.000005 1.000000 0.000000
vn -0.000005 1.000000 0.000000
vn -0.000005 1.000000 0.000000
vn -0.000005 1.000000 0.000000
vn 0.000000 0.000000 -1.000000
vn 0.000000 0.000000 -1.000000
vn 0.000000 0.000000 -1.000000
vn 0.000000 0.000000 -1.000000
vn -0.000005 1.000000 0.000000
vn -0.000005 1.000000 0.000000
vn -0.000005 1.000000 0.000000
vn -0.000005 1.000000 0.000000
vn 0.000000 0.000000 -1.000000
vn 0.000000 0.000000 -1.000000
vn 0.000000 0.000000 -1.000000
vn 0.000000 0.000000 -1.000000
vn -0.000005 1.000000 0.000000
vn -0.000005 1.000000 0.000000
vn -0.000005 1.000000 0.000000
vn -0.000005 1.000000 0.000000
vn -0.000000 0.000000 -1.000000
vn -0.000000 0.000000 -1.000000
vn -0.000000 0.000000 -1.000000
vn -0.000000 0.000000 -1.000000
vn -0.000005 1.000000 0.000000
vn -0.000005 1.000000 0.000000
vn -0.000005 1.000000 0.000000
vn -0.000005 1.000000 0.000000
vn -0.000000 0.000000 -1.000000
vn -0.000000 0.000000 -1.000000
vn -0.000000 0.000000 -1.000000
vn -0.000000 0.000000 -1.000000
vn -0.000005 1.000000 0.000000
vn -0.000005 1.000000 0.000000
vn -0.000005 1.000000 0.000000
vn -0.000005 1.000000 0.000000
vn -0.000000 -0.000001 -1.000000
vn -0.000000 -0.000001 -1.000000
vn -0.000000 -0.000001 -1.000000
vn -0.000000 -0.000001 -1.000000
vn -0.000005 1.000000 0.000000
vn -0.000005 1.000000 0.000000
vn -0.000005 1.000000 0.000000
vn -0.000005 1.000000 0.000000
vn -0.000000 0.000000 -1.000000
vn -0.000000 0.000000 -1.000000
vn -0.000000 0.000000 -1.000000
vn -0.000000 0.000000 -1.000000
vn -0.000005 1.000000 0.000000
vn -0.000005 1.000000 0.000000
vn -0.000005 1.000000 0.000000
vn -0.000005 1.000000 0.000000
vn -0.000000 0.000000 -1.000000
vn -0.000000 0.000000 -1.000000
vn -0.000000 0.000000 -1.000000
vn -0.000000 0.000000 -1.000000
vn -0.000005 1.000000 0.000000
vn -0.000005 1.000000 0.000000
vn -0.000005 1.000000 0.000000
vn -0.000005 1.000000 0.000000
vn -0.000000 0.000000 -1.000000
vn -0.000000 0.000000 -1.000000
vn -0.000000 0.000000 -1.000000
vn -0.000000 0.000000 -1.000000
vn -0.000005 1.000000 0.000000
vn -0.000005 1.000000 0.000000
vn -0.000005 1.000000 0.000000
vn -0.000005 1.000000 0.000000
vn 0.000000 0.000001 -1.000000
vn 0.000000 0.000001 -1.000000
vn 0.000000 0.000001 -1.000000
vn 0.000000 0.000001 -1.000000
vn 0.000003 -0.913267 0.407362
vn 0.000003 -0.913267 0.407362
g pPlane3
f 24/1/1 25/2/2 26/3/3 27/4/4
f 25/2/2 28/5/5 26/3/3
f 29/23/6 30/21/7 28/5/5
f 30/21/7 31/19/8 28/5/5
f 32/22/9 33/17/10 31/19/8
f 34/20/11 35/15/12 33/17/10
f 36/18/13 37/13/14 35/15/12
f 38/16/15 39/11/16 37/13/14
f 40/14/17 41/9/18 39/11/16
f 42/12/19 43/7/20 41/9/18
f 44/10/21 45/6/22 43/7/20
f 46/8/23 26/3/3 45/6/22
f 26/3/3 28/5/5 45/6/22
f 45/6/22 28/5/5 43/7/20
f 43/7/20 28/5/5 41/9/18
f 41/9/18 28/5/5 39/11/16
f 39/11/16 28/5/5 37/13/14
f 37/13/14 28/5/5 35/15/12
f 35/15/12 28/5/5 33/17/10
f 28/5/5 31/19/8 33/17/10
f 1/24/24 4/25/25 5/26/26 2/27/27
f 2/27/27 5/26/26 3/28/28
f 6/30/29 7/29/30 5/26/26
f 5/26/26 7/29/30 3/28/28
f 8/32/31 9/31/32 7/29/30
f 7/29/30 9/31/32 3/28/28
f 10/34/33 11/33/34 9/31/32
f 9/31/32 11/33/34 3/28/28
f 12/36/35 13/35/36 11/33/34
f 11/33/34 13/35/36 3/28/28
f 14/38/37 15/37/38 13/35/36
f 13/35/36 15/37/38 3/28/28
f 16/40/39 17/39/40 15/37/38
f 15/37/38 17/39/40 3/28/28
f 18/42/41 19/41/42 17/39/40
f 17/39/40 19/41/42 3/28/28
f 19/41/42 20/43/43 3/28/28
f 20/43/43 21/44/44 3/28/28
f 3/28/28 21/44/44 23/45/45
f 21/44/44 22/46/46 23/45/45
f 1/47/47 2/48/48 25/49/49 24/50/50
f 5/53/51 4/54/52 27/55/53 26/56/54
f 4/93/55 1/94/56 24/95/57 27/96/58
f 3/97/59 23/98/60 29/99/61 28/100/62
f 23/57/63 22/58/64 30/59/65 29/60/66
f 22/101/67 21/102/68 31/103/69 30/104/70
f 21/61/71 20/62/72 32/63/73 31/64/74
f 20/105/75 19/106/76 33/107/77 32/108/78
f 19/65/79 18/66/80 34/67/81 33/68/82
f 18/109/83 17/110/84 35/111/85 34/112/86
f 17/69/87 16/70/88 36/71/89 35/72/90
f 16/113/91 15/114/92 37/115/93 36/116/94
f 15/73/95 14/74/96 38/75/97 37/76/98
f 14/117/99 13/118/100 39/119/101 38/120/102
f 13/77/103 12/78/104 40/79/105 39/80/106
f 12/121/107 11/122/108 41/123/109 40/124/110
f 11/81/111 10/82/112 42/83/113 41/84/114
f 10/125/115 9/126/116 43/127/117 42/128/118
f 9/85/119 8/86/120 44/87/121 43/88/122
f 8/129/123 7/130/124 45/131/125 44/132/126
f 7/89/127 6/90/128 46/91/129 45/92/130
f 6/133/131 5/134/132 26/135/133 46/136/134
f 2/48/48 3/51/135 28/52/136 25/49/49
