# This file uses meters as units for non-parametric coordinates.

g default
v -89.897217 -9.042904 361.075867
v -89.897217 -9.042904 329.775879
v -89.897217 116.609344 48.075882
v -89.897217 6.347004 361.075867
v -89.897217 6.347004 329.775879
v -89.897217 19.557095 329.775879
v -89.897217 19.557095 298.475891
v -89.897217 33.857098 298.475891
v -89.897217 33.857098 267.175903
v -89.897217 48.157097 267.175903
v -89.897217 48.157097 235.875885
v -89.897217 62.457096 235.875885
v -89.897217 62.457096 204.575882
v -89.897217 76.757095 204.575882
v -89.897217 76.757095 173.275894
v -89.897217 91.057098 173.275894
v -89.897217 91.057098 141.975891
v -89.897217 105.357101 141.975891
v -89.897217 105.357101 110.675888
v -89.897217 119.657089 110.675888
v -89.897217 119.657089 79.375900
v -89.897217 133.957092 79.375900
v -89.897217 133.957092 48.075882
v 73.216552 -9.042904 361.075867
v 73.216552 -9.043301 329.775879
v 73.216552 6.346611 329.775879
v 73.216552 6.347004 361.075867
v 73.216552 116.608551 48.075882
v 73.216552 133.956299 48.075882
v 73.216552 133.956299 79.375900
v 73.216552 119.656296 79.375900
v 73.216552 119.656296 110.675888
v 73.216552 105.356308 110.675888
v 73.216552 105.356308 141.975891
v 73.216552 91.056305 141.975891
v 73.216552 91.056305 173.275894
v 73.216552 76.756302 173.275894
v 73.216552 76.756302 204.575882
v 73.216552 62.456310 204.575882
v 73.216552 62.456310 235.875885
v 73.216552 48.156311 235.875885
v 73.216552 48.156311 267.175903
v 73.216552 33.856312 267.175903
v 73.216552 33.856312 298.475891
v 73.216552 19.556309 298.475891
v 73.216552 19.556309 329.775879
vt 0.000000 0.000000
vt 0.100000 0.000000
vt 1.000000 0.000000
vt 0.000000 0.045687
vt 0.100000 0.045687
vt 0.100000 0.091374
vt 0.200000 0.091374
vt 0.200000 0.137061
vt 0.300000 0.137061
vt 0.300000 0.182748
vt 0.400000 0.182748
vt 0.400000 0.228435
vt 0.500000 0.228435
vt 0.500000 0.274121
vt 0.600000 0.274121
vt 0.600000 0.319808
vt 0.700000 0.319808
vt 0.700000 0.365495
vt 0.800000 0.365495
vt 0.800000 0.411182
vt 0.900000 0.411182
vt 0.900000 0.456869
vt 1.000000 0.456869
vt 0.000000 0.000000
vt 0.100000 0.000000
vt 0.100000 0.045687
vt 0.000000 0.045687
vt 1.000000 0.000000
vt 1.000000 0.456869
vt 0.900000 0.456869
vt 0.900000 0.411182
vt 0.800000 0.411182
vt 0.800000 0.365495
vt 0.700000 0.365495
vt 0.700000 0.319808
vt 0.600000 0.319808
vt 0.600000 0.274121
vt 0.500000 0.274121
vt 0.500000 0.228435
vt 0.400000 0.228435
vt 0.400000 0.182748
vt 0.300000 0.182748
vt 0.300000 0.137061
vt 0.200000 0.137061
vt 0.200000 0.091374
vt 0.100000 0.091374
vt 0.000000 0.000000
vt 0.100000 0.000000
vt 0.100000 0.045687
vt 0.000000 0.045687
vt 1.000000 0.000000
vt 1.000000 0.456869
vt 0.900000 0.456869
vt 0.900000 0.411182
vt 0.800000 0.411182
vt 0.800000 0.365495
vt 0.700000 0.365495
vt 0.700000 0.319808
vt 0.600000 0.319808
vt 0.600000 0.274121
vt 0.500000 0.274121
vt 0.500000 0.228435
vt 0.400000 0.228435
vt 0.400000 0.182748
vt 0.300000 0.182748
vt 0.300000 0.137061
vt 0.200000 0.137061
vt 0.200000 0.091374
vt 0.100000 0.091374
vn 1.000000 0.000000 0.000000
vn 1.000000 0.000000 0.000000
vn 1.000000 -0.000000 0.000000
vn 1.000000 0.000000 0.000000
vn 1.000000 0.000003 0.000000
vn 1.000000 0.000000 0.000000
vn 1.000000 0.000000 0.000000
vn 1.000000 0.000017 0.000000
vn 1.000000 0.000000 0.000000
vn 1.000000 -0.000008 0.000000
vn 1.000000 0.000000 0.000000
vn 1.000000 0.000009 0.000000
vn 1.000000 0.000000 0.000000
vn 1.000000 -0.000009 0.000000
vn 1.000000 0.000000 0.000000
vn 1.000000 0.000010 0.000000
vn 1.000000 0.000000 0.000000
vn 1.000000 0.000000 0.000000
vn 1.000000 0.000000 0.000000
vn 1.000000 0.000030 0.000000
vn 1.000000 0.000000 0.000000
vn 1.000000 -0.000203 0.000000
vn 1.000000 0.000000 0.000000
vn -1.000000 0.000000 0.000000
vn -1.000000 0.000000 0.000000
vn -1.000000 0.000000 0.000000
vn -1.000000 0.000000 0.000000
vn -1.000000 0.000000 0.000000
vn -1.000000 0.000000 0.000000
vn -1.000000 0.000002 0.000000
vn -1.000000 0.000000 0.000000
vn -1.000000 0.000078 0.000000
vn -1.000000 0.000000 0.000000
vn -1.000000 -0.000079 0.000000
vn -1.000000 0.000000 0.000000
vn -1.000000 0.000000 0.000000
vn -1.000000 0.000000 0.000000
vn -1.000000 -0.000002 0.000000
vn -1.000000 0.000000 0.000000
vn -1.000000 -0.000037 0.000000
vn -1.000000 0.000000 0.000000
vn -1.000000 0.000030 0.000000
vn -1.000000 -0.000001 0.000000
vn -1.000000 -0.000044 0.000000
vn -1.000000 0.000000 0.000000
vn -1.000000 0.000000 0.000000
vn -0.000001 -1.000000 0.000006
vn -0.000003 -0.928014 -0.372546
vn -0.000003 -0.928014 -0.372546
vn -0.000001 -1.000000 0.000006
vn 0.000001 1.000000 -0.000006
vn 0.000001 1.000000 -0.000006
vn 0.000001 1.000000 -0.000006
vn 0.000001 1.000000 -0.000006
vn 0.000000 0.000000 1.000000
vn 0.000000 0.000000 1.000000
vn 0.000000 0.000000 1.000000
vn 0.000000 0.000000 1.000000
vn 0.000000 0.000000 -1.000000
vn 0.000000 0.000000 -1.000000
vn 0.000000 0.000000 -1.000000
vn 0.000000 0.000000 -1.000000
vn 0.000005 1.000000 0.000000
vn 0.000005 1.000000 0.000000
vn 0.000005 1.000000 0.000000
vn 0.000005 1.000000 0.000000
vn 0.000000 0.000000 1.000000
vn 0.000000 0.000000 1.000000
vn 0.000000 0.000000 1.000000
vn 0.000000 0.000000 1.000000
vn 0.000005 1.000000 0.000000
vn 0.000005 1.000000 0.000000
vn 0.000005 1.000000 0.000000
vn 0.000005 1.000000 0.000000
vn -0.000000 0.000000 1.000000
vn -0.000000 0.000000 1.000000
vn -0.000000 0.000000 1.000000
vn -0.000000 0.000000 1.000000
vn 0.000005 1.000000 0.000000
vn 0.000005 1.000000 0.000000
vn 0.000005 1.000000 0.000000
vn 0.000005 1.000000 0.000000
vn 0.000000 0.000000 1.000000
vn 0.000000 0.000000 1.000000
vn 0.000000 0.000000 1.000000
vn 0.000000 0.000000 1.000000
vn 0.000005 1.000000 0.000000
vn 0.000005 1.000000 0.000000
vn 0.000005 1.000000 0.000000
vn 0.000005 1.000000 0.000000
vn -0.000000 0.000000 1.000000
vn -0.000000 0.000000 1.000000
vn -0.000000 0.000000 1.000000
vn -0.000000 0.000000 1.000000
vn 0.000005 1.000000 0.000000
vn 0.000005 1.000000 0.000000
vn 0.000005 1.000000 0.000000
vn 0.000005 1.000000 0.000000
vn 0.000000 0.000000 1.000000
vn 0.000000 0.000000 1.000000
vn 0.000000 0.000000 1.000000
vn 0.000000 0.000000 1.000000
vn 0.000005 1.000000 0.000000
vn 0.000005 1.000000 0.000000
vn 0.000005 1.000000 0.000000
vn 0.000005 1.000000 0.000000
vn -0.000000 0.000000 1.000000
vn -0.000000 0.000000 1.000000
vn -0.000000 0.000000 1.000000
vn -0.000000 0.000000 1.000000
vn 0.000005 1.000000 0.000000
vn 0.000005 1.000000 0.000000
vn 0.000005 1.000000 0.000000
vn 0.000005 1.000000 0.000000
vn 0.000000 0.000000 1.000000
vn 0.000000 0.000000 1.000000
vn 0.000000 0.000000 1.000000
vn 0.000000 0.000000 1.000000
vn 0.000005 1.000000 0.000000
vn 0.000005 1.000000 0.000000
vn 0.000005 1.000000 0.000000
vn 0.000005 1.000000 0.000000
vn -0.000000 0.000000 1.000000
vn -0.000000 0.000000 1.000000
vn -0.000000 0.000000 1.000000
vn -0.000000 0.000000 1.000000
vn 0.000005 1.000000 0.000000
vn 0.000005 1.000000 0.000000
vn 0.000005 1.000000 0.000000
vn 0.000005 1.000000 0.000000
vn -0.000000 0.000000 1.000000
vn -0.000000 0.000000 1.000000
vn -0.000000 0.000000 1.000000
vn -0.000000 0.000000 1.000000
vn -0.000003 -0.913267 -0.407362
vn -0.000003 -0.913267 -0.407362
g FloorStairs
f 24/47/1 25/48/2 26/49/3 27/50/4
f 25/48/2 28/51/5 26/49/3
f 29/52/6 30/53/7 28/51/5
f 30/53/7 31/54/8 28/51/5
f 32/55/9 33/56/10 31/54/8
f 34/57/11 35/58/12 33/56/10
f 36/59/13 37/60/14 35/58/12
f 38/61/15 39/62/16 37/60/14
f 40/63/17 41/64/18 39/62/16
f 42/65/19 43/66/20 41/64/18
f 44/67/21 45/68/22 43/66/20
f 46/69/23 26/49/3 45/68/22
f 26/49/3 28/51/5 45/68/22
f 45/68/22 28/51/5 43/66/20
f 43/66/20 28/51/5 41/64/18
f 41/64/18 28/51/5 39/62/16
f 39/62/16 28/51/5 37/60/14
f 37/60/14 28/51/5 35/58/12
f 35/58/12 28/51/5 33/56/10
f 28/51/5 31/54/8 33/56/10
f 1/24/24 4/27/25 5/26/26 2/25/27
f 2/25/27 5/26/26 3/28/28
f 6/46/29 7/45/30 5/26/26
f 5/26/26 7/45/30 3/28/28
f 8/44/31 9/43/32 7/45/30
f 7/45/30 9/43/32 3/28/28
f 10/42/33 11/41/34 9/43/32
f 9/43/32 11/41/34 3/28/28
f 12/40/35 13/39/36 11/41/34
f 11/41/34 13/39/36 3/28/28
f 14/38/37 15/37/38 13/39/36
f 13/39/36 15/37/38 3/28/28
f 16/36/39 17/35/40 15/37/38
f 15/37/38 17/35/40 3/28/28
f 18/34/41 19/33/42 17/35/40
f 17/35/40 19/33/42 3/28/28
f 19/33/42 20/32/43 3/28/28
f 20/32/43 21/31/44 3/28/28
f 3/28/28 21/31/44 23/29/45
f 21/31/44 22/30/46 23/29/45
f 1/1/47 2/2/48 25/48/49 24/47/50
f 5/5/51 4/4/52 27/50/53 26/49/54
f 4/4/55 1/1/56 24/47/57 27/50/58
f 3/3/59 23/23/60 29/52/61 28/51/62
f 23/23/63 22/22/64 30/53/65 29/52/66
f 22/22/67 21/21/68 31/54/69 30/53/70
f 21/21/71 20/20/72 32/55/73 31/54/74
f 20/20/75 19/19/76 33/56/77 32/55/78
f 19/19/79 18/18/80 34/57/81 33/56/82
f 18/18/83 17/17/84 35/58/85 34/57/86
f 17/17/87 16/16/88 36/59/89 35/58/90
f 16/16/91 15/15/92 37/60/93 36/59/94
f 15/15/95 14/14/96 38/61/97 37/60/98
f 14/14/99 13/13/100 39/62/101 38/61/102
f 13/13/103 12/12/104 40/63/105 39/62/106
f 12/12/107 11/11/108 41/64/109 40/63/110
f 11/11/111 10/10/112 42/65/113 41/64/114
f 10/10/115 9/9/116 43/66/117 42/65/118
f 9/9/119 8/8/120 44/67/121 43/66/122
f 8/8/123 7/7/124 45/68/125 44/67/126
f 7/7/127 6/6/128 46/69/129 45/68/130
f 6/6/131 5/5/132 26/49/133 46/69/134
f 2/2/48 3/3/135 28/51/136 25/48/49
