# This file uses meters as units for non-parametric coordinates.

g default
v -260.102128 -10.962404 564.955958
v 211.497594 -10.962404 564.955958
v -260.102128 6.370504 564.955958
v 211.497594 6.370504 564.955958
v -260.102128 134.286067 -187.343785
v 211.497594 134.286067 -187.343785
v -260.102128 116.953159 -187.343785
v 211.497594 116.953159 -187.343785
vt 0.375000 0.000000
vt 0.625000 0.000000
vt 0.375000 0.250000
vt 0.625000 0.250000
vt 0.375000 0.500000
vt 0.625000 0.500000
vt 0.375000 0.750000
vt 0.625000 0.750000
vt 0.375000 1.000000
vt 0.625000 1.000000
vt 0.875000 0.000000
vt 0.875000 0.250000
vt 0.125000 0.000000
vt 0.125000 0.250000
vn 0.000000 0.000000 1.000000
vn 0.000000 0.000000 1.000000
vn 0.000000 0.000000 1.000000
vn 0.000000 0.000000 1.000000
vn 0.000000 0.985851 0.167627
vn 0.000000 0.985851 0.167627
vn 0.000000 0.985851 0.167627
vn 0.000000 0.985851 0.167627
vn 0.000000 0.000000 -1.000000
vn 0.000000 0.000000 -1.000000
vn 0.000000 0.000000 -1.000000
vn 0.000000 0.000000 -1.000000
vn 0.000000 -0.985851 -0.167627
vn 0.000000 -0.985851 -0.167627
vn 0.000000 -0.985851 -0.167627
vn 0.000000 -0.985851 -0.167627
vn 1.000000 0.000000 0.000000
vn 1.000000 0.000000 0.000000
vn 1.000000 0.000000 0.000000
vn 1.000000 0.000000 0.000000
vn -1.000000 0.000000 0.000000
vn -1.000000 0.000000 0.000000
vn -1.000000 0.000000 0.000000
vn -1.000000 0.000000 0.000000
g RampUp
f 1/1/1 2/2/2 4/4/3 3/3/4
f 3/3/5 4/4/6 6/6/7 5/5/8
f 5/5/9 6/6/10 8/8/11 7/7/12
f 7/7/13 8/8/14 2/10/15 1/9/16
f 2/2/17 8/11/18 6/12/19 4/4/20
f 7/13/21 1/1/22 3/3/23 5/14/24
