# This file uses meters as units for non-parametric coordinates.

mtllib THISSHOULDWORKOFFICE.mtl
g default
v -227.908356 5.264360 -204.781891
v -227.908295 5.264359 205.637314
v 100.234863 5.264359 -204.781891
v 100.234863 5.264359 205.637314
v -227.908295 5.264359 11.988801
v 100.234863 5.264359 15.345034
v 100.620956 5.264359 -18.465927
v -227.522247 5.264360 -12.373285
v -227.908295 36.581215 205.637314
v -227.908295 35.136253 -204.781891
v 100.234863 36.581215 205.637314
v 100.234863 36.581215 -204.781891
v 100.234863 37.698990 15.345034
v -227.908295 36.581215 15.345027
v -227.522202 36.581215 -18.465927
v 100.620956 37.644577 -18.465927
v -227.908295 33.450966 11.988801
v -227.908295 32.093929 205.637314
v 100.234863 32.093929 205.637314
v 100.234863 37.125050 15.345034
v 100.620956 37.125050 -18.465927
v 100.234863 32.093929 -204.781891
v -227.908295 33.167793 -204.781891
v -227.522202 33.450966 -12.373297
vt 0.499680 0.507782
vt 0.500249 0.288028
vt 0.016742 0.288028
vt 0.016173 0.507782
vt 0.499680 0.248149
vt 0.016173 0.248149
vt 0.499680 0.023706
vt 0.016173 0.023706
vt 0.016173 0.507782
vt 0.499675 0.507782
vt 0.499675 0.732223
vt 0.016173 0.736182
vt 0.500244 0.772102
vt 0.016742 0.764916
vt 0.499675 0.991853
vt 0.016173 0.991853
vt 0.503023 0.274565
vt 0.503023 0.023706
vt 0.538392 0.023706
vt 0.545024 0.274565
vt 0.544307 0.023706
vt 0.545781 0.274565
vt 0.503023 0.319138
vt 0.545024 0.319138
vt 0.545709 0.319138
vt 0.503023 0.564755
vt 0.538392 0.564755
vt 0.544307 0.564755
vt 0.548025 0.564755
vt 0.548025 0.309471
vt 0.585183 0.309471
vt 0.583394 0.564755
vt 0.589310 0.313896
vt 0.589310 0.564755
vt 0.585183 0.277355
vt 0.589310 0.269323
vt 0.584810 0.023706
vt 0.587405 0.023706
vt 0.548025 0.277355
vt 0.548025 0.023706
vt 0.679316 0.023706
vt 0.679316 0.456291
vt 0.643947 0.456291
vt 0.643947 0.023706
vt 0.638031 0.456291
vt 0.638031 0.023706
vt 0.593028 0.456292
vt 0.593028 0.023706
vt 0.628397 0.023706
vt 0.629813 0.456292
vt 0.634313 0.023706
vt 0.632408 0.456292
vn 0.000000 1.000000 0.000000
vn 0.000000 1.000000 0.000000
vn 0.000000 1.000000 0.000000
vn 0.000000 1.000000 0.000000
vn 0.000000 1.000000 0.000000
vn 0.000000 1.000000 0.000000
vn 0.000000 1.000000 0.000000
vn 0.000000 1.000000 0.000000
vn -0.999998 0.000000 -0.001847
vn -1.000000 0.000000 0.000000
vn -1.000000 0.000000 0.000000
vn -0.999999 0.000000 -0.001768
vn 1.000000 0.000000 0.000000
vn 1.000000 0.000000 0.000000
vn 1.000000 0.000000 0.000000
vn 1.000000 0.000000 0.000000
vn 0.000000 0.000000 -1.000000
vn 0.000000 0.000000 -1.000000
vn 0.000000 0.000000 -1.000000
vn 0.000000 0.000000 -1.000000
vn 0.000000 0.000000 1.000000
vn 0.000000 0.000000 1.000000
vn 0.000000 0.000000 1.000000
vn 0.000000 0.000000 1.000000
vn -1.000000 0.000000 -0.000148
vn -1.000000 0.000000 -0.000057
vn -0.999998 0.000000 0.002072
vn -0.999998 0.000000 0.002072
vn 0.999998 -0.000002 -0.002007
vn 0.999998 -0.000002 -0.002007
vn 0.999998 -0.000202 -0.002008
vn 0.999998 -0.000066 -0.002007
vn 1.000000 0.000000 0.000000
vn 1.000000 0.000000 0.000000
vn 0.000000 0.000000 -1.000000
vn 0.000000 0.000000 -1.000000
vn -1.000000 0.000000 0.000000
vn -1.000000 0.000000 -0.000423
vn -0.999999 0.000000 0.001556
vn -0.999998 0.000000 0.002072
vn 0.000000 0.000000 1.000000
vn 0.000000 0.000000 1.000000
vn 0.999995 -0.002427 -0.002028
vn 0.999995 -0.002427 -0.002028
vn 0.999895 0.005802 0.013273
vn 0.999895 0.005802 0.013273
vn 0.999895 0.005802 0.013273
vn 0.999895 0.005802 0.013273
vn 0.003822 -0.999970 0.006723
vn 0.003822 -0.999970 0.006723
vn 0.003822 -0.999970 0.006723
vn 0.003822 -0.999970 0.006723
vn 0.003323 -0.999994 0.000843
vn 0.003323 -0.999994 0.000843
vn 0.003323 -0.999994 0.000843
vn 0.003323 -0.999994 0.000843
vn 0.001703 -0.999994 -0.002937
vn 0.001703 -0.999994 -0.002937
vn 0.001703 -0.999994 -0.002937
vn 0.001703 -0.999994 -0.002937
g pOffice
usemtl Maya_Blinn1SG
f 2/9/1 4/10/2 6/11/3 5/12/4
f 5/12/4 6/11/3 7/13/5 8/14/6
f 8/14/6 7/13/5 3/15/7 1/16/8
usemtl Maya_Lambert1SG
f 6/17/9 4/18/10 19/19/11 20/20/12
f 2/29/13 5/30/14 17/31/15 18/32/16
f 4/41/17 2/42/18 18/43/19 19/44/20
f 1/47/21 3/48/22 22/49/23 23/50/24
f 7/23/25 6/17/9 20/20/12 21/24/26
f 3/26/27 7/23/25 21/24/26 22/27/28
f 8/39/29 1/40/30 23/37/31 24/35/32
f 18/32/16 17/31/15 14/33/33 9/34/34
f 19/44/20 18/43/19 9/45/35 11/46/36
f 20/20/12 19/19/11 11/21/37 13/22/38
f 21/24/26 20/20/12 13/22/38 16/25/39
f 22/27/28 21/24/26 16/25/39 12/28/40
f 23/50/24 22/49/23 12/51/41 10/52/42
f 24/35/32 23/37/31 10/38/43 15/36/44
f 14/33/45 17/31/46 24/35/47 15/36/48
usemtl Maya_Phong1SG
f 12/1/49 16/2/50 15/3/51 10/4/52
f 16/2/53 13/5/54 14/6/55 15/3/56
f 13/5/57 11/7/58 9/8/59 14/6/60
