# This file uses meters as units for non-parametric coordinates.

v 81.513809 53.510429 -158.377720
v 80.946632 53.492509 -169.779514
v 84.498962 42.245270 -158.355885
v 83.935661 42.213413 -169.754078
v 80.588524 55.918842 -164.105549
v 83.086922 48.014318 -156.040470
v 84.860802 39.805462 -164.026615
v 82.328484 47.831967 -172.123676
v 80.135162 51.784083 -159.597218
v 79.492874 53.584855 -164.020237
v 79.799652 51.751746 -168.345478
v 81.315384 47.531841 -157.711170
v 82.416290 43.020234 -159.558659
v 82.043556 43.124717 -168.348362
v 82.706421 41.248644 -163.900364
v 80.850441 47.424606 -170.247135
v 80.878151 48.419724 -162.959232
v 80.721985 48.850296 -163.972797
v 80.795006 48.418182 -164.932377
v 81.157936 47.429873 -162.498142
v 81.423592 46.349230 -162.935871
v 81.318733 46.427654 -164.924381
v 81.484673 45.962152 -163.896503
v 81.037270 47.422119 -165.397831
v 79.166199 47.237459 -163.559971
v 79.113899 47.370418 -163.875080
v 79.135086 47.235630 -164.173527
v 79.257034 46.930561 -163.416615
v 79.341194 46.594842 -163.552876
v 79.302895 46.617775 -164.171162
v 79.358505 46.474014 -163.851627
v 79.211586 46.926130 -164.318241
v 77.838661 46.543951 -163.792576
vt 0.206594 0.008831
vt 0.214042 0.008831
vt 0.207034 0.026907
vt 0.219508 0.013963
vt 0.201596 0.021613
vt 0.214491 0.026907
vt 0.219508 0.021621
vt 0.201596 0.014124
vt 0.213050 0.011420
vt 0.207718 0.011420
vt 0.204139 0.015197
vt 0.216937 0.015089
vt 0.216937 0.020577
vt 0.208027 0.024294
vt 0.213425 0.024294
vt 0.204139 0.020556
vt 0.211201 0.016244
vt 0.209852 0.016244
vt 0.208960 0.017173
vt 0.212186 0.017174
vt 0.212186 0.018614
vt 0.209942 0.019493
vt 0.211310 0.019493
vt 0.208960 0.018533
vt 0.210705 0.017500
vt 0.210386 0.017464
vt 0.210205 0.017707
vt 0.210962 0.017704
vt 0.210995 0.018058
vt 0.210428 0.018226
vt 0.210760 0.018256
vt 0.210165 0.018029
vt 0.210599 0.017878
vn 0.847994 -0.430326 -0.309395
vn 0.847994 -0.430326 -0.309395
vn 0.847994 -0.430326 -0.309395
vn 0.847994 -0.430326 -0.309395
vn 0.886261 -0.401957 0.230155
vn 0.886261 -0.401957 0.230155
vn 0.886261 -0.401957 0.230155
vn 0.886261 -0.401957 0.230155
vn 0.710189 -0.101244 -0.696693
vn 0.710189 -0.101244 -0.696693
vn 0.710189 -0.101244 -0.696693
vn 0.710189 -0.101244 -0.696693
vn 0.561602 0.424788 -0.710041
vn 0.561602 0.424788 -0.710041
vn 0.561602 0.424788 -0.710041
vn 0.561602 0.424788 -0.710041
vn 0.555567 0.793784 0.247492
vn 0.555567 0.793784 0.247492
vn 0.555567 0.793784 0.247492
vn 0.555567 0.793784 0.247492
vn 0.501479 0.808683 -0.307491
vn 0.501479 0.808683 -0.307491
vn 0.501479 0.808683 -0.307491
vn 0.501479 0.808683 -0.307491
vn 0.657604 0.446722 0.606627
vn 0.657604 0.446722 0.606627
vn 0.657604 0.446722 0.606627
vn 0.657604 0.446722 0.606627
vn 0.800400 -0.058663 0.596589
vn 0.800400 -0.058663 0.596589
vn 0.800400 -0.058663 0.596589
vn 0.800400 -0.058663 0.596589
vn 0.967105 0.251391 -0.038856
vn 0.967105 0.251391 -0.038856
vn 0.967105 0.251391 -0.038856
vn 0.967105 0.251391 -0.038856
vn 0.967379 0.250489 -0.037843
vn 0.967380 0.250489 -0.037843
vn 0.967380 0.250489 -0.037843
vn 0.967380 0.250489 -0.037843
vn 0.966897 0.252344 -0.037863
vn 0.966897 0.252344 -0.037863
vn 0.966897 0.252344 -0.037863
vn 0.966897 0.252344 -0.037863
vn 0.967176 0.251416 -0.036877
vn 0.967176 0.251416 -0.036877
vn 0.967176 0.251416 -0.036877
vn 0.967176 0.251417 -0.036877
vn 0.967091 0.251446 -0.038853
vn 0.967091 0.251446 -0.038853
vn 0.967091 0.251446 -0.038853
vn 0.967091 0.251446 -0.038853
vn 0.967384 0.250466 -0.037893
vn 0.967384 0.250466 -0.037893
vn 0.967384 0.250466 -0.037893
vn 0.967384 0.250466 -0.037893
vn 0.966894 0.252363 -0.037799
vn 0.966894 0.252363 -0.037799
vn 0.966894 0.252363 -0.037799
vn 0.966894 0.252363 -0.037799
vn 0.967193 0.251347 -0.036900
vn 0.967193 0.251347 -0.036900
vn 0.967193 0.251347 -0.036900
vn 0.967193 0.251347 -0.036900
vn 0.611581 -0.689332 -0.388317
vn 0.611581 -0.689332 -0.388317
vn 0.611581 -0.689332 -0.388317
vn 0.611581 -0.689332 -0.388317
vn 0.644766 -0.677649 0.353650
vn 0.644766 -0.677649 0.353650
vn 0.644766 -0.677649 0.353650
vn 0.644766 -0.677649 0.353650
vn 0.473847 -0.257146 -0.842226
vn 0.473847 -0.257146 -0.842226
vn 0.473847 -0.257146 -0.842226
vn 0.473847 -0.257146 -0.842226
vn 0.302726 0.421238 -0.854936
vn 0.302726 0.421238 -0.854936
vn 0.302727 0.421238 -0.854936
vn 0.302727 0.421238 -0.854936
vn 0.224174 0.901300 0.370682
vn 0.224174 0.901300 0.370682
vn 0.224174 0.901300 0.370682
vn 0.224174 0.901300 0.370682
vn 0.212075 0.910831 -0.354135
vn 0.212075 0.910831 -0.354135
vn 0.212075 0.910831 -0.354135
vn 0.212075 0.910831 -0.354135
vn 0.345640 0.482289 0.804942
vn 0.345640 0.482289 0.804942
vn 0.345640 0.482289 0.804942
vn 0.345640 0.482289 0.804942
vn 0.541679 -0.243719 0.804478
vn 0.541679 -0.243719 0.804478
vn 0.541679 -0.243719 0.804478
vn 0.541679 -0.243719 0.804478
vn 0.477895 -0.778107 -0.407634
vn 0.477895 -0.778107 -0.407634
vn 0.477895 -0.778107 -0.407634
vn 0.519883 -0.764075 0.381984
vn 0.519883 -0.764075 0.381984
vn 0.519883 -0.764075 0.381984
vn 0.323349 -0.320237 -0.890446
vn 0.323349 -0.320237 -0.890446
vn 0.323349 -0.320237 -0.890446
vn 0.131062 0.400869 -0.906712
vn 0.131062 0.400869 -0.906712
vn 0.131062 0.400869 -0.906712
vn 0.057651 0.914154 0.401247
vn 0.057651 0.914154 0.401247
vn 0.057651 0.914154 0.401247
vn 0.028162 0.927248 -0.373387
vn 0.028162 0.927248 -0.373387
vn 0.028162 0.927248 -0.373387
vn 0.198783 0.469261 0.860395
vn 0.198783 0.469261 0.860395
vn 0.198783 0.469261 0.860395
vn 0.412824 -0.300069 0.859962
vn 0.412824 -0.300069 0.859962
vn 0.412824 -0.300069 0.859962
f 5/1/1 1/2/2 9/9/3 10/10/4
f 2/8/5 5/1/6 10/10/7 11/11/8
f 1/2/9 6/4/10 12/12/11 9/9/12
f 6/4/13 3/7/14 13/13/15 12/12/16
f 7/6/17 4/3/18 14/14/19 15/15/20
f 3/7/21 7/6/22 15/15/23 13/13/24
f 4/3/25 8/5/26 16/16/27 14/14/28
f 8/5/29 2/8/30 11/11/31 16/16/32
f 10/10/33 9/9/34 17/17/35 18/18/36
f 11/11/37 10/10/38 18/18/39 19/19/40
f 9/9/41 12/12/42 20/20/43 17/17/44
f 12/12/45 13/13/46 21/21/47 20/20/48
f 15/15/49 14/14/50 22/22/51 23/23/52
f 13/13/53 15/15/54 23/23/55 21/21/56
f 14/14/57 16/16/58 24/24/59 22/22/60
f 16/16/61 11/11/62 19/19/63 24/24/64
f 18/18/65 17/17/66 25/25/67 26/26/68
f 19/19/69 18/18/70 26/26/71 27/27/72
f 17/17/73 20/20/74 28/28/75 25/25/76
f 20/20/77 21/21/78 29/29/79 28/28/80
f 23/23/81 22/22/82 30/30/83 31/31/84
f 21/21/85 23/23/86 31/31/87 29/29/88
f 22/22/89 24/24/90 32/32/91 30/30/92
f 24/24/93 19/19/94 27/27/95 32/32/96
f 26/26/97 25/25/98 33/33/99
f 27/27/100 26/26/101 33/33/102
f 25/25/103 28/28/104 33/33/105
f 28/28/106 29/29/107 33/33/108
f 31/31/109 30/30/110 33/33/111
f 29/29/112 31/31/113 33/33/114
f 30/30/115 32/32/116 33/33/117
f 32/32/118 27/27/119 33/33/120
