# This file uses meters as units for non-parametric coordinates.

g default
v -138.192139 106.479019 -85.541382
v 113.759216 -119.241447 -85.541382
v 126.862732 -119.241463 -85.541382
v 113.759216 -106.701439 -85.541382
v 126.862732 -106.701439 -85.541382
v 100.655884 -94.161415 -85.541382
v 113.759216 -94.161415 -85.541382
v 87.552429 -81.621376 -85.541382
v 100.655884 -81.621376 -85.541382
v 74.448975 -69.081352 -85.541382
v 87.552429 -69.081352 -85.541382
v 61.345520 -56.541336 -85.541382
v 74.448975 -56.541336 -85.541382
v 48.242065 -44.001312 -85.541382
v 61.345520 -44.001312 -85.541382
v 35.138611 -31.461288 -85.541382
v 48.242065 -31.461288 -85.541382
v 22.035217 -18.921265 -85.541382
v 35.138611 -18.921265 -85.541382
v 8.931763 -6.381226 -85.541382
v 22.035217 -6.381226 -85.541382
v -4.171692 6.158791 -85.541382
v 8.931763 6.158791 -85.541382
v -17.275146 18.698822 -85.541382
v -4.171692 18.698822 -85.541382
v -30.378662 31.238861 -85.541382
v -17.275146 31.238861 -85.541382
v -43.481995 43.778885 -85.541382
v -30.378662 43.778885 -85.541382
v -56.585449 56.318909 -85.541382
v -43.481995 56.318909 -85.541382
v -69.688904 68.858917 -85.541382
v -56.585449 68.858917 -85.541382
v -82.792358 81.398941 -85.541382
v -69.688904 81.398941 -85.541382
v -95.895813 93.938965 -85.541382
v -82.792358 93.938965 -85.541382
v -108.999329 106.479004 -85.541382
v -95.895813 106.479004 -85.541382
v -122.102661 119.019012 -85.541382
v -108.999329 119.019012 -85.541382
v -138.192139 131.559082 -85.541382
v -122.102661 131.559082 -85.541382
v 113.760193 -119.241447 84.439209
v 126.862732 -119.241463 84.439209
v 126.862732 -106.701439 84.439209
v 113.760193 -106.701439 84.439209
v -122.100830 119.019012 84.439209
v -122.100830 131.559082 84.439209
v -138.190308 131.559082 84.439209
v -138.190308 106.479019 84.439209
v 113.761047 -94.161415 84.439209
v 100.657715 -94.161415 84.439209
v 100.657715 -81.621376 84.439209
v 87.554260 -81.621376 84.439209
v 87.554260 -69.081352 84.439209
v 74.450806 -69.081352 84.439209
v 74.450806 -56.541336 84.439209
v 61.347351 -56.541336 84.439209
v 61.347351 -44.001312 84.439209
v 48.243835 -44.001312 84.439209
v 48.243835 -31.461288 84.439209
v 35.140442 -31.461288 84.439209
v 35.140442 -18.921265 84.439209
v 22.037048 -18.921265 84.439209
v 22.037048 -6.381226 84.439209
v 8.933594 -6.381226 84.439209
v 8.933594 6.158791 84.439209
v -4.169861 6.158791 84.439209
v -4.169861 18.698822 84.439209
v -17.273315 18.698822 84.439209
v -17.273315 31.238861 84.439209
v -30.376831 31.238861 84.439209
v -30.376831 43.778885 84.439209
v -43.480164 43.778885 84.439209
v -43.480164 56.318909 84.439209
v -56.583618 56.318909 84.439209
v -56.583618 68.858917 84.439209
v -69.687073 68.858917 84.439209
v -69.687073 81.398941 84.439209
v -82.790527 81.398941 84.439209
v -82.790527 93.938965 84.439209
v -95.894043 93.938965 84.439209
v -95.894043 106.479004 84.439209
v -108.997498 106.479004 84.439209
v -108.997498 119.019012 84.439209
vt 0.675306 0.424126
vt 0.694637 0.424126
vt 0.694637 0.667537
vt 0.675306 0.667537
vt 0.625087 0.424126
vt 0.644419 0.424126
vt 0.644419 0.667537
vt 0.625087 0.667537
vt 0.725524 0.810764
vt 0.725524 0.772101
vt 0.968935 0.772101
vt 0.968935 0.810764
vt 0.725524 0.424126
vt 0.968935 0.424126
vt 0.570461 0.424126
vt 0.589793 0.424126
vt 0.589793 0.667537
vt 0.570461 0.667537
vt 0.520241 0.424126
vt 0.539572 0.424126
vt 0.539572 0.667537
vt 0.520241 0.667537
vt 0.470020 0.424126
vt 0.489352 0.424126
vt 0.489352 0.667537
vt 0.470020 0.667537
vt 0.419799 0.424129
vt 0.439131 0.424129
vt 0.439131 0.667540
vt 0.419799 0.667540
vt 0.369578 0.424129
vt 0.388910 0.424129
vt 0.388910 0.667540
vt 0.369578 0.667540
vt 0.319357 0.424129
vt 0.338689 0.424129
vt 0.338689 0.667540
vt 0.319357 0.667540
vt 0.269136 0.424129
vt 0.288468 0.424129
vt 0.288468 0.667540
vt 0.269136 0.667540
vt 0.218916 0.424129
vt 0.238248 0.424129
vt 0.238248 0.667540
vt 0.218916 0.667540
vt 0.168695 0.424129
vt 0.188027 0.424129
vt 0.188027 0.667540
vt 0.168695 0.667540
vt 0.118474 0.424129
vt 0.137806 0.424129
vt 0.137806 0.667540
vt 0.118474 0.667540
vt 0.068253 0.424129
vt 0.087585 0.424129
vt 0.087585 0.667540
vt 0.068253 0.667540
vt 0.031065 0.671298
vt 0.050397 0.671298
vt 0.050397 0.914709
vt 0.031065 0.914709
vt 0.082634 0.671298
vt 0.101966 0.671298
vt 0.101966 0.914709
vt 0.082634 0.914709
vt 0.134018 0.671298
vt 0.153350 0.671298
vt 0.153350 0.914709
vt 0.134018 0.914709
vt 0.185403 0.671298
vt 0.204735 0.671298
vt 0.204735 0.914709
vt 0.185403 0.914709
vt 0.236788 0.671298
vt 0.256120 0.671298
vt 0.256120 0.914709
vt 0.236788 0.914709
vt 0.288173 0.671298
vt 0.307505 0.671298
vt 0.307505 0.914709
vt 0.288173 0.914709
vt 0.339558 0.671298
vt 0.358890 0.671298
vt 0.358890 0.914709
vt 0.339558 0.914709
vt 0.423976 0.048657
vt 0.423976 0.029327
vt 0.443308 0.029327
vt 0.443308 0.048657
vt 0.771951 0.420368
vt 0.791282 0.396630
vt 0.771951 0.377299
vt 0.810614 0.420368
vt 0.752619 0.357967
vt 0.791282 0.377299
vt 0.810614 0.396630
vt 0.733287 0.338635
vt 0.771951 0.357967
vt 0.713955 0.319303
vt 0.752619 0.338635
vt 0.694623 0.299971
vt 0.733287 0.319303
vt 0.675291 0.280639
vt 0.713955 0.299971
vt 0.655959 0.261307
vt 0.694623 0.280639
vt 0.636627 0.241975
vt 0.675291 0.261307
vt 0.617295 0.222643
vt 0.655959 0.241975
vt 0.597963 0.203311
vt 0.636627 0.222643
vt 0.578631 0.183979
vt 0.617295 0.203311
vt 0.559299 0.164647
vt 0.597963 0.183979
vt 0.539968 0.145316
vt 0.578631 0.164647
vt 0.520636 0.125984
vt 0.559299 0.145316
vt 0.501304 0.106652
vt 0.539968 0.125984
vt 0.481972 0.087320
vt 0.520636 0.106652
vt 0.462640 0.067988
vt 0.501304 0.087320
vt 0.462640 0.048656
vt 0.481972 0.067988
vt 0.417704 0.048659
vt 0.398372 0.048659
vt 0.398372 0.029327
vt 0.417704 0.029327
vt 0.069729 0.420370
vt 0.379040 0.067990
vt 0.359708 0.087322
vt 0.379040 0.048659
vt 0.340376 0.106654
vt 0.359708 0.067990
vt 0.321044 0.125986
vt 0.340376 0.087322
vt 0.301712 0.145318
vt 0.321044 0.106654
vt 0.282380 0.164650
vt 0.301712 0.125986
vt 0.263048 0.183982
vt 0.282380 0.145318
vt 0.243716 0.203314
vt 0.263048 0.164650
vt 0.224384 0.222646
vt 0.243716 0.183982
vt 0.205052 0.241978
vt 0.224384 0.203314
vt 0.185721 0.261310
vt 0.205052 0.222646
vt 0.166389 0.280642
vt 0.185721 0.241978
vt 0.147057 0.299973
vt 0.166389 0.261310
vt 0.127725 0.319305
vt 0.147057 0.280642
vt 0.108393 0.338637
vt 0.127725 0.299973
vt 0.089061 0.357969
vt 0.108393 0.319305
vt 0.069729 0.377301
vt 0.089061 0.338637
vt 0.050397 0.396633
vt 0.069729 0.357969
vt 0.031065 0.420370
vt 0.050397 0.377301
vt 0.031065 0.396633
vt 0.700415 0.424126
vt 0.719747 0.424126
vt 0.719747 0.667537
vt 0.700416 0.667537
vt 0.669528 0.667537
vt 0.650196 0.667537
vt 0.650198 0.424126
vt 0.669528 0.424126
vt 0.619307 0.667537
vt 0.595570 0.667537
vt 0.595573 0.424126
vt 0.619310 0.424126
vt 0.564681 0.667537
vt 0.545349 0.667537
vt 0.545352 0.424126
vt 0.564684 0.424126
vt 0.514461 0.667537
vt 0.495129 0.667537
vt 0.495131 0.424126
vt 0.514463 0.424126
vt 0.464240 0.667537
vt 0.444908 0.667537
vt 0.444911 0.424126
vt 0.464243 0.424126
vt 0.414019 0.667540
vt 0.394687 0.667540
vt 0.394690 0.424129
vt 0.414022 0.424129
vt 0.363798 0.667540
vt 0.344466 0.667540
vt 0.344469 0.424129
vt 0.363801 0.424129
vt 0.313577 0.667540
vt 0.294246 0.667540
vt 0.294248 0.424129
vt 0.313580 0.424129
vt 0.263357 0.667540
vt 0.244025 0.667540
vt 0.244027 0.424129
vt 0.263359 0.424129
vt 0.213136 0.667540
vt 0.193804 0.667540
vt 0.193807 0.424129
vt 0.213139 0.424129
vt 0.162915 0.667540
vt 0.143583 0.667540
vt 0.143586 0.424129
vt 0.162918 0.424129
vt 0.112694 0.667540
vt 0.093362 0.667540
vt 0.093365 0.424129
vt 0.112697 0.424129
vt 0.062474 0.667540
vt 0.043141 0.667540
vt 0.043144 0.424129
vt 0.062476 0.424129
vt 0.076273 0.914709
vt 0.056941 0.914709
vt 0.056944 0.671298
vt 0.076276 0.671298
vt 0.127658 0.914709
vt 0.108326 0.914709
vt 0.108329 0.671298
vt 0.127661 0.671298
vt 0.179043 0.914709
vt 0.159711 0.914709
vt 0.159714 0.671298
vt 0.179046 0.671298
vt 0.230428 0.914709
vt 0.211096 0.914709
vt 0.211099 0.671298
vt 0.230430 0.671298
vt 0.281813 0.914709
vt 0.262481 0.914709
vt 0.262483 0.671298
vt 0.281815 0.671298
vt 0.333198 0.914709
vt 0.313866 0.914709
vt 0.313868 0.671298
vt 0.333200 0.671298
vt 0.384582 0.914709
vt 0.365251 0.914709
vt 0.365253 0.671298
vt 0.384585 0.671298
vn -0.000001 0.000000 1.000000
vn 0.000000 0.000000 1.000000
vn 0.000000 0.000000 1.000000
vn -0.000001 0.000000 1.000000
vn -0.000000 0.000000 1.000000
vn 0.000000 0.000000 1.000000
vn 0.000000 0.000000 1.000000
vn -0.000000 0.000000 1.000000
vn 0.000000 0.000000 1.000000
vn 0.000000 0.000000 1.000000
vn 0.000000 0.000000 1.000000
vn -0.000003 0.000000 1.000000
vn 0.000000 0.000000 1.000000
vn 0.000003 0.000000 1.000000
vn 0.000000 0.000000 1.000000
vn -0.000003 0.000000 1.000000
vn 0.000000 0.000000 1.000000
vn -0.000003 0.000000 1.000000
vn 0.000000 0.000000 1.000000
vn -0.000003 0.000000 1.000000
vn 0.000000 0.000000 1.000000
vn -0.000009 0.000000 1.000000
vn 0.000000 0.000000 1.000000
vn 0.000003 0.000000 1.000000
vn 0.000000 0.000000 1.000000
vn 0.000018 0.000000 1.000000
vn 0.000000 0.000000 1.000000
vn 0.000003 0.000000 1.000000
vn 0.000000 0.000000 1.000000
vn -0.000043 0.000000 1.000000
vn 0.000000 0.000000 1.000000
vn 0.000032 0.000000 1.000000
vn 0.000000 0.000000 1.000000
vn 0.000018 0.000000 1.000000
vn 0.000000 0.000000 1.000000
vn -0.000039 0.000000 1.000000
vn 0.000000 0.000000 1.000000
vn 0.000033 0.000000 1.000000
vn 0.000000 0.000000 1.000000
vn 0.000003 0.000000 1.000000
vn 0.000000 0.000000 1.000000
vn -0.000031 0.000000 1.000000
vn 0.000000 0.000000 1.000000
vn -0.000000 0.000000 -1.000000
vn -0.000000 0.000000 -1.000000
vn 0.000001 0.000000 -1.000000
vn 0.000001 0.000000 -1.000000
vn 0.000000 0.000000 -1.000000
vn 0.000000 0.000000 -1.000000
vn 0.000000 0.000000 -1.000000
vn 0.000000 0.000000 -1.000000
vn 0.000000 0.000000 -1.000000
vn 0.000000 0.000000 -1.000000
vn 0.000000 0.000000 -1.000000
vn 0.000000 0.000000 -1.000000
vn 0.000000 0.000000 -1.000000
vn 0.000000 0.000000 -1.000000
vn 0.000000 0.000000 -1.000000
vn 0.000000 0.000000 -1.000000
vn 0.000000 0.000000 -1.000000
vn 0.000000 0.000000 -1.000000
vn 0.000000 0.000000 -1.000000
vn 0.000001 0.000000 -1.000000
vn 0.000000 0.000000 -1.000000
vn 0.000001 0.000000 -1.000000
vn 0.000000 0.000000 -1.000000
vn 0.000001 0.000000 -1.000000
vn 0.000000 0.000000 -1.000000
vn -0.000004 0.000000 -1.000000
vn 0.000000 0.000000 -1.000000
vn 0.000002 0.000000 -1.000000
vn 0.000000 0.000000 -1.000000
vn 0.000002 0.000000 -1.000000
vn 0.000000 0.000000 -1.000000
vn -0.000002 0.000000 -1.000000
vn 0.000000 0.000000 -1.000000
vn -0.000004 0.000000 -1.000000
vn 0.000000 0.000000 -1.000000
vn 0.000006 0.000000 -1.000000
vn 0.000000 0.000000 -1.000000
vn 0.000001 0.000000 -1.000000
vn 0.000000 0.000000 -1.000000
vn -0.000006 0.000000 -1.000000
vn 0.000000 0.000000 -1.000000
vn 0.000000 0.000000 -1.000000
vn 0.000000 0.000000 -1.000000
vn -0.000001 -1.000000 0.000000
vn -0.000001 -1.000000 0.000000
vn -0.000001 -1.000000 0.000000
vn -0.000001 -1.000000 0.000000
vn 1.000000 0.000000 0.000000
vn 1.000000 0.000000 0.000000
vn 1.000000 0.000000 0.000000
vn 1.000000 0.000000 0.000000
vn 0.000000 1.000000 0.000000
vn 0.000000 1.000000 0.000000
vn 0.000000 1.000000 0.000000
vn 0.000000 1.000000 0.000000
vn 1.000000 0.000000 -0.000011
vn 1.000000 0.000000 -0.000011
vn 1.000000 0.000000 -0.000011
vn 1.000000 0.000000 -0.000011
vn 0.000000 1.000000 -0.000000
vn 0.000000 1.000000 -0.000000
vn 0.000000 1.000000 -0.000000
vn 0.000000 1.000000 -0.000000
vn -1.000000 0.000000 0.000011
vn -1.000000 0.000000 0.000011
vn -1.000000 0.000000 0.000011
vn -1.000000 0.000000 0.000011
vn -0.667272 -0.744814 0.000006
vn -0.667272 -0.744814 0.000006
vn -0.667272 -0.744814 0.000006
vn -0.667272 -0.744814 0.000006
vn 1.000000 -0.000034 -0.000008
vn 1.000000 -0.000034 -0.000008
vn 1.000000 -0.000034 -0.000008
vn 1.000000 -0.000034 -0.000008
vn 0.000000 1.000000 -0.000000
vn 0.000000 1.000000 -0.000000
vn 0.000000 1.000000 -0.000000
vn 0.000000 1.000000 -0.000000
vn 1.000000 0.000000 -0.000011
vn 1.000000 0.000000 -0.000011
vn 1.000000 0.000000 -0.000011
vn 1.000000 0.000000 -0.000011
vn 0.000000 1.000000 -0.000000
vn 0.000000 1.000000 -0.000000
vn 0.000000 1.000000 -0.000000
vn 0.000000 1.000000 -0.000000
vn 1.000000 0.000000 -0.000011
vn 1.000000 0.000000 -0.000011
vn 1.000000 0.000000 -0.000011
vn 1.000000 0.000000 -0.000011
vn 0.000000 1.000000 -0.000000
vn 0.000000 1.000000 -0.000000
vn 0.000000 1.000000 -0.000000
vn 0.000000 1.000000 -0.000000
vn 1.000000 0.000000 -0.000011
vn 1.000000 0.000000 -0.000011
vn 1.000000 0.000000 -0.000011
vn 1.000000 0.000000 -0.000011
vn 0.000000 1.000000 -0.000000
vn 0.000000 1.000000 -0.000000
vn 0.000000 1.000000 -0.000000
vn 0.000000 1.000000 -0.000000
vn 1.000000 0.000000 -0.000011
vn 1.000000 0.000000 -0.000011
vn 1.000000 0.000000 -0.000011
vn 1.000000 0.000000 -0.000011
vn 0.000000 1.000000 -0.000000
vn 0.000000 1.000000 -0.000000
vn 0.000000 1.000000 -0.000000
vn 0.000000 1.000000 -0.000000
vn 1.000000 0.000000 -0.000010
vn 1.000000 0.000000 -0.000010
vn 1.000000 0.000000 -0.000010
vn 1.000000 0.000000 -0.000010
vn 0.000000 1.000000 0.000000
vn 0.000000 1.000000 0.000000
vn 0.000000 1.000000 0.000000
vn 0.000000 1.000000 0.000000
vn 1.000000 0.000000 -0.000011
vn 1.000000 0.000000 -0.000011
vn 1.000000 0.000000 -0.000011
vn 1.000000 0.000000 -0.000011
vn 0.000000 1.000000 0.000000
vn 0.000000 1.000000 0.000000
vn 0.000000 1.000000 0.000000
vn 0.000000 1.000000 0.000000
vn 1.000000 0.000000 -0.000011
vn 1.000000 0.000000 -0.000011
vn 1.000000 0.000000 -0.000011
vn 1.000000 0.000000 -0.000011
vn 0.000000 1.000000 -0.000000
vn 0.000000 1.000000 -0.000000
vn 0.000000 1.000000 -0.000000
vn 0.000000 1.000000 -0.000000
vn 1.000000 0.000000 -0.000011
vn 1.000000 0.000000 -0.000011
vn 1.000000 0.000000 -0.000011
vn 1.000000 0.000000 -0.000011
vn 0.000000 1.000000 0.000000
vn 0.000000 1.000000 0.000000
vn 0.000000 1.000000 0.000000
vn 0.000000 1.000000 0.000000
vn 1.000000 0.000000 -0.000011
vn 1.000000 0.000000 -0.000011
vn 1.000000 0.000000 -0.000011
vn 1.000000 0.000000 -0.000011
vn 0.000000 1.000000 -0.000000
vn 0.000000 1.000000 -0.000000
vn 0.000000 1.000000 -0.000000
vn 0.000000 1.000000 -0.000000
vn 1.000000 0.000000 -0.000011
vn 1.000000 0.000000 -0.000011
vn 1.000000 0.000000 -0.000011
vn 1.000000 0.000000 -0.000011
vn 0.000000 1.000000 0.000000
vn 0.000000 1.000000 0.000000
vn 0.000000 1.000000 0.000000
vn 0.000000 1.000000 0.000000
vn 1.000000 0.000000 -0.000011
vn 1.000000 0.000000 -0.000011
vn 1.000000 0.000000 -0.000011
vn 1.000000 0.000000 -0.000011
vn 0.000000 1.000000 0.000000
vn 0.000000 1.000000 0.000000
vn 0.000000 1.000000 0.000000
vn 0.000000 1.000000 0.000000
vn 1.000000 0.000000 -0.000011
vn 1.000000 0.000000 -0.000011
vn 1.000000 0.000000 -0.000011
vn 1.000000 0.000000 -0.000011
vn 0.000000 1.000000 -0.000000
vn 0.000000 1.000000 -0.000000
vn 0.000000 1.000000 -0.000000
vn 0.000000 1.000000 -0.000000
vn 1.000000 0.000000 -0.000011
vn 1.000000 0.000000 -0.000011
vn 1.000000 0.000000 -0.000011
vn 1.000000 0.000000 -0.000011
vn 0.000000 1.000000 -0.000000
vn 0.000000 1.000000 -0.000000
vn 0.000000 1.000000 -0.000000
vn 0.000000 1.000000 -0.000000
vn 1.000000 0.000000 -0.000011
vn 1.000000 0.000000 -0.000011
vn 1.000000 0.000000 -0.000011
vn 1.000000 0.000000 -0.000011
vn 0.000000 1.000000 -0.000000
vn 0.000000 1.000000 -0.000000
vn 0.000000 1.000000 -0.000000
vn 0.000000 1.000000 -0.000000
vn 1.000000 0.000000 -0.000011
vn 1.000000 0.000000 -0.000011
vn 1.000000 0.000000 -0.000011
vn 1.000000 0.000000 -0.000011
vn 0.000000 1.000000 0.000000
vn 0.000000 1.000000 0.000000
vn 0.000000 1.000000 0.000000
vn 0.000000 1.000000 0.000000
vn 1.000000 0.000000 -0.000010
vn 1.000000 0.000000 -0.000010
vn 1.000000 0.000000 -0.000010
vn 1.000000 0.000000 -0.000010
vn 0.000000 1.000000 -0.000000
vn 0.000000 1.000000 -0.000000
vn 0.000000 1.000000 -0.000000
vn 0.000000 1.000000 -0.000000
vn 1.000000 0.000000 -0.000011
vn 1.000000 0.000000 -0.000011
vn 1.000000 0.000000 -0.000011
vn 1.000000 0.000000 -0.000011
vn 0.000000 1.000000 0.000000
vn 0.000000 1.000000 0.000000
vn 0.000000 1.000000 0.000000
vn 0.000000 1.000000 0.000000
g pPlane1
f 44/87/1 45/88/2 46/89/3 47/90/4
f 44/87/1 47/90/4 51/91/5
f 49/97/6 50/94/7 48/92/8
f 50/94/7 51/91/5 48/92/8
f 51/91/5 47/90/4 48/92/8
f 52/128/9 53/126/10 47/90/4
f 54/129/11 55/124/12 53/126/10
f 56/127/13 57/122/14 55/124/12
f 58/125/15 59/120/16 57/122/14
f 60/123/17 61/118/18 59/120/16
f 62/121/19 63/116/20 61/118/18
f 64/119/21 65/114/22 63/116/20
f 66/117/23 67/112/24 65/114/22
f 68/115/25 69/110/26 67/112/24
f 70/113/27 71/108/28 69/110/26
f 72/111/29 73/106/30 71/108/28
f 74/109/31 75/104/32 73/106/30
f 76/107/33 77/102/34 75/104/32
f 78/105/35 79/100/36 77/102/34
f 80/103/37 81/98/38 79/100/36
f 82/101/39 83/95/40 81/98/38
f 84/99/41 85/93/42 83/95/40
f 86/96/43 48/92/8 85/93/42
f 48/92/8 47/90/4 85/93/42
f 85/93/42 47/90/4 83/95/40
f 83/95/40 47/90/4 81/98/38
f 81/98/38 47/90/4 79/100/36
f 79/100/36 47/90/4 77/102/34
f 77/102/34 47/90/4 75/104/32
f 75/104/32 47/90/4 73/106/30
f 73/106/30 47/90/4 71/108/28
f 71/108/28 47/90/4 69/110/26
f 69/110/26 47/90/4 67/112/24
f 67/112/24 47/90/4 65/114/22
f 65/114/22 47/90/4 63/116/20
f 63/116/20 47/90/4 61/118/18
f 61/118/18 47/90/4 59/120/16
f 59/120/16 47/90/4 57/122/14
f 57/122/14 47/90/4 55/124/12
f 47/90/4 53/126/10 55/124/12
f 2/130/44 4/131/45 5/132/46 3/133/47
f 2/130/44 1/134/48 4/131/45
f 41/171/49 38/166/50 40/168/51
f 39/169/52 36/164/53 38/166/50
f 37/167/54 34/162/55 36/164/53
f 35/165/56 32/160/57 34/162/55
f 33/163/58 30/158/59 32/160/57
f 31/161/60 28/156/61 30/158/59
f 29/159/62 26/154/63 28/156/61
f 27/157/64 24/152/65 26/154/63
f 25/155/66 22/150/67 24/152/65
f 23/153/68 20/148/69 22/150/67
f 21/151/70 18/146/71 20/148/69
f 19/149/72 16/144/73 18/146/71
f 17/147/74 14/142/75 16/144/73
f 15/145/76 12/140/77 14/142/75
f 13/143/78 10/138/79 12/140/77
f 11/141/80 8/136/81 10/138/79
f 9/139/82 6/135/83 8/136/81
f 7/137/84 4/131/45 6/135/83
f 4/131/45 1/134/48 6/135/83
f 6/135/83 1/134/48 8/136/81
f 8/136/81 1/134/48 10/138/79
f 10/138/79 1/134/48 12/140/77
f 12/140/77 1/134/48 14/142/75
f 14/142/75 1/134/48 16/144/73
f 16/144/73 1/134/48 18/146/71
f 18/146/71 1/134/48 20/148/69
f 20/148/69 1/134/48 22/150/67
f 22/150/67 1/134/48 24/152/65
f 24/152/65 1/134/48 26/154/63
f 26/154/63 1/134/48 28/156/61
f 28/156/61 1/134/48 30/158/59
f 30/158/59 1/134/48 32/160/57
f 32/160/57 1/134/48 34/162/55
f 34/162/55 1/134/48 36/164/53
f 36/164/53 1/134/48 38/166/50
f 38/166/50 1/134/48 40/168/51
f 1/134/48 42/170/85 40/168/51
f 40/168/51 42/170/85 43/172/86
f 2/173/87 3/174/88 45/175/89 44/176/90
f 3/1/91 5/2/92 46/3/93 45/4/94
f 5/177/95 4/178/96 47/179/97 46/180/98
f 40/5/99 43/6/100 49/7/101 48/8/102
f 43/181/103 42/182/104 50/183/105 49/184/106
f 42/9/107 1/10/108 51/11/109 50/12/110
f 1/10/111 2/13/112 44/14/113 51/11/114
f 4/15/115 7/16/116 52/17/117 47/18/118
f 7/185/119 6/186/120 53/187/121 52/188/122
f 6/19/123 9/20/124 54/21/125 53/22/126
f 9/189/127 8/190/128 55/191/129 54/192/130
f 8/23/131 11/24/132 56/25/133 55/26/134
f 11/193/135 10/194/136 57/195/137 56/196/138
f 10/27/139 13/28/140 58/29/141 57/30/142
f 13/197/143 12/198/144 59/199/145 58/200/146
f 12/31/147 15/32/148 60/33/149 59/34/150
f 15/201/151 14/202/152 61/203/153 60/204/154
f 14/35/155 17/36/156 62/37/157 61/38/158
f 17/205/159 16/206/160 63/207/161 62/208/162
f 16/39/163 19/40/164 64/41/165 63/42/166
f 19/209/167 18/210/168 65/211/169 64/212/170
f 18/43/171 21/44/172 66/45/173 65/46/174
f 21/213/175 20/214/176 67/215/177 66/216/178
f 20/47/179 23/48/180 68/49/181 67/50/182
f 23/217/183 22/218/184 69/219/185 68/220/186
f 22/51/187 25/52/188 70/53/189 69/54/190
f 25/221/191 24/222/192 71/223/193 70/224/194
f 24/55/195 27/56/196 72/57/197 71/58/198
f 27/225/199 26/226/200 73/227/201 72/228/202
f 26/59/203 29/60/204 74/61/205 73/62/206
f 29/229/207 28/230/208 75/231/209 74/232/210
f 28/63/211 31/64/212 76/65/213 75/66/214
f 31/233/215 30/234/216 77/235/217 76/236/218
f 30/67/219 33/68/220 78/69/221 77/70/222
f 33/237/223 32/238/224 79/239/225 78/240/226
f 32/71/227 35/72/228 80/73/229 79/74/230
f 35/241/231 34/242/232 81/243/233 80/244/234
f 34/75/235 37/76/236 82/77/237 81/78/238
f 37/245/239 36/246/240 83/247/241 82/248/242
f 36/79/243 39/80/244 84/81/245 83/82/246
f 39/249/247 38/250/248 85/251/249 84/252/250
f 38/83/251 41/84/252 86/85/253 85/86/254
f 41/253/255 40/254/256 48/255/257 86/256/258
