# This file uses meters as units for non-parametric coordinates.

mtllib EmptyOfficeGreybox2.mtl
g default
v -243.955536 -0.252247 216.892532
v 243.955536 -0.252247 216.892532
v -243.955536 5.264359 216.892532
v 243.955536 5.264359 216.892532
v -243.955536 5.264359 -216.892532
v 243.955536 5.264359 -216.892532
v -243.955536 -0.252247 -216.892532
v 243.955536 -0.252247 -216.892532
v -243.955536 5.264359 -204.781891
v -243.955536 -0.252247 -204.781891
v 243.955536 -0.252247 -204.781891
v 243.955536 5.264359 -204.781891
v -227.908295 5.264359 216.892532
v -227.908356 5.264360 -204.781891
v -227.908295 5.264359 -216.892532
v -227.908295 -0.252247 -216.892532
v -227.908295 -0.252247 -204.781891
v -227.908295 -0.252247 216.892532
v 243.955536 5.264359 205.637314
v -227.908295 5.264359 205.637314
v -243.955536 5.264359 205.637314
v -243.955536 -0.252247 205.637314
v -227.908295 -0.252247 205.637314
v 243.955536 -0.252247 205.637314
v 230.761765 5.264359 -204.781891
v 230.761765 5.264359 205.637314
v 230.761765 5.264359 216.892532
v 230.761765 -0.252247 216.892532
v 230.761765 -0.252247 205.637314
v 230.761765 -0.252247 -204.781891
v 230.761765 -0.252247 -216.892532
v 230.761765 5.264359 -216.892532
v -227.908295 5.264359 11.988801
v -243.955536 5.264359 11.988801
v -243.955536 -0.252247 15.345035
v -227.908295 -0.252247 15.345044
v 230.761765 -0.252247 15.345027
v 243.955536 -0.252247 15.345035
v 243.955536 5.264359 15.345027
v 230.761765 5.264359 15.345035
v -243.569443 5.264359 -12.373299
v -243.569443 -0.252247 -18.465927
v -227.522202 -0.252247 -18.465918
v 231.147858 -0.252247 -18.465927
v 244.341629 -0.252247 -18.465927
v 244.341629 5.264359 -18.465927
v 231.147858 5.264359 -18.465927
v -227.522247 5.264360 -12.373285
v -243.955536 41.612335 216.892532
v -227.908295 41.612335 216.892532
v -227.908295 41.612335 205.637314
v -243.955536 41.612335 205.637314
v -227.908295 41.612335 -204.781891
v -243.955536 41.612335 -204.781891
v -227.908295 41.612335 -216.892532
v -243.955536 41.612335 -216.892532
v 230.761765 41.612335 216.892532
v 243.955536 41.612335 216.892532
v 243.955536 41.612335 205.637314
v 230.761765 41.612335 205.637314
v 230.761765 41.612335 -216.892532
v 230.761765 41.612335 -204.781891
v 243.955536 41.612335 -204.781891
v 243.955536 41.612335 -216.892532
v 243.955536 41.612335 15.345027
v 230.761765 41.612335 15.345035
v -227.908295 41.612335 15.345027
v -243.955536 41.612335 15.345027
v -227.522202 41.612335 -18.465927
v -243.569443 41.612335 -18.465927
v 244.341629 41.612335 -18.465927
v 231.147858 41.612335 -18.465927
v -227.908295 33.450966 11.988801
v -227.908295 37.125050 205.637314
v 230.761765 37.125050 205.637314
v 230.761765 37.125050 15.345035
v 231.147858 37.125050 -18.465927
v 230.761765 37.125050 -204.781891
v -227.908295 37.125050 -204.781891
v -227.522202 33.450966 -12.373297
v -243.955536 33.196953 11.988801
v -243.955536 36.871037 205.637314
v -243.955536 36.871037 216.892532
v -227.908295 36.871037 216.892532
v 230.761765 36.871037 216.892532
v 243.955536 36.871037 216.892532
v 243.955536 36.871037 205.637314
v 243.955536 36.871037 15.345027
v 244.341629 36.871037 -18.465927
v 243.955536 36.871037 -204.781891
v 243.955536 36.871037 -216.892532
v 230.761765 36.871037 -216.892532
v -227.908295 36.871037 -216.892532
v -243.955536 36.871037 -216.892532
v -243.955536 36.871037 -204.781891
v -243.569443 33.196953 -12.373299
v -243.955536 47.155930 216.892532
v -227.908295 47.155930 216.892532
v -227.908295 47.155930 205.637314
v -243.955536 47.155930 205.637314
v -227.908295 47.155930 -204.781891
v -243.955536 47.155930 -204.781891
v -227.908295 47.155930 -216.892532
v -243.955536 47.155930 -216.892532
v 230.761765 47.155930 216.892532
v 243.955536 47.155930 216.892532
v 243.955536 47.155930 205.637314
v 230.761765 47.155930 205.637314
v 230.761765 47.155930 -216.892532
v 230.761765 47.155930 -204.781891
v 243.955536 47.155930 -204.781891
v 243.955536 47.155930 -216.892532
v 243.955536 47.155930 15.345027
v 230.761765 47.155930 15.345035
v -227.908295 47.155930 15.345027
v -243.955536 47.155930 15.345027
v -227.522202 47.155930 -18.465927
v -243.569443 47.155930 -18.465927
v 244.341629 47.155930 -18.465927
v 231.147858 47.155930 -18.465927
vt 0.169511 0.793487
vt 0.169511 0.783871
vt 0.174225 0.783871
vt 0.174225 0.793487
vt 0.169511 0.621283
vt 0.174225 0.621283
vt 0.201230 0.783871
vt 0.201230 0.793487
vt 0.169511 0.592392
vt 0.174225 0.592392
vt 0.201230 0.621283
vt 0.205281 0.783871
vt 0.205281 0.793487
vt 0.169511 0.433201
vt 0.174224 0.433201
vt 0.201230 0.592392
vt 0.205281 0.621283
vt 0.210018 0.783871
vt 0.210018 0.793487
vt 0.169511 0.422854
vt 0.174224 0.422854
vt 0.201230 0.433201
vt 0.205281 0.592392
vt 0.210017 0.621283
vt 0.201230 0.422854
vt 0.205281 0.433201
vt 0.210017 0.592392
vt 0.205281 0.422854
vt 0.210017 0.433201
vt 0.210017 0.422854
vt 0.122869 0.432470
vt 0.122869 0.422854
vt 0.127583 0.422854
vt 0.127583 0.432470
vt 0.154588 0.422853
vt 0.154588 0.432470
vt 0.122871 0.595058
vt 0.127584 0.597926
vt 0.158639 0.422853
vt 0.158639 0.432470
vt 0.151450 0.597926
vt 0.122871 0.623949
vt 0.127584 0.618743
vt 0.163375 0.422853
vt 0.163375 0.432470
vt 0.158640 0.595058
vt 0.122868 0.783139
vt 0.127582 0.783140
vt 0.163377 0.595058
vt 0.158640 0.623949
vt 0.151450 0.618744
vt 0.154587 0.783140
vt 0.122868 0.793487
vt 0.127582 0.793487
vt 0.163377 0.623949
vt 0.158638 0.783140
vt 0.154587 0.793487
vt 0.163374 0.783140
vt 0.158638 0.793488
vt 0.163374 0.793488
vt 0.085678 0.585442
vt 0.085678 0.422854
vt 0.112900 0.422854
vt 0.112900 0.585442
vt 0.116734 0.422854
vt 0.116734 0.585442
vt 0.085678 0.614332
vt 0.112900 0.614332
vt 0.116734 0.614332
vt 0.085678 0.773523
vt 0.112900 0.773523
vt 0.116734 0.773523
vt 0.048491 0.773525
vt 0.048482 0.608069
vt 0.072565 0.608068
vt 0.075713 0.773524
vt 0.079539 0.610935
vt 0.079547 0.773523
vt 0.072565 0.587250
vt 0.079539 0.582045
vt 0.075713 0.422853
vt 0.079547 0.422853
vt 0.048482 0.587249
vt 0.048491 0.422852
vt 0.001992 0.418863
vt 0.001992 0.405152
vt 0.011609 0.405152
vt 0.011609 0.418863
vt 0.001992 0.013257
vt 0.011609 0.013257
vt 0.174197 0.405152
vt 0.174197 0.418863
vt 0.001992 0.001984
vt 0.011609 0.001984
vt 0.174197 0.013257
vt 0.203086 0.404822
vt 0.203086 0.418533
vt 0.174197 0.001984
vt 0.203086 0.012927
vt 0.362277 0.405152
vt 0.362277 0.418863
vt 0.203086 0.001654
vt 0.362277 0.013257
vt 0.372625 0.405152
vt 0.372625 0.418863
vt 0.362277 0.001984
vt 0.372625 0.013257
vt 0.372625 0.001984
vt 0.741300 0.418863
vt 0.741300 0.405152
vt 0.750916 0.405152
vt 0.750916 0.418863
vt 0.578711 0.418863
vt 0.578711 0.405152
vt 0.741300 0.013257
vt 0.750916 0.013257
vt 0.549822 0.418533
vt 0.549822 0.404822
vt 0.578711 0.013257
vt 0.741300 0.001984
vt 0.750916 0.001984
vt 0.390631 0.418863
vt 0.390631 0.405152
vt 0.549822 0.012927
vt 0.578711 0.001984
vt 0.380284 0.418863
vt 0.380284 0.405152
vt 0.390631 0.013257
vt 0.549822 0.001654
vt 0.380284 0.013257
vt 0.390631 0.001984
vt 0.380284 0.001984
vt 0.647340 0.815079
vt 0.647339 0.423184
vt 0.809928 0.423184
vt 0.812796 0.815079
vt 0.838817 0.422854
vt 0.833611 0.814749
vt 0.998008 0.423184
vt 0.998008 0.815079
vt 0.833611 0.828460
vt 0.812796 0.828790
vt 0.016034 0.450930
vt 0.015703 0.471744
vt 0.001991 0.471743
vt 0.002322 0.450929
vt 0.290536 0.423184
vt 0.449727 0.422854
vt 0.449727 0.814749
vt 0.290536 0.815079
vt 0.478616 0.423184
vt 0.478616 0.815079
vt 0.641204 0.423184
vt 0.641204 0.815079
vt 0.758381 0.418533
vt 0.758381 0.404822
vt 0.763094 0.404822
vt 0.763094 0.418533
vt 0.758380 0.012927
vt 0.763094 0.012927
vt 0.790099 0.404822
vt 0.790099 0.418533
vt 0.758380 0.001654
vt 0.763094 0.001654
vt 0.790099 0.012927
vt 0.794150 0.404822
vt 0.794150 0.418533
vt 0.790099 0.001654
vt 0.794150 0.012927
vt 0.798887 0.404822
vt 0.798887 0.418533
vt 0.794150 0.001654
vt 0.798887 0.012927
vt 0.798887 0.001654
vt 0.840948 0.418533
vt 0.840948 0.404822
vt 0.845662 0.404822
vt 0.845662 0.418533
vt 0.813943 0.418533
vt 0.813943 0.404822
vt 0.840948 0.012927
vt 0.845662 0.012927
vt 0.809892 0.418533
vt 0.809892 0.404822
vt 0.813943 0.012927
vt 0.840948 0.001654
vt 0.845662 0.001654
vt 0.805155 0.418533
vt 0.805155 0.404822
vt 0.809892 0.012927
vt 0.813943 0.001654
vt 0.805155 0.012927
vt 0.809892 0.001654
vt 0.805155 0.001654
vt 0.247209 0.422854
vt 0.247209 0.814749
vt 0.219987 0.814749
vt 0.219987 0.422854
vt 0.216153 0.814749
vt 0.216153 0.422854
vt 0.253344 0.814749
vt 0.253344 0.422854
vt 0.280567 0.422854
vt 0.280567 0.814749
vt 0.284401 0.422854
vt 0.284401 0.814749
vt 0.028640 0.422854
vt 0.042351 0.422854
vt 0.042351 0.446937
vt 0.028640 0.446720
vt 0.022505 0.446937
vt 0.008794 0.446937
vt 0.008794 0.423071
vt 0.022505 0.422854
vn 0.000000 0.000000 1.000000
vn 0.000000 0.000000 1.000000
vn 0.000000 0.000000 1.000000
vn 0.000000 0.000000 1.000000
vn 0.000000 1.000000 0.000000
vn 0.000000 1.000000 0.000000
vn 0.000000 1.000000 0.000000
vn 0.000000 1.000000 0.000000
vn 0.000000 0.000000 -1.000000
vn 0.000000 0.000000 -1.000000
vn 0.000000 0.000000 -1.000000
vn 0.000000 0.000000 -1.000000
vn 0.000000 -1.000000 0.000000
vn 0.000000 -1.000000 0.000000
vn 0.000000 -1.000000 0.000000
vn 0.000000 -1.000000 0.000000
vn 1.000000 0.000000 0.000000
vn 1.000000 0.000000 0.000000
vn 1.000000 0.000000 0.000000
vn 1.000000 0.000000 0.000000
vn -1.000000 -0.000001 0.000000
vn -1.000000 0.000000 0.000000
vn -1.000000 0.000000 0.000000
vn -1.000000 -0.000000 0.000000
vn -1.000000 0.000000 0.000000
vn -0.999998 -0.001061 0.001916
vn -0.999998 -0.000163 0.001886
vn -1.000000 0.000000 0.000000
vn 0.000000 -1.000000 0.000000
vn 0.000000 -1.000000 0.000000
vn 0.000000 -1.000000 0.000000
vn 0.000000 -1.000000 0.000000
vn 0.999998 0.000000 -0.001946
vn 0.999998 0.000000 -0.001946
vn 1.000000 0.000000 0.000000
vn 1.000000 0.000000 0.000000
vn 0.000000 1.000000 0.000000
vn 0.000000 1.000000 0.000000
vn 0.000000 1.000000 0.000000
vn 0.000000 1.000000 0.000000
vn 0.000000 1.000000 0.000000
vn 0.000000 1.000000 0.000000
vn 0.000000 1.000000 0.000000
vn 0.000000 1.000000 0.000000
vn 0.000000 1.000000 0.000000
vn 0.000000 1.000000 0.000000
vn 0.000000 1.000000 0.000000
vn 0.000000 1.000000 0.000000
vn 0.000000 0.000000 -1.000000
vn 0.000000 0.000000 -1.000000
vn 0.000000 0.000000 -1.000000
vn 0.000000 0.000000 -1.000000
vn 0.000000 -1.000000 0.000000
vn 0.000000 -1.000000 0.000000
vn 0.000000 -1.000000 0.000000
vn 0.000000 -1.000000 0.000000
vn 0.000000 -1.000000 0.000000
vn 0.000000 -1.000000 0.000000
vn 0.000000 -1.000000 0.000000
vn 0.000000 -1.000000 0.000000
vn 0.000000 0.000000 1.000000
vn 0.000000 0.000000 1.000000
vn 0.000000 0.000000 1.000000
vn 0.000000 0.000000 1.000000
vn 0.000000 1.000000 -0.000000
vn 0.000000 1.000000 -0.000000
vn 0.000000 1.000000 -0.000000
vn 0.000000 1.000000 -0.000000
vn -1.000000 0.000223 -0.000906
vn -1.000000 0.000107 -0.000430
vn 0.000000 -1.000000 0.000000
vn 0.000000 -1.000000 0.000000
vn 0.000000 -1.000000 -0.000000
vn 0.000000 -1.000000 -0.000000
vn 0.999999 -0.000001 0.001723
vn 0.999999 -0.000000 0.001723
vn 0.000000 1.000000 0.000000
vn 0.000000 1.000000 0.000000
vn 0.000000 1.000000 0.000000
vn 0.000000 1.000000 0.000000
vn 0.000000 1.000000 0.000000
vn 0.000000 1.000000 -0.000000
vn -0.999999 -0.000931 0.001352
vn -0.999999 0.000040 0.001428
vn 0.000000 -1.000000 0.000000
vn 0.000000 -1.000000 0.000000
vn 0.000000 -1.000000 -0.000000
vn 0.000000 -1.000000 0.000000
vn 1.000000 -0.000001 -0.000000
vn 1.000000 -0.000000 0.000000
vn 0.000000 1.000000 0.000000
vn 0.000000 1.000000 -0.000000
vn 0.000000 1.000000 0.000000
vn 0.000000 1.000000 0.000000
vn 0.000000 1.000000 -0.000000
vn 0.000000 1.000000 -0.000000
vn 0.000000 0.000000 1.000000
vn 0.000000 0.000000 1.000000
vn 0.000000 0.000000 1.000000
vn 0.000000 0.000000 1.000000
vn -1.000000 0.000000 0.000000
vn -1.000000 0.000000 0.000000
vn -1.000000 0.000000 0.000000
vn -1.000000 0.000001 0.000000
vn 0.000000 0.000000 -1.000000
vn 0.000000 0.000000 -1.000000
vn 0.000000 0.000000 -1.000000
vn 0.000000 0.000000 -1.000000
vn -1.000000 0.000000 0.000000
vn -0.999998 0.000162 0.001894
vn -0.999998 0.000492 0.001952
vn -1.000000 0.000000 0.000000
vn 0.000000 0.000000 1.000000
vn 0.000000 0.000000 1.000000
vn 0.000000 0.000000 1.000000
vn 0.000000 0.000000 1.000000
vn 1.000000 0.000000 0.000000
vn 1.000000 0.000000 0.000000
vn 1.000000 0.000000 0.000000
vn 1.000000 0.000000 0.000000
vn 0.999998 0.000000 -0.001946
vn 1.000000 0.000000 0.000000
vn 1.000000 0.000000 0.000000
vn 0.999998 0.000000 -0.001946
vn 0.000000 0.000000 -1.000000
vn 0.000000 0.000000 -1.000000
vn 0.000000 0.000000 -1.000000
vn 0.000000 0.000000 -1.000000
vn 0.999999 0.000000 0.001723
vn 0.999999 0.000000 0.001723
vn -0.999999 0.000000 -0.001723
vn -1.000000 0.000000 0.000000
vn -1.000000 0.000000 0.000000
vn -0.999999 0.000000 -0.001723
vn 1.000000 0.000000 0.000000
vn 1.000000 0.000000 0.000000
vn 1.000000 0.000000 0.000000
vn 1.000000 0.000000 0.000000
vn -1.000000 0.000000 0.000000
vn -0.999999 -0.000133 -0.001539
vn 0.000000 0.000000 -1.000000
vn 0.000000 0.000000 -1.000000
vn 0.000000 0.000000 -1.000000
vn 0.000000 0.000000 -1.000000
vn 0.000000 0.000000 1.000000
vn 0.000000 0.000000 1.000000
vn 0.000000 0.000000 1.000000
vn 0.000000 0.000000 1.000000
vn 1.000000 0.000000 0.000000
vn 1.000000 0.000000 -0.000000
vn -1.000000 0.000000 0.000000
vn -1.000000 0.000000 0.000000
vn -0.999998 0.000000 0.002072
vn -0.999998 0.000000 0.002072
vn 0.999998 -0.000002 -0.002007
vn 0.999998 -0.000002 -0.002007
vn 0.999998 -0.000174 -0.002014
vn 0.999998 -0.000106 -0.002011
vn -0.999998 0.000106 0.002011
vn -1.000000 0.000429 0.000516
vn 1.000000 0.000000 0.000000
vn 1.000000 0.000000 0.000000
vn 0.000000 0.000000 -1.000000
vn 0.000000 0.000000 -1.000000
vn -1.000000 0.000000 0.000000
vn -0.999999 0.000000 -0.001723
vn -1.000000 0.000000 0.000000
vn -0.999998 0.000000 0.002072
vn 0.000000 0.000000 1.000000
vn 0.000000 0.000000 1.000000
vn 0.999997 -0.000988 -0.002048
vn 0.999997 -0.000988 -0.002048
vn 0.999909 0.002225 0.013273
vn 0.999909 0.002225 0.013273
vn 0.999909 0.002225 0.013273
vn 0.999910 0.002225 0.013273
vn -0.999910 -0.002162 -0.013273
vn -0.999910 -0.002162 -0.013273
vn -0.000000 1.000000 0.000000
vn -0.000000 1.000000 0.000000
vn -0.000000 1.000000 0.000000
vn -0.000000 1.000000 0.000000
vn 0.015827 -0.999875 0.000251
vn 0.015827 -0.999875 0.000251
vn 0.015827 -0.999875 0.000251
vn 0.015827 -0.999875 0.000251
vn -0.000000 0.000000 1.000000
vn -0.000000 0.000000 1.000000
vn -0.000000 0.000000 1.000000
vn -0.000000 0.000000 1.000000
vn -0.000000 0.000000 -1.000000
vn -0.000000 0.000000 -1.000000
vn -0.000000 0.000000 -1.000000
vn -0.000000 0.000000 -1.000000
vn 0.000000 0.000000 1.000000
vn 0.000000 0.000000 1.000000
vn -1.000000 0.000000 0.000000
vn -1.000000 0.000000 0.000000
vn 0.000000 0.000000 -1.000000
vn 0.000000 0.000000 -1.000000
vn -0.999998 0.000000 0.001946
vn -1.000000 0.000000 0.000000
vn 0.000000 0.000000 1.000000
vn 0.000000 0.000000 1.000000
vn 1.000000 0.000000 0.000000
vn 1.000000 0.000000 0.000000
vn 1.000000 0.000000 0.000000
vn 0.999998 0.000000 -0.001946
vn 0.000000 0.000000 -1.000000
vn 0.000000 0.000000 -1.000000
vn 0.999999 0.000000 0.001723
vn -0.999999 0.000000 -0.001723
vn -1.000000 0.000000 0.000000
vn 1.000000 0.000000 0.000000
vn 0.000000 1.000000 0.000000
vn 0.000000 1.000000 0.000000
vn 0.000000 1.000000 0.000000
vn 0.000000 1.000000 0.000000
vn 0.000000 1.000000 0.000000
vn 0.000000 1.000000 0.000000
vn 0.000000 1.000000 0.000000
vn 0.000000 1.000000 0.000000
vn 0.000000 1.000000 0.000000
vn 0.000000 1.000000 0.000000
vn 0.000000 1.000000 0.000000
vn 0.000000 1.000000 0.000000
vn 0.000000 -1.000000 0.000000
vn 0.000000 -1.000000 0.000000
vn 0.000000 -1.000000 0.000000
vn 0.000000 -1.000000 0.000000
vn 0.000000 -1.000000 0.000000
vn 0.000000 -1.000000 0.000000
vn 0.000000 -1.000000 0.000000
vn 0.000000 -1.000000 0.000000
vn 0.000000 -1.000000 0.000000
vn 0.000000 -1.000000 0.000000
vn 0.000000 -1.000000 0.000000
vn 0.000000 -1.000000 0.000000
s 1
g pOffice
usemtl initialShadingGroup
f 1/155/1 18/156/2 13/157/3 3/158/4
s 2
f 97/85/5 98/86/6 99/87/7 100/88/8
s 3
f 5/175/9 15/176/10 16/177/11 7/178/12
s 4
f 22/109/13 23/110/14 18/111/15 1/112/16
s 5
f 2/1/17 24/2/18 19/3/19 4/4/20
s 6
f 22/31/21 1/32/22 3/33/23 21/34/24
f 7/53/25 10/47/26 9/48/27 5/54/28
s 4
f 7/126/29 16/127/30 17/123/31 10/122/32
s 5
f 12/15/33 11/14/34 8/20/35 6/21/36
s 2
f 102/101/37 101/100/38 103/104/39 104/105/40
f 105/89/41 106/93/42 107/94/43 108/90/44
f 109/107/45 110/103/46 111/106/47 112/108/48
s 3
f 31/182/49 32/181/50 6/186/51 8/187/52
s 4
f 30/128/53 31/130/54 8/132/55 11/131/56
f 28/116/57 29/115/58 24/120/59 2/121/60
s 1
f 27/160/61 28/159/62 2/163/63 4/164/64
s 2
f 108/90/44 107/94/43 113/98/65 114/95/66
f 100/88/8 99/87/7 115/91/67 116/92/68
s 6
f 35/37/69 22/31/21 21/34/24 34/38/70
s 4
f 35/113/71 36/114/72 23/110/14 22/109/13
f 24/120/59 29/115/58 37/119/73 38/125/74
s 5
f 19/3/19 24/2/18 38/5/75 39/6/76
s 12
f 20/133/77 26/134/78 40/135/79 33/136/80
s 2
f 98/86/6 105/89/41 108/90/44 99/87/7
s 1
f 13/157/3 18/156/2 28/159/62 27/160/61
s 4
f 18/111/15 23/110/14 29/115/58 28/116/57
f 37/119/73 29/115/58 23/110/14 36/114/72
f 17/123/31 16/127/30 31/130/54 30/128/53
s 3
f 16/177/11 15/176/10 32/181/50 31/182/49
s 2
f 103/104/39 101/100/38 110/103/46 109/107/45
f 116/92/68 115/91/67 117/96/81 118/97/82
s 6
f 42/42/83 35/37/69 34/38/70 41/43/84
s 4
f 42/117/85 43/118/86 36/114/72 35/113/71
f 44/124/87 37/119/73 36/114/72 43/118/86
f 38/125/74 37/119/73 44/124/87 45/129/88
s 5
f 39/6/76 38/5/75 45/9/89 46/10/90
s 2
f 114/95/66 113/98/65 119/102/91 120/99/92
s 12
f 33/136/80 40/135/79 47/137/93 48/138/94
s 6
f 10/47/26 42/42/83 41/43/84 9/48/27
s 4
f 10/122/32 17/123/31 43/118/86 42/117/85
f 30/128/53 44/124/87 43/118/86 17/123/31
f 45/129/88 44/124/87 30/128/53 11/131/56
s 5
f 46/10/90 45/9/89 11/14/34 12/15/33
s 2
f 120/99/92 119/102/91 111/106/47 110/103/46
s 12
f 48/138/94 47/137/93 25/139/95 14/140/96
s 2
f 118/97/82 117/96/81 101/100/38 102/101/37
s 1
f 83/162/97 84/161/98 50/166/99 49/167/100
s 6
f 82/36/101 83/35/102 49/39/103 52/40/104
s 3
f 93/180/105 94/179/106 56/183/107 55/184/108
s 6
f 94/57/109 95/52/110 54/56/111 56/59/112
s 1
f 85/165/113 86/168/114 58/172/115 57/169/116
s 5
f 86/8/117 87/7/118 59/12/119 58/13/120
f 90/22/121 91/25/122 64/28/123 63/26/124
s 3
f 91/191/125 92/185/126 61/190/127 64/193/128
s 5
f 87/7/118 88/11/129 65/17/130 59/12/119
s 13
f 40/61/131 26/62/132 75/63/133 76/64/134
s 14
f 20/73/135 33/74/136 73/75/137 74/76/138
s 6
f 81/41/139 82/36/101 52/40/104 68/46/140
s 1
f 84/161/98 85/165/113 57/169/116 50/166/99
s 15
f 26/195/141 20/196/142 74/197/143 75/198/144
s 16
f 14/201/145 25/202/146 78/203/147 79/204/148
s 3
f 92/185/126 93/180/105 55/184/108 61/190/127
s 5
f 88/11/129 89/16/149 71/23/150 65/17/130
s 13
f 47/67/151 40/61/131 76/64/134 77/68/152
s 5
f 89/16/149 90/22/121 63/26/124 71/23/150
s 13
f 25/70/153 47/67/151 77/68/152 78/71/154
s 17
f 48/83/155 14/84/156 79/81/157 80/79/158
s 6
f 95/52/110 96/51/159 70/50/160 54/56/111
s 14
f 74/76/138 73/75/137 67/77/161 51/78/162
s 15
f 75/198/144 74/197/143 51/199/163 60/200/164
s 13
f 76/64/134 75/63/133 60/65/165 66/66/166
f 77/68/152 76/64/134 66/66/166 72/69/167
f 78/71/154 77/68/152 72/69/167 62/72/168
s 16
f 79/204/148 78/203/147 62/205/169 53/206/170
s 17
f 80/79/158 79/81/157 53/82/171 69/80/172
s 6
f 34/38/70 21/34/24 82/36/101 81/41/139
f 21/34/24 3/33/23 83/35/102 82/36/101
s 1
f 3/158/4 13/157/3 84/161/98 83/162/97
f 13/157/3 27/160/61 85/165/113 84/161/98
f 27/160/61 4/164/64 86/168/114 85/165/113
s 5
f 4/4/20 19/3/19 87/7/118 86/8/117
f 19/3/19 39/6/76 88/11/129 87/7/118
f 39/6/76 46/10/90 89/16/149 88/11/129
f 46/10/90 12/15/33 90/22/121 89/16/149
f 12/15/33 6/21/36 91/25/122 90/22/121
s 3
f 6/186/51 32/181/50 92/185/126 91/191/125
f 32/181/50 15/176/10 93/180/105 92/185/126
f 15/176/10 5/175/9 94/179/106 93/180/105
s 6
f 5/54/28 9/48/27 95/52/110 94/57/109
f 9/48/27 41/43/84 96/51/159 95/52/110
s off
f 67/77/173 73/75/174 80/79/175 69/80/176
s 6
f 81/41/177 68/46/140 70/50/160 96/51/178
s off
f 33/136/179 48/138/180 41/141/181 34/142/182
f 80/143/183 73/144/184 81/145/185 96/146/186
f 41/207/187 48/208/188 80/209/189 96/210/190
f 33/211/191 34/212/192 81/213/193 73/214/194
s 1
f 49/167/100 50/166/99 98/170/195 97/171/196
s 6
f 52/40/104 49/39/103 97/44/197 100/45/198
s 3
f 55/184/108 56/183/107 104/188/199 103/189/200
s 6
f 56/59/112 54/56/111 102/58/201 104/60/202
s 1
f 57/169/116 58/172/115 106/174/203 105/173/204
s 5
f 58/13/120 59/12/119 107/18/205 106/19/206
f 63/26/124 64/28/123 112/30/207 111/29/208
s 3
f 64/193/128 61/190/127 109/192/209 112/194/210
s 5
f 59/12/119 65/17/130 113/24/211 107/18/205
s 6
f 68/46/140 52/40/104 100/45/198 116/49/212
s 1
f 50/166/99 57/169/116 105/173/204 98/170/195
s 3
f 61/190/127 55/184/108 103/189/200 109/192/209
s 6
f 70/50/160 68/46/140 116/49/212 118/55/213
s 5
f 65/17/130 71/23/150 119/27/214 113/24/211
f 71/23/150 63/26/124 111/29/208 119/27/214
s 6
f 54/56/111 70/50/160 118/55/213 102/58/201
s off
f 108/90/215 114/95/216 115/91/217 99/87/218
f 114/95/219 120/99/220 117/96/221 115/91/222
f 120/99/223 110/103/224 101/100/225 117/96/226
f 62/147/227 72/148/228 69/149/229 53/150/230
f 72/148/231 66/151/232 67/152/233 69/149/234
f 66/151/235 60/153/236 51/154/237 67/152/238
