# This file uses meters as units for non-parametric coordinates.

mtllib ResizedOffice.mtl
v -2040.490723 27.123970 -2315.182617
v -2040.491455 27.123911 2302.966797
v 1116.989136 27.123966 -2315.182617
v 1116.989380 27.123911 2302.966797
v -2040.490723 27.123915 107.000046
v 1116.989502 27.123915 136.954422
v 1116.989502 27.123915 -164.808411
v -2040.490845 27.123928 -110.431580
v -2040.491455 306.626862 2302.966797
v -2040.490723 293.730530 -2315.182617
v 1116.989502 306.626862 2302.966797
v 1116.989258 306.626770 -2315.182617
v 1116.989624 316.602997 136.954422
v -2040.490723 306.626862 136.954361
v -2040.490845 306.626862 -164.808411
v 1116.989624 316.117371 -164.808411
v -2040.490723 268.345917 107.000046
v -2040.491455 266.577850 2302.966797
v 1116.989380 266.577850 2302.966797
v 1116.989502 311.480591 136.954422
v 1116.989502 311.480591 -164.808411
v 1116.989136 266.577850 -2315.182617
v -2040.490723 276.162140 -2315.182617
v -2040.490845 268.345917 -110.431671
vt 0.921395 0.640032
vt 0.921395 0.335692
vt 0.954827 0.335692
vt 0.954581 0.640032
vt 0.960132 0.339843
vt 0.960132 0.640032
vt 0.954827 0.305558
vt 0.960132 0.298021
vt 0.955910 0.000000
vt 0.958345 0.000000
vt 0.921395 0.305558
vt 0.921395 0.000000
vt 0.877098 0.300189
vt 0.877098 0.000000
vt 0.910284 0.000000
vt 0.916507 0.300189
vt 0.915834 0.000000
vt 0.917217 0.300189
vt 0.877098 0.342010
vt 0.916507 0.342010
vt 0.877098 0.640032
vt 0.910284 0.640032
vt 0.438549 0.000000
vt 0.876146 0.000000
vt 0.876146 0.300189
vt 0.438549 0.304340
vt 0.876146 0.342010
vt 0.438549 0.334474
vt 0.876146 0.640031
vt 0.438549 0.640031
vt 1.000000 0.000000
vt 1.000000 0.437597
vt 0.966814 0.437597
vt 0.966814 0.000000
vt 0.961264 0.437597
vt 0.961264 0.000000
vt 0.961264 0.875193
vt 0.961264 0.437597
vt 0.994450 0.437597
vt 0.995778 0.875193
vt 1.000000 0.437597
vt 0.998213 0.875193
vt 0.437600 0.000000
vt 0.437600 0.298023
vt 0.000000 0.298023
vt 0.000000 0.000000
vt 0.437600 0.339845
vt 0.000000 0.339845
vt 0.437600 0.640036
vt 0.000000 0.640036
vn -0.000000 1.000000 0.000000
vn -0.000000 1.000000 0.000000
vn 0.000000 1.000000 0.000000
vn 0.000000 1.000000 0.000000
vn 0.000000 1.000000 0.000000
vn 0.000000 1.000000 0.000000
vn 0.000000 1.000000 0.000000
vn 0.000000 1.000000 0.000000
vn -1.000000 0.000000 -0.000000
vn -1.000000 0.000000 -0.000000
vn -1.000000 0.000000 -0.000000
vn -1.000000 0.000000 -0.000000
vn 1.000000 0.000000 0.000000
vn 1.000000 0.000000 0.000000
vn 1.000000 0.000000 0.000000
vn 1.000000 0.000000 0.000000
vn 0.000000 0.000000 -1.000000
vn 0.000000 0.000000 -1.000000
vn 0.000000 0.000000 -1.000000
vn 0.000000 0.000000 -1.000000
vn 0.000000 0.000000 1.000000
vn 0.000000 0.000000 1.000000
vn 0.000000 0.000000 1.000000
vn 0.000000 0.000000 1.000000
vn -1.000000 0.000000 0.000000
vn -1.000000 0.000001 0.000000
vn -1.000000 0.000000 0.000000
vn -1.000000 0.000001 0.000000
vn 1.000000 0.000000 0.000000
vn 1.000000 0.000000 0.000000
vn 1.000000 -0.000000 0.000000
vn 1.000000 0.000000 0.000000
vn 1.000000 0.000000 0.000000
vn 1.000000 0.000000 0.000000
vn 0.000000 0.000000 -1.000000
vn 0.000000 0.000000 -1.000000
vn -1.000000 0.000000 0.000000
vn -1.000000 0.000001 0.000000
vn -1.000000 0.000011 0.000000
vn -1.000000 0.000010 0.000000
vn 0.000000 0.000000 1.000000
vn 0.000000 0.000000 1.000000
vn 1.000000 -0.000004 0.000000
vn 1.000000 -0.000004 0.000000
vn 1.000000 0.000000 -0.000000
vn 1.000000 0.000000 -0.000000
vn 1.000000 0.000000 -0.000000
vn 1.000000 0.000000 -0.000000
vn 0.003545 -0.999980 0.005205
vn 0.003545 -0.999980 0.005205
vn 0.003545 -0.999980 0.005205
vn 0.003545 -0.999980 0.005205
vn 0.003083 -0.999995 0.000805
vn 0.003083 -0.999995 0.000805
vn 0.003083 -0.999995 0.000805
vn 0.003083 -0.999995 0.000805
vn 0.001580 -0.999996 -0.002303
vn 0.001580 -0.999996 -0.002303
vn 0.001580 -0.999996 -0.002303
vn 0.001580 -0.999996 -0.002303
usemtl Maya_Blinn1SG
f 2/23/1 4/24/2 6/25/3 5/26/4
f 5/26/4 6/25/3 7/27/5 8/28/6
f 8/28/6 7/27/5 3/29/7 1/30/8
usemtl Maya_Lambert1SG
f 6/13/9 4/14/10 19/15/11 20/16/12
f 2/1/13 5/2/14 17/3/15 18/4/16
f 4/31/17 2/32/18 18/33/19 19/34/20
f 1/37/21 3/38/22 22/39/23 23/40/24
f 7/19/25 6/13/9 20/16/12 21/20/26
f 3/21/27 7/19/25 21/20/26 22/22/28
f 8/11/29 1/12/30 23/9/31 24/7/32
f 18/4/16 17/3/15 14/5/33 9/6/34
f 19/34/20 18/33/19 9/35/35 11/36/36
f 20/16/12 19/15/11 11/17/37 13/18/38
f 21//26 20//12 13//38 16//39
f 22//28 21//26 16//39 12//40
f 23/40/24 22/39/23 12/41/41 10/42/42
f 24/7/32 23/9/31 10/10/43 15/8/44
f 14/5/45 17/3/46 24/7/47 15/8/48
usemtl Maya_Phong1SG
f 12/43/49 16/44/50 15/45/51 10/46/52
f 16/44/53 13/47/54 14/48/55 15/45/56
f 13/47/57 11/49/58 9/50/59 14/48/60
