# Blender 5.1.2
# www.blender.org
mtllib Papers_Folder_2.mtl
o Plane.009
v 0.859851 1.953505 -14.010069
v -24.336998 1.856074 -14.691965
v -0.133552 1.856074 18.213005
v -25.308384 1.856074 17.452232
v 0.753451 1.856074 -11.138885
v -24.358055 1.856074 -13.995193
v -1.794008 1.856074 -14.010725
v -2.765392 1.856074 18.133472
v -1.845129 1.856074 -12.319072
vn -0.0232 0.9995 0.0205
vn -0.0000 1.0000 -0.0000
vn -0.0087 0.9999 0.0077
vn -0.0117 0.9999 0.0104
vn -0.0073 1.0000 0.0064
vt 0.274977 0.052627
vt 1.000000 0.021676
vt 1.000000 1.000000
vt 0.274977 1.000000
vt 0.274977 0.000000
vt 1.000000 0.000000
vt 0.000000 0.000000
vt 0.000000 0.086868
vt 0.000000 1.000000
s 1
f 9/1/5 6/2/2 4/3/2 8/4/2
f 7/5/4 2/6/2 6/2/2 9/1/5
f 1/7/1 7/5/4 9/1/5 5/8/3
f 5/8/3 9/1/5 8/4/2 3/9/2
o Plane.008
v -28.078613 1.289845 15.209890
v -2.886597 1.335877 16.051596
v -26.621403 1.339361 -16.886457
v -1.711342 2.027306 -16.085794
v -26.997150 1.331407 -13.877864
v -5.047441 1.440713 -13.081907
v -4.933038 1.639125 -16.203611
v -6.111176 1.329985 15.943857
v -1.825465 1.656635 -12.965071
v -4.976213 1.564245 -15.025496
v -1.754412 1.887417 -14.908050
v -26.924736 1.334190 -15.825604
vn -0.0035 1.0000 0.0025
vn -0.0346 0.9994 0.0062
vn -0.0133 0.9993 0.0337
vn -0.1124 0.9899 0.0861
vn -0.0062 0.9998 0.0173
vn -0.0333 0.9989 0.0320
vn -0.0632 0.9962 0.0601
vn -0.0190 0.9998 0.0043
vn -0.0605 0.9971 0.0469
vn -0.0553 0.9967 0.0599
vn -0.0994 0.9913 0.0867
vn -0.0109 0.9994 0.0328
vt 0.872000 0.963353
vt 0.872000 1.000000
vt 0.010470 0.996581
vt 0.000000 0.963353
vt 0.872000 0.000000
vt 0.872000 0.902894
vt 0.000000 0.902894
vt 0.000000 0.000000
vt 1.000000 0.000000
vt 1.000000 0.902894
vt 1.000000 0.963353
vt 1.000000 1.000000
s 1
f 19/10/15 16/11/12 12/12/8 21/13/17
f 17/14/13 15/15/11 14/16/10 10/17/6
f 11/18/7 18/19/14 15/15/11 17/14/13
f 18/19/14 20/20/16 19/10/15 15/15/11
f 20/20/16 13/21/9 16/11/12 19/10/15
f 15/15/11 19/10/15 21/13/17 14/16/10
o Plane.007
v -31.864035 0.297321 14.847148
v -6.573296 0.409346 14.851044
v -29.078653 1.305291 -17.474623
v -6.256466 0.962372 -17.803371
v -36.108307 0.297321 9.329674
v -36.108421 0.297321 3.622086
v -6.287154 0.367039 3.636101
v -6.463979 0.392104 9.386271
v -3.825955 0.420310 14.851329
v -4.142837 1.060884 -17.798016
v -4.112192 0.462777 3.636346
v -3.935322 0.437605 9.386779
v 18.538256 0.464245 14.892110
v 24.636587 0.288290 -17.400396
v 18.453299 0.464248 3.684487
v 18.493944 0.464247 9.427687
v -29.329079 0.245557 -4.323391
v -6.253772 0.313743 -4.319651
v -4.145678 0.412281 -4.314893
v 25.256456 0.408513 -4.327914
v -5.963069 0.638221 -11.064919
v -4.437538 0.736749 -11.059909
v 25.040895 0.257990 -10.879043
v -29.279232 0.801949 -10.943156
v 17.611479 0.712286 -17.584829
v 10.556463 1.067652 -17.938663
v 3.201357 1.050894 -17.590322
v 1.486746 0.457160 3.806632
v 7.107344 0.461629 3.856961
v 12.766632 0.464248 3.789464
v 12.835737 0.461487 9.589628
v 7.188540 0.434704 9.697218
v 1.650513 0.418973 9.635499
v 1.760136 0.396778 15.028086
v 7.275103 0.419803 15.075145
v 12.904829 0.456783 15.002971
v 3.206816 0.412299 -4.315244
v 10.556467 0.412288 -4.315014
v 17.906118 0.412300 -4.315240
v 3.093370 0.732849 -10.978832
v 10.556469 0.739975 -11.126954
v 17.826384 0.555674 -11.001284
vn -0.0038 1.0000 -0.0002
vn -0.0072 1.0000 -0.0001
vn 0.0116 0.9980 0.0622
vn -0.0205 0.9983 0.0553
vn -0.0031 1.0000 -0.0015
vn -0.0027 1.0000 -0.0042
vn -0.0203 0.9998 -0.0041
vn -0.0117 0.9999 -0.0006
vn -0.0034 1.0000 0.0018
vn -0.0266 0.9985 0.0480
vn -0.0183 0.9998 -0.0018
vn -0.0087 1.0000 0.0023
vn -0.0009 1.0000 0.0004
vn 0.0504 0.9987 0.0119
vn -0.0000 1.0000 -0.0038
vn -0.0006 1.0000 0.0003
vn -0.0006 0.9998 0.0222
vn -0.0246 0.9994 0.0250
vn -0.0244 0.9995 0.0209
vn 0.0133 0.9999 -0.0030
vn -0.0245 0.9981 0.0558
vn -0.0278 0.9985 0.0480
vn 0.0349 0.9994 0.0052
vn 0.0068 0.9979 0.0640
vn 0.0431 0.9988 0.0242
vn 0.0182 0.9990 0.0418
vn -0.0000 0.9988 0.0480
vn 0.0001 1.0000 -0.0001
vn -0.0013 1.0000 -0.0009
vn -0.0007 1.0000 -0.0025
vn -0.0023 1.0000 0.0013
vn -0.0034 1.0000 0.0034
vn 0.0001 1.0000 0.0045
vn -0.0000 1.0000 0.0035
vn -0.0046 1.0000 0.0027
vn -0.0033 1.0000 0.0012
vn -0.0000 0.9998 0.0211
vn 0.0029 0.9998 0.0176
vn 0.0083 1.0000 0.0052
vn 0.0123 0.9991 0.0416
vn 0.0300 0.9993 0.0203
vt 1.000000 0.341947
vt 0.000000 0.341947
vt 0.000000 0.167857
vt 1.000000 0.167857
vt 0.000000 0.000000
vt 1.000000 0.000000
vt 1.000000 1.000000
vt 1.000000 0.791979
vt 1.000000 0.583958
vt 1.000000 0.583959
vt 0.000000 0.791979
vt 0.000000 0.583958
vt 0.000000 1.000000
s 1
f 28/22/24 27/23/23 26/24/22 29/25/25
f 22/26/18 23/27/19 29/25/25 26/24/22
f 31/28/27 43/29/39 61/29/44 48/28/44
f 39/30/35 28/22/24 32/22/28 40/31/36
f 29/25/25 23/27/19 30/27/26 33/25/29
f 28/22/24 29/25/25 33/25/29 32/22/28
f 60/31/56 51/22/47 36/22/32 41/30/37
f 52/25/48 57/27/53 34/27/30 37/25/33
f 51/22/47 52/25/48 37/25/33 36/22/32
f 39/30/35 42/29/38 45/32/41 38/33/34
f 63/29/58 44/29/40 35/28/31 46/28/42
f 27/23/23 28/22/24 39/30/35 38/33/34
f 42/29/38 39/30/35 40/31/36 43/29/39
f 63/29/58 60/31/56 41/30/37 44/29/40
f 45/32/41 42/29/38 25/28/21 24/34/20
f 61/29/44 58/31/54 59/31/55 62/29/57
f 62/29/57 59/31/55 60/31/56 63/29/58
f 48/28/44 61/29/44 62/29/57 47/28/43
f 47/28/43 62/29/57 63/29/58 46/28/42
f 40/31/36 58/31/54 61/29/44 43/29/39
f 32/22/28 33/25/29 54/25/50 49/22/45
f 49/22/45 54/25/50 53/25/49 50/22/46
f 50/22/46 53/25/49 52/25/48 51/22/47
f 33/25/29 30/27/26 55/27/51 54/25/50
f 54/25/50 55/27/51 56/27/52 53/25/49
f 53/25/49 56/27/52 57/27/53 52/25/48
f 40/31/36 32/22/28 49/22/45 58/31/54
f 58/31/54 49/22/45 50/22/46 59/31/55
f 59/31/55 50/22/46 51/22/47 60/31/56
f 25/28/21 42/29/38 43/29/39 31/28/27
o Plane.004
v 28.730486 1.317558 -15.345887
v 4.038794 1.065293 -17.678371
v 25.249163 0.938532 17.199192
v 0.644672 1.471206 14.307584
v 28.789673 1.138281 -12.239697
v 3.965536 1.223637 -16.983297
v 26.466335 1.178662 -15.295428
v 23.070595 0.814404 16.681580
v 26.287630 1.159492 -13.612575
v 5.250131 1.071416 -17.549667
v 1.855455 1.213962 14.433230
v 5.171178 1.220173 -16.801241
v 0.769323 1.242721 13.126169
v 25.805731 0.818197 15.859464
v 23.191795 0.827405 15.540264
v 1.980151 1.108947 13.255264
vn -0.0359 0.9985 0.0405
vn 0.0253 0.9783 -0.2055
vn -0.0157 0.9987 -0.0475
vn 0.1706 0.9780 -0.1202
vn -0.0111 0.9997 0.0217
vn 0.0404 0.9939 -0.1026
vn -0.0159 0.9999 -0.0042
vn 0.0015 0.9991 -0.0427
vn -0.0077 1.0000 0.0042
vn 0.0156 0.9915 -0.1295
vn 0.0962 0.9922 -0.0794
vn 0.0237 0.9979 -0.0598
vn 0.1139 0.9919 -0.0570
vn -0.0060 0.9999 -0.0153
vn 0.0034 0.9999 -0.0162
vn 0.0634 0.9974 -0.0355
vt 0.960841 0.963205
vt 1.000000 0.963142
vt 1.000000 1.000000
vt 0.960841 1.000000
vt 0.960841 0.000000
vt 1.000000 0.000000
vt 1.000000 0.021676
vt 0.960841 0.023348
vt 0.000000 0.000000
vt 0.274977 0.000000
vt 0.274977 0.052627
vt 0.000000 0.086868
vt 0.000000 0.965598
vt 0.274977 0.964308
vt 0.274977 1.000000
vt 0.000000 1.000000
s 1
f 79/35/74 76/36/71 67/37/62 74/38/69
f 73/39/68 65/40/60 69/41/64 75/42/70
f 64/43/59 70/44/65 72/45/67 68/46/63
f 77/47/72 78/48/73 71/49/66 66/50/61
f 70/44/65 73/39/68 75/42/70 72/45/67
f 78/48/73 79/35/74 74/38/69 71/49/66
f 72/45/67 75/42/70 79/35/74 78/48/73
f 68/46/63 72/45/67 78/48/73 77/47/72
f 75/42/70 69/41/64 76/36/71 79/35/74
