# Blender 4.5.1 LTS
# www.blender.org
mtllib Folder_1.mtl
o Plane.001
v -0.571696 -0.000002 -0.462137
v -0.571839 0.004090 0.461564
v 0.609687 0.015579 -0.360405
v 0.621078 0.002492 0.473136
v -0.370180 -0.000002 -0.617151
v -0.161720 -0.000002 -0.617156
v -0.162232 0.002545 0.472015
v -0.372248 0.003460 0.465557
v -0.571849 0.023984 0.461562
v 0.621056 0.022379 0.473136
v -0.162241 0.022433 0.472016
v -0.372266 0.023352 0.465557
v -0.573339 0.022379 -0.355252
v 0.605195 0.049866 -0.577983
v -0.163999 0.022379 -0.352149
v -0.373760 0.022379 -0.353634
v 0.128056 -0.000002 -0.369552
v 0.128039 0.002492 0.473234
v 0.128039 0.022379 0.473240
v 0.128507 0.022539 -0.600623
v 0.374683 0.002492 0.483852
v 0.374674 0.022379 0.483899
v 0.367235 0.039527 -0.592750
v 0.370529 0.008679 -0.367731
v 0.612667 0.034722 -0.321403
v 0.626199 0.022379 -0.063731
v 0.613462 0.022379 0.204902
v -0.168461 0.022638 0.267525
v -0.170299 0.022475 0.062242
v -0.167834 0.022379 -0.144454
v -0.379675 0.022480 -0.146978
v -0.383604 0.023458 0.059277
v -0.381350 0.024032 0.261544
v -0.578305 0.024843 0.257540
v -0.580024 0.024002 0.056115
v -0.577388 0.022652 -0.149501
v 0.128052 0.022379 0.204702
v 0.128043 0.022379 -0.063731
v 0.128052 0.022379 -0.332164
v 0.371709 0.022379 0.208846
v 0.377125 0.022379 -0.063731
v 0.372217 0.028882 -0.329252
v -0.594882 0.018720 -0.499544
v -0.625624 0.015162 0.420551
v 0.581756 0.015162 -0.455797
v 0.548139 0.015162 0.463475
v -0.490044 0.015162 -0.494993
v -0.600181 0.015162 0.421481
v -0.595521 0.015162 -0.402619
v 0.578242 0.015162 -0.359694
v -0.533749 0.015162 -0.400360
v -0.607560 0.020635 -0.484600
v -0.604656 0.017077 0.436004
v 0.569891 0.017077 -0.483883
v 0.569891 0.017077 0.436004
v -0.502625 0.017077 -0.483883
v -0.579196 0.017077 0.436004
v -0.604656 0.017077 -0.387716
v 0.569891 0.017077 -0.387715
v -0.542843 0.017077 -0.387716
vn 0.0022 1.0000 -0.0028
vn 0.0002 1.0000 -0.0038
vn -0.0000 1.0000 -0.0000
vn -0.0042 -0.0002 1.0000
vn -0.0200 -0.0000 0.9998
vn -0.0307 -0.0001 0.9995
vn -0.0000 1.0000 0.0003
vn 0.0004 1.0000 -0.0009
vn 0.0002 1.0000 -0.0002
vn -0.0178 0.9998 0.0022
vn -0.0361 0.9981 0.0504
vn 0.0012 1.0000 -0.0026
vn -0.0431 -0.0013 0.9991
vn -0.0490 0.9986 0.0207
vn -0.0141 0.9998 0.0116
vn -0.0133 0.9998 0.0123
vn -0.0125 0.9993 0.0364
vn 0.0054 1.0000 0.0020
vn 0.0056 1.0000 -0.0019
vn 0.0026 1.0000 -0.0026
vn 0.0036 1.0000 0.0036
vn 0.0035 1.0000 -0.0035
vn 0.0019 1.0000 -0.0056
vn 0.0006 1.0000 0.0004
vn 0.0005 1.0000 -0.0003
vn 0.0001 1.0000 -0.0002
vn 0.0435 -0.0012 0.9991
vn 0.0204 0.9995 0.0233
vn 0.0212 0.9995 0.0225
vt 0.180535 0.465434
vt 0.173081 0.926722
vt 0.084587 0.925208
vt 0.091668 0.465107
vt 0.000157 0.857952
vt 0.006720 0.465035
vt 0.509415 0.457406
vt 0.507655 0.342834
vt 0.405132 0.343813
vt 0.406423 0.457889
vt 0.303113 0.465589
vt 0.303149 0.457137
vt 0.180527 0.457069
vt 0.091653 0.456649
vt 0.006694 0.456579
vt 0.300263 0.114716
vt 0.299550 0.000157
vt 0.175557 0.107293
vt 0.174834 0.195876
vt 0.084528 0.195874
vt 0.085996 0.107659
vt 0.000773 0.108028
vt 0.000157 0.195900
vt 0.406416 0.466149
vt 0.401263 0.823448
vt 0.298575 0.822973
vt 0.404454 0.115280
vt 0.507108 0.118138
vt 0.503510 0.008394
vt 0.401763 0.002744
vt 0.509469 0.465855
vt 0.504112 0.820931
vt 0.407108 0.228403
vt 0.301125 0.229028
vt 0.302054 0.343039
vt 0.513161 0.228263
vt 0.176650 0.370941
vt 0.086248 0.369890
vt 0.174763 0.283840
vt 0.084001 0.283807
vt 0.002330 0.369603
vt 0.000259 0.283683
vt 0.554609 0.027636
vt 0.904174 0.012251
vt 0.904155 0.499843
vt 0.554634 0.499841
vt 0.554616 0.001404
vt 0.904175 0.001447
vt 0.513476 0.000157
vt 0.513801 0.044710
vt 0.513824 0.499843
vt 0.554609 0.527636
vt 0.904174 0.512251
vt 0.904155 0.999843
vt 0.554634 0.999841
vt 0.554616 0.501404
vt 0.904175 0.501447
vt 0.513476 0.500157
vt 0.513801 0.544710
vt 0.513824 0.999843
s 0
f 7/1/1 6/2/1 5/3/1 8/4/1
f 1/5/2 2/6/2 8/4/2 5/3/2
f 10/7/3 27/8/3 40/9/3 22/10/3
f 18/11/4 19/12/4 11/13/4 7/1/4
f 8/4/5 12/14/5 9/15/5 2/6/5
f 7/1/6 11/13/6 12/14/6 8/4/6
f 39/16/7 20/17/7 15/18/7 30/19/7
f 31/20/8 16/21/8 13/22/8 36/23/8
f 30/19/9 15/18/9 16/21/9 31/20/9
f 18/11/10 21/24/10 24/25/10 17/26/10
f 42/27/11 25/28/11 14/29/11 23/30/11
f 6/2/12 7/1/12 18/11/12 17/26/12
f 21/24/13 22/10/13 19/12/13 18/11/13
f 42/27/14 23/30/14 20/17/14 39/16/14
f 24/25/15 21/24/15 4/31/15 3/32/15
f 40/9/3 41/33/3 38/34/3 37/35/3
f 41/33/16 42/27/16 39/16/16 38/34/16
f 27/8/3 26/36/3 41/33/3 40/9/3
f 26/36/17 25/28/17 42/27/17 41/33/17
f 19/12/3 22/10/3 40/9/3 37/35/3
f 11/13/18 28/37/18 33/38/18 12/14/18
f 28/37/19 29/39/19 32/40/19 33/38/19
f 29/39/20 30/19/20 31/20/20 32/40/20
f 12/14/21 33/38/21 34/41/21 9/15/21
f 33/38/22 32/40/22 35/42/22 34/41/22
f 32/40/23 31/20/23 36/23/23 35/42/23
f 19/12/24 37/35/24 28/37/24 11/13/24
f 37/35/25 38/34/25 29/39/25 28/37/25
f 38/34/26 39/16/26 30/19/26 29/39/26
f 4/31/27 10/7/27 22/10/27 21/24/27
f 51/43/3 48/44/3 46/45/3 50/46/3
f 49/47/3 44/48/3 48/44/3 51/43/3
f 43/49/28 49/47/28 51/43/28 47/50/28
f 47/50/3 51/43/3 50/46/3 45/51/3
f 60/52/3 57/53/3 55/54/3 59/55/3
f 58/56/3 53/57/3 57/53/3 60/52/3
f 52/58/29 58/56/29 60/52/29 56/59/29
f 56/59/3 60/52/3 59/55/3 54/60/3
