# Blender 5.1.2
# www.blender.org
mtllib Papers_Folder_1.mtl
o Plane.003
v -16.278536 0.500799 -13.686390
v -17.120241 0.403368 11.505626
v 15.937590 0.403368 -12.488617
v 15.017149 0.403368 12.680882
v -13.408082 0.403368 -13.561781
v -16.423618 0.403368 11.531101
v -16.296024 0.403368 -11.032589
v 15.841364 0.403368 -9.857333
v -14.604729 0.403368 -10.970738
vn 0.0204 0.9995 0.0233
vn -0.0000 1.0000 -0.0000
vn 0.0077 0.9999 0.0087
vn 0.0103 0.9999 0.0118
vn 0.0064 1.0000 0.0073
vt 0.274977 0.052627
vt 1.000000 0.021676
vt 1.000000 1.000000
vt 0.274977 1.000000
vt 0.274977 0.000000
vt 1.000000 0.000000
vt 0.000000 0.000000
vt 0.000000 0.086868
vt 0.000000 1.000000
s 1
f 9/1/5 6/2/2 4/3/2 8/4/2
f 7/5/4 2/6/2 6/2/2 9/1/5
f 1/7/1 7/5/4 9/1/5 5/8/3
f 5/8/3 9/1/5 8/4/2 3/9/2
o Plane.002
v -16.625654 0.553234 -13.277217
v -16.546150 0.455803 11.928731
v 15.612723 0.455803 -13.257589
v 15.612723 0.455803 11.928735
v -13.752564 0.455803 -13.257592
v -15.849060 0.455803 11.928731
v -16.546148 0.455803 -10.624549
v 15.612723 0.455803 -10.624547
v -14.853723 0.455803 -10.624549
vn 0.0212 0.9995 0.0225
vn -0.0000 1.0000 -0.0000
vn 0.0080 0.9999 0.0085
vn 0.0107 0.9999 0.0114
vn 0.0066 1.0000 0.0071
vt 0.274977 0.052627
vt 1.000000 0.021676
vt 1.000000 1.000000
vt 0.274977 1.000000
vt 0.274977 0.000000
vt 1.000000 0.000000
vt 0.000000 0.000000
vt 0.000000 0.086868
vt 0.000000 1.000000
s 1
f 18/10/10 15/11/7 13/12/7 17/13/7
f 16/14/9 11/15/7 15/11/7 18/10/10
f 10/16/6 16/14/9 18/10/10 14/17/8
f 14/17/8 18/10/10 17/13/7 12/18/7
o Plane.001
v -15.643717 0.011573 -12.662185
v -15.647620 0.123599 12.628554
v 16.702330 0.438167 -9.876794
v 17.014217 0.079848 12.945394
v -10.126242 0.011573 -16.906456
v -4.418653 0.011573 -16.906570
v -4.432677 0.081291 12.914700
v -10.182848 0.106356 12.737873
v -15.647904 0.668284 12.628503
v 17.013601 0.624350 12.945394
v -4.432922 0.625820 12.914742
v -10.183356 0.650991 12.737870
v -15.688681 0.624350 -9.735707
v 16.579329 1.376950 -15.834031
v -4.481057 0.624350 -9.650748
v -10.224257 0.624350 -9.691393
v 3.515373 0.011561 -10.127222
v 3.514906 0.079848 12.948084
v 3.514888 0.624350 12.948231
v 3.527722 0.628743 -16.453903
v 10.267973 0.079848 13.238789
v 10.267704 0.624350 13.240094
v 10.064050 1.093869 -16.238346
v 10.154225 0.249237 -10.077374
v 16.783918 0.962304 -8.808920
v 17.154417 0.624350 -1.753908
v 16.805672 0.624350 5.601200
v -4.603206 0.631438 7.315806
v -4.653534 0.626969 1.695207
v -4.586036 0.624350 -3.964083
v -10.386200 0.627109 -4.033190
v -10.493792 0.653893 1.614010
v -10.432075 0.669623 7.152039
v -15.824659 0.691816 7.042413
v -15.871718 0.668792 1.527444
v -15.799543 0.631812 -4.102284
v 3.515242 0.624350 5.595736
v 3.515014 0.624350 -1.753915
v 3.515242 0.624350 -9.103563
v 10.186535 0.624350 5.709184
v 10.334830 0.624350 -1.753915
v 10.200451 0.802401 -9.023831
vn 0.0002 1.0000 -0.0038
vn 0.0142 0.7094 -0.7047
vn -0.0141 0.9998 0.0116
vn -0.0408 0.7182 -0.6947
vn 0.0015 1.0000 -0.0031
vn 0.0019 1.0000 -0.0027
vn 0.0136 0.7037 -0.7104
vn 0.0187 0.7070 -0.7069
vn 0.0113 -0.7180 -0.6960
vn -0.0307 -0.7099 -0.7037
vn 0.0104 -0.7032 -0.7109
vn 0.0147 -0.7075 -0.7066
vn -0.0004 -1.0000 0.0009
vn 0.0361 -0.9981 -0.0504
vn -0.0001 -1.0000 -0.0001
vn -0.0003 -1.0000 0.0006
vn -0.0065 1.0000 -0.0006
vn 0.0106 0.7118 -0.7023
vn 0.0164 -0.7112 -0.7028
vn 0.0314 -0.9994 -0.0134
vn -0.0113 0.7003 -0.7138
vn -0.0002 -0.6970 -0.7170
vn 0.0429 -0.9985 -0.0349
vn -0.0160 0.9998 0.0068
vn 0.0238 -0.9988 -0.0431
vn 0.0062 -0.9998 -0.0182
vn -0.0000 -1.0000 -0.0000
vn -0.0030 -1.0000 -0.0001
vn -0.0022 -1.0000 0.0013
vn -0.0007 -1.0000 0.0007
vn -0.0013 -1.0000 0.0023
vn -0.0034 -1.0000 0.0034
vn -0.0045 -1.0000 -0.0001
vn -0.0035 -1.0000 -0.0000
vn -0.0027 -1.0000 0.0046
vn -0.0012 -1.0000 0.0033
vn -0.0003 -1.0000 -0.0000
vn 0.0032 -1.0000 -0.0029
vn 0.0156 -0.9998 -0.0083
vn 0.0064 -0.9999 -0.0123
vn 0.0278 -0.9992 -0.0300
vt 1.000000 0.341947
vt 0.000000 0.341947
vt 0.000000 0.167857
vt 1.000000 0.167857
vt 0.000000 0.000000
vt 1.000000 0.000000
vt 1.000000 1.000000
vt 1.000000 0.791979
vt 1.000000 0.583958
vt 1.000000 0.583959
vt 0.000000 0.791979
vt 0.000000 0.583958
vt 0.000000 1.000000
s 1
f 25/19/17 24/20/16 23/21/15 26/22/18
f 19/23/11 20/24/12 26/22/18 23/21/15
f 28/25/20 40/26/32 58/26/37 45/25/37
f 36/27/28 25/19/17 29/19/21 37/28/29
f 26/22/18 20/24/12 27/24/19 30/22/22
f 25/19/17 26/22/18 30/22/22 29/19/21
f 57/28/49 48/19/40 33/19/25 38/27/30
f 49/22/41 54/24/46 31/24/23 34/22/26
f 48/19/40 49/22/41 34/22/26 33/19/25
f 36/27/28 39/26/31 42/29/34 35/30/27
f 60/26/51 41/26/33 32/25/24 43/25/35
f 24/20/16 25/19/17 36/27/28 35/30/27
f 39/26/31 36/27/28 37/28/29 40/26/32
f 60/26/51 57/28/49 38/27/30 41/26/33
f 42/29/34 39/26/31 22/25/14 21/31/13
f 58/26/37 55/28/47 56/28/48 59/26/50
f 59/26/50 56/28/48 57/28/49 60/26/51
f 45/25/37 58/26/37 59/26/50 44/25/36
f 44/25/36 59/26/50 60/26/51 43/25/35
f 37/28/29 55/28/47 58/26/37 40/26/32
f 29/19/21 30/22/22 51/22/43 46/19/38
f 46/19/38 51/22/43 50/22/42 47/19/39
f 47/19/39 50/22/42 49/22/41 48/19/40
f 30/22/22 27/24/19 52/24/44 51/22/43
f 51/22/43 52/24/44 53/24/45 50/22/42
f 50/22/42 53/24/45 54/24/46 49/22/41
f 37/28/29 29/19/21 46/19/38 55/28/47
f 55/28/47 46/19/38 47/19/39 56/28/48
f 56/28/48 47/19/39 48/19/40 57/28/49
f 22/25/14 39/26/31 40/26/32 28/25/20
