# Blender 4.5.1 LTS
# www.blender.org
mtllib Folder_2.mtl
o Plane.007
v -1.166548 0.001905 0.608883
v -0.242848 0.005996 0.609025
v -1.064817 0.038719 -0.571614
v -0.231276 0.026195 -0.583621
v -1.321563 0.001905 0.407367
v -1.321567 0.001905 0.198907
v -0.232397 0.004451 0.199419
v -0.238855 0.005367 0.409434
v -0.142506 0.006397 0.609035
v -0.154079 0.029793 -0.583426
v -0.152960 0.007948 0.199428
v -0.146500 0.007029 0.409452
v 0.674308 0.008002 0.610525
v 0.897039 0.001575 -0.568903
v 0.671206 0.008002 0.201186
v 0.672690 0.008002 0.410946
v -1.073963 0.000014 -0.091288
v -0.231178 0.002505 -0.091152
v -0.154183 0.006104 -0.090978
v 0.919679 0.005966 -0.091453
v -0.220560 0.014356 -0.337511
v -0.164843 0.017954 -0.337328
v 0.911806 0.000468 -0.330722
v -1.072143 0.020336 -0.333064
v 0.640459 0.017061 -0.575639
v 0.382787 0.030040 -0.588563
v 0.114155 0.029428 -0.575840
v 0.051531 0.007743 0.205647
v 0.256814 0.007906 0.207485
v 0.463510 0.008002 0.205020
v 0.466034 0.007901 0.416861
v 0.259780 0.006923 0.420790
v 0.057513 0.006348 0.418536
v 0.061517 0.005537 0.615491
v 0.262941 0.006378 0.617210
v 0.468557 0.007729 0.614574
v 0.114354 0.006104 -0.090991
v 0.382787 0.006104 -0.090982
v 0.651221 0.006104 -0.090990
v 0.110211 0.017812 -0.334367
v 0.382787 0.018072 -0.339777
v 0.648309 0.011341 -0.335187
v -0.022956 0.061590 -0.469803
v -0.943228 0.058032 -0.494708
v -0.059238 0.052640 0.707089
v -0.978706 0.036962 0.679303
v -0.026842 0.058032 -0.364938
v -0.943997 0.058032 -0.469260
v -0.119884 0.058032 -0.469827
v -0.155362 0.036962 0.704184
v -0.121751 0.058032 -0.408042
v -1.067641 0.010261 0.624357
v -0.147546 0.033623 0.655099
v -1.014419 0.040565 -0.547907
v -0.104622 0.058876 -0.518664
v -1.028143 0.033459 -0.438023
v -0.226468 0.037452 -0.408952
v -0.222289 0.044698 -0.522967
v -0.265319 0.011727 0.651164
v -0.108790 0.045338 -0.404685
v -0.223866 0.041963 -0.479938
v -0.106195 0.053767 -0.475649
v -1.025498 0.033561 -0.509161
v 1.004175 0.041482 -0.461377
v 0.102383 0.029382 -0.546517
v 0.876943 0.041177 0.727348
v -0.021723 0.057513 0.621455
v 1.006340 0.036257 -0.347860
v 0.099693 0.035454 -0.521200
v 0.921492 0.036257 -0.459481
v 0.797386 0.036257 0.708491
v 0.914960 0.036257 -0.398014
v 0.146624 0.029753 -0.541817
v 0.022518 0.048265 0.626156
v 0.143727 0.035497 -0.514547
v -0.017148 0.048677 0.578406
v 0.897284 0.036257 0.678472
v 0.801815 0.036257 0.666804
v 0.027085 0.043939 0.583180
vn -0.0038 1.0000 -0.0002
vn -0.0072 1.0000 -0.0001
vn 0.0116 0.9980 0.0622
vn -0.0205 0.9983 0.0553
vn -0.0031 1.0000 -0.0015
vn -0.0027 1.0000 -0.0042
vn -0.0203 0.9998 -0.0041
vn -0.0117 0.9999 -0.0006
vn -0.0034 1.0000 0.0018
vn -0.0266 0.9985 0.0480
vn -0.0183 0.9998 -0.0018
vn -0.0087 1.0000 0.0023
vn -0.0009 1.0000 0.0004
vn 0.0504 0.9987 0.0119
vn -0.0000 1.0000 -0.0038
vn -0.0006 1.0000 0.0003
vn -0.0006 0.9998 0.0222
vn -0.0246 0.9994 0.0250
vn -0.0244 0.9995 0.0209
vn 0.0133 0.9999 -0.0030
vn -0.0245 0.9981 0.0558
vn -0.0278 0.9985 0.0480
vn 0.0349 0.9994 0.0052
vn 0.0068 0.9979 0.0640
vn 0.0431 0.9988 0.0242
vn 0.0182 0.9990 0.0418
vn -0.0000 0.9988 0.0480
vn 0.0001 1.0000 -0.0001
vn -0.0013 1.0000 -0.0009
vn -0.0007 1.0000 -0.0025
vn -0.0023 1.0000 0.0013
vn -0.0034 1.0000 0.0034
vn 0.0001 1.0000 0.0045
vn -0.0000 1.0000 0.0035
vn -0.0046 1.0000 0.0027
vn -0.0033 1.0000 0.0012
vn -0.0000 0.9998 0.0211
vn 0.0029 0.9998 0.0176
vn 0.0083 1.0000 0.0052
vn 0.0123 0.9991 0.0416
vn 0.0300 0.9993 0.0203
vn -0.0232 0.9995 0.0205
vn -0.0000 1.0000 -0.0000
vn -0.0841 0.9964 0.0095
vn -0.0010 0.9998 0.0186
vn -0.0612 0.9980 0.0137
vn -0.0005 1.0000 0.0090
vn -0.0117 0.9999 0.0104
vn -0.0425 0.9990 0.0141
vn -0.0232 0.9996 0.0130
vn -0.0042 0.9997 0.0229
vn -0.1259 0.9920 0.0129
vn -0.0118 0.9931 0.1165
vn -0.1124 0.9899 0.0861
vn -0.0065 0.9996 0.0275
vn -0.0564 0.9977 0.0388
vn -0.0624 0.9929 0.1014
vn -0.0650 0.9977 0.0179
vn -0.1061 0.9931 0.0503
vn -0.0549 0.9952 0.0806
vn -0.0994 0.9913 0.0867
vn -0.0102 0.9974 0.0708
vn -0.0380 0.9989 0.0289
vn 0.0233 0.9759 -0.2168
vn -0.0178 0.9981 -0.0591
vn 0.1685 0.9769 -0.1316
vn -0.0132 0.9999 0.0101
vn 0.0383 0.9927 -0.1141
vn -0.0180 0.9997 -0.0159
vn -0.0006 0.9985 -0.0543
vn -0.0098 0.9999 -0.0074
vn 0.0135 0.9899 -0.1410
vn 0.0941 0.9914 -0.0910
vn 0.0217 0.9972 -0.0714
vn 0.1118 0.9914 -0.0685
vn -0.0081 0.9996 -0.0269
vn 0.0013 0.9996 -0.0278
vn 0.0613 0.9970 -0.0471
vt 0.136131 0.377218
vt 0.134196 0.734123
vt 0.065889 0.733717
vt 0.067304 0.378926
vt 0.000157 0.682533
vt 0.001896 0.379852
vt 0.393044 0.352964
vt 0.312284 0.356050
vt 0.311807 0.265909
vt 0.391036 0.265059
vt 0.231354 0.377403
vt 0.136278 0.351166
vt 0.231464 0.352142
vt 0.002082 0.346974
vt 0.067472 0.348658
vt 0.232926 0.088138
vt 0.135582 0.149144
vt 0.137203 0.081095
vt 0.233503 0.000157
vt 0.066172 0.147936
vt 0.001396 0.146751
vt 0.003095 0.079347
vt 0.068480 0.080237
vt 0.312191 0.374349
vt 0.309300 0.653406
vt 0.229768 0.653556
vt 0.312979 0.089526
vt 0.311905 0.003101
vt 0.389917 0.008291
vt 0.391782 0.092514
vt 0.392916 0.378289
vt 0.387717 0.651452
vt 0.231961 0.264109
vt 0.232448 0.176125
vt 0.314087 0.176587
vt 0.395712 0.177064
vt 0.064875 0.281792
vt 0.134626 0.284147
vt 0.064509 0.215511
vt 0.134402 0.216872
vt 0.000348 0.280115
vt 0.000157 0.214115
vt 0.967951 0.364881
vt 0.698000 0.376768
vt 0.697999 0.000167
vt 0.967913 0.000157
vt 0.967946 0.385138
vt 0.697999 0.385112
vt 0.999716 0.386101
vt 0.999465 0.351695
vt 0.999843 0.000217
vt 0.658916 0.764579
vt 0.658919 0.778718
vt 0.399205 0.777384
vt 0.396027 0.764364
vt 0.659106 0.393546
vt 0.658904 0.741254
vt 0.396025 0.741031
vt 0.396025 0.392546
vt 0.698388 0.393869
vt 0.697573 0.741398
vt 0.697698 0.764829
vt 0.697783 0.779034
vt 0.410981 0.018182
vt 0.396334 0.018146
vt 0.396027 0.003674
vt 0.410911 0.003965
vt 0.410603 0.388878
vt 0.396025 0.388896
vt 0.396031 0.380320
vt 0.410609 0.379694
vt 0.693089 0.392233
vt 0.666156 0.388730
vt 0.666168 0.368465
vt 0.697686 0.355269
vt 0.697686 0.016862
vt 0.666166 0.017343
vt 0.666141 0.003608
vt 0.692757 0.000157
s 1
f 7/1/7 6/2/6 5/3/5 8/4/8
f 1/5/1 2/6/2 8/4/8 5/3/5
f 10/7/10 22/8/22 40/9/27 27/10/27
f 18/11/18 7/1/7 11/12/11 19/13/19
f 8/4/8 2/6/2 9/14/9 12/15/12
f 7/1/7 8/4/8 12/15/12 11/12/11
f 39/16/39 30/17/30 15/18/15 20/19/20
f 31/20/31 36/21/36 13/22/13 16/23/16
f 30/17/30 31/20/31 16/23/16 15/18/15
f 18/11/18 21/24/21 24/25/24 17/26/17
f 42/27/41 23/28/23 14/29/14 25/30/25
f 6/2/6 7/1/7 18/11/18 17/26/17
f 21/24/21 18/11/18 19/13/19 22/8/22
f 42/27/41 39/16/39 20/19/20 23/28/23
f 24/25/24 21/24/21 4/31/4 3/32/3
f 40/9/27 37/33/37 38/34/38 41/35/40
f 41/35/40 38/34/38 39/16/39 42/27/41
f 27/10/27 40/9/27 41/35/40 26/36/26
f 26/36/26 41/35/40 42/27/41 25/30/25
f 19/13/19 37/33/37 40/9/27 22/8/22
f 11/12/11 12/15/12 33/37/33 28/38/28
f 28/38/28 33/37/33 32/39/32 29/40/29
f 29/40/29 32/39/32 31/20/31 30/17/30
f 12/15/12 9/14/9 34/41/34 33/37/33
f 33/37/33 34/41/34 35/42/35 32/39/32
f 32/39/32 35/42/35 36/21/36 31/20/31
f 19/13/19 11/12/11 28/38/28 37/33/37
f 37/33/37 28/38/28 29/40/29 38/34/38
f 38/34/38 29/40/29 30/17/30 39/16/39
f 4/31/4 21/24/21 22/8/22 10/7/10
f 51/43/50 48/44/47 46/45/45 50/46/49
f 49/47/48 44/48/43 48/44/47 51/43/50
f 43/49/42 49/47/48 51/43/50 47/50/46
f 47/50/46 51/43/50 50/46/49 45/51/44
f 61/52/60 58/53/57 54/54/53 63/55/62
f 59/56/58 57/57/56 56/58/55 52/59/51
f 53/60/52 60/61/59 57/57/56 59/56/58
f 60/61/59 62/62/61 61/52/60 57/57/56
f 62/62/61 55/63/54 58/53/57 61/52/60
f 57/57/56 61/52/60 63/55/62 56/58/55
f 79/64/78 76/65/75 67/66/66 74/67/73
f 73/68/72 65/69/64 69/70/68 75/71/74
f 64/72/63 70/73/69 72/74/71 68/75/67
f 77/76/76 78/77/77 71/78/70 66/79/65
f 70/73/69 73/68/72 75/71/74 72/74/71
f 78/77/77 79/64/78 74/67/73 71/78/70
f 72/74/71 75/71/74 79/64/78 78/77/77
f 68/75/67 72/74/71 78/77/77 77/76/76
f 75/71/74 69/70/68 76/65/75 79/64/78
