# This file uses centimeters as units for non-parametric coordinates.

v -0.325387 0.000000 0.308961
v -0.302171 0.016947 0.110962
v -0.325387 0.016947 0.097275
v -0.325387 0.019126 0.311824
v -0.325387 0.036073 0.100138
v -0.000000 0.000000 0.308961
v -0.000000 0.019126 0.311824
v -0.000000 0.036073 0.100138
v -0.000000 0.016947 0.097275
v -0.000000 0.016947 0.110962
v -0.302171 0.015253 0.129393
v -0.000000 0.015253 0.129393
v -0.302171 0.000000 0.110962
v -0.000000 0.000000 0.110962
v -0.000000 0.000000 0.117751
v -0.302171 0.000000 0.117751
v -0.309118 0.034794 0.116118
v -0.000000 0.034794 0.116118
v -0.309118 0.020526 0.294336
v -0.000000 0.020526 0.294336
v -0.304573 0.043871 0.121436
v -0.000000 0.043871 0.121436
v -0.304573 0.029603 0.290977
v -0.000000 0.029603 0.290977
v 0.325387 0.000000 0.308961
v 0.302171 0.016947 0.110962
v 0.325387 0.016947 0.097275
v 0.325387 0.019126 0.311824
v 0.325387 0.036073 0.100138
v 0.302171 0.015253 0.129393
v 0.302171 0.000000 0.110962
v 0.302171 0.000000 0.117751
v 0.309118 0.034794 0.116118
v 0.309118 0.020526 0.294336
v 0.304573 0.043871 0.121436
v 0.304573 0.029603 0.290977
vt 0.114849 0.686206
vt 0.018804 0.686180
vt 0.010059 0.686179
vt 0.114253 0.677481
vt 0.108662 0.696707
vt 0.216730 0.701549
vt 0.818118 0.602453
vt 0.968390 0.607342
vt 0.225066 0.708446
vt 0.221995 0.708446
vt 0.225079 0.845096
vt 0.108672 0.833343
vt 0.222008 0.845097
vt 0.213331 0.845097
vt 0.018792 0.833348
vt 0.010047 0.833348
vt 0.123607 0.833342
vt 0.973293 0.350503
vt 0.114861 0.833342
vt 0.964718 0.350502
vt 0.964692 0.598764
vt 0.826008 0.598749
vt 0.826034 0.350487
vt 0.002113 0.833349
vt 0.114866 0.980479
vt 0.123611 0.980479
vt 0.010076 0.980518
vt 0.018822 0.980516
vt 0.232756 0.981746
vt 0.100311 0.969981
vt 0.973320 0.098536
vt 0.822712 0.094178
vt 0.222022 0.981747
vt 0.225092 0.981747
vt 0.826061 0.102225
vt 0.964744 0.102240
vt 0.026167 0.996597
vt 0.818145 0.350486
vt 0.130861 0.973122
vt 0.130856 0.833341
vt 0.002124 0.693537
vt 0.107007 0.670121
vt 0.818172 0.098520
vt 0.968445 0.093663
vt 0.822657 0.606795
vt 0.973266 0.602469
vt 0.002141 0.973161
vt 0.107026 0.996564
vt 0.100301 0.833342
vt 0.216758 0.988645
vt 0.213344 0.981748
vt 0.225093 0.989411
vt 0.108678 0.969978
vt 0.232743 0.845096
vt 0.114271 0.989204
vt 0.018228 0.989242
vt 0.026147 0.670098
vt 0.130845 0.693561
vt 0.123594 0.686205
vt 0.018209 0.677454
vt 0.225065 0.700781
vt 0.232730 0.708445
vt 0.100294 0.696705
vt 0.213318 0.708447
vn -1.000000 -0.000000 0.000000
vn -1.000000 -0.000000 0.000000
vn -1.000000 -0.000000 0.000000
vn -1.000000 -0.000000 0.000000
vn 0.038918 -0.995979 -0.080686
vn 0.038918 -0.995979 -0.080686
vn 0.038918 -0.995979 -0.080686
vn 0.038918 -0.995979 -0.080686
vn 0.000001 0.996811 0.079804
vn 0.000001 0.996811 0.079804
vn 0.000001 0.996811 0.079804
vn 0.000001 0.996811 0.079804
vn -1.000000 0.000001 0.000000
vn -1.000000 0.000001 0.000000
vn -1.000000 0.000001 0.000000
vn -1.000000 0.000001 0.000000
vn 0.000000 0.000000 -1.000000
vn 0.000000 0.000000 -1.000000
vn 0.000000 0.000000 -1.000000
vn 0.000000 0.000000 -1.000000
vn 0.000000 -1.000000 0.000000
vn 0.000000 -1.000000 0.000000
vn 0.000000 -1.000000 0.000000
vn 0.000000 -1.000000 0.000000
vn 0.000000 -0.606720 0.794915
vn 0.000000 -0.606720 0.794915
vn 0.000000 -0.606720 0.794915
vn 0.000000 -0.606720 0.794915
vn 0.000000 -0.996412 -0.084636
vn 0.000000 -0.996412 -0.084636
vn 0.000000 -0.996412 -0.084636
vn 0.000000 -0.996412 -0.084636
vn 0.000000 -0.148042 0.988981
vn 0.000000 -0.148042 0.988981
vn 0.000000 -0.148042 0.988981
vn 0.000000 -0.148042 0.988981
vn 0.000000 0.996810 0.079805
vn 0.000000 0.996810 0.079805
vn 0.000000 0.996810 0.079805
vn 0.000000 0.996810 0.079805
vn 0.000000 0.148042 -0.988981
vn 0.000000 0.148042 -0.988981
vn 0.000000 0.148042 -0.988981
vn 0.000000 0.148042 -0.988981
vn 0.000000 -1.000000 0.000000
vn 0.000000 -1.000000 0.000000
vn 0.000000 -1.000000 0.000000
vn 0.000000 -1.000000 0.000000
vn 0.000000 0.996477 0.083861
vn 0.000000 0.996477 0.083861
vn 0.000000 0.996477 0.083861
vn 0.000000 0.996477 0.083861
vn 0.000000 0.996811 0.079804
vn 0.000000 0.996811 0.079804
vn 0.000000 0.996811 0.079804
vn 0.000000 0.996811 0.079804
vn 0.000000 0.505487 -0.862834
vn 0.000000 0.505487 -0.862834
vn 0.000000 0.505487 -0.862834
vn 0.000000 0.505487 -0.862834
vn -0.895167 0.444238 0.036453
vn -0.895167 0.444238 0.036453
vn -0.895167 0.444238 0.036453
vn -0.895167 0.444238 0.036453
vn 0.000000 0.347112 0.937824
vn 0.000000 0.347112 0.937824
vn 0.000000 0.347112 0.937824
vn 0.000000 0.347112 0.937824
vn 1.000000 0.000000 0.000000
vn 1.000000 0.000000 0.000000
vn 1.000000 0.000000 0.000000
vn 1.000000 0.000000 0.000000
vn -0.038918 -0.995979 -0.080686
vn -0.038918 -0.995979 -0.080686
vn -0.038918 -0.995979 -0.080686
vn -0.038918 -0.995979 -0.080686
vn -0.000001 0.996811 0.079804
vn -0.000001 0.996811 0.079804
vn -0.000001 0.996811 0.079804
vn -0.000001 0.996811 0.079804
vn 1.000000 0.000002 0.000000
vn 1.000000 0.000002 0.000000
vn 1.000000 0.000002 0.000000
vn 1.000000 0.000002 0.000000
vn 0.000000 0.000000 -1.000000
vn 0.000000 0.000000 -1.000000
vn 0.000000 0.000000 -1.000000
vn 0.000000 0.000000 -1.000000
vn 0.000000 -1.000000 0.000000
vn 0.000000 -1.000000 0.000000
vn 0.000000 -1.000000 0.000000
vn 0.000000 -1.000000 0.000000
vn 0.000000 -0.606720 0.794915
vn 0.000000 -0.606720 0.794915
vn 0.000000 -0.606720 0.794915
vn 0.000000 -0.606720 0.794915
vn 0.000000 -0.996412 -0.084636
vn 0.000000 -0.996412 -0.084636
vn 0.000000 -0.996412 -0.084636
vn 0.000000 -0.996412 -0.084636
vn 0.000000 -0.148042 0.988981
vn 0.000000 -0.148042 0.988981
vn 0.000000 -0.148042 0.988981
vn 0.000000 -0.148042 0.988981
vn 0.000000 0.996810 0.079805
vn 0.000000 0.996810 0.079805
vn 0.000000 0.996810 0.079805
vn 0.000000 0.996810 0.079805
vn 0.000000 0.148042 -0.988981
vn 0.000000 0.148042 -0.988981
vn 0.000000 0.148042 -0.988981
vn 0.000000 0.148042 -0.988981
vn 0.000000 -1.000000 0.000000
vn 0.000000 -1.000000 0.000000
vn 0.000000 -1.000000 0.000000
vn 0.000000 -1.000000 0.000000
vn 0.000000 0.996477 0.083861
vn 0.000000 0.996477 0.083861
vn 0.000000 0.996477 0.083861
vn 0.000000 0.996477 0.083861
vn 0.000000 0.996811 0.079804
vn 0.000000 0.996811 0.079804
vn 0.000000 0.996811 0.079804
vn 0.000000 0.996811 0.079804
vn 0.000000 0.505487 -0.862834
vn 0.000000 0.505487 -0.862834
vn 0.000000 0.505487 -0.862834
vn 0.000000 0.505487 -0.862834
vn 0.895166 0.444239 0.036453
vn 0.895166 0.444239 0.036453
vn 0.895166 0.444239 0.036453
vn 0.895166 0.444239 0.036453
vn 0.000000 0.347112 0.937824
vn 0.000000 0.347112 0.937824
vn 0.000000 0.347112 0.937824
vn 0.000000 0.347112 0.937824
f 3/1/1 1/2/2 4/60/3 5/4/4
f 2/5/5 11/63/6 1/2/7 3/1/8
f 4/60/9 19/57/10 17/42/11 5/4/12
f 11/6/13 2/61/14 13/9/15 16/10/16
f 14/11/17 13/9/18 2/62/19 10/54/20
f 16/10/21 13/9/22 14/11/23 15/13/24
f 11/64/25 16/10/26 15/13/27 12/14/28
f 1/2/29 11/63/30 12/49/31 6/15/32
f 7/16/33 4/3/34 1/2/35 6/15/36
f 8/17/37 5/59/38 17/58/39 18/40/40
f 9/19/41 3/1/42 5/59/43 8/17/44
f 10/12/45 2/5/46 3/1/47 9/19/48
f 22/20/49 21/21/50 23/22/51 24/23/52
f 19/41/53 4/3/54 7/16/55 20/24/56
f 18/18/57 17/46/58 21/21/59 22/20/60
f 17/8/61 19/45/62 23/22/63 21/21/64
f 19/7/65 20/38/66 24/23/67 23/22/68
f 27/25/69 29/55/70 28/56/71 25/28/72
f 26/53/73 27/25/74 25/28/75 30/30/76
f 28/56/77 29/55/78 33/48/79 34/37/80
f 30/50/81 32/33/82 31/34/83 26/52/84
f 14/11/85 10/54/86 26/29/87 31/34/88
f 32/33/89 15/13/90 14/11/91 31/34/92
f 30/51/93 12/14/94 15/13/95 32/33/96
f 25/28/97 6/15/98 12/49/99 30/30/100
f 7/16/101 6/15/102 25/28/103 28/27/104
f 8/17/105 18/40/106 33/39/107 29/26/108
f 9/19/109 8/17/110 29/26/111 27/25/112
f 10/12/113 9/19/114 27/25/115 26/53/116
f 22/20/117 24/23/118 36/35/119 35/36/120
f 34/47/121 20/24/122 7/16/123 28/27/124
f 18/18/125 22/20/126 35/36/127 33/31/128
f 33/44/129 35/36/130 36/35/131 34/32/132
f 34/43/133 36/35/134 24/23/135 20/38/136
