# Blender 4.5.1 LTS
# www.blender.org
mtllib Mug_1.mtl
o Cylinder
v -0.073394 0.011252 -0.000051
v -0.078658 0.144070 -0.000051
v -0.051897 0.011252 -0.051949
v -0.055619 0.144070 -0.055671
v 0.000000 0.011252 -0.073446
v 0.000000 0.144070 -0.078709
v 0.051898 0.011252 -0.051949
v 0.055620 0.144070 -0.055671
v 0.073394 0.011252 -0.000051
v 0.078658 0.144070 -0.000051
v 0.051898 0.011252 0.051846
v 0.055620 0.144070 0.055568
v 0.000000 0.011252 0.073343
v 0.000000 0.144070 0.078606
v -0.051897 0.011252 0.051846
v -0.055619 0.144070 0.055568
v -0.070816 0.005193 -0.000051
v -0.050075 0.005193 -0.050126
v 0.000000 0.005193 -0.070868
v 0.050075 0.005193 -0.050126
v 0.070816 0.005193 -0.000051
v 0.050075 0.005193 0.050023
v 0.000000 0.005193 0.070765
v -0.050075 0.005193 0.050023
v -0.059521 0.000001 -0.000051
v -0.042088 0.000001 -0.042139
v 0.000000 0.000001 -0.059573
v 0.042088 0.000001 -0.042139
v 0.059521 0.000001 -0.000051
v 0.042088 0.000001 0.042037
v 0.000000 0.000001 0.059470
v -0.042088 0.000001 0.042037
v -0.055619 0.180707 -0.055671
v -0.078658 0.180707 -0.000051
v 0.000000 0.180707 -0.078709
v 0.055620 0.180707 -0.055671
v 0.078658 0.180707 -0.000051
v 0.055620 0.180707 0.055568
v 0.000000 0.180707 0.078606
v -0.055619 0.180707 0.055568
v -0.046062 0.180707 -0.046113
v -0.065141 0.180707 -0.000051
v 0.000000 0.180707 -0.065192
v 0.046062 0.180707 -0.046113
v 0.065141 0.180707 -0.000051
v 0.046062 0.180707 0.046010
v 0.000000 0.180707 0.065090
v -0.046062 0.180707 0.046010
v -0.046062 0.011605 -0.046113
v -0.065141 0.011605 -0.000051
v 0.000000 0.011605 -0.065192
v 0.046062 0.011605 -0.046113
v 0.065141 0.011605 -0.000051
v 0.046062 0.011605 0.046010
v 0.000000 0.011605 0.065090
v -0.046062 0.011605 0.046010
v -0.051944 0.012915 0.051893
v 0.000000 0.012915 0.073409
v 0.051944 0.012915 0.051893
v 0.073460 0.012915 -0.000051
v 0.051944 0.012915 -0.051996
v 0.000000 0.012915 -0.073512
v -0.051944 0.012915 -0.051996
v -0.073460 0.012915 -0.000051
v -0.070359 0.182211 -0.000051
v -0.076658 0.182211 -0.000051
v -0.054205 0.182211 -0.054257
v -0.049752 0.182211 -0.049803
v -0.049752 0.182211 0.049700
v -0.054205 0.182211 0.054154
v 0.049752 0.182211 0.049700
v 0.054206 0.182211 0.054154
v 0.000000 0.182211 0.076607
v 0.000000 0.182211 0.070308
v 0.049752 0.182211 -0.049803
v 0.054206 0.182211 -0.054257
v 0.076658 0.182211 -0.000051
v 0.070360 0.182211 -0.000051
v 0.000000 0.182211 -0.076710
v 0.000000 0.182211 -0.070411
v -0.055619 0.178620 0.055568
v -0.078658 0.178620 -0.000051
v -0.055619 0.178620 -0.055671
v 0.000000 0.178620 -0.078709
v 0.055620 0.178620 -0.055671
v 0.055620 0.178620 0.055568
v 0.000000 0.178620 0.078606
v 0.078658 0.178620 -0.000051
v 0.068180 0.147604 -0.020045
v 0.068169 0.156043 -0.016495
v 0.068165 0.159538 -0.007927
v 0.068165 0.159538 0.008231
v 0.068169 0.156043 0.016799
v 0.068180 0.147604 0.020349
v 0.068187 0.139165 0.016799
v 0.068139 0.135669 0.008231
v 0.068138 0.135669 -0.007927
v 0.068187 0.139165 -0.016495
v 0.092572 0.144769 -0.017154
v 0.094895 0.151703 -0.013835
v 0.095757 0.154486 -0.006574
v 0.095766 0.154485 0.006867
v 0.094912 0.151701 0.014126
v 0.092596 0.144768 0.017445
v 0.090109 0.137578 0.014659
v 0.088929 0.134542 0.007233
v 0.088918 0.134541 -0.006939
v 0.090090 0.137579 -0.014367
v 0.110191 0.139149 -0.014242
v 0.114177 0.144039 -0.011329
v 0.115893 0.146009 -0.005291
v 0.115907 0.146007 0.005564
v 0.114205 0.144033 0.011606
v 0.110226 0.139144 0.014522
v 0.106327 0.133970 0.012090
v 0.104560 0.131632 0.005899
v 0.104545 0.131632 -0.005621
v 0.106298 0.133972 -0.011810
v 0.128003 0.118379 -0.013400
v 0.134463 0.120166 -0.010938
v 0.137149 0.120900 -0.005256
v 0.137170 0.120888 0.005435
v 0.134508 0.120140 0.011123
v 0.128057 0.118347 0.013598
v 0.121596 0.116561 0.011225
v 0.118911 0.115826 0.005463
v 0.118889 0.115839 -0.005245
v 0.121552 0.116587 -0.011012
v 0.129192 0.091164 -0.013314
v 0.135885 0.090088 -0.010977
v 0.138668 0.089632 -0.005312
v 0.138690 0.089610 0.005379
v 0.135932 0.090042 0.011054
v 0.129248 0.091108 0.013415
v 0.122555 0.092185 0.011078
v 0.119772 0.092641 0.005413
v 0.119750 0.092663 -0.005278
v 0.122508 0.092231 -0.010953
v 0.118447 0.063939 -0.013444
v 0.124507 0.060918 -0.011034
v 0.127190 0.059654 -0.005366
v 0.127210 0.059625 0.005325
v 0.124549 0.060859 0.011006
v 0.118496 0.063867 0.013446
v 0.112604 0.066887 0.011082
v 0.110079 0.068151 0.005369
v 0.110059 0.068180 -0.005323
v 0.112562 0.066947 -0.011049
v 0.097180 0.043976 -0.015824
v 0.101458 0.038608 -0.012231
v 0.103230 0.036496 -0.005680
v 0.103244 0.036461 0.005552
v 0.101487 0.038532 0.012110
v 0.097216 0.043877 0.015738
v 0.092925 0.049604 0.013213
v 0.091068 0.052273 0.006402
v 0.091052 0.052317 -0.006410
v 0.092896 0.049692 -0.013248
v 0.081233 0.037709 -0.018428
v 0.083638 0.030527 -0.014800
v 0.084633 0.027652 -0.007143
v 0.084642 0.027605 0.006977
v 0.083654 0.030427 0.014653
v 0.081253 0.037583 0.018332
v 0.078867 0.045148 0.015521
v 0.077882 0.048408 0.007610
v 0.077874 0.048461 -0.007623
v 0.078851 0.045255 -0.015560
v 0.064548 0.034682 -0.020577
v 0.064537 0.026093 -0.017001
v 0.067328 0.022510 -0.008306
v 0.067328 0.022452 0.008115
v 0.064537 0.025975 0.016837
v 0.064548 0.034539 0.020475
v 0.064559 0.043128 0.016898
v 0.067360 0.046711 0.008203
v 0.067360 0.046768 -0.008218
v 0.064559 0.043246 -0.016939
v 0.000000 0.017124 0.065090
v 0.000000 0.175189 0.065090
v -0.046062 0.175189 0.046010
v -0.046062 0.017124 0.046010
v 0.065141 0.017124 -0.000051
v 0.065141 0.175189 -0.000051
v 0.046062 0.175189 0.046010
v 0.046062 0.017124 0.046010
v 0.000000 0.017124 -0.065192
v 0.000000 0.175189 -0.065192
v 0.046062 0.175189 -0.046113
v 0.046062 0.017124 -0.046113
v -0.065141 0.017124 -0.000051
v -0.065141 0.175189 -0.000051
v -0.046062 0.175189 -0.046113
v -0.046062 0.017124 -0.046113
vn -0.9776 -0.2103 -0.0000
vn -0.9998 -0.0197 -0.0000
vn -0.6913 -0.2103 -0.6913
vn -0.7070 -0.0197 -0.7070
vn -0.0000 -0.2103 -0.9776
vn -0.0000 -0.0197 -0.9998
vn 0.6913 -0.2103 -0.6913
vn 0.7070 -0.0197 -0.7070
vn 0.9776 -0.2103 -0.0000
vn 0.9998 -0.0197 -0.0000
vn 0.6913 -0.2103 0.6913
vn 0.7070 -0.0197 0.7070
vn -0.0000 -0.2103 0.9776
vn -0.0000 -0.0197 0.9998
vn -0.6913 -0.2103 0.6913
vn -0.7070 -0.0197 0.7070
vn -0.7553 -0.6553 -0.0000
vn -0.5341 -0.6553 -0.5341
vn -0.0000 -0.6553 -0.7553
vn 0.5341 -0.6553 -0.5341
vn 0.7553 -0.6553 -0.0000
vn 0.5341 -0.6553 0.5341
vn -0.0000 -0.6553 0.7553
vn -0.5341 -0.6553 0.5341
vn -0.4177 -0.9086 -0.0000
vn -0.2954 -0.9086 -0.2954
vn -0.0000 -0.9086 -0.4177
vn 0.2954 -0.9086 -0.2954
vn 0.4177 -0.9086 -0.0000
vn 0.2954 -0.9086 0.2954
vn -0.0000 -0.9086 0.4177
vn -0.2954 -0.9086 0.2954
vn -0.6455 0.4081 -0.6455
vn -0.9129 0.4081 -0.0000
vn -0.0000 0.4081 -0.9129
vn 0.6455 0.4081 -0.6455
vn 0.9129 0.4081 -0.0000
vn 0.6455 0.4081 0.6455
vn -0.0000 0.4081 0.9129
vn -0.6455 0.4081 0.6455
vn 0.5163 0.6832 0.5163
vn 0.7302 0.6832 -0.0000
vn -0.0000 0.6832 0.7302
vn -0.5163 0.6832 0.5163
vn -0.7302 0.6832 -0.0000
vn -0.5163 0.6832 -0.5163
vn -0.0000 0.6832 -0.7302
vn 0.5163 0.6832 -0.5163
vn 0.5490 0.6303 0.5490
vn 0.7764 0.6303 -0.0000
vn -0.0000 0.6303 0.7764
vn -0.5490 0.6303 0.5490
vn -0.7764 0.6303 -0.0000
vn -0.5490 0.6303 -0.5490
vn -0.0000 0.6303 -0.7764
vn 0.5490 0.6303 -0.5490
vn -0.7066 -0.0396 0.7066
vn -0.0000 -0.0396 0.9992
vn 0.7066 -0.0396 0.7066
vn 0.9992 -0.0396 -0.0000
vn 0.7066 -0.0396 -0.7066
vn -0.0000 -0.0396 -0.9992
vn -0.7066 -0.0396 -0.7066
vn -0.9992 -0.0396 -0.0000
vn 0.1052 0.9944 -0.0000
vn -0.3842 0.9233 -0.0000
vn -0.2716 0.9233 -0.2716
vn 0.0744 0.9944 0.0744
vn 0.0744 0.9944 -0.0744
vn -0.2716 0.9233 0.2716
vn -0.0744 0.9944 -0.0744
vn 0.2716 0.9233 0.2716
vn -0.0000 0.9233 0.3841
vn -0.0000 0.9944 -0.1052
vn -0.0744 0.9944 0.0744
vn 0.2716 0.9233 -0.2716
vn 0.3842 0.9233 -0.0000
vn -0.1052 0.9944 -0.0000
vn -0.0000 0.9233 -0.3841
vn -0.0000 0.9944 0.1052
vn -0.7071 -0.0000 0.7071
vn -1.0000 -0.0000 -0.0000
vn -0.7071 -0.0000 -0.7071
vn -0.0000 -0.0000 -1.0000
vn 0.7071 -0.0000 -0.7071
vn 0.7071 -0.0000 0.7071
vn -0.0000 -0.0000 1.0000
vn 1.0000 -0.0000 -0.0000
vn 0.1205 0.0293 -0.9923
vn 0.1827 0.7062 -0.6841
vn 0.1858 0.9640 -0.1904
vn 0.1859 0.9639 0.1904
vn 0.1829 0.7061 0.6841
vn 0.1209 0.0293 0.9922
vn 0.0213 -0.6883 0.7251
vn -0.0429 -0.9788 0.2002
vn -0.0430 -0.9788 -0.2002
vn 0.0210 -0.6883 -0.7251
vn 0.1397 0.0068 -0.9902
vn 0.2634 0.6827 -0.6816
vn 0.2906 0.9379 -0.1895
vn 0.2907 0.9379 0.1893
vn 0.2637 0.6828 0.6814
vn 0.1401 0.0067 0.9901
vn -0.0143 -0.6974 0.7166
vn -0.1015 -0.9745 0.2002
vn -0.1016 -0.9745 -0.2001
vn -0.0147 -0.6973 -0.7166
vn 0.1273 0.0346 -0.9913
vn 0.4626 0.5815 -0.6692
vn 0.5867 0.7863 -0.1936
vn 0.5871 0.7862 0.1927
vn 0.4638 0.5810 0.6688
vn 0.1288 0.0338 0.9911
vn -0.2616 -0.5890 0.7646
vn -0.4613 -0.8595 0.2202
vn -0.4617 -0.8595 -0.2193
vn -0.2629 -0.5886 -0.7645
vn 0.0812 0.0311 -0.9962
vn 0.6630 0.2639 -0.7006
vn 0.9099 0.3548 -0.2151
vn 0.9107 0.3543 0.2125
vn 0.6653 0.2622 0.6990
vn 0.0841 0.0285 0.9960
vn -0.5625 -0.2468 0.7891
vn -0.8963 -0.3740 0.2382
vn -0.8973 -0.3736 -0.2353
vn -0.5651 -0.2450 -0.7878
vn 0.0439 -0.0058 -0.9990
vn 0.6778 -0.1085 -0.7272
vn 0.9619 -0.1539 -0.2261
vn 0.9627 -0.1548 0.2217
vn 0.6803 -0.1115 0.7244
vn 0.0469 -0.0099 0.9988
vn -0.6238 0.1034 0.7747
vn -0.9580 0.1633 0.2358
vn -0.9589 0.1643 -0.2311
vn -0.6265 0.1067 -0.7721
vn 0.0734 -0.0173 -0.9972
vn 0.5920 -0.3841 -0.7085
vn 0.8166 -0.5335 -0.2202
vn 0.8173 -0.5347 0.2146
vn 0.5939 -0.3879 0.7049
vn 0.0758 -0.0229 0.9969
vn -0.4986 0.3909 0.7737
vn -0.7824 0.5774 0.2335
vn -0.7831 0.5788 -0.2274
vn -0.5009 0.3955 -0.7699
vn 0.1403 -0.0190 -0.9899
vn 0.4575 -0.5849 -0.6698
vn 0.5669 -0.7999 -0.1969
vn 0.5672 -0.8012 0.1907
vn 0.4585 -0.5890 0.6654
vn 0.1419 -0.0253 0.9896
vn -0.2430 0.6106 0.7537
vn -0.4435 0.8690 0.2193
vn -0.4439 0.8705 -0.2124
vn -0.2446 0.6157 -0.7490
vn 0.1503 -0.0173 -0.9885
vn 0.3132 -0.6637 -0.6793
vn 0.3597 -0.9115 -0.1994
vn 0.3599 -0.9128 0.1929
vn 0.3138 -0.6681 0.6746
vn 0.1515 -0.0241 0.9882
vn -0.0664 0.6844 0.7261
vn -0.1952 0.9598 0.2019
vn -0.1955 0.9611 -0.1949
vn -0.0674 0.6895 -0.7211
vn 0.1352 -0.0475 -0.9897
vn 0.2421 -0.6586 -0.7125
vn 0.2814 -0.9322 -0.2277
vn 0.2815 -0.9337 0.2212
vn 0.2425 -0.6635 0.7078
vn 0.1359 -0.0545 0.9892
vn -0.0179 0.6422 0.7664
vn -0.1330 0.9678 0.2135
vn -0.1333 0.9693 -0.2066
vn -0.0186 0.6477 -0.7617
vt 0.079562 0.465330
vt 0.330063 0.467211
vt 0.325791 0.579421
vt 0.095029 0.564878
vt 0.314063 0.690215
vt 0.091336 0.658457
vt 0.294578 0.800063
vt 0.071416 0.749213
vt 0.268923 0.910293
vt 0.029720 0.840188
vt 0.030464 0.081544
vt 0.282787 0.012820
vt 0.305037 0.128637
vt 0.071941 0.174433
vt 0.320664 0.241942
vt 0.092021 0.268258
vt 0.395932 0.468224
vt 0.394615 0.351910
vt 0.398664 0.351746
vt 0.399965 0.468289
vt 0.328704 0.354823
vt 0.096138 0.364128
vt 0.068648 0.748281
vt 0.027030 0.838901
vt 0.016370 0.831732
vt 0.057916 0.744651
vt 0.077525 0.270162
vt 0.081461 0.363307
vt 0.059762 0.361565
vt 0.054217 0.273110
vt 0.089141 0.268617
vt 0.093211 0.363940
vt 0.092167 0.565054
vt 0.088536 0.658109
vt 0.077155 0.656692
vt 0.080790 0.565818
vt 0.027599 0.082880
vt 0.069099 0.175361
vt 0.058108 0.179032
vt 0.016905 0.089838
vt 0.076555 0.464787
vt 0.064079 0.460611
vt 0.076476 0.465860
vt 0.064436 0.469670
vt 0.037599 0.186142
vt 0.000187 0.106926
vt 0.038059 0.737417
vt 0.055734 0.653586
vt 0.058301 0.567263
vt 0.043863 0.481501
vt 0.043456 0.448218
vt 0.000187 0.814708
vt 0.390870 0.584137
vt 0.394880 0.584441
vt 0.358679 0.812624
vt 0.378415 0.699080
vt 0.382383 0.699639
vt 0.362603 0.813393
vt 0.386467 0.235038
vt 0.371070 0.118058
vt 0.375133 0.117437
vt 0.390528 0.234630
vt 0.334092 0.925277
vt 0.338000 0.926130
vt 0.350663 0.000894
vt 0.354728 0.000187
vt 0.865375 0.888032
vt 0.774245 0.888032
vt 0.709806 0.823593
vt 0.929814 0.823593
vt 0.882357 0.652659
vt 0.960061 0.601624
vt 0.968664 0.607884
vt 0.884802 0.663294
vt 0.981623 0.436722
vt 0.894265 0.378360
vt 0.896978 0.366542
vt 0.992101 0.429694
vt 0.791932 0.391766
vt 0.725149 0.467615
vt 0.714267 0.463529
vt 0.786313 0.381309
vt 0.788369 0.639713
vt 0.783097 0.649532
vt 0.984810 0.512417
vt 0.995525 0.511101
vt 0.724822 0.566568
vt 0.714167 0.570573
vt 0.734500 0.471213
vt 0.734033 0.563193
vt 0.780945 0.653558
vt 0.709806 0.572220
vt 0.792982 0.631287
vt 0.709806 0.461864
vt 0.880326 0.643475
vt 0.885811 0.667649
vt 0.796700 0.400819
vt 0.784004 0.377029
vt 0.972883 0.442759
vt 0.891845 0.388525
vt 0.898080 0.361701
vt 0.996011 0.426568
vt 0.952556 0.596143
vt 0.999813 0.510929
vt 0.972193 0.610444
vt 0.975510 0.513406
vt 0.929814 0.732462
vt 0.709806 0.732462
vt 0.774245 0.668024
vt 0.865375 0.668024
vt 0.849077 0.354872
vt 0.839728 0.308375
vt 0.854897 0.306571
vt 0.865838 0.348461
vt 0.831441 0.359602
vt 0.825057 0.308763
vt 0.812719 0.361326
vt 0.810903 0.308558
vt 0.778585 0.359818
vt 0.786794 0.306894
vt 0.759822 0.355854
vt 0.772692 0.305400
vt 0.742496 0.348873
vt 0.758139 0.303149
vt 0.726247 0.340138
vt 0.743265 0.299265
vt 0.709806 0.331074
vt 0.728191 0.292902
vt 0.882677 0.341916
vt 0.870385 0.302646
vt 0.896749 0.294075
vt 0.911912 0.331400
vt 0.833863 0.273139
vt 0.847568 0.272040
vt 0.821356 0.272605
vt 0.810068 0.271854
vt 0.791948 0.270619
vt 0.780751 0.270183
vt 0.768488 0.269350
vt 0.755421 0.266724
vt 0.741794 0.262619
vt 0.862095 0.269494
vt 0.885802 0.264905
vt 0.820618 0.220382
vt 0.832448 0.221860
vt 0.810862 0.219720
vt 0.795363 0.219135
vt 0.785737 0.219097
vt 0.774087 0.219716
vt 0.761256 0.220177
vt 0.748999 0.219541
vt 0.858303 0.223423
vt 0.880479 0.222197
vt 0.845585 0.223248
vt 0.834587 0.174395
vt 0.847208 0.175083
vt 0.822777 0.173827
vt 0.812735 0.173533
vt 0.796225 0.173310
vt 0.786258 0.173141
vt 0.774579 0.173173
vt 0.762158 0.173317
vt 0.750221 0.173239
vt 0.859170 0.175594
vt 0.880039 0.176084
vt 0.836596 0.122807
vt 0.849525 0.122403
vt 0.824341 0.123798
vt 0.813855 0.124313
vt 0.796787 0.124360
vt 0.786417 0.123689
vt 0.774403 0.122534
vt 0.761851 0.121952
vt 0.749795 0.122411
vt 0.861889 0.123143
vt 0.882601 0.125618
vt 0.840754 0.068999
vt 0.855077 0.070360
vt 0.826958 0.069364
vt 0.814765 0.069808
vt 0.795789 0.070156
vt 0.783685 0.069927
vt 0.770084 0.069861
vt 0.756165 0.071563
vt 0.741948 0.075328
vt 0.869749 0.073682
vt 0.893532 0.080354
vt 0.846875 0.037667
vt 0.861833 0.041646
vt 0.831908 0.035670
vt 0.817329 0.035117
vt 0.792277 0.035363
vt 0.777711 0.036461
vt 0.762843 0.039002
vt 0.748114 0.043639
vt 0.733197 0.050282
vt 0.877249 0.047403
vt 0.903672 0.057426
vt 0.855815 0.007192
vt 0.871073 0.015893
vt 0.839465 0.000187
vt 0.820404 0.001831
vt 0.787936 0.002417
vt 0.768820 0.001269
vt 0.752636 0.008802
vt 0.737482 0.018164
vt 0.724869 0.031825
vt 0.884000 0.028588
vt 0.911912 0.039716
vt 0.699344 0.455839
vt 0.699344 0.546969
vt 0.410426 0.546969
vt 0.410426 0.455839
vt 0.699344 0.638099
vt 0.699344 0.729230
vt 0.410426 0.729230
vt 0.410426 0.638099
vt 0.699344 0.091317
vt 0.699344 0.182448
vt 0.410426 0.182448
vt 0.410426 0.091317
vt 0.699344 0.273578
vt 0.699344 0.364708
vt 0.410426 0.364708
vt 0.410426 0.273578
vt 0.699344 0.000187
vt 0.410426 0.000187
vt 0.709431 0.091317
vt 0.709431 0.182448
vt 0.400339 0.273578
vt 0.400339 0.182448
vt 0.709431 0.273578
vt 0.400339 0.091317
vt 0.709431 0.364708
vt 0.400339 0.364708
vt 0.709431 0.638099
vt 0.709431 0.729230
vt 0.400339 0.000187
vt 0.709431 0.000187
vt 0.400339 0.729230
vt 0.400339 0.638099
vt 0.709431 0.455839
vt 0.709431 0.546969
vt 0.400339 0.546969
vt 0.400339 0.455839
s 1
f 64/1/64 2/2/2 4/3/4 63/4/63
f 63/4/63 4/3/4 6/5/6 62/6/62
f 62/6/62 6/5/6 8/7/8 61/8/61
f 61/8/61 8/7/8 10/9/10 60/10/60
f 60/11/60 10/12/10 12/13/12 59/14/59
f 59/14/59 12/13/12 14/15/14 58/16/58
f 82/17/82 81/18/81 40/19/40 34/20/34
f 58/16/58 14/15/14 16/21/16 57/22/57
f 57/22/57 16/21/16 2/2/2 64/1/64
f 7/23/7 9/24/9 21/25/21 20/26/20
f 23/27/23 24/28/24 32/29/32 31/30/31
f 13/31/13 15/32/15 24/28/24 23/27/23
f 3/33/3 5/34/5 19/35/19 18/36/18
f 9/37/9 11/38/11 22/39/22 21/40/21
f 15/32/15 1/41/1 17/42/17 24/28/24
f 1/43/1 3/33/3 18/36/18 17/44/17
f 5/34/5 7/23/7 20/26/20 19/35/19
f 11/38/11 13/31/13 23/27/23 22/39/22
f 21/40/21 22/39/22 30/45/30 29/46/29
f 19/35/19 20/26/20 28/47/28 27/48/27
f 17/44/17 18/36/18 26/49/26 25/50/25
f 24/28/24 17/42/17 25/51/25 32/29/32
f 22/39/22 23/27/23 31/30/31 30/45/30
f 20/26/20 21/25/21 29/52/29 28/47/28
f 18/36/18 19/35/19 27/48/27 26/49/26
f 7/23/7 61/8/61 60/10/60 9/24/9
f 83/53/83 82/17/82 34/20/34 33/54/33
f 85/55/85 84/56/84 35/57/35 36/58/36
f 87/59/87 86/60/86 38/61/38 39/62/39
f 88/63/88 85/55/85 36/58/36 37/64/37
f 81/18/81 87/59/87 39/62/39 40/19/40
f 84/56/84 83/53/83 33/54/33 35/57/35
f 86/60/86 88/65/88 37/66/37 38/61/38
f 5/34/5 62/6/62 61/8/61 7/23/7
f 11/38/11 59/14/59 58/16/58 13/31/13
f 15/32/15 57/22/57 64/1/64 1/41/1
f 4/3/4 2/2/2 82/17/82 83/53/83
f 10/9/10 8/7/8 85/55/85 88/63/88
f 16/21/16 14/15/14 87/59/87 81/18/81
f 6/5/6 4/3/4 83/53/83 84/56/84
f 49/67/49 50/68/50 56/69/56 51/70/51
f 8/7/8 6/5/6 84/56/84 85/55/85
f 12/13/12 10/12/10 88/65/88 86/60/86
f 1/43/1 64/1/64 63/4/63 3/33/3
f 3/33/3 63/4/63 62/6/62 5/34/5
f 9/37/9 60/11/60 59/14/59 11/38/11
f 13/31/13 58/16/58 57/22/57 15/32/15
f 2/2/2 16/21/16 81/18/81 82/17/82
f 14/15/14 12/13/12 86/60/86 87/59/87
f 80/71/80 75/72/75 76/73/76 79/74/79
f 78/75/78 71/76/71 72/77/72 77/78/77
f 74/79/74 69/80/69 70/81/70 73/82/73
f 68/83/68 80/71/80 79/74/79 67/84/67
f 75/72/75 78/85/78 77/86/77 76/73/76
f 71/76/71 74/79/74 73/82/73 72/77/72
f 69/80/69 65/87/65 66/88/66 70/81/70
f 65/87/65 68/83/68 67/84/67 66/88/66
f 65/87/65 69/80/69 48/89/48 42/90/42
f 33/91/33 34/92/34 66/88/66 67/84/67
f 68/83/68 65/87/65 42/90/42 41/93/41
f 34/92/34 40/94/40 70/81/70 66/88/66
f 80/71/80 68/83/68 41/93/41 43/95/43
f 35/96/35 33/91/33 67/84/67 79/74/79
f 69/80/69 74/79/74 47/97/47 48/89/48
f 40/94/40 39/98/39 73/82/73 70/81/70
f 71/76/71 78/75/78 45/99/45 46/100/46
f 39/98/39 38/101/38 72/77/72 73/82/73
f 74/79/74 71/76/71 46/100/46 47/97/47
f 38/101/38 37/102/37 77/78/77 72/77/72
f 75/72/75 80/71/80 43/95/43 44/103/44
f 37/104/37 36/105/36 76/73/76 77/86/77
f 78/85/78 75/72/75 44/103/44 45/106/45
f 36/105/36 35/96/35 79/74/79 76/73/76
f 52/107/52 55/108/55 54/109/54 53/110/53
f 51/70/51 56/69/56 55/108/55 52/107/52
f 89/111/89 99/112/99 108/113/108 98/114/98
f 90/115/90 100/116/100 99/112/99 89/111/89
f 91/117/91 101/118/101 100/116/100 90/115/90
f 92/119/92 102/120/102 101/118/101 91/117/91
f 93/121/93 103/122/103 102/120/102 92/119/92
f 94/123/94 104/124/104 103/122/103 93/121/93
f 95/125/95 105/126/105 104/124/104 94/123/94
f 96/127/96 106/128/106 105/126/105 95/125/95
f 97/129/97 107/130/107 106/131/106 96/132/96
f 98/114/98 108/113/108 107/130/107 97/129/97
f 99/112/99 109/133/109 118/134/118 108/113/108
f 100/116/100 110/135/110 109/133/109 99/112/99
f 101/118/101 111/136/111 110/135/110 100/116/100
f 102/120/102 112/137/112 111/136/111 101/118/101
f 103/122/103 113/138/113 112/137/112 102/120/102
f 104/124/104 114/139/114 113/138/113 103/122/103
f 105/126/105 115/140/115 114/139/114 104/124/104
f 106/128/106 116/141/116 115/140/115 105/126/105
f 107/130/107 117/142/117 116/143/116 106/131/106
f 108/113/108 118/134/118 117/142/117 107/130/107
f 110/135/110 120/144/120 119/145/119 109/133/109
f 111/136/111 121/146/121 120/144/120 110/135/110
f 112/137/112 122/147/122 121/146/121 111/136/111
f 113/138/113 123/148/123 122/147/122 112/137/112
f 114/139/114 124/149/124 123/148/123 113/138/113
f 115/140/115 125/150/125 124/149/124 114/139/114
f 116/141/116 126/151/126 125/150/125 115/140/115
f 117/142/117 127/152/127 126/153/126 116/143/116
f 118/134/118 128/154/128 127/152/127 117/142/117
f 119/145/119 129/155/129 138/156/138 128/154/128
f 120/144/120 130/157/130 129/155/129 119/145/119
f 121/146/121 131/158/131 130/157/130 120/144/120
f 122/147/122 132/159/132 131/158/131 121/146/121
f 123/148/123 133/160/133 132/159/132 122/147/122
f 124/149/124 134/161/134 133/160/133 123/148/123
f 125/150/125 135/162/135 134/161/134 124/149/124
f 126/151/126 136/163/136 135/162/135 125/150/125
f 127/152/127 137/164/137 136/165/136 126/153/126
f 128/154/128 138/156/138 137/164/137 127/152/127
f 129/155/129 139/166/139 148/167/148 138/156/138
f 130/157/130 140/168/140 139/166/139 129/155/129
f 131/158/131 141/169/141 140/168/140 130/157/130
f 132/159/132 142/170/142 141/169/141 131/158/131
f 133/160/133 143/171/143 142/170/142 132/159/132
f 134/161/134 144/172/144 143/171/143 133/160/133
f 135/162/135 145/173/145 144/172/144 134/161/134
f 136/163/136 146/174/146 145/173/145 135/162/135
f 137/164/137 147/175/147 146/176/146 136/165/136
f 138/156/138 148/167/148 147/175/147 137/164/137
f 139/166/139 149/177/149 158/178/158 148/167/148
f 140/168/140 150/179/150 149/177/149 139/166/139
f 141/169/141 151/180/151 150/179/150 140/168/140
f 142/170/142 152/181/152 151/180/151 141/169/141
f 143/171/143 153/182/153 152/181/152 142/170/142
f 144/172/144 154/183/154 153/182/153 143/171/143
f 145/173/145 155/184/155 154/183/154 144/172/144
f 146/174/146 156/185/156 155/184/155 145/173/145
f 147/175/147 157/186/157 156/187/156 146/176/146
f 148/167/148 158/178/158 157/186/157 147/175/147
f 149/177/149 159/188/159 168/189/168 158/178/158
f 150/179/150 160/190/160 159/188/159 149/177/149
f 151/180/151 161/191/161 160/190/160 150/179/150
f 152/181/152 162/192/162 161/191/161 151/180/151
f 153/182/153 163/193/163 162/192/162 152/181/152
f 154/183/154 164/194/164 163/193/163 153/182/153
f 155/184/155 165/195/165 164/194/164 154/183/154
f 156/185/156 166/196/166 165/195/165 155/184/155
f 157/186/157 167/197/167 166/198/166 156/187/156
f 158/178/158 168/189/168 167/197/167 157/186/157
f 159/188/159 169/199/169 178/200/178 168/189/168
f 160/190/160 170/201/170 169/199/169 159/188/159
f 161/191/161 171/202/171 170/201/170 160/190/160
f 162/192/162 172/203/172 171/202/171 161/191/161
f 163/193/163 173/204/173 172/203/172 162/192/162
f 164/194/164 174/205/174 173/204/173 163/193/163
f 165/195/165 175/206/175 174/205/174 164/194/164
f 166/196/166 176/207/176 175/206/175 165/195/165
f 167/197/167 177/208/177 176/209/176 166/198/166
f 168/189/168 178/200/178 177/208/177 167/197/167
f 109/133/109 119/145/119 128/154/128 118/134/118
f 194/210/86 187/211/87 188/212/87 193/213/86
f 190/214/81 183/215/82 184/216/82 189/217/81
f 186/218/83 179/219/84 180/220/84 185/221/83
f 182/222/85 191/223/88 192/224/88 181/225/85
f 191/223/88 194/210/86 193/213/86 192/224/88
f 187/211/87 190/214/81 189/217/81 188/212/87
f 183/226/82 186/218/83 185/221/83 184/227/82
f 179/219/84 182/222/85 181/225/85 180/220/84
f 179/219/84 186/218/83 54/228/54 55/229/55
f 48/230/48 47/231/47 180/220/84 181/225/85
f 182/222/85 179/219/84 55/229/55 56/232/56
f 47/231/47 46/233/46 185/221/83 180/220/84
f 191/223/88 182/222/85 56/232/56 50/234/50
f 42/235/42 48/230/48 181/225/85 192/224/88
f 183/215/82 190/214/81 52/236/52 53/237/53
f 46/233/46 45/238/45 184/227/82 185/221/83
f 186/218/83 183/226/82 53/239/53 54/228/54
f 45/240/45 44/241/44 189/217/81 184/216/82
f 187/211/87 194/210/86 49/242/49 51/243/51
f 44/241/44 43/244/43 188/212/87 189/217/81
f 190/214/81 187/211/87 51/243/51 52/236/52
f 43/244/43 41/245/41 193/213/86 188/212/87
f 41/245/41 42/235/42 192/224/88 193/213/86
f 194/210/86 191/223/88 50/234/50 49/242/49
