# Blender 4.5.1 LTS
# www.blender.org
mtllib Mug_2.mtl
o Cylinder.001
v 0.079638 0.012208 0.000000
v 0.085349 0.178205 0.000000
v 0.056313 0.012208 0.056312
v 0.060351 0.178205 0.060350
v 0.000001 0.012208 0.079637
v 0.000001 0.178205 0.085348
v -0.056310 0.012208 0.056312
v -0.060349 0.178205 0.060350
v -0.079635 0.012208 -0.000000
v -0.085346 0.178205 -0.000000
v -0.056310 0.012208 -0.056312
v -0.060349 0.178205 -0.060350
v 0.000001 0.012208 -0.079637
v 0.000001 0.178205 -0.085348
v 0.056313 0.012208 -0.056312
v 0.060351 0.178205 -0.060350
v 0.076841 0.005635 0.000000
v 0.054335 0.005635 0.054334
v 0.000001 0.005635 0.076839
v -0.054332 0.005635 0.054334
v -0.076838 0.005635 -0.000000
v -0.054332 0.005635 -0.054334
v 0.000001 0.005635 -0.076839
v 0.054335 0.005635 -0.054334
v 0.064585 0.000000 0.000000
v 0.045669 0.000000 0.045668
v 0.000001 0.000000 0.064584
v -0.045666 0.000000 0.045668
v -0.064582 0.000000 -0.000000
v -0.045666 0.000000 -0.045668
v 0.000001 0.000000 -0.064584
v 0.045669 0.000000 -0.045668
v 0.060351 0.211766 0.060350
v 0.085349 0.211766 0.000000
v 0.000001 0.211766 0.085348
v -0.060349 0.211766 0.060350
v -0.085346 0.211766 -0.000000
v -0.060349 0.211766 -0.060350
v 0.000001 0.211766 -0.085348
v 0.060351 0.211766 -0.060350
v 0.049981 0.211766 0.049979
v 0.070683 0.211766 0.000000
v 0.000001 0.211766 0.070682
v -0.049978 0.211766 0.049979
v -0.070680 0.211766 -0.000000
v -0.049978 0.211766 -0.049979
v 0.000001 0.211766 -0.070682
v 0.049981 0.211766 -0.049979
v 0.049981 0.012591 0.049979
v 0.070683 0.012591 0.000000
v 0.000001 0.012591 0.070682
v -0.049978 0.012591 0.049979
v -0.070680 0.012591 -0.000000
v -0.049978 0.012591 -0.049979
v 0.000001 0.012591 -0.070682
v 0.049981 0.012591 -0.049979
v 0.056364 0.014013 -0.056362
v 0.000001 0.014013 -0.079708
v -0.056361 0.014013 -0.056362
v -0.079707 0.014013 -0.000000
v -0.056361 0.014013 0.056362
v 0.000001 0.014013 0.079708
v 0.056364 0.014013 0.056362
v 0.079710 0.014013 0.000000
v 0.076345 0.213397 0.000000
v 0.083180 0.213397 0.000000
v 0.058817 0.213397 0.058816
v 0.053985 0.213397 0.053983
v 0.053985 0.213397 -0.053983
v 0.058817 0.213397 -0.058816
v -0.053982 0.213397 -0.053983
v -0.058814 0.213397 -0.058816
v 0.000001 0.213397 -0.083178
v 0.000001 0.213397 -0.076344
v -0.053982 0.213397 0.053983
v -0.058814 0.213397 0.058816
v -0.083177 0.213397 -0.000000
v -0.076342 0.213397 -0.000000
v 0.000001 0.213397 0.083178
v 0.000001 0.213397 0.076344
v 0.060351 0.209502 -0.060350
v 0.085349 0.209502 0.000000
v 0.060351 0.209502 0.060350
v 0.000001 0.209502 0.085348
v -0.060349 0.209502 0.060350
v -0.060349 0.209502 -0.060350
v 0.000001 0.209502 -0.085348
v -0.085346 0.209502 -0.000000
v 0.071114 0.178050 -0.021694
v 0.071102 0.188946 -0.017843
v 0.071097 0.193466 -0.008545
v 0.071097 0.193466 0.008986
v 0.071102 0.188947 0.018284
v 0.071114 0.178050 0.022135
v 0.071082 0.167122 0.018284
v 0.070958 0.162515 0.008986
v 0.070956 0.162514 -0.008545
v 0.071081 0.167121 -0.017843
v 0.106487 0.173961 -0.018557
v 0.109213 0.183024 -0.014956
v 0.110204 0.186641 -0.007078
v 0.110215 0.186639 0.007506
v 0.109234 0.183022 0.015384
v 0.106515 0.173960 0.018985
v 0.103546 0.164461 0.015962
v 0.102143 0.160407 0.007904
v 0.102130 0.160405 -0.007473
v 0.103523 0.164459 -0.015533
v 0.124980 0.166490 -0.014540
v 0.129524 0.172924 -0.011760
v 0.131477 0.175503 -0.005598
v 0.131494 0.175500 0.006002
v 0.129557 0.172918 0.012164
v 0.125020 0.166485 0.014945
v 0.120580 0.159619 0.012669
v 0.118581 0.156494 0.006364
v 0.118564 0.156494 -0.005954
v 0.120547 0.159620 -0.012262
v 0.143663 0.140177 -0.014338
v 0.150706 0.142820 -0.011797
v 0.153676 0.143897 -0.005647
v 0.153701 0.143882 0.005953
v 0.150757 0.142789 0.012109
v 0.143724 0.140140 0.014664
v 0.136736 0.137466 0.012123
v 0.133839 0.136342 0.005974
v 0.133815 0.136357 -0.005626
v 0.136686 0.137497 -0.011782
v 0.147839 0.104931 -0.014391
v 0.154846 0.104169 -0.011855
v 0.157763 0.103851 -0.005708
v 0.157787 0.103825 0.005892
v 0.154897 0.104115 0.012050
v 0.147901 0.104865 0.014611
v 0.140913 0.105653 0.012076
v 0.138003 0.106005 0.005929
v 0.137980 0.106031 -0.005672
v 0.140863 0.105708 -0.011829
v 0.139697 0.068109 -0.014444
v 0.145860 0.064441 -0.011912
v 0.148535 0.062973 -0.005767
v 0.148555 0.062938 0.005834
v 0.145902 0.064366 0.011993
v 0.139747 0.068018 0.014558
v 0.133686 0.071744 0.012027
v 0.131093 0.073293 0.005881
v 0.131072 0.073329 -0.005719
v 0.133642 0.071819 -0.011879
v 0.115528 0.042901 -0.016162
v 0.119523 0.035871 -0.012743
v 0.121192 0.033083 -0.006044
v 0.121204 0.033037 0.006019
v 0.119546 0.035772 0.012731
v 0.115557 0.042774 0.016192
v 0.111575 0.050198 0.013881
v 0.109872 0.053619 0.006934
v 0.109859 0.053675 -0.006830
v 0.111552 0.050310 -0.013802
v 0.096920 0.036350 -0.019934
v 0.098866 0.027084 -0.016003
v 0.099723 0.023353 -0.007695
v 0.099728 0.023291 0.007626
v 0.098876 0.026956 0.015955
v 0.096931 0.036189 0.019941
v 0.095188 0.045823 0.016897
v 0.094525 0.049922 0.008313
v 0.094522 0.049989 -0.008216
v 0.095181 0.045960 -0.016827
v 0.068722 0.033474 -0.022272
v 0.068136 0.022417 -0.018391
v 0.071002 0.017708 -0.008956
v 0.070998 0.017634 0.008861
v 0.068129 0.022265 0.018324
v 0.068713 0.033290 0.022272
v 0.069423 0.044318 0.018391
v 0.073035 0.048672 0.008956
v 0.073041 0.048745 -0.008861
v 0.069433 0.044469 -0.018324
v 0.000001 0.017266 -0.070682
v 0.000001 0.207092 -0.070682
v 0.049981 0.207092 -0.049979
v 0.049981 0.017266 -0.049979
v -0.070680 0.017266 -0.000000
v -0.070680 0.207092 -0.000000
v -0.049978 0.207092 -0.049979
v -0.049978 0.017266 -0.049979
v 0.000001 0.017266 0.070682
v 0.000001 0.207092 0.070682
v -0.049978 0.207092 0.049979
v -0.049978 0.017266 0.049979
v 0.070683 0.017266 0.000000
v 0.070683 0.207092 0.000000
v 0.049981 0.207092 0.049979
v 0.049981 0.017266 0.049979
vn 0.9776 -0.2103 -0.0000
vn 0.9999 -0.0171 -0.0000
vn 0.6913 -0.2103 0.6913
vn 0.7070 -0.0171 0.7070
vn -0.0000 -0.2103 0.9776
vn -0.0000 -0.0171 0.9999
vn -0.6913 -0.2103 0.6913
vn -0.7070 -0.0171 0.7070
vn -0.9776 -0.2103 -0.0000
vn -0.9999 -0.0171 -0.0000
vn -0.6913 -0.2103 -0.6913
vn -0.7070 -0.0171 -0.7070
vn -0.0000 -0.2103 -0.9776
vn -0.0000 -0.0171 -0.9999
vn 0.6913 -0.2103 -0.6913
vn 0.7070 -0.0171 -0.7070
vn 0.7553 -0.6553 -0.0000
vn 0.5341 -0.6553 0.5341
vn -0.0000 -0.6553 0.7553
vn -0.5341 -0.6553 0.5341
vn -0.7553 -0.6553 -0.0000
vn -0.5341 -0.6553 -0.5341
vn -0.0000 -0.6553 -0.7553
vn 0.5341 -0.6553 -0.5341
vn 0.4177 -0.9086 -0.0000
vn 0.2954 -0.9086 0.2954
vn -0.0000 -0.9086 0.4177
vn -0.2954 -0.9086 0.2954
vn -0.4177 -0.9086 -0.0000
vn -0.2954 -0.9086 -0.2954
vn -0.0000 -0.9086 -0.4177
vn 0.2954 -0.9086 -0.2954
vn 0.6455 0.4081 0.6455
vn 0.9129 0.4081 -0.0000
vn -0.0000 0.4081 0.9129
vn -0.6455 0.4081 0.6455
vn -0.9129 0.4081 -0.0000
vn -0.6455 0.4081 -0.6455
vn -0.0000 0.4081 -0.9129
vn 0.6455 0.4081 -0.6455
vn -0.5163 0.6832 -0.5163
vn -0.7302 0.6832 -0.0000
vn -0.0000 0.6832 -0.7302
vn 0.5163 0.6832 -0.5163
vn 0.7302 0.6832 -0.0000
vn 0.5163 0.6832 0.5163
vn -0.0000 0.6832 0.7302
vn -0.5163 0.6832 0.5163
vn -0.5490 0.6303 -0.5490
vn -0.7764 0.6303 -0.0000
vn -0.0000 0.6303 -0.7764
vn 0.5490 0.6303 -0.5490
vn 0.7764 0.6303 -0.0000
vn 0.5490 0.6303 0.5490
vn -0.0000 0.6303 0.7764
vn -0.5490 0.6303 0.5490
vn 0.7066 -0.0369 -0.7066
vn -0.0000 -0.0369 -0.9993
vn -0.7066 -0.0369 -0.7066
vn -0.9993 -0.0369 -0.0000
vn -0.7066 -0.0369 0.7066
vn -0.0000 -0.0369 0.9993
vn 0.7066 -0.0369 0.7066
vn 0.9993 -0.0369 -0.0000
vn -0.1052 0.9944 -0.0000
vn 0.3841 0.9233 -0.0000
vn 0.2716 0.9233 0.2716
vn -0.0744 0.9944 -0.0744
vn -0.0744 0.9944 0.0744
vn 0.2716 0.9233 -0.2716
vn 0.0744 0.9944 0.0744
vn -0.2716 0.9233 -0.2716
vn -0.0000 0.9233 -0.3841
vn -0.0000 0.9944 0.1052
vn 0.0744 0.9944 -0.0744
vn -0.2716 0.9233 0.2716
vn -0.3841 0.9233 -0.0000
vn 0.1052 0.9944 -0.0000
vn -0.0000 0.9233 0.3841
vn -0.0000 0.9944 -0.1052
vn 0.7071 -0.0000 -0.7071
vn 1.0000 -0.0000 -0.0000
vn 0.7071 -0.0000 0.7071
vn -0.0000 -0.0000 1.0000
vn -0.7071 -0.0000 0.7071
vn -0.7071 -0.0000 -0.7071
vn -0.0000 -0.0000 -1.0000
vn -1.0000 -0.0000 -0.0000
vn 0.0906 0.0285 -0.9955
vn 0.1589 0.6697 -0.7254
vn 0.1756 0.9596 -0.2199
vn 0.1756 0.9596 0.2199
vn 0.1591 0.6697 0.7254
vn 0.0909 0.0285 0.9955
vn 0.0033 -0.6393 0.7690
vn -0.0564 -0.9699 0.2370
vn -0.0565 -0.9699 -0.2368
vn 0.0030 -0.6394 -0.7689
vn 0.1425 0.0060 -0.9898
vn 0.2783 0.6280 -0.7267
vn 0.3240 0.9196 -0.2223
vn 0.3241 0.9196 0.2220
vn 0.2788 0.6280 0.7266
vn 0.1431 0.0058 0.9897
vn -0.0160 -0.6343 0.7729
vn -0.1263 -0.9614 0.2443
vn -0.1265 -0.9615 -0.2440
vn -0.0166 -0.6343 -0.7729
vn 0.1435 0.0182 -0.9895
vn 0.4943 0.5056 -0.7071
vn 0.6473 0.7298 -0.2200
vn 0.6478 0.7297 0.2189
vn 0.4955 0.5052 0.7066
vn 0.1451 0.0175 0.9893
vn -0.2585 -0.5144 0.8177
vn -0.5171 -0.8144 0.2632
vn -0.5177 -0.8145 -0.2618
vn -0.2601 -0.5141 -0.8173
vn 0.0557 0.0197 -0.9983
vn 0.6460 0.2431 -0.7236
vn 0.9128 0.3409 -0.2249
vn 0.9136 0.3405 0.2222
vn 0.6483 0.2417 0.7220
vn 0.0586 0.0177 0.9981
vn -0.5675 -0.2322 0.7899
vn -0.8964 -0.3699 0.2442
vn -0.8973 -0.3696 -0.2413
vn -0.5701 -0.2310 -0.7884
vn 0.0333 0.0003 -0.9994
vn 0.6873 -0.0390 -0.7253
vn 0.9736 -0.0589 -0.2203
vn 0.9745 -0.0596 0.2162
vn 0.6900 -0.0414 0.7226
vn 0.0367 -0.0028 0.9993
vn -0.6456 0.0257 0.7632
vn -0.9730 0.0339 0.2284
vn -0.9739 0.0346 -0.2242
vn -0.6485 0.0279 -0.7607
vn 0.0804 -0.0186 -0.9966
vn 0.6269 -0.3224 -0.7093
vn 0.8650 -0.4514 -0.2194
vn 0.8658 -0.4525 0.2138
vn 0.6291 -0.3259 0.7057
vn 0.0832 -0.0232 0.9963
vn -0.5237 0.3091 0.7939
vn -0.8431 0.4796 0.2432
vn -0.8441 0.4809 -0.2370
vn -0.5265 0.3130 -0.7905
vn 0.1566 -0.0290 -0.9872
vn 0.4594 -0.5581 -0.6910
vn 0.5793 -0.7870 -0.2125
vn 0.5797 -0.7884 0.2057
vn 0.4606 -0.5624 0.6867
vn 0.1581 -0.0347 0.9868
vn -0.2144 0.5642 0.7973
vn -0.4443 0.8614 0.2461
vn -0.4450 0.8632 -0.2384
vn -0.2161 0.5695 -0.7931
vn 0.1426 -0.0250 -0.9895
vn 0.2638 -0.6420 -0.7199
vn 0.3063 -0.9247 -0.2260
vn 0.3065 -0.9264 0.2186
vn 0.2643 -0.6469 0.7153
vn 0.1431 -0.0312 0.9892
vn -0.0117 0.6400 0.7683
vn -0.1238 0.9647 0.2325
vn -0.1240 0.9665 -0.2247
vn -0.0122 0.6455 -0.7637
vn 0.0891 -0.0478 -0.9949
vn 0.1585 -0.6438 -0.7486
vn 0.1907 -0.9486 -0.2526
vn 0.1909 -0.9505 0.2452
vn 0.1589 -0.6488 0.7441
vn 0.0895 -0.0542 0.9945
vn 0.0116 0.6048 0.7963
vn -0.0455 0.9692 0.2422
vn -0.0456 0.9711 -0.2343
vn 0.0114 0.6104 -0.7920
vt 0.336061 0.445269
vt 0.057259 0.440538
vt 0.062201 0.331855
vt 0.319909 0.348165
vt 0.073449 0.224558
vt 0.322526 0.257357
vt 0.091121 0.118352
vt 0.340552 0.170436
vt 0.113728 0.011993
vt 0.379704 0.082272
vt 0.378391 0.818968
vt 0.093133 0.883204
vt 0.075475 0.770172
vt 0.339003 0.725645
vt 0.063159 0.659475
vt 0.320126 0.634081
vt 0.004219 0.439231
vt 0.004087 0.551161
vt 0.000187 0.551257
vt 0.000343 0.439131
vt 0.057331 0.549681
vt 0.317687 0.542807
vt 0.343151 0.171289
vt 0.382313 0.083483
vt 0.392685 0.090240
vt 0.353598 0.174644
vt 0.334078 0.632342
vt 0.331740 0.543941
vt 0.351968 0.545884
vt 0.355423 0.630134
vt 0.322903 0.633763
vt 0.320490 0.543048
vt 0.322759 0.347966
vt 0.325224 0.257676
vt 0.336113 0.258826
vt 0.333818 0.347084
vt 0.381272 0.817699
vt 0.341809 0.724766
vt 0.352672 0.721251
vt 0.392084 0.811037
vt 0.338960 0.445864
vt 0.350944 0.450182
vt 0.339071 0.444720
vt 0.350799 0.440864
vt 0.374165 0.714351
vt 0.409251 0.794459
vt 0.372306 0.180992
vt 0.356803 0.261502
vt 0.355696 0.345388
vt 0.370777 0.429066
vt 0.371554 0.463311
vt 0.409252 0.107256
vt 0.009799 0.327891
vt 0.005952 0.327587
vt 0.039656 0.108881
vt 0.021675 0.217664
vt 0.017873 0.217145
vt 0.035897 0.108187
vt 0.009775 0.663872
vt 0.021735 0.777205
vt 0.017793 0.777697
vt 0.005851 0.664177
vt 0.061657 0.000951
vt 0.057913 0.000187
vt 0.038119 0.891125
vt 0.034167 0.891692
vt 0.840130 0.916830
vt 0.752147 0.916830
vt 0.689934 0.854617
vt 0.902343 0.854617
vt 0.522962 0.718895
vt 0.447947 0.768167
vt 0.439637 0.762125
vt 0.520601 0.708627
vt 0.427122 0.927379
vt 0.511466 0.983729
vt 0.508846 0.995139
vt 0.417006 0.934165
vt 0.610267 0.970785
vt 0.674746 0.897554
vt 0.685253 0.901498
vt 0.615693 0.980881
vt 0.613707 0.731394
vt 0.618797 0.721913
vt 0.424115 0.854337
vt 0.413768 0.855616
vt 0.675062 0.802014
vt 0.685349 0.798148
vt 0.665718 0.894079
vt 0.666168 0.805273
vt 0.620875 0.718026
vt 0.689560 0.796557
vt 0.609253 0.739529
vt 0.689560 0.903106
vt 0.524923 0.727762
vt 0.519628 0.704422
vt 0.605664 0.962044
vt 0.617922 0.985013
vt 0.435560 0.921551
vt 0.513802 0.973914
vt 0.507782 0.999813
vt 0.413231 0.937183
vt 0.455184 0.773461
vt 0.409626 0.855785
vt 0.436228 0.759654
vt 0.433053 0.853380
vt 0.902343 0.766635
vt 0.689934 0.766635
vt 0.752147 0.704422
vt 0.840130 0.704422
vt 0.873928 0.403118
vt 0.861675 0.346797
vt 0.877798 0.343575
vt 0.892300 0.396104
vt 0.854814 0.408704
vt 0.846631 0.348489
vt 0.836959 0.410929
vt 0.833843 0.348875
vt 0.805059 0.410194
vt 0.812841 0.347803
vt 0.787156 0.406593
vt 0.800112 0.346474
vt 0.768233 0.399443
vt 0.785223 0.343602
vt 0.750170 0.390832
vt 0.769339 0.338963
vt 0.733934 0.383121
vt 0.754749 0.333110
vt 0.908668 0.389950
vt 0.892652 0.339224
vt 0.917246 0.330875
vt 0.936438 0.380137
vt 0.856218 0.314424
vt 0.870930 0.311499
vt 0.842956 0.315615
vt 0.832741 0.315601
vt 0.816405 0.314814
vt 0.806303 0.314165
vt 0.793370 0.312103
vt 0.779317 0.308232
vt 0.766839 0.304305
vt 0.884229 0.308687
vt 0.906268 0.303961
vt 0.843735 0.261251
vt 0.855430 0.261552
vt 0.833909 0.261065
vt 0.817895 0.260582
vt 0.808152 0.260397
vt 0.796622 0.260280
vt 0.784340 0.260050
vt 0.772623 0.259259
vt 0.879727 0.261336
vt 0.900079 0.259988
vt 0.867961 0.261711
vt 0.856335 0.206279
vt 0.867745 0.207217
vt 0.845259 0.205503
vt 0.835137 0.205175
vt 0.818018 0.204958
vt 0.807952 0.205127
vt 0.796969 0.205716
vt 0.785677 0.206448
vt 0.774240 0.206722
vt 0.878958 0.207681
vt 0.898580 0.207814
vt 0.856411 0.146538
vt 0.868569 0.147690
vt 0.844958 0.145959
vt 0.834846 0.145969
vt 0.818432 0.145939
vt 0.808449 0.146152
vt 0.797236 0.146955
vt 0.785476 0.148264
vt 0.773932 0.149666
vt 0.880449 0.148906
vt 0.900602 0.151543
vt 0.860003 0.088507
vt 0.875000 0.091416
vt 0.845559 0.086966
vt 0.834182 0.086894
vt 0.816231 0.087342
vt 0.805031 0.088194
vt 0.791115 0.090725
vt 0.776964 0.094706
vt 0.764020 0.099847
vt 0.889138 0.095518
vt 0.913284 0.103413
vt 0.865990 0.055350
vt 0.882593 0.060688
vt 0.849957 0.052403
vt 0.835566 0.051897
vt 0.811782 0.052720
vt 0.797634 0.054612
vt 0.782155 0.059077
vt 0.766443 0.066021
vt 0.752026 0.074064
vt 0.898056 0.067074
vt 0.925793 0.078232
vt 0.878359 0.007502
vt 0.897703 0.016982
vt 0.857919 0.000187
vt 0.837883 0.002574
vt 0.804407 0.004566
vt 0.784477 0.004128
vt 0.765046 0.013313
vt 0.746851 0.024659
vt 0.733934 0.039729
vt 0.912192 0.030603
vt 0.941782 0.042937
vt 0.725957 0.440100
vt 0.725957 0.528082
vt 0.417229 0.528082
vt 0.417229 0.440100
vt 0.725957 0.616065
vt 0.725957 0.704047
vt 0.417229 0.704047
vt 0.417229 0.616065
vt 0.725957 0.088170
vt 0.725957 0.176152
vt 0.417229 0.176152
vt 0.417229 0.088170
vt 0.725957 0.264135
vt 0.725957 0.352117
vt 0.417229 0.352117
vt 0.417229 0.264135
vt 0.725957 0.000187
vt 0.417229 0.000187
vt 0.733559 0.088170
vt 0.733559 0.176152
vt 0.409626 0.264135
vt 0.409626 0.176152
vt 0.733559 0.264135
vt 0.409626 0.088170
vt 0.733559 0.352117
vt 0.409626 0.352117
vt 0.733559 0.616065
vt 0.733559 0.704047
vt 0.409626 0.000187
vt 0.733559 0.000187
vt 0.409626 0.704047
vt 0.409626 0.616065
vt 0.733559 0.440100
vt 0.733559 0.528082
vt 0.409626 0.528082
vt 0.409626 0.440100
s 1
f 64/1/64 2/2/2 4/3/4 63/4/63
f 63/4/63 4/3/4 6/5/6 62/6/62
f 62/6/62 6/5/6 8/7/8 61/8/61
f 61/8/61 8/7/8 10/9/10 60/10/60
f 60/11/60 10/12/10 12/13/12 59/14/59
f 59/14/59 12/13/12 14/15/14 58/16/58
f 82/17/82 81/18/81 40/19/40 34/20/34
f 58/16/58 14/15/14 16/21/16 57/22/57
f 57/22/57 16/21/16 2/2/2 64/1/64
f 7/23/7 9/24/9 21/25/21 20/26/20
f 23/27/23 24/28/24 32/29/32 31/30/31
f 13/31/13 15/32/15 24/28/24 23/27/23
f 3/33/3 5/34/5 19/35/19 18/36/18
f 9/37/9 11/38/11 22/39/22 21/40/21
f 15/32/15 1/41/1 17/42/17 24/28/24
f 1/43/1 3/33/3 18/36/18 17/44/17
f 5/34/5 7/23/7 20/26/20 19/35/19
f 11/38/11 13/31/13 23/27/23 22/39/22
f 21/40/21 22/39/22 30/45/30 29/46/29
f 19/35/19 20/26/20 28/47/28 27/48/27
f 17/44/17 18/36/18 26/49/26 25/50/25
f 24/28/24 17/42/17 25/51/25 32/29/32
f 22/39/22 23/27/23 31/30/31 30/45/30
f 20/26/20 21/25/21 29/52/29 28/47/28
f 18/36/18 19/35/19 27/48/27 26/49/26
f 7/23/7 61/8/61 60/10/60 9/24/9
f 83/53/83 82/17/82 34/20/34 33/54/33
f 85/55/85 84/56/84 35/57/35 36/58/36
f 87/59/87 86/60/86 38/61/38 39/62/39
f 88/63/88 85/55/85 36/58/36 37/64/37
f 81/18/81 87/59/87 39/62/39 40/19/40
f 84/56/84 83/53/83 33/54/33 35/57/35
f 86/60/86 88/65/88 37/66/37 38/61/38
f 5/34/5 62/6/62 61/8/61 7/23/7
f 11/38/11 59/14/59 58/16/58 13/31/13
f 15/32/15 57/22/57 64/1/64 1/41/1
f 4/3/4 2/2/2 82/17/82 83/53/83
f 10/9/10 8/7/8 85/55/85 88/63/88
f 16/21/16 14/15/14 87/59/87 81/18/81
f 6/5/6 4/3/4 83/53/83 84/56/84
f 49/67/49 50/68/50 56/69/56 51/70/51
f 8/7/8 6/5/6 84/56/84 85/55/85
f 12/13/12 10/12/10 88/65/88 86/60/86
f 1/43/1 64/1/64 63/4/63 3/33/3
f 3/33/3 63/4/63 62/6/62 5/34/5
f 9/37/9 60/11/60 59/14/59 11/38/11
f 13/31/13 58/16/58 57/22/57 15/32/15
f 2/2/2 16/21/16 81/18/81 82/17/82
f 14/15/14 12/13/12 86/60/86 87/59/87
f 80/71/80 75/72/75 76/73/76 79/74/79
f 78/75/78 71/76/71 72/77/72 77/78/77
f 74/79/74 69/80/69 70/81/70 73/82/73
f 68/83/68 80/71/80 79/74/79 67/84/67
f 75/72/75 78/85/78 77/86/77 76/73/76
f 71/76/71 74/79/74 73/82/73 72/77/72
f 69/80/69 65/87/65 66/88/66 70/81/70
f 65/87/65 68/83/68 67/84/67 66/88/66
f 65/87/65 69/80/69 48/89/48 42/90/42
f 33/91/33 34/92/34 66/88/66 67/84/67
f 68/83/68 65/87/65 42/90/42 41/93/41
f 34/92/34 40/94/40 70/81/70 66/88/66
f 80/71/80 68/83/68 41/93/41 43/95/43
f 35/96/35 33/91/33 67/84/67 79/74/79
f 69/80/69 74/79/74 47/97/47 48/89/48
f 40/94/40 39/98/39 73/82/73 70/81/70
f 71/76/71 78/75/78 45/99/45 46/100/46
f 39/98/39 38/101/38 72/77/72 73/82/73
f 74/79/74 71/76/71 46/100/46 47/97/47
f 38/101/38 37/102/37 77/78/77 72/77/72
f 75/72/75 80/71/80 43/95/43 44/103/44
f 37/104/37 36/105/36 76/73/76 77/86/77
f 78/85/78 75/72/75 44/103/44 45/106/45
f 36/105/36 35/96/35 79/74/79 76/73/76
f 52/107/52 55/108/55 54/109/54 53/110/53
f 51/70/51 56/69/56 55/108/55 52/107/52
f 89/111/89 99/112/99 108/113/108 98/114/98
f 90/115/90 100/116/100 99/112/99 89/111/89
f 91/117/91 101/118/101 100/116/100 90/115/90
f 92/119/92 102/120/102 101/118/101 91/117/91
f 93/121/93 103/122/103 102/120/102 92/119/92
f 94/123/94 104/124/104 103/122/103 93/121/93
f 95/125/95 105/126/105 104/124/104 94/123/94
f 96/127/96 106/128/106 105/126/105 95/125/95
f 97/129/97 107/130/107 106/131/106 96/132/96
f 98/114/98 108/113/108 107/130/107 97/129/97
f 99/112/99 109/133/109 118/134/118 108/113/108
f 100/116/100 110/135/110 109/133/109 99/112/99
f 101/118/101 111/136/111 110/135/110 100/116/100
f 102/120/102 112/137/112 111/136/111 101/118/101
f 103/122/103 113/138/113 112/137/112 102/120/102
f 104/124/104 114/139/114 113/138/113 103/122/103
f 105/126/105 115/140/115 114/139/114 104/124/104
f 106/128/106 116/141/116 115/140/115 105/126/105
f 107/130/107 117/142/117 116/143/116 106/131/106
f 108/113/108 118/134/118 117/142/117 107/130/107
f 110/135/110 120/144/120 119/145/119 109/133/109
f 111/136/111 121/146/121 120/144/120 110/135/110
f 112/137/112 122/147/122 121/146/121 111/136/111
f 113/138/113 123/148/123 122/147/122 112/137/112
f 114/139/114 124/149/124 123/148/123 113/138/113
f 115/140/115 125/150/125 124/149/124 114/139/114
f 116/141/116 126/151/126 125/150/125 115/140/115
f 117/142/117 127/152/127 126/153/126 116/143/116
f 118/134/118 128/154/128 127/152/127 117/142/117
f 119/145/119 129/155/129 138/156/138 128/154/128
f 120/144/120 130/157/130 129/155/129 119/145/119
f 121/146/121 131/158/131 130/157/130 120/144/120
f 122/147/122 132/159/132 131/158/131 121/146/121
f 123/148/123 133/160/133 132/159/132 122/147/122
f 124/149/124 134/161/134 133/160/133 123/148/123
f 125/150/125 135/162/135 134/161/134 124/149/124
f 126/151/126 136/163/136 135/162/135 125/150/125
f 127/152/127 137/164/137 136/165/136 126/153/126
f 128/154/128 138/156/138 137/164/137 127/152/127
f 129/155/129 139/166/139 148/167/148 138/156/138
f 130/157/130 140/168/140 139/166/139 129/155/129
f 131/158/131 141/169/141 140/168/140 130/157/130
f 132/159/132 142/170/142 141/169/141 131/158/131
f 133/160/133 143/171/143 142/170/142 132/159/132
f 134/161/134 144/172/144 143/171/143 133/160/133
f 135/162/135 145/173/145 144/172/144 134/161/134
f 136/163/136 146/174/146 145/173/145 135/162/135
f 137/164/137 147/175/147 146/176/146 136/165/136
f 138/156/138 148/167/148 147/175/147 137/164/137
f 139/166/139 149/177/149 158/178/158 148/167/148
f 140/168/140 150/179/150 149/177/149 139/166/139
f 141/169/141 151/180/151 150/179/150 140/168/140
f 142/170/142 152/181/152 151/180/151 141/169/141
f 143/171/143 153/182/153 152/181/152 142/170/142
f 144/172/144 154/183/154 153/182/153 143/171/143
f 145/173/145 155/184/155 154/183/154 144/172/144
f 146/174/146 156/185/156 155/184/155 145/173/145
f 147/175/147 157/186/157 156/187/156 146/176/146
f 148/167/148 158/178/158 157/186/157 147/175/147
f 149/177/149 159/188/159 168/189/168 158/178/158
f 150/179/150 160/190/160 159/188/159 149/177/149
f 151/180/151 161/191/161 160/190/160 150/179/150
f 152/181/152 162/192/162 161/191/161 151/180/151
f 153/182/153 163/193/163 162/192/162 152/181/152
f 154/183/154 164/194/164 163/193/163 153/182/153
f 155/184/155 165/195/165 164/194/164 154/183/154
f 156/185/156 166/196/166 165/195/165 155/184/155
f 157/186/157 167/197/167 166/198/166 156/187/156
f 158/178/158 168/189/168 167/197/167 157/186/157
f 159/188/159 169/199/169 178/200/178 168/189/168
f 160/190/160 170/201/170 169/199/169 159/188/159
f 161/191/161 171/202/171 170/201/170 160/190/160
f 162/192/162 172/203/172 171/202/171 161/191/161
f 163/193/163 173/204/173 172/203/172 162/192/162
f 164/194/164 174/205/174 173/204/173 163/193/163
f 165/195/165 175/206/175 174/205/174 164/194/164
f 166/196/166 176/207/176 175/206/175 165/195/165
f 167/197/167 177/208/177 176/209/176 166/198/166
f 168/189/168 178/200/178 177/208/177 167/197/167
f 109/133/109 119/145/119 128/154/128 118/134/118
f 194/210/86 187/211/87 188/212/87 193/213/86
f 190/214/81 183/215/82 184/216/82 189/217/81
f 186/218/83 179/219/84 180/220/84 185/221/83
f 182/222/85 191/223/88 192/224/88 181/225/85
f 191/223/88 194/210/86 193/213/86 192/224/88
f 187/211/87 190/214/81 189/217/81 188/212/87
f 183/226/82 186/218/83 185/221/83 184/227/82
f 179/219/84 182/222/85 181/225/85 180/220/84
f 179/219/84 186/218/83 54/228/54 55/229/55
f 48/230/48 47/231/47 180/220/84 181/225/85
f 182/222/85 179/219/84 55/229/55 56/232/56
f 47/231/47 46/233/46 185/221/83 180/220/84
f 191/223/88 182/222/85 56/232/56 50/234/50
f 42/235/42 48/230/48 181/225/85 192/224/88
f 183/215/82 190/214/81 52/236/52 53/237/53
f 46/233/46 45/238/45 184/227/82 185/221/83
f 186/218/83 183/226/82 53/239/53 54/228/54
f 45/240/45 44/241/44 189/217/81 184/216/82
f 187/211/87 194/210/86 49/242/49 51/243/51
f 44/241/44 43/244/43 188/212/87 189/217/81
f 190/214/81 187/211/87 51/243/51 52/236/52
f 43/244/43 41/245/41 193/213/86 188/212/87
f 41/245/41 42/235/42 192/224/88 193/213/86
f 194/210/86 191/223/88 50/234/50 49/242/49
