# Blender 4.5.1 LTS
# www.blender.org
mtllib Pen_2.mtl
o Cylinder.019
v 0.018924 0.160958 -0.007840
v -0.007839 0.160958 -0.018925
v 0.007839 0.160958 0.018923
v 0.007843 0.165861 0.018933
v -0.018924 0.160958 -0.007840
v -0.018934 0.165861 -0.007844
v 0.007839 0.160958 -0.018925
v 0.007843 0.165861 -0.018935
v -0.006529 0.158576 0.015763
v 0.015764 0.158576 -0.006531
v -0.006529 0.158576 -0.015765
v 0.006530 0.158576 -0.015765
v -0.015764 0.158576 -0.006531
v -0.015764 0.158576 0.006528
v 0.015764 0.158576 0.006528
v 0.006530 0.158576 0.015763
v 0.004909 0.011516 0.011850
v -0.004909 0.011516 0.011850
v -0.011851 0.011516 0.004908
v -0.011851 0.011516 -0.004910
v -0.004909 0.011516 -0.011852
v 0.004909 0.011516 -0.011852
v 0.011851 0.011516 -0.004910
v 0.011851 0.011516 0.004908
v 0.002328 0.000828 0.005620
v -0.002328 0.000828 0.005620
v -0.005622 0.000828 0.002327
v -0.005621 0.000828 -0.002330
v -0.002328 0.000828 -0.005622
v 0.002328 0.000828 -0.005622
v 0.005621 0.000828 -0.002330
v 0.005621 0.000828 0.002327
v 0.002004 0.000093 0.004836
v -0.002004 0.000093 0.004837
v -0.004838 0.000093 0.002003
v -0.004838 0.000093 -0.002005
v -0.002004 0.000093 -0.004839
v 0.002004 0.000092 -0.004839
v 0.004838 0.000093 -0.002005
v 0.004837 0.000092 0.002003
v 0.001676 0.000001 0.004045
v -0.001676 0.000001 0.004044
v -0.004046 0.000001 0.001675
v -0.004046 0.000001 -0.001677
v -0.001676 0.000001 -0.004047
v 0.001676 0.000001 -0.004047
v 0.004045 0.000001 -0.001677
v 0.004046 0.000001 0.001675
v 0.005412 0.166702 0.013065
v -0.013157 0.256613 -0.005451
v -0.006466 0.058554 0.015609
v -0.005412 0.166702 0.013065
v -0.017294 0.058554 0.006465
v -0.013066 0.166702 0.005411
v -0.017294 0.058554 -0.006467
v -0.013067 0.166702 -0.005414
v -0.013157 0.256613 0.005449
v -0.005412 0.166702 -0.013068
v 0.006466 0.058554 -0.015611
v 0.005412 0.166702 -0.013068
v -0.005450 0.256613 0.013156
v 0.013067 0.166702 -0.005413
v 0.005450 0.256613 0.013156
v 0.013067 0.166702 0.005411
v 0.005398 0.633660 0.013031
v 0.013032 0.633660 0.005397
v -0.013032 0.633660 0.005397
v -0.005398 0.633660 0.013031
v -0.005398 0.633660 -0.013033
v -0.013032 0.633660 -0.005399
v 0.013032 0.633660 -0.005399
v 0.005398 0.633660 -0.013033
v -0.004414 0.635015 0.010655
v 0.004414 0.635015 0.010655
v -0.010656 0.635015 0.004413
v -0.010656 0.635015 -0.004415
v -0.004414 0.635015 -0.010657
v 0.004414 0.635015 -0.010657
v 0.010656 0.635015 -0.004415
v 0.010656 0.635015 0.004413
v 0.013353 0.451504 0.005530
v 0.005531 0.451504 0.013352
v -0.005531 0.451504 0.013352
v -0.013353 0.451504 0.005530
v -0.013353 0.451504 -0.005532
v -0.005531 0.451504 -0.013355
v 0.005531 0.451504 -0.013355
v 0.013354 0.451504 -0.005532
v 0.006533 0.166702 0.015771
v 0.006487 0.058554 0.015660
v -0.024370 0.165217 -0.004911
v -0.006533 0.166702 0.015771
v -0.024370 0.165217 0.004908
v -0.015772 0.166702 0.006532
v -0.023242 0.254562 -0.004911
v -0.015772 0.166702 -0.006534
v -0.006487 0.058554 -0.015662
v -0.006533 0.166702 -0.015773
v -0.023242 0.254562 0.004908
v 0.006533 0.166702 -0.015773
v 0.015662 0.058554 -0.006488
v 0.015772 0.166702 -0.006534
v 0.015661 0.058554 0.006486
v 0.015772 0.166702 0.006532
v -0.007839 0.160958 0.018923
v 0.018924 0.160958 0.007837
v -0.018924 0.160958 0.007837
v 0.018934 0.165861 0.007842
v 0.018934 0.165861 -0.007844
v -0.007843 0.165861 -0.018935
v -0.018934 0.165861 0.007842
v -0.007843 0.165861 0.018933
v -0.024188 0.085286 0.004885
v -0.023721 0.158567 0.004908
v -0.023721 0.158567 -0.004911
v -0.024188 0.085286 -0.004887
v -0.005450 0.256613 -0.013158
v 0.005450 0.256613 -0.013158
v 0.013157 0.256613 -0.005451
v 0.013157 0.256613 0.005449
v -0.018199 0.256547 -0.005181
v -0.018199 0.256547 0.005179
v -0.015678 0.257060 0.005314
v -0.015678 0.257060 -0.005316
v -0.024370 0.160916 -0.004911
v -0.024370 0.160916 0.004908
vn 0.8372 -0.4229 -0.3468
vn -0.3468 -0.4229 -0.8372
vn 0.3468 -0.4229 0.8372
vn 0.3191 0.5519 0.7705
vn -0.4987 -0.3298 -0.8016
vn -0.3724 0.1980 -0.9067
vn 0.3468 -0.4229 -0.8372
vn 0.3191 0.5519 -0.7705
vn -0.3186 -0.5140 0.7964
vn 0.7906 -0.5171 -0.3280
vn -0.3181 -0.5142 -0.7965
vn 0.3276 -0.5169 -0.7909
vn -0.4685 -0.3621 -0.8059
vn -0.4680 -0.3621 0.8061
vn 0.7908 -0.5170 0.3276
vn 0.3271 -0.5171 0.7909
vn 0.3641 -0.3032 0.8806
vn -0.3523 -0.3045 0.8850
vn -0.8702 -0.3166 0.3775
vn -0.8704 -0.3167 -0.3769
vn -0.3517 -0.3048 -0.8851
vn 0.3647 -0.3029 -0.8805
vn 0.8801 -0.3032 -0.3652
vn 0.8804 -0.3033 0.3647
vn 0.2958 -0.6344 0.7142
vn -0.2958 -0.6344 0.7142
vn -0.7142 -0.6344 0.2958
vn -0.7142 -0.6344 -0.2958
vn -0.2958 -0.6344 -0.7142
vn 0.2958 -0.6344 -0.7142
vn 0.7142 -0.6344 -0.2958
vn 0.7142 -0.6344 0.2958
vn 0.1751 -0.8891 0.4228
vn -0.1751 -0.8891 0.4228
vn -0.4228 -0.8891 0.1751
vn -0.4228 -0.8891 -0.1751
vn -0.1751 -0.8891 -0.4228
vn 0.1751 -0.8891 -0.4228
vn 0.4228 -0.8891 -0.1751
vn 0.4228 -0.8891 0.1751
vn 0.0254 -0.9978 0.0613
vn -0.0254 -0.9978 0.0613
vn -0.0613 -0.9978 0.0254
vn -0.0613 -0.9978 -0.0254
vn -0.0254 -0.9978 -0.0613
vn 0.0254 -0.9978 -0.0613
vn 0.0613 -0.9978 -0.0254
vn 0.0613 -0.9978 0.0254
vn 0.2276 0.8039 0.5495
vn -0.6051 0.2836 -0.7440
vn -0.3619 -0.0448 0.9311
vn -0.2276 0.8039 0.5495
vn -0.8899 -0.1194 0.4403
vn -0.2406 0.5790 0.7790
vn -0.8903 -0.1194 -0.4394
vn -0.2406 0.5790 -0.7790
vn -0.6051 0.2836 0.7440
vn -0.2276 0.8039 -0.5495
vn 0.3823 -0.0436 -0.9230
vn 0.2276 0.8039 -0.5495
vn -0.3827 -0.0011 0.9239
vn 0.5495 0.8039 -0.2276
vn 0.3827 -0.0011 0.9239
vn 0.5495 0.8039 0.2276
vn 0.3381 0.4684 0.8162
vn 0.8162 0.4684 0.3381
vn -0.8162 0.4684 0.3381
vn -0.3381 0.4684 0.8162
vn -0.3381 0.4684 -0.8162
vn -0.8162 0.4684 -0.3381
vn 0.8162 0.4684 -0.3381
vn 0.3381 0.4684 -0.8162
vn -0.1128 0.9555 0.2724
vn 0.1128 0.9555 0.2724
vn -0.2724 0.9555 0.1128
vn -0.2724 0.9555 -0.1128
vn -0.1128 0.9555 -0.2724
vn 0.1128 0.9555 -0.2724
vn 0.2724 0.9555 -0.1128
vn 0.2724 0.9555 0.1128
vn 0.9239 0.0004 0.3827
vn 0.3827 0.0004 0.9239
vn -0.3827 0.0004 0.9239
vn -0.9239 0.0004 0.3827
vn -0.9239 0.0004 -0.3827
vn -0.3827 0.0004 -0.9239
vn 0.3827 0.0004 -0.9239
vn 0.9239 0.0004 -0.3827
vn 0.0572 0.9888 0.1382
vn 0.3814 -0.0438 0.9234
vn -0.8361 0.0083 -0.5485
vn -0.0572 0.9888 0.1382
vn -0.8361 0.0083 0.5485
vn 0.0613 0.6450 0.7617
vn -0.7479 0.4255 -0.5095
vn 0.0613 0.6450 -0.7617
vn -0.3609 -0.0449 -0.9315
vn -0.0572 0.9888 -0.1382
vn -0.7479 0.4255 0.5095
vn 0.0572 0.9888 -0.1382
vn 0.9226 -0.0438 -0.3833
vn 0.1382 0.9888 -0.0572
vn 0.9230 -0.0438 0.3823
vn 0.1382 0.9888 0.0572
vn -0.3468 -0.4229 0.8372
vn 0.8372 -0.4229 0.3468
vn -0.4987 -0.3298 0.8016
vn 0.7705 0.5518 0.3191
vn 0.7705 0.5519 -0.3191
vn -0.3191 0.5519 -0.7705
vn -0.3724 0.1980 0.9067
vn -0.3191 0.5519 0.7705
vn -0.7966 -0.0832 0.5988
vn -0.7631 -0.2428 0.5989
vn -0.7631 -0.2428 -0.5989
vn -0.7966 -0.0832 -0.5988
vn -0.3827 -0.0011 -0.9239
vn 0.3827 -0.0011 -0.9239
vn 0.9239 -0.0011 -0.3827
vn 0.9239 -0.0011 0.3827
vn -0.2053 0.7131 -0.6703
vn -0.2053 0.7131 0.6703
vn 0.1226 0.7491 0.6510
vn 0.1226 0.7491 -0.6510
vn -0.8406 -0.2074 -0.5004
vn -0.8406 -0.2074 0.5004
vt 0.889381 0.556534
vt 0.892307 0.513188
vt 0.902080 0.515614
vt 0.899706 0.557336
vt 0.362039 0.573358
vt 0.493904 0.527325
vt 0.500934 0.569244
vt 0.371817 0.597528
vt 0.642782 0.396683
vt 0.642878 0.362303
vt 0.650980 0.363184
vt 0.651311 0.395617
vt 0.886067 0.599581
vt 0.895785 0.599609
vt 0.897943 0.727079
vt 0.890487 0.685717
vt 0.900245 0.684306
vt 0.907318 0.723882
vt 0.908029 0.468795
vt 0.916348 0.476419
vt 0.369805 0.671359
vt 0.504039 0.694505
vt 0.499212 0.738079
vt 0.356667 0.697697
vt 0.889277 0.642643
vt 0.899657 0.642089
vt 0.915516 0.771935
vt 0.923766 0.763702
vt 0.336762 0.609386
vt 0.329549 0.595362
vt 0.316781 0.524385
vt 0.459919 0.437824
vt 0.482249 0.477649
vt 0.344346 0.548456
vt 0.375645 0.646021
vt 0.505948 0.652909
vt 0.505053 0.611238
vt 0.376593 0.621589
vt 0.491198 0.787382
vt 0.334509 0.726363
vt 0.339708 0.624576
vt 0.339250 0.640025
vt 0.335464 0.639378
vt 0.335820 0.624892
vt 0.317129 0.583878
vt 0.298621 0.578292
vt 0.324344 0.668322
vt 0.334445 0.654982
vt 0.307338 0.677002
vt 0.333129 0.610647
vt 0.332550 0.625158
vt 0.330162 0.611787
vt 0.326309 0.597835
vt 0.314986 0.587692
vt 0.298705 0.583348
vt 0.321602 0.664992
vt 0.330861 0.653114
vt 0.306585 0.672051
vt 0.323827 0.599908
vt 0.313442 0.590726
vt 0.306439 0.668338
vt 0.319574 0.662318
vt 0.332351 0.638741
vt 0.299167 0.587089
vt 0.328075 0.651509
vt 0.298621 0.807010
vt 0.317892 0.787740
vt 0.325874 0.795722
vt 0.306603 0.814993
vt 0.325874 0.807010
vt 0.317892 0.814993
vt 0.882210 0.511073
vt 0.867194 0.507974
vt 0.876065 0.455216
vt 0.896427 0.459470
vt 0.854697 0.506456
vt 0.859034 0.458354
vt 0.639928 0.334843
vt 0.650612 0.342777
vt 0.848038 0.553730
vt 0.849799 0.599602
vt 0.848586 0.644928
vt 0.854582 0.690220
vt 0.858119 0.735964
vt 0.893184 0.147050
vt 0.892806 0.114377
vt 0.902978 0.114448
vt 0.902150 0.146785
vt 0.304447 0.283852
vt 0.902544 0.250624
vt 0.914754 0.285866
vt 0.306541 0.320790
vt 0.947201 0.000179
vt 0.978268 0.010997
vt 0.992585 0.040615
vt 0.917583 0.014496
vt 0.893883 0.078870
vt 0.897290 0.043713
vt 0.906764 0.045563
vt 0.905152 0.079543
vt 0.912189 0.248291
vt 0.923075 0.279063
vt 0.894724 0.179697
vt 0.904905 0.179068
vt 0.908185 0.007394
vt 0.897567 0.215249
vt 0.908900 0.214023
vt 0.148947 0.303204
vt 0.149221 0.959648
vt 0.111960 0.959648
vt 0.112234 0.303204
vt 0.185660 0.303174
vt 0.186482 0.959617
vt 0.222374 0.303112
vt 0.223743 0.959555
vt 0.259087 0.303020
vt 0.261003 0.959462
vt 0.295799 0.302898
vt 0.298264 0.959337
vt 0.038808 0.303112
vt 0.037439 0.959555
vt 0.000179 0.959461
vt 0.002095 0.303020
vt 0.075521 0.303174
vt 0.074700 0.959617
vt 0.298621 0.078316
vt 0.298871 0.119423
vt 0.299594 0.160498
vt 0.300739 0.201584
vt 0.302365 0.242703
vt 0.299225 0.000179
vt 0.298814 0.037161
vt 0.981767 0.071682
vt 0.952149 0.086000
vt 0.921082 0.075181
vt 0.298621 0.795722
vt 0.306603 0.787740
vt 0.877860 0.555714
vt 0.905093 0.781717
vt 0.886944 0.729778
vt 0.862596 0.554641
vt 0.876133 0.599548
vt 0.862752 0.644138
vt 0.865897 0.688905
vt 0.868579 0.785433
vt 0.670059 0.321147
vt 0.970991 0.324814
vt 0.972420 0.333277
vt 0.669951 0.330949
vt 0.877812 0.643272
vt 0.880766 0.686733
vt 0.666947 0.342357
vt 0.665204 0.362874
vt 0.861122 0.599575
vt 0.872423 0.733504
vt 0.884287 0.787382
vt 0.389921 0.396196
vt 0.389876 0.364503
vt 0.300398 0.401443
vt 0.300340 0.359505
vt 0.298621 0.340511
vt 0.640515 0.424799
vt 0.298621 0.420631
vt 0.665772 0.395548
vt 0.963919 0.358588
vt 0.964410 0.391513
vt 0.991229 0.392472
vt 0.990697 0.356830
vt 0.999276 0.356248
vt 0.999821 0.392797
vt 0.112361 0.000361
vt 0.075900 0.000331
vt 0.039440 0.000270
vt 0.002979 0.000179
vt 0.671402 0.427674
vt 0.973642 0.416564
vt 0.972459 0.425064
vt 0.671795 0.437467
vt 0.258202 0.000179
vt 0.221742 0.000270
vt 0.185281 0.000331
vt 0.148821 0.000361
vt 0.982077 0.357411
vt 0.982595 0.392147
vt 0.970636 0.341714
vt 0.668068 0.416359
vt 0.971614 0.408183
vt 0.651289 0.416482
s 1
f 100/1/100 98/2/98 58/3/58 60/4/60
f 21/5/21 97/6/97 59/7/59 22/8/22
f 115/9/115 114/10/114 126/11/126 125/12/125
f 102/13/102 100/1/100 60/4/60 62/14/62
f 92/15/92 89/16/89 49/17/49 52/18/52
f 98/2/98 96/19/96 56/20/56 58/3/58
f 17/21/17 90/22/90 51/23/51 18/24/18
f 89/16/89 104/25/104 64/26/64 49/17/49
f 94/27/94 92/15/92 52/18/52 54/28/54
f 21/5/21 22/8/22 30/29/30 29/30/29
f 19/31/19 53/32/53 55/33/55 20/34/20
f 24/35/24 103/36/103 90/22/90 17/21/17
f 22/8/22 59/7/59 101/37/101 23/38/23
f 20/34/20 55/33/55 97/6/97 21/5/21
f 18/24/18 51/23/51 53/39/53 19/40/19
f 104/25/104 102/13/102 62/14/62 64/26/64
f 23/38/23 101/37/101 103/36/103 24/35/24
f 31/41/31 32/42/32 40/43/40 39/44/39
f 19/31/19 20/34/20 28/45/28 27/46/27
f 17/21/17 18/24/18 26/47/26 25/48/25
f 24/35/24 17/21/17 25/48/25 32/42/32
f 22/8/22 23/38/23 31/41/31 30/29/30
f 20/34/20 21/5/21 29/30/29 28/45/28
f 18/24/18 19/40/19 27/49/27 26/47/26
f 23/38/23 24/35/24 32/42/32 31/41/31
f 38/50/38 39/44/39 47/51/47 46/52/46
f 29/30/29 30/29/30 38/50/38 37/53/37
f 27/46/27 28/45/28 36/54/36 35/55/35
f 25/48/25 26/47/26 34/56/34 33/57/33
f 32/42/32 25/48/25 33/57/33 40/43/40
f 30/29/30 31/41/31 39/44/39 38/50/38
f 28/45/28 29/30/29 37/53/37 36/54/36
f 26/47/26 27/49/27 35/58/35 34/56/34
f 36/54/36 37/53/37 45/59/45 44/60/44
f 34/56/34 35/58/35 43/61/43 42/62/42
f 39/44/39 40/43/40 48/63/48 47/51/47
f 37/53/37 38/50/38 46/52/46 45/59/45
f 35/55/35 36/54/36 44/60/44 43/64/43
f 33/57/33 34/56/34 42/62/42 41/65/41
f 40/43/40 33/57/33 41/65/41 48/63/48
f 46/66/46 41/67/41 42/68/42 45/69/45
f 45/69/45 42/68/42 43/70/43 44/71/44
f 110/72/110 2/73/2 5/74/5 6/75/6
f 11/76/11 13/77/13 5/74/5 2/73/2
f 126/11/126 114/10/114 14/78/14 107/79/107
f 59/7/59 97/6/97 11/76/11 12/80/12
f 103/36/103 101/37/101 10/81/10 15/82/15
f 51/23/51 90/22/90 16/83/16 9/84/9
f 101/37/101 59/7/59 12/80/12 10/81/10
f 71/85/71 72/86/72 78/87/78 79/88/79
f 83/89/83 68/90/68 67/91/67 84/92/84
f 73/93/73 74/94/74 80/95/80 75/96/75
f 69/97/69 70/98/70 76/99/76 77/100/77
f 67/91/67 68/90/68 73/101/73 75/102/75
f 66/103/66 71/85/71 79/88/79 80/104/80
f 72/86/72 69/97/69 77/100/77 78/87/78
f 70/98/70 67/105/67 75/96/75 76/99/76
f 68/90/68 65/106/65 74/107/74 73/101/73
f 65/106/65 66/103/66 80/104/80 74/107/74
f 119/108/119 88/109/88 81/110/81 120/111/120
f 118/112/118 87/113/87 88/109/88 119/108/119
f 117/114/117 86/115/86 87/113/87 118/112/118
f 50/116/50 85/117/85 86/115/86 117/114/117
f 57/118/57 84/119/84 85/117/85 50/116/50
f 61/120/61 83/121/83 84/122/84 57/123/57
f 63/124/63 82/125/82 83/121/83 61/120/61
f 120/111/120 81/110/81 82/125/82 63/124/63
f 86/126/86 69/97/69 72/86/72 87/127/87
f 88/128/88 71/85/71 66/103/66 81/129/81
f 83/89/83 82/130/82 65/106/65 68/90/68
f 87/127/87 72/86/72 71/85/71 88/128/88
f 66/103/66 65/106/65 82/130/82 81/129/81
f 84/131/84 67/105/67 70/98/70 85/132/85
f 75/96/75 80/95/80 79/133/79 76/99/76
f 76/99/76 79/133/79 78/134/78 77/135/77
f 41/67/41 46/66/46 47/136/47 48/137/48
f 85/132/85 70/98/70 69/97/69 86/126/86
f 98/2/98 100/1/100 8/138/8 110/72/110
f 92/15/92 94/27/94 111/139/111 112/140/112
f 15/82/15 16/83/16 90/22/90 103/36/103
f 12/80/12 11/76/11 2/73/2 7/141/7
f 100/1/100 102/13/102 109/142/109 8/138/8
f 16/83/16 15/82/15 106/143/106 3/144/3
f 11/76/11 97/6/97 55/33/55 13/77/13
f 14/145/14 53/39/53 51/23/51 9/84/9
f 54/146/54 57/147/57 123/148/123 94/149/94
f 108/150/108 4/151/4 3/144/3 106/143/106
f 107/79/107 111/152/111 93/153/93 126/11/126
f 7/141/7 2/73/2 110/72/110 8/138/8
f 106/143/106 1/154/1 109/142/109 108/150/108
f 105/155/105 3/144/3 4/151/4 112/140/112
f 1/154/1 7/141/7 8/138/8 109/142/109
f 111/139/111 107/156/107 105/155/105 112/140/112
f 104/25/104 89/16/89 4/151/4 108/150/108
f 10/81/10 12/80/12 7/141/7 1/154/1
f 89/16/89 92/15/92 112/140/112 4/151/4
f 96/19/96 98/2/98 110/72/110 6/75/6
f 9/84/9 16/83/16 3/144/3 105/155/105
f 15/82/15 10/81/10 1/154/1 106/143/106
f 102/13/102 104/25/104 108/150/108 109/142/109
f 14/145/14 9/84/9 105/155/105 107/156/107
f 116/157/116 113/158/113 114/10/114 115/9/115
f 55/159/55 53/160/53 113/158/113 116/157/116
f 53/161/53 14/78/14 114/10/114 113/158/113
f 13/162/13 55/163/55 116/157/116 115/9/115
f 91/164/91 93/153/93 99/165/99 95/166/95
f 124/167/124 123/168/123 57/169/57 50/170/50
f 64/171/64 120/111/120 63/124/63 49/172/49
f 49/172/49 63/124/63 61/120/61 52/173/52
f 52/173/52 61/120/61 57/123/57 54/174/54
f 96/175/96 124/176/124 50/177/50 56/178/56
f 56/179/56 50/116/50 117/114/117 58/180/58
f 58/180/58 117/114/117 118/112/118 60/181/60
f 60/181/60 118/112/118 119/108/119 62/182/62
f 62/182/62 119/108/119 120/111/120 64/171/64
f 125/12/125 126/11/126 93/153/93 91/164/91
f 95/166/95 99/165/99 122/183/122 121/184/121
f 93/153/93 111/152/111 122/185/122 99/165/99
f 122/185/122 111/152/111 94/149/94 123/148/123
f 121/184/121 122/183/122 123/168/123 124/167/124
f 124/176/124 96/175/96 6/186/6 121/187/121
f 13/162/13 115/9/115 125/12/125 5/188/5
f 5/188/5 125/12/125 91/164/91 6/186/6
f 95/166/95 121/187/121 6/186/6 91/164/91
