# Blender 4.5.1 LTS
# www.blender.org
mtllib Pencil.mtl
o Cylinder.019
v -0.013157 0.073525 -0.005451
v -0.013157 0.069052 0.005449
v -0.005450 0.073525 0.013156
v 0.005450 0.069052 0.013156
v 0.005398 0.716889 0.013031
v 0.013032 0.716889 0.005397
v -0.013031 0.716889 0.005397
v -0.005398 0.716889 0.013031
v -0.005398 0.716889 -0.013033
v -0.013031 0.716889 -0.005399
v 0.013032 0.716889 -0.005399
v 0.005398 0.716889 -0.013033
v -0.004413 0.723114 0.010655
v 0.004414 0.723114 0.010655
v -0.010656 0.723114 0.004413
v -0.010656 0.723114 -0.004415
v -0.004414 0.723114 -0.010657
v 0.004414 0.723114 -0.010657
v 0.010656 0.723114 -0.004415
v 0.010656 0.723114 0.004413
v 0.013354 0.447405 0.005530
v 0.005531 0.447405 0.013352
v -0.005531 0.447405 0.013352
v -0.013353 0.447405 0.005530
v -0.013353 0.447405 -0.005532
v -0.005531 0.447405 -0.013355
v 0.005531 0.447405 -0.013355
v 0.013354 0.447405 -0.005532
v -0.000489 0.000000 -0.000204
v 0.000490 0.000000 0.000202
v 0.000490 0.000000 -0.000204
v 0.000203 0.000000 -0.000490
v -0.004529 0.018809 -0.001877
v -0.000202 0.000000 -0.000490
v 0.000203 0.000000 0.000488
v -0.000202 0.000000 0.000488
v -0.005451 0.075725 0.013159
v -0.000489 0.000000 0.000202
v -0.001057 0.000520 0.000437
v -0.000437 0.000520 0.001056
v 0.000438 0.000520 0.001056
v -0.000437 0.000520 -0.001058
v 0.000438 0.000520 -0.001058
v 0.001057 0.000520 -0.000439
v 0.001057 0.000520 0.000437
v -0.001057 0.000520 -0.000439
v 0.004530 0.018809 0.001875
v 0.004530 0.018809 -0.001877
v 0.001876 0.018809 -0.004531
v -0.001876 0.018809 -0.004531
v 0.001876 0.018809 0.004528
v -0.001876 0.018809 0.004528
v -0.004529 0.018809 0.001875
v 0.005452 0.075725 0.013159
v -0.005450 0.069052 -0.013158
v 0.005450 0.073525 -0.013158
v 0.013157 0.069052 -0.005451
v 0.013157 0.073525 0.005449
v -0.013160 0.075725 0.005450
v -0.013160 0.075725 -0.005452
v 0.013161 0.075725 0.005450
v -0.005451 0.075725 -0.013162
v 0.005452 0.075725 -0.013162
v 0.013161 0.075725 -0.005452
v 0.012576 0.720701 0.005208
v 0.012576 0.720701 -0.005210
v -0.005209 0.720701 -0.012577
v -0.012575 0.720701 0.005208
v 0.005209 0.720701 -0.012577
v -0.012575 0.720701 -0.005210
v -0.005209 0.720701 0.012574
v 0.005209 0.720701 0.012574
v -0.002650 0.724807 0.006398
v 0.002651 0.724807 0.006398
v -0.006398 0.724807 0.002649
v -0.006398 0.724807 -0.002652
v -0.002650 0.724807 -0.006400
v 0.002651 0.724807 -0.006400
v 0.006399 0.724807 -0.002652
v 0.006399 0.724807 0.002649
v 0.005404 0.704820 -0.013047
v -0.013046 0.704820 -0.005405
v -0.005404 0.704820 0.013045
v 0.005404 0.704820 0.013045
v 0.013046 0.704820 -0.005405
v -0.005404 0.704820 -0.013047
v -0.013046 0.704820 0.005403
v 0.013046 0.704820 0.005403
v 0.013114 0.648530 -0.005433
v -0.005431 0.648530 -0.013114
v -0.013113 0.648530 0.005431
v 0.013114 0.648530 0.005431
v 0.005432 0.648530 -0.013114
v -0.013113 0.648530 -0.005433
v -0.005431 0.648530 0.013112
v 0.005432 0.648530 0.013112
v 0.005815 0.648825 -0.014040
v 0.005785 0.704525 -0.013968
v -0.014038 0.648825 -0.005816
v -0.013966 0.704525 -0.005786
v -0.005815 0.648825 0.014037
v -0.005785 0.704525 0.013965
v 0.005815 0.648825 0.014037
v 0.005785 0.704525 0.013965
v -0.005785 0.704525 -0.013968
v -0.013966 0.704525 0.005784
v 0.013967 0.704525 0.005784
v 0.013967 0.704525 -0.005786
v 0.014039 0.648825 -0.005816
v -0.005815 0.648825 -0.014040
v -0.014038 0.648825 0.005814
v 0.014039 0.648825 0.005814
vn -0.9220 -0.0641 -0.3819
vn -0.9183 -0.1098 0.3804
vn -0.3819 -0.0641 0.9220
vn 0.3804 -0.1098 0.9183
vn 0.3819 0.0640 0.9220
vn 0.9220 0.0640 0.3819
vn -0.9220 0.0640 0.3819
vn -0.3819 0.0640 0.9220
vn -0.3819 0.0640 -0.9220
vn -0.9220 0.0640 -0.3819
vn 0.9220 0.0640 -0.3819
vn 0.3819 0.0640 -0.9220
vn -0.2330 0.7933 0.5625
vn 0.2330 0.7933 0.5625
vn -0.5625 0.7933 0.2330
vn -0.5625 0.7933 -0.2330
vn -0.2330 0.7933 -0.5625
vn 0.2330 0.7933 -0.5625
vn 0.5625 0.7933 -0.2330
vn 0.5625 0.7933 0.2330
vn 0.9239 0.0004 0.3827
vn 0.3827 0.0004 0.9239
vn -0.3827 0.0004 0.9239
vn -0.9239 0.0004 0.3827
vn -0.9239 0.0004 -0.3827
vn -0.3827 0.0004 -0.9239
vn 0.3827 0.0004 -0.9239
vn 0.9239 0.0004 -0.3827
vn -0.3835 -0.9098 -0.1588
vn 0.3835 -0.9098 0.1588
vn 0.3835 -0.9098 -0.1588
vn 0.1588 -0.9098 -0.3835
vn -0.9078 -0.1857 -0.3760
vn -0.1588 -0.9098 -0.3835
vn 0.1588 -0.9098 0.3835
vn -0.1588 -0.9098 0.3835
vn -0.3827 -0.0007 0.9239
vn -0.3835 -0.9098 0.1588
vn -0.8115 -0.4780 0.3361
vn -0.3361 -0.4780 0.8115
vn 0.3361 -0.4780 0.8115
vn -0.3361 -0.4780 -0.8115
vn 0.3361 -0.4780 -0.8115
vn 0.8115 -0.4780 -0.3361
vn 0.8115 -0.4780 0.3361
vn -0.8115 -0.4780 -0.3361
vn 0.9078 -0.1857 0.3760
vn 0.9071 -0.1897 -0.3757
vn 0.3760 -0.1857 -0.9078
vn -0.3757 -0.1897 -0.9071
vn 0.3757 -0.1897 0.9071
vn -0.3760 -0.1857 0.9078
vn -0.9071 -0.1897 0.3757
vn 0.3827 -0.0007 0.9239
vn -0.3804 -0.1098 -0.9183
vn 0.3819 -0.0641 -0.9220
vn 0.9183 -0.1098 -0.3804
vn 0.9220 -0.0641 0.3819
vn -0.9239 -0.0007 0.3827
vn -0.9239 -0.0007 -0.3827
vn 0.9239 -0.0007 0.3827
vn -0.3827 -0.0007 -0.9239
vn 0.3827 -0.0007 -0.9239
vn 0.9239 -0.0007 -0.3827
vn 0.8532 0.3836 0.3534
vn 0.8532 0.3836 -0.3534
vn -0.3534 0.3836 -0.8532
vn -0.8532 0.3836 0.3534
vn 0.3534 0.3836 -0.8532
vn -0.8532 0.3836 -0.3534
vn -0.3534 0.3836 0.8532
vn 0.3534 0.3836 0.8532
vn -0.0830 0.9762 0.2003
vn 0.0830 0.9762 0.2003
vn -0.2003 0.9762 0.0830
vn -0.2003 0.9762 -0.0830
vn -0.0830 0.9762 -0.2003
vn 0.0830 0.9762 -0.2003
vn 0.2003 0.9762 -0.0830
vn 0.2003 0.9762 0.0830
vn 0.2805 0.6802 -0.6773
vn -0.6773 0.6802 -0.2805
vn -0.2805 0.6802 0.6773
vn 0.2805 0.6802 0.6773
vn 0.6773 0.6802 -0.2805
vn -0.2805 0.6802 -0.6773
vn -0.6773 0.6802 0.2805
vn 0.6772 0.6802 0.2805
vn 0.6775 -0.6799 -0.2806
vn -0.2806 -0.6799 -0.6775
vn -0.6775 -0.6799 0.2806
vn 0.6775 -0.6799 0.2806
vn 0.2806 -0.6799 -0.6775
vn -0.6775 -0.6799 -0.2806
vn -0.2806 -0.6799 0.6775
vn 0.2806 -0.6799 0.6775
vn 0.3229 -0.5368 -0.7795
vn 0.3227 0.5374 -0.7791
vn -0.7795 -0.5368 -0.3229
vn -0.7791 0.5375 -0.3227
vn -0.3229 -0.5368 0.7795
vn -0.3227 0.5374 0.7791
vn 0.3229 -0.5368 0.7795
vn 0.3227 0.5374 0.7791
vn -0.3227 0.5374 -0.7791
vn -0.7791 0.5375 0.3227
vn 0.7791 0.5375 0.3227
vn 0.7791 0.5374 -0.3227
vn 0.7795 -0.5368 -0.3229
vn -0.3229 -0.5368 -0.7795
vn -0.7795 -0.5368 0.3229
vn 0.7795 -0.5368 0.3229
vt 0.518345 0.373429
vt 0.518453 0.351691
vt 0.525311 0.352688
vt 0.525236 0.372337
vt 0.532452 0.465346
vt 0.552864 0.435973
vt 0.581922 0.448625
vt 0.562781 0.482502
vt 0.561389 0.419948
vt 0.543507 0.407441
vt 0.553388 0.397989
vt 0.567539 0.407009
vt 0.524256 0.330347
vt 0.537110 0.312061
vt 0.542329 0.317072
vt 0.530883 0.333439
vt 0.586013 0.437018
vt 0.557784 0.427096
vt 0.586519 0.426742
vt 0.525020 0.394137
vt 0.531381 0.390848
vt 0.557964 0.295940
vt 0.561162 0.304462
vt 0.538023 0.412933
vt 0.119148 0.000243
vt 0.119148 0.999858
vt 0.089396 0.999852
vt 0.089826 0.000236
vt 0.148470 0.000236
vt 0.148900 0.999852
vt 0.177792 0.000217
vt 0.178651 0.999833
vt 0.207114 0.000186
vt 0.208403 0.999801
vt 0.236436 0.000142
vt 0.238154 0.999756
vt 0.031182 0.000186
vt 0.029893 0.999801
vt 0.000142 0.999756
vt 0.001860 0.000142
vt 0.060504 0.000217
vt 0.059645 0.999833
vt 0.487620 0.313888
vt 0.516473 0.326769
vt 0.509914 0.350289
vt 0.476733 0.345536
vt 0.477501 0.379543
vt 0.509378 0.374817
vt 0.517248 0.398237
vt 0.486236 0.413121
vt 0.506507 0.441492
vt 0.531469 0.419219
vt 0.328227 0.541074
vt 0.299011 0.541117
vt 0.297941 0.000201
vt 0.327692 0.000157
vt 0.525860 0.262960
vt 0.551411 0.287220
vt 0.530271 0.305863
vt 0.504147 0.285852
vt 0.563698 0.318395
vt 0.550641 0.326355
vt 0.542317 0.339259
vt 0.538812 0.354790
vt 0.668110 0.488128
vt 0.665665 0.485834
vt 0.666615 0.484821
vt 0.669060 0.487115
vt 0.668003 0.484777
vt 0.669016 0.485727
vt 0.665709 0.487222
vt 0.666722 0.488172
vt 0.667311 0.490993
vt 0.665541 0.490129
vt 0.668090 0.488606
vt 0.671425 0.491350
vt 0.669305 0.491437
vt 0.669469 0.489057
vt 0.670843 0.489084
vt 0.661932 0.485231
vt 0.661674 0.482786
vt 0.664357 0.483345
vt 0.664482 0.484719
vt 0.664032 0.488899
vt 0.662772 0.487276
vt 0.664925 0.486057
vt 0.673623 0.490539
vt 0.672015 0.488596
vt 0.681114 0.537393
vt 0.670881 0.537389
vt 0.634016 0.522167
vt 0.626779 0.515070
vt 0.620641 0.506760
vt 0.615876 0.497599
vt 0.660853 0.535798
vt 0.642238 0.528108
vt 0.651247 0.532685
vt 0.540735 0.637145
vt 0.527374 0.608267
vt 0.571927 0.643940
vt 0.562247 0.659963
vt 0.536870 0.641957
vt 0.592428 0.668349
vt 0.589973 0.674006
vt 0.624208 0.666740
vt 0.619058 0.684602
vt 0.650190 0.685158
vt 0.649134 0.691137
vt 0.681114 0.676491
vt 0.678923 0.695092
vt 0.498932 0.593767
vt 0.494116 0.597490
vt 0.476733 0.572884
vt 0.492228 0.562277
vt 0.513932 0.621143
vt 0.578559 0.321999
vt 0.586519 0.335056
vt 0.582915 0.349917
vt 0.569858 0.357877
vt 0.554997 0.354273
vt 0.547037 0.341216
vt 0.543164 0.385236
vt 0.537289 0.370591
vt 0.584540 0.410155
vt 0.490300 0.060573
vt 0.490262 0.030551
vt 0.492849 0.030203
vt 0.493192 0.060671
vt 0.632306 0.227734
vt 0.640383 0.260590
vt 0.637382 0.262677
vt 0.629460 0.228123
vt 0.482452 0.002030
vt 0.485023 0.000142
vt 0.630731 0.063993
vt 0.633193 0.095392
vt 0.630218 0.095933
vt 0.627846 0.063981
vt 0.476734 0.126994
vt 0.487307 0.092680
vt 0.490440 0.093262
vt 0.479780 0.129381
vt 0.642537 0.130119
vt 0.633550 0.163174
vt 0.630661 0.162668
vt 0.639898 0.128149
vt 0.487065 0.224758
vt 0.488415 0.194415
vt 0.491309 0.194430
vt 0.489674 0.225227
vt 0.268189 0.000274
vt 0.269794 0.541190
vt 0.240577 0.541291
vt 0.238438 0.000377
vt 0.416947 0.000201
vt 0.415877 0.541117
vt 0.386661 0.541074
vt 0.387195 0.000157
vt 0.357444 0.000142
vt 0.357444 0.541060
vt 0.476450 0.000377
vt 0.474311 0.541291
vt 0.445094 0.541190
vt 0.446698 0.000274
vt 0.631383 0.195564
vt 0.628159 0.195504
vt 0.629942 0.033250
vt 0.638827 0.000142
vt 0.489587 0.162114
vt 0.480364 0.255465
vt 0.632642 0.033720
vt 0.486600 0.162612
vt 0.641651 0.002270
vt 0.477833 0.253427
vt 0.642334 0.126243
vt 0.477023 0.131536
s 1
f 66/1/66 69/2/69 18/3/18 19/4/19
f 83/5/83 8/6/8 7/7/7 87/8/87
f 13/9/13 14/10/14 74/11/74 73/12/73
f 67/13/67 70/14/70 16/15/16 17/16/17
f 68/17/68 71/18/71 13/9/13 15/19/15
f 65/20/65 66/1/66 19/4/19 20/21/20
f 69/2/69 67/13/67 17/16/17 18/3/18
f 70/14/70 68/22/68 15/23/15 16/15/16
f 71/18/71 72/24/72 14/10/14 13/9/13
f 72/24/72 65/20/65 20/21/20 14/10/14
f 64/25/64 28/26/28 21/27/21 61/28/61
f 63/29/63 27/30/27 28/26/28 64/25/64
f 62/31/62 26/32/26 27/30/27 63/29/63
f 60/33/60 25/34/25 26/32/26 62/31/62
f 59/35/59 24/36/24 25/34/25 60/33/60
f 37/37/37 23/38/23 24/39/24 59/40/59
f 54/41/54 22/42/22 23/38/23 37/37/37
f 61/28/61 21/27/21 22/42/22 54/41/54
f 86/43/86 9/44/9 12/45/12 81/46/81
f 85/47/85 11/48/11 6/49/6 88/50/88
f 83/5/83 84/51/84 5/52/5 8/6/8
f 81/46/81 12/45/12 11/48/11 85/47/85
f 92/53/92 96/54/96 22/55/22 21/56/21
f 87/57/87 7/58/7 10/59/10 82/60/82
f 16/15/16 15/23/15 75/61/75 76/62/76
f 18/3/18 17/16/17 77/63/77 78/64/78
f 82/60/82 10/59/10 9/44/9 86/43/86
f 32/65/32 35/66/35 36/67/36 34/68/34
f 34/68/34 36/67/36 38/69/38 29/70/29
f 30/71/30 35/66/35 32/65/32 31/72/31
f 43/73/43 44/74/44 31/72/31 32/75/32
f 46/76/46 42/77/42 34/78/34 29/79/29
f 40/80/40 39/81/39 38/82/38 36/83/36
f 45/84/45 41/85/41 35/86/35 30/71/30
f 44/74/44 45/84/45 30/71/30 31/72/31
f 42/77/42 43/73/43 32/75/32 34/78/34
f 39/87/39 46/76/46 29/79/29 38/88/38
f 41/85/41 40/80/40 36/83/36 35/86/35
f 53/89/53 33/90/33 46/76/46 39/87/39
f 47/91/47 51/92/51 41/85/41 45/84/45
f 52/93/52 53/94/53 39/81/39 40/80/40
f 33/90/33 50/95/50 42/77/42 46/76/46
f 48/96/48 47/91/47 45/84/45 44/74/44
f 50/95/50 49/97/49 43/73/43 42/77/42
f 58/98/58 4/99/4 51/92/51 47/91/47
f 49/97/49 48/96/48 44/74/44 43/73/43
f 51/92/51 52/93/52 40/80/40 41/85/41
f 57/100/57 64/101/64 61/102/61 58/98/58
f 56/103/56 63/104/63 64/101/64 57/100/57
f 55/105/55 62/106/62 63/104/63 56/103/56
f 1/107/1 60/108/60 62/106/62 55/105/55
f 2/109/2 59/110/59 60/108/60 1/107/1
f 3/111/3 37/112/37 59/113/59 2/114/2
f 4/99/4 54/115/54 37/112/37 3/111/3
f 55/105/55 56/103/56 49/97/49 50/95/50
f 58/98/58 61/102/61 54/115/54 4/99/4
f 1/107/1 55/105/55 50/95/50 33/90/33
f 56/103/56 57/100/57 48/96/48 49/97/49
f 2/109/2 1/107/1 33/90/33 53/89/53
f 3/111/3 2/114/2 53/94/53 52/93/52
f 57/100/57 58/98/58 47/91/47 48/96/48
f 4/99/4 3/111/3 52/93/52 51/92/51
f 5/52/5 6/49/6 65/20/65 72/24/72
f 8/6/8 5/52/5 72/24/72 71/18/71
f 10/59/10 7/58/7 68/22/68 70/14/70
f 12/45/12 9/44/9 67/13/67 69/2/69
f 6/49/6 11/48/11 66/1/66 65/20/65
f 7/7/7 8/6/8 71/18/71 68/17/68
f 9/44/9 10/59/10 70/14/70 67/13/67
f 11/48/11 12/45/12 69/2/69 66/1/66
f 73/116/73 74/117/74 80/118/80 75/61/75
f 75/61/75 80/118/80 79/119/79 76/62/76
f 76/62/76 79/119/79 78/120/78 77/121/77
f 14/10/14 20/21/20 80/122/80 74/11/74
f 19/4/19 18/3/18 78/64/78 79/123/79
f 17/16/17 16/15/16 76/62/76 77/63/77
f 15/19/15 13/9/13 73/12/73 75/124/75
f 20/21/20 19/4/19 79/123/79 80/122/80
f 90/125/90 94/126/94 99/127/99 110/128/110
f 83/129/83 87/130/87 106/131/106 102/132/102
f 6/49/6 5/52/5 84/51/84 88/50/88
f 94/126/94 91/133/91 111/134/111 99/127/99
f 86/135/86 81/136/81 98/137/98 105/138/105
f 89/139/89 93/140/93 97/141/97 109/142/109
f 85/143/85 88/144/88 107/145/107 108/146/108
f 95/147/95 96/148/96 103/149/103 101/150/101
f 23/151/23 95/152/95 91/153/91 24/154/24
f 26/155/26 90/156/90 93/157/93 27/158/27
f 28/159/28 89/160/89 92/53/92 21/56/21
f 23/151/23 22/55/22 96/54/96 95/152/95
f 27/158/27 93/157/93 89/160/89 28/159/28
f 24/161/24 91/162/91 94/163/94 25/164/25
f 25/164/25 94/163/94 90/156/90 26/155/26
f 84/165/84 83/129/83 102/132/102 104/166/104
f 99/127/99 100/167/100 105/138/105 110/128/110
f 111/134/111 106/168/106 100/167/100 99/127/99
f 97/141/97 98/137/98 108/146/108 109/142/109
f 101/150/101 103/149/103 104/166/104 102/132/102
f 109/142/109 108/146/108 107/145/107 112/169/112
f 110/128/110 105/138/105 98/137/98 97/141/97
f 101/150/101 102/132/102 106/131/106 111/170/111
f 107/145/107 104/166/104 103/149/103 112/169/112
f 82/171/82 86/135/86 105/138/105 100/167/100
f 96/148/96 92/172/92 112/169/112 103/149/103
f 87/173/87 82/171/82 100/167/100 106/168/106
f 91/174/91 95/147/95 101/150/101 111/170/111
f 88/144/88 84/165/84 104/166/104 107/145/107
f 93/140/93 90/125/90 110/128/110 97/141/97
f 81/136/81 85/175/85 108/146/108 98/137/98
f 92/172/92 89/176/89 109/142/109 112/169/112
