# Blender 4.5.1 LTS
# www.blender.org
mtllib PictureFrame_3.mtl
o Cube.002
v -0.039957 1.078390 1.043468
v -0.117447 1.060864 1.043468
v -0.039957 1.078390 -0.934389
v -0.117447 1.060864 -0.934389
v 0.415272 -0.934366 1.043468
v 0.337781 -0.951892 1.043468
v 0.415272 -0.934366 -0.934389
v 0.337781 -0.951892 -0.934389
v 0.018719 1.048504 0.988727
v 0.455375 -0.882138 0.988727
v 0.455375 -0.882138 -0.879649
v 0.018719 1.048504 -0.879649
v -0.020310 0.991526 -0.934389
v 0.395626 -0.847502 -0.934389
v 0.318135 -0.865028 -0.934389
v -0.097801 0.974000 -0.934389
v 0.395626 -0.847502 1.043468
v -0.020310 0.991526 1.043468
v -0.097801 0.974000 1.043468
v 0.318135 -0.865028 1.043468
v 0.037593 0.965055 0.988727
v 0.436502 -0.798689 0.988727
v 0.436502 -0.798689 -0.879649
v 0.037593 0.965055 -0.879649
v 0.337781 -0.951892 0.952168
v 0.337781 -0.951892 -0.843089
v 0.415272 -0.934366 -0.843089
v 0.415272 -0.934366 0.952168
v -0.117447 1.060864 -0.843089
v -0.117447 1.060864 0.952168
v -0.039957 1.078390 0.952168
v -0.039957 1.078390 -0.843089
v -0.084375 0.914639 0.880790
v -0.084375 0.914639 -0.771711
v 0.304709 -0.805667 -0.771711
v 0.304709 -0.805667 0.880790
v 0.387112 -0.809860 0.904183
v 0.387112 -0.809860 -0.795104
v -0.011797 0.953884 -0.795104
v -0.011797 0.953884 0.904183
v 0.455375 -0.882138 -0.795104
v 0.455375 -0.882138 0.904183
v 0.436502 -0.798689 0.904183
v 0.436502 -0.798689 -0.795104
v 0.037593 0.965055 -0.795104
v 0.037593 0.965055 0.904183
v 0.018719 1.048504 0.904183
v 0.018719 1.048504 -0.795104
v 0.018719 1.048504 -0.748318
v 0.018719 1.048504 0.857397
v 0.037593 0.965055 0.857397
v 0.037593 0.965055 -0.748318
v 0.455375 -0.882138 -0.748318
v 0.455375 -0.882138 0.857397
v 0.436502 -0.798689 0.857397
v 0.436502 -0.798689 -0.748318
v 0.415272 -0.934366 0.857397
v 0.415272 -0.934366 -0.748318
v 0.387112 -0.809860 -0.748318
v 0.387112 -0.809860 0.857397
v -0.011797 0.953884 -0.748318
v -0.011797 0.953884 0.857397
v -0.039957 1.078390 -0.748318
v -0.039957 1.078390 0.857397
v 0.337781 -0.951892 -0.748318
v 0.337781 -0.951892 0.857397
v -0.117447 1.060864 0.857397
v -0.117447 1.060864 -0.748318
v 0.377288 -0.766423 -0.795104
v -0.001973 0.910447 -0.795104
v 0.377288 -0.766423 0.904183
v -0.001973 0.910447 0.904183
v 0.426677 -0.755252 -0.879649
v 0.047417 0.921618 -0.879649
v 0.377288 -0.766423 1.043468
v -0.001973 0.910447 1.043468
v -0.001973 0.910447 -0.934389
v 0.377288 -0.766423 -0.934389
v 0.299797 -0.783949 1.043468
v -0.079463 0.892921 1.043468
v 0.299797 -0.783949 -0.934389
v -0.079463 0.892921 -0.934389
v 0.426677 -0.755252 0.904183
v 0.047417 0.921618 0.904183
v 0.047417 0.921618 -0.795104
v 0.426677 -0.755252 -0.795104
v 0.047417 0.921618 0.988727
v 0.426677 -0.755252 0.988727
v -0.001973 0.910447 -0.748318
v 0.377288 -0.766423 -0.748318
v -0.001973 0.910447 0.857397
v 0.377288 -0.766423 0.857397
v -0.004474 0.955541 -0.795104
v -0.004474 0.955541 0.904183
v 0.394435 -0.808203 0.904183
v 0.394435 -0.808203 -0.795104
v -0.004474 0.955541 0.857397
v -0.004474 0.955541 -0.748318
v 0.394435 -0.808203 -0.748318
v 0.394435 -0.808203 0.857397
v 0.005351 0.912104 -0.795104
v 0.384611 -0.764766 -0.795104
v 0.384611 -0.764766 0.904183
v 0.005351 0.912104 0.904183
v 0.027938 0.962871 0.904183
v 0.426847 -0.800873 0.904183
v 0.426847 -0.800873 -0.795104
v 0.027938 0.962871 0.857397
v 0.426847 -0.800873 -0.748318
v 0.037762 0.919434 -0.795104
v 0.417023 -0.757436 0.904183
v 0.027938 0.962871 -0.795104
v 0.027938 0.962871 -0.748318
v 0.426847 -0.800873 0.857397
v 0.417023 -0.757436 -0.795104
v 0.037762 0.919434 0.904183
v -0.123780 0.594057 -0.059785
v 0.036303 0.185067 0.459553
v 0.073337 0.168951 0.436788
v -0.087031 0.578341 -0.081924
v -0.573251 -0.080781 -0.446992
v -0.416382 -0.485248 0.079411
v -0.376984 -0.489695 0.064908
v -0.533853 -0.085227 -0.461495
v -0.848143 -0.544913 -0.721040
v -0.889191 -0.548611 -0.712304
v -0.732322 -0.953079 -0.185901
v -0.691274 -0.949381 -0.194638
v -0.026650 0.422186 0.246536
v 0.007842 0.400342 0.215532
v -0.494816 -0.283014 -0.183791
v -0.455418 -0.287461 -0.198294
v -0.947501 -0.953330 -0.563934
v -0.905738 -0.946106 -0.570174
v 0.004592 0.627337 -0.070578
v 0.068812 0.440571 0.217971
v -0.022795 0.652097 -0.043058
v 0.080387 0.216069 0.463242
v 0.102968 0.188906 0.434446
v 0.043849 0.471224 0.253990
v -0.117990 0.579300 -0.041170
v -0.081224 0.563560 -0.063347
v -0.567607 -0.095331 -0.428055
v -0.893387 -0.577731 -0.701629
v -0.852287 -0.573779 -0.710186
v -0.528209 -0.099778 -0.442558
v 0.008134 0.612008 -0.052512
v -0.019247 0.636761 -0.025003
v -0.383637 -0.472540 0.042582
v 0.029650 0.202222 0.437227
v 0.066683 0.186105 0.414462
v -0.423035 -0.468094 0.057085
v -0.750575 -0.953100 -0.217968
v -0.709466 -0.949103 -0.226492
v 0.075975 0.234753 0.441236
v 0.098973 0.207780 0.412525
vn 0.9754 0.2206 -0.0000
vn -0.9754 -0.2206 -0.0000
vn 0.2206 -0.9754 -0.0000
vn -0.2206 0.9754 -0.0000
vn -0.0000 -0.0000 1.0000
vn -0.0000 -0.0000 -1.0000
vn 0.7160 0.1619 0.6791
vn 0.7160 0.1619 -0.6791
vn 0.7931 -0.6090 -0.0000
vn 0.4539 0.8911 -0.0000
vn 0.8279 -0.2976 -0.4754
vn -0.8310 0.2931 0.4728
vn 0.2203 -0.5895 0.7771
vn -0.2175 0.5908 -0.7770
vn -0.8334 0.2830 0.4746
vn -0.2192 0.5891 -0.7778
vn -0.8287 0.2639 0.4936
vn -0.4365 0.5221 0.7327
vn -0.5041 0.6842 0.5270
vn -0.1662 -0.3221 -0.9320
vn -0.1227 -0.3299 -0.9360
vn 0.8383 -0.2960 -0.4579
vn 0.3304 -0.4992 0.8010
vn -0.4641 0.6232 0.6295
vn 0.0825 -0.9953 -0.0510
vn 0.4005 -0.6610 -0.6346
vn 0.8306 -0.2865 -0.4775
vn -0.4859 0.6164 0.6196
vn -0.8430 0.2939 0.4506
vn 0.8261 -0.2728 -0.4931
vn 0.4245 -0.6434 -0.6370
vn 0.2192 -0.5891 0.7778
vn 0.4598 -0.6972 -0.5500
vn 0.1210 -0.9900 -0.0730
vn -0.2198 0.5977 -0.7710
vn 0.3804 -0.5672 -0.7304
vt 0.447185 0.529447
vt 0.466689 0.529447
vt 0.466689 0.509710
vt 0.447185 0.509710
vt 0.447185 0.966330
vt 0.466689 0.966330
vt 0.466689 0.946593
vt 0.447185 0.946593
vt 0.035682 0.529447
vt 0.055185 0.529447
vt 0.055185 0.509710
vt 0.035682 0.509710
vt 0.035682 0.966330
vt 0.055185 0.966330
vt 0.055185 0.946593
vt 0.035682 0.946593
vt 0.458255 0.476193
vt 0.479316 0.476193
vt 0.479316 0.455648
vt 0.441789 0.441609
vt 0.023054 0.476193
vt 0.044116 0.476193
vt 0.060582 0.441609
vt 0.023054 0.455648
vt 0.023054 0.020697
vt 0.060582 0.034736
vt 0.044116 0.000153
vt 0.023054 0.000153
vt 0.441789 0.034736
vt 0.479316 0.020697
vt 0.479316 0.000153
vt 0.458255 0.000153
vt 0.436393 0.946593
vt 0.436393 0.966330
vt 0.065978 0.946593
vt 0.065978 0.966330
vt 0.514204 0.887405
vt 0.514204 0.889688
vt 0.524997 0.889688
vt 0.524997 0.887404
vt 0.895412 0.887404
vt 0.895412 0.889688
vt 0.906205 0.889688
vt 0.906205 0.887404
vt 0.436393 0.509710
vt 0.436393 0.529447
vt 0.065978 0.509710
vt 0.065978 0.529447
vt 0.906204 0.451463
vt 0.906204 0.449179
vt 0.895412 0.449179
vt 0.895412 0.451463
vt 0.524997 0.451463
vt 0.524997 0.449179
vt 0.514204 0.449179
vt 0.514204 0.451463
vt 0.436393 0.476193
vt 0.436393 0.494520
vt 0.458255 0.494520
vt 0.065978 0.476193
vt 0.044116 0.494520
vt 0.065978 0.494520
vt 0.044116 0.999847
vt 0.065978 0.999847
vt 0.065978 0.981520
vt 0.044116 0.981520
vt 0.436393 0.000153
vt 0.065978 0.000153
vt 0.023054 0.039873
vt 0.023054 0.436472
vt 0.479316 0.039873
vt 0.479316 0.436472
vt 0.504807 0.460861
vt 0.502523 0.460861
vt 0.502523 0.471134
vt 0.504807 0.471134
vt 0.524997 0.460861
vt 0.514204 0.460861
vt 0.514204 0.471134
vt 0.524997 0.471134
vt 0.504807 0.867733
vt 0.502523 0.867733
vt 0.502523 0.878007
vt 0.504807 0.878007
vt 0.524997 0.867733
vt 0.514204 0.867733
vt 0.514204 0.878007
vt 0.524997 0.878007
vt 0.906204 0.867733
vt 0.895412 0.867733
vt 0.895412 0.878007
vt 0.906204 0.878007
vt 0.915602 0.878007
vt 0.917886 0.878007
vt 0.917886 0.867733
vt 0.915602 0.867733
vt 0.915602 0.471134
vt 0.917886 0.471134
vt 0.917886 0.460861
vt 0.915602 0.460861
vt 0.906204 0.460861
vt 0.895412 0.460861
vt 0.895412 0.471134
vt 0.906204 0.471134
vt 0.035682 0.539720
vt 0.055185 0.539720
vt 0.035682 0.936320
vt 0.055185 0.936320
vt 0.436393 0.999847
vt 0.458255 0.999847
vt 0.458255 0.981520
vt 0.436393 0.981520
vt 0.502218 0.539720
vt 0.502218 0.520544
vt 0.483891 0.520544
vt 0.483891 0.539720
vt 0.502218 0.955496
vt 0.502218 0.936320
vt 0.483891 0.936320
vt 0.483891 0.955496
vt 0.000153 0.936320
vt 0.000153 0.955496
vt 0.018480 0.955496
vt 0.018480 0.936320
vt 0.447185 0.539720
vt 0.466689 0.539720
vt 0.447185 0.936320
vt 0.466689 0.936320
vt 0.907936 0.471134
vt 0.907936 0.460861
vt 0.907937 0.878007
vt 0.907937 0.867733
vt 0.512472 0.867733
vt 0.512472 0.878007
vt 0.512472 0.460861
vt 0.512472 0.471134
vt 0.524997 0.459128
vt 0.514204 0.459128
vt 0.906204 0.459128
vt 0.895412 0.459128
vt 0.895412 0.879739
vt 0.906204 0.879739
vt 0.514204 0.879739
vt 0.524997 0.879739
vt 0.018480 0.520544
vt 0.018480 0.539720
vt 0.023054 0.494520
vt 0.479316 0.981520
vt 0.018480 0.500000
vt 0.479316 0.494520
vt 0.483891 0.500000
vt 0.483891 0.976040
vt 0.023054 0.981520
vt 0.018480 0.976040
vt 0.000153 0.976040
vt 0.000152 0.500000
vt 0.000152 0.520544
vt 0.502218 0.500000
vt 0.502218 0.976040
vt 0.479316 0.999847
vt 0.023054 0.999847
vt 0.000152 0.539720
vt 0.681994 0.070127
vt 0.681819 0.214130
vt 0.687513 0.214158
vt 0.687752 0.065922
vt 0.666218 0.211499
vt 0.671893 0.211550
vt 0.673331 0.065386
vt 0.667617 0.060770
vt 0.505995 0.415840
vt 0.516302 0.414082
vt 0.512514 0.213333
vt 0.502523 0.216038
vt 0.832480 0.212693
vt 0.839186 0.212627
vt 0.836512 0.069798
vt 0.829679 0.064939
vt 0.669349 0.417794
vt 0.679713 0.419797
vt 0.663819 0.417989
vt 0.832642 0.416332
vt 0.839364 0.416252
vt 0.522694 0.414747
vt 0.588196 0.429115
vt 0.592489 0.211637
vt 0.519599 0.213236
vt 0.521829 0.427977
vt 0.589315 0.448874
vt 0.666148 0.444426
vt 0.685007 0.056647
vt 0.678895 0.060735
vt 0.759037 0.023193
vt 0.758934 0.013674
vt 0.685570 0.419598
vt 0.764446 0.425471
vt 0.760519 0.213571
vt 0.503659 0.424546
vt 0.515016 0.426178
vt 0.672152 0.444313
vt 0.518315 0.057896
vt 0.511417 0.063427
vt 0.839364 0.060350
vt 0.832140 0.055588
vt 0.831281 0.425316
vt 0.837958 0.424406
vt 0.592674 0.000152
vt 0.682308 0.445016
vt 0.687503 0.444024
vt 0.502523 0.068247
vt 0.763034 0.442309
s 0
usemtl Material.001
f 43/1/1 22/2/1 10/3/1 42/4/1
f 47/5/1 9/6/1 21/7/1 46/8/1
f 23/9/1 44/10/1 41/11/1 11/12/1
f 12/13/1 48/14/1 45/15/1 24/16/1
f 25/17/2 6/18/2 20/19/2 36/20/2
f 8/21/2 26/22/2 35/23/2 15/24/2
f 16/25/2 34/26/2 29/27/2 4/28/2
f 33/29/2 19/30/2 2/31/2 30/32/2
f 46/8/1 51/33/1 50/34/1 47/5/1
f 52/35/1 45/15/1 48/14/1 49/36/1
f 112/37/3 45/38/3 52/39/3 113/40/3
f 108/41/3 51/42/3 46/43/3 105/44/3
f 42/4/1 54/45/1 55/46/1 43/1/1
f 53/47/1 41/11/1 44/10/1 56/48/1
f 106/49/4 43/50/4 55/51/4 114/52/4
f 109/53/4 56/54/4 44/55/4 107/56/4
f 25/17/3 66/57/3 57/58/3 28/59/3
f 65/60/3 26/22/3 27/61/3 58/62/3
f 29/63/4 68/64/4 63/65/4 32/66/4
f 36/20/2 66/57/2 25/17/2
f 35/23/2 26/22/2 65/60/2
f 30/32/2 67/67/2 33/29/2
f 68/68/2 29/27/2 34/26/2
f 16/25/2 82/69/2 34/26/2
f 81/70/2 15/24/2 35/23/2
f 33/29/2 80/71/2 19/30/2
f 36/20/2 20/19/2 79/72/2
f 107/73/5 44/74/5 86/75/5 115/76/5
f 59/77/1 38/78/1 69/79/1 90/80/1
f 110/81/5 85/82/5 45/83/5 112/84/5
f 89/85/1 70/86/1 39/87/1 61/88/1
f 72/89/1 91/90/1 62/91/1 40/92/1
f 105/93/6 46/94/6 84/95/6 116/96/6
f 111/97/6 83/98/6 43/99/6 106/100/6
f 37/101/1 60/102/1 92/103/1 71/104/1
f 23/9/1 73/105/1 86/106/1 44/10/1
f 74/107/1 24/16/1 45/15/1 85/108/1
f 67/109/4 30/110/4 31/111/4 64/112/4
f 79/113/5 20/114/5 17/115/5 75/116/5
f 19/117/5 80/118/5 76/119/5 18/120/5
f 82/121/6 16/122/6 13/123/6 77/124/6
f 43/1/1 83/125/1 88/126/1 22/2/1
f 84/127/1 46/8/1 21/7/1 87/128/1
f 71/104/6 103/129/6 95/130/6 37/101/6
f 40/92/6 94/131/6 104/132/6 72/89/6
f 70/86/5 101/133/5 93/134/5 39/87/5
f 38/78/5 96/135/5 102/136/5 69/79/5
f 59/77/4 99/137/4 96/138/4 38/78/4
f 37/101/4 95/139/4 100/140/4 60/102/4
f 62/91/3 97/141/3 94/142/3 40/92/3
f 39/87/3 93/143/3 98/144/3 61/88/3
f 103/129/6 111/97/6 106/100/6 95/130/6
f 94/131/6 105/93/6 116/96/6 104/132/6
f 101/133/5 110/81/5 112/84/5 93/134/5
f 96/135/5 107/73/5 115/76/5 102/136/5
f 99/137/4 109/53/4 107/56/4 96/138/4
f 95/139/4 106/49/4 114/52/4 100/140/4
f 97/141/3 108/41/3 105/44/3 94/142/3
f 93/143/3 112/37/3 113/40/3 98/144/3
f 88/126/7 75/116/7 17/115/7 22/2/7
f 21/7/7 18/120/7 76/119/7 87/128/7
f 23/9/8 14/145/8 78/146/8 73/105/8
f 74/107/8 77/124/8 13/123/8 24/16/8
f 42/4/9 28/59/9 57/58/9 54/45/9
f 53/47/9 58/62/9 27/61/9 41/11/9
f 50/34/10 64/112/10 31/111/10 47/5/10
f 48/14/10 32/66/10 63/65/10 49/36/10
f 27/61/9 7/147/9 11/12/9 41/11/9
f 31/111/10 1/148/10 9/6/10 47/5/10
f 7/149/8 14/145/8 23/9/8 11/12/8
f 10/3/9 5/150/9 28/59/9 42/4/9
f 17/115/7 5/151/7 10/3/7 22/2/7
f 1/152/7 18/120/7 21/7/7 9/6/7
f 12/13/10 3/153/10 32/66/10 48/14/10
f 13/123/8 3/154/8 12/13/8 24/16/8
f 3/154/6 13/123/6 16/122/6 4/155/6
f 14/145/6 7/149/6 8/156/6 15/157/6
f 5/151/5 17/115/5 20/114/5 6/158/5
f 18/120/5 1/152/5 2/159/5 19/117/5
f 7/147/3 27/61/3 26/22/3 8/21/3
f 28/59/3 5/150/3 6/18/3 25/17/3
f 2/160/4 1/148/4 31/111/4 30/110/4
f 32/66/4 3/153/4 4/161/4 29/63/4
f 15/157/6 81/162/6 78/146/6 14/145/6
f 74/107/8 73/105/8 78/146/8 77/124/8
f 88/126/7 87/128/7 76/119/7 75/116/7
f 80/118/5 79/113/5 75/116/5 76/119/5
f 115/76/5 110/81/5 101/133/5 102/136/5
f 116/96/6 111/97/6 103/129/6 104/132/6
f 101/133/5 70/86/5 69/79/5 102/136/5
f 103/129/6 71/104/6 72/89/6 104/132/6
f 33/29/2 36/20/2 79/72/2 80/71/2
f 83/125/1 84/127/1 87/128/1 88/126/1
f 70/86/1 89/85/1 90/80/1 69/79/1
f 74/107/1 85/108/1 86/106/1 73/105/1
f 81/70/2 35/23/2 34/26/2 82/69/2
f 81/162/6 82/121/6 77/124/6 78/146/6
f 83/98/6 111/97/6 116/96/6 84/95/6
f 91/90/1 72/89/1 71/104/1 92/103/1
f 85/82/5 110/81/5 115/76/5 86/75/5
f 67/67/2 68/68/2 34/26/2 33/29/2
f 55/51/4 56/54/4 109/53/4 114/52/4
f 60/102/1 59/77/1 90/80/1 92/103/1
f 109/53/4 99/137/4 100/140/4 114/52/4
f 63/65/4 68/64/4 67/109/4 64/112/4
f 52/39/3 51/42/3 108/41/3 113/40/3
f 36/20/2 35/23/2 65/60/2 66/57/2
f 91/90/1 89/85/1 61/88/1 62/91/1
f 108/41/3 97/141/3 98/144/3 113/40/3
f 53/47/9 54/45/9 57/58/9 58/62/9
f 50/34/10 49/36/10 63/65/10 64/112/10
f 66/57/3 65/60/3 58/62/3 57/58/3
f 99/137/4 59/77/4 60/102/4 100/140/4
f 54/45/1 53/47/1 56/48/1 55/46/1
f 97/141/3 62/91/3 61/88/3 98/144/3
f 52/35/1 49/36/1 50/34/1 51/33/1
f 90/80/1 89/85/1 91/90/1 92/103/1
f 35/23/2 36/20/2 33/29/2 34/26/2
f 125/163/11 124/164/11 146/165/11 145/166/11
f 143/167/12 121/168/12 126/169/12 144/170/12
f 119/171/13 118/172/13 122/173/13 123/174/13
f 149/175/11 123/176/11 128/177/11 154/178/11
f 117/179/14 120/180/14 124/164/14 121/168/14
f 141/181/15 117/179/15 121/168/15 143/167/15
f 151/182/11 119/183/11 123/176/11 149/175/11
f 121/168/16 124/164/16 125/163/16 126/169/16
f 150/184/17 129/185/17 131/186/17 152/187/17
f 129/185/18 150/184/18 155/188/18 140/189/18
f 141/181/19 129/185/19 140/189/19 148/190/19
f 145/166/20 144/191/20 126/192/20 125/163/20
f 145/166/21 134/193/21 133/194/21 144/191/21
f 142/195/22 130/196/22 132/197/22 146/165/22
f 119/171/23 139/198/23 138/199/23 118/172/23
f 141/181/24 148/190/24 137/200/24 117/179/24
f 122/173/12 152/187/12 153/201/12 127/202/12
f 128/177/25 127/203/25 153/204/25 154/178/25
f 151/182/26 156/205/26 139/206/26 119/183/26
f 146/165/11 132/197/11 134/193/11 145/166/11
f 120/180/27 142/195/27 146/165/27 124/164/27
f 118/172/28 138/199/28 155/188/28 150/184/28
f 129/185/29 141/181/29 143/167/29 131/186/29
f 130/196/30 151/182/30 149/175/30 132/197/30
f 152/187/12 131/186/12 133/207/12 153/201/12
f 120/180/31 135/208/31 147/209/31 142/195/31
f 123/174/32 122/173/32 127/202/32 128/210/32
f 118/172/12 150/184/12 152/187/12 122/173/12
f 142/195/33 147/209/33 136/211/33 130/196/33
f 131/186/12 143/167/12 144/170/12 133/207/12
f 132/197/11 149/175/11 154/178/11 134/193/11
f 134/193/34 154/178/34 153/204/34 133/194/34
f 117/179/35 137/200/35 135/208/35 120/180/35
f 130/196/36 136/211/36 156/205/36 151/182/36
