# Blender 5.1.2
# www.blender.org
mtllib Simple_Bin.mtl
o Cube.007
v -0.140963 -0.000002 -18.973965
v -0.140963 3.760242 17.560497
v -0.140963 -0.000002 18.973949
v -13.022029 3.760242 17.560497
v -0.140963 7.946692 19.777079
v -0.140963 7.946692 -19.777103
v -0.140963 49.759094 21.819746
v -0.140963 49.759094 -21.819773
v -0.140963 3.301282 19.606075
v -0.140963 1.105866 19.476662
v -0.140963 3.301282 -19.606100
v -0.140963 1.105866 -19.476696
v -12.430546 -0.000002 18.973949
v -13.402345 -0.000002 17.670023
v -13.117713 -0.000002 18.592035
v -13.022029 3.760242 18.665136
v -13.599935 3.760242 18.341587
v -13.599935 3.760242 -18.341619
v -13.402345 -0.000002 -17.670050
v -12.430546 -0.000002 -18.973965
v -13.117713 -0.000002 -18.592060
v -13.839312 3.760242 17.560497
v -16.223053 51.671757 -20.616339
v 13.318007 3.760242 18.341587
v -13.279552 7.946693 19.777079
v -14.241172 7.946693 18.478958
v -13.959522 7.946693 19.396864
v -13.279552 7.946692 -19.777103
v -14.241172 7.946692 -18.478983
v -13.959522 7.946692 -19.396889
v -16.136360 49.759094 20.522568
v -15.176339 49.759094 21.819746
v -15.855179 49.759094 21.439817
v -16.136360 49.759094 -20.522593
v -15.176339 49.759094 -21.819773
v -15.855179 49.759094 -21.439835
v -13.118071 3.301282 -19.606100
v -14.082518 3.301282 -18.306314
v -13.800035 3.301282 -19.225397
v -13.962450 1.105866 -18.174385
v -12.993743 1.105866 -19.476696
v -13.678723 1.105866 -19.095253
v -12.993743 1.105866 19.476662
v -13.962450 1.105866 18.174353
v -13.678723 1.105866 19.095236
v -14.082518 3.301282 18.306290
v -13.118071 3.301282 19.606075
v -13.800035 3.301282 19.225372
v 12.148619 -0.000002 18.973949
v 13.120414 -0.000002 17.670023
v 12.835787 -0.000002 18.592035
v 13.318007 3.760242 -18.341619
v -13.022029 3.760242 -18.665161
v 12.740107 3.760242 -18.665161
v 13.120414 -0.000002 -17.670050
v 12.148619 -0.000002 -18.973965
v 12.835787 -0.000002 -18.592060
v 14.981622 51.671757 -21.913216
v 15.941127 51.671757 -20.616339
v -0.140963 3.760242 -17.560522
v 12.997621 7.946693 19.777079
v 13.959245 7.946693 18.478958
v 13.677596 7.946693 19.396864
v 12.997621 7.946692 -19.777103
v 13.959245 7.946692 -18.478983
v 13.677596 7.946692 -19.396889
v 15.854430 49.759094 20.522568
v 14.894413 49.759094 21.819746
v 15.573253 49.759094 21.439817
v 15.854430 49.759094 -20.522593
v 14.894413 49.759094 -21.819773
v 15.573253 49.759094 -21.439835
v 12.836144 3.301282 -19.606100
v 13.800591 3.301282 -18.306314
v 13.518108 3.301282 -19.225397
v 13.680523 1.105866 -18.174385
v 12.711816 1.105866 -19.476696
v 13.396796 1.105866 -19.095253
v 12.711816 1.105866 19.476662
v 13.680523 1.105866 18.174353
v 13.396796 1.105866 19.095236
v 13.800591 3.301282 18.306290
v 12.836144 3.301282 19.606075
v 13.518108 3.301282 19.225372
v -0.140963 3.760242 -18.665161
v 15.304894 51.671757 -19.800726
v -15.263553 51.671757 -21.913216
v 14.383346 51.671757 -21.046288
v 15.034972 51.671757 -20.681467
v 15.304894 51.671757 19.800701
v -15.586817 51.671757 -19.800726
v -0.140963 51.671757 -21.913216
v -15.316903 51.671757 -20.681467
v -15.316903 51.671757 20.681440
v -15.586817 51.671757 19.800701
v 15.941127 51.671757 20.616314
v 15.660091 51.671757 -21.533371
v -15.942022 51.671757 21.533344
v -13.022029 3.760242 -17.560522
v -0.140963 51.671757 21.913189
v -13.839312 3.760242 -17.560522
v 15.034972 51.671757 20.681440
v -15.942022 51.671757 -21.533371
v 14.383346 51.671757 21.046261
v -15.263553 51.671757 21.913189
v -16.223053 51.671757 20.616314
v -14.665273 51.671757 21.046261
v 13.557385 3.760242 -17.560522
v -0.140963 51.671757 21.046261
v 14.981622 51.671757 21.913189
v 15.660091 51.671757 21.533344
v -14.665273 51.671757 -21.046288
v -0.140963 51.671757 -21.046288
v 12.740107 3.760242 -17.560522
v 13.557385 3.760242 17.560497
v 12.740107 3.760242 17.560497
v 12.740107 3.760242 18.665136
v -0.140963 3.760242 18.665136
v -16.164017 49.950253 21.861185
v -15.471835 49.950253 22.248585
v -16.450726 49.950253 20.925917
v -16.164017 49.950253 -21.861202
v -15.471835 49.950253 -22.248610
v -16.450726 49.950253 -20.925934
v -16.539125 51.480602 -21.021521
v -0.140963 49.950253 22.248585
v -0.140963 49.950253 -22.248610
v 15.882090 49.950253 21.861185
v 15.189908 49.950253 22.248585
v 16.168795 49.950253 20.925917
v 15.882090 49.950253 -21.861202
v 15.189908 49.950253 -22.248610
v 16.168795 49.950253 -20.925934
v 15.278833 51.480602 -22.343878
v 16.257198 51.480602 -21.021521
v -0.140963 51.480602 -22.343878
v -15.560760 51.480602 -22.343878
v -0.140963 51.480602 22.343861
v -15.560760 51.480602 22.343861
v 15.278833 51.480602 22.343861
v 15.970636 51.480602 21.956547
v -16.252567 51.480602 21.956547
v -16.539125 51.480602 21.021496
v -16.252567 51.480602 -21.956572
v 16.257198 51.480602 21.021496
v 15.970636 51.480602 -21.956572
v -0.140963 48.898460 21.777702
v -0.140963 48.898460 -21.777727
v -15.137299 48.898460 -21.777727
v -15.816159 48.898460 -21.397783
v -16.097349 48.898460 -20.480532
v -15.137299 48.898460 21.777702
v -15.816159 48.898460 21.397757
v -16.097349 48.898460 20.480507
v 14.855371 48.898460 -21.777727
v 15.534228 48.898460 -21.397783
v 15.815423 48.898460 -20.480532
v 14.855371 48.898460 21.777702
v 15.534228 48.898460 21.397757
v 15.815423 48.898460 20.480507
v -13.402345 -0.000002 -0.000013
v -13.962450 1.105866 -0.000017
v -16.136360 49.759094 -0.000013
v -14.082518 3.301282 -0.000013
v -14.241172 7.946692 -0.000013
v 13.120414 -0.000002 -0.000013
v 13.680523 1.105866 -0.000017
v 15.854430 49.759094 -0.000013
v 13.800591 3.301282 -0.000013
v 13.959245 7.946692 -0.000013
v 12.740107 3.760242 -0.000013
v -13.022029 3.760242 -0.000013
v -0.140963 3.760242 -0.000013
v -13.839312 3.760242 -0.000013
v 13.557385 3.760242 -0.000013
v 15.304894 51.671757 -0.000013
v -15.586817 51.671757 -0.000013
v -16.223053 51.671757 -0.000013
v 15.941127 51.671757 -0.000013
v -16.450726 49.950253 -0.000008
v 16.168795 49.950253 -0.000008
v -16.539125 51.480602 -0.000013
v 16.257198 51.480602 -0.000013
v 15.815423 48.898460 -0.000013
v -16.097349 48.898460 -0.000013
vn -0.0000 -0.4138 -0.9103
vn -0.0000 1.0000 -0.0000
vn -0.0000 -0.4138 0.9104
vn -0.0000 -0.0428 0.9991
vn -0.0000 -0.0428 -0.9991
vn -0.0000 -0.5648 0.8253
vn -0.0000 -0.5648 -0.8253
vn -0.0000 -0.0478 0.9989
vn -0.0000 -0.2404 0.9707
vn -0.0000 -0.0478 -0.9989
vn -0.0000 -0.2404 -0.9707
vn -0.1714 -0.4786 0.8611
vn -0.8678 -0.4863 0.1024
vn -0.6466 -0.5625 0.5152
vn 0.1838 0.6754 -0.7142
vn 0.5906 0.6539 -0.4729
vn 0.5906 0.6539 0.4729
vn -0.8678 -0.4863 -0.1024
vn -0.1714 -0.4787 -0.8611
vn -0.6466 -0.5625 -0.5152
vn 0.7155 0.6908 -0.1043
vn -0.2714 0.9622 -0.0201
vn -0.5906 0.6539 -0.4729
vn -0.2512 -0.0515 0.9666
vn -0.9880 -0.0456 0.1477
vn -0.7769 -0.0579 0.6270
vn -0.2512 -0.0515 -0.9666
vn -0.9880 -0.0456 -0.1477
vn -0.7769 -0.0579 -0.6270
vn -0.8280 -0.5510 0.1042
vn -0.1832 -0.6292 0.7553
vn -0.5958 -0.6615 0.4555
vn -0.8280 -0.5510 -0.1042
vn -0.1832 -0.6292 -0.7553
vn -0.5958 -0.6615 -0.4555
vn -0.2525 -0.0576 -0.9659
vn -0.9875 -0.0511 -0.1492
vn -0.7757 -0.0647 -0.6278
vn -0.9467 -0.2839 -0.1522
vn -0.2562 -0.2857 -0.9234
vn -0.7372 -0.3148 -0.5979
vn -0.2562 -0.2857 0.9234
vn -0.9467 -0.2839 0.1522
vn -0.7372 -0.3148 0.5979
vn -0.9875 -0.0511 0.1492
vn -0.2524 -0.0576 0.9659
vn -0.7757 -0.0647 0.6278
vn 0.1714 -0.4786 0.8611
vn 0.8678 -0.4863 0.1024
vn 0.6466 -0.5625 0.5152
vn -0.5906 0.6539 0.4729
vn 0.1838 0.6754 0.7142
vn -0.1838 0.6754 0.7142
vn 0.8678 -0.4863 -0.1024
vn 0.1714 -0.4787 -0.8611
vn 0.6466 -0.5625 -0.5152
vn 0.0408 0.9759 -0.2142
vn 0.2714 0.9622 -0.0201
vn 0.2512 -0.0515 0.9666
vn 0.9880 -0.0456 0.1477
vn 0.7769 -0.0579 0.6270
vn 0.2512 -0.0515 -0.9666
vn 0.9880 -0.0456 -0.1477
vn 0.7769 -0.0579 -0.6270
vn 0.8280 -0.5510 0.1042
vn 0.1832 -0.6292 0.7553
vn 0.5958 -0.6615 0.4555
vn 0.8280 -0.5510 -0.1042
vn 0.1832 -0.6292 -0.7553
vn 0.5958 -0.6615 -0.4555
vn 0.2525 -0.0576 -0.9659
vn 0.9875 -0.0511 -0.1492
vn 0.7757 -0.0647 -0.6278
vn 0.9467 -0.2839 -0.1522
vn 0.2562 -0.2857 -0.9234
vn 0.7372 -0.3148 -0.5979
vn 0.2562 -0.2857 0.9234
vn 0.9467 -0.2839 0.1522
vn 0.7372 -0.3148 0.5979
vn 0.9875 -0.0511 0.1492
vn 0.2524 -0.0576 0.9659
vn 0.7757 -0.0647 0.6278
vn -0.0000 0.7244 0.6893
vn -0.6468 0.7562 0.0994
vn -0.0408 0.9759 -0.2142
vn -0.1580 0.7859 0.5978
vn -0.4471 0.8173 0.3634
vn -0.6468 0.7562 -0.0994
vn 0.6468 0.7562 0.0994
vn -0.0000 0.9783 -0.2074
vn 0.4471 0.8173 0.3634
vn 0.4471 0.8173 -0.3634
vn 0.6468 0.7562 -0.0994
vn 0.2714 0.9622 0.0201
vn 0.1872 0.9742 -0.1263
vn -0.1872 0.9742 0.1263
vn -0.0000 0.9783 0.2073
vn 0.7155 0.6908 0.1043
vn -0.4471 0.8173 -0.3634
vn -0.1872 0.9742 -0.1263
vn -0.1580 0.7859 -0.5978
vn -0.0408 0.9759 0.2142
vn -0.2714 0.9622 0.0201
vn 0.1580 0.7859 -0.5978
vn -0.7155 0.6908 0.1043
vn -0.0000 0.7244 -0.6893
vn 0.0408 0.9759 0.2142
vn 0.1872 0.9742 0.1263
vn 0.1580 0.7859 0.5978
vn -0.7155 0.6908 -0.1043
vn -0.1838 0.6754 -0.7142
vn -0.6465 -0.5492 0.5296
vn -0.2135 -0.5584 0.8016
vn -0.8328 -0.5365 0.1363
vn -0.6465 -0.5492 -0.5296
vn -0.2135 -0.5584 -0.8016
vn -0.8328 -0.5365 -0.1363
vn -0.8645 0.4804 -0.1478
vn -0.0000 -0.5703 0.8215
vn -0.0000 -0.5703 -0.8215
vn 0.6465 -0.5492 0.5296
vn 0.2135 -0.5584 0.8016
vn 0.8328 -0.5365 0.1363
vn 0.6465 -0.5492 -0.5296
vn 0.2135 -0.5584 -0.8016
vn 0.8328 -0.5365 -0.1363
vn 0.2319 0.4961 -0.8367
vn 0.8645 0.4804 -0.1478
vn -0.0000 0.5188 -0.8549
vn -0.2319 0.4961 -0.8367
vn -0.0000 0.5188 0.8549
vn -0.2319 0.4961 0.8367
vn 0.2319 0.4961 0.8367
vn 0.6763 0.4792 0.5594
vn -0.6763 0.4792 0.5594
vn -0.8645 0.4804 0.1478
vn -0.6763 0.4792 -0.5594
vn 0.8645 0.4804 0.1478
vn 0.6763 0.4792 -0.5594
vn -0.0000 -0.0488 0.9988
vn -0.0000 -0.0488 -0.9988
vn -0.2518 -0.0586 -0.9660
vn -0.7765 -0.0658 -0.6267
vn -0.9876 -0.0520 -0.1480
vn -0.2518 -0.0586 0.9660
vn -0.7765 -0.0658 0.6267
vn -0.9876 -0.0520 0.1480
vn 0.2518 -0.0586 -0.9660
vn 0.7765 -0.0658 -0.6267
vn 0.9876 -0.0520 -0.1480
vn 0.2518 -0.0586 0.9660
vn 0.7765 -0.0658 0.6267
vn 0.9876 -0.0520 0.1480
vn -0.8921 -0.4518 -0.0000
vn -0.9659 -0.2588 -0.0000
vn -0.8603 -0.5097 -0.0000
vn -0.9990 -0.0444 -0.0000
vn -0.9992 -0.0397 -0.0000
vn 0.8921 -0.4518 -0.0000
vn 0.9659 -0.2588 -0.0000
vn 0.8603 -0.5097 -0.0000
vn 0.9990 -0.0444 -0.0000
vn 0.9992 -0.0397 -0.0000
vn 0.6941 0.7199 -0.0000
vn -0.6941 0.7199 -0.0000
vn -0.2686 0.9632 -0.0000
vn 0.2686 0.9632 -0.0000
vn -0.8572 -0.5151 -0.0000
vn 0.8572 -0.5151 -0.0000
vn -0.8849 0.4658 -0.0000
vn 0.8849 0.4658 -0.0000
vn 0.9990 -0.0453 -0.0000
vn -0.9990 -0.0453 -0.0000
vt 0.997258 0.056885
vt 0.996416 0.051048
vt 0.998954 0.048735
vt 0.999812 0.054685
vt 0.375823 0.627434
vt 0.392916 0.490102
vt 0.395576 0.488269
vt 0.378279 0.627794
vt 0.079764 0.334393
vt 0.072682 0.336812
vt 0.072101 0.331955
vt 0.079387 0.330353
vt 0.070047 0.326298
vt 0.077609 0.325666
vt 0.018328 0.116198
vt 0.044029 0.104997
vt 0.045926 0.109352
vt 0.020437 0.120387
vt 0.048012 0.114802
vt 0.022635 0.125620
vt 0.369977 0.286245
vt 0.118213 0.327524
vt 0.117458 0.322886
vt 0.369304 0.281325
vt 0.116247 0.317196
vt 0.367888 0.275347
vt 0.278329 0.009712
vt 0.282824 0.007155
vt 0.285659 0.011323
vt 0.280636 0.013994
vt 0.288288 0.017413
vt 0.282955 0.019636
vt 0.902539 0.025674
vt 0.812268 0.003438
vt 0.811187 0.000188
vt 0.903232 0.022861
vt 0.315327 0.864916
vt 0.355836 0.776729
vt 0.359069 0.777009
vt 0.317985 0.866061
vt 0.091667 0.332418
vt 0.090908 0.328008
vt 0.089581 0.322629
vt 0.000188 0.126286
vt 0.006988 0.122330
vt 0.009569 0.125880
vt 0.003210 0.129779
vt 0.011350 0.130719
vt 0.005300 0.135124
vt 0.037673 0.230711
vt 0.044480 0.228193
vt 0.026961 0.765351
vt 0.033679 0.768048
vt 0.005832 0.840637
vt 0.000188 0.834802
vt 0.375674 0.285656
vt 0.374869 0.280317
vt 0.378418 0.280321
vt 0.378650 0.284507
vt 0.774317 0.316177
vt 0.867287 0.316177
vt 0.867287 0.319074
vt 0.772490 0.319074
vt 0.084116 0.407783
vt 0.077083 0.408416
vt 0.752584 0.182705
vt 0.767853 0.308526
vt 0.765899 0.311273
vt 0.750330 0.182979
vt 0.056108 0.224124
vt 0.082130 0.215999
vt 0.325421 0.147492
vt 0.330798 0.145698
vt 0.373308 0.273984
vt 0.046071 0.772931
vt 0.072127 0.782977
vt 0.044103 0.857159
vt 0.018004 0.846139
vt 0.310287 0.862752
vt 0.279513 0.953050
vt 0.274568 0.950768
vt 0.378793 0.382267
vt 0.373301 0.382763
vt 0.124546 0.404158
vt 0.097255 0.406601
vt 0.288301 0.008966
vt 0.289946 0.014443
vt 0.770066 0.313992
vt 0.768155 0.316846
vt 0.092930 0.480642
vt 0.093290 0.484663
vt 0.085870 0.484421
vt 0.085554 0.479554
vt 0.092399 0.489563
vt 0.084911 0.490333
vt 0.073872 0.703107
vt 0.075103 0.698816
vt 0.101274 0.705613
vt 0.100017 0.710174
vt 0.076225 0.693438
vt 0.102550 0.699923
vt 0.387373 0.478546
vt 0.387583 0.483538
vt 0.131900 0.485230
vt 0.131840 0.480539
vt 0.387241 0.489738
vt 0.131693 0.491027
vt 0.350354 0.774783
vt 0.351813 0.769947
vt 0.357448 0.771440
vt 0.352983 0.763728
vt 0.358729 0.764767
vt 0.285480 0.005420
vt 0.393287 0.483519
vt 0.396799 0.482855
vt 0.104978 0.484888
vt 0.104937 0.480434
vt 0.104634 0.490382
vt 0.054973 0.698617
vt 0.056652 0.694035
vt 0.063822 0.695864
vt 0.062372 0.699626
vt 0.057415 0.688133
vt 0.064308 0.690933
vt 0.071163 0.589233
vt 0.078354 0.590248
vt 0.381591 0.382013
vt 0.992811 0.047910
vt 0.995278 0.045534
vt 0.090429 0.591910
vt 0.117122 0.595475
vt 0.370112 0.626733
vt 0.393107 0.478090
vt 0.696882 0.000188
vt 0.708943 0.088662
vt 0.416733 0.128496
vt 0.406037 0.050032
vt 0.727958 0.623811
vt 0.727356 0.629443
vt 0.433064 0.608094
vt 0.433597 0.603100
vt 0.898165 0.818757
vt 0.898165 0.811966
vt 0.903190 0.811966
vt 0.901718 0.816768
vt 0.818976 0.589260
vt 0.898165 0.589260
vt 0.898165 0.596051
vt 0.818976 0.596051
vt 0.739786 0.818757
vt 0.736233 0.816768
vt 0.734762 0.811966
vt 0.739786 0.811966
vt 0.739786 0.596051
vt 0.739786 0.589260
vt 0.739786 0.704008
vt 0.818976 0.704008
vt 0.818976 0.811966
vt 0.898165 0.704008
vt 0.903190 0.596051
vt 0.901718 0.591249
vt 0.734762 0.596051
vt 0.736233 0.591249
vt 0.818976 0.818757
vt 0.903190 0.704008
vt 0.734762 0.704008
vt 0.932499 0.454166
vt 0.932499 0.580911
vt 0.928588 0.575896
vt 0.928588 0.454167
vt 0.734762 0.454166
vt 0.734762 0.327422
vt 0.738673 0.332437
vt 0.738673 0.454167
vt 0.721004 0.177135
vt 0.427430 0.206960
vt 0.712892 0.750310
vt 0.698427 0.871178
vt 0.407408 0.822480
vt 0.420236 0.715287
vt 0.721493 0.181700
vt 0.427864 0.211008
vt 0.721852 0.187352
vt 0.428182 0.216021
vt 0.734386 0.436159
vt 0.734360 0.440750
vt 0.439275 0.440750
vt 0.439298 0.436679
vt 0.697683 0.876792
vt 0.696882 0.881312
vt 0.406037 0.831468
vt 0.406748 0.827459
vt 0.930771 0.586548
vt 0.926928 0.581311
vt 0.736489 0.321785
vt 0.740660 0.319449
vt 0.744338 0.324779
vt 0.740332 0.327022
vt 0.736489 0.586548
vt 0.734762 0.580911
vt 0.738673 0.575896
vt 0.740332 0.581311
vt 0.833630 0.319449
vt 0.926600 0.319449
vt 0.922922 0.324779
vt 0.833630 0.324779
vt 0.926600 0.588884
vt 0.922922 0.583554
vt 0.833631 0.588884
vt 0.740660 0.588884
vt 0.744339 0.583554
vt 0.833631 0.583554
vt 0.930771 0.321785
vt 0.932499 0.327422
vt 0.928588 0.332437
vt 0.926928 0.327022
vt 0.734171 0.430500
vt 0.439108 0.431660
vt 0.728011 0.308926
vt 0.433645 0.323840
vt 0.731303 0.529990
vt 0.728246 0.619229
vt 0.433853 0.599037
vt 0.436564 0.519894
vt 0.293527 0.000188
vt 0.296343 0.004577
vt 0.299074 0.010541
vt 0.387763 0.283448
vt 0.387040 0.278532
vt 0.376226 0.275263
vt 0.385361 0.272600
vt 0.327269 0.870018
vt 0.290305 0.960099
vt 0.281561 0.955904
vt 0.333086 0.144853
vt 0.342217 0.141570
vt 0.391992 0.381070
vt 0.360745 0.773034
vt 0.369581 0.775321
vt 0.367961 0.780199
vt 0.360983 0.767320
vt 0.370794 0.768976
vt 0.405443 0.478021
vt 0.405661 0.482998
vt 0.396251 0.478680
vt 0.405142 0.489175
vt 0.387968 0.629076
vt 0.960257 0.316177
vt 0.964508 0.313992
vt 0.966419 0.316845
vt 0.962084 0.319074
vt 0.741763 0.047910
vt 0.738157 0.051048
vt 0.735619 0.048734
vt 0.739296 0.045534
vt 0.966721 0.308526
vt 0.968675 0.311273
vt 0.737316 0.056884
vt 0.734762 0.054685
vt 0.981989 0.182705
vt 0.984244 0.182979
s 1
f 96/1/94 111/2/108 141/3/134 145/4/138
f 168/5/161 70/6/68 133/7/126 181/8/169
f 41/9/40 20/10/19 21/11/20 42/12/41
f 42/12/41 21/11/20 19/13/18 40/14/39
f 47/15/46 25/16/24 27/17/26 48/18/47
f 48/18/47 27/17/26 26/19/25 46/20/45
f 149/21/142 28/22/27 30/23/29 150/24/143
f 150/24/143 30/23/29 29/25/28 151/26/144
f 152/27/145 32/28/31 33/29/32 153/30/146
f 153/30/146 33/29/32 31/31/30 154/32/147
f 100/33/97 105/34/102 139/35/132 138/36/131
f 7/37/6 68/38/66 129/39/122 126/40/119
f 28/22/27 37/41/36 39/42/38 30/23/29
f 30/23/29 39/42/38 38/43/37 29/25/28
f 37/41/36 41/9/40 42/12/41 39/42/38
f 39/42/38 42/12/41 40/14/39 38/43/37
f 13/44/12 43/45/42 45/46/44 15/47/14
f 15/47/14 45/46/44 44/48/43 14/49/13
f 43/45/42 47/15/46 48/18/47 45/46/44
f 45/46/44 48/18/47 46/20/45 44/48/43
f 161/50/154 162/51/155 40/14/39 19/13/18
f 3/52/3 10/53/9 43/54/42 13/55/12
f 35/56/34 36/57/35 122/58/115 123/59/116
f 87/60/85 92/61/90 136/62/129 137/63/130
f 20/10/19 41/9/40 12/64/11 1/65/1
f 178/66/166 23/67/22 125/68/118 182/69/170
f 164/70/157 165/71/158 29/25/28 38/43/37
f 185/72/173 163/73/156 34/74/33 151/26/144
f 9/75/8 5/76/4 25/77/24 47/78/46
f 147/79/140 7/37/6 32/80/31 152/81/145
f 149/21/142 35/56/34 8/82/7 148/83/141
f 37/41/36 28/22/27 6/84/5 11/85/10
f 41/9/40 37/41/36 11/85/10 12/64/11
f 162/51/155 164/70/157 38/43/37 40/14/39
f 10/53/9 9/75/8 47/78/46 43/54/42
f 31/31/30 33/29/32 119/86/112 121/87/114
f 23/67/22 103/88/100 144/89/137 125/68/118
f 77/90/75 78/91/76 57/92/56 56/93/55
f 78/91/76 76/94/74 55/95/54 57/92/56
f 83/96/81 84/97/82 63/98/61 61/99/59
f 84/97/82 82/100/80 62/101/60 63/98/61
f 155/102/148 156/103/149 66/104/64 64/105/62
f 156/103/149 157/106/150 65/107/63 66/104/64
f 158/108/151 159/109/152 69/110/67 68/38/66
f 159/109/152 160/111/153 67/112/65 69/110/67
f 33/29/32 32/28/31 120/113/113 119/86/112
f 70/6/68 72/114/70 131/115/124 133/7/126
f 64/105/62 66/104/64 75/116/73 73/117/71
f 66/104/64 65/107/63 74/118/72 75/116/73
f 73/117/71 75/116/73 78/91/76 77/90/75
f 75/116/73 74/118/72 76/94/74 78/91/76
f 49/119/48 51/120/50 81/121/79 79/122/77
f 51/120/50 50/123/49 80/124/78 81/121/79
f 79/122/77 81/121/79 84/97/82 83/96/81
f 81/121/79 80/124/78 82/100/80 84/97/82
f 166/125/159 55/95/54 76/94/74 167/126/160
f 3/52/3 49/119/48 79/122/77 10/53/9
f 8/82/7 35/56/34 123/59/116 127/127/120
f 103/88/100 87/60/85 137/63/130 144/89/137
f 56/93/55 1/65/1 12/64/11 77/90/75
f 110/128/107 100/33/97 138/36/131 140/129/133
f 169/130/162 74/118/72 65/107/63 170/131/163
f 184/132/172 157/106/150 70/6/68 168/5/161
f 9/75/8 83/96/81 61/99/59 5/76/4
f 147/79/140 158/108/151 68/38/66 7/37/6
f 155/102/148 148/83/141 8/82/7 71/133/69
f 73/117/71 11/85/10 6/84/5 64/105/62
f 77/90/75 12/64/11 11/85/10 73/117/71
f 167/126/160 76/94/74 74/118/72 169/130/162
f 10/53/9 79/122/77 83/96/81 9/75/8
f 107/134/104 109/135/106 118/136/106 16/137/15
f 93/138/91 91/139/89 101/140/98 18/141/17
f 16/142/15 4/143/2 22/144/21 17/145/16
f 85/146/83 53/147/52 99/148/2 60/149/2
f 117/150/111 24/151/23 115/152/110 116/153/2
f 85/146/83 60/149/2 114/154/2 54/155/53
f 171/156/2 173/157/2 2/158/2 116/153/2
f 173/157/2 172/159/2 4/143/2 2/158/2
f 101/160/98 99/148/2 53/147/52 18/161/17
f 114/154/2 108/162/105 52/163/51 54/155/53
f 116/153/2 2/158/2 118/164/106 117/150/111
f 174/165/164 172/159/2 99/148/2 101/160/98
f 171/156/2 175/166/165 108/162/105 114/154/2
f 2/158/2 4/143/2 16/142/15 118/164/106
f 179/167/167 59/168/58 86/169/84 176/170/165
f 178/171/166 106/172/103 95/173/93 177/174/164
f 109/135/106 104/175/101 117/176/111 118/136/106
f 177/177/164 95/178/93 22/179/21 174/180/164
f 104/175/101 102/181/99 24/182/23 117/176/111
f 102/181/99 90/183/88 115/184/110 24/182/23
f 89/185/87 88/186/86 54/187/53 52/188/51
f 94/189/92 107/190/104 16/191/15 17/192/16
f 59/168/58 97/193/95 89/194/87 86/169/84
f 98/195/96 105/196/102 107/197/104 94/198/92
f 103/199/100 23/200/22 91/201/89 93/202/91
f 100/203/97 110/204/107 104/205/101 109/206/106
f 105/196/102 100/203/97 109/206/106 107/197/104
f 97/193/95 58/207/57 88/208/86 89/194/87
f 92/209/90 87/210/85 112/211/109 113/212/83
f 87/210/85 103/199/100 93/202/91 112/211/109
f 111/213/108 96/214/94 90/215/88 102/216/99
f 110/204/107 111/213/108 102/216/99 104/205/101
f 58/207/57 92/209/90 113/212/83 88/208/86
f 106/172/103 98/195/96 94/198/92 95/173/93
f 86/217/84 89/185/87 52/188/51 108/218/105
f 95/178/93 94/189/92 17/192/16 22/179/21
f 176/219/165 86/217/84 108/218/105 175/220/165
f 113/221/83 112/222/109 53/223/52 85/224/83
f 112/222/109 93/138/91 18/141/17 53/223/52
f 88/186/86 113/221/83 85/224/83 54/187/53
f 120/113/113 139/225/132 142/226/135 119/86/112
f 119/86/112 142/226/135 143/227/136 121/87/114
f 137/228/130 123/59/116 122/58/115 144/229/137
f 144/229/137 122/58/115 124/230/117 125/231/118
f 126/40/119 138/232/131 139/233/132 120/234/113
f 180/235/168 182/236/170 125/231/118 124/230/117
f 123/59/116 137/228/130 136/237/129 127/127/120
f 129/39/122 128/238/121 141/239/134 140/240/133
f 128/238/121 130/241/123 145/242/138 141/239/134
f 134/243/127 146/244/139 131/115/124 132/245/125
f 146/244/139 135/246/128 133/7/126 131/115/124
f 126/40/119 129/39/122 140/240/133 138/232/131
f 181/8/169 133/7/126 135/246/128 183/247/171
f 132/245/125 127/127/120 136/237/129 134/243/127
f 68/38/66 69/110/67 128/238/121 129/39/122
f 36/57/35 34/74/33 124/230/117 122/58/115
f 71/133/69 8/82/7 127/127/120 132/245/125
f 58/248/57 97/249/95 146/250/139 134/251/127
f 111/2/108 110/128/107 140/129/133 141/3/134
f 105/252/102 98/253/96 142/254/135 139/255/132
f 69/110/67 67/112/65 130/241/123 128/238/121
f 32/80/31 7/37/6 126/40/119 120/234/113
f 97/249/95 59/256/58 135/257/128 146/250/139
f 72/114/70 71/133/69 132/245/125 131/115/124
f 98/253/96 106/258/103 143/259/136 142/254/135
f 163/73/156 31/31/30 121/87/114 180/235/168
f 179/260/167 96/1/94 145/4/138 183/261/171
f 92/61/90 58/248/57 134/251/127 136/62/129
f 64/105/62 6/84/5 148/83/141 155/102/148
f 5/76/4 61/99/59 158/108/151 147/79/140
f 170/131/163 65/107/63 157/106/150 184/132/172
f 63/98/61 62/101/60 160/111/153 159/109/152
f 61/99/59 63/98/61 159/109/152 158/108/151
f 72/114/70 70/6/68 157/106/150 156/103/149
f 71/133/69 72/114/70 156/103/149 155/102/148
f 28/22/27 149/21/142 148/83/141 6/84/5
f 5/76/4 147/79/140 152/81/145 25/77/24
f 165/71/158 185/72/173 151/26/144 29/25/28
f 27/17/26 153/30/146 154/32/147 26/19/25
f 25/16/24 152/27/145 153/30/146 27/17/26
f 36/57/35 150/24/143 151/26/144 34/74/33
f 35/56/34 149/21/142 150/24/143 36/57/35
f 26/19/25 154/32/147 185/72/173 165/71/158
f 62/101/60 170/131/163 184/132/172 160/111/153
f 59/256/58 179/260/167 183/261/171 135/257/128
f 34/74/33 163/73/156 180/235/168 124/230/117
f 130/241/123 181/8/169 183/247/171 145/242/138
f 121/87/114 143/227/136 182/236/170 180/235/168
f 90/183/88 176/219/165 175/220/165 115/184/110
f 91/139/89 177/177/164 174/180/164 101/140/98
f 23/200/22 178/171/166 177/174/164 91/201/89
f 96/214/94 179/167/167 176/170/165 90/215/88
f 116/153/2 115/152/110 175/166/165 171/156/2
f 22/144/21 4/143/2 172/159/2 174/165/164
f 60/149/2 99/148/2 172/159/2 173/157/2
f 114/154/2 60/149/2 173/157/2 171/156/2
f 80/124/78 167/126/160 169/130/162 82/100/80
f 160/111/153 184/132/172 168/5/161 67/112/65
f 82/100/80 169/130/162 170/131/163 62/101/60
f 50/123/49 166/125/159 167/126/160 80/124/78
f 44/48/43 46/20/45 164/70/157 162/51/155
f 154/32/147 31/31/30 163/73/156 185/72/173
f 46/20/45 26/19/25 165/71/158 164/70/157
f 106/258/103 178/66/166 182/69/170 143/259/136
f 14/49/13 44/48/43 162/51/155 161/50/154
f 67/112/65 168/5/161 181/8/169 130/241/123
