# Blender 4.5.1 LTS
# www.blender.org
mtllib Stapler.mtl
o Cube.004
v -4.176333 -0.928257 0.536152
v -3.887750 0.285556 0.537003
v -1.476255 -0.920191 0.605818
v -1.706029 0.325460 0.606937
v -4.059112 -0.433360 0.537003
v -1.521627 1.041615 0.389905
v -4.163277 -1.013589 0.520314
v -1.475880 -1.005667 0.585532
v -3.830757 0.457849 0.537003
v -1.963897 0.911494 0.606937
v 0.413500 0.531697 0.606938
v 0.239945 1.219689 0.606937
v 2.806295 0.752972 0.548718
v 0.299746 1.373512 0.677010
v 0.413500 0.806747 0.677010
v 2.746439 1.001167 0.612069
v 2.503051 1.556389 0.612068
v 2.399269 1.545287 0.389905
v 2.638527 0.989671 0.677010
v 2.399269 1.545287 0.677010
v 2.694844 0.739888 0.606938
v -4.036639 -0.073902 0.389905
v -1.654137 -0.043452 0.522869
v -3.973431 -0.073902 0.537003
v -4.239174 -0.928298 0.389684
v -3.950958 0.285556 0.389905
v -1.662402 0.333224 0.390963
v -1.549616 -0.412365 0.389905
v -4.122320 -0.433360 0.389905
v 3.136225 -0.907849 0.389905
v -1.521627 0.973343 0.606937
v -4.218925 -1.013556 0.385588
v 3.116306 -0.993296 0.389905
v -3.885383 0.489651 0.389905
v -1.963897 0.979766 0.389905
v 0.413500 0.531697 0.365571
v 0.239945 1.287961 0.389905
v 2.838219 0.752972 0.389905
v 0.299746 1.373512 0.389905
v 2.778362 1.001167 0.389905
v 2.534975 1.556389 0.389905
v -3.812039 -0.926948 0.605824
v -3.609068 0.291736 0.606937
v -3.729360 -0.430108 0.606937
v -3.809757 -1.012403 0.585627
v -3.649672 0.489274 0.606937
v -3.669214 -0.069186 0.606937
v -3.649672 0.557547 0.389905
v 0.832697 -0.914383 0.605818
v -1.653300 0.320876 0.534411
v -1.693221 -0.045049 0.606937
v 0.833343 -0.999117 0.585547
v 0.723682 -0.406577 0.389905
v -1.552523 -0.490453 0.606937
v -1.546871 -0.412365 0.528808
v -1.562501 -0.365565 0.576673
v -1.617493 -0.422658 0.614792
v 3.057866 -0.907961 0.606059
v 3.136306 -0.907838 0.528388
v 2.966088 -0.478186 0.607064
v 3.044737 -0.476290 0.528807
v 2.950211 -0.400096 0.528869
v 3.117954 -0.993284 0.520571
v 3.049787 -0.992622 0.587521
v 2.950211 -0.400096 0.389905
v 3.044737 -0.476290 0.389905
v 0.740442 -0.484665 0.606937
v 0.723682 -0.406577 0.528807
v 2.549881 -0.386913 0.368093
v 1.807807 -0.388773 0.368597
v 1.738339 -0.403134 0.550914
v 2.619348 -0.400925 0.550904
v 2.635778 -0.479014 0.640733
v 1.754190 -0.481224 0.640733
v 2.727978 -0.908708 0.639746
v 1.846477 -0.910910 0.639745
v 2.727397 -0.991960 0.607311
v 1.847271 -0.994168 0.607294
v 1.738562 -0.403133 0.444203
v 2.619125 -0.400926 0.444194
v -4.176333 -0.928257 -0.536007
v -3.887750 0.285556 -0.536857
v -1.476255 -0.920191 -0.605672
v -1.706029 0.325460 -0.606792
v -4.059112 -0.433360 -0.536857
v -1.521627 1.041615 -0.389759
v -4.163277 -1.013589 -0.520168
v -1.475880 -1.005667 -0.585386
v -3.830757 0.457849 -0.536857
v -1.963897 0.911494 -0.606792
v 0.413500 0.531697 -0.606792
v 0.239945 1.219689 -0.606792
v 2.806295 0.752972 -0.548573
v 0.299746 1.373512 -0.676864
v 0.413500 0.806747 -0.676864
v 2.746439 1.001167 -0.611923
v 2.503051 1.556389 -0.611923
v 2.399269 1.545287 -0.389759
v 2.638527 0.989671 -0.676864
v 2.399269 1.545287 -0.676864
v 2.694844 0.739888 -0.606792
v -4.036639 -0.073902 -0.389759
v 0.413500 0.531697 0.486254
v -1.654137 -0.043452 -0.522723
v -3.973431 -0.073902 -0.536857
v -4.239174 -0.928298 -0.389538
v -3.950958 0.285556 -0.389759
v -1.662402 0.333224 -0.390817
v -1.549616 -0.412365 -0.389759
v -4.122320 -0.433360 -0.389759
v 3.136225 -0.907849 -0.389759
v -1.521627 0.973343 -0.606792
v -4.218925 -1.013556 -0.385443
v 3.116306 -0.993296 -0.389759
v -3.885383 0.489651 -0.389759
v -1.963897 0.979766 -0.389759
v 0.413500 0.531697 -0.365426
v 0.239945 1.287961 -0.389759
v 2.838219 0.752972 -0.389759
v 0.299746 1.373512 -0.389759
v 2.778362 1.001167 -0.389759
v 2.534975 1.556389 -0.389759
v -1.662824 0.327050 0.462687
v 2.489098 0.721026 0.436599
v -3.812039 -0.926948 -0.605678
v -3.609068 0.291736 -0.606792
v -3.729360 -0.430108 -0.606792
v -3.809757 -1.012403 -0.585482
v -3.649672 0.489274 -0.606792
v -3.669214 -0.069186 -0.606792
v -3.649672 0.557547 -0.389759
v 0.832697 -0.914383 -0.605673
v -1.653300 0.320876 -0.534266
v -1.693221 -0.045049 -0.606792
v 0.833343 -0.999117 -0.585402
v 0.723682 -0.406577 -0.389759
v -1.552523 -0.490453 -0.606792
v -1.546871 -0.412365 -0.528662
v -1.562501 -0.365565 -0.576528
v -1.617493 -0.422658 -0.614647
v 3.057866 -0.907961 -0.605913
v 3.136306 -0.907838 -0.528242
v 2.966088 -0.478186 -0.606918
v 3.044737 -0.476290 -0.528662
v 2.950211 -0.400096 -0.528723
v 3.117954 -0.993284 -0.520425
v 3.049787 -0.992622 -0.587376
v 2.950211 -0.400096 -0.389759
v 3.044737 -0.476290 -0.389759
v 0.740442 -0.484665 -0.606792
v 0.723682 -0.406577 -0.528662
v 2.549881 -0.386913 -0.367948
v 1.807807 -0.388773 -0.368452
v 1.738339 -0.403134 -0.550768
v 2.619348 -0.400925 -0.550759
v 2.635778 -0.479014 -0.640588
v 1.754190 -0.481224 -0.640588
v 2.727978 -0.908708 -0.639600
v 1.846477 -0.910910 -0.639599
v 2.727397 -0.991960 -0.607165
v 1.847271 -0.994168 -0.607148
v 1.738562 -0.403133 -0.444057
v 2.619125 -0.400926 -0.444049
v 2.477715 0.718419 0.365571
v 2.520046 0.722248 0.323208
v -1.664432 -0.043452 0.347540
v -1.664204 -0.001041 0.390024
v -1.664432 -0.043452 0.432268
v -1.655542 -0.084873 0.389905
v 2.483223 0.132355 0.323207
v 2.525143 0.176730 0.323208
v 2.482796 0.174735 0.365571
v 0.410506 0.076118 0.365571
v 0.410228 0.033704 0.323206
v 2.520046 0.722248 -0.323062
v 2.477715 0.718419 -0.365426
v -1.664204 -0.001041 -0.389878
v -1.664432 -0.043452 -0.347394
v -1.655542 -0.084873 -0.389759
v -1.664432 -0.043452 -0.432123
v 2.482796 0.174735 -0.365426
v 2.525143 0.176730 -0.323062
v 2.483223 0.132355 -0.323061
v 0.410228 0.033704 -0.323061
v 0.410506 0.076118 -0.365426
v -1.662824 0.327050 -0.462541
v 0.413500 0.531697 -0.486109
v 2.484703 0.719693 -0.450145
vn -0.6484 -0.0462 0.7599
vn -0.6452 0.1617 0.7467
vn 0.0003 -0.1192 0.9929
vn 0.2816 -0.0125 0.9595
vn -0.6224 0.1430 0.7695
vn -0.1369 0.9791 0.1504
vn -0.6081 -0.2471 0.7544
vn 0.0007 -0.2311 0.9729
vn -0.5409 0.5209 0.6603
vn -0.0792 0.5917 0.8023
vn 0.0176 -0.7620 0.6473
vn -0.6022 0.3245 0.7294
vn 0.7336 -0.5464 0.4041
vn -0.4992 0.6035 0.6218
vn -0.3168 -0.1476 0.9369
vn 0.7971 0.1860 0.5745
vn 0.4891 0.7706 0.4087
vn -0.0846 0.9964 -0.0015
vn 0.2759 -0.0340 0.9606
vn 0.1026 0.6862 0.7202
vn 0.2597 -0.7134 0.6508
vn -0.9538 0.2273 0.1967
vn 0.9572 0.1430 0.2516
vn -0.6294 0.1455 0.7633
vn -0.9804 -0.0021 0.1970
vn -0.9447 0.2636 0.1952
vn 0.5891 -0.5664 0.5763
vn 0.5910 0.8066 -0.0113
vn -0.9540 0.2263 0.1966
vn 1.0000 -0.0078 -0.0017
vn -0.0514 0.5691 0.8207
vn -0.9539 -0.2298 0.1930
vn 0.9749 -0.2226 -0.0031
vn -0.6931 0.6971 0.1833
vn -0.1880 0.9709 0.1485
vn 0.0705 -0.7073 0.7034
vn -0.5780 0.8103 0.0970
vn 0.8243 -0.5624 0.0647
vn -0.5316 0.8468 0.0165
vn 0.9471 0.3124 0.0735
vn 0.5279 0.8484 0.0406
vn -0.1007 -0.1044 0.9894
vn -0.1174 0.0134 0.9930
vn -0.1049 0.0203 0.9943
vn -0.0897 -0.2254 0.9701
vn -0.2380 0.5310 0.8133
vn -0.1142 0.0260 0.9931
vn -0.2574 0.9550 0.1475
vn -0.0157 -0.1376 0.9904
vn 0.6656 -0.3573 0.6552
vn 0.4301 0.0666 0.9003
vn -0.0122 -0.2659 0.9639
vn -0.0030 1.0000 -0.0000
vn 0.1422 0.2166 0.9658
vn 0.6208 0.6897 0.3727
vn 0.8727 0.2608 0.4127
vn 0.3305 0.0979 0.9387
vn 0.4397 -0.0852 0.8941
vn 0.9266 -0.0197 0.3756
vn 0.3569 0.4017 0.8434
vn 0.8153 0.4722 0.3353
vn 0.3029 0.8992 0.3157
vn 0.8986 -0.2338 0.3713
vn 0.4060 -0.2689 0.8734
vn 0.3316 0.9434 -0.0000
vn 0.8522 0.5232 -0.0001
vn -0.0147 0.3899 0.9207
vn -0.0073 0.9276 0.3735
vn 0.0749 0.9949 0.0681
vn -0.0797 0.9945 0.0682
vn -0.0083 0.9323 0.3617
vn 0.0121 0.9320 0.3623
vn 0.0397 0.4066 0.9127
vn -0.0162 0.4025 0.9153
vn 0.0492 -0.1608 0.9858
vn -0.0134 -0.1704 0.9853
vn 0.0397 -0.3285 0.9437
vn -0.0120 -0.3316 0.9434
vn -0.0270 0.9993 0.0245
vn 0.0214 0.9995 0.0246
vn -0.6484 -0.0462 -0.7599
vn -0.6452 0.1617 -0.7467
vn 0.0003 -0.1192 -0.9929
vn 0.2816 -0.0125 -0.9595
vn -0.6224 0.1430 -0.7695
vn -0.1369 0.9791 -0.1504
vn -0.6081 -0.2471 -0.7544
vn 0.0007 -0.2311 -0.9729
vn -0.5409 0.5209 -0.6603
vn -0.0792 0.5917 -0.8023
vn 0.0175 -0.7615 -0.6480
vn -0.6022 0.3245 -0.7294
vn 0.7340 -0.5455 -0.4045
vn -0.4992 0.6035 -0.6218
vn -0.3168 -0.1476 -0.9369
vn 0.7971 0.1860 -0.5745
vn 0.4891 0.7706 -0.4087
vn -0.0846 0.9964 0.0015
vn 0.2759 -0.0340 -0.9606
vn 0.1026 0.6862 -0.7202
vn 0.2606 -0.7126 -0.6514
vn -0.9538 0.2273 -0.1967
vn 0.0947 -0.9954 -0.0151
vn 0.9572 0.1430 -0.2516
vn -0.6294 0.1455 -0.7633
vn -0.9804 -0.0021 -0.1970
vn -0.9447 0.2636 -0.1952
vn 0.5891 -0.5664 -0.5763
vn 0.5910 0.8066 0.0113
vn -0.9540 0.2263 -0.1966
vn 1.0000 -0.0078 0.0017
vn -0.0514 0.5691 -0.8207
vn -0.9539 -0.2298 -0.1930
vn 0.9749 -0.2226 0.0031
vn -0.6931 0.6971 -0.1833
vn -0.1880 0.9709 -0.1485
vn 0.0705 -0.7082 -0.7025
vn -0.5780 0.8103 -0.0970
vn 0.8246 -0.5620 -0.0644
vn -0.5316 0.8468 -0.0165
vn 0.9471 0.3124 -0.0735
vn 0.5279 0.8484 -0.0406
vn 0.7519 -0.6563 -0.0629
vn 0.0927 -0.9957 0.0065
vn -0.1007 -0.1044 -0.9894
vn -0.1174 0.0134 -0.9930
vn -0.1049 0.0203 -0.9943
vn -0.0897 -0.2254 -0.9701
vn -0.2380 0.5310 -0.8133
vn -0.1142 0.0260 -0.9931
vn -0.2574 0.9550 -0.1475
vn -0.0157 -0.1376 -0.9904
vn 0.6656 -0.3573 -0.6552
vn 0.4301 0.0666 -0.9003
vn -0.0122 -0.2659 -0.9639
vn 0.1422 0.2166 -0.9658
vn 0.6208 0.6897 -0.3727
vn 0.8727 0.2608 -0.4127
vn 0.3305 0.0979 -0.9387
vn 0.4397 -0.0852 -0.8941
vn 0.9266 -0.0197 -0.3756
vn 0.3569 0.4017 -0.8434
vn 0.8153 0.4722 -0.3353
vn 0.3029 0.8992 -0.3157
vn 0.8986 -0.2338 -0.3713
vn 0.4060 -0.2689 -0.8734
vn 0.8522 0.5232 0.0001
vn -0.0147 0.3899 -0.9207
vn -0.0073 0.9276 -0.3735
vn 0.0749 0.9949 -0.0681
vn -0.0797 0.9945 -0.0682
vn -0.0083 0.9323 -0.3617
vn 0.0121 0.9320 -0.3623
vn 0.0397 0.4066 -0.9127
vn -0.0162 0.4025 -0.9153
vn 0.0492 -0.1608 -0.9858
vn -0.0134 -0.1704 -0.9853
vn 0.0397 -0.3285 -0.9437
vn -0.0120 -0.3316 -0.9434
vn -0.0270 0.9993 -0.0245
vn 0.0214 0.9995 -0.0246
vn 0.3048 -0.7840 0.5408
vn 0.5981 -0.7710 0.2188
vn 0.8671 -0.4370 0.2393
vn 0.8151 -0.1998 0.5437
vn 0.9898 0.1345 -0.0467
vn 0.9700 0.2426 -0.0137
vn 0.3738 -0.8628 0.3404
vn 0.8826 -0.3241 0.3404
vn 0.3536 -0.3341 0.8737
vn 0.0219 -0.3843 0.9229
vn 0.0414 -0.9237 0.3808
vn 0.5988 -0.7715 -0.2152
vn 0.3059 -0.7863 -0.5368
vn 0.8151 -0.1998 -0.5437
vn 0.8671 -0.4370 -0.2393
vn 0.9700 0.2426 0.0137
vn 0.9898 0.1345 0.0467
vn 0.3536 -0.3341 -0.8737
vn 0.8826 -0.3241 -0.3404
vn 0.3738 -0.8628 -0.3404
vn 0.0414 -0.9237 -0.3808
vn 0.0219 -0.3843 -0.9229
vn 0.7519 -0.6563 0.0629
vn 0.0945 -0.9954 0.0154
vn 0.0929 -0.9957 -0.0046
vt 0.337775 0.067371
vt 0.337645 0.109330
vt 0.319578 0.107167
vt 0.319860 0.065941
vt 0.392706 0.172226
vt 0.358571 0.190112
vt 0.348215 0.160686
vt 0.383140 0.139955
vt 0.475785 0.132697
vt 0.465861 0.094646
vt 0.475147 0.093293
vt 0.484754 0.130289
vt 0.408636 0.382118
vt 0.341514 0.371975
vt 0.338117 0.193493
vt 0.427622 0.155246
vt 0.417982 0.120443
vt 0.792290 0.338714
vt 0.792086 0.091178
vt 0.801490 0.091187
vt 0.801628 0.338694
vt 0.098257 0.950936
vt 0.032420 0.941142
vt 0.045376 0.705219
vt 0.101308 0.732135
vt 0.342749 0.420087
vt 0.411243 0.397306
vt 0.417995 0.620944
vt 0.342568 0.612498
vt 0.018098 0.697506
vt 0.019052 0.683592
vt 0.046911 0.691723
vt 0.724533 0.042083
vt 0.727781 0.001133
vt 0.735617 0.001729
vt 0.734767 0.042386
vt 0.128805 0.951349
vt 0.130747 0.730337
vt 0.105912 0.720125
vt 0.080503 0.961473
vt 0.000183 0.946516
vt 0.212643 0.951293
vt 0.211458 0.730599
vt 0.408026 0.388276
vt 0.317358 0.148147
vt 0.235749 0.147927
vt 0.233657 0.107516
vt 0.001367 0.941824
vt 0.130329 0.715982
vt 0.211891 0.716309
vt 0.127721 0.650364
vt 0.214137 0.650056
vt 0.212602 0.962469
vt 0.128841 0.962500
vt 0.634862 0.621713
vt 0.718295 0.621716
vt 0.718306 0.631106
vt 0.634845 0.631106
vt 0.318206 0.010039
vt 0.234040 0.009976
vt 0.233943 0.000397
vt 0.318234 0.000266
vt 0.335980 0.010315
vt 0.334931 0.000182
vt 0.335411 0.151992
vt 0.332254 0.173300
vt 0.315253 0.170734
vt 0.233173 0.066366
vt 0.317627 0.373715
vt 0.318162 0.421315
vt 0.446573 0.373024
vt 0.315627 0.195070
vt 0.318019 0.613504
vt 0.105420 0.968572
vt 0.108739 0.623218
vt 0.127014 0.621852
vt 0.102662 0.652385
vt 0.542224 0.370077
vt 0.551160 0.367591
vt 0.745164 0.042104
vt 0.745526 0.001109
vt 0.747133 0.083226
vt 0.739163 0.077851
vt 0.742795 0.093148
vt 0.734299 0.083693
vt 0.744584 0.561439
vt 0.740989 0.572595
vt 0.732812 0.561444
vt 0.786275 0.575386
vt 0.785271 0.586959
vt 0.733991 0.327318
vt 0.734387 0.083761
vt 0.746218 0.083151
vt 0.745824 0.329165
vt 0.795538 0.576364
vt 0.794873 0.586800
vt 0.732971 0.574457
vt 0.718123 0.574593
vt 0.718026 0.561690
vt 0.487176 0.369973
vt 0.719497 0.083445
vt 0.719135 0.327189
vt 0.496009 0.374720
vt 0.733115 0.621679
vt 0.732298 0.631039
vt 0.418923 0.395850
vt 0.430956 0.620100
vt 0.723365 0.435253
vt 0.722765 0.526954
vt 0.714752 0.519608
vt 0.715327 0.442620
vt 0.635098 0.574553
vt 0.733773 0.526788
vt 0.734597 0.435369
vt 0.792732 0.447145
vt 0.802265 0.447269
vt 0.799459 0.541282
vt 0.789925 0.540524
vt 0.745959 0.528325
vt 0.747084 0.437157
vt 0.630681 0.526828
vt 0.635228 0.561662
vt 0.638470 0.442445
vt 0.630470 0.435082
vt 0.638714 0.519537
vt 0.635952 0.083281
vt 0.635237 0.327145
vt 0.237930 0.169721
vt 0.237671 0.194516
vt 0.234475 0.373545
vt 0.233888 0.421285
vt 0.233887 0.613510
vt 0.214630 0.621310
vt 0.631144 0.041813
vt 0.621118 0.083439
vt 0.616280 0.077558
vt 0.620892 0.042056
vt 0.215240 0.067949
vt 0.215760 0.109716
vt 0.160391 0.170989
vt 0.170187 0.138645
vt 0.205137 0.159658
vt 0.194551 0.189168
vt 0.077249 0.130807
vt 0.068263 0.128336
vt 0.078126 0.091268
vt 0.087437 0.092681
vt 0.215073 0.192717
vt 0.210534 0.371737
vt 0.143117 0.381513
vt 0.135333 0.118856
vt 0.125448 0.153730
vt 0.562040 0.338294
vt 0.552704 0.338230
vt 0.553903 0.090679
vt 0.563309 0.090710
vt 0.243197 0.950955
vt 0.240917 0.732473
vt 0.296908 0.705768
vt 0.308974 0.941422
vt 0.209254 0.420015
vt 0.209330 0.612497
vt 0.133844 0.620944
vt 0.140628 0.397125
vt 0.324185 0.698164
vt 0.295424 0.692278
vt 0.323284 0.684261
vt 0.354352 0.621311
vt 0.359650 0.843116
vt 0.341524 0.865105
vt 0.341509 0.621311
vt 0.426661 0.395458
vt 0.443918 0.619259
vt 0.236356 0.720444
vt 0.260886 0.961542
vt 0.341144 0.946911
vt 0.143859 0.388078
vt 0.339983 0.942219
vt 0.216383 0.010474
vt 0.217359 0.000416
vt 0.218025 0.151657
vt 0.221112 0.172415
vt 0.105105 0.372159
vt 0.236013 0.968572
vt 0.233091 0.622551
vt 0.239433 0.651966
vt 0.364621 0.880425
vt 0.347716 0.877049
vt 0.009135 0.368621
vt 0.000183 0.366072
vt 0.610480 0.041712
vt 0.610366 0.000653
vt 0.620287 0.001335
vt 0.608264 0.082895
vt 0.612551 0.092861
vt 0.608645 0.561277
vt 0.620435 0.561350
vt 0.612181 0.572469
vt 0.567766 0.586589
vt 0.566828 0.574999
vt 0.620383 0.327197
vt 0.608543 0.328985
vt 0.609222 0.082873
vt 0.621055 0.083534
vt 0.558155 0.586375
vt 0.557550 0.575925
vt 0.620235 0.574380
vt 0.064377 0.368850
vt 0.055485 0.373561
vt 0.620029 0.621661
vt 0.620840 0.631030
vt 0.120872 0.620097
vt 0.132943 0.395667
vt 0.719886 0.046615
vt 0.635769 0.046375
vt 0.619657 0.526614
vt 0.619240 0.435147
vt 0.561057 0.446653
vt 0.563372 0.540082
vt 0.553826 0.540788
vt 0.551525 0.446728
vt 0.606748 0.436878
vt 0.607448 0.528096
vt 0.715278 0.042026
vt 0.719899 0.037469
vt 0.863653 0.442785
vt 0.866814 0.448465
vt 0.860434 0.448295
vt 0.447593 0.880425
vt 0.440495 0.846408
vt 0.445003 0.841885
vt 0.454019 0.842638
vt 0.635812 0.037223
vt 0.640408 0.041815
vt 0.942017 0.448295
vt 0.935637 0.448465
vt 0.938798 0.442785
vt 0.860444 0.442133
vt 0.860471 0.221335
vt 0.866846 0.221103
vt 0.866814 0.441965
vt 0.866814 0.506562
vt 0.860434 0.506196
vt 0.857834 0.000398
vt 0.864222 0.000183
vt 0.935637 0.441965
vt 0.935603 0.221115
vt 0.941979 0.221347
vt 0.942007 0.442133
vt 0.942017 0.506196
vt 0.935637 0.506562
vt 0.938225 0.000183
vt 0.944614 0.000398
vt 0.367211 0.841884
vt 0.367195 0.621310
vt 0.802630 0.444336
vt 0.812060 0.223988
vt 0.719842 0.000484
vt 0.822345 0.002330
vt 0.990390 0.224000
vt 0.999817 0.444337
vt 0.470690 0.865104
vt 0.464498 0.877048
vt 0.470696 0.621314
vt 0.457853 0.621313
vt 0.636092 0.000183
vt 0.628138 0.000784
vt 0.980105 0.002330
vt 0.371719 0.846408
vt 0.107899 0.619254
vt 0.125198 0.395274
vt 0.445010 0.621313
s 1
f 5/1/5 24/2/24 22/3/22 29/4/29
f 47/5/47 43/6/43 2/7/2 24/8/24
f 42/9/42 1/10/1 7/11/7 45/12/45
f 43/6/43 4/13/4 10/14/10 46/15/46
f 42/9/42 44/16/44 5/17/5 1/10/1
f 49/18/49 3/19/3 8/20/8 52/21/52
f 14/22/14 15/23/15 19/24/19 20/25/20
f 31/26/31 50/27/50 11/28/11 12/29/12
f 21/30/21 13/31/13 16/32/16 19/24/19
f 168/33/166 123/34/123 50/35/50 23/36/23
f 39/37/39 14/22/14 20/25/20 18/38/18
f 44/16/44 47/5/47 24/8/24 5/17/5
f 20/25/20 19/24/19 16/32/16 17/39/17
f 12/40/12 11/41/11 15/23/15 14/22/14
f 120/42/120 39/37/39 18/38/18 98/43/98
f 10/14/10 4/44/4 50/27/50 31/26/31
f 26/45/26 107/46/107 102/47/102 22/3/22
f 11/48/11 21/30/21 19/24/19 15/23/15
f 98/43/98 18/38/18 41/49/41 122/50/122
f 40/51/40 121/52/121 122/50/122 41/49/41
f 118/53/118 37/54/37 39/37/39 120/42/120
f 111/55/111 30/56/30 33/57/33 114/58/114
f 25/59/25 106/60/106 113/61/113 32/62/32
f 1/63/1 5/1/5 29/4/29 25/59/25
f 1/63/1 25/59/25 32/62/32 7/64/7
f 24/2/24 2/65/2 26/45/26 22/3/22
f 26/45/26 2/65/2 9/66/9 34/67/34
f 22/3/22 102/47/102 110/68/110 29/4/29
f 35/69/35 10/14/10 31/26/31 6/70/6
f 51/71/51 4/13/4 43/6/43 47/5/47
f 48/72/48 34/67/34 9/66/9 46/15/46
f 6/70/6 31/26/31 12/29/12 37/73/37
f 37/54/37 12/74/12 14/22/14 39/37/39
f 13/75/13 38/76/38 40/51/40 16/77/16
f 18/38/18 20/25/20 17/39/17 41/49/41
f 16/77/16 40/51/40 41/49/41 17/39/17
f 35/69/35 48/72/48 46/15/46 10/14/10
f 2/7/2 43/6/43 46/15/46 9/66/9
f 3/78/3 42/9/42 45/12/45 8/79/8
f 51/80/51 23/36/23 50/35/50 4/81/4
f 51/80/51 57/82/57 56/83/56 23/36/23
f 54/84/54 55/85/55 56/83/56 57/82/57
f 60/86/60 61/87/61 62/88/62
f 60/86/60 58/89/58 59/90/59 61/87/61
f 68/91/68 55/92/55 54/93/54 67/94/67
f 58/89/58 64/95/64 63/96/63 59/90/59
f 61/97/61 66/98/66 65/99/65 62/88/62
f 54/93/54 3/19/3 49/18/49 67/94/67
f 57/100/57 51/71/51 47/5/47 44/16/44
f 28/101/28 55/92/55 68/91/68 53/102/53
f 3/78/3 54/103/54 57/100/57 44/16/44 42/9/42
f 30/56/30 66/98/66 61/97/61 59/104/59
f 30/56/30 59/104/59 63/105/63 33/57/33
f 50/27/50 123/106/123 103/107/103 11/28/11
f 79/108/79 80/109/80 69/110/69 70/111/70
f 149/112/147 66/98/66 30/56/30 111/55/111
f 72/113/72 80/109/80 79/108/79 71/114/71
f 76/115/76 78/116/78 77/117/77 75/118/75
f 75/118/75 73/119/73 74/120/74 76/115/76
f 71/114/71 74/120/74 73/119/73 72/113/72
f 53/102/53 68/91/68 71/114/71 79/108/79
f 62/88/62 72/113/72 73/119/73 60/86/60
f 71/114/71 68/91/68 67/94/67 74/120/74
f 80/109/80 72/113/72 62/88/62 65/99/65
f 67/94/67 49/18/49 76/115/76 74/120/74
f 73/119/73 75/118/75 58/89/58 60/86/60
f 58/89/58 75/118/75 77/117/77 64/95/64
f 76/115/76 49/18/49 52/21/52 78/116/78
f 163/121/161 80/109/80 65/99/65 148/122/65
f 70/111/70 153/123/151 162/124/160 79/108/79
f 152/125/150 153/123/151 70/111/70 69/110/69
f 163/121/161 152/125/150 69/110/69 80/109/80
f 149/112/147 148/122/65 65/99/65 66/98/66
f 109/126/109 28/101/28 53/102/53 136/127/53
f 115/128/115 34/67/34 48/72/48 131/129/131
f 116/130/116 35/69/35 6/70/6 86/131/86
f 55/85/55 168/33/166 23/36/23 56/83/56
f 29/4/29 110/68/110 106/60/106 25/59/25
f 131/129/131 48/72/48 35/69/35 116/130/116
f 107/46/107 26/45/26 34/67/34 115/128/115
f 86/131/86 6/70/6 37/73/37 118/132/118
f 38/76/38 119/133/119 121/52/121 40/51/40
f 180/134/178 138/135/137 139/136/138 104/137/104
f 85/138/85 110/68/110 102/47/102 105/139/105
f 130/140/130 105/141/105 82/142/82 126/143/126
f 125/144/125 128/145/128 87/146/87 81/147/81
f 126/143/126 129/148/129 90/149/90 84/150/84
f 125/144/125 81/147/81 85/151/85 127/152/127
f 132/153/132 135/154/135 88/155/88 83/156/83
f 94/157/94 100/158/100 99/159/99 95/160/95
f 112/161/112 92/162/92 91/163/91 133/164/133
f 101/165/101 99/159/99 96/166/96 93/167/93
f 103/168/103 124/169/124 21/170/21 11/171/11
f 103/107/103 123/106/123 27/172/27 36/173/36
f 120/42/120 98/43/98 100/158/100 94/157/94
f 127/152/127 85/151/85 105/141/105 130/140/130
f 100/158/100 97/174/97 96/166/96 99/159/99
f 92/175/92 94/157/94 95/160/95 91/176/91
f 90/149/90 112/161/112 133/164/133 84/177/84
f 91/178/91 95/160/95 99/159/99 101/165/101
f 81/179/81 106/60/106 110/68/110 85/138/85
f 81/179/81 87/180/87 113/61/113 106/60/106
f 105/139/105 102/47/102 107/46/107 82/181/82
f 107/46/107 115/128/115 89/182/89 82/181/82
f 116/130/116 86/131/86 112/161/112 90/149/90
f 134/183/134 130/140/130 126/143/126 84/150/84
f 131/129/131 129/148/129 89/182/89 115/128/115
f 86/131/86 118/132/118 92/162/92 112/161/112
f 118/53/118 120/42/120 94/157/94 92/184/92
f 93/185/93 96/186/96 121/52/121 119/133/119
f 98/43/98 122/50/122 97/174/97 100/158/100
f 96/186/96 97/174/97 122/50/122 121/52/121
f 21/170/21 124/169/124 38/187/38 13/188/13
f 116/130/116 90/149/90 129/148/129 131/129/131
f 82/142/82 89/182/89 129/148/129 126/143/126
f 83/189/83 88/190/88 128/145/128 125/144/125
f 134/191/134 84/192/84 133/193/133 104/137/104
f 134/191/134 104/137/104 139/136/138 140/194/139
f 137/195/136 140/194/139 139/136/138 138/135/137
f 143/196/142 145/197/144 144/198/143
f 143/196/142 144/198/143 142/199/141 141/200/140
f 151/201/149 150/202/148 137/203/136 138/204/137
f 141/200/140 142/199/141 146/205/145 147/206/146
f 144/207/143 145/197/144 148/122/65 149/112/147
f 137/203/136 150/202/148 132/153/132 83/156/83
f 140/208/139 127/152/127 130/140/130 134/183/134
f 109/126/109 136/127/53 151/201/149 138/204/137
f 83/189/83 125/144/125 127/152/127 140/208/139 137/209/136
f 111/55/111 142/210/141 144/207/143 149/112/147
f 111/55/111 114/58/114 146/211/145 142/210/141
f 133/164/133 91/163/91 187/212/185 186/213/184
f 169/214/167 28/101/28 109/126/109 179/215/177
f 162/124/160 153/123/151 152/125/150 163/121/161
f 155/216/153 154/217/152 162/124/160 163/121/161
f 159/218/157 158/219/156 160/220/158 161/221/159
f 158/219/156 159/218/157 157/222/155 156/223/154
f 154/217/152 155/216/153 156/223/154 157/222/155
f 136/127/53 162/124/160 154/217/152 151/201/149
f 145/197/144 143/196/142 156/223/154 155/216/153
f 154/217/152 157/222/155 150/202/148 151/201/149
f 163/121/161 148/122/65 145/197/144 155/216/153
f 150/202/148 157/222/155 159/218/157 132/153/132
f 156/223/154 143/196/142 141/200/140 158/219/156
f 141/200/140 147/206/146 160/220/158 158/219/156
f 159/218/157 161/221/159 135/154/135 132/153/132
f 136/127/53 53/102/53 79/108/79 162/124/160
f 166/224/164 167/225/165 168/33/166 169/214/167
f 170/226/168 171/227/169 172/228/170
f 119/229/119 175/230/173 176/231/174 188/232/186
f 177/233/175 178/234/176 179/215/177 180/134/178
f 181/235/179 182/236/180 183/237/181
f 172/238/170 173/239/171 174/240/172 170/241/168
f 171/227/169 165/242/163 164/243/162 172/228/170
f 173/239/171 167/244/165 166/245/164 174/240/172
f 183/246/181 184/247/182 185/248/183 181/249/179
f 170/241/168 183/246/181 182/236/180 171/227/169
f 181/235/179 176/250/174 175/251/173 182/236/180
f 184/247/182 178/252/176 177/253/175 185/248/183
f 171/227/169 182/236/180 175/251/173 165/242/163
f 164/254/162 124/169/124 103/168/103 36/255/36
f 173/239/171 172/238/170 164/256/162 36/257/36
f 27/258/27 123/34/123 168/33/166 167/225/165
f 28/101/28 169/214/167 168/33/166 55/85/55
f 179/215/177 178/234/176 166/224/164 169/214/167
f 27/259/27 167/244/165 173/239/171 36/257/36
f 166/245/164 178/252/176 184/247/182 174/240/172
f 174/240/172 184/247/182 183/246/181 170/241/168
f 185/248/183 117/260/117 176/261/174 181/249/179
f 188/232/186 101/262/101 93/263/93 119/229/119
f 91/264/91 101/262/101 188/232/186 187/265/185
f 108/266/108 177/233/175 180/134/178 186/267/184
f 109/126/109 138/135/137 180/134/178 179/215/177
f 108/268/108 117/260/117 185/248/183 177/253/175
f 38/187/38 124/169/124 164/254/162 165/269/163
f 165/269/163 175/230/173 119/229/119 38/187/38
f 186/267/184 180/134/178 104/137/104 133/193/133
f 186/213/184 187/212/185 117/270/117 108/271/108
f 187/265/185 188/232/186 176/231/174 117/272/117
