# Blender 4.5.1 LTS
# www.blender.org
mtllib Sticky_Notes.mtl
o Cube.005
v -1.162207 0.075965 1.162206
v -1.162207 -0.075966 1.162206
v -1.162206 0.075966 -1.162207
v -1.162206 -0.075965 -1.162207
v 1.177566 0.129871 1.162207
v 1.162206 -0.075966 1.162207
v 1.177567 0.129872 -1.162206
v 1.162207 -0.075965 -1.162206
v -1.162206 0.098020 -1.162207
v -1.162207 0.098019 1.162206
v 1.170041 0.158133 -1.162206
v 1.170041 0.158132 1.162207
v -1.156824 0.119065 -1.162207
v -1.156824 0.119064 1.162206
v 1.163579 0.175949 -1.162206
v 1.163579 0.175948 1.162207
v 1.210073 0.197414 1.162207
v 1.210074 0.197415 -1.162206
v 1.207535 0.205185 1.162207
v 1.207535 0.205186 -1.162206
v -1.162207 0.060953 1.162206
v -1.162206 0.060954 -1.162207
v 1.177843 0.102020 -1.162206
v 1.177842 0.102019 1.162207
v -1.145461 0.075966 -1.162207
v -1.145559 -0.075965 -1.162207
v -1.145462 0.075965 1.162206
v -1.145559 -0.075966 1.162206
v -1.145559 0.098020 -1.162207
v -1.145559 0.098019 1.162206
v -1.140215 0.119092 -1.162207
v -1.140215 0.119091 1.162206
v -1.145531 0.060953 1.162206
v -1.145530 0.060954 -1.162207
v -1.162206 0.075966 -1.139549
v -1.162207 0.075965 1.139549
v -1.162206 -0.075965 -1.139549
v -1.162207 -0.075966 1.139549
v 1.177566 0.129871 1.139549
v 1.177567 0.129872 -1.139549
v 1.162206 -0.075966 1.139549
v 1.162207 -0.075965 -1.139549
v -1.162207 0.098019 1.139549
v -1.162206 0.098020 -1.139549
v 1.170041 0.158132 1.139549
v 1.170041 0.158133 -1.139549
v -1.156824 0.119064 1.139549
v -1.156824 0.119065 -1.139549
v 1.163579 0.175948 1.139549
v 1.163579 0.175949 -1.139549
v 1.210073 0.197414 1.139549
v 1.210074 0.197415 -1.139549
v 1.207535 0.205186 -1.139549
v 1.207535 0.205185 1.139549
v 1.177843 0.102020 -1.139549
v 1.177842 0.102019 1.139549
v -1.162207 0.060953 1.139549
v -1.162206 0.060954 -1.139549
v -1.140215 0.119092 -1.139549
v -1.140215 0.119091 1.139549
v 1.050706 0.088502 -1.162206
v 1.045308 -0.075966 1.162207
v 1.049065 0.108943 -1.162206
v 1.047950 0.134095 -1.162206
v 1.052301 0.069159 1.162207
v 1.047949 0.134094 1.139549
v 1.045308 -0.075965 -1.162206
v 1.050706 0.088501 1.162207
v 1.049065 0.108942 1.162207
v 1.047949 0.134094 1.162207
v 1.052302 0.069160 -1.162206
v 1.047950 0.134095 -1.139549
v 1.218231 0.163565 1.162207
v 1.218232 0.163566 -1.162206
v 1.217132 0.171665 1.162207
v 1.217133 0.171666 -1.162206
v 1.218231 0.163565 1.139549
v 1.218232 0.163566 -1.139549
v 1.217133 0.171666 -1.139549
v 1.217132 0.171665 1.139549
v 1.208181 0.123534 1.162207
v 1.208181 0.123535 -1.162206
v 1.208791 0.131686 1.162207
v 1.208792 0.131687 -1.162206
v 1.208181 0.123534 1.139549
v 1.208181 0.123535 -1.139549
v 1.208792 0.131687 -1.139549
v 1.208791 0.131686 1.139549
v -1.162207 0.032749 1.139549
v -1.162207 0.001208 1.139549
v -1.162207 -0.030335 1.139549
v -1.162206 -0.030333 -1.164139
v -1.162206 0.001210 -1.162207
v -1.162206 0.032751 -1.164028
v 1.170927 -0.019895 -1.164139
v 1.170519 0.022074 -1.162206
v 1.183773 0.063999 -1.164027
v 1.170926 -0.019896 1.163383
v 1.170518 0.022073 1.162207
v 1.183772 0.063998 1.163479
v 1.183770 0.063965 -1.139549
v 1.170517 0.022049 -1.139549
v 1.170926 -0.019909 -1.139549
v -1.145550 -0.030333 1.163382
v -1.145543 0.001211 1.162206
v -1.145537 0.032753 1.163478
v -1.145549 -0.030332 -1.164139
v -1.145542 0.001213 -1.162207
v -1.145536 0.032754 -1.164028
v -1.162207 0.032750 1.163478
v -1.162207 0.001209 1.162206
v -1.162207 -0.030335 1.163382
v 1.170925 -0.019910 1.139549
v 1.170516 0.022048 1.139549
v 1.183769 0.063964 1.139549
v -1.162206 -0.030334 -1.139549
v -1.162206 0.001209 -1.139549
v -1.162206 0.032750 -1.139549
v 1.047455 -0.028135 -1.164139
v 1.049132 0.005521 -1.162206
v 1.050806 0.039133 -1.164027
v 1.047455 -0.028136 1.163383
v 1.049131 0.005519 1.162207
v 1.050805 0.039132 1.163479
vn -0.7071 -0.0000 0.7071
vn -0.7128 -0.0181 0.7011
vn -0.7071 -0.0000 -0.7071
vn -0.7164 -0.0295 -0.6970
vn 0.4015 0.0605 0.9139
vn 0.6692 -0.1206 0.7332
vn 0.1589 0.0625 -0.9853
vn 0.6716 -0.1315 -0.7291
vn -0.7274 0.0916 -0.6800
vn -0.7274 0.0916 0.6800
vn 0.1141 0.0665 -0.9912
vn 0.1141 0.0665 0.9912
vn -0.4949 0.6363 -0.5918
vn -0.4949 0.6363 0.5918
vn -0.3053 0.6054 -0.7350
vn -0.3053 0.6054 0.7350
vn 0.7731 -0.1888 0.6055
vn 0.7731 -0.1888 -0.6055
vn 0.2706 0.7799 0.5644
vn 0.2706 0.7799 -0.5644
vn -0.7122 0.0158 0.7018
vn -0.7144 0.0226 -0.6993
vn 0.4965 -0.1903 -0.8469
vn 0.6810 -0.1621 0.7141
vn -0.0000 -0.0000 -1.0000
vn -0.0000 -0.0418 -0.9991
vn -0.0000 -0.0000 1.0000
vn -0.0000 -0.0255 0.9997
vn -0.0030 0.7065 -0.7077
vn -0.0030 0.7065 0.7077
vn -0.0000 0.0222 0.9998
vn -0.0001 0.0318 -0.9995
vn -1.0000 -0.0000 -0.0000
vn 0.9775 0.2111 -0.0000
vn 0.9305 0.3663 -0.0000
vn 0.9881 -0.1537 -0.0000
vn -0.9922 0.1249 -0.0000
vn 0.8639 0.5037 -0.0000
vn -0.6139 0.7894 -0.0000
vn -0.4503 0.8929 -0.0000
vn 0.9714 -0.2373 -0.0000
vn 0.3279 0.9447 -0.0000
vn 0.9212 -0.3891 0.0001
vn 0.9530 -0.3029 -0.0000
vn -0.0042 1.0000 -0.0000
vn 0.0004 -0.0240 0.9997
vn -0.1171 0.6541 -0.7473
vn -0.0025 0.0215 0.9998
vn -0.1762 0.9844 -0.0000
vn 0.0006 -0.0394 -0.9992
vn -0.1171 0.6541 0.7473
vn -0.0036 0.0308 -0.9995
vn 0.7364 -0.2873 0.6124
vn 0.7364 -0.2874 -0.6124
vn 0.4489 0.6881 0.5701
vn 0.4489 0.6881 -0.5701
vn 0.9316 -0.3635 -0.0000
vn 0.5464 0.8375 -0.0000
vn 0.6812 -0.3850 0.6227
vn 0.6812 -0.3850 -0.6227
vn 0.5855 0.5758 0.5707
vn 0.5855 0.5758 -0.5707
vn 0.8706 -0.4920 -0.0000
vn 0.7130 0.7012 -0.0000
vn -0.6957 0.0068 -0.7183
vn -0.7207 0.0012 -0.6932
vn -0.6936 0.0025 -0.7203
vn 0.7137 -0.0443 -0.6991
vn 0.6716 -0.1055 -0.7333
vn 0.7400 -0.0489 -0.6708
vn 0.7172 -0.0474 0.6952
vn 0.6677 -0.1049 0.7370
vn 0.7430 -0.0513 0.6674
vn 0.9971 -0.0759 -0.0000
vn 0.9890 -0.1476 -0.0000
vn 0.9974 -0.0722 -0.0000
vn -0.0000 0.0056 1.0000
vn -0.0000 -0.0015 1.0000
vn -0.0000 0.0023 1.0000
vn -0.0000 0.0092 -1.0000
vn -0.0000 0.0017 -1.0000
vn -0.0000 0.0033 -1.0000
vn -0.6976 0.0017 0.7165
vn -0.7159 -0.0011 0.6982
vn -0.7001 0.0041 0.7140
vn -0.0009 0.0071 -1.0000
vn 0.0004 0.0032 -1.0000
vn -0.0002 -0.0004 -1.0000
vn -0.0005 0.0043 1.0000
vn 0.0004 -0.0003 1.0000
vn -0.0001 -0.0003 1.0000
vt 0.067884 0.081815
vt 0.069664 0.088711
vt 0.064225 0.088723
vt 0.062431 0.081840
vt 0.067882 0.074590
vt 0.062396 0.074617
vt 0.830438 0.907316
vt 0.828772 0.920912
vt 0.788121 0.918434
vt 0.789938 0.907353
vt 0.861277 0.803189
vt 0.856596 0.786353
vt 0.859302 0.786353
vt 0.867546 0.802987
vt 0.062372 0.069699
vt 0.067835 0.069671
vt 0.793857 0.879518
vt 0.794229 0.872486
vt 0.837604 0.863927
vt 0.838143 0.873202
vt 0.062400 0.864286
vt 0.067887 0.864312
vt 0.067840 0.869231
vt 0.062376 0.869205
vt 0.067732 0.050078
vt 0.790559 0.031563
vt 0.792428 0.042739
vt 0.067787 0.060423
vt 0.062434 0.857061
vt 0.064227 0.850176
vt 0.069668 0.850187
vt 0.067888 0.857085
vt 0.795052 0.863798
vt 0.837156 0.858048
vt 0.069678 0.096137
vt 0.069681 0.842760
vt 0.064238 0.842754
vt 0.064235 0.096143
vt 0.044979 0.842745
vt 0.044977 0.096151
vt 0.049894 0.096151
vt 0.049897 0.842746
vt 0.924723 0.778853
vt 0.924723 0.024461
vt 0.927429 0.024461
vt 0.927429 0.778853
vt 0.867547 0.000327
vt 0.859302 0.016961
vt 0.856596 0.016961
vt 0.861277 0.000126
vt 0.877880 0.778853
vt 0.859302 0.778853
vt 0.859302 0.024461
vt 0.877880 0.024461
vt 0.856596 0.778853
vt 0.856596 0.024461
vt 0.057121 0.842749
vt 0.057119 0.096148
vt 0.049893 0.088730
vt 0.057114 0.088728
vt 0.044976 0.088730
vt 0.057116 0.850169
vt 0.049895 0.850167
vt 0.044978 0.850166
vt 0.927429 0.786353
vt 0.924723 0.786353
vt 0.846619 0.812659
vt 0.839120 0.812659
vt 0.839120 0.803440
vt 0.846619 0.803440
vt 0.839120 0.024461
vt 0.839119 0.778853
vt 0.877880 0.786353
vt 0.877880 0.016961
vt 0.794598 0.856011
vt 0.795262 0.083133
vt 0.836855 0.088185
vt 0.836198 0.850875
vt 0.839119 0.786353
vt 0.795651 0.075228
vt 0.794831 0.066517
vt 0.838304 0.075203
vt 0.837840 0.081115
vt 0.794465 0.059465
vt 0.838869 0.065890
vt 0.794170 0.052841
vt 0.837407 0.057029
vt 0.793556 0.886123
vt 0.836667 0.882026
vt 0.839120 0.016961
vt 0.894135 0.016961
vt 0.896841 0.016961
vt 0.896841 0.024461
vt 0.894135 0.024461
vt 0.896841 0.778853
vt 0.894135 0.778853
vt 0.894135 0.786353
vt 0.896841 0.786353
vt 0.896479 0.802401
vt 0.906084 0.801190
vt 0.924723 0.016961
vt 0.927429 0.016961
vt 0.067678 0.039733
vt 0.788745 0.020458
vt 0.837407 0.044579
vt 0.831198 0.031651
vt 0.829543 0.018013
vt 0.791812 0.896203
vt 0.067793 0.878492
vt 0.067740 0.888851
vt 0.067687 0.899213
vt 0.836644 0.894436
vt 0.823651 0.938738
vt 0.785684 0.934053
vt 0.000126 0.096152
vt 0.015073 0.096152
vt 0.015076 0.842745
vt 0.000128 0.842745
vt 0.025406 0.096152
vt 0.025409 0.842745
vt 0.035738 0.096152
vt 0.035741 0.842745
vt 0.999874 0.778853
vt 0.981050 0.778854
vt 0.981051 0.024461
vt 0.999874 0.024461
vt 0.967147 0.778854
vt 0.967147 0.024461
vt 0.952526 0.778854
vt 0.952527 0.024461
vt 0.967138 0.786353
vt 0.952515 0.786956
vt 0.981046 0.786993
vt 0.999874 0.786353
vt 0.025407 0.088730
vt 0.035739 0.088314
vt 0.015074 0.088345
vt 0.000126 0.088730
vt 0.062279 0.888824
vt 0.062330 0.878466
vt 0.062228 0.899186
vt 0.067610 0.914190
vt 0.062154 0.914163
vt 0.952515 0.016540
vt 0.967139 0.016961
vt 0.981046 0.016572
vt 0.999874 0.016961
vt 0.062325 0.060449
vt 0.062272 0.050105
vt 0.062220 0.039760
vt 0.062144 0.024801
vt 0.067599 0.024773
vt 0.035741 0.850763
vt 0.025409 0.850167
vt 0.015076 0.850800
vt 0.000128 0.850167
vt 0.939778 0.786353
vt 0.939778 0.778853
vt 0.786311 0.004795
vt 0.824421 0.000125
vt 0.939778 0.024461
vt 0.939778 0.016962
vt 0.896479 0.000913
vt 0.906083 0.002124
vt 0.914322 0.778853
vt 0.914323 0.024461
vt 0.914322 0.786353
vt 0.914323 0.016961
vt 0.926095 0.796615
vt 0.935281 0.795834
vt 0.926094 0.006699
vt 0.935281 0.007479
vt 0.939778 0.016961
s 1
f 30/1/27 32/2/30 14/3/14 10/4/10
f 27/5/27 30/1/27 10/4/10 1/6/1
f 96/7/69 95/8/68 119/9/86 120/10/87
f 15/11/15 20/12/20 18/13/18 11/14/11
f 27/5/27 1/6/1 21/15/21 33/16/31
f 61/17/25 63/18/25 11/19/11 7/20/7
f 3/21/3 25/22/25 34/23/32 22/24/22
f 105/25/78 123/26/90 124/27/91 106/28/79
f 9/29/9 13/30/13 31/31/29 29/32/25
f 3/21/3 9/29/9 29/32/25 25/22/25
f 63/18/25 64/33/47 15/34/15 11/19/11
f 60/35/45 59/36/45 48/37/39 47/38/39
f 58/39/33 57/40/33 36/41/33 35/42/33
f 87/43/64 88/44/64 85/45/63 86/46/63
f 12/47/12 17/48/17 19/49/19 16/50/16
f 46/51/38 52/52/41 51/53/41 45/54/38
f 51/53/41 52/52/41 53/55/42 54/56/42
f 44/57/37 43/58/37 47/38/39 48/37/39
f 35/42/33 36/41/33 43/58/37 44/57/37
f 1/59/1 10/60/10 43/58/37 36/41/33
f 1/59/1 36/41/33 57/40/33 21/61/21
f 35/42/33 44/57/37 9/62/9 3/63/3
f 35/42/33 3/63/3 22/64/22 58/39/33
f 87/43/64 86/46/63 82/65/60 84/66/62
f 39/67/34 5/68/5 24/69/24 56/70/44
f 44/57/37 48/37/39 13/30/13 9/62/9
f 10/60/10 14/3/14 47/38/39 43/58/37
f 49/71/40 54/56/42 53/55/42 50/72/40
f 11/73/11 18/13/18 52/52/41 46/51/38
f 13/30/13 48/37/39 59/36/45 31/31/29
f 47/38/39 14/3/14 32/2/30 60/35/45
f 45/54/38 51/53/41 17/48/17 12/74/12
f 72/75/49 66/76/49 49/77/40 50/78/40
f 50/72/40 53/55/42 20/12/20 15/79/15
f 18/13/18 20/12/20 53/55/42 52/52/41
f 51/53/41 54/56/42 19/49/19 17/48/17
f 64/33/47 72/75/49 50/78/40 15/34/15
f 70/80/51 69/81/27 12/82/12 16/83/16
f 69/81/27 68/84/27 5/85/5 12/82/12
f 5/85/5 68/84/27 65/86/48 24/87/24
f 29/32/25 63/18/25 61/17/25 25/22/25
f 31/31/29 64/33/47 63/18/25 29/32/25
f 25/22/25 61/17/25 71/88/52 34/23/32
f 59/36/45 72/75/49 64/33/47 31/31/29
f 32/2/30 70/80/51 66/76/49 60/35/45
f 59/36/45 60/35/45 66/76/49 72/75/49
f 32/2/30 30/1/27 69/81/27 70/80/51
f 30/1/27 27/5/27 68/84/27 69/81/27
f 61/17/25 7/20/7 23/89/23 71/88/52
f 27/5/27 33/16/31 65/86/48 68/84/27
f 16/90/16 19/49/19 54/56/42 49/71/40
f 75/91/55 73/92/53 77/93/57 80/94/58
f 77/93/57 78/95/57 79/96/58 80/94/58
f 76/97/56 79/96/58 78/95/57 74/98/54
f 11/99/11 76/97/56 74/98/54 7/100/7
f 83/101/61 81/102/59 85/45/63 88/44/64
f 104/103/77 122/104/89 123/26/90 105/25/78
f 65/86/48 33/16/31 106/28/79 124/27/91
f 24/87/24 65/86/48 124/27/91 100/105/73
f 123/26/90 99/106/72 100/105/73 124/27/91
f 122/104/89 98/107/71 99/106/72 123/26/90
f 34/23/32 71/88/52 121/108/88 109/109/82
f 120/10/87 108/110/81 109/109/82 121/108/88
f 119/9/86 107/111/80 108/110/81 120/10/87
f 71/88/52 23/89/23 97/112/70 121/108/88
f 95/8/68 8/113/8 67/114/50 119/9/86
f 97/112/70 96/7/69 120/10/87 121/108/88
f 38/115/33 91/116/33 116/117/33 37/118/33
f 116/117/33 91/116/33 90/119/33 117/120/33
f 117/120/33 90/119/33 89/121/33 118/122/33
f 42/123/36 103/124/76 113/125/76 41/126/36
f 113/125/76 103/124/76 102/127/75 114/128/75
f 114/128/75 102/127/75 101/129/74 115/130/74
f 101/129/74 102/127/75 96/131/69 97/132/70
f 102/127/75 103/124/76 95/133/68 96/131/69
f 103/124/76 42/123/36 8/134/8 95/133/68
f 89/121/33 90/119/33 111/135/84 110/136/83
f 90/119/33 91/116/33 112/137/85 111/135/84
f 91/116/33 38/115/33 2/138/2 112/137/85
f 109/109/82 108/110/81 93/139/66 94/140/67
f 108/110/81 107/111/80 92/141/65 93/139/66
f 107/111/80 26/142/26 4/143/4 92/141/65
f 100/144/73 99/145/72 114/128/75 115/130/74
f 99/145/72 98/146/71 113/125/76 114/128/75
f 98/146/71 6/147/6 41/126/36 113/125/76
f 110/148/83 111/149/84 105/25/78 106/28/79
f 111/149/84 112/150/85 104/103/77 105/25/78
f 112/150/85 2/151/2 28/152/28 104/103/77
f 94/153/67 93/154/66 117/120/33 118/122/33
f 93/154/66 92/155/65 116/117/33 117/120/33
f 92/155/65 4/156/4 37/118/33 116/117/33
f 21/61/21 57/40/33 89/121/33 110/136/83
f 118/122/33 89/121/33 57/40/33 58/39/33
f 58/39/33 22/64/22 94/153/67 118/122/33
f 22/24/22 34/23/32 109/109/82 94/140/67
f 23/157/23 55/158/43 101/129/74 97/132/70
f 62/159/46 6/160/6 98/107/71 122/104/89
f 56/161/44 24/162/24 100/144/73 115/130/74
f 115/130/74 101/129/74 55/158/43 56/161/44
f 33/16/31 21/15/21 110/148/83 106/28/79
f 26/142/26 107/111/80 119/9/86 67/114/50
f 62/159/46 122/104/89 104/103/77 28/152/28
f 73/92/53 75/91/55 12/163/12 5/164/5
f 40/165/35 78/95/57 77/93/57 39/166/34
f 45/54/38 80/94/58 79/96/58 46/51/38
f 74/98/54 78/95/57 40/165/35 7/167/7
f 77/93/57 73/92/53 5/168/5 39/166/34
f 79/96/58 76/97/56 11/73/11 46/51/38
f 12/74/12 75/91/55 80/94/58 45/54/38
f 7/169/7 84/66/62 82/65/60 23/170/23
f 81/102/59 83/101/61 5/171/5 24/172/24
f 55/158/43 86/46/63 85/45/63 56/161/44
f 39/166/34 88/44/64 87/43/64 40/165/35
f 23/157/23 82/65/60 86/46/63 55/158/43
f 85/45/63 81/102/59 24/173/24 56/161/44
f 87/43/64 84/66/62 7/167/7 40/165/35
f 5/168/5 83/101/61 88/44/64 39/166/34
f 70/80/51 16/83/16 49/77/40 66/76/49
