# Blender 5.1.2
# www.blender.org
mtllib Sticky_Note.mtl
o Cube.006
v 5.907926 0.000335 -5.945074
v -5.907933 0.000335 -5.945075
v 5.907926 0.305912 5.910612
v -5.907933 0.305912 5.910611
v 5.907926 0.107314 -5.917712
v -5.907933 0.107314 -5.917713
v 5.907926 0.396476 5.877762
v -5.907933 0.396476 5.877761
v -5.907933 0.505597 6.114112
v 5.907926 0.505597 6.114113
v -5.907933 0.545097 6.101208
v 5.907926 0.545097 6.101208
v 5.907926 0.000335 -5.860447
v -5.907933 0.000335 -5.860448
v 5.907926 0.107451 -5.833282
v -5.907933 0.107451 -5.833283
v -5.792758 0.000335 -5.945075
v 5.792751 0.000335 -5.945074
v -5.792758 0.305912 5.910611
v 5.792751 0.305912 5.910612
v -5.792758 0.107314 -5.917713
v 5.792751 0.107314 -5.917712
v -5.792758 0.396476 5.877761
v 5.792751 0.396476 5.877762
v -5.792758 0.505597 6.114112
v 5.792751 0.505597 6.114113
v 5.792751 0.545097 6.101208
v -5.792758 0.545097 6.101208
v 5.792751 0.107451 -5.833282
v -5.792758 0.107451 -5.833283
v -5.907933 0.294773 5.866491
v -5.907933 0.370135 5.834006
v 5.907926 0.294773 5.866492
v 5.907926 0.370135 5.834007
v -5.792758 0.370135 5.834006
v 5.792751 0.370135 5.834007
v 5.907926 0.055859 5.295647
v 5.907926 0.000335 4.220909
v 5.907926 0.000335 3.165269
v 5.907926 0.000335 2.109629
v 5.907926 0.000335 1.053990
v 5.907926 0.000335 -0.001649
v 5.907926 0.000335 -1.057290
v 5.907926 0.000335 -2.112928
v 5.907926 0.000335 -3.168568
v 5.907926 0.000335 -4.224207
v 5.907926 0.183715 5.289977
v 5.907926 0.123841 4.224730
v 5.907926 0.122125 3.171535
v 5.907926 0.120409 2.118339
v 5.907926 0.118693 1.065144
v 5.907926 0.116976 0.011949
v 5.907926 0.115260 -1.041246
v 5.907926 0.113544 -2.094440
v 5.907926 0.111828 -3.147635
v 5.907926 0.110111 -4.200830
v -5.792758 0.183715 5.289976
v -5.792758 0.123841 4.224729
v -5.792758 0.122125 3.171534
v -5.792758 0.120409 2.118339
v -5.792758 0.118693 1.065144
v -5.792758 0.116976 0.011949
v -5.792758 0.115260 -1.041246
v -5.792758 0.113544 -2.094441
v -5.792758 0.111828 -3.147636
v -5.792758 0.110111 -4.200831
v -5.907933 0.000335 -4.224207
v -5.907933 0.000335 -3.168568
v -5.907933 0.000335 -2.112928
v -5.907933 0.000335 -1.057289
v -5.907933 0.000335 -0.001649
v -5.907933 0.000335 1.053990
v -5.907933 0.000335 2.109629
v -5.907933 0.000335 3.165269
v -5.907933 0.000335 4.220908
v -5.907933 0.055859 5.295646
v -5.907933 0.110111 -4.200831
v -5.907933 0.111828 -3.147636
v -5.907933 0.113544 -2.094441
v -5.907933 0.115260 -1.041246
v -5.907933 0.116976 0.011949
v -5.907933 0.118693 1.065144
v -5.907933 0.120409 2.118339
v -5.907933 0.122125 3.171534
v -5.907933 0.123841 4.224729
v -5.907933 0.183715 5.289976
v 5.792751 0.110111 -4.200830
v 5.792751 0.111828 -3.147635
v 5.792751 0.113544 -2.094440
v 5.792751 0.115260 -1.041246
v 5.792751 0.116976 0.011949
v 5.792751 0.118693 1.065144
v 5.792751 0.120409 2.118339
v 5.792751 0.122125 3.171535
v 5.792751 0.123841 4.224730
v 5.792751 0.183715 5.289977
v 5.907926 0.329830 5.939016
v 5.907926 0.418705 5.913369
v -5.907933 0.418705 5.913368
v -5.907933 0.329831 5.939015
v -5.792758 0.329831 5.939015
v 5.792751 0.329830 5.939016
v 5.792751 0.418705 5.913369
v -5.792758 0.418705 5.913368
v 5.907926 0.477995 6.089698
v -5.907933 0.477995 6.089697
v -5.792758 0.477995 6.089697
v 5.792751 0.522941 6.070149
v 5.907926 0.522941 6.070149
v -5.907933 0.522941 6.070148
v 5.792751 0.477995 6.089698
v -5.792758 0.522941 6.070148
vn -1.0000 -0.0000 -0.0000
vn 1.0000 -0.0000 -0.0000
vn -0.0000 1.0000 -0.0016
vn -0.0000 -0.6625 0.7490
vn -0.0000 0.8141 -0.5807
vn -0.0000 0.3106 0.9506
vn -0.0000 0.2478 -0.9688
vn -0.0000 0.8567 -0.5158
vn -0.0000 0.3105 0.9506
vn -0.0000 0.9460 -0.3242
vn -0.0000 0.9984 -0.0561
vn -0.0000 0.8483 -0.5296
vn -0.0000 -0.7649 0.6441
vn -0.0000 0.8327 -0.5537
vn -0.0000 -0.7130 0.7011
vn -0.0000 -1.0000 -0.0000
vn -0.0000 -0.9987 0.0516
vn -0.0000 -0.9225 0.3861
vn -0.0000 -0.9696 0.2448
vt 0.514506 0.004239
vt 0.515628 0.008632
vt 0.512164 0.008632
vt 0.511034 0.004245
vt 0.498294 0.502865
vt 0.496796 0.503334
vt 0.496796 0.501625
vt 0.498104 0.500857
vt 0.009429 0.500857
vt 0.010737 0.501625
vt 0.010737 0.503334
vt 0.009239 0.502865
vt 0.997313 0.499290
vt 0.997121 0.495970
vt 0.999190 0.495727
vt 0.999065 0.499504
vt 0.511034 0.497793
vt 0.512164 0.493406
vt 0.515628 0.493406
vt 0.514506 0.497799
vt 0.581637 0.004129
vt 0.582603 0.008631
vt 0.515628 0.013357
vt 0.515628 0.488681
vt 0.512164 0.488680
vt 0.512164 0.013357
vt 0.015475 0.500109
vt 0.492058 0.500109
vt 0.492058 0.501625
vt 0.015475 0.501625
vt 0.492058 0.504903
vt 0.015475 0.504903
vt 0.015475 0.503334
vt 0.492058 0.503334
vt 0.507634 0.488680
vt 0.507634 0.013357
vt 0.582603 0.013356
vt 0.582603 0.488681
vt 0.507634 0.493406
vt 0.507634 0.008632
vt 0.496796 0.500109
vt 0.010737 0.500109
vt 0.496796 0.504904
vt 0.996789 0.491153
vt 0.998897 0.491074
vt 0.010737 0.504904
vt 0.973352 0.010224
vt 0.973346 0.005357
vt 0.997828 0.006379
vt 0.997524 0.011118
vt 0.972666 0.496829
vt 0.972655 0.492028
vt 0.999899 0.006636
vt 0.999583 0.011208
vt 0.999798 0.002852
vt 0.998041 0.003055
vt 0.971849 0.502069
vt 0.582603 0.493407
vt 0.581637 0.497909
vt 0.625813 0.493408
vt 0.624946 0.497981
vt 0.669022 0.493411
vt 0.668255 0.498054
vt 0.712230 0.493420
vt 0.711562 0.498133
vt 0.755434 0.493443
vt 0.754864 0.498226
vt 0.798629 0.493504
vt 0.798152 0.498354
vt 0.841798 0.493664
vt 0.841401 0.498576
vt 0.884899 0.494078
vt 0.884549 0.499050
vt 0.928061 0.495147
vt 0.927601 0.500207
vt 0.625813 0.488683
vt 0.669023 0.488686
vt 0.712231 0.488695
vt 0.755439 0.488719
vt 0.798641 0.488781
vt 0.841830 0.488946
vt 0.884982 0.489381
vt 0.928202 0.490480
vt 0.625813 0.008630
vt 0.625813 0.013355
vt 0.669022 0.008626
vt 0.669023 0.013351
vt 0.712232 0.008616
vt 0.712234 0.013342
vt 0.755442 0.008592
vt 0.755446 0.013318
vt 0.798654 0.008530
vt 0.798666 0.013256
vt 0.841878 0.008371
vt 0.841909 0.013101
vt 0.885138 0.007963
vt 0.885217 0.012704
vt 0.928591 0.006911
vt 0.928731 0.011694
vt 0.972552 0.000101
vt 0.928137 0.001825
vt 0.884788 0.002965
vt 0.841480 0.003446
vt 0.798177 0.003676
vt 0.754871 0.003808
vt 0.711564 0.003903
vt 0.668256 0.003983
vt 0.624946 0.004057
vt 0.010737 0.514375
vt 0.010737 0.512648
vt 0.015475 0.512648
vt 0.015475 0.514375
vt 0.492058 0.514375
vt 0.492059 0.512648
vt 0.496796 0.512648
vt 0.496796 0.514375
vt 0.015475 0.489888
vt 0.015475 0.491416
vt 0.010737 0.491416
vt 0.010737 0.489888
vt 0.496796 0.489888
vt 0.496796 0.491416
vt 0.492058 0.491416
vt 0.492058 0.489888
vt 0.000228 0.496416
vt 0.001645 0.496989
vt 0.001777 0.500792
vt 0.000101 0.500377
vt 0.507432 0.500377
vt 0.505756 0.500792
vt 0.505889 0.496989
vt 0.507305 0.496416
vt 0.496796 0.003582
vt 0.496796 0.070891
vt 0.010737 0.070891
vt 0.010737 0.003582
vt 0.010737 0.000101
vt 0.015475 0.000101
vt 0.492058 0.000101
vt 0.496796 0.000101
vt 0.496796 0.157741
vt 0.010737 0.157741
vt 0.010737 0.114316
vt 0.496796 0.114316
vt 0.496796 0.201166
vt 0.010737 0.201166
vt 0.496796 0.244591
vt 0.010737 0.244591
vt 0.496796 0.288016
vt 0.010737 0.288016
vt 0.496796 0.331441
vt 0.010737 0.331441
vt 0.496796 0.374866
vt 0.010737 0.374866
vt 0.496796 0.418291
vt 0.010737 0.418291
vt 0.496796 0.462560
vt 0.010737 0.462560
vt 0.496796 0.488016
vt 0.010737 0.488016
s 0
f 14/1/1 16/2/1 6/3/1 2/4/1
f 109/5/2 12/6/2 10/7/2 105/8/2
f 106/9/1 9/10/1 11/11/1 110/12/1
f 33/13/2 34/14/2 7/15/2 3/16/2
f 1/17/2 5/18/2 15/19/2 13/20/2
f 67/21/1 77/22/1 16/2/1 14/1/1
f 30/23/3 29/24/3 22/25/3 21/26/3
f 107/27/4 111/28/4 26/29/4 25/30/4
f 108/31/5 112/32/5 28/33/5 27/34/5
f 25/30/6 26/29/6 27/34/6 28/33/6
f 18/35/7 17/36/7 21/26/7 22/25/7
f 66/37/3 87/38/3 29/24/3 30/23/3
f 18/35/7 22/25/7 5/18/7 1/39/7
f 2/40/7 6/3/7 21/26/7 17/36/7
f 105/41/4 10/7/4 26/29/4 111/28/4
f 107/27/4 25/30/4 9/10/4 106/42/4
f 5/18/3 22/25/3 29/24/3 15/19/3
f 21/26/3 6/3/3 16/2/3 30/23/3
f 108/31/5 27/34/5 12/6/5 109/43/5
f 34/14/8 36/44/8 24/45/8 7/15/8
f 110/46/5 11/11/5 28/33/5 112/32/5
f 10/7/6 12/6/6 27/34/6 26/29/6
f 25/30/9 28/33/9 11/11/9 9/10/9
f 57/47/10 86/48/10 32/49/10 35/50/10
f 47/51/10 96/52/10 36/44/10 34/14/10
f 35/50/8 32/49/8 8/53/8 23/54/8
f 23/54/8 24/45/8 36/44/8 35/50/8
f 4/55/1 8/53/1 32/49/1 31/56/1
f 37/57/2 47/51/2 34/14/2 33/13/2
f 13/20/2 15/19/2 56/58/2 46/59/2
f 46/59/2 56/58/2 55/60/2 45/61/2
f 45/61/2 55/60/2 54/62/2 44/63/2
f 44/63/2 54/62/2 53/64/2 43/65/2
f 43/65/2 53/64/2 52/66/2 42/67/2
f 42/67/2 52/66/2 51/68/2 41/69/2
f 41/69/2 51/68/2 50/70/2 40/71/2
f 40/71/2 50/70/2 49/72/2 39/73/2
f 39/73/2 49/72/2 48/74/2 38/75/2
f 38/75/2 48/74/2 47/51/2 37/57/2
f 15/19/3 29/24/3 87/38/3 56/58/3
f 56/58/3 87/38/3 88/76/3 55/60/3
f 55/60/3 88/76/3 89/77/3 54/62/3
f 54/62/3 89/77/3 90/78/3 53/64/3
f 53/64/3 90/78/3 91/79/3 52/66/3
f 52/66/3 91/79/3 92/80/3 51/68/3
f 51/68/3 92/80/3 93/81/3 50/70/3
f 50/70/3 93/81/3 94/82/3 49/72/3
f 49/72/3 94/82/3 95/83/3 48/74/3
f 48/74/11 95/83/11 96/52/11 47/51/11
f 30/23/3 16/2/3 77/22/3 66/37/3
f 66/37/3 77/22/3 78/84/3 65/85/3
f 65/85/3 78/84/3 79/86/3 64/87/3
f 64/87/3 79/86/3 80/88/3 63/89/3
f 63/89/3 80/88/3 81/90/3 62/91/3
f 62/91/3 81/90/3 82/92/3 61/93/3
f 61/93/3 82/92/3 83/94/3 60/95/3
f 60/95/3 83/94/3 84/96/3 59/97/3
f 59/97/3 84/96/3 85/98/3 58/99/3
f 58/99/11 85/98/11 86/48/11 57/47/11
f 35/50/10 36/44/10 96/52/10 57/47/10
f 57/47/11 96/52/11 95/83/11 58/99/11
f 58/99/3 95/83/3 94/82/3 59/97/3
f 59/97/3 94/82/3 93/81/3 60/95/3
f 60/95/3 93/81/3 92/80/3 61/93/3
f 61/93/3 92/80/3 91/79/3 62/91/3
f 62/91/3 91/79/3 90/78/3 63/89/3
f 63/89/3 90/78/3 89/77/3 64/87/3
f 64/87/3 89/77/3 88/76/3 65/85/3
f 65/85/3 88/76/3 87/38/3 66/37/3
f 31/56/1 32/49/1 86/48/1 76/100/1
f 76/100/1 86/48/1 85/98/1 75/101/1
f 75/101/1 85/98/1 84/96/1 74/102/1
f 74/102/1 84/96/1 83/94/1 73/103/1
f 73/103/1 83/94/1 82/92/1 72/104/1
f 72/104/1 82/92/1 81/90/1 71/105/1
f 71/105/1 81/90/1 80/88/1 70/106/1
f 70/106/1 80/88/1 79/86/1 69/107/1
f 69/107/1 79/86/1 78/84/1 68/108/1
f 68/108/1 78/84/1 77/22/1 67/21/1
f 8/109/12 99/110/12 104/111/12 23/112/12
f 24/113/12 103/114/12 98/115/12 7/116/12
f 19/117/13 101/118/13 100/119/13 4/120/13
f 3/121/13 97/122/13 102/123/13 20/124/13
f 24/113/12 23/112/12 104/111/12 103/114/12
f 19/117/13 20/124/13 102/123/13 101/118/13
f 4/125/1 100/126/1 99/127/1 8/128/1
f 7/129/2 98/130/2 97/131/2 3/132/2
f 99/110/14 110/46/14 112/32/14 104/111/14
f 103/114/14 108/31/14 109/43/14 98/115/14
f 101/118/15 107/27/15 106/42/15 100/119/15
f 97/122/15 105/41/15 111/28/15 102/123/15
f 103/114/14 104/111/14 112/32/14 108/31/14
f 101/118/15 102/123/15 111/28/15 107/27/15
f 100/126/1 106/9/1 110/12/1 99/127/1
f 98/130/2 109/5/2 105/8/2 97/131/2
f 13/133/16 46/134/16 67/135/16 14/136/16 2/137/16 17/138/16 18/139/16 1/140/16
f 44/141/16 69/142/16 68/143/16 45/144/16
f 45/144/16 68/143/16 67/135/16 46/134/16
f 43/145/16 70/146/16 69/142/16 44/141/16
f 42/147/16 71/148/16 70/146/16 43/145/16
f 41/149/16 72/150/16 71/148/16 42/147/16
f 40/151/16 73/152/16 72/150/16 41/149/16
f 39/153/16 74/154/16 73/152/16 40/151/16
f 38/155/16 75/156/16 74/154/16 39/153/16
f 37/157/17 76/158/17 75/156/17 38/155/17
f 76/158/18 37/157/18 33/159/18 31/160/18
f 20/124/19 19/117/19 4/120/19 31/160/19 33/159/19 3/121/19
