# Blender 4.5.1 LTS
# www.blender.org
mtllib Tissue_Box.mtl
o Cube.011
v 0.087636 0.001935 -0.541004
v 0.175271 0.001935 0.541004
v -0.175271 0.001935 0.541004
v -0.000000 0.001935 0.541004
v 0.175271 0.001935 -0.541004
v -0.175271 0.001935 -0.541004
v 0.000000 0.001935 -0.541004
v -0.079492 0.378385 0.329136
v -0.079559 0.378257 -0.329441
v -0.087636 0.001935 0.541004
v -0.087636 0.001935 -0.541004
v 0.321591 0.001935 -0.371878
v 0.321591 0.001935 0.371878
v -0.321591 0.001935 0.371878
v -0.321591 0.001935 -0.371878
v 0.175271 0.359469 -0.371878
v 0.175271 0.359469 0.371878
v -0.001600 0.378572 0.255709
v -0.002141 0.377792 -0.266265
v -0.175271 0.359469 0.371878
v -0.175271 0.359469 -0.371878
v 0.087636 0.001935 0.541004
v 0.079488 0.378257 -0.329452
v 0.079488 0.378257 0.329430
v 0.061805 0.378257 0.211669
v 0.061917 0.378252 -0.211649
v -0.062029 0.378301 0.211587
v -0.061744 0.378232 -0.211691
v -0.175271 0.359469 -0.256674
v -0.175271 0.359469 0.256674
v 0.175271 0.359469 -0.256674
v 0.175271 0.359469 0.256674
v 0.321591 0.001935 0.256674
v 0.321591 0.001935 -0.256674
v -0.321591 0.001935 -0.256674
v -0.321591 0.001935 0.256674
v -0.321591 0.349895 -0.512031
v -0.304368 0.359469 -0.512031
v -0.304368 0.349895 -0.541004
v -0.321591 0.001935 -0.512031
v -0.304368 0.001935 -0.541004
v 0.321591 0.349895 -0.512031
v 0.304368 0.349895 -0.541004
v 0.304368 0.359469 -0.512031
v 0.304368 0.001935 -0.541004
v 0.321591 0.001935 -0.512031
v -0.321591 0.349895 0.512031
v -0.304368 0.349895 0.541004
v -0.304368 0.359469 0.512031
v -0.304368 0.001935 0.541004
v -0.321591 0.001935 0.512031
v 0.321591 0.349895 0.512031
v 0.304368 0.359469 0.512031
v 0.304368 0.349895 0.541004
v 0.321591 0.001935 0.512031
v 0.304368 0.001935 0.541004
v 0.087636 0.349895 -0.541004
v 0.078733 0.359469 -0.512031
v -0.175271 0.349895 -0.541004
v -0.175271 0.359469 -0.512031
v 0.175271 0.359469 -0.512031
v 0.175271 0.349895 -0.541004
v 0.000000 0.361212 -0.512031
v 0.000000 0.349895 -0.541004
v 0.175271 0.349895 0.541004
v 0.175271 0.359469 0.512031
v -0.175271 0.359469 0.512031
v -0.175271 0.349895 0.541004
v -0.000000 0.361212 0.512031
v -0.000000 0.349895 0.541004
v -0.087636 0.349895 0.541004
v -0.078733 0.359469 0.512031
v -0.087636 0.349895 -0.541004
v -0.078733 0.359469 -0.512031
v -0.304368 0.359469 -0.371878
v -0.321591 0.349895 -0.371878
v -0.321591 0.349895 0.371878
v -0.304368 0.359469 0.371878
v 0.304368 0.359469 0.371878
v 0.321591 0.349895 0.371878
v 0.304368 0.359469 -0.371878
v 0.321591 0.349895 -0.371878
v 0.078733 0.359469 0.512031
v 0.087636 0.349895 0.541004
v -0.321591 0.349895 0.256674
v -0.304368 0.359469 0.256674
v -0.304368 0.359469 -0.256674
v -0.321591 0.349895 -0.256674
v 0.321591 0.349895 -0.256674
v 0.304368 0.359469 -0.256674
v 0.304368 0.359469 0.256674
v 0.321591 0.349895 0.256674
v -0.001284 0.378325 0.238790
v 0.000757 0.377936 -0.174924
v -0.013740 0.470905 0.295926
v -0.027654 0.458967 -0.313322
v -0.032443 0.472192 0.177270
v -0.001515 0.458519 -0.211580
v 0.001234 0.593386 0.358283
v -0.001055 0.557984 -0.368841
v 0.013691 0.582722 0.226448
v 0.002656 0.565465 -0.258114
v 0.002847 0.683860 0.361938
v 0.015469 0.664605 -0.387219
v 0.032575 0.674610 0.227197
v -0.003369 0.648644 -0.260257
v 0.006214 0.378531 0.252640
v 0.006319 0.377797 -0.263618
v 0.004773 0.378337 0.163739
v 0.006749 0.377895 -0.174602
v -0.007774 0.470827 0.296047
v -0.005305 0.458085 -0.311604
v 0.033677 0.476798 0.179961
v 0.018035 0.457637 -0.209332
v 0.007168 0.593309 0.358404
v 0.004819 0.557143 -0.368982
v 0.019625 0.582644 0.226569
v 0.008530 0.564624 -0.258254
v 0.008781 0.683783 0.362059
v 0.021343 0.663764 -0.387360
v 0.038509 0.674533 0.227318
v 0.002505 0.647803 -0.260398
v 0.000890 0.379593 -0.174909
v -0.001382 0.380225 0.163513
v -0.002520 0.379428 -0.265483
v -0.001919 0.380369 0.255008
v 0.006889 0.379542 -0.174587
v 0.004546 0.380112 0.163662
v 0.005878 0.379428 -0.263375
v 0.005845 0.380327 0.252401
v 0.011883 0.476341 -0.002897
v 0.009096 0.552383 -0.013044
v 0.030477 0.635741 0.006049
v 0.005936 0.378257 -0.005642
v 0.051492 0.471886 -0.002284
v 0.015014 0.552400 -0.013505
v 0.036325 0.634928 0.005433
v 0.005936 0.379975 -0.005642
v 0.000000 0.379975 -0.005642
vn -0.4859 0.8740 -0.0000
vn -0.0848 0.9947 0.0584
vn 0.0844 0.9947 -0.0581
vn 0.0262 0.9963 0.0821
vn 0.0844 0.9947 0.0581
vn -0.0250 0.9963 0.0821
vn -0.1636 0.9865 -0.0001
vn 0.1634 0.9866 -0.0000
vn 0.1824 0.9831 0.0138
vn 0.1823 0.9831 -0.0138
vn -0.1834 0.9829 -0.0141
vn -0.1823 0.9831 0.0140
vn -0.0245 0.9963 -0.0823
vn 0.0251 0.9963 -0.0821
vn -0.4668 0.8397 -0.2775
vn 0.4668 0.8397 -0.2775
vn -0.4668 0.8397 0.2775
vn 0.4668 0.8397 0.2775
vn -0.8596 -0.0000 -0.5110
vn 0.8596 -0.0000 0.5110
vn 0.8596 -0.0000 -0.5110
vn -0.8596 -0.0000 0.5110
vn -0.0000 0.9495 0.3138
vn -0.0000 0.9495 -0.3138
vn -0.0099 0.9412 -0.3378
vn 0.0099 0.9412 0.3378
vn -0.0099 0.9412 0.3378
vn 0.0099 0.9412 -0.3378
vn 0.4859 0.8740 -0.0000
vn -1.0000 -0.0000 -0.0000
vn -0.0000 1.0000 -0.0000
vn -0.0000 -0.0000 -1.0000
vn 1.0000 -0.0000 -0.0000
vn -0.0000 -0.0000 1.0000
vn -0.0844 0.9947 -0.0581
vn -0.0025 1.0000 -0.0028
vn 0.0034 1.0000 -0.0023
vn -0.0062 1.0000 -0.0011
vn 0.0063 1.0000 -0.0012
vn -0.0022 1.0000 -0.0005
vn 0.0025 1.0000 -0.0005
vn -0.9875 -0.0891 -0.1302
vn -0.9844 -0.0905 0.1511
vn -0.9645 -0.2512 0.0820
vn -0.9634 0.2461 -0.1066
vn -0.9694 0.2089 0.1293
vn -0.9689 0.2470 0.0149
vn -0.9739 0.2260 -0.0198
vn -0.9969 0.0485 -0.0617
vn -0.9799 0.1141 -0.1636
vn 0.9263 -0.3727 0.0560
vn 0.9898 -0.0666 -0.1263
vn 0.9723 -0.1404 0.1867
vn 0.9655 0.2602 0.0085
vn 0.9901 -0.0667 -0.1235
vn 0.9713 -0.1055 0.2132
vn 0.9738 -0.2267 0.0199
vn 0.9969 -0.0485 0.0617
vn 0.9799 -0.1141 0.1636
vn 0.0927 -0.5012 -0.8604
vn 0.0181 -0.4976 -0.8672
vn -0.0469 -0.1626 -0.9856
vn 0.1436 0.9790 0.1444
vn 0.0669 0.9824 -0.1746
vn 0.0143 0.9978 -0.0653
vn 0.1600 -0.3992 0.9028
vn -0.0240 -0.4512 0.8921
vn -0.0209 -0.0400 0.9990
vn 0.3283 0.2973 0.8966
vn 0.2545 0.3471 -0.9027
vn 0.9865 0.1630 -0.0156
vn 0.9957 0.0918 -0.0082
vn 0.9979 0.0648 0.0075
vn -0.9689 -0.2475 -0.0067
vn -0.9959 -0.0830 0.0347
vn -0.9989 -0.0471 -0.0057
vn 0.9991 -0.0417 0.0053
vn 0.1415 0.9895 0.0299
vn 0.9931 -0.0833 -0.0825
vn 0.9736 0.2109 -0.0870
vn 0.9425 -0.3270 -0.0687
vn -0.9931 0.0832 0.0825
vn -0.9988 0.0210 0.0435
vn -0.9978 0.0598 0.0301
vt 0.548052 0.288430
vt 0.549443 0.214522
vt 0.539056 0.212763
vt 0.537066 0.288344
vt 0.413885 0.211343
vt 0.413976 0.312570
vt 0.467145 0.288503
vt 0.467501 0.211712
vt 0.272424 0.686859
vt 0.271745 0.763265
vt 0.324982 0.763961
vt 0.325306 0.663557
vt 0.370114 0.211415
vt 0.370644 0.353835
vt 0.272638 0.211087
vt 0.272508 0.288377
vt 0.325704 0.312383
vt 0.326320 0.211086
vt 0.468064 0.351641
vt 0.406352 0.378111
vt 0.404015 0.597740
vt 0.466672 0.624683
vt 0.333474 0.377972
vt 0.271504 0.351446
vt 0.272021 0.623879
vt 0.334693 0.597535
vt 0.412832 0.664073
vt 0.465764 0.687846
vt 0.368480 0.764141
vt 0.370256 0.630009
vt 0.411999 0.764666
vt 0.547641 0.763048
vt 0.537051 0.764641
vt 0.543981 0.780999
vt 0.190394 0.759882
vt 0.193933 0.777487
vt 0.200661 0.761557
vt 0.546134 0.196642
vt 0.190229 0.213325
vt 0.200811 0.211684
vt 0.193805 0.195364
vt 0.733209 0.792372
vt 0.734298 0.772738
vt 0.003673 0.204506
vt 0.004670 0.184882
vt 0.007518 0.773915
vt 0.008908 0.791838
vt 0.734435 0.205651
vt 0.733549 0.187496
vt 0.321373 0.194103
vt 0.272581 0.194127
vt 0.271444 0.780078
vt 0.319864 0.780756
vt 0.368336 0.781300
vt 0.416846 0.781583
vt 0.467672 0.194780
vt 0.418936 0.194410
vt 0.370165 0.194149
vt 0.465436 0.764884
vt 0.465415 0.781782
vt 0.200664 0.194652
vt 0.539317 0.195802
vt 0.200247 0.778420
vt 0.537107 0.781622
vt 0.535682 0.688283
vt 0.546330 0.688263
vt 0.203084 0.686977
vt 0.192191 0.686876
vt 0.202514 0.288074
vt 0.191867 0.288134
vt 0.736935 0.694494
vt 0.202482 0.624465
vt 0.201911 0.350496
vt 0.191311 0.350454
vt 0.191868 0.624521
vt 0.537605 0.351068
vt 0.536493 0.625814
vt 0.547114 0.625905
vt 0.548252 0.351049
vt 0.535917 0.975327
vt 0.464050 0.974885
vt 0.003127 0.692900
vt 0.269119 0.973011
vt 0.197338 0.971995
vt 0.736997 0.283213
vt 0.468714 0.000775
vt 0.540845 0.001294
vt 0.001414 0.282713
vt 0.200664 0.000130
vt 0.272834 0.000130
vt 0.317829 0.973600
vt 0.366554 0.974107
vt 0.415299 0.974531
vt 0.321809 0.000188
vt 0.419757 0.000507
vt 0.370791 0.000310
vt 0.738525 0.630566
vt 0.738583 0.346833
vt 0.000130 0.346583
vt 0.001425 0.629331
vt 0.370478 0.363741
vt 0.370467 0.363741
vt 0.369065 0.576203
vt 0.369131 0.576203
vt 0.788989 0.552015
vt 0.759500 0.646392
vt 0.809799 0.668190
vt 0.841524 0.569868
vt 0.828391 0.397199
vt 0.817929 0.459374
vt 0.866008 0.452425
vt 0.889151 0.404104
vt 0.742191 0.701561
vt 0.797406 0.729369
vt 0.864428 0.709719
vt 0.885587 0.577340
vt 0.928824 0.449374
vt 0.943188 0.397463
vt 0.848957 0.773665
vt 0.911272 0.725517
vt 0.930363 0.601689
vt 0.970162 0.459947
vt 0.996863 0.397924
vt 0.888448 0.793788
vt 0.781691 0.247683
vt 0.832341 0.228513
vt 0.804352 0.134676
vt 0.753884 0.159622
vt 0.827655 0.391474
vt 0.888153 0.393047
vt 0.862927 0.339637
vt 0.813669 0.336140
vt 0.739845 0.113015
vt 0.778066 0.072434
vt 0.879389 0.219531
vt 0.850264 0.089918
vt 0.943237 0.394642
vt 0.927830 0.343354
vt 0.831532 0.019042
vt 0.919448 0.194267
vt 0.898986 0.072806
vt 0.996927 0.394850
vt 0.970669 0.330657
vt 0.877431 0.000130
vt 0.999870 0.398711
vt 0.973084 0.460910
vt 0.933603 0.602235
vt 0.914341 0.725985
vt 0.891470 0.794172
vt 0.739876 0.706087
vt 0.795671 0.731953
vt 0.847465 0.776185
vt 0.887137 0.796396
vt 0.738844 0.705768
vt 0.740950 0.701336
vt 0.826591 0.391630
vt 0.827280 0.396849
vt 0.738844 0.113179
vt 0.752936 0.159871
vt 0.812777 0.336423
vt 0.780797 0.247988
vt 0.744363 0.690454
vt 0.817002 0.459141
s 0
usemtl Material.002
f 77/1/1 47/2/1 49/3/1 78/4/1
f 72/5/2 8/6/2 20/7/2 67/8/2
f 16/9/3 61/10/3 58/11/3 23/12/3
f 69/13/4 18/14/4 8/6/4 72/5/4
f 66/15/5 17/16/5 24/17/5 83/18/5
f 83/18/6 24/17/6 18/14/6 69/13/6
f 30/19/7 27/20/7 28/21/7 29/22/7
f 25/23/8 32/24/8 31/25/8 26/26/8
f 16/9/9 23/12/9 26/26/9 31/25/9
f 32/24/10 25/23/10 24/17/10 17/16/10
f 27/20/11 30/19/11 20/7/11 8/6/11
f 9/27/12 21/28/12 29/22/12 28/21/12
f 23/12/13 58/11/13 63/29/13 19/30/13
f 19/30/14 63/29/14 74/31/14 9/27/14
f 37/32/15 38/33/15 39/34/15
f 42/35/16 43/36/16 44/37/16
f 47/2/17 48/38/17 49/3/17
f 52/39/18 53/40/18 54/41/18
f 39/34/19 41/42/19 40/43/19 37/32/19
f 55/44/20 52/39/20 54/41/20 56/45/20
f 42/35/21 46/46/21 45/47/21 43/36/21
f 47/2/22 51/48/22 50/49/22 48/38/22
f 66/15/23 83/18/23 84/50/23 65/51/23
f 58/11/24 61/10/24 62/52/24 57/53/24
f 74/31/25 63/29/25 64/54/25 73/55/25
f 72/5/23 67/8/23 68/56/23 71/57/23
f 83/18/26 69/13/26 70/58/26 84/50/26
f 69/13/27 72/5/27 71/57/27 70/58/27
f 60/59/24 74/31/24 73/55/24 59/60/24
f 53/40/23 66/15/23 65/51/23 54/61/23
f 67/8/23 49/3/23 48/62/23 68/56/23
f 61/10/24 44/37/24 43/63/24 62/52/24
f 59/60/24 39/64/24 38/33/24 60/59/24
f 63/29/28 58/11/28 57/53/28 64/54/28
f 75/65/1 38/33/1 37/32/1 76/66/1
f 44/37/29 81/67/29 82/68/29 42/35/29
f 79/69/29 53/40/29 52/39/29 80/70/29
f 15/71/30 76/66/30 37/32/30 40/43/30
f 90/72/29 91/73/29 92/74/29 89/75/29
f 86/76/1 87/77/1 88/78/1 85/79/1
f 85/79/1 77/1/1 78/4/1 86/76/1
f 87/77/1 75/65/1 76/66/1 88/78/1
f 80/70/29 92/74/29 91/73/29 79/69/29
f 89/75/29 82/68/29 81/67/29 90/72/29
f 38/33/31 75/65/31 21/28/31 60/59/31
f 41/80/32 39/64/32 59/60/32 6/81/32
f 82/68/33 12/82/33 46/46/33 42/35/33
f 16/9/31 81/67/31 44/37/31 61/10/31
f 5/83/32 62/52/32 43/63/32 45/84/32
f 47/2/30 77/1/30 14/85/30 51/48/30
f 78/4/31 49/3/31 67/8/31 20/7/31
f 3/86/34 68/56/34 48/62/34 50/87/34
f 13/88/33 80/70/33 52/39/33 55/44/33
f 17/16/31 66/15/31 53/40/31 79/69/31
f 56/89/34 54/61/34 65/51/34 2/90/34
f 62/52/32 5/83/32 1/91/32 57/53/32
f 57/53/32 1/91/32 7/92/32 64/54/32
f 73/55/32 11/93/32 6/81/32 59/60/32
f 64/54/32 7/92/32 11/93/32 73/55/32
f 84/50/34 22/94/34 2/90/34 65/51/34
f 68/56/34 3/86/34 10/95/34 71/57/34
f 70/58/34 4/96/34 22/94/34 84/50/34
f 71/57/34 10/95/34 4/96/34 70/58/34
f 87/77/31 29/22/31 21/28/31 75/65/31
f 76/66/30 15/71/30 35/97/30 88/78/30
f 78/4/31 20/7/31 30/19/31 86/76/31
f 85/79/30 36/98/30 14/85/30 77/1/30
f 80/70/33 13/88/33 33/99/33 92/74/33
f 17/16/31 79/69/31 91/73/31 32/24/31
f 31/25/31 90/72/31 81/67/31 16/9/31
f 89/75/33 34/100/33 12/82/33 82/68/33
f 36/98/30 85/79/30 88/78/30 35/97/30
f 29/22/31 87/77/31 86/76/31 30/19/31
f 34/100/33 89/75/33 92/74/33 33/99/33
f 90/72/31 31/25/31 32/24/31 91/73/31
f 9/27/35 74/31/35 60/59/35 21/28/35
f 18/14/36 93/101/36 27/20/36 8/6/36
f 24/17/37 25/23/37 93/102/37 18/14/37
f 19/30/38 94/103/38 26/26/38 23/12/38
f 9/27/39 28/21/39 94/104/39 19/30/39
f 26/26/40 94/103/40 93/102/40 25/23/40
f 28/21/41 27/20/41 93/101/41 94/104/41
f 139/105/42 124/106/42 97/107/42 131/108/42
f 125/109/43 123/110/43 98/111/43 96/112/43
f 126/113/44 95/114/44 97/107/44 124/106/44
f 131/108/45 97/107/45 101/115/45 132/116/45
f 96/112/46 98/111/46 102/117/46 100/118/46
f 95/114/47 99/119/47 101/115/47 97/107/47
f 132/116/48 101/115/48 105/120/48 133/121/48
f 100/118/49 102/117/49 106/122/49 104/123/49
f 99/119/50 103/124/50 105/120/50 101/115/50
f 138/125/51 135/126/51 113/127/51 128/128/51
f 129/129/52 112/130/52 114/131/52 127/132/52
f 130/133/53 128/128/53 113/127/53 111/134/53
f 135/126/54 136/135/54 117/136/54 113/127/54
f 112/130/55 116/137/55 118/138/55 114/131/55
f 111/134/56 113/127/56 117/136/56 115/139/56
f 136/135/57 137/140/57 121/141/57 117/136/57
f 116/137/58 120/142/58 122/143/58 118/138/58
f 115/139/59 117/136/59 121/141/59 119/144/59
f 129/129/60 125/109/60 96/112/60 112/130/60
f 112/130/61 96/112/61 100/118/61 116/137/61
f 116/137/62 100/118/62 104/123/62 120/142/62
f 120/145/63 104/123/63 106/122/63 122/146/63
f 137/147/64 133/121/64 105/120/64 121/148/64
f 121/148/65 105/120/65 103/124/65 119/149/65
f 130/150/66 111/151/66 95/114/66 126/113/66
f 111/151/67 115/152/67 99/119/67 95/114/67
f 115/152/68 119/153/68 103/124/68 99/119/68
f 107/154/69 130/150/69 126/113/69 18/155/69
f 108/156/70 19/157/70 125/109/70 129/129/70
f 107/158/71 109/159/71 128/128/71 130/133/71
f 108/156/72 129/129/72 127/132/72 110/160/72
f 134/161/73 138/125/73 128/128/73 109/159/73
f 18/155/74 126/113/74 124/106/74 93/162/74
f 19/157/75 94/163/75 123/110/75 125/109/75
f 94/163/76 93/162/76 124/106/76 139/105/76 123/110/76
f 110/160/77 127/132/77 138/125/77 134/161/77
f 122/146/78 106/122/78 133/121/78 137/147/78
f 118/138/79 122/143/79 137/140/79 136/135/79
f 114/131/80 118/138/80 136/135/80 135/126/80
f 127/132/81 114/131/81 135/126/81 138/125/81
f 102/117/82 132/116/82 133/121/82 106/122/82
f 98/111/83 131/108/83 132/116/83 102/117/83
f 123/110/84 139/105/84 131/108/84 98/111/84
